0
SECTION
2
HEADER
9
$INSUNITS
70
4
9
$ACADVER
1
AC1014
9
$HANDSEED
5
FFFF
0
ENDSEC
0
SECTION
2
TABLES
0
TABLE
2
VPORT
5
8
100
AcDbSymbolTable
0
ENDTAB
0
TABLE
2
LTYPE
5
5
100
AcDbSymbolTable
0
LTYPE
5
14
100
AcDbSymbolTableRecord
100
AcDbLinetypeTableRecord
2
BYBLOCK
70
0
0
LTYPE
5
15
100
AcDbSymbolTableRecord
100
AcDbLinetypeTableRecord
2
BYLAYER
70
0
0
LTYPE
5
16
100
AcDbSymbolTableRecord
100
AcDbLinetypeTableRecord
2
DASHED
70
0
3
Dashed __ __ __ __ __ __ __ __ __ __ __ __ __ _
72
65
73
2
40
0.75
49
0.5
74
0
49
-0.25
74
0
0
ENDTAB
0
TABLE
2
LAYER
5
2
100
AcDbSymbolTable
70
2
0
LAYER
5
50
100
AcDbSymbolTableRecord
100
AcDbLayerTableRecord
2
0
70
0
62
7
6
CONTINUOUS
0
ENDTAB
0
TABLE
2
STYLE
5
3
100
AcDbSymbolTable
70
1
0
STYLE
5
11
100
AcDbSymbolTableRecord
100
AcDbTextStyleTableRecord
2
STANDARD
70
0
0
ENDTAB
0
TABLE
2
VIEW
5
6
100
AcDbSymbolTable
70
0
0
ENDTAB
0
TABLE
2
UCS
5
7
100
AcDbSymbolTable
70
0
0
ENDTAB
0
TABLE
2
APPID
5
9
100
AcDbSymbolTable
70
2
0
APPID
5
12
100
AcDbSymbolTableRecord
100
AcDbRegAppTableRecord
2
ACAD
70
0
0
ENDTAB
0
TABLE
2
DIMSTYLE
5
A
100
AcDbSymbolTable
70
1
0
ENDTAB
0
TABLE
2
BLOCK_RECORD
5
1
100
AcDbSymbolTable
70
1
0
BLOCK_RECORD
5
1F
100
AcDbSymbolTableRecord
100
AcDbBlockTableRecord
2
*MODEL_SPACE
0
BLOCK_RECORD
5
1B
100
AcDbSymbolTableRecord
100
AcDbBlockTableRecord
2
*PAPER_SPACE
0
ENDTAB
0
ENDSEC
0
SECTION
2
BLOCKS
0
BLOCK
5
20
100
AcDbEntity
100
AcDbBlockBegin
2
*MODEL_SPACE
0
ENDBLK
5
21
100
AcDbEntity
100
AcDbBlockEnd
0
BLOCK
5
1C
100
AcDbEntity
100
AcDbBlockBegin
2
*PAPER_SPACE
0
ENDBLK
5
1D
100
AcDbEntity
100
AcDbBlockEnd
0
ENDSEC
0
SECTION
2
ENTITIES
0
LINE
5
100
100
AcDbEntity
8
0
100
AcDbLine
10
-89.999999999998408
20
-42.000000000001741
30
3.5527136788005009e-14
11
-89.999999999998792
21
-48.000000000003624
31
3.5527136788005009e-14
0
LINE
5
101
100
AcDbEntity
8
0
100
AcDbLine
10
-89.999999999999034
20
-96.333333333337322
30
3.5527136788005009e-14
11
11.999999999999815
21
-408.00000000000034
31
3.5527136788005009e-14
0
LINE
5
102
100
AcDbEntity
8
0
100
AcDbLine
10
11.999999999999815
20
-408.00000000000034
30
3.5527136788005009e-14
11
90.000000000000199
21
-408.00000000000182
31
0
0
LINE
5
103
100
AcDbEntity
8
0
100
AcDbLine
10
90.000000000000213
20
-408.00000000000182
30
0
11
90.000000000000227
21
-402.00000000000182
31
1.9721522630525295e-30
0
LINE
5
104
100
AcDbEntity
8
0
100
AcDbLine
10
90.000000000000227
20
-402.00000000000182
30
1.9721522630525295e-30
11
96.000000000000213
21
-401.99999999999989
31
0
0
LINE
5
105
100
AcDbEntity
8
0
100
AcDbLine
10
96.000000000000213
20
-401.99999999999989
30
0
11
96.000000000000213
21
-396.00000000000182
31
0
0
LINE
5
106
100
AcDbEntity
8
0
100
AcDbLine
10
96.000000000000213
20
-396.00000000000182
30
0
11
90.000000000000199
21
-396.00000000000182
31
0
0
LINE
5
107
100
AcDbEntity
8
0
100
AcDbLine
10
90.000000000000199
20
-396.00000000000182
30
0
11
90.000000000000227
21
-390.00000000000176
31
1.9721522630525295e-30
0
LINE
5
108
100
AcDbEntity
8
0
100
AcDbLine
10
90.000000000000227
20
-390.00000000000176
30
1.9721522630525295e-30
11
96.000000000000213
21
-389.99999999999989
31
0
0
LINE
5
109
100
AcDbEntity
8
0
100
AcDbLine
10
96.000000000000213
20
-389.99999999999989
30
0
11
96.000000000000213
21
-384.00000000000176
31
3.5527136788005009e-14
0
LINE
5
110
100
AcDbEntity
8
0
100
AcDbLine
10
96.000000000000213
20
-384.00000000000176
30
3.5527136788005009e-14
11
90.000000000000199
21
-384.00000000000176
31
3.5527136788005009e-14
0
LINE
5
111
100
AcDbEntity
8
0
100
AcDbLine
10
90.000000000000199
20
-384.00000000000176
30
3.5527136788005009e-14
11
90.000000000000227
21
-378.00000000000176
31
1.9721522630525295e-30
0
LINE
5
112
100
AcDbEntity
8
0
100
AcDbLine
10
90.000000000000227
20
-378.00000000000176
30
1.9721522630525295e-30
11
96.000000000000213
21
-377.99999999999983
31
0
0
LINE
5
113
100
AcDbEntity
8
0
100
AcDbLine
10
96.000000000000213
20
-377.99999999999983
30
0
11
96.000000000000213
21
-372.00000000000182
31
3.5527136788005009e-14
0
LINE
5
114
100
AcDbEntity
8
0
100
AcDbLine
10
96.000000000000213
20
-372.00000000000182
30
3.5527136788005009e-14
11
90.000000000000199
21
-372.00000000000182
31
3.5527136788005009e-14
0
LINE
5
115
100
AcDbEntity
8
0
100
AcDbLine
10
90.000000000000199
20
-372.00000000000182
30
3.5527136788005009e-14
11
90.000000000000227
21
-366.00000000000182
31
1.9721522630525295e-30
0
LINE
5
116
100
AcDbEntity
8
0
100
AcDbLine
10
90.000000000000227
20
-366.00000000000182
30
1.9721522630525295e-30
11
96.000000000000213
21
-365.99999999999989
31
0
0
LINE
5
117
100
AcDbEntity
8
0
100
AcDbLine
10
96.000000000000213
20
-365.99999999999989
30
0
11
96.000000000000213
21
-360.00000000000176
31
3.5527136788005009e-14
0
LINE
5
118
100
AcDbEntity
8
0
100
AcDbLine
10
96.000000000000213
20
-360.00000000000176
30
3.5527136788005009e-14
11
90.000000000000199
21
-360.00000000000176
31
3.5527136788005009e-14
0
LINE
5
119
100
AcDbEntity
8
0
100
AcDbLine
10
90.000000000000199
20
-360.00000000000176
30
3.5527136788005009e-14
11
90.000000000000227
21
-354.00000000000176
31
1.9721522630525295e-30
0
LINE
5
120
100
AcDbEntity
8
0
100
AcDbLine
10
90.000000000000227
20
-354.00000000000176
30
1.9721522630525295e-30
11
96.000000000000213
21
-353.99999999999983
31
0
0
LINE
5
121
100
AcDbEntity
8
0
100
AcDbLine
10
96.000000000000213
20
-353.99999999999983
30
0
11
96.000000000000213
21
-348.00000000000182
31
3.5527136788005009e-14
0
LINE
5
122
100
AcDbEntity
8
0
100
AcDbLine
10
96.000000000000213
20
-348.00000000000182
30
3.5527136788005009e-14
11
90.000000000000213
21
-348.00000000000182
31
0
0
LINE
5
123
100
AcDbEntity
8
0
100
AcDbLine
10
90.000000000000213
20
-348.00000000000182
30
0
11
90.000000000000227
21
-342.00000000000182
31
1.9721522630525295e-30
0
LINE
5
124
100
AcDbEntity
8
0
100
AcDbLine
10
90.000000000000227
20
-342.00000000000182
30
1.9721522630525295e-30
11
96.000000000000213
21
-341.99999999999989
31
0
0
LINE
5
125
100
AcDbEntity
8
0
100
AcDbLine
10
96.000000000000213
20
-341.99999999999989
30
0
11
96.000000000000227
21
-336.00000000000182
31
0
0
LINE
5
126
100
AcDbEntity
8
0
100
AcDbLine
10
96.000000000000227
20
-336.00000000000182
30
0
11
90.000000000000213
21
-336.00000000000182
31
0
0
LINE
5
127
100
AcDbEntity
8
0
100
AcDbLine
10
90.000000000000213
20
-336.00000000000182
30
0
11
90.000000000000227
21
-330.00000000000176
31
1.9721522630525295e-30
0
LINE
5
128
100
AcDbEntity
8
0
100
AcDbLine
10
90.000000000000227
20
-330.00000000000176
30
1.9721522630525295e-30
11
96.000000000000213
21
-329.99999999999994
31
0
0
LINE
5
129
100
AcDbEntity
8
0
100
AcDbLine
10
96.000000000000213
20
-329.99999999999994
30
0
11
96.000000000000199
21
-324.00000000000176
31
0
0
LINE
5
130
100
AcDbEntity
8
0
100
AcDbLine
10
96.000000000000199
20
-324.00000000000176
30
0
11
90.000000000000156
21
-324.00000000000176
31
0
0
LINE
5
131
100
AcDbEntity
8
0
100
AcDbLine
10
90.000000000000156
20
-324.00000000000176
30
0
11
90.000000000000199
21
-318.00000000000176
31
1.9721522630525295e-30
0
LINE
5
132
100
AcDbEntity
8
0
100
AcDbLine
10
90.000000000000199
20
-318.00000000000176
30
1.9721522630525295e-30
11
96.000000000000171
21
-317.99999999999983
31
0
0
LINE
5
133
100
AcDbEntity
8
0
100
AcDbLine
10
96.000000000000171
20
-317.99999999999983
30
0
11
96.000000000000171
21
-312.00000000000171
31
-6.1629758220391547e-32
0
LINE
5
134
100
AcDbEntity
8
0
100
AcDbLine
10
96.000000000000171
20
-312.00000000000171
30
-6.1629758220391547e-32
11
90.000000000000156
21
-312.00000000000171
31
0
0
LINE
5
135
100
AcDbEntity
8
0
100
AcDbLine
10
90.000000000000156
20
-312.00000000000171
30
0
11
90.000000000000199
21
-306.00000000000171
31
2.9582283945787943e-30
0
LINE
5
136
100
AcDbEntity
8
0
100
AcDbLine
10
90.000000000000199
20
-306.00000000000171
30
2.9582283945787943e-30
11
96.000000000000171
21
-305.99999999999983
31
0
0
LINE
5
137
100
AcDbEntity
8
0
100
AcDbLine
10
96.000000000000171
20
-305.99999999999983
30
0
11
96.000000000000171
21
-300.00000000000171
31
-6.1629758220391547e-32
0
LINE
5
138
100
AcDbEntity
8
0
100
AcDbLine
10
96.000000000000171
20
-300.00000000000171
30
-6.1629758220391547e-32
11
90.000000000000156
21
-300.00000000000171
31
0
0
LINE
5
139
100
AcDbEntity
8
0
100
AcDbLine
10
90.000000000000156
20
-300.00000000000171
30
0
11
90.000000000000199
21
-294.00000000000171
31
2.9582283945787943e-30
0
LINE
5
140
100
AcDbEntity
8
0
100
AcDbLine
10
90.000000000000199
20
-294.00000000000171
30
2.9582283945787943e-30
11
96.000000000000171
21
-293.99999999999983
31
0
0
LINE
5
141
100
AcDbEntity
8
0
100
AcDbLine
10
96.000000000000171
20
-293.99999999999983
30
0
11
96.000000000000171
21
-288.00000000000171
31
-6.1629758220391547e-32
0
LINE
5
142
100
AcDbEntity
8
0
100
AcDbLine
10
96.000000000000171
20
-288.00000000000171
30
-6.1629758220391547e-32
11
90.000000000000156
21
-288.00000000000171
31
0
0
LINE
5
143
100
AcDbEntity
8
0
100
AcDbLine
10
90.000000000000156
20
-288.00000000000171
30
0
11
90.000000000000199
21
-282.00000000000171
31
2.9582283945787943e-30
0
LINE
5
144
100
AcDbEntity
8
0
100
AcDbLine
10
90.000000000000199
20
-282.00000000000171
30
2.9582283945787943e-30
11
96.000000000000171
21
-281.99999999999983
31
0
0
LINE
5
145
100
AcDbEntity
8
0
100
AcDbLine
10
96.000000000000171
20
-281.99999999999983
30
0
11
96.000000000000171
21
-276.00000000000171
31
-6.1629758220391547e-32
0
LINE
5
146
100
AcDbEntity
8
0
100
AcDbLine
10
96.000000000000171
20
-276.00000000000171
30
-6.1629758220391547e-32
11
90.000000000000156
21
-276.00000000000171
31
0
0
LINE
5
147
100
AcDbEntity
8
0
100
AcDbLine
10
90.000000000000156
20
-276.00000000000171
30
0
11
90.000000000000199
21
-270.00000000000176
31
2.9582283945787943e-30
0
LINE
5
148
100
AcDbEntity
8
0
100
AcDbLine
10
90.000000000000199
20
-270.00000000000176
30
2.9582283945787943e-30
11
96.000000000000171
21
-269.99999999999989
31
0
0
LINE
5
149
100
AcDbEntity
8
0
100
AcDbLine
10
96.000000000000171
20
-269.99999999999989
30
0
11
96.000000000000171
21
-264.00000000000171
31
-6.1629758220391547e-32
0
LINE
5
150
100
AcDbEntity
8
0
100
AcDbLine
10
96.000000000000171
20
-264.00000000000171
30
-6.1629758220391547e-32
11
90.000000000000156
21
-264.00000000000171
31
0
0
LINE
5
151
100
AcDbEntity
8
0
100
AcDbLine
10
90.000000000000156
20
-264.00000000000171
30
0
11
90.000000000000199
21
-258.00000000000171
31
2.9582283945787943e-30
0
LINE
5
152
100
AcDbEntity
8
0
100
AcDbLine
10
90.000000000000199
20
-258.00000000000171
30
2.9582283945787943e-30
11
96.000000000000171
21
-257.99999999999983
31
0
0
LINE
5
153
100
AcDbEntity
8
0
100
AcDbLine
10
96.000000000000171
20
-257.99999999999983
30
0
11
96.000000000000171
21
-252.00000000000171
31
-6.1629758220391547e-32
0
LINE
5
154
100
AcDbEntity
8
0
100
AcDbLine
10
96.000000000000171
20
-252.00000000000171
30
-6.1629758220391547e-32
11
90.000000000000156
21
-252.00000000000171
31
0
0
LINE
5
155
100
AcDbEntity
8
0
100
AcDbLine
10
90.000000000000156
20
-252.00000000000171
30
0
11
90.000000000000199
21
-246.00000000000171
31
2.9582283945787943e-30
0
LINE
5
156
100
AcDbEntity
8
0
100
AcDbLine
10
90.000000000000199
20
-246.00000000000171
30
2.9582283945787943e-30
11
96.000000000000199
21
-245.99999999999983
31
0
0
LINE
5
157
100
AcDbEntity
8
0
100
AcDbLine
10
96.000000000000199
20
-245.99999999999983
30
0
11
96.000000000000171
21
-240.00000000000171
31
-6.1629758220391547e-32
0
LINE
5
158
100
AcDbEntity
8
0
100
AcDbLine
10
96.000000000000171
20
-240.00000000000171
30
-6.1629758220391547e-32
11
90.000000000000156
21
-240.00000000000171
31
0
0
LINE
5
159
100
AcDbEntity
8
0
100
AcDbLine
10
90.000000000000156
20
-240.00000000000171
30
0
11
90.000000000000199
21
-234.00000000000173
31
2.9582283945787943e-30
0
LINE
5
160
100
AcDbEntity
8
0
100
AcDbLine
10
90.000000000000199
20
-234.00000000000173
30
2.9582283945787943e-30
11
96.000000000000199
21
-233.99999999999983
31
0
0
LINE
5
161
100
AcDbEntity
8
0
100
AcDbLine
10
96.000000000000199
20
-233.99999999999983
30
0
11
96.000000000000171
21
-228.00000000000168
31
3.5527136788005009e-14
0
LINE
5
162
100
AcDbEntity
8
0
100
AcDbLine
10
96.000000000000171
20
-228.00000000000168
30
3.5527136788005009e-14
11
90.000000000000171
21
-228.00000000000168
31
0
0
LINE
5
163
100
AcDbEntity
8
0
100
AcDbLine
10
90.000000000000171
20
-228.00000000000168
30
0
11
90.000000000000199
21
-222.00000000000171
31
2.9582283945787943e-30
0
LINE
5
164
100
AcDbEntity
8
0
100
AcDbLine
10
90.000000000000199
20
-222.00000000000171
30
2.9582283945787943e-30
11
96.000000000000199
21
-221.99999999999983
31
0
0
LINE
5
165
100
AcDbEntity
8
0
100
AcDbLine
10
96.000000000000199
20
-221.99999999999983
30
0
11
96.000000000000199
21
-216.00000000000168
31
-6.1629758220391547e-32
0
LINE
5
166
100
AcDbEntity
8
0
100
AcDbLine
10
96.000000000000199
20
-216.00000000000168
30
-6.1629758220391547e-32
11
90.000000000000171
21
-216.00000000000168
31
0
0
LINE
5
167
100
AcDbEntity
8
0
100
AcDbLine
10
90.000000000000171
20
-216.00000000000168
30
0
11
90.000000000000199
21
-210.00000000000171
31
2.9582283945787943e-30
0
LINE
5
168
100
AcDbEntity
8
0
100
AcDbLine
10
90.000000000000199
20
-210.00000000000171
30
2.9582283945787943e-30
11
96.000000000000199
21
-209.99999999999983
31
0
0
LINE
5
169
100
AcDbEntity
8
0
100
AcDbLine
10
96.000000000000199
20
-209.99999999999983
30
0
11
96.000000000000199
21
-204.00000000000171
31
-6.1629758220391547e-32
0
LINE
5
170
100
AcDbEntity
8
0
100
AcDbLine
10
96.000000000000199
20
-204.00000000000171
30
-6.1629758220391547e-32
11
90.000000000000171
21
-204.00000000000171
31
0
0
LINE
5
171
100
AcDbEntity
8
0
100
AcDbLine
10
90.000000000000171
20
-204.00000000000171
30
0
11
90.000000000000199
21
-198.00000000000171
31
2.9582283945787943e-30
0
LINE
5
172
100
AcDbEntity
8
0
100
AcDbLine
10
90.000000000000199
20
-198.00000000000171
30
2.9582283945787943e-30
11
96.000000000000199
21
-197.99999999999983
31
0
0
LINE
5
173
100
AcDbEntity
8
0
100
AcDbLine
10
96.000000000000199
20
-197.99999999999983
30
0
11
96.000000000000199
21
-192.00000000000171
31
-6.1629758220391547e-32
0
LINE
5
174
100
AcDbEntity
8
0
100
AcDbLine
10
96.000000000000199
20
-192.00000000000171
30
-6.1629758220391547e-32
11
90.000000000000171
21
-192.00000000000171
31
0
0
LINE
5
175
100
AcDbEntity
8
0
100
AcDbLine
10
90.000000000000171
20
-192.00000000000171
30
0
11
90.000000000000199
21
-186.00000000000171
31
2.9582283945787943e-30
0
LINE
5
176
100
AcDbEntity
8
0
100
AcDbLine
10
90.000000000000199
20
-186.00000000000171
30
2.9582283945787943e-30
11
96.000000000000199
21
-185.99999999999983
31
0
0
LINE
5
177
100
AcDbEntity
8
0
100
AcDbLine
10
96.000000000000199
20
-185.99999999999983
30
0
11
96.000000000000199
21
-180.00000000000171
31
-6.1629758220391547e-32
0
LINE
5
178
100
AcDbEntity
8
0
100
AcDbLine
10
96.000000000000199
20
-180.00000000000171
30
-6.1629758220391547e-32
11
90.000000000000171
21
-180.00000000000171
31
0
0
LINE
5
179
100
AcDbEntity
8
0
100
AcDbLine
10
90.000000000000171
20
-180.00000000000171
30
0
11
90.000000000000199
21
-174.00000000000173
31
2.9582283945787943e-30
0
LINE
5
180
100
AcDbEntity
8
0
100
AcDbLine
10
90.000000000000199
20
-174.00000000000173
30
2.9582283945787943e-30
11
96.000000000000199
21
-173.99999999999983
31
0
0
LINE
5
181
100
AcDbEntity
8
0
100
AcDbLine
10
96.000000000000199
20
-173.99999999999983
30
0
11
96.000000000000199
21
-168.00000000000171
31
-6.1629758220391547e-32
0
LINE
5
182
100
AcDbEntity
8
0
100
AcDbLine
10
96.000000000000199
20
-168.00000000000171
30
-6.1629758220391547e-32
11
90.000000000000171
21
-168.00000000000171
31
0
0
LINE
5
183
100
AcDbEntity
8
0
100
AcDbLine
10
90.000000000000171
20
-168.00000000000171
30
0
11
90.000000000000213
21
-162.00000000000171
31
1.9721522630525295e-30
0
LINE
5
184
100
AcDbEntity
8
0
100
AcDbLine
10
90.000000000000213
20
-162.00000000000171
30
1.9721522630525295e-30
11
96.000000000000199
21
-161.99999999999983
31
0
0
LINE
5
185
100
AcDbEntity
8
0
100
AcDbLine
10
96.000000000000199
20
-161.99999999999983
30
0
11
96.000000000000199
21
-156.00000000000171
31
0
0
LINE
5
186
100
AcDbEntity
8
0
100
AcDbLine
10
96.000000000000199
20
-156.00000000000171
30
0
11
90.000000000000171
21
-156.00000000000176
31
0
0
LINE
5
187
100
AcDbEntity
8
0
100
AcDbLine
10
90.000000000000171
20
-156.00000000000176
30
0
11
90.000000000000213
21
-150.00000000000176
31
1.9721522630525295e-30
0
LINE
5
188
100
AcDbEntity
8
0
100
AcDbLine
10
90.000000000000213
20
-150.00000000000176
30
1.9721522630525295e-30
11
96.000000000000199
21
-149.99999999999989
31
0
0
LINE
5
189
100
AcDbEntity
8
0
100
AcDbLine
10
96.000000000000199
20
-149.99999999999989
30
0
11
96.000000000000199
21
-144.00000000000179
31
0
0
LINE
5
190
100
AcDbEntity
8
0
100
AcDbLine
10
96.000000000000199
20
-144.00000000000179
30
0
11
90.000000000000171
21
-144.00000000000179
31
0
0
LINE
5
191
100
AcDbEntity
8
0
100
AcDbLine
10
90.000000000000171
20
-144.00000000000179
30
0
11
90.000000000000213
21
-138.00000000000176
31
1.9721522630525295e-30
0
LINE
5
192
100
AcDbEntity
8
0
100
AcDbLine
10
90.000000000000213
20
-138.00000000000176
30
1.9721522630525295e-30
11
96.000000000000199
21
-137.99999999999989
31
0
0
LINE
5
193
100
AcDbEntity
8
0
100
AcDbLine
10
96.000000000000199
20
-137.99999999999989
30
0
11
96.000000000000199
21
-132.00000000000176
31
-6.1629758220391547e-32
0
LINE
5
194
100
AcDbEntity
8
0
100
AcDbLine
10
96.000000000000199
20
-132.00000000000176
30
-6.1629758220391547e-32
11
90.000000000000171
21
-132.00000000000176
31
0
0
LINE
5
195
100
AcDbEntity
8
0
100
AcDbLine
10
90.000000000000171
20
-132.00000000000176
30
0
11
90.000000000000213
21
-126.00000000000173
31
1.9721522630525295e-30
0
LINE
5
196
100
AcDbEntity
8
0
100
AcDbLine
10
90.000000000000213
20
-126.00000000000173
30
1.9721522630525295e-30
11
96.000000000000199
21
-125.99999999999986
31
0
0
LINE
5
197
100
AcDbEntity
8
0
100
AcDbLine
10
96.000000000000199
20
-125.99999999999986
30
0
11
96.000000000000156
21
-120.00000000000176
31
0
0
LINE
5
198
100
AcDbEntity
8
0
100
AcDbLine
10
96.000000000000156
20
-120.00000000000176
30
0
11
90.000000000000142
21
-120.00000000000176
31
0
0
LINE
5
199
100
AcDbEntity
8
0
100
AcDbLine
10
90.000000000000142
20
-120.00000000000176
30
0
11
90.000000000000156
21
-114.00000000000175
31
1.9721522630525295e-30
0
LINE
5
200
100
AcDbEntity
8
0
100
AcDbLine
10
90.000000000000156
20
-114.00000000000175
30
1.9721522630525295e-30
11
96.000000000000142
21
-113.99999999999986
31
0
0
LINE
5
201
100
AcDbEntity
8
0
100
AcDbLine
10
96.000000000000142
20
-113.99999999999986
30
0
11
96.000000000000156
21
-108.00000000000176
31
0
0
LINE
5
202
100
AcDbEntity
8
0
100
AcDbLine
10
96.000000000000156
20
-108.00000000000176
30
0
11
90.000000000000142
21
-108.00000000000176
31
0
0
LINE
5
203
100
AcDbEntity
8
0
100
AcDbLine
10
90.000000000000142
20
-108.00000000000176
30
0
11
90.000000000000156
21
-102.00000000000175
31
1.9721522630525295e-30
0
LINE
5
204
100
AcDbEntity
8
0
100
AcDbLine
10
90.000000000000156
20
-102.00000000000175
30
1.9721522630525295e-30
11
96.000000000000142
21
-101.99999999999987
31
0
0
LINE
5
205
100
AcDbEntity
8
0
100
AcDbLine
10
96.000000000000142
20
-101.99999999999987
30
0
11
96.000000000000156
21
-96.000000000001734
31
-6.1629758220391547e-32
0
LINE
5
206
100
AcDbEntity
8
0
100
AcDbLine
10
96.000000000000156
20
-96.000000000001734
30
-6.1629758220391547e-32
11
90.000000000000142
21
-96.000000000001734
31
0
0
LINE
5
207
100
AcDbEntity
8
0
100
AcDbLine
10
90.000000000000142
20
-96.000000000001734
30
0
11
90.000000000000156
21
-90.000000000001762
31
2.9582283945787943e-30
0
LINE
5
208
100
AcDbEntity
8
0
100
AcDbLine
10
90.000000000000156
20
-90.000000000001762
30
2.9582283945787943e-30
11
96.000000000000156
21
-89.999999999999872
31
0
0
LINE
5
209
100
AcDbEntity
8
0
100
AcDbLine
10
96.000000000000156
20
-89.999999999999872
30
0
11
96.000000000000156
21
-84.000000000001748
31
-6.1629758220391547e-32
0
LINE
5
210
100
AcDbEntity
8
0
100
AcDbLine
10
96.000000000000156
20
-84.000000000001748
30
-6.1629758220391547e-32
11
90.000000000000142
21
-84.000000000001748
31
0
0
LINE
5
211
100
AcDbEntity
8
0
100
AcDbLine
10
90.000000000000142
20
-84.000000000001748
30
0
11
90.000000000000156
21
-78.000000000001748
31
4.9303806576313238e-30
0
LINE
5
212
100
AcDbEntity
8
0
100
AcDbLine
10
90.000000000000156
20
-78.000000000001748
30
4.9303806576313238e-30
11
96.000000000000156
21
-77.999999999999829
31
0
0
LINE
5
213
100
AcDbEntity
8
0
100
AcDbLine
10
96.000000000000156
20
-77.999999999999829
30
0
11
96.000000000000156
21
-72.00000000000172
31
-6.1629758220391547e-32
0
LINE
5
214
100
AcDbEntity
8
0
100
AcDbLine
10
96.000000000000156
20
-72.00000000000172
30
-6.1629758220391547e-32
11
90.000000000000142
21
-72.00000000000172
31
0
0
LINE
5
215
100
AcDbEntity
8
0
100
AcDbLine
10
90.000000000000142
20
-72.00000000000172
30
0
11
90.000000000000156
21
-66.00000000000172
31
4.9303806576313238e-30
0
LINE
5
216
100
AcDbEntity
8
0
100
AcDbLine
10
90.000000000000156
20
-66.00000000000172
30
4.9303806576313238e-30
11
96.000000000000156
21
-65.999999999999829
31
0
0
LINE
5
217
100
AcDbEntity
8
0
100
AcDbLine
10
96.000000000000156
20
-65.999999999999829
30
0
11
96.000000000000156
21
-60.000000000001712
31
-6.1629758220391547e-32
0
LINE
5
218
100
AcDbEntity
8
0
100
AcDbLine
10
96.000000000000156
20
-60.000000000001712
30
-6.1629758220391547e-32
11
90.000000000000142
21
-60.000000000001712
31
0
0
LINE
5
219
100
AcDbEntity
8
0
100
AcDbLine
10
90.000000000000142
20
-60.000000000001712
30
0
11
90.000000000000156
21
-54.00000000000172
31
4.9303806576313238e-30
0
LINE
5
220
100
AcDbEntity
8
0
100
AcDbLine
10
90.000000000000156
20
-54.00000000000172
30
4.9303806576313238e-30
11
96.000000000000156
21
-53.999999999999829
31
0
0
LINE
5
221
100
AcDbEntity
8
0
100
AcDbLine
10
96.000000000000156
20
-53.999999999999829
30
0
11
96.000000000000156
21
-48.000000000001712
31
-6.1629758220391547e-32
0
LINE
5
222
100
AcDbEntity
8
0
100
AcDbLine
10
96.000000000000156
20
-48.000000000001712
30
-6.1629758220391547e-32
11
90.000000000000142
21
-48.000000000001712
31
0
0
LINE
5
223
100
AcDbEntity
8
0
100
AcDbLine
10
90.000000000000142
20
-48.000000000001712
30
0
11
90.000000000000156
21
-42.000000000001705
31
5.9164567891575885e-30
0
LINE
5
224
100
AcDbEntity
8
0
100
AcDbLine
10
90.000000000000156
20
-42.000000000001705
30
5.9164567891575885e-30
11
96.000000000000156
21
-41.999999999999822
31
0
0
LINE
5
225
100
AcDbEntity
8
0
100
AcDbLine
10
96.000000000000156
20
-41.999999999999822
30
0
11
96.000000000000156
21
-36.000000000001712
31
-6.1629758220391547e-32
0
LINE
5
226
100
AcDbEntity
8
0
100
AcDbLine
10
96.000000000000156
20
-36.000000000001712
30
-6.1629758220391547e-32
11
90.000000000000142
21
-36.000000000001712
31
0
0
LINE
5
227
100
AcDbEntity
8
0
100
AcDbLine
10
90.000000000000142
20
-36.000000000001712
30
0
11
90.000000000000156
21
-30.000000000001712
31
4.9303806576313238e-30
0
LINE
5
228
100
AcDbEntity
8
0
100
AcDbLine
10
90.000000000000156
20
-30.000000000001712
30
4.9303806576313238e-30
11
96.000000000000156
21
-29.999999999999826
31
0
0
LINE
5
229
100
AcDbEntity
8
0
100
AcDbLine
10
96.000000000000156
20
-29.999999999999826
30
0
11
96.000000000000156
21
-24.000000000001712
31
-6.1629758220391547e-32
0
LINE
5
230
100
AcDbEntity
8
0
100
AcDbLine
10
96.000000000000156
20
-24.000000000001712
30
-6.1629758220391547e-32
11
90.000000000000142
21
-24.000000000001712
31
0
0
LINE
5
231
100
AcDbEntity
8
0
100
AcDbLine
10
90.000000000000142
20
-24.000000000001712
30
0
11
90.000000000000156
21
-18.000000000001712
31
4.9303806576313238e-30
0
LINE
5
232
100
AcDbEntity
8
0
100
AcDbLine
10
90.000000000000156
20
-18.000000000001712
30
4.9303806576313238e-30
11
96.000000000000156
21
-17.999999999999826
31
0
0
LINE
5
233
100
AcDbEntity
8
0
100
AcDbLine
10
96.000000000000156
20
-17.999999999999826
30
0
11
96.000000000000156
21
-12.000000000001709
31
-1.2325951644078309e-31
0
LINE
5
234
100
AcDbEntity
8
0
100
AcDbLine
10
96.000000000000156
20
-12.000000000001709
30
-1.2325951644078309e-31
11
90.000000000000142
21
-12.000000000001709
31
0
0
LINE
5
235
100
AcDbEntity
8
0
100
AcDbLine
10
90.000000000000142
20
-12.000000000001709
30
0
11
90.000000000000171
21
-1.716404796070492e-12
31
1.9721522630525295e-30
0
LINE
5
236
100
AcDbEntity
8
0
100
AcDbLine
10
90.000000000000171
20
-1.716404796070492e-12
30
1.9721522630525295e-30
11
84.000000000000128
21
3.5678088960327405e-15
31
0
0
LINE
5
237
100
AcDbEntity
8
0
100
AcDbLine
10
84.000000000000128
20
3.5678088960327405e-15
30
0
11
84.000000000000142
21
-5.9999999999998268
31
3.5527136788005016e-14
0
LINE
5
238
100
AcDbEntity
8
0
100
AcDbLine
10
84.000000000000142
20
-5.9999999999998268
30
3.5527136788005016e-14
11
78.000000000000142
21
-6.0000000000017124
31
3.5527136788005009e-14
0
LINE
5
239
100
AcDbEntity
8
0
100
AcDbLine
10
78.000000000000142
20
-6.0000000000017124
30
3.5527136788005009e-14
11
78.000000000000142
21
-1.716404796070492e-12
31
-1.2325951644078309e-31
0
LINE
5
240
100
AcDbEntity
8
0
100
AcDbLine
10
78.000000000000142
20
-1.716404796070492e-12
30
-1.2325951644078309e-31
11
72.000000000000114
21
3.5678088960327405e-15
31
0
0
LINE
5
241
100
AcDbEntity
8
0
100
AcDbLine
10
72.000000000000114
20
3.5678088960327405e-15
30
0
11
72.000000000000142
21
-5.9999999999998268
31
7.3955709864469857e-30
0
LINE
5
242
100
AcDbEntity
8
0
100
AcDbLine
10
72.000000000000142
20
-5.9999999999998268
30
7.3955709864469857e-30
11
66.000000000000142
21
-6.0000000000017124
31
0
0
LINE
5
243
100
AcDbEntity
8
0
100
AcDbLine
10
66.000000000000142
20
-6.0000000000017124
30
0
11
66.000000000000128
21
-1.716404796070492e-12
31
-1.2325951644078309e-31
0
LINE
5
244
100
AcDbEntity
8
0
100
AcDbLine
10
66.000000000000128
20
-1.716404796070492e-12
30
-1.2325951644078309e-31
11
60.000000000000135
21
3.5678088960327405e-15
31
0
0
LINE
5
245
100
AcDbEntity
8
0
100
AcDbLine
10
60.000000000000135
20
3.5678088960327405e-15
30
0
11
60.000000000000149
21
-5.9999999999998268
31
7.3955709864469857e-30
0
LINE
5
246
100
AcDbEntity
8
0
100
AcDbLine
10
60.000000000000149
20
-5.9999999999998268
30
7.3955709864469857e-30
11
54.000000000000142
21
-6.0000000000017124
31
0
0
LINE
5
247
100
AcDbEntity
8
0
100
AcDbLine
10
54.000000000000142
20
-6.0000000000017124
30
0
11
54.000000000000156
21
-1.716404796070492e-12
31
-1.2325951644078309e-31
0
LINE
5
248
100
AcDbEntity
8
0
100
AcDbLine
10
54.000000000000156
20
-1.716404796070492e-12
30
-1.2325951644078309e-31
11
48.000000000000128
21
3.5678088960329929e-15
31
0
0
LINE
5
249
100
AcDbEntity
8
0
100
AcDbLine
10
48.000000000000128
20
3.5678088960329929e-15
30
0
11
48.000000000000149
21
-5.9999999999998268
31
7.3955709864469857e-30
0
LINE
5
250
100
AcDbEntity
8
0
100
AcDbLine
10
48.000000000000149
20
-5.9999999999998268
30
7.3955709864469857e-30
11
42.000000000000156
21
-6.0000000000017124
31
0
0
LINE
5
251
100
AcDbEntity
8
0
100
AcDbLine
10
42.000000000000156
20
-6.0000000000017124
30
0
11
42.000000000000156
21
-1.716404796070492e-12
31
-1.2325951644078309e-31
0
LINE
5
252
100
AcDbEntity
8
0
100
AcDbLine
10
42.000000000000156
20
-1.716404796070492e-12
30
-1.2325951644078309e-31
11
36.000000000000128
21
3.5678088960329929e-15
31
0
0
LINE
5
253
100
AcDbEntity
8
0
100
AcDbLine
10
36.000000000000128
20
3.5678088960329929e-15
30
0
11
36.000000000000135
21
-5.9999999999998268
31
7.3955709864469857e-30
0
LINE
5
254
100
AcDbEntity
8
0
100
AcDbLine
10
36.000000000000135
20
-5.9999999999998268
30
7.3955709864469857e-30
11
30.000000000000156
21
-6.0000000000017124
31
0
0
LINE
5
255
100
AcDbEntity
8
0
100
AcDbLine
10
30.000000000000156
20
-6.0000000000017124
30
0
11
30.000000000000142
21
-1.716404796070492e-12
31
-1.2325951644078309e-31
0
LINE
5
256
100
AcDbEntity
8
0
100
AcDbLine
10
30.000000000000142
20
-1.716404796070492e-12
30
-1.2325951644078309e-31
11
24.00000000000011
21
3.5678088960327405e-15
31
-5.5511151231257827e-16
0
LINE
5
257
100
AcDbEntity
8
0
100
AcDbLine
10
24.00000000000011
20
3.5678088960327405e-15
30
-5.5511151231257827e-16
11
24.000000000000107
21
-5.9999999999998268
31
7.3955709864469857e-30
0
LINE
5
258
100
AcDbEntity
8
0
100
AcDbLine
10
24.000000000000107
20
-5.9999999999998268
30
7.3955709864469857e-30
11
18.000000000000117
21
-6.0000000000017124
31
0
0
LINE
5
259
100
AcDbEntity
8
0
100
AcDbLine
10
18.000000000000117
20
-6.0000000000017124
30
0
11
18.000000000000114
21
-1.716404796070492e-12
31
3.5527136788005009e-14
0
LINE
5
260
100
AcDbEntity
8
0
100
AcDbLine
10
18.000000000000114
20
-1.716404796070492e-12
30
3.5527136788005009e-14
11
12.000000000000121
21
3.5678088960327405e-15
31
3.5527136788005009e-14
0
LINE
5
261
100
AcDbEntity
8
0
100
AcDbLine
10
12.000000000000121
20
3.5678088960327405e-15
30
3.5527136788005009e-14
11
12.000000000000114
21
-5.9999999999998268
31
7.3955709864469857e-30
0
LINE
5
262
100
AcDbEntity
8
0
100
AcDbLine
10
12.000000000000114
20
-5.9999999999998268
30
7.3955709864469857e-30
11
6.0000000000001341
21
-6.0000000000017124
31
3.5527136788005009e-14
0
LINE
5
263
100
AcDbEntity
8
0
100
AcDbLine
10
6.0000000000001341
20
-6.0000000000017124
30
3.5527136788005009e-14
11
6.0000000000001297
21
-1.7152945730458669e-12
31
-1.2325951644078309e-31
0
LINE
5
264
100
AcDbEntity
8
0
100
AcDbLine
10
6.0000000000001297
20
-1.7152945730458669e-12
30
-1.2325951644078309e-31
11
1.0547118733938987e-13
21
3.5678088960327405e-15
31
0
0
LINE
5
265
100
AcDbEntity
8
0
100
AcDbLine
10
1.0547118733938987e-13
20
3.5678088960327405e-15
30
0
11
1.1134114416988295e-13
21
-5.9999999999998268
31
7.3955709864469857e-30
0
LINE
5
266
100
AcDbEntity
8
0
100
AcDbLine
10
1.1134114416988295e-13
20
-5.9999999999998268
30
7.3955709864469857e-30
11
-5.9999999999998597
21
-6.0000000000017124
31
3.5527136788005009e-14
0
LINE
5
267
100
AcDbEntity
8
0
100
AcDbLine
10
-5.9999999999998597
20
-6.0000000000017124
30
3.5527136788005009e-14
11
-5.9999999999998721
21
-1.716404796070492e-12
31
-1.2325951644078309e-31
0
LINE
5
268
100
AcDbEntity
8
0
100
AcDbLine
10
-5.9999999999998721
20
-1.716404796070492e-12
30
-1.2325951644078309e-31
11
-11.999999999999895
21
3.5678088960327405e-15
31
0
0
LINE
5
269
100
AcDbEntity
8
0
100
AcDbLine
10
-11.999999999999895
20
3.5678088960327405e-15
30
0
11
-11.99999999999989
21
-5.9999999999998268
31
7.3955709864469857e-30
0
LINE
5
270
100
AcDbEntity
8
0
100
AcDbLine
10
-11.99999999999989
20
-5.9999999999998268
30
7.3955709864469857e-30
11
-17.999999999999886
21
-6.0000000000017124
31
0
0
LINE
5
271
100
AcDbEntity
8
0
100
AcDbLine
10
-17.999999999999886
20
-6.0000000000017124
30
0
11
-17.999999999999872
21
-1.716404796070492e-12
31
-1.2325951644078309e-31
0
LINE
5
272
100
AcDbEntity
8
0
100
AcDbLine
10
-17.999999999999872
20
-1.716404796070492e-12
30
-1.2325951644078309e-31
11
-23.999999999999897
21
3.5678088960327405e-15
31
0
0
LINE
5
273
100
AcDbEntity
8
0
100
AcDbLine
10
-23.999999999999897
20
3.5678088960327405e-15
30
0
11
-23.999999999999893
21
-5.9999999999998268
31
3.5527136788005016e-14
0
LINE
5
274
100
AcDbEntity
8
0
100
AcDbLine
10
-23.999999999999893
20
-5.9999999999998268
30
3.5527136788005016e-14
11
-29.99999999999989
21
-6.0000000000017124
31
3.5527136788005009e-14
0
LINE
5
275
100
AcDbEntity
8
0
100
AcDbLine
10
-29.99999999999989
20
-6.0000000000017124
30
3.5527136788005009e-14
11
-29.999999999999886
21
-1.716404796070492e-12
31
-1.2325951644078309e-31
0
LINE
5
276
100
AcDbEntity
8
0
100
AcDbLine
10
-29.999999999999886
20
-1.716404796070492e-12
30
-1.2325951644078309e-31
11
-35.999999999999893
21
3.5678088960327405e-15
31
-5.5511151231257827e-16
0
LINE
5
277
100
AcDbEntity
8
0
100
AcDbLine
10
-35.999999999999893
20
3.5678088960327405e-15
30
-5.5511151231257827e-16
11
-35.999999999999893
21
-5.9999999999998268
31
7.3955709864469857e-30
0
LINE
5
278
100
AcDbEntity
8
0
100
AcDbLine
10
-35.999999999999893
20
-5.9999999999998268
30
7.3955709864469857e-30
11
-41.999999999999886
21
-6.0000000000017124
31
3.5527136788005009e-14
0
LINE
5
279
100
AcDbEntity
8
0
100
AcDbLine
10
-41.999999999999886
20
-6.0000000000017124
30
3.5527136788005009e-14
11
-41.999999999999879
21
-1.716404796070492e-12
31
-1.2325951644078309e-31
0
LINE
5
280
100
AcDbEntity
8
0
100
AcDbLine
10
-41.999999999999879
20
-1.716404796070492e-12
30
-1.2325951644078309e-31
11
-47.999999999999893
21
3.5678088960329929e-15
31
0
0
LINE
5
281
100
AcDbEntity
8
0
100
AcDbLine
10
-47.999999999999893
20
3.5678088960329929e-15
30
0
11
-47.999999999999893
21
-5.9999999999998268
31
7.3955709864469857e-30
0
LINE
5
282
100
AcDbEntity
8
0
100
AcDbLine
10
-47.999999999999893
20
-5.9999999999998268
30
7.3955709864469857e-30
11
-53.999999999999879
21
-6.0000000000017124
31
0
0
LINE
5
283
100
AcDbEntity
8
0
100
AcDbLine
10
-53.999999999999879
20
-6.0000000000017124
30
0
11
-53.999999999999901
21
-1.716404796070492e-12
31
3.5527136788005009e-14
0
LINE
5
284
100
AcDbEntity
8
0
100
AcDbLine
10
-53.999999999999901
20
-1.716404796070492e-12
30
3.5527136788005009e-14
11
-59.999999999999929
21
3.5678088960329929e-15
31
3.4972025275692431e-14
0
LINE
5
285
100
AcDbEntity
8
0
100
AcDbLine
10
-59.999999999999929
20
3.5678088960329929e-15
30
3.4972025275692431e-14
11
-59.999999999999922
21
-5.9999999999998268
31
7.3955709864469857e-30
0
LINE
5
286
100
AcDbEntity
8
0
100
AcDbLine
10
-59.999999999999922
20
-5.9999999999998268
30
7.3955709864469857e-30
11
-65.999999999999915
21
-6.0000000000017124
31
0
0
LINE
5
287
100
AcDbEntity
8
0
100
AcDbLine
10
-65.999999999999915
20
-6.0000000000017124
30
0
11
-65.999999999999915
21
-1.716404796070492e-12
31
-1.2325951644078309e-31
0
LINE
5
288
100
AcDbEntity
8
0
100
AcDbLine
10
-65.999999999999915
20
-1.716404796070492e-12
30
-1.2325951644078309e-31
11
-71.999999999999943
21
3.5678088960327405e-15
31
-5.5511151231257827e-16
0
LINE
5
289
100
AcDbEntity
8
0
100
AcDbLine
10
-71.999999999999943
20
3.5678088960327405e-15
30
-5.5511151231257827e-16
11
-71.999999999999929
21
-5.9999999999998268
31
7.3955709864469857e-30
0
LINE
5
290
100
AcDbEntity
8
0
100
AcDbLine
10
-71.999999999999929
20
-5.9999999999998268
30
7.3955709864469857e-30
11
-77.999999999999915
21
-6.0000000000017124
31
0
0
LINE
5
291
100
AcDbEntity
8
0
100
AcDbLine
10
-89.999999999998423
20
-6.0000000000017408
30
3.5527136788005009e-14
11
-89.999999999998423
21
-12.000000000003507
31
3.5527136788005009e-14
0
LINE
5
292
100
AcDbEntity
8
0
100
AcDbLine
10
-89.999999999998423
20
-12.000000000003507
30
3.5527136788005009e-14
11
-96.000000000000156
21
-12.000000000003503
31
3.5527136788005009e-14
0
LINE
5
293
100
AcDbEntity
8
0
100
AcDbLine
10
-96.000000000000142
20
-12.000000000003503
30
0
11
-96.000000000000014
21
-18.00000000000011
31
-7.8886090522101181e-30
0
LINE
5
294
100
AcDbEntity
8
0
100
AcDbLine
10
-96.000000000000028
20
-18.00000000000011
30
0
11
-89.999999999998408
21
-18.000000000001741
31
0
0
LINE
5
295
100
AcDbEntity
8
0
100
AcDbLine
10
-89.999999999998408
20
-18.000000000001741
30
0
11
-89.999999999998423
21
-24.000000000003507
31
3.5527136788005009e-14
0
LINE
5
296
100
AcDbEntity
8
0
100
AcDbLine
10
-89.999999999998423
20
-24.000000000003507
30
3.5527136788005009e-14
11
-96.000000000000142
21
-24.000000000003507
31
3.5527136788005009e-14
0
LINE
5
297
100
AcDbEntity
8
0
100
AcDbLine
10
-96.000000000000142
20
-24.000000000003507
30
3.5527136788005009e-14
11
-96.000000000000014
21
-30.00000000000011
31
-7.8886090522101181e-30
0
LINE
5
298
100
AcDbEntity
8
0
100
AcDbLine
10
-96.000000000000014
20
-30.00000000000011
30
-7.8886090522101181e-30
11
-89.99999999999838
21
-30.000000000001744
31
-3.6082248300317588e-14
0
LINE
5
299
100
AcDbEntity
8
0
100
AcDbLine
10
-89.99999999999838
20
-30.000000000001744
30
-3.6082248300317588e-14
11
-89.999999999998408
21
-36.00000000000351
31
3.5527136788005009e-14
0
LINE
5
300
100
AcDbEntity
8
0
100
AcDbLine
10
-89.999999999998408
20
-36.00000000000351
30
3.5527136788005009e-14
11
-96.000000000000142
21
-36.00000000000351
31
3.5527136788005009e-14
0
LINE
5
301
100
AcDbEntity
8
0
100
AcDbLine
10
-96.000000000000142
20
-36.00000000000351
30
3.5527136788005009e-14
11
-96.000000000000014
21
-42.000000000000114
31
0
0
LINE
5
302
100
AcDbEntity
8
0
100
AcDbLine
10
-96.000000000000014
20
-42.000000000000114
30
0
11
-89.999999999998408
21
-42.000000000001741
31
3.5527136788005009e-14
0
LINE
5
303
100
AcDbEntity
8
0
100
AcDbLine
10
-77.999999999999915
20
-6.0000000000017124
30
0
11
-77.999999999999943
21
-1.716404796070492e-12
31
-1.2325951644078309e-31
0
LINE
5
304
100
AcDbEntity
8
0
100
AcDbLine
10
-77.999999999999943
20
-1.716404796070492e-12
30
-1.2325951644078309e-31
11
-83.999999999999915
21
3.5678088960327405e-15
31
-5.5511151231257827e-16
0
LINE
5
305
100
AcDbEntity
8
0
100
AcDbLine
10
-83.999999999999915
20
3.5678088960327405e-15
30
-5.5511151231257827e-16
11
-83.999999999999915
21
-5.9999999999998268
31
7.3955709864469857e-30
0
LINE
5
306
100
AcDbEntity
8
0
100
AcDbLine
10
-83.999999999999915
20
-5.9999999999998268
30
7.3955709864469857e-30
11
-89.999999999998423
21
-6.0000000000017408
31
0
0
LINE
5
307
100
AcDbEntity
8
0
100
AcDbLine
10
-89.999999999998749
20
-66.000000000001862
30
3.5527136788005009e-14
11
-89.999999999999034
21
-72.00000000000361
31
3.5527136788005009e-14
0
LINE
5
308
100
AcDbEntity
8
0
100
AcDbLine
10
-89.999999999998792
20
-48.000000000003624
30
3.5527136788005009e-14
11
-96.000000000000526
21
-48.000000000003624
31
3.5527136788005009e-14
0
LINE
5
309
100
AcDbEntity
8
0
100
AcDbLine
10
-96.000000000000526
20
-48.000000000003624
30
3.5527136788005009e-14
11
-96.000000000000369
21
-54.000000000000227
31
7.8886090522101181e-30
0
LINE
5
310
100
AcDbEntity
8
0
100
AcDbLine
10
-96.000000000000369
20
-54.000000000000227
30
7.8886090522101181e-30
11
-89.999999999998735
21
-54.000000000001862
31
-3.4972025275692431e-14
0
LINE
5
311
100
AcDbEntity
8
0
100
AcDbLine
10
-89.999999999998735
20
-54.000000000001862
30
-3.4972025275692431e-14
11
-89.999999999998749
21
-60.000000000003624
31
3.5527136788005009e-14
0
LINE
5
312
100
AcDbEntity
8
0
100
AcDbLine
10
-89.999999999998749
20
-60.000000000003624
30
3.5527136788005009e-14
11
-96.000000000000497
21
-60.000000000003624
31
3.5527136788005009e-14
0
LINE
5
313
100
AcDbEntity
8
0
100
AcDbLine
10
-96.000000000000497
20
-60.000000000003624
30
3.5527136788005009e-14
11
-96.000000000000369
21
-66.000000000000114
31
-4.7331654313260708e-29
0
LINE
5
314
100
AcDbEntity
8
0
100
AcDbLine
10
-96.000000000000369
20
-66.000000000000114
30
-4.7331654313260708e-29
11
-89.999999999998749
21
-66.000000000001862
31
3.5527136788005009e-14
0
LINE
5
315
100
AcDbEntity
8
0
100
AcDbLine
10
-89.999999999999119
20
-78.000000000001847
30
3.5527136788005009e-14
11
-89.999999999999034
21
-96.333333333337322
31
3.5527136788005009e-14
0
LINE
5
316
100
AcDbEntity
8
0
100
AcDbLine
10
-89.999999999999034
20
-72.00000000000361
30
3.5527136788005009e-14
11
-96.000000000000782
21
-72.00000000000361
31
3.6082248300317588e-14
0
LINE
5
317
100
AcDbEntity
8
0
100
AcDbLine
10
-96.000000000000782
20
-72.00000000000361
30
3.6082248300317588e-14
11
-96.000000000000355
21
-78.000000000000099
31
-3.1554436208840472e-29
0
LINE
5
318
100
AcDbEntity
8
0
100
AcDbLine
10
-96.000000000000355
20
-78.000000000000099
30
-3.1554436208840472e-29
11
-89.999999999999119
21
-78.000000000001847
31
3.5527136788005009e-14
0
ENDSEC
0
SECTION
2
OBJECTS
0
DICTIONARY
5
C
100
AcDbDictionary
3
ACAD_GROUP
350
D
3
ACAD_MLINESTYLE
350
17
0
DICTIONARY
5
D
100
AcDbDictionary
0
DICTIONARY
5
1A
330
C
100
AcDbDictionary
0
DICTIONARY
5
17
100
AcDbDictionary
0
ENDSEC
0
EOF
