0
SECTION
2
HEADER
9
$INSUNITS
70
4
9
$ACADVER
1
AC1014
9
$HANDSEED
5
FFFF
0
ENDSEC
0
SECTION
2
TABLES
0
TABLE
2
VPORT
5
8
100
AcDbSymbolTable
0
ENDTAB
0
TABLE
2
LTYPE
5
5
100
AcDbSymbolTable
0
LTYPE
5
14
100
AcDbSymbolTableRecord
100
AcDbLinetypeTableRecord
2
BYBLOCK
70
0
0
LTYPE
5
15
100
AcDbSymbolTableRecord
100
AcDbLinetypeTableRecord
2
BYLAYER
70
0
0
LTYPE
5
16
100
AcDbSymbolTableRecord
100
AcDbLinetypeTableRecord
2
DASHED
70
0
3
Dashed __ __ __ __ __ __ __ __ __ __ __ __ __ _
72
65
73
2
40
0.75
49
0.5
74
0
49
-0.25
74
0
0
ENDTAB
0
TABLE
2
LAYER
5
2
100
AcDbSymbolTable
70
2
0
LAYER
5
50
100
AcDbSymbolTableRecord
100
AcDbLayerTableRecord
2
0
70
0
62
7
6
CONTINUOUS
0
ENDTAB
0
TABLE
2
STYLE
5
3
100
AcDbSymbolTable
70
1
0
STYLE
5
11
100
AcDbSymbolTableRecord
100
AcDbTextStyleTableRecord
2
STANDARD
70
0
0
ENDTAB
0
TABLE
2
VIEW
5
6
100
AcDbSymbolTable
70
0
0
ENDTAB
0
TABLE
2
UCS
5
7
100
AcDbSymbolTable
70
0
0
ENDTAB
0
TABLE
2
APPID
5
9
100
AcDbSymbolTable
70
2
0
APPID
5
12
100
AcDbSymbolTableRecord
100
AcDbRegAppTableRecord
2
ACAD
70
0
0
ENDTAB
0
TABLE
2
DIMSTYLE
5
A
100
AcDbSymbolTable
70
1
0
ENDTAB
0
TABLE
2
BLOCK_RECORD
5
1
100
AcDbSymbolTable
70
1
0
BLOCK_RECORD
5
1F
100
AcDbSymbolTableRecord
100
AcDbBlockTableRecord
2
*MODEL_SPACE
0
BLOCK_RECORD
5
1B
100
AcDbSymbolTableRecord
100
AcDbBlockTableRecord
2
*PAPER_SPACE
0
ENDTAB
0
ENDSEC
0
SECTION
2
BLOCKS
0
BLOCK
5
20
100
AcDbEntity
100
AcDbBlockBegin
2
*MODEL_SPACE
0
ENDBLK
5
21
100
AcDbEntity
100
AcDbBlockEnd
0
BLOCK
5
1C
100
AcDbEntity
100
AcDbBlockBegin
2
*PAPER_SPACE
0
ENDBLK
5
1D
100
AcDbEntity
100
AcDbBlockEnd
0
ENDSEC
0
SECTION
2
ENTITIES
0
LINE
5
100
100
AcDbEntity
8
0
100
AcDbLine
10
90
20
-36.000000000000007
30
0
11
95.999999999999957
21
-36.000000000000007
31
0
0
LINE
5
101
100
AcDbEntity
8
0
100
AcDbLine
10
95.999999999999943
20
-72.000000000000014
30
0
11
95.999999999999957
21
-65.999999999955833
31
0
0
LINE
5
102
100
AcDbEntity
8
0
100
AcDbLine
10
95.999999999999972
20
-29.999999999955833
30
0
11
89.999999999999929
21
-30.000000000000028
31
0
0
LINE
5
103
100
AcDbEntity
8
0
100
AcDbLine
10
89.999999999999929
20
-30.000000000000028
30
0
11
90
21
-24.000000000000004
31
0
0
LINE
5
104
100
AcDbEntity
8
0
100
AcDbLine
10
90
20
-24.000000000000004
30
0
11
95.999999999999957
21
-24.000000000000004
31
0
0
LINE
5
105
100
AcDbEntity
8
0
100
AcDbLine
10
95.999999999999957
20
-24.000000000000004
30
0
11
95.999999999999972
21
-17.999999999955829
31
0
0
LINE
5
106
100
AcDbEntity
8
0
100
AcDbLine
10
95.999999999999972
20
-17.999999999955829
30
0
11
89.999999999999929
21
-18.000000000000025
31
0
0
LINE
5
107
100
AcDbEntity
8
0
100
AcDbLine
10
89.999999999999929
20
-18.000000000000025
30
0
11
90
21
-12.000000000000002
31
0
0
LINE
5
108
100
AcDbEntity
8
0
100
AcDbLine
10
90
20
-12.000000000000002
30
0
11
95.999999999999957
21
-12.000000000000002
31
0
0
LINE
5
109
100
AcDbEntity
8
0
100
AcDbLine
10
95.999999999999957
20
-12.000000000000002
30
0
11
95.999999999999972
21
-5.9999999999558264
31
0
0
LINE
5
110
100
AcDbEntity
8
0
100
AcDbLine
10
95.999999999999972
20
-5.9999999999558264
30
0
11
83.999999999999986
21
-6.0000000000000009
31
0
0
LINE
5
111
100
AcDbEntity
8
0
100
AcDbLine
10
71.999999999999986
20
-6.0000000000000009
30
0
11
71.999999999999986
21
0
31
0
0
LINE
5
112
100
AcDbEntity
8
0
100
AcDbLine
10
71.999999999999986
20
0
30
0
11
65.999999999999986
21
0
31
0
0
LINE
5
113
100
AcDbEntity
8
0
100
AcDbLine
10
65.999999999999986
20
0
30
0
11
65.999999999999915
21
-6.0000000000000231
31
0
0
LINE
5
114
100
AcDbEntity
8
0
100
AcDbLine
10
65.999999999999915
20
-6.0000000000000231
30
0
11
59.999999999999957
21
-6.0000000000000009
31
0
0
LINE
5
115
100
AcDbEntity
8
0
100
AcDbLine
10
59.999999999999957
20
-6.0000000000000009
30
0
11
59.999999999999957
21
0
31
0
0
LINE
5
116
100
AcDbEntity
8
0
100
AcDbLine
10
59.999999999999957
20
0
30
0
11
53.999999999999993
21
0
31
0
0
LINE
5
117
100
AcDbEntity
8
0
100
AcDbLine
10
53.999999999999993
20
0
30
0
11
53.999999999999922
21
-6.0000000000000231
31
0
0
LINE
5
118
100
AcDbEntity
8
0
100
AcDbLine
10
53.999999999999922
20
-6.0000000000000231
30
0
11
47.999999999999964
21
-6.0000000000000009
31
0
0
LINE
5
119
100
AcDbEntity
8
0
100
AcDbLine
10
47.999999999999964
20
-6.0000000000000009
30
0
11
47.999999999999964
21
0
31
0
0
LINE
5
120
100
AcDbEntity
8
0
100
AcDbLine
10
47.999999999999964
20
0
30
0
11
42
21
0
31
0
0
LINE
5
121
100
AcDbEntity
8
0
100
AcDbLine
10
42
20
0
30
0
11
41.999999999999929
21
-6.0000000000000231
31
0
0
LINE
5
122
100
AcDbEntity
8
0
100
AcDbLine
10
41.999999999999929
20
-6.0000000000000231
30
0
11
35.999999999999972
21
-6.0000000000000009
31
0
0
LINE
5
123
100
AcDbEntity
8
0
100
AcDbLine
10
35.999999999999972
20
-6.0000000000000009
30
0
11
35.999999999999972
21
0
31
0
0
LINE
5
124
100
AcDbEntity
8
0
100
AcDbLine
10
35.999999999999972
20
0
30
0
11
29.999999999999972
21
0
31
0
0
LINE
5
125
100
AcDbEntity
8
0
100
AcDbLine
10
29.999999999999972
20
0
30
0
11
29.999999999999901
21
-6.0000000000000231
31
0
0
LINE
5
126
100
AcDbEntity
8
0
100
AcDbLine
10
29.999999999999901
20
-6.0000000000000231
30
0
11
23.999999999999943
21
-6.0000000000000009
31
0
0
LINE
5
127
100
AcDbEntity
8
0
100
AcDbLine
10
23.999999999999943
20
-6.0000000000000009
30
0
11
23.999999999999943
21
0
31
0
0
LINE
5
128
100
AcDbEntity
8
0
100
AcDbLine
10
23.999999999999943
20
0
30
0
11
17.999999999999979
21
0
31
0
0
LINE
5
129
100
AcDbEntity
8
0
100
AcDbLine
10
17.999999999999979
20
0
30
0
11
17.999999999999908
21
-6.0000000000000231
31
0
0
LINE
5
130
100
AcDbEntity
8
0
100
AcDbLine
10
17.999999999999908
20
-6.0000000000000231
30
0
11
11.999999999999948
21
-6.0000000000000009
31
0
0
LINE
5
131
100
AcDbEntity
8
0
100
AcDbLine
10
11.999999999999948
20
-6.0000000000000009
30
0
11
11.999999999999948
21
0
31
0
0
LINE
5
132
100
AcDbEntity
8
0
100
AcDbLine
10
11.999999999999948
20
0
30
0
11
5.9999999999999876
21
0
31
0
0
LINE
5
133
100
AcDbEntity
8
0
100
AcDbLine
10
5.9999999999999876
20
0
30
0
11
5.9999999999999165
21
-6.0000000000000231
31
0
0
LINE
5
134
100
AcDbEntity
8
0
100
AcDbLine
10
5.9999999999999165
20
-6.0000000000000231
30
0
11
-4.4408920985006262e-14
21
-6.0000000000000009
31
0
0
LINE
5
135
100
AcDbEntity
8
0
100
AcDbLine
10
-4.4408920985006262e-14
20
-6.0000000000000009
30
0
11
-4.4408920985006262e-14
21
0
31
0
0
LINE
5
136
100
AcDbEntity
8
0
100
AcDbLine
10
-4.4408920985006262e-14
20
0
30
0
11
-6.0000000000000142
21
0
31
0
0
LINE
5
137
100
AcDbEntity
8
0
100
AcDbLine
10
-6.0000000000000142
20
0
30
0
11
-6.0000000000000853
21
-6.0000000000000231
31
0
0
LINE
5
138
100
AcDbEntity
8
0
100
AcDbLine
10
-6.0000000000000853
20
-6.0000000000000231
30
0
11
-12.000000000000046
21
-6.0000000000000009
31
0
0
LINE
5
139
100
AcDbEntity
8
0
100
AcDbLine
10
-12.000000000000046
20
-6.0000000000000009
30
0
11
-12.000000000000046
21
0
31
0
0
LINE
5
140
100
AcDbEntity
8
0
100
AcDbLine
10
-12.000000000000046
20
0
30
0
11
-18.000000000000025
21
0
31
0
0
LINE
5
141
100
AcDbEntity
8
0
100
AcDbLine
10
-18.000000000000025
20
0
30
0
11
-18.000000000000096
21
-6.0000000000000231
31
0
0
LINE
5
142
100
AcDbEntity
8
0
100
AcDbLine
10
-18.000000000000096
20
-6.0000000000000231
30
0
11
-24.000000000000057
21
-6.0000000000000009
31
0
0
LINE
5
143
100
AcDbEntity
8
0
100
AcDbLine
10
-24.000000000000057
20
-6.0000000000000009
30
0
11
-24.000000000000057
21
0
31
0
0
LINE
5
144
100
AcDbEntity
8
0
100
AcDbLine
10
-24.000000000000057
20
0
30
0
11
-30.000000000000028
21
0
31
0
0
LINE
5
145
100
AcDbEntity
8
0
100
AcDbLine
10
-30.000000000000028
20
0
30
0
11
-30.000000000000099
21
-6.0000000000000231
31
0
0
LINE
5
146
100
AcDbEntity
8
0
100
AcDbLine
10
-30.000000000000099
20
-6.0000000000000231
30
0
11
-36.000000000000057
21
-6.0000000000000009
31
0
0
LINE
5
147
100
AcDbEntity
8
0
100
AcDbLine
10
-36.000000000000057
20
-6.0000000000000009
30
0
11
-36.000000000000057
21
0
31
0
0
LINE
5
148
100
AcDbEntity
8
0
100
AcDbLine
10
-36.000000000000057
20
0
30
0
11
-42.000000000000028
21
0
31
0
0
LINE
5
149
100
AcDbEntity
8
0
100
AcDbLine
10
-42.000000000000028
20
0
30
0
11
-42.000000000000099
21
-6.0000000000000231
31
0
0
LINE
5
150
100
AcDbEntity
8
0
100
AcDbLine
10
-42.000000000000099
20
-6.0000000000000231
30
0
11
-48.000000000000057
21
-6.0000000000000009
31
0
0
LINE
5
151
100
AcDbEntity
8
0
100
AcDbLine
10
-48.000000000000057
20
-6.0000000000000009
30
0
11
-48.000000000000057
21
0
31
0
0
LINE
5
152
100
AcDbEntity
8
0
100
AcDbLine
10
-48.000000000000057
20
0
30
0
11
-54.000000000000028
21
0
31
0
0
LINE
5
153
100
AcDbEntity
8
0
100
AcDbLine
10
-54.000000000000028
20
0
30
0
11
-54.000000000000099
21
-6.0000000000000231
31
0
0
LINE
5
154
100
AcDbEntity
8
0
100
AcDbLine
10
-54.000000000000099
20
-6.0000000000000231
30
0
11
-60.000000000000064
21
-6.0000000000000009
31
0
0
LINE
5
155
100
AcDbEntity
8
0
100
AcDbLine
10
-60.000000000000064
20
-6.0000000000000009
30
0
11
-60.000000000000064
21
0
31
0
0
LINE
5
156
100
AcDbEntity
8
0
100
AcDbLine
10
-60.000000000000064
20
0
30
0
11
-66.000000000000028
21
0
31
0
0
LINE
5
157
100
AcDbEntity
8
0
100
AcDbLine
10
-66.000000000000028
20
0
30
0
11
-66.000000000000099
21
-6.0000000000000231
31
0
0
LINE
5
158
100
AcDbEntity
8
0
100
AcDbLine
10
-66.000000000000099
20
-6.0000000000000231
30
0
11
-72.000000000000057
21
-6.0000000000000009
31
0
0
LINE
5
159
100
AcDbEntity
8
0
100
AcDbLine
10
-72.000000000000057
20
-6.0000000000000009
30
0
11
-72.000000000000057
21
0
31
0
0
LINE
5
160
100
AcDbEntity
8
0
100
AcDbLine
10
-72.000000000000057
20
0
30
0
11
-78.000000000000028
21
0
31
0
0
LINE
5
161
100
AcDbEntity
8
0
100
AcDbLine
10
-78.000000000000028
20
0
30
0
11
-78.000000000000099
21
-6.0000000000000231
31
0
0
LINE
5
162
100
AcDbEntity
8
0
100
AcDbLine
10
-78.000000000000099
20
-6.0000000000000231
30
0
11
-84.000000000000057
21
-6.0000000000000009
31
0
0
LINE
5
163
100
AcDbEntity
8
0
100
AcDbLine
10
-84.000000000000057
20
-6.0000000000000009
30
0
11
-84.000000000000057
21
0
31
0
0
LINE
5
164
100
AcDbEntity
8
0
100
AcDbLine
10
-84.000000000000057
20
0
30
0
11
-90.000000000000028
21
0
31
0
0
LINE
5
165
100
AcDbEntity
8
0
100
AcDbLine
10
-90.000000000000028
20
0
30
0
11
-90.000000000000114
21
-6.0000000000000231
31
0
0
LINE
5
166
100
AcDbEntity
8
0
100
AcDbLine
10
-90.000000000000114
20
-6.0000000000000231
30
0
11
-96.000000000000071
21
-6.0000000000000009
31
0
0
LINE
5
167
100
AcDbEntity
8
0
100
AcDbLine
10
-96.000000000000071
20
-6.0000000000000009
30
0
11
-96.000000000000071
21
-12.000000000000002
31
0
0
LINE
5
168
100
AcDbEntity
8
0
100
AcDbLine
10
-96.000000000000071
20
-12.000000000000002
30
0
11
-90.000000000000028
21
-12.000000000000002
31
0
0
LINE
5
169
100
AcDbEntity
8
0
100
AcDbLine
10
-90.000000000000028
20
-12.000000000000002
30
0
11
-90.000000000000114
21
-18.000000000000025
31
0
0
LINE
5
170
100
AcDbEntity
8
0
100
AcDbLine
10
-90.000000000000114
20
-18.000000000000025
30
0
11
-96.000000000000071
21
-18.000000000000004
31
0
0
LINE
5
171
100
AcDbEntity
8
0
100
AcDbLine
10
-96.000000000000071
20
-18.000000000000004
30
0
11
-96.000000000000071
21
-24.000000000000004
31
0
0
LINE
5
172
100
AcDbEntity
8
0
100
AcDbLine
10
-96.000000000000071
20
-24.000000000000004
30
0
11
-90.000000000000028
21
-24.000000000000004
31
0
0
LINE
5
173
100
AcDbEntity
8
0
100
AcDbLine
10
-90.000000000000028
20
-24.000000000000004
30
0
11
-90.000000000000114
21
-30.000000000000028
31
0
0
LINE
5
174
100
AcDbEntity
8
0
100
AcDbLine
10
-90.000000000000114
20
-30.000000000000028
30
0
11
-96.000000000000071
21
-30.000000000000004
31
0
0
LINE
5
175
100
AcDbEntity
8
0
100
AcDbLine
10
-96.000000000000071
20
-30.000000000000004
30
0
11
-96.000000000000071
21
-36.000000000000007
31
0
0
LINE
5
176
100
AcDbEntity
8
0
100
AcDbLine
10
-96.000000000000071
20
-36.000000000000007
30
0
11
-90.000000000000028
21
-36.000000000000007
31
0
0
LINE
5
177
100
AcDbEntity
8
0
100
AcDbLine
10
-90.000000000000028
20
-36.000000000000007
30
0
11
-90.000000000000114
21
-42.000000000000028
31
0
0
LINE
5
178
100
AcDbEntity
8
0
100
AcDbLine
10
-90.000000000000114
20
-42.000000000000028
30
0
11
-96.000000000000071
21
-42.000000000000014
31
0
0
LINE
5
179
100
AcDbEntity
8
0
100
AcDbLine
10
-96.000000000000071
20
-42.000000000000014
30
0
11
-96.000000000000071
21
-48.000000000000007
31
0
0
LINE
5
180
100
AcDbEntity
8
0
100
AcDbLine
10
-96.000000000000071
20
-48.000000000000007
30
0
11
-90.000000000000028
21
-48.000000000000007
31
0
0
LINE
5
181
100
AcDbEntity
8
0
100
AcDbLine
10
-90.000000000000028
20
-48.000000000000007
30
0
11
-90.000000000000114
21
-54.000000000000028
31
0
0
LINE
5
182
100
AcDbEntity
8
0
100
AcDbLine
10
-90.000000000000114
20
-54.000000000000028
30
0
11
-96.000000000000071
21
-54.000000000000014
31
0
0
LINE
5
183
100
AcDbEntity
8
0
100
AcDbLine
10
-96.000000000000071
20
-54.000000000000014
30
0
11
-96.000000000000071
21
-60.000000000000007
31
0
0
LINE
5
184
100
AcDbEntity
8
0
100
AcDbLine
10
-96.000000000000071
20
-60.000000000000007
30
0
11
-90.000000000000028
21
-60.000000000000007
31
0
0
LINE
5
185
100
AcDbEntity
8
0
100
AcDbLine
10
-90.000000000000028
20
-60.000000000000007
30
0
11
-90.000000000000114
21
-66.000000000000028
31
0
0
LINE
5
186
100
AcDbEntity
8
0
100
AcDbLine
10
-90.000000000000114
20
-66.000000000000028
30
0
11
-96.000000000000071
21
-66
31
0
0
LINE
5
187
100
AcDbEntity
8
0
100
AcDbLine
10
-96.000000000000071
20
-66
30
0
11
-96.000000000000071
21
-72.000000000000014
31
0
0
LINE
5
188
100
AcDbEntity
8
0
100
AcDbLine
10
-96.000000000000071
20
-72.000000000000014
30
0
11
-90.000000000000028
21
-72.000000000000014
31
0
0
LINE
5
189
100
AcDbEntity
8
0
100
AcDbLine
10
-90.000000000000028
20
-72.000000000000014
30
0
11
-90.000000000000114
21
-78.000000000000028
31
0
0
LINE
5
190
100
AcDbEntity
8
0
100
AcDbLine
10
-90.000000000000114
20
-78.000000000000028
30
0
11
-96.000000000000071
21
-78.000000000000014
31
0
0
LINE
5
191
100
AcDbEntity
8
0
100
AcDbLine
10
-96.000000000000071
20
-78.000000000000014
30
0
11
-96.000000000000085
21
-84.000000000000028
31
0
0
LINE
5
192
100
AcDbEntity
8
0
100
AcDbLine
10
-96.000000000000085
20
-84.000000000000028
30
0
11
-90.000000000000057
21
-84.000000000000028
31
0
0
LINE
5
193
100
AcDbEntity
8
0
100
AcDbLine
10
-90.000000000000057
20
-84.000000000000028
30
0
11
-90.000000000000128
21
-90.000000000000028
31
0
0
LINE
5
194
100
AcDbEntity
8
0
100
AcDbLine
10
-90.000000000000128
20
-90.000000000000028
30
0
11
-96.000000000000085
21
-90.000000000000028
31
0
0
LINE
5
195
100
AcDbEntity
8
0
100
AcDbLine
10
-96.000000000000085
20
-90.000000000000028
30
0
11
-96.000000000000085
21
-96.000000000000014
31
0
0
LINE
5
196
100
AcDbEntity
8
0
100
AcDbLine
10
-96.000000000000085
20
-96.000000000000014
30
0
11
-90.000000000000057
21
-96.000000000000014
31
0
0
LINE
5
197
100
AcDbEntity
8
0
100
AcDbLine
10
-90.000000000000057
20
-96.000000000000014
30
0
11
-90.000000000000128
21
-102.00000000000003
31
0
0
LINE
5
198
100
AcDbEntity
8
0
100
AcDbLine
10
-90.000000000000128
20
-102.00000000000003
30
0
11
-96.000000000000085
21
-102.00000000000003
31
0
0
LINE
5
199
100
AcDbEntity
8
0
100
AcDbLine
10
-96.000000000000085
20
-102.00000000000003
30
0
11
-96.000000000000085
21
-108
31
0
0
LINE
5
200
100
AcDbEntity
8
0
100
AcDbLine
10
-96.000000000000085
20
-108
30
0
11
-90.000000000000057
21
-108
31
0
0
LINE
5
201
100
AcDbEntity
8
0
100
AcDbLine
10
-90.000000000000057
20
-108
30
0
11
-90.000000000000128
21
-114.00000000000003
31
0
0
LINE
5
202
100
AcDbEntity
8
0
100
AcDbLine
10
-90.000000000000128
20
-114.00000000000003
30
0
11
-96.000000000000085
21
-114.00000000000003
31
0
0
LINE
5
203
100
AcDbEntity
8
0
100
AcDbLine
10
-96.000000000000085
20
-114.00000000000003
30
0
11
-96.000000000000085
21
-120
31
0
0
LINE
5
204
100
AcDbEntity
8
0
100
AcDbLine
10
-96.000000000000085
20
-120
30
0
11
-90.000000000000057
21
-120
31
0
0
LINE
5
205
100
AcDbEntity
8
0
100
AcDbLine
10
-90.000000000000057
20
-120
30
0
11
-90.000000000000128
21
-126.00000000000001
31
0
0
LINE
5
206
100
AcDbEntity
8
0
100
AcDbLine
10
-90.000000000000128
20
-126.00000000000001
30
0
11
-96.000000000000085
21
-126.00000000000001
31
0
0
LINE
5
207
100
AcDbEntity
8
0
100
AcDbLine
10
-96.000000000000085
20
-126.00000000000001
30
0
11
-96.000000000000085
21
-132.00000000000003
31
0
0
LINE
5
208
100
AcDbEntity
8
0
100
AcDbLine
10
-96.000000000000085
20
-132.00000000000003
30
0
11
-90.000000000000057
21
-132.00000000000003
31
0
0
LINE
5
209
100
AcDbEntity
8
0
100
AcDbLine
10
-90.000000000000057
20
-132.00000000000003
30
0
11
-90.000000000000128
21
-138.00000000000006
31
0
0
LINE
5
210
100
AcDbEntity
8
0
100
AcDbLine
10
-90.000000000000128
20
-138.00000000000006
30
0
11
-96.000000000000085
21
-138.00000000000006
31
0
0
LINE
5
211
100
AcDbEntity
8
0
100
AcDbLine
10
-96.000000000000085
20
-138.00000000000006
30
0
11
-96.000000000000085
21
-144.00000000000003
31
0
0
LINE
5
212
100
AcDbEntity
8
0
100
AcDbLine
10
-96.000000000000085
20
-144.00000000000003
30
0
11
-90.000000000000057
21
-144.00000000000003
31
0
0
LINE
5
213
100
AcDbEntity
8
0
100
AcDbLine
10
-90.000000000000057
20
-144.00000000000003
30
0
11
-90.000000000000128
21
-150.00000000000003
31
0
0
LINE
5
214
100
AcDbEntity
8
0
100
AcDbLine
10
-90.000000000000128
20
-150.00000000000003
30
0
11
-96.000000000000085
21
-150.00000000000003
31
0
0
LINE
5
215
100
AcDbEntity
8
0
100
AcDbLine
10
-96.000000000000085
20
-150.00000000000003
30
0
11
-96.000000000000085
21
-156
31
0
0
LINE
5
216
100
AcDbEntity
8
0
100
AcDbLine
10
-96.000000000000085
20
-156
30
0
11
-90.000000000000057
21
-156
31
0
0
LINE
5
217
100
AcDbEntity
8
0
100
AcDbLine
10
-90.000000000000057
20
-156
30
0
11
-90.000000000000128
21
-162.00000000000003
31
0
0
LINE
5
218
100
AcDbEntity
8
0
100
AcDbLine
10
-90.000000000000128
20
-162.00000000000003
30
0
11
-96.000000000000085
21
-162.00000000000003
31
0
0
LINE
5
219
100
AcDbEntity
8
0
100
AcDbLine
10
-96.000000000000085
20
-162.00000000000003
30
0
11
-96.000000000000085
21
-168.00000000000006
31
0
0
LINE
5
220
100
AcDbEntity
8
0
100
AcDbLine
10
-96.000000000000085
20
-168.00000000000006
30
0
11
-90.000000000000057
21
-168.00000000000006
31
0
0
LINE
5
221
100
AcDbEntity
8
0
100
AcDbLine
10
-90.000000000000057
20
-168.00000000000006
30
0
11
-90.000000000000128
21
-174.00000000000006
31
0
0
LINE
5
222
100
AcDbEntity
8
0
100
AcDbLine
10
-90.000000000000128
20
-174.00000000000006
30
0
11
-96.000000000000085
21
-174.00000000000006
31
0
0
LINE
5
223
100
AcDbEntity
8
0
100
AcDbLine
10
-96.000000000000085
20
-174.00000000000006
30
0
11
-96.000000000000085
21
-180.00000000000003
31
0
0
LINE
5
224
100
AcDbEntity
8
0
100
AcDbLine
10
-96.000000000000085
20
-180.00000000000003
30
0
11
-90.000000000000057
21
-180.00000000000003
31
0
0
LINE
5
225
100
AcDbEntity
8
0
100
AcDbLine
10
-90.000000000000057
20
-180.00000000000003
30
0
11
-90.000000000000128
21
-186.00000000000006
31
0
0
LINE
5
226
100
AcDbEntity
8
0
100
AcDbLine
10
-90.000000000000128
20
-186.00000000000006
30
0
11
-96.000000000000085
21
-186.00000000000006
31
0
0
LINE
5
227
100
AcDbEntity
8
0
100
AcDbLine
10
-96.000000000000085
20
-186.00000000000006
30
0
11
-96.000000000000085
21
-192.00000000000003
31
0
0
LINE
5
228
100
AcDbEntity
8
0
100
AcDbLine
10
-96.000000000000085
20
-192.00000000000003
30
0
11
-90.000000000000057
21
-192.00000000000003
31
0
0
LINE
5
229
100
AcDbEntity
8
0
100
AcDbLine
10
-90.000000000000057
20
-192.00000000000003
30
0
11
-90.000000000000128
21
-198.00000000000006
31
0
0
LINE
5
230
100
AcDbEntity
8
0
100
AcDbLine
10
-90.000000000000128
20
-198.00000000000006
30
0
11
-96.000000000000085
21
-198.00000000000006
31
0
0
LINE
5
231
100
AcDbEntity
8
0
100
AcDbLine
10
-96.000000000000085
20
-198.00000000000006
30
0
11
-96.000000000000085
21
-204.00000000000003
31
0
0
LINE
5
232
100
AcDbEntity
8
0
100
AcDbLine
10
-96.000000000000085
20
-204.00000000000003
30
0
11
-90.000000000000057
21
-204.00000000000003
31
0
0
LINE
5
233
100
AcDbEntity
8
0
100
AcDbLine
10
-90.000000000000057
20
-204.00000000000003
30
0
11
-90.000000000000128
21
-210.00000000000003
31
0
0
LINE
5
234
100
AcDbEntity
8
0
100
AcDbLine
10
-90.000000000000128
20
-210.00000000000003
30
0
11
-96.000000000000085
21
-210.00000000000003
31
0
0
LINE
5
235
100
AcDbEntity
8
0
100
AcDbLine
10
-96.000000000000085
20
-210.00000000000003
30
0
11
-96.000000000000099
21
-216
31
0
0
LINE
5
236
100
AcDbEntity
8
0
100
AcDbLine
10
-96.000000000000099
20
-216
30
0
11
-90.000000000000071
21
-216
31
0
0
LINE
5
237
100
AcDbEntity
8
0
100
AcDbLine
10
-90.000000000000071
20
-216
30
0
11
-90.000000000000142
21
-222.00000000000003
31
0
0
LINE
5
238
100
AcDbEntity
8
0
100
AcDbLine
10
-90.000000000000142
20
-222.00000000000003
30
0
11
-96.000000000000099
21
-222.00000000000003
31
0
0
LINE
5
239
100
AcDbEntity
8
0
100
AcDbLine
10
-96.000000000000099
20
-222.00000000000003
30
0
11
-96.000000000000099
21
-228.00000000000006
31
0
0
LINE
5
240
100
AcDbEntity
8
0
100
AcDbLine
10
-96.000000000000099
20
-228.00000000000006
30
0
11
-90.000000000000071
21
-228.00000000000006
31
0
0
LINE
5
241
100
AcDbEntity
8
0
100
AcDbLine
10
-90.000000000000071
20
-228.00000000000006
30
0
11
-90.000000000000142
21
-234.00000000000006
31
0
0
LINE
5
242
100
AcDbEntity
8
0
100
AcDbLine
10
-90.000000000000142
20
-234.00000000000006
30
0
11
-96.000000000000099
21
-234.00000000000006
31
0
0
LINE
5
243
100
AcDbEntity
8
0
100
AcDbLine
10
-96.000000000000099
20
-234.00000000000006
30
0
11
-96.000000000000099
21
-240.00000000000003
31
0
0
LINE
5
244
100
AcDbEntity
8
0
100
AcDbLine
10
-96.000000000000099
20
-240.00000000000003
30
0
11
-90.000000000000071
21
-240.00000000000003
31
0
0
LINE
5
245
100
AcDbEntity
8
0
100
AcDbLine
10
-90.000000000000071
20
-240.00000000000003
30
0
11
-90.000000000000142
21
-246.00000000000006
31
0
0
LINE
5
246
100
AcDbEntity
8
0
100
AcDbLine
10
-90.000000000000142
20
-246.00000000000006
30
0
11
-96.000000000000099
21
-246.00000000000006
31
0
0
LINE
5
247
100
AcDbEntity
8
0
100
AcDbLine
10
-96.000000000000099
20
-246.00000000000006
30
0
11
-96.000000000000099
21
-252.00000000000003
31
0
0
LINE
5
248
100
AcDbEntity
8
0
100
AcDbLine
10
-96.000000000000099
20
-252.00000000000003
30
0
11
-90.000000000000071
21
-252.00000000000003
31
0
0
LINE
5
249
100
AcDbEntity
8
0
100
AcDbLine
10
-90.000000000000071
20
-252.00000000000003
30
0
11
-90.000000000000142
21
-258.00000000000006
31
0
0
LINE
5
250
100
AcDbEntity
8
0
100
AcDbLine
10
-90.000000000000142
20
-258.00000000000006
30
0
11
-96.000000000000099
21
-258.00000000000006
31
0
0
LINE
5
251
100
AcDbEntity
8
0
100
AcDbLine
10
-96.000000000000099
20
-258.00000000000006
30
0
11
-96.000000000000099
21
-264.00000000000006
31
0
0
LINE
5
252
100
AcDbEntity
8
0
100
AcDbLine
10
-96.000000000000099
20
-264.00000000000006
30
0
11
-90.000000000000071
21
-264.00000000000006
31
0
0
LINE
5
253
100
AcDbEntity
8
0
100
AcDbLine
10
-90.000000000000071
20
-264.00000000000006
30
0
11
-90.000000000000142
21
-270.00000000000006
31
0
0
LINE
5
254
100
AcDbEntity
8
0
100
AcDbLine
10
-90.000000000000142
20
-270.00000000000006
30
0
11
-96.000000000000099
21
-270.00000000000006
31
0
0
LINE
5
255
100
AcDbEntity
8
0
100
AcDbLine
10
-96.000000000000099
20
-270.00000000000006
30
0
11
-96.000000000000099
21
-276.00000000000006
31
0
0
LINE
5
256
100
AcDbEntity
8
0
100
AcDbLine
10
-96.000000000000099
20
-276.00000000000006
30
0
11
-90.000000000000071
21
-276.00000000000006
31
0
0
LINE
5
257
100
AcDbEntity
8
0
100
AcDbLine
10
-90.000000000000071
20
-276.00000000000006
30
0
11
-90.000000000000142
21
-282.00000000000006
31
0
0
LINE
5
258
100
AcDbEntity
8
0
100
AcDbLine
10
-90.000000000000142
20
-282.00000000000006
30
0
11
-96.000000000000099
21
-282.00000000000006
31
0
0
LINE
5
259
100
AcDbEntity
8
0
100
AcDbLine
10
-96.000000000000099
20
-282.00000000000006
30
0
11
-96.000000000000099
21
-288.00000000000006
31
0
0
LINE
5
260
100
AcDbEntity
8
0
100
AcDbLine
10
-96.000000000000099
20
-288.00000000000006
30
0
11
-90.000000000000071
21
-288.00000000000006
31
0
0
LINE
5
261
100
AcDbEntity
8
0
100
AcDbLine
10
-90.000000000000071
20
-288.00000000000006
30
0
11
-90.000000000000142
21
-294.00000000000006
31
0
0
LINE
5
262
100
AcDbEntity
8
0
100
AcDbLine
10
-90.000000000000142
20
-294.00000000000006
30
0
11
-96.000000000000099
21
-294.00000000000006
31
0
0
LINE
5
263
100
AcDbEntity
8
0
100
AcDbLine
10
-96.000000000000099
20
-294.00000000000006
30
0
11
-96.000000000000099
21
-300.00000000000006
31
0
0
LINE
5
264
100
AcDbEntity
8
0
100
AcDbLine
10
-96.000000000000099
20
-300.00000000000006
30
0
11
-90.000000000000071
21
-300.00000000000006
31
0
0
LINE
5
265
100
AcDbEntity
8
0
100
AcDbLine
10
-90.000000000000071
20
-300.00000000000006
30
0
11
-90.000000000000142
21
-306.00000000000006
31
0
0
LINE
5
266
100
AcDbEntity
8
0
100
AcDbLine
10
-90.000000000000142
20
-306.00000000000006
30
0
11
-96.000000000000099
21
-306.00000000000006
31
0
0
LINE
5
267
100
AcDbEntity
8
0
100
AcDbLine
10
-96.000000000000099
20
-306.00000000000006
30
0
11
-96.000000000000099
21
-312
31
0
0
LINE
5
268
100
AcDbEntity
8
0
100
AcDbLine
10
-96.000000000000099
20
-312
30
0
11
-90.000000000000071
21
-312
31
0
0
LINE
5
269
100
AcDbEntity
8
0
100
AcDbLine
10
-90.000000000000071
20
-312
30
0
11
-90.000000000000142
21
-318.00000000000006
31
0
0
LINE
5
270
100
AcDbEntity
8
0
100
AcDbLine
10
-90.000000000000142
20
-318.00000000000006
30
0
11
-96.000000000000099
21
-318.00000000000006
31
0
0
LINE
5
271
100
AcDbEntity
8
0
100
AcDbLine
10
-96.000000000000099
20
-318.00000000000006
30
0
11
-96.000000000000099
21
-324.00000000000006
31
0
0
LINE
5
272
100
AcDbEntity
8
0
100
AcDbLine
10
-96.000000000000099
20
-324.00000000000006
30
0
11
-90.000000000000071
21
-324.00000000000006
31
0
0
LINE
5
273
100
AcDbEntity
8
0
100
AcDbLine
10
-90.000000000000071
20
-324.00000000000006
30
0
11
-90.000000000000142
21
-330.00000000000006
31
0
0
LINE
5
274
100
AcDbEntity
8
0
100
AcDbLine
10
-90.000000000000142
20
-330.00000000000006
30
0
11
-96.000000000000099
21
-330.00000000000006
31
0
0
LINE
5
275
100
AcDbEntity
8
0
100
AcDbLine
10
-96.000000000000099
20
-330.00000000000006
30
0
11
-96.000000000000099
21
-336.00000000000011
31
0
0
LINE
5
276
100
AcDbEntity
8
0
100
AcDbLine
10
-96.000000000000099
20
-336.00000000000011
30
0
11
-90.000000000000071
21
-336.00000000000011
31
0
0
LINE
5
277
100
AcDbEntity
8
0
100
AcDbLine
10
-90.000000000000071
20
-336.00000000000011
30
0
11
-90.000000000000142
21
-342.00000000000011
31
0
0
LINE
5
278
100
AcDbEntity
8
0
100
AcDbLine
10
-90.000000000000142
20
-342.00000000000011
30
0
11
-96.000000000000099
21
-342.00000000000011
31
0
0
LINE
5
279
100
AcDbEntity
8
0
100
AcDbLine
10
-96.000000000000099
20
-342.00000000000011
30
0
11
-96.000000000000114
21
-348.00000000000006
31
0
0
LINE
5
280
100
AcDbEntity
8
0
100
AcDbLine
10
-96.000000000000114
20
-348.00000000000006
30
0
11
-90.000000000000085
21
-348.00000000000006
31
0
0
LINE
5
281
100
AcDbEntity
8
0
100
AcDbLine
10
-90.000000000000085
20
-348.00000000000006
30
0
11
-90.000000000000156
21
-354.00000000000006
31
0
0
LINE
5
282
100
AcDbEntity
8
0
100
AcDbLine
10
-90.000000000000156
20
-354.00000000000006
30
0
11
-96.000000000000114
21
-354.00000000000006
31
0
0
LINE
5
283
100
AcDbEntity
8
0
100
AcDbLine
10
-96.000000000000114
20
-354.00000000000006
30
0
11
-96.000000000000114
21
-360.00000000000006
31
0
0
LINE
5
284
100
AcDbEntity
8
0
100
AcDbLine
10
-96.000000000000114
20
-360.00000000000006
30
0
11
-90.000000000000085
21
-360.00000000000006
31
0
0
LINE
5
285
100
AcDbEntity
8
0
100
AcDbLine
10
-90.000000000000085
20
-360.00000000000006
30
0
11
-90.000000000000156
21
-366.00000000000011
31
0
0
LINE
5
286
100
AcDbEntity
8
0
100
AcDbLine
10
-90.000000000000156
20
-366.00000000000011
30
0
11
-96.000000000000114
21
-366.00000000000011
31
0
0
LINE
5
287
100
AcDbEntity
8
0
100
AcDbLine
10
-96.000000000000114
20
-366.00000000000011
30
0
11
-96.000000000000114
21
-372
31
0
0
LINE
5
288
100
AcDbEntity
8
0
100
AcDbLine
10
-96.000000000000114
20
-372
30
0
11
-90.000000000000085
21
-372
31
0
0
LINE
5
289
100
AcDbEntity
8
0
100
AcDbLine
10
-90.000000000000085
20
-372
30
0
11
-90.000000000000156
21
-378.00000000000006
31
0
0
LINE
5
290
100
AcDbEntity
8
0
100
AcDbLine
10
-90.000000000000156
20
-378.00000000000006
30
0
11
-96.000000000000114
21
-378.00000000000006
31
0
0
LINE
5
291
100
AcDbEntity
8
0
100
AcDbLine
10
-96.000000000000114
20
-378.00000000000006
30
0
11
-96.000000000000114
21
-384.00000000000006
31
0
0
LINE
5
292
100
AcDbEntity
8
0
100
AcDbLine
10
-96.000000000000114
20
-384.00000000000006
30
0
11
-90.000000000000085
21
-384.00000000000006
31
0
0
LINE
5
293
100
AcDbEntity
8
0
100
AcDbLine
10
-90.000000000000085
20
-384.00000000000006
30
0
11
-90.000000000000156
21
-390.00000000000006
31
0
0
LINE
5
294
100
AcDbEntity
8
0
100
AcDbLine
10
-90.000000000000156
20
-390.00000000000006
30
0
11
-96.000000000000114
21
-390.00000000000006
31
0
0
LINE
5
295
100
AcDbEntity
8
0
100
AcDbLine
10
-96.000000000000114
20
-390.00000000000006
30
0
11
-96.000000000000114
21
-396.00000000000011
31
0
0
LINE
5
296
100
AcDbEntity
8
0
100
AcDbLine
10
-96.000000000000114
20
-396.00000000000011
30
0
11
-90.000000000000085
21
-396.00000000000011
31
0
0
LINE
5
297
100
AcDbEntity
8
0
100
AcDbLine
10
-90.000000000000085
20
-396.00000000000011
30
0
11
-90.000000000000156
21
-402.00000000000011
31
0
0
LINE
5
298
100
AcDbEntity
8
0
100
AcDbLine
10
-90.000000000000156
20
-402.00000000000011
30
0
11
-96.000000000000114
21
-402.00000000000011
31
0
0
LINE
5
299
100
AcDbEntity
8
0
100
AcDbLine
10
-96.000000000000114
20
-402.00000000000011
30
0
11
-96.000000000000114
21
-408.00000000000006
31
0
0
LINE
5
300
100
AcDbEntity
8
0
100
AcDbLine
10
-96.000000000000114
20
-408.00000000000006
30
0
11
-12.000000000000099
21
-408.00000000000006
31
0
0
LINE
5
301
100
AcDbEntity
8
0
100
AcDbLine
10
-12.000000000000099
20
-408.00000000000006
30
0
11
95.999999999999957
21
-83.999999999999986
31
0
0
LINE
5
302
100
AcDbEntity
8
0
100
AcDbLine
10
95.999999999999957
20
-83.999999999999986
30
0
11
95.999999999999957
21
-77.999999999955833
31
0
0
LINE
5
303
100
AcDbEntity
8
0
100
AcDbLine
10
95.999999999999972
20
-41.999999999955833
30
0
11
89.999999999999929
21
-42.000000000000028
31
0
0
LINE
5
304
100
AcDbEntity
8
0
100
AcDbLine
10
89.999999999999929
20
-42.000000000000028
30
0
11
90
21
-36.000000000000007
31
0
0
LINE
5
305
100
AcDbEntity
8
0
100
AcDbLine
10
83.999999999999986
20
-6.0000000000000009
30
0
11
83.999999999999986
21
0
31
0
0
LINE
5
306
100
AcDbEntity
8
0
100
AcDbLine
10
83.999999999999986
20
0
30
0
11
78.000000000000014
21
0
31
0
0
LINE
5
307
100
AcDbEntity
8
0
100
AcDbLine
10
78.000000000000014
20
0
30
0
11
77.999999999999943
21
-6.0000000000000231
31
0
0
LINE
5
308
100
AcDbEntity
8
0
100
AcDbLine
10
77.999999999999943
20
-6.0000000000000231
30
0
11
71.999999999999986
21
-6.0000000000000009
31
0
0
LINE
5
309
100
AcDbEntity
8
0
100
AcDbLine
10
95.999999999999957
20
-65.999999999955833
30
0
11
89.999999999999915
21
-66.000000000000028
31
0
0
LINE
5
310
100
AcDbEntity
8
0
100
AcDbLine
10
89.999999999999915
20
-66.000000000000028
30
0
11
89.999999999999986
21
-60.000000000000007
31
0
0
LINE
5
311
100
AcDbEntity
8
0
100
AcDbLine
10
89.999999999999986
20
-60.000000000000007
30
0
11
95.999999999999943
21
-60.000000000000007
31
0
0
LINE
5
312
100
AcDbEntity
8
0
100
AcDbLine
10
95.999999999999943
20
-60.000000000000007
30
0
11
95.999999999999957
21
-53.999999999955833
31
0
0
LINE
5
313
100
AcDbEntity
8
0
100
AcDbLine
10
95.999999999999957
20
-53.999999999955833
30
0
11
89.999999999999915
21
-54.000000000000028
31
0
0
LINE
5
314
100
AcDbEntity
8
0
100
AcDbLine
10
89.999999999999915
20
-54.000000000000028
30
0
11
89.999999999999986
21
-48.000000000000007
31
0
0
LINE
5
315
100
AcDbEntity
8
0
100
AcDbLine
10
89.999999999999986
20
-48.000000000000007
30
0
11
95.999999999999943
21
-48.000000000000007
31
0
0
LINE
5
316
100
AcDbEntity
8
0
100
AcDbLine
10
95.999999999999943
20
-48.000000000000007
30
0
11
95.999999999999972
21
-41.999999999955833
31
0
0
LINE
5
317
100
AcDbEntity
8
0
100
AcDbLine
10
89.999999999999986
20
-72.000000000000014
30
0
11
95.999999999999943
21
-72.000000000000014
31
0
0
LINE
5
318
100
AcDbEntity
8
0
100
AcDbLine
10
95.999999999999957
20
-77.999999999955833
30
0
11
89.999999999999915
21
-78.000000000000028
31
0
0
LINE
5
319
100
AcDbEntity
8
0
100
AcDbLine
10
89.999999999999915
20
-78.000000000000028
30
0
11
89.999999999999986
21
-72.000000000000014
31
0
0
LINE
5
320
100
AcDbEntity
8
0
100
AcDbLine
10
95.999999999999957
20
-36.000000000000007
30
0
11
95.999999999999972
21
-29.999999999955833
31
0
0
ENDSEC
0
SECTION
2
OBJECTS
0
DICTIONARY
5
C
100
AcDbDictionary
3
ACAD_GROUP
350
D
3
ACAD_MLINESTYLE
350
17
0
DICTIONARY
5
D
100
AcDbDictionary
0
DICTIONARY
5
1A
330
C
100
AcDbDictionary
0
DICTIONARY
5
17
100
AcDbDictionary
0
ENDSEC
0
EOF
