0
SECTION
2
HEADER
9
$INSUNITS
70
4
9
$ACADVER
1
AC1014
9
$HANDSEED
5
FFFF
0
ENDSEC
0
SECTION
2
TABLES
0
TABLE
2
VPORT
5
8
100
AcDbSymbolTable
0
ENDTAB
0
TABLE
2
LTYPE
5
5
100
AcDbSymbolTable
0
LTYPE
5
14
100
AcDbSymbolTableRecord
100
AcDbLinetypeTableRecord
2
BYBLOCK
70
0
0
LTYPE
5
15
100
AcDbSymbolTableRecord
100
AcDbLinetypeTableRecord
2
BYLAYER
70
0
0
LTYPE
5
16
100
AcDbSymbolTableRecord
100
AcDbLinetypeTableRecord
2
DASHED
70
0
3
Dashed __ __ __ __ __ __ __ __ __ __ __ __ __ _
72
65
73
2
40
0.75
49
0.5
74
0
49
-0.25
74
0
0
ENDTAB
0
TABLE
2
LAYER
5
2
100
AcDbSymbolTable
70
2
0
LAYER
5
50
100
AcDbSymbolTableRecord
100
AcDbLayerTableRecord
2
0
70
0
62
7
6
CONTINUOUS
0
ENDTAB
0
TABLE
2
STYLE
5
3
100
AcDbSymbolTable
70
1
0
STYLE
5
11
100
AcDbSymbolTableRecord
100
AcDbTextStyleTableRecord
2
STANDARD
70
0
0
ENDTAB
0
TABLE
2
VIEW
5
6
100
AcDbSymbolTable
70
0
0
ENDTAB
0
TABLE
2
UCS
5
7
100
AcDbSymbolTable
70
0
0
ENDTAB
0
TABLE
2
APPID
5
9
100
AcDbSymbolTable
70
2
0
APPID
5
12
100
AcDbSymbolTableRecord
100
AcDbRegAppTableRecord
2
ACAD
70
0
0
ENDTAB
0
TABLE
2
DIMSTYLE
5
A
100
AcDbSymbolTable
70
1
0
ENDTAB
0
TABLE
2
BLOCK_RECORD
5
1
100
AcDbSymbolTable
70
1
0
BLOCK_RECORD
5
1F
100
AcDbSymbolTableRecord
100
AcDbBlockTableRecord
2
*MODEL_SPACE
0
BLOCK_RECORD
5
1B
100
AcDbSymbolTableRecord
100
AcDbBlockTableRecord
2
*PAPER_SPACE
0
ENDTAB
0
ENDSEC
0
SECTION
2
BLOCKS
0
BLOCK
5
20
100
AcDbEntity
100
AcDbBlockBegin
2
*MODEL_SPACE
0
ENDBLK
5
21
100
AcDbEntity
100
AcDbBlockEnd
0
BLOCK
5
1C
100
AcDbEntity
100
AcDbBlockBegin
2
*PAPER_SPACE
0
ENDBLK
5
1D
100
AcDbEntity
100
AcDbBlockEnd
0
ENDSEC
0
SECTION
2
ENTITIES
0
LINE
5
100
100
AcDbEntity
8
0
100
AcDbLine
10
166.27687752661228
20
-72.000000000000227
30
0
11
160.27687752661225
21
-72.000000000000156
31
0
0
LINE
5
101
100
AcDbEntity
8
0
100
AcDbLine
10
160.27687752661225
20
-72.000000000000156
30
0
11
160.27687752661211
21
-66.000000000000156
31
0
0
LINE
5
102
100
AcDbEntity
8
0
100
AcDbLine
10
160.27687752661211
20
-66.000000000000156
30
0
11
166.27687752661217
21
-66.000000000000171
31
0
0
LINE
5
103
100
AcDbEntity
8
0
100
AcDbLine
10
166.27687752661217
20
-66.000000000000171
30
0
11
166.27687752661228
21
-60.000000000000199
31
0
0
LINE
5
104
100
AcDbEntity
8
0
100
AcDbLine
10
166.27687752661228
20
-60.000000000000199
30
0
11
160.27687752661222
21
-60.000000000000142
31
0
0
LINE
5
105
100
AcDbEntity
8
0
100
AcDbLine
10
160.27687752661222
20
-60.000000000000142
30
0
11
160.27687752661217
21
-54.000000000000163
31
0
0
LINE
5
106
100
AcDbEntity
8
0
100
AcDbLine
10
160.27687752661217
20
-54.000000000000163
30
0
11
166.27687752661217
21
-54.000000000000163
31
0
0
LINE
5
107
100
AcDbEntity
8
0
100
AcDbLine
10
166.27687752661217
20
-54.000000000000163
30
0
11
166.27687752661228
21
-48.000000000000171
31
0
0
LINE
5
108
100
AcDbEntity
8
0
100
AcDbLine
10
166.27687752661228
20
-48.000000000000171
30
0
11
160.27687752661228
21
-48.000000000000149
31
0
0
LINE
5
109
100
AcDbEntity
8
0
100
AcDbLine
10
160.27687752661228
20
-48.000000000000149
30
0
11
160.27687752661217
21
-42.000000000000135
31
0
0
LINE
5
110
100
AcDbEntity
8
0
100
AcDbLine
10
160.27687752661217
20
-42.000000000000135
30
0
11
166.2768775266122
21
-42.000000000000163
31
0
0
LINE
5
111
100
AcDbEntity
8
0
100
AcDbLine
10
166.2768775266122
20
-42.000000000000163
30
0
11
166.27687752661231
21
-36.000000000000171
31
0
0
LINE
5
112
100
AcDbEntity
8
0
100
AcDbLine
10
166.27687752661231
20
-36.000000000000171
30
0
11
160.27687752661225
21
-36.000000000000121
31
0
0
LINE
5
113
100
AcDbEntity
8
0
100
AcDbLine
10
160.27687752661225
20
-36.000000000000121
30
0
11
160.27687752661211
21
-30.00000000000016
31
0
0
LINE
5
114
100
AcDbEntity
8
0
100
AcDbLine
10
160.27687752661211
20
-30.00000000000016
30
0
11
166.27687752661217
21
-30.000000000000171
31
0
0
LINE
5
115
100
AcDbEntity
8
0
100
AcDbLine
10
166.27687752661217
20
-30.000000000000171
30
0
11
166.27687752661228
21
-24.000000000000181
31
0
0
LINE
5
116
100
AcDbEntity
8
0
100
AcDbLine
10
166.27687752661228
20
-24.000000000000181
30
0
11
160.27687752661225
21
-24.000000000000146
31
0
0
LINE
5
117
100
AcDbEntity
8
0
100
AcDbLine
10
160.27687752661225
20
-24.000000000000146
30
0
11
160.27687752661217
21
-18.000000000000142
31
0
0
LINE
5
118
100
AcDbEntity
8
0
100
AcDbLine
10
160.27687752661217
20
-18.000000000000142
30
0
11
166.27687752661217
21
-18.000000000000156
31
0
0
LINE
5
119
100
AcDbEntity
8
0
100
AcDbLine
10
166.27687752661217
20
-18.000000000000156
30
0
11
166.27687752661231
21
-12.000000000000171
31
0
0
LINE
5
120
100
AcDbEntity
8
0
100
AcDbLine
10
166.27687752661231
20
-12.000000000000171
30
0
11
160.27687752661228
21
-12.000000000000126
31
0
0
LINE
5
121
100
AcDbEntity
8
0
100
AcDbLine
10
160.27687752661228
20
-12.000000000000126
30
0
11
160.27687752661217
21
-6.0000000000001297
31
0
0
LINE
5
122
100
AcDbEntity
8
0
100
AcDbLine
10
160.27687752661217
20
-6.0000000000001297
30
0
11
166.2768775266122
21
-6.0000000000001386
31
0
0
LINE
5
123
100
AcDbEntity
8
0
100
AcDbLine
10
166.2768775266122
20
-6.0000000000001386
30
0
11
166.27687752661231
21
-1.5987211554602254e-13
31
0
0
LINE
5
124
100
AcDbEntity
8
0
100
AcDbLine
10
166.27687752661231
20
-1.5987211554602254e-13
30
0
11
160.27687752661228
21
-1.2434497875801753e-13
31
0
0
LINE
5
125
100
AcDbEntity
8
0
100
AcDbLine
10
160.27687752661228
20
-1.2434497875801753e-13
30
0
11
160.27687752661217
21
5.9999999999998632
31
0
0
LINE
5
126
100
AcDbEntity
8
0
100
AcDbLine
10
160.27687752661217
20
5.9999999999998632
30
0
11
166.2768775266122
21
5.9999999999998632
31
0
0
LINE
5
127
100
AcDbEntity
8
0
100
AcDbLine
10
166.2768775266122
20
5.9999999999998632
30
0
11
166.27687752661231
21
11.999999999999842
31
0
0
LINE
5
128
100
AcDbEntity
8
0
100
AcDbLine
10
166.27687752661231
20
11.999999999999842
30
0
11
160.27687752661234
21
11.999999999999886
31
0
0
LINE
5
129
100
AcDbEntity
8
0
100
AcDbLine
10
160.27687752661234
20
11.999999999999886
30
0
11
160.27687752661217
21
17.999999999999858
31
0
0
LINE
5
130
100
AcDbEntity
8
0
100
AcDbLine
10
160.27687752661217
20
17.999999999999858
30
0
11
166.2768775266122
21
17.999999999999829
31
0
0
LINE
5
131
100
AcDbEntity
8
0
100
AcDbLine
10
166.2768775266122
20
17.999999999999829
30
0
11
166.27687752661231
21
23.999999999999826
31
0
0
LINE
5
132
100
AcDbEntity
8
0
100
AcDbLine
10
166.27687752661231
20
23.999999999999826
30
0
11
160.27687752661228
21
23.999999999999872
31
0
0
LINE
5
133
100
AcDbEntity
8
0
100
AcDbLine
10
160.27687752661228
20
23.999999999999872
30
0
11
160.2768775266122
21
29.999999999999865
31
0
0
LINE
5
134
100
AcDbEntity
8
0
100
AcDbLine
10
160.2768775266122
20
29.999999999999865
30
0
11
166.2768775266122
21
29.999999999999865
31
0
0
LINE
5
135
100
AcDbEntity
8
0
100
AcDbLine
10
166.2768775266122
20
29.999999999999865
30
0
11
166.27687752661231
21
35.999999999999844
31
0
0
LINE
5
136
100
AcDbEntity
8
0
100
AcDbLine
10
166.27687752661231
20
35.999999999999844
30
0
11
160.27687752661234
21
35.999999999999879
31
0
0
LINE
5
137
100
AcDbEntity
8
0
100
AcDbLine
10
160.27687752661234
20
35.999999999999879
30
0
11
160.27687752661222
21
41.999999999999879
31
0
0
LINE
5
138
100
AcDbEntity
8
0
100
AcDbLine
10
160.27687752661222
20
41.999999999999879
30
0
11
166.27687752661222
21
41.999999999999872
31
0
0
LINE
5
139
100
AcDbEntity
8
0
100
AcDbLine
10
166.27687752661222
20
41.999999999999872
30
0
11
166.27687752661231
21
47.999999999999865
31
0
0
LINE
5
140
100
AcDbEntity
8
0
100
AcDbLine
10
166.27687752661231
20
47.999999999999865
30
0
11
160.27687752661234
21
47.999999999999893
31
0
0
LINE
5
141
100
AcDbEntity
8
0
100
AcDbLine
10
160.27687752661234
20
47.999999999999893
30
0
11
160.27687752661222
21
53.999999999999879
31
0
0
LINE
5
142
100
AcDbEntity
8
0
100
AcDbLine
10
160.27687752661222
20
53.999999999999879
30
0
11
166.27687752661222
21
53.999999999999872
31
0
0
LINE
5
143
100
AcDbEntity
8
0
100
AcDbLine
10
166.27687752661222
20
53.999999999999872
30
0
11
166.27687752661234
21
59.999999999999865
31
0
0
LINE
5
144
100
AcDbEntity
8
0
100
AcDbLine
10
166.27687752661234
20
59.999999999999865
30
0
11
160.27687752661234
21
59.999999999999901
31
0
0
LINE
5
145
100
AcDbEntity
8
0
100
AcDbLine
10
160.27687752661234
20
59.999999999999901
30
0
11
160.27687752661222
21
65.999999999999872
31
0
0
LINE
5
146
100
AcDbEntity
8
0
100
AcDbLine
10
160.27687752661222
20
65.999999999999872
30
0
11
166.27687752661222
21
65.999999999999858
31
0
0
LINE
5
147
100
AcDbEntity
8
0
100
AcDbLine
10
166.27687752661222
20
65.999999999999858
30
0
11
166.27687752661234
21
71.999999999999844
31
0
0
LINE
5
148
100
AcDbEntity
8
0
100
AcDbLine
10
166.27687752661234
20
71.999999999999844
30
0
11
160.27687752661234
21
71.999999999999886
31
0
0
LINE
5
149
100
AcDbEntity
8
0
100
AcDbLine
10
160.27687752661234
20
71.999999999999886
30
0
11
160.27687752661222
21
77.999999999999872
31
0
0
LINE
5
150
100
AcDbEntity
8
0
100
AcDbLine
10
160.27687752661222
20
77.999999999999872
30
0
11
166.27687752661222
21
77.999999999999858
31
0
0
LINE
5
151
100
AcDbEntity
8
0
100
AcDbLine
10
166.27687752661222
20
77.999999999999858
30
0
11
166.2768775266124
21
83.999999999999858
31
0
0
LINE
5
152
100
AcDbEntity
8
0
100
AcDbLine
10
166.2768775266124
20
83.999999999999858
30
0
11
160.27687752661237
21
83.999999999999886
31
0
0
LINE
5
153
100
AcDbEntity
8
0
100
AcDbLine
10
160.27687752661237
20
83.999999999999886
30
0
11
160.27687752661222
21
89.999999999999886
31
0
0
LINE
5
154
100
AcDbEntity
8
0
100
AcDbLine
10
160.27687752661222
20
89.999999999999886
30
0
11
166.27687752661228
21
89.999999999999886
31
0
0
LINE
5
155
100
AcDbEntity
8
0
100
AcDbLine
10
166.27687752661228
20
89.999999999999886
30
0
11
166.2768775266124
21
95.999999999999929
31
0
0
LINE
5
156
100
AcDbEntity
8
0
100
AcDbLine
10
166.2768775266124
20
95.999999999999929
30
0
11
161.08072510390571
21
98.999999999999986
31
0
0
LINE
5
157
100
AcDbEntity
8
0
100
AcDbLine
10
161.08072510390571
20
98.999999999999986
30
0
11
158.08072510390576
21
93.803847577293311
31
0
0
LINE
5
158
100
AcDbEntity
8
0
100
AcDbLine
10
158.08072510390576
20
93.803847577293311
30
0
11
152.8845726811991
21
96.803847577293354
31
0
0
LINE
5
159
100
AcDbEntity
8
0
100
AcDbLine
10
152.8845726811991
20
96.803847577293354
30
0
11
155.88457268119907
21
101.9999999999999
31
0
0
LINE
5
160
100
AcDbEntity
8
0
100
AcDbLine
10
155.88457268119907
20
101.9999999999999
30
0
11
150.68842025849247
21
105
31
0
0
LINE
5
161
100
AcDbEntity
8
0
100
AcDbLine
10
150.68842025849247
20
105
30
0
11
147.68842025849253
21
99.803847577293325
31
0
0
LINE
5
162
100
AcDbEntity
8
0
100
AcDbLine
10
147.68842025849253
20
99.803847577293325
30
0
11
142.49226783578587
21
102.80384757729337
31
0
0
LINE
5
163
100
AcDbEntity
8
0
100
AcDbLine
10
142.49226783578587
20
102.80384757729337
30
0
11
145.49226783578578
21
107.9999999999999
31
0
0
LINE
5
164
100
AcDbEntity
8
0
100
AcDbLine
10
145.49226783578578
20
107.9999999999999
30
0
11
140.29611541307921
21
111.00000000000001
31
0
0
LINE
5
165
100
AcDbEntity
8
0
100
AcDbLine
10
140.29611541307921
20
111.00000000000001
30
0
11
137.29611541307924
21
105.80384757729334
31
0
0
LINE
5
166
100
AcDbEntity
8
0
100
AcDbLine
10
137.29611541307924
20
105.80384757729334
30
0
11
132.0999629903726
21
108.80384757729337
31
0
0
LINE
5
167
100
AcDbEntity
8
0
100
AcDbLine
10
132.0999629903726
20
108.80384757729337
30
0
11
135.09996299037255
21
113.99999999999991
31
0
0
LINE
5
168
100
AcDbEntity
8
0
100
AcDbLine
10
135.09996299037255
20
113.99999999999991
30
0
11
129.90381056766594
21
117.00000000000003
31
0
0
LINE
5
169
100
AcDbEntity
8
0
100
AcDbLine
10
129.90381056766594
20
117.00000000000003
30
0
11
126.903810567666
21
111.80384757729335
31
0
0
LINE
5
170
100
AcDbEntity
8
0
100
AcDbLine
10
126.903810567666
20
111.80384757729335
30
0
11
121.70765814495934
21
114.80384757729337
31
0
0
LINE
5
171
100
AcDbEntity
8
0
100
AcDbLine
10
121.70765814495934
20
114.80384757729337
30
0
11
124.70765814495928
21
119.99999999999991
31
0
0
LINE
5
172
100
AcDbEntity
8
0
100
AcDbLine
10
124.70765814495928
20
119.99999999999991
30
0
11
119.51150572225268
21
123.00000000000003
31
0
0
LINE
5
173
100
AcDbEntity
8
0
100
AcDbLine
10
119.51150572225268
20
123.00000000000003
30
0
11
116.51150572225274
21
117.80384757729335
31
0
0
LINE
5
174
100
AcDbEntity
8
0
100
AcDbLine
10
116.51150572225274
20
117.80384757729335
30
0
11
111.31535329954608
21
120.80384757729337
31
0
0
LINE
5
175
100
AcDbEntity
8
0
100
AcDbLine
10
111.31535329954608
20
120.80384757729337
30
0
11
114.31535329954602
21
125.99999999999993
31
0
0
LINE
5
176
100
AcDbEntity
8
0
100
AcDbLine
10
114.31535329954602
20
125.99999999999993
30
0
11
109.11920087683941
21
129.00000000000003
31
0
0
LINE
5
177
100
AcDbEntity
8
0
100
AcDbLine
10
109.11920087683941
20
129.00000000000003
30
0
11
106.11920087683947
21
123.80384757729334
31
0
0
LINE
5
178
100
AcDbEntity
8
0
100
AcDbLine
10
106.11920087683947
20
123.80384757729334
30
0
11
100.92304845413281
21
126.80384757729337
31
0
0
LINE
5
179
100
AcDbEntity
8
0
100
AcDbLine
10
100.92304845413281
20
126.80384757729337
30
0
11
103.92304845413277
21
131.99999999999991
31
0
0
LINE
5
180
100
AcDbEntity
8
0
100
AcDbLine
10
103.92304845413277
20
131.99999999999991
30
0
11
98.726896031426165
21
135.00000000000003
31
0
0
LINE
5
181
100
AcDbEntity
8
0
100
AcDbLine
10
98.726896031426165
20
135.00000000000003
30
0
11
95.726896031426207
21
129.80384757729337
31
0
0
LINE
5
182
100
AcDbEntity
8
0
100
AcDbLine
10
95.726896031426207
20
129.80384757729337
30
0
11
90.530743608719533
21
132.8038475772934
31
0
0
LINE
5
183
100
AcDbEntity
8
0
100
AcDbLine
10
90.530743608719533
20
132.8038475772934
30
0
11
93.53074360871949
21
137.99999999999994
31
0
0
LINE
5
184
100
AcDbEntity
8
0
100
AcDbLine
10
93.53074360871949
20
137.99999999999994
30
0
11
88.334591186012887
21
141.00000000000006
31
0
0
LINE
5
185
100
AcDbEntity
8
0
100
AcDbLine
10
88.334591186012887
20
141.00000000000006
30
0
11
85.334591186012943
21
135.80384757729337
31
0
0
LINE
5
186
100
AcDbEntity
8
0
100
AcDbLine
10
85.334591186012943
20
135.80384757729337
30
0
11
80.138438763306269
21
138.8038475772934
31
0
0
LINE
5
187
100
AcDbEntity
8
0
100
AcDbLine
10
80.138438763306269
20
138.8038475772934
30
0
11
83.138438763306226
21
143.99999999999994
31
0
0
LINE
5
188
100
AcDbEntity
8
0
100
AcDbLine
10
83.138438763306226
20
143.99999999999994
30
0
11
77.942286340599622
21
147.00000000000006
31
0
0
LINE
5
189
100
AcDbEntity
8
0
100
AcDbLine
10
77.942286340599622
20
147.00000000000006
30
0
11
74.942286340599679
21
141.80384757729337
31
0
0
LINE
5
190
100
AcDbEntity
8
0
100
AcDbLine
10
74.942286340599679
20
141.80384757729337
30
0
11
69.746133917893019
21
144.8038475772934
31
0
0
LINE
5
191
100
AcDbEntity
8
0
100
AcDbLine
10
69.746133917893019
20
144.8038475772934
30
0
11
72.746133917892976
21
149.99999999999994
31
0
0
LINE
5
192
100
AcDbEntity
8
0
100
AcDbLine
10
72.746133917892976
20
149.99999999999994
30
0
11
67.549981495186373
21
153.00000000000006
31
0
0
LINE
5
193
100
AcDbEntity
8
0
100
AcDbLine
10
67.549981495186373
20
153.00000000000006
30
0
11
64.549981495186429
21
147.8038475772934
31
0
0
LINE
5
194
100
AcDbEntity
8
0
100
AcDbLine
10
64.549981495186429
20
147.8038475772934
30
0
11
59.353829072479769
21
150.8038475772934
31
0
0
LINE
5
195
100
AcDbEntity
8
0
100
AcDbLine
10
59.353829072479769
20
150.8038475772934
30
0
11
62.353829072479726
21
155.99999999999994
31
0
0
LINE
5
196
100
AcDbEntity
8
0
100
AcDbLine
10
62.353829072479726
20
155.99999999999994
30
0
11
57.157676649773123
21
159.00000000000006
31
0
0
LINE
5
197
100
AcDbEntity
8
0
100
AcDbLine
10
57.157676649773123
20
159.00000000000006
30
0
11
54.157676649773165
21
153.80384757729337
31
0
0
LINE
5
198
100
AcDbEntity
8
0
100
AcDbLine
10
54.157676649773165
20
153.80384757729337
30
0
11
48.961524227066484
21
156.80384757729342
31
0
0
LINE
5
199
100
AcDbEntity
8
0
100
AcDbLine
10
48.961524227066484
20
156.80384757729342
30
0
11
51.961524227066434
21
161.99999999999994
31
0
0
LINE
5
200
100
AcDbEntity
8
0
100
AcDbLine
10
51.961524227066434
20
161.99999999999994
30
0
11
46.76537180435983
21
165.00000000000006
31
0
0
LINE
5
201
100
AcDbEntity
8
0
100
AcDbLine
10
46.76537180435983
20
165.00000000000006
30
0
11
43.765371804359887
21
159.8038475772934
31
0
0
LINE
5
202
100
AcDbEntity
8
0
100
AcDbLine
10
43.765371804359887
20
159.8038475772934
30
0
11
38.569219381653227
21
162.80384757729342
31
0
0
LINE
5
203
100
AcDbEntity
8
0
100
AcDbLine
10
38.569219381653227
20
162.80384757729342
30
0
11
41.569219381653184
21
167.99999999999997
31
0
0
LINE
5
204
100
AcDbEntity
8
0
100
AcDbLine
10
41.569219381653184
20
167.99999999999997
30
0
11
36.37306695894658
21
171.00000000000009
31
0
0
LINE
5
205
100
AcDbEntity
8
0
100
AcDbLine
10
36.37306695894658
20
171.00000000000009
30
0
11
33.373066958946623
21
165.80384757729342
31
0
0
LINE
5
206
100
AcDbEntity
8
0
100
AcDbLine
10
33.373066958946623
20
165.80384757729342
30
0
11
28.17691453623997
21
168.80384757729342
31
0
0
LINE
5
207
100
AcDbEntity
8
0
100
AcDbLine
10
28.17691453623997
20
168.80384757729342
30
0
11
31.176914536239924
21
174
31
0
0
LINE
5
208
100
AcDbEntity
8
0
100
AcDbLine
10
31.176914536239924
20
174
30
0
11
25.98076211353332
21
177.00000000000011
31
0
0
LINE
5
209
100
AcDbEntity
8
0
100
AcDbLine
10
25.98076211353332
20
177.00000000000011
30
0
11
22.980762113533373
21
171.80384757729342
31
0
0
LINE
5
210
100
AcDbEntity
8
0
100
AcDbLine
10
22.980762113533373
20
171.80384757729342
30
0
11
17.784609690826692
21
174.80384757729342
31
0
0
LINE
5
211
100
AcDbEntity
8
0
100
AcDbLine
10
17.784609690826692
20
174.80384757729342
30
0
11
20.784609690826645
21
180
31
0
0
LINE
5
212
100
AcDbEntity
8
0
100
AcDbLine
10
20.784609690826645
20
180
30
0
11
15.588457268120033
21
183.00000000000011
31
0
0
LINE
5
213
100
AcDbEntity
8
0
100
AcDbLine
10
1.5245886033323536e-13
20
192.00000000000011
30
0
11
-10.392304845413163
21
186.00000000000009
31
0
0
LINE
5
214
100
AcDbEntity
8
0
100
AcDbLine
10
-20.784609690826443
20
180.00000000000006
30
0
11
-17.78460969082645
21
174.80384757729342
31
0
0
LINE
5
215
100
AcDbEntity
8
0
100
AcDbLine
10
-17.78460969082645
20
174.80384757729342
30
0
11
-22.980762113533075
21
171.80384757729342
31
0
0
LINE
5
216
100
AcDbEntity
8
0
100
AcDbLine
10
-22.980762113533075
20
171.80384757729342
30
0
11
-25.980762113533061
21
177.00000000000006
31
0
0
LINE
5
217
100
AcDbEntity
8
0
100
AcDbLine
10
-25.980762113533061
20
177.00000000000006
30
0
11
-31.176914536239721
21
174.00000000000006
31
0
0
LINE
5
218
100
AcDbEntity
8
0
100
AcDbLine
10
-31.176914536239721
20
174.00000000000006
30
0
11
-28.176914536239728
21
168.80384757729342
31
0
0
LINE
5
219
100
AcDbEntity
8
0
100
AcDbLine
10
-28.176914536239728
20
168.80384757729342
30
0
11
-33.373066958946353
21
165.80384757729342
31
0
0
LINE
5
220
100
AcDbEntity
8
0
100
AcDbLine
10
-33.373066958946353
20
165.80384757729342
30
0
11
-36.373066958946339
21
171.00000000000006
31
0
0
LINE
5
221
100
AcDbEntity
8
0
100
AcDbLine
10
-36.373066958946339
20
171.00000000000006
30
0
11
-41.569219381652999
21
168.00000000000009
31
0
0
LINE
5
222
100
AcDbEntity
8
0
100
AcDbLine
10
-41.569219381652999
20
168.00000000000009
30
0
11
-38.569219381653006
21
162.80384757729342
31
0
0
LINE
5
223
100
AcDbEntity
8
0
100
AcDbLine
10
-38.569219381653006
20
162.80384757729342
30
0
11
-43.765371804359631
21
159.80384757729342
31
0
0
LINE
5
224
100
AcDbEntity
8
0
100
AcDbLine
10
-43.765371804359631
20
159.80384757729342
30
0
11
-46.765371804359617
21
165.00000000000006
31
0
0
LINE
5
225
100
AcDbEntity
8
0
100
AcDbLine
10
-46.765371804359617
20
165.00000000000006
30
0
11
-51.961524227066242
21
162.00000000000006
31
0
0
LINE
5
226
100
AcDbEntity
8
0
100
AcDbLine
10
-51.961524227066242
20
162.00000000000006
30
0
11
-48.961524227066249
21
156.8038475772934
31
0
0
LINE
5
227
100
AcDbEntity
8
0
100
AcDbLine
10
-48.961524227066249
20
156.8038475772934
30
0
11
-54.157676649772874
21
153.8038475772934
31
0
0
LINE
5
228
100
AcDbEntity
8
0
100
AcDbLine
10
-54.157676649772874
20
153.8038475772934
30
0
11
-57.15767664977286
21
159.00000000000003
31
0
0
LINE
5
229
100
AcDbEntity
8
0
100
AcDbLine
10
-57.15767664977286
20
159.00000000000003
30
0
11
-62.35382907247952
21
156.00000000000006
31
0
0
LINE
5
230
100
AcDbEntity
8
0
100
AcDbLine
10
-62.35382907247952
20
156.00000000000006
30
0
11
-59.353829072479527
21
150.80384757729342
31
0
0
LINE
5
231
100
AcDbEntity
8
0
100
AcDbLine
10
-59.353829072479527
20
150.80384757729342
30
0
11
-64.549981495186145
21
147.8038475772934
31
0
0
LINE
5
232
100
AcDbEntity
8
0
100
AcDbLine
10
-64.549981495186145
20
147.8038475772934
30
0
11
-67.549981495186145
21
153.00000000000006
31
0
0
LINE
5
233
100
AcDbEntity
8
0
100
AcDbLine
10
-67.549981495186145
20
153.00000000000006
30
0
11
-72.746133917892777
21
150.00000000000006
31
0
0
LINE
5
234
100
AcDbEntity
8
0
100
AcDbLine
10
-72.746133917892777
20
150.00000000000006
30
0
11
-69.746133917892806
21
144.80384757729342
31
0
0
LINE
5
235
100
AcDbEntity
8
0
100
AcDbLine
10
-69.746133917892806
20
144.80384757729342
30
0
11
-74.942286340599409
21
141.8038475772934
31
0
0
LINE
5
236
100
AcDbEntity
8
0
100
AcDbLine
10
-74.942286340599409
20
141.8038475772934
30
0
11
-77.942286340599424
21
147.00000000000006
31
0
0
LINE
5
237
100
AcDbEntity
8
0
100
AcDbLine
10
-77.942286340599424
20
147.00000000000006
30
0
11
-83.138438763306056
21
144.00000000000006
31
0
0
LINE
5
238
100
AcDbEntity
8
0
100
AcDbLine
10
-83.138438763306056
20
144.00000000000006
30
0
11
-80.138438763306084
21
138.80384757729342
31
0
0
LINE
5
239
100
AcDbEntity
8
0
100
AcDbLine
10
-80.138438763306084
20
138.80384757729342
30
0
11
-85.334591186012688
21
135.80384757729342
31
0
0
LINE
5
240
100
AcDbEntity
8
0
100
AcDbLine
10
-85.334591186012688
20
135.80384757729342
30
0
11
-88.334591186012688
21
141.00000000000006
31
0
0
LINE
5
241
100
AcDbEntity
8
0
100
AcDbLine
10
-88.334591186012688
20
141.00000000000006
30
0
11
-93.53074360871932
21
138.00000000000006
31
0
0
LINE
5
242
100
AcDbEntity
8
0
100
AcDbLine
10
-93.53074360871932
20
138.00000000000006
30
0
11
-90.53074360871932
21
132.80384757729342
31
0
0
LINE
5
243
100
AcDbEntity
8
0
100
AcDbLine
10
-90.53074360871932
20
132.80384757729342
30
0
11
-95.726896031425952
21
129.80384757729342
31
0
0
LINE
5
244
100
AcDbEntity
8
0
100
AcDbLine
10
-95.726896031425952
20
129.80384757729342
30
0
11
-98.726896031425923
21
135.00000000000006
31
0
0
LINE
5
245
100
AcDbEntity
8
0
100
AcDbLine
10
-98.726896031425923
20
135.00000000000006
30
0
11
-103.92304845413261
21
132.00000000000006
31
0
0
LINE
5
246
100
AcDbEntity
8
0
100
AcDbLine
10
-103.92304845413261
20
132.00000000000006
30
0
11
-100.9230484541326
21
126.80384757729341
31
0
0
LINE
5
247
100
AcDbEntity
8
0
100
AcDbLine
10
-100.9230484541326
20
126.80384757729341
30
0
11
-106.11920087683924
21
123.8038475772934
31
0
0
LINE
5
248
100
AcDbEntity
8
0
100
AcDbLine
10
-106.11920087683924
20
123.8038475772934
30
0
11
-109.11920087683922
21
129.00000000000003
31
0
0
LINE
5
249
100
AcDbEntity
8
0
100
AcDbLine
10
-109.11920087683922
20
129.00000000000003
30
0
11
-114.31535329954585
21
126.00000000000006
31
0
0
LINE
5
250
100
AcDbEntity
8
0
100
AcDbLine
10
-114.31535329954585
20
126.00000000000006
30
0
11
-111.31535329954588
21
120.80384757729341
31
0
0
LINE
5
251
100
AcDbEntity
8
0
100
AcDbLine
10
-111.31535329954588
20
120.80384757729341
30
0
11
-116.51150572225248
21
117.8038475772934
31
0
0
LINE
5
252
100
AcDbEntity
8
0
100
AcDbLine
10
-116.51150572225248
20
117.8038475772934
30
0
11
-119.51150572225248
21
123.00000000000004
31
0
0
LINE
5
253
100
AcDbEntity
8
0
100
AcDbLine
10
-119.51150572225248
20
123.00000000000004
30
0
11
-124.70765814495913
21
120.00000000000006
31
0
0
LINE
5
254
100
AcDbEntity
8
0
100
AcDbLine
10
-124.70765814495913
20
120.00000000000006
30
0
11
-121.70765814495915
21
114.80384757729341
31
0
0
LINE
5
255
100
AcDbEntity
8
0
100
AcDbLine
10
-121.70765814495915
20
114.80384757729341
30
0
11
-126.90381056766576
21
111.80384757729341
31
0
0
LINE
5
256
100
AcDbEntity
8
0
100
AcDbLine
10
-126.90381056766576
20
111.80384757729341
30
0
11
-129.90381056766577
21
117.00000000000004
31
0
0
LINE
5
257
100
AcDbEntity
8
0
100
AcDbLine
10
-129.90381056766577
20
117.00000000000004
30
0
11
-135.0999629903724
21
114.00000000000006
31
0
0
LINE
5
258
100
AcDbEntity
8
0
100
AcDbLine
10
-135.0999629903724
20
114.00000000000006
30
0
11
-132.0999629903724
21
108.80384757729342
31
0
0
LINE
5
259
100
AcDbEntity
8
0
100
AcDbLine
10
-132.0999629903724
20
108.80384757729342
30
0
11
-137.29611541307904
21
105.80384757729341
31
0
0
LINE
5
260
100
AcDbEntity
8
0
100
AcDbLine
10
-137.29611541307904
20
105.80384757729341
30
0
11
-140.29611541307901
21
111.00000000000006
31
0
0
LINE
5
261
100
AcDbEntity
8
0
100
AcDbLine
10
-140.29611541307901
20
111.00000000000006
30
0
11
-145.4922678357857
21
108.00000000000006
31
0
0
LINE
5
262
100
AcDbEntity
8
0
100
AcDbLine
10
-145.4922678357857
20
108.00000000000006
30
0
11
-142.49226783578567
21
102.80384757729342
31
0
0
LINE
5
263
100
AcDbEntity
8
0
100
AcDbLine
10
-142.49226783578567
20
102.80384757729342
30
0
11
-147.68842025849233
21
99.803847577293411
31
0
0
LINE
5
264
100
AcDbEntity
8
0
100
AcDbLine
10
-147.68842025849233
20
99.803847577293411
30
0
11
-150.68842025849227
21
105.00000000000006
31
0
0
LINE
5
265
100
AcDbEntity
8
0
100
AcDbLine
10
-150.68842025849227
20
105.00000000000006
30
0
11
-155.88457268119893
21
102.00000000000006
31
0
0
LINE
5
266
100
AcDbEntity
8
0
100
AcDbLine
10
-155.88457268119893
20
102.00000000000006
30
0
11
-152.88457268119896
21
96.803847577293425
31
0
0
LINE
5
267
100
AcDbEntity
8
0
100
AcDbLine
10
-152.88457268119896
20
96.803847577293425
30
0
11
-158.08072510390556
21
93.803847577293425
31
0
0
LINE
5
268
100
AcDbEntity
8
0
100
AcDbLine
10
-158.08072510390556
20
93.803847577293425
30
0
11
-161.08072510390556
21
99.000000000000057
31
0
0
LINE
5
269
100
AcDbEntity
8
0
100
AcDbLine
10
-161.08072510390556
20
99.000000000000057
30
0
11
-166.27687752661222
21
96.000000000000071
31
0
0
LINE
5
270
100
AcDbEntity
8
0
100
AcDbLine
10
-166.27687752661222
20
96.000000000000071
30
0
11
-166.27687752661234
21
90.000000000000028
31
0
0
LINE
5
271
100
AcDbEntity
8
0
100
AcDbLine
10
-166.27687752661234
20
90.000000000000028
30
0
11
-160.27687752661234
21
90.000000000000028
31
0
0
LINE
5
272
100
AcDbEntity
8
0
100
AcDbLine
10
-160.27687752661234
20
90.000000000000028
30
0
11
-160.27687752661234
21
84.000000000000043
31
0
0
LINE
5
273
100
AcDbEntity
8
0
100
AcDbLine
10
-160.27687752661234
20
84.000000000000043
30
0
11
-166.27687752661234
21
84.000000000000043
31
0
0
LINE
5
274
100
AcDbEntity
8
0
100
AcDbLine
10
-166.27687752661234
20
84.000000000000043
30
0
11
-166.27687752661234
21
78.000000000000028
31
0
0
LINE
5
275
100
AcDbEntity
8
0
100
AcDbLine
10
-166.27687752661234
20
78.000000000000028
30
0
11
-160.27687752661234
21
78.000000000000028
31
0
0
LINE
5
276
100
AcDbEntity
8
0
100
AcDbLine
10
-160.27687752661234
20
78.000000000000028
30
0
11
-160.27687752661234
21
72.000000000000043
31
0
0
LINE
5
277
100
AcDbEntity
8
0
100
AcDbLine
10
-160.27687752661234
20
72.000000000000043
30
0
11
-166.27687752661234
21
72.000000000000043
31
0
0
LINE
5
278
100
AcDbEntity
8
0
100
AcDbLine
10
-166.27687752661234
20
72.000000000000043
30
0
11
-166.27687752661234
21
66.000000000000028
31
0
0
LINE
5
279
100
AcDbEntity
8
0
100
AcDbLine
10
-166.27687752661234
20
66.000000000000028
30
0
11
-160.27687752661234
21
66.000000000000028
31
0
0
LINE
5
280
100
AcDbEntity
8
0
100
AcDbLine
10
-160.27687752661234
20
66.000000000000028
30
0
11
-160.27687752661234
21
60.000000000000036
31
0
0
LINE
5
281
100
AcDbEntity
8
0
100
AcDbLine
10
-160.27687752661234
20
60.000000000000036
30
0
11
-166.27687752661234
21
60.000000000000036
31
0
0
LINE
5
282
100
AcDbEntity
8
0
100
AcDbLine
10
-166.27687752661234
20
60.000000000000036
30
0
11
-166.27687752661234
21
54.000000000000028
31
0
0
LINE
5
283
100
AcDbEntity
8
0
100
AcDbLine
10
-166.27687752661234
20
54.000000000000028
30
0
11
-160.27687752661234
21
54.000000000000028
31
0
0
LINE
5
284
100
AcDbEntity
8
0
100
AcDbLine
10
-160.27687752661234
20
54.000000000000028
30
0
11
-160.27687752661234
21
48.000000000000036
31
0
0
LINE
5
285
100
AcDbEntity
8
0
100
AcDbLine
10
-160.27687752661234
20
48.000000000000036
30
0
11
-166.27687752661234
21
48.000000000000036
31
0
0
LINE
5
286
100
AcDbEntity
8
0
100
AcDbLine
10
-166.27687752661234
20
48.000000000000036
30
0
11
-166.27687752661234
21
42.000000000000028
31
0
0
LINE
5
287
100
AcDbEntity
8
0
100
AcDbLine
10
-166.27687752661234
20
42.000000000000028
30
0
11
-160.27687752661234
21
42.000000000000028
31
0
0
LINE
5
288
100
AcDbEntity
8
0
100
AcDbLine
10
-160.27687752661234
20
42.000000000000028
30
0
11
-160.27687752661234
21
36.000000000000028
31
0
0
LINE
5
289
100
AcDbEntity
8
0
100
AcDbLine
10
-160.27687752661234
20
36.000000000000028
30
0
11
-166.27687752661234
21
36.000000000000028
31
0
0
LINE
5
290
100
AcDbEntity
8
0
100
AcDbLine
10
-166.27687752661234
20
36.000000000000028
30
0
11
-166.27687752661234
21
30.000000000000028
31
0
0
LINE
5
291
100
AcDbEntity
8
0
100
AcDbLine
10
-166.27687752661234
20
30.000000000000028
30
0
11
-160.27687752661234
21
30.000000000000028
31
0
0
LINE
5
292
100
AcDbEntity
8
0
100
AcDbLine
10
-160.27687752661234
20
30.000000000000028
30
0
11
-160.27687752661234
21
24.000000000000028
31
0
0
LINE
5
293
100
AcDbEntity
8
0
100
AcDbLine
10
-160.27687752661234
20
24.000000000000028
30
0
11
-166.27687752661234
21
24.000000000000028
31
0
0
LINE
5
294
100
AcDbEntity
8
0
100
AcDbLine
10
-166.27687752661234
20
24.000000000000028
30
0
11
-166.27687752661234
21
18.000000000000025
31
0
0
LINE
5
295
100
AcDbEntity
8
0
100
AcDbLine
10
-166.27687752661234
20
18.000000000000025
30
0
11
-160.27687752661234
21
18.000000000000025
31
0
0
LINE
5
296
100
AcDbEntity
8
0
100
AcDbLine
10
-160.27687752661234
20
18.000000000000025
30
0
11
-160.27687752661234
21
12.000000000000028
31
0
0
LINE
5
297
100
AcDbEntity
8
0
100
AcDbLine
10
-160.27687752661234
20
12.000000000000028
30
0
11
-166.27687752661234
21
12.000000000000028
31
0
0
LINE
5
298
100
AcDbEntity
8
0
100
AcDbLine
10
-166.27687752661234
20
12.000000000000028
30
0
11
-166.27687752661234
21
6.0000000000000142
31
0
0
LINE
5
299
100
AcDbEntity
8
0
100
AcDbLine
10
-166.27687752661234
20
6.0000000000000142
30
0
11
-160.27687752661234
21
6.0000000000000142
31
0
0
LINE
5
300
100
AcDbEntity
8
0
100
AcDbLine
10
-160.27687752661234
20
6.0000000000000142
30
0
11
-160.27687752661234
21
1.7763568394002505e-14
31
0
0
LINE
5
301
100
AcDbEntity
8
0
100
AcDbLine
10
-160.27687752661234
20
1.7763568394002505e-14
30
0
11
-166.27687752661234
21
1.7763568394002505e-14
31
0
0
LINE
5
302
100
AcDbEntity
8
0
100
AcDbLine
10
-166.27687752661234
20
1.7763568394002505e-14
30
0
11
-166.27687752661234
21
-5.9999999999999876
31
0
0
LINE
5
303
100
AcDbEntity
8
0
100
AcDbLine
10
-166.27687752661234
20
-5.9999999999999876
30
0
11
-160.27687752661234
21
-5.9999999999999876
31
0
0
LINE
5
304
100
AcDbEntity
8
0
100
AcDbLine
10
-160.27687752661234
20
-5.9999999999999876
30
0
11
-160.27687752661234
21
-11.999999999999984
31
0
0
LINE
5
305
100
AcDbEntity
8
0
100
AcDbLine
10
-160.27687752661234
20
-11.999999999999984
30
0
11
-166.27687752661234
21
-11.999999999999984
31
0
0
LINE
5
306
100
AcDbEntity
8
0
100
AcDbLine
10
-166.27687752661234
20
-11.999999999999984
30
0
11
-166.27687752661234
21
-17.999999999999979
31
0
0
LINE
5
307
100
AcDbEntity
8
0
100
AcDbLine
10
-166.27687752661234
20
-17.999999999999979
30
0
11
-160.27687752661234
21
-17.999999999999979
31
0
0
LINE
5
308
100
AcDbEntity
8
0
100
AcDbLine
10
-160.27687752661234
20
-17.999999999999979
30
0
11
-160.27687752661234
21
-23.999999999999979
31
0
0
LINE
5
309
100
AcDbEntity
8
0
100
AcDbLine
10
-160.27687752661234
20
-23.999999999999979
30
0
11
-166.27687752661234
21
-23.999999999999979
31
0
0
LINE
5
310
100
AcDbEntity
8
0
100
AcDbLine
10
-166.27687752661234
20
-23.999999999999979
30
0
11
-166.27687752661234
21
-29.999999999999972
31
0
0
LINE
5
311
100
AcDbEntity
8
0
100
AcDbLine
10
-166.27687752661234
20
-29.999999999999972
30
0
11
-160.27687752661234
21
-29.999999999999972
31
0
0
LINE
5
312
100
AcDbEntity
8
0
100
AcDbLine
10
-160.27687752661234
20
-29.999999999999972
30
0
11
-160.27687752661234
21
-35.999999999999972
31
0
0
LINE
5
313
100
AcDbEntity
8
0
100
AcDbLine
10
-160.27687752661234
20
-35.999999999999972
30
0
11
-166.27687752661234
21
-35.999999999999972
31
0
0
LINE
5
314
100
AcDbEntity
8
0
100
AcDbLine
10
-166.27687752661234
20
-35.999999999999972
30
0
11
-166.27687752661234
21
-42
31
0
0
LINE
5
315
100
AcDbEntity
8
0
100
AcDbLine
10
-166.27687752661234
20
-42
30
0
11
-160.27687752661234
21
-42
31
0
0
LINE
5
316
100
AcDbEntity
8
0
100
AcDbLine
10
-160.27687752661234
20
-42
30
0
11
-160.27687752661234
21
-48
31
0
0
LINE
5
317
100
AcDbEntity
8
0
100
AcDbLine
10
-160.27687752661234
20
-48
30
0
11
-166.27687752661234
21
-48
31
0
0
LINE
5
318
100
AcDbEntity
8
0
100
AcDbLine
10
-166.27687752661234
20
-48
30
0
11
-166.27687752661234
21
-53.999999999999993
31
0
0
LINE
5
319
100
AcDbEntity
8
0
100
AcDbLine
10
-166.27687752661234
20
-53.999999999999993
30
0
11
-160.27687752661234
21
-53.999999999999993
31
0
0
LINE
5
320
100
AcDbEntity
8
0
100
AcDbLine
10
-160.27687752661234
20
-53.999999999999993
30
0
11
-160.27687752661234
21
-59.999999999999993
31
0
0
LINE
5
321
100
AcDbEntity
8
0
100
AcDbLine
10
-160.27687752661234
20
-59.999999999999993
30
0
11
-166.27687752661234
21
-59.999999999999993
31
0
0
LINE
5
322
100
AcDbEntity
8
0
100
AcDbLine
10
-166.27687752661234
20
-59.999999999999993
30
0
11
-166.27687752661234
21
-65.999999999999986
31
0
0
LINE
5
323
100
AcDbEntity
8
0
100
AcDbLine
10
-166.27687752661234
20
-65.999999999999986
30
0
11
-160.27687752661234
21
-65.999999999999986
31
0
0
LINE
5
324
100
AcDbEntity
8
0
100
AcDbLine
10
-160.27687752661234
20
-65.999999999999986
30
0
11
-160.27687752661234
21
-71.999999999999986
31
0
0
LINE
5
325
100
AcDbEntity
8
0
100
AcDbLine
10
-160.27687752661234
20
-71.999999999999986
30
0
11
-166.27687752661234
21
-71.999999999999986
31
0
0
LINE
5
326
100
AcDbEntity
8
0
100
AcDbLine
10
-166.27687752661234
20
-71.999999999999986
30
0
11
-166.27687752661234
21
-78.000000000000014
31
0
0
LINE
5
327
100
AcDbEntity
8
0
100
AcDbLine
10
-166.27687752661234
20
-95.999999999999972
30
0
11
-155.8845726811991
21
-102
31
0
0
LINE
5
328
100
AcDbEntity
8
0
100
AcDbLine
10
-145.49226783578587
20
-107.99999999999997
30
0
11
-142.49226783578581
21
-102.80384757729335
31
0
0
LINE
5
329
100
AcDbEntity
8
0
100
AcDbLine
10
-142.49226783578581
20
-102.80384757729335
30
0
11
-137.29611541307912
21
-105.80384757729323
31
0
0
LINE
5
330
100
AcDbEntity
8
0
100
AcDbLine
10
-137.29611541307912
20
-105.80384757729323
30
0
11
-140.29611541307915
21
-110.99999999999989
31
0
0
LINE
5
331
100
AcDbEntity
8
0
100
AcDbLine
10
-140.29611541307915
20
-110.99999999999989
30
0
11
-135.09996299037257
21
-113.99999999999999
31
0
0
LINE
5
332
100
AcDbEntity
8
0
100
AcDbLine
10
-135.09996299037257
20
-113.99999999999999
30
0
11
-132.09996299037252
21
-108.80384757729334
31
0
0
LINE
5
333
100
AcDbEntity
8
0
100
AcDbLine
10
-132.09996299037252
20
-108.80384757729334
30
0
11
-126.90381056766586
21
-111.80384757729327
31
0
0
LINE
5
334
100
AcDbEntity
8
0
100
AcDbLine
10
-126.90381056766586
20
-111.80384757729327
30
0
11
-129.90381056766586
21
-116.9999999999999
31
0
0
LINE
5
335
100
AcDbEntity
8
0
100
AcDbLine
10
-129.90381056766586
20
-116.9999999999999
30
0
11
-124.70765814495931
21
-120
31
0
0
LINE
5
336
100
AcDbEntity
8
0
100
AcDbLine
10
-124.70765814495931
20
-120
30
0
11
-121.70765814495928
21
-114.80384757729338
31
0
0
LINE
5
337
100
AcDbEntity
8
0
100
AcDbLine
10
-121.70765814495928
20
-114.80384757729338
30
0
11
-116.51150572225256
21
-117.80384757729325
31
0
0
LINE
5
338
100
AcDbEntity
8
0
100
AcDbLine
10
-116.51150572225256
20
-117.80384757729325
30
0
11
-119.51150572225261
21
-122.99999999999994
31
0
0
LINE
5
339
100
AcDbEntity
8
0
100
AcDbLine
10
-119.51150572225261
20
-122.99999999999994
30
0
11
-114.31535329954605
21
-126.00000000000001
31
0
0
LINE
5
340
100
AcDbEntity
8
0
100
AcDbLine
10
-114.31535329954605
20
-126.00000000000001
30
0
11
-111.31535329954599
21
-120.80384757729337
31
0
0
LINE
5
341
100
AcDbEntity
8
0
100
AcDbLine
10
-111.31535329954599
20
-120.80384757729337
30
0
11
-106.1192008768393
21
-123.80384757729324
31
0
0
LINE
5
342
100
AcDbEntity
8
0
100
AcDbLine
10
-106.1192008768393
20
-123.80384757729324
30
0
11
-109.11920087683933
21
-128.99999999999991
31
0
0
LINE
5
343
100
AcDbEntity
8
0
100
AcDbLine
10
-109.11920087683933
20
-128.99999999999991
30
0
11
-103.92304845413277
21
-132
31
0
0
LINE
5
344
100
AcDbEntity
8
0
100
AcDbLine
10
-103.92304845413277
20
-132
30
0
11
-100.92304845413273
21
-126.80384757729337
31
0
0
LINE
5
345
100
AcDbEntity
8
0
100
AcDbLine
10
-100.92304845413273
20
-126.80384757729337
30
0
11
-95.726896031426051
21
-129.80384757729325
31
0
0
LINE
5
346
100
AcDbEntity
8
0
100
AcDbLine
10
-95.726896031426051
20
-129.80384757729325
30
0
11
-98.726896031426065
21
-134.99999999999994
31
0
0
LINE
5
347
100
AcDbEntity
8
0
100
AcDbLine
10
-98.726896031426065
20
-134.99999999999994
30
0
11
-93.530743608719504
21
-138
31
0
0
LINE
5
348
100
AcDbEntity
8
0
100
AcDbLine
10
-93.530743608719504
20
-138
30
0
11
-90.530743608719462
21
-132.8038475772934
31
0
0
LINE
5
349
100
AcDbEntity
8
0
100
AcDbLine
10
-90.530743608719462
20
-132.8038475772934
30
0
11
-85.334591186012787
21
-135.80384757729325
31
0
0
LINE
5
350
100
AcDbEntity
8
0
100
AcDbLine
10
-85.334591186012787
20
-135.80384757729325
30
0
11
-88.334591186012801
21
-140.99999999999994
31
0
0
LINE
5
351
100
AcDbEntity
8
0
100
AcDbLine
10
-88.334591186012801
20
-140.99999999999994
30
0
11
-83.13843876330624
21
-144.00000000000003
31
0
0
LINE
5
352
100
AcDbEntity
8
0
100
AcDbLine
10
-83.13843876330624
20
-144.00000000000003
30
0
11
-80.138438763306198
21
-138.80384757729337
31
0
0
LINE
5
353
100
AcDbEntity
8
0
100
AcDbLine
10
-80.138438763306198
20
-138.80384757729337
30
0
11
-74.942286340599523
21
-141.80384757729328
31
0
0
LINE
5
354
100
AcDbEntity
8
0
100
AcDbLine
10
-74.942286340599523
20
-141.80384757729328
30
0
11
-77.942286340599551
21
-146.99999999999994
31
0
0
LINE
5
355
100
AcDbEntity
8
0
100
AcDbLine
10
-77.942286340599551
20
-146.99999999999994
30
0
11
-72.74613391789299
21
-150.00000000000003
31
0
0
LINE
5
356
100
AcDbEntity
8
0
100
AcDbLine
10
-72.74613391789299
20
-150.00000000000003
30
0
11
-69.746133917892934
21
-144.80384757729342
31
0
0
LINE
5
357
100
AcDbEntity
8
0
100
AcDbLine
10
-69.746133917892934
20
-144.80384757729342
30
0
11
-64.549981495186273
21
-147.80384757729325
31
0
0
LINE
5
358
100
AcDbEntity
8
0
100
AcDbLine
10
-64.549981495186273
20
-147.80384757729325
30
0
11
-67.549981495186287
21
-152.99999999999991
31
0
0
LINE
5
359
100
AcDbEntity
8
0
100
AcDbLine
10
-67.549981495186287
20
-152.99999999999991
30
0
11
-62.353829072479726
21
-156
31
0
0
LINE
5
360
100
AcDbEntity
8
0
100
AcDbLine
10
-62.353829072479726
20
-156
30
0
11
-59.353829072479684
21
-150.80384757729337
31
0
0
LINE
5
361
100
AcDbEntity
8
0
100
AcDbLine
10
-59.353829072479684
20
-150.80384757729337
30
0
11
-54.157676649773009
21
-153.80384757729331
31
0
0
LINE
5
362
100
AcDbEntity
8
0
100
AcDbLine
10
-54.157676649773009
20
-153.80384757729331
30
0
11
-57.157676649773009
21
-158.99999999999994
31
0
0
LINE
5
363
100
AcDbEntity
8
0
100
AcDbLine
10
-57.157676649773009
20
-158.99999999999994
30
0
11
-51.961524227066448
21
-162.00000000000003
31
0
0
LINE
5
364
100
AcDbEntity
8
0
100
AcDbLine
10
-51.961524227066448
20
-162.00000000000003
30
0
11
-48.96152422706642
21
-156.80384757729342
31
0
0
LINE
5
365
100
AcDbEntity
8
0
100
AcDbLine
10
-48.96152422706642
20
-156.80384757729342
30
0
11
-43.765371804359731
21
-159.80384757729328
31
0
0
LINE
5
366
100
AcDbEntity
8
0
100
AcDbLine
10
-43.765371804359731
20
-159.80384757729328
30
0
11
-46.765371804359731
21
-164.99999999999994
31
0
0
LINE
5
367
100
AcDbEntity
8
0
100
AcDbLine
10
-46.765371804359731
20
-164.99999999999994
30
0
11
-41.56921938165317
21
-168.00000000000006
31
0
0
LINE
5
368
100
AcDbEntity
8
0
100
AcDbLine
10
-41.56921938165317
20
-168.00000000000006
30
0
11
-38.569219381653141
21
-162.8038475772934
31
0
0
LINE
5
369
100
AcDbEntity
8
0
100
AcDbLine
10
-38.569219381653141
20
-162.8038475772934
30
0
11
-33.373066958946453
21
-165.80384757729334
31
0
0
LINE
5
370
100
AcDbEntity
8
0
100
AcDbLine
10
-33.373066958946453
20
-165.80384757729334
30
0
11
-36.373066958946474
21
-170.99999999999997
31
0
0
LINE
5
371
100
AcDbEntity
8
0
100
AcDbLine
10
-36.373066958946474
20
-170.99999999999997
30
0
11
-31.176914536239913
21
-174.00000000000006
31
0
0
LINE
5
372
100
AcDbEntity
8
0
100
AcDbLine
10
-31.176914536239913
20
-174.00000000000006
30
0
11
-28.176914536239863
21
-168.80384757729345
31
0
0
LINE
5
373
100
AcDbEntity
8
0
100
AcDbLine
10
-28.176914536239863
20
-168.80384757729345
30
0
11
-22.980762113533217
21
-171.80384757729331
31
0
0
LINE
5
374
100
AcDbEntity
8
0
100
AcDbLine
10
-22.980762113533217
20
-171.80384757729331
30
0
11
-25.980762113533238
21
-176.99999999999994
31
0
0
LINE
5
375
100
AcDbEntity
8
0
100
AcDbLine
10
-25.980762113533238
20
-176.99999999999994
30
0
11
-20.78460969082667
21
-180.00000000000003
31
0
0
LINE
5
376
100
AcDbEntity
8
0
100
AcDbLine
10
-20.78460969082667
20
-180.00000000000003
30
0
11
-17.784609690826628
21
-174.80384757729342
31
0
0
LINE
5
377
100
AcDbEntity
8
0
100
AcDbLine
10
-17.784609690826628
20
-174.80384757729342
30
0
11
-12.588457268119937
21
-177.80384757729331
31
0
0
LINE
5
378
100
AcDbEntity
8
0
100
AcDbLine
10
-12.588457268119937
20
-177.80384757729331
30
0
11
-15.588457268119962
21
-182.99999999999997
31
0
0
LINE
5
379
100
AcDbEntity
8
0
100
AcDbLine
10
-15.588457268119962
20
-182.99999999999997
30
0
11
-10.392304845413394
21
-186.00000000000006
31
0
0
LINE
5
380
100
AcDbEntity
8
0
100
AcDbLine
10
-10.392304845413394
20
-186.00000000000006
30
0
11
-7.3923048454133511
21
-180.80384757729342
31
0
0
LINE
5
381
100
AcDbEntity
8
0
100
AcDbLine
10
-7.3923048454133511
20
-180.80384757729342
30
0
11
-2.1961524227066764
21
-183.80384757729334
31
0
0
LINE
5
382
100
AcDbEntity
8
0
100
AcDbLine
10
-2.1961524227066764
20
-183.80384757729334
30
0
11
-5.1961524227067102
21
-189
31
0
0
LINE
5
383
100
AcDbEntity
8
0
100
AcDbLine
10
-5.1961524227067102
20
-189
30
0
11
-4.5519144009631418e-14
21
-192.00000000000006
31
0
0
LINE
5
384
100
AcDbEntity
8
0
100
AcDbLine
10
-4.5519144009631418e-14
20
-192.00000000000006
30
0
11
5.1961524227066214
21
-189.00000000000011
31
0
0
LINE
5
385
100
AcDbEntity
8
0
100
AcDbLine
10
5.1961524227066214
20
-189.00000000000011
30
0
11
2.1961524227065521
21
-183.80384757729354
31
0
0
LINE
5
386
100
AcDbEntity
8
0
100
AcDbLine
10
2.1961524227065521
20
-183.80384757729354
30
0
11
7.3923048454132267
21
-180.80384757729348
31
0
0
LINE
5
387
100
AcDbEntity
8
0
100
AcDbLine
10
7.3923048454132267
20
-180.80384757729348
30
0
11
10.392304845413181
21
-186
31
0
0
LINE
5
388
100
AcDbEntity
8
0
100
AcDbLine
10
10.392304845413181
20
-186
30
0
11
15.588457268119891
21
-183.00000000000011
31
0
0
LINE
5
389
100
AcDbEntity
8
0
100
AcDbLine
10
15.588457268119891
20
-183.00000000000011
30
0
11
12.588457268119821
21
-177.80384757729351
31
0
0
LINE
5
390
100
AcDbEntity
8
0
100
AcDbLine
10
12.588457268119821
20
-177.80384757729351
30
0
11
17.784609690826496
21
-174.80384757729348
31
0
0
LINE
5
391
100
AcDbEntity
8
0
100
AcDbLine
10
17.784609690826496
20
-174.80384757729348
30
0
11
20.78460969082645
21
-180.00000000000003
31
0
0
LINE
5
392
100
AcDbEntity
8
0
100
AcDbLine
10
20.78460969082645
20
-180.00000000000003
30
0
11
25.980762113533153
21
-177.00000000000011
31
0
0
LINE
5
393
100
AcDbEntity
8
0
100
AcDbLine
10
25.980762113533153
20
-177.00000000000011
30
0
11
22.980762113533082
21
-171.80384757729348
31
0
0
LINE
5
394
100
AcDbEntity
8
0
100
AcDbLine
10
22.980762113533082
20
-171.80384757729348
30
0
11
28.176914536239757
21
-168.80384757729348
31
0
0
LINE
5
395
100
AcDbEntity
8
0
100
AcDbLine
10
28.176914536239757
20
-168.80384757729348
30
0
11
31.17691453623971
21
-174.00000000000006
31
0
0
LINE
5
396
100
AcDbEntity
8
0
100
AcDbLine
10
31.17691453623971
20
-174.00000000000006
30
0
11
36.373066958946424
21
-171.00000000000011
31
0
0
LINE
5
397
100
AcDbEntity
8
0
100
AcDbLine
10
36.373066958946424
20
-171.00000000000011
30
0
11
33.373066958946353
21
-165.80384757729351
31
0
0
LINE
5
398
100
AcDbEntity
8
0
100
AcDbLine
10
33.373066958946353
20
-165.80384757729351
30
0
11
38.569219381653014
21
-162.80384757729351
31
0
0
LINE
5
399
100
AcDbEntity
8
0
100
AcDbLine
10
38.569219381653014
20
-162.80384757729351
30
0
11
41.569219381652971
21
-168.00000000000006
31
0
0
LINE
5
400
100
AcDbEntity
8
0
100
AcDbLine
10
41.569219381652971
20
-168.00000000000006
30
0
11
46.765371804359681
21
-165.00000000000011
31
0
0
LINE
5
401
100
AcDbEntity
8
0
100
AcDbLine
10
46.765371804359681
20
-165.00000000000011
30
0
11
43.765371804359617
21
-159.80384757729351
31
0
0
LINE
5
402
100
AcDbEntity
8
0
100
AcDbLine
10
43.765371804359617
20
-159.80384757729351
30
0
11
48.961524227066285
21
-156.80384757729348
31
0
0
LINE
5
403
100
AcDbEntity
8
0
100
AcDbLine
10
48.961524227066285
20
-156.80384757729348
30
0
11
51.961524227066242
21
-162.00000000000003
31
0
0
LINE
5
404
100
AcDbEntity
8
0
100
AcDbLine
10
51.961524227066242
20
-162.00000000000003
30
0
11
57.157676649772959
21
-159.00000000000011
31
0
0
LINE
5
405
100
AcDbEntity
8
0
100
AcDbLine
10
57.157676649772959
20
-159.00000000000011
30
0
11
54.157676649772881
21
-153.80384757729354
31
0
0
LINE
5
406
100
AcDbEntity
8
0
100
AcDbLine
10
54.157676649772881
20
-153.80384757729354
30
0
11
59.353829072479556
21
-150.80384757729351
31
0
0
LINE
5
407
100
AcDbEntity
8
0
100
AcDbLine
10
59.353829072479556
20
-150.80384757729351
30
0
11
62.353829072479513
21
-156.00000000000006
31
0
0
LINE
5
408
100
AcDbEntity
8
0
100
AcDbLine
10
62.353829072479513
20
-156.00000000000006
30
0
11
67.549981495186216
21
-153.00000000000011
31
0
0
LINE
5
409
100
AcDbEntity
8
0
100
AcDbLine
10
67.549981495186216
20
-153.00000000000011
30
0
11
64.549981495186145
21
-147.80384757729351
31
0
0
LINE
5
410
100
AcDbEntity
8
0
100
AcDbLine
10
64.549981495186145
20
-147.80384757729351
30
0
11
69.74613391789282
21
-144.80384757729348
31
0
0
LINE
5
411
100
AcDbEntity
8
0
100
AcDbLine
10
69.74613391789282
20
-144.80384757729348
30
0
11
72.746133917892777
21
-150.00000000000003
31
0
0
LINE
5
412
100
AcDbEntity
8
0
100
AcDbLine
10
72.746133917892777
20
-150.00000000000003
30
0
11
77.942286340599495
21
-147.00000000000011
31
0
0
LINE
5
413
100
AcDbEntity
8
0
100
AcDbLine
10
77.942286340599495
20
-147.00000000000011
30
0
11
74.942286340599424
21
-141.80384757729351
31
0
0
LINE
5
414
100
AcDbEntity
8
0
100
AcDbLine
10
74.942286340599424
20
-141.80384757729351
30
0
11
80.138438763306098
21
-138.80384757729348
31
0
0
LINE
5
415
100
AcDbEntity
8
0
100
AcDbLine
10
80.138438763306098
20
-138.80384757729348
30
0
11
83.138438763306056
21
-144.00000000000003
31
0
0
LINE
5
416
100
AcDbEntity
8
0
100
AcDbLine
10
83.138438763306056
20
-144.00000000000003
30
0
11
88.334591186012759
21
-141.00000000000011
31
0
0
LINE
5
417
100
AcDbEntity
8
0
100
AcDbLine
10
88.334591186012759
20
-141.00000000000011
30
0
11
85.334591186012702
21
-135.80384757729351
31
0
0
LINE
5
418
100
AcDbEntity
8
0
100
AcDbLine
10
85.334591186012702
20
-135.80384757729351
30
0
11
90.530743608719348
21
-132.80384757729348
31
0
0
LINE
5
419
100
AcDbEntity
8
0
100
AcDbLine
10
90.530743608719348
20
-132.80384757729348
30
0
11
93.530743608719305
21
-138.00000000000006
31
0
0
LINE
5
420
100
AcDbEntity
8
0
100
AcDbLine
10
93.530743608719305
20
-138.00000000000006
30
0
11
98.726896031426023
21
-135.00000000000011
31
0
0
LINE
5
421
100
AcDbEntity
8
0
100
AcDbLine
10
98.726896031426023
20
-135.00000000000011
30
0
11
95.726896031425937
21
-129.80384757729351
31
0
0
LINE
5
422
100
AcDbEntity
8
0
100
AcDbLine
10
95.726896031425937
20
-129.80384757729351
30
0
11
100.9230484541326
21
-126.8038475772935
31
0
0
LINE
5
423
100
AcDbEntity
8
0
100
AcDbLine
10
100.9230484541326
20
-126.8038475772935
30
0
11
103.92304845413257
21
-132.00000000000006
31
0
0
LINE
5
424
100
AcDbEntity
8
0
100
AcDbLine
10
103.92304845413257
20
-132.00000000000006
30
0
11
109.11920087683927
21
-129.00000000000011
31
0
0
LINE
5
425
100
AcDbEntity
8
0
100
AcDbLine
10
109.11920087683927
20
-129.00000000000011
30
0
11
106.1192008768392
21
-123.80384757729352
31
0
0
LINE
5
426
100
AcDbEntity
8
0
100
AcDbLine
10
106.1192008768392
20
-123.80384757729352
30
0
11
111.31535329954589
21
-120.8038475772935
31
0
0
LINE
5
427
100
AcDbEntity
8
0
100
AcDbLine
10
111.31535329954589
20
-120.8038475772935
30
0
11
114.31535329954585
21
-126.00000000000006
31
0
0
LINE
5
428
100
AcDbEntity
8
0
100
AcDbLine
10
114.31535329954585
20
-126.00000000000006
30
0
11
119.51150572225256
21
-123.00000000000011
31
0
0
LINE
5
429
100
AcDbEntity
8
0
100
AcDbLine
10
119.51150572225256
20
-123.00000000000011
30
0
11
116.51150572225249
21
-117.80384757729351
31
0
0
LINE
5
430
100
AcDbEntity
8
0
100
AcDbLine
10
116.51150572225249
20
-117.80384757729351
30
0
11
121.70765814495915
21
-114.80384757729351
31
0
0
LINE
5
431
100
AcDbEntity
8
0
100
AcDbLine
10
121.70765814495915
20
-114.80384757729351
30
0
11
124.70765814495911
21
-120.00000000000006
31
0
0
LINE
5
432
100
AcDbEntity
8
0
100
AcDbLine
10
124.70765814495911
20
-120.00000000000006
30
0
11
129.90381056766583
21
-117.00000000000011
31
0
0
LINE
5
433
100
AcDbEntity
8
0
100
AcDbLine
10
129.90381056766583
20
-117.00000000000011
30
0
11
126.90381056766576
21
-111.80384757729351
31
0
0
LINE
5
434
100
AcDbEntity
8
0
100
AcDbLine
10
126.90381056766576
20
-111.80384757729351
30
0
11
132.0999629903724
21
-108.80384757729351
31
0
0
LINE
5
435
100
AcDbEntity
8
0
100
AcDbLine
10
132.0999629903724
20
-108.80384757729351
30
0
11
135.09996299037238
21
-114.00000000000006
31
0
0
LINE
5
436
100
AcDbEntity
8
0
100
AcDbLine
10
135.09996299037238
20
-114.00000000000006
30
0
11
140.29611541307906
21
-111.00000000000011
31
0
0
LINE
5
437
100
AcDbEntity
8
0
100
AcDbLine
10
140.29611541307906
20
-111.00000000000011
30
0
11
137.29611541307901
21
-105.80384757729351
31
0
0
LINE
5
438
100
AcDbEntity
8
0
100
AcDbLine
10
137.29611541307901
20
-105.80384757729351
30
0
11
142.4922678357857
21
-102.8038475772935
31
0
0
LINE
5
439
100
AcDbEntity
8
0
100
AcDbLine
10
142.4922678357857
20
-102.8038475772935
30
0
11
145.49226783578564
21
-108.00000000000004
31
0
0
LINE
5
440
100
AcDbEntity
8
0
100
AcDbLine
10
145.49226783578564
20
-108.00000000000004
30
0
11
150.68842025849236
21
-105.00000000000011
31
0
0
LINE
5
441
100
AcDbEntity
8
0
100
AcDbLine
10
166.27687752661222
20
-96.000000000000085
30
0
11
166.27687752661222
21
-84.000000000000199
31
0
0
LINE
5
442
100
AcDbEntity
8
0
100
AcDbLine
10
166.27687752661222
20
-84.000000000000199
30
0
11
160.27687752661225
21
-84.000000000000171
31
0
0
LINE
5
443
100
AcDbEntity
8
0
100
AcDbLine
10
160.27687752661225
20
-84.000000000000171
30
0
11
160.27687752661211
21
-78.000000000000171
31
0
0
LINE
5
444
100
AcDbEntity
8
0
100
AcDbLine
10
160.27687752661211
20
-78.000000000000171
30
0
11
166.27687752661217
21
-78.000000000000213
31
0
0
LINE
5
445
100
AcDbEntity
8
0
100
AcDbLine
10
166.27687752661217
20
-78.000000000000213
30
0
11
166.27687752661228
21
-72.000000000000227
31
0
0
LINE
5
446
100
AcDbEntity
8
0
100
AcDbLine
10
15.588457268120033
20
183.00000000000011
30
0
11
12.588457268120088
21
177.80384757729342
31
0
0
LINE
5
447
100
AcDbEntity
8
0
100
AcDbLine
10
12.588457268120088
20
177.80384757729342
30
0
11
7.3923048454134221
21
180.80384757729345
31
0
0
LINE
5
448
100
AcDbEntity
8
0
100
AcDbLine
10
7.3923048454134221
20
180.80384757729345
30
0
11
10.392304845413376
21
186
31
0
0
LINE
5
449
100
AcDbEntity
8
0
100
AcDbLine
10
10.392304845413376
20
186
30
0
11
1.532107773982716e-13
21
192.00000000000011
31
0
0
LINE
5
450
100
AcDbEntity
8
0
100
AcDbLine
10
-10.392304845413163
20
186.00000000000009
30
0
11
-7.3923048454131735
21
180.80384757729342
31
0
0
LINE
5
451
100
AcDbEntity
8
0
100
AcDbLine
10
-7.3923048454131735
20
180.80384757729342
30
0
11
-12.588457268119795
21
177.80384757729342
31
0
0
LINE
5
452
100
AcDbEntity
8
0
100
AcDbLine
10
-12.588457268119795
20
177.80384757729342
30
0
11
-15.588457268119784
21
183.00000000000006
31
0
0
LINE
5
453
100
AcDbEntity
8
0
100
AcDbLine
10
-15.588457268119784
20
183.00000000000006
30
0
11
-20.784609690826443
21
180.00000000000006
31
0
0
LINE
5
454
100
AcDbEntity
8
0
100
AcDbLine
10
-166.27687752661234
20
-78.000000000000014
30
0
11
-160.27687752661234
21
-78.000000000000014
31
0
0
LINE
5
455
100
AcDbEntity
8
0
100
AcDbLine
10
-160.27687752661234
20
-78.000000000000014
30
0
11
-160.27687752661234
21
-84.000000000000028
31
0
0
LINE
5
456
100
AcDbEntity
8
0
100
AcDbLine
10
-160.27687752661234
20
-84.000000000000028
30
0
11
-166.27687752661234
21
-84.000000000000028
31
0
0
LINE
5
457
100
AcDbEntity
8
0
100
AcDbLine
10
-166.27687752661234
20
-84.000000000000028
30
0
11
-166.27687752661234
21
-95.999999999999972
31
0
0
LINE
5
458
100
AcDbEntity
8
0
100
AcDbLine
10
-155.8845726811991
20
-102
30
0
11
-152.88457268119907
21
-96.803847577293368
31
0
0
LINE
5
459
100
AcDbEntity
8
0
100
AcDbLine
10
-152.88457268119907
20
-96.803847577293368
30
0
11
-147.68842025849241
21
-99.80384757729324
31
0
0
LINE
5
460
100
AcDbEntity
8
0
100
AcDbLine
10
-147.68842025849241
20
-99.80384757729324
30
0
11
-150.68842025849244
21
-104.99999999999989
31
0
0
LINE
5
461
100
AcDbEntity
8
0
100
AcDbLine
10
-150.68842025849244
20
-104.99999999999989
30
0
11
-145.49226783578587
21
-107.99999999999997
31
0
0
LINE
5
462
100
AcDbEntity
8
0
100
AcDbLine
10
150.68842025849236
20
-105.00000000000011
30
0
11
147.68842025849233
21
-99.80384757729351
31
0
0
LINE
5
463
100
AcDbEntity
8
0
100
AcDbLine
10
147.68842025849233
20
-99.80384757729351
30
0
11
152.88457268119896
21
-96.803847577293496
31
0
0
LINE
5
464
100
AcDbEntity
8
0
100
AcDbLine
10
152.88457268119896
20
-96.803847577293496
30
0
11
155.88457268119893
21
-102.00000000000004
31
0
0
LINE
5
465
100
AcDbEntity
8
0
100
AcDbLine
10
155.88457268119893
20
-102.00000000000004
30
0
11
166.27687752661222
21
-96.000000000000085
31
0
0
ENDSEC
0
SECTION
2
OBJECTS
0
DICTIONARY
5
C
100
AcDbDictionary
3
ACAD_GROUP
350
D
3
ACAD_MLINESTYLE
350
17
0
DICTIONARY
5
D
100
AcDbDictionary
0
DICTIONARY
5
1A
330
C
100
AcDbDictionary
0
DICTIONARY
5
17
100
AcDbDictionary
0
ENDSEC
0
EOF
