<?xml version="1.0" encoding="utf-8" standalone="no"?>
<!DOCTYPE svg PUBLIC "-//W3C//DTD SVG 1.1//EN"
  "http://www.w3.org/Graphics/SVG/1.1/DTD/svg11.dtd">
<svg xmlns:xlink="http://www.w3.org/1999/xlink" width="486pt" height="243pt" viewBox="0 0 486 243" xmlns="http://www.w3.org/2000/svg" version="1.1">
 <metadata>
  <rdf:RDF xmlns:dc="http://purl.org/dc/elements/1.1/" xmlns:cc="http://creativecommons.org/ns#" xmlns:rdf="http://www.w3.org/1999/02/22-rdf-syntax-ns#">
   <cc:Work>
    <dc:type rdf:resource="http://purl.org/dc/dcmitype/StillImage"/>
    <dc:date>2022-07-27T15:58:21.464580</dc:date>
    <dc:format>image/svg+xml</dc:format>
    <dc:creator>
     <cc:Agent>
      <dc:title>Matplotlib v3.5.1, https://matplotlib.org/</dc:title>
     </cc:Agent>
    </dc:creator>
   </cc:Work>
  </rdf:RDF>
 </metadata>
 <defs>
  <style type="text/css">*{stroke-linejoin: round; stroke-linecap: butt}</style>
 </defs>
 <g id="figure_1">
  <g id="patch_1">
   <path d="M 0 243 
L 486 243 
L 486 0 
L 0 0 
z
" style="fill: #ffffff"/>
  </g>
  <g id="axes_1">
   <g id="patch_2">
    <path d="M 106.92 194.93532 
L 471.96 194.93532 
L 471.96 14.04 
L 106.92 14.04 
z
" style="fill: #ffffff"/>
   </g>
   <g id="matplotlib.axis_1">
    <g id="xtick_1">
     <g id="line2d_1">
      <defs>
       <path id="m9030f4eccf" d="M 0 0 
L 0 3.5 
" style="stroke: #000000; stroke-width: 0.8"/>
      </defs>
      <g>
       <use xlink:href="#m9030f4eccf" x="163.304156" y="194.93532" style="stroke: #000000; stroke-width: 0.8"/>
      </g>
     </g>
     <g id="text_1">
      <!-- $\mathdefault{10^{1}}$ -->
      <g transform="translate(154.633986 210.929348)scale(0.13 -0.13)">
       <defs>
        <path id="CMR17-31" d="M 1702 4083 
C 1702 4217 1696 4224 1606 4224 
C 1357 3927 979 3833 621 3820 
C 602 3820 570 3820 563 3808 
C 557 3795 557 3782 557 3648 
C 755 3648 1088 3686 1344 3839 
L 1344 467 
C 1344 243 1331 166 781 166 
L 589 166 
L 589 0 
C 896 6 1216 12 1523 12 
C 1830 12 2150 6 2458 0 
L 2458 166 
L 2266 166 
C 1715 166 1702 236 1702 467 
L 1702 4083 
z
" transform="scale(0.015625)"/>
        <path id="CMR17-30" d="M 2688 2038 
C 2688 2430 2682 3099 2413 3613 
C 2176 4063 1798 4224 1466 4224 
C 1158 4224 768 4082 525 3620 
C 269 3137 243 2539 243 2038 
C 243 1671 250 1112 448 623 
C 723 -39 1216 -128 1466 -128 
C 1760 -128 2208 -7 2470 604 
C 2662 1048 2688 1568 2688 2038 
z
M 1466 -26 
C 1056 -26 813 328 723 816 
C 653 1196 653 1749 653 2109 
C 653 2604 653 3015 736 3407 
C 858 3954 1216 4121 1466 4121 
C 1728 4121 2067 3947 2189 3420 
C 2272 3054 2278 2623 2278 2109 
C 2278 1691 2278 1176 2202 797 
C 2067 96 1690 -26 1466 -26 
z
" transform="scale(0.015625)"/>
       </defs>
       <use xlink:href="#CMR17-31" transform="scale(0.996264)"/>
       <use xlink:href="#CMR17-30" transform="translate(45.690477 0)scale(0.996264)"/>
       <use xlink:href="#CMR17-31" transform="translate(91.380954 36.153639)scale(0.697382)"/>
      </g>
     </g>
    </g>
    <g id="xtick_2">
     <g id="line2d_2">
      <g>
       <use xlink:href="#m9030f4eccf" x="427.672685" y="194.93532" style="stroke: #000000; stroke-width: 0.8"/>
      </g>
     </g>
     <g id="text_2">
      <!-- $\mathdefault{10^{2}}$ -->
      <g transform="translate(419.002515 210.929348)scale(0.13 -0.13)">
       <defs>
        <path id="CMR17-32" d="M 2669 990 
L 2554 990 
C 2490 537 2438 460 2413 422 
C 2381 371 1920 371 1830 371 
L 602 371 
C 832 620 1280 1073 1824 1596 
C 2214 1966 2669 2400 2669 3033 
C 2669 3788 2067 4224 1395 4224 
C 691 4224 262 3603 262 3027 
C 262 2777 448 2745 525 2745 
C 589 2745 781 2783 781 3007 
C 781 3206 614 3264 525 3264 
C 486 3264 448 3257 422 3244 
C 544 3788 915 4057 1306 4057 
C 1862 4057 2227 3616 2227 3033 
C 2227 2477 1901 1998 1536 1583 
L 262 147 
L 262 0 
L 2515 0 
L 2669 990 
z
" transform="scale(0.015625)"/>
       </defs>
       <use xlink:href="#CMR17-31" transform="scale(0.996264)"/>
       <use xlink:href="#CMR17-30" transform="translate(45.690477 0)scale(0.996264)"/>
       <use xlink:href="#CMR17-32" transform="translate(91.380954 36.153639)scale(0.697382)"/>
      </g>
     </g>
    </g>
    <g id="xtick_3">
     <g id="line2d_3">
      <defs>
       <path id="mf8b1b5d606" d="M 0 0 
L 0 2 
" style="stroke: #000000; stroke-width: 0.6"/>
      </defs>
      <g>
       <use xlink:href="#mf8b1b5d606" x="122.352953" y="194.93532" style="stroke: #000000; stroke-width: 0.6"/>
      </g>
     </g>
    </g>
    <g id="xtick_4">
     <g id="line2d_4">
      <g>
       <use xlink:href="#mf8b1b5d606" x="137.684198" y="194.93532" style="stroke: #000000; stroke-width: 0.6"/>
      </g>
     </g>
    </g>
    <g id="xtick_5">
     <g id="line2d_5">
      <g>
       <use xlink:href="#mf8b1b5d606" x="151.207315" y="194.93532" style="stroke: #000000; stroke-width: 0.6"/>
      </g>
     </g>
    </g>
    <g id="xtick_6">
     <g id="line2d_6">
      <g>
       <use xlink:href="#mf8b1b5d606" x="242.887013" y="194.93532" style="stroke: #000000; stroke-width: 0.6"/>
      </g>
     </g>
    </g>
    <g id="xtick_7">
     <g id="line2d_7">
      <g>
       <use xlink:href="#mf8b1b5d606" x="289.44" y="194.93532" style="stroke: #000000; stroke-width: 0.6"/>
      </g>
     </g>
    </g>
    <g id="xtick_8">
     <g id="line2d_8">
      <g>
       <use xlink:href="#mf8b1b5d606" x="322.46987" y="194.93532" style="stroke: #000000; stroke-width: 0.6"/>
      </g>
     </g>
    </g>
    <g id="xtick_9">
     <g id="line2d_9">
      <g>
       <use xlink:href="#mf8b1b5d606" x="348.089828" y="194.93532" style="stroke: #000000; stroke-width: 0.6"/>
      </g>
     </g>
    </g>
    <g id="xtick_10">
     <g id="line2d_10">
      <g>
       <use xlink:href="#mf8b1b5d606" x="369.022857" y="194.93532" style="stroke: #000000; stroke-width: 0.6"/>
      </g>
     </g>
    </g>
    <g id="xtick_11">
     <g id="line2d_11">
      <g>
       <use xlink:href="#mf8b1b5d606" x="386.721481" y="194.93532" style="stroke: #000000; stroke-width: 0.6"/>
      </g>
     </g>
    </g>
    <g id="xtick_12">
     <g id="line2d_12">
      <g>
       <use xlink:href="#mf8b1b5d606" x="402.052727" y="194.93532" style="stroke: #000000; stroke-width: 0.6"/>
      </g>
     </g>
    </g>
    <g id="xtick_13">
     <g id="line2d_13">
      <g>
       <use xlink:href="#mf8b1b5d606" x="415.575844" y="194.93532" style="stroke: #000000; stroke-width: 0.6"/>
      </g>
     </g>
    </g>
    <g id="text_3">
     <!-- System Size L -->
     <g transform="translate(250.39274 226.441688)scale(0.13 -0.13)">
      <defs>
       <path id="CMR17-53" d="M 2803 4351 
C 2803 4467 2797 4473 2758 4473 
C 2720 4473 2707 4447 2682 4390 
L 2490 3965 
C 2246 4320 1875 4480 1472 4480 
C 819 4480 294 3958 294 3301 
C 294 3101 339 2817 557 2546 
C 794 2250 1018 2198 1530 2063 
C 1722 2011 2042 1927 2106 1901 
C 2470 1747 2662 1360 2662 999 
C 2662 534 2336 38 1779 38 
C 1094 38 454 425 410 1328 
C 403 1431 397 1437 352 1437 
C 301 1437 294 1431 294 1302 
L 294 0 
C 294 -116 301 -122 339 -122 
C 384 -122 397 -90 486 109 
C 493 128 493 141 614 386 
C 934 -39 1472 -128 1779 -128 
C 2477 -128 2970 457 2970 1141 
C 2970 1476 2848 1734 2778 1850 
C 2509 2263 2221 2340 1914 2417 
C 1869 2437 1856 2437 1498 2527 
C 1152 2617 1005 2662 845 2836 
C 666 3036 602 3243 602 3449 
C 602 3868 934 4326 1478 4326 
C 2157 4326 2579 3842 2675 3036 
C 2694 2920 2701 2914 2746 2914 
C 2803 2914 2803 2933 2803 3043 
L 2803 4351 
z
" transform="scale(0.015625)"/>
       <path id="CMR17-79" d="M 2496 2183 
C 2656 2579 2944 2585 3034 2585 
L 3034 2752 
C 2912 2745 2752 2739 2630 2739 
C 2496 2739 2285 2739 2157 2752 
L 2157 2585 
C 2400 2566 2406 2384 2406 2332 
C 2406 2268 2394 2235 2362 2158 
L 1664 409 
L 902 2300 
C 870 2378 870 2423 870 2430 
C 870 2572 1018 2585 1171 2585 
L 1171 2752 
C 1018 2739 742 2739 582 2739 
C 410 2739 205 2739 64 2752 
L 64 2585 
C 410 2585 448 2553 531 2345 
L 1485 -31 
C 1197 -795 1030 -1242 627 -1242 
C 557 -1242 397 -1223 282 -1106 
C 429 -1093 493 -1002 493 -892 
C 493 -782 416 -685 288 -685 
C 147 -685 77 -782 77 -899 
C 77 -1158 339 -1344 627 -1344 
C 998 -1344 1229 -983 1357 -659 
L 2496 2183 
z
" transform="scale(0.015625)"/>
       <path id="CMR17-73" d="M 1978 2688 
C 1978 2803 1971 2809 1933 2809 
C 1907 2809 1901 2803 1824 2707 
C 1805 2681 1747 2617 1728 2592 
C 1523 2809 1235 2816 1126 2816 
C 416 2816 160 2444 160 2073 
C 160 1497 813 1363 998 1324 
C 1402 1241 1542 1216 1677 1100 
C 1760 1024 1901 883 1901 652 
C 1901 384 1747 38 1158 38 
C 602 38 403 460 288 1024 
C 269 1113 269 1120 218 1120 
C 166 1120 160 1113 160 985 
L 160 64 
C 160 -52 166 -58 205 -58 
C 237 -58 243 -52 275 0 
C 314 57 410 211 448 275 
C 576 102 800 -64 1158 -64 
C 1792 -64 2131 281 2131 780 
C 2131 1107 1958 1280 1875 1356 
C 1683 1555 1459 1600 1190 1651 
C 838 1728 390 1817 390 2208 
C 390 2374 480 2726 1126 2726 
C 1811 2726 1850 2086 1862 1881 
C 1869 1849 1901 1843 1920 1843 
C 1978 1843 1978 1862 1978 1971 
L 1978 2688 
z
" transform="scale(0.015625)"/>
       <path id="CMR17-74" d="M 966 2585 
L 1862 2585 
L 1862 2752 
L 966 2752 
L 966 3968 
L 851 3968 
C 838 3292 614 2700 70 2687 
L 70 2585 
L 627 2585 
L 627 778 
C 627 655 627 -64 1370 -64 
C 1747 -64 1965 308 1965 784 
L 1965 1151 
L 1850 1151 
L 1850 790 
C 1850 347 1677 51 1408 51 
C 1222 51 966 179 966 765 
L 966 2585 
z
" transform="scale(0.015625)"/>
       <path id="CMR17-65" d="M 2438 1503 
C 2464 1529 2464 1542 2464 1606 
C 2464 2251 2118 2816 1389 2816 
C 710 2816 173 2175 173 1394 
C 173 554 781 -64 1459 -64 
C 2176 -64 2458 619 2458 755 
C 2458 800 2419 800 2406 800 
C 2362 800 2355 787 2330 709 
C 2189 270 1837 51 1504 51 
C 1229 51 954 206 781 490 
C 582 819 582 1200 582 1503 
L 2438 1503 
z
M 589 1600 
C 634 2511 1126 2713 1382 2713 
C 1818 2713 2112 2308 2118 1600 
L 589 1600 
z
" transform="scale(0.015625)"/>
       <path id="CMR17-6d" d="M 4326 1954 
C 4326 2276 4269 2816 3507 2816 
C 3072 2816 2771 2520 2656 2173 
L 2650 2173 
C 2573 2700 2195 2816 1837 2816 
C 1331 2816 1069 2424 973 2166 
L 966 2166 
L 966 2816 
L 211 2745 
L 211 2578 
C 589 2578 646 2540 646 2231 
L 646 443 
C 646 198 621 166 211 166 
L 211 0 
C 365 12 646 12 813 12 
C 979 12 1267 12 1421 0 
L 1421 166 
C 1011 166 986 192 986 443 
L 986 1678 
C 986 2269 1344 2713 1792 2713 
C 2266 2713 2317 2289 2317 1980 
L 2317 443 
C 2317 198 2291 166 1882 166 
L 1882 0 
C 2035 12 2317 12 2483 12 
C 2650 12 2938 12 3091 0 
L 3091 166 
C 2682 166 2656 192 2656 443 
L 2656 1678 
C 2656 2269 3014 2713 3462 2713 
C 3936 2713 3987 2289 3987 1980 
L 3987 443 
C 3987 198 3962 166 3552 166 
L 3552 0 
C 3706 12 3987 12 4154 12 
C 4320 12 4608 12 4762 0 
L 4762 166 
C 4352 166 4326 192 4326 443 
L 4326 1954 
z
" transform="scale(0.015625)"/>
       <path id="CMR17-69" d="M 992 3961 
C 992 4102 877 4224 730 4224 
C 589 4224 467 4108 467 3961 
C 467 3820 582 3699 730 3699 
C 870 3699 992 3814 992 3961 
z
M 243 2745 
L 243 2579 
C 602 2579 653 2540 653 2231 
L 653 443 
C 653 198 627 166 218 166 
L 218 0 
C 371 12 646 12 806 12 
C 960 12 1222 12 1370 0 
L 1370 166 
C 992 166 979 205 979 436 
L 979 2816 
L 243 2745 
z
" transform="scale(0.015625)"/>
       <path id="CMR17-7a" d="M 2310 2604 
C 2362 2668 2362 2681 2362 2694 
C 2362 2752 2336 2752 2221 2752 
L 275 2752 
L 211 1760 
L 326 1760 
C 371 2380 442 2649 1178 2649 
L 1958 2649 
L 128 96 
C 128 6 134 0 269 0 
L 2291 0 
L 2381 1152 
L 2266 1152 
C 2214 441 2131 115 1350 115 
L 531 115 
L 2310 2604 
z
" transform="scale(0.015625)"/>
       <path id="CMR17-4c" d="M 3469 1612 
L 3354 1612 
C 3302 981 3219 166 2125 166 
L 1530 166 
C 1274 166 1261 198 1261 414 
L 1261 3892 
C 1261 4121 1274 4185 1760 4185 
L 1901 4185 
L 1901 4352 
C 1638 4339 1331 4339 1069 4339 
C 870 4339 512 4339 326 4352 
L 326 4185 
C 768 4185 838 4185 838 3898 
L 838 453 
C 838 166 768 166 326 166 
L 326 0 
L 3315 0 
L 3469 1612 
z
" transform="scale(0.015625)"/>
      </defs>
      <use xlink:href="#CMR17-53" transform="scale(0.996264)"/>
      <use xlink:href="#CMR17-79" transform="translate(50.89537 0)scale(0.996264)"/>
      <use xlink:href="#CMR17-73" transform="translate(99.188286 0)scale(0.996264)"/>
      <use xlink:href="#CMR17-74" transform="translate(134.989623 0)scale(0.996264)"/>
      <use xlink:href="#CMR17-65" transform="translate(170.270391 0)scale(0.996264)"/>
      <use xlink:href="#CMR17-6d" transform="translate(210.756052 0)scale(0.996264)"/>
      <use xlink:href="#CMR17-53" transform="translate(317.751608 0)scale(0.996264)"/>
      <use xlink:href="#CMR17-69" transform="translate(368.646978 0)scale(0.996264)"/>
      <use xlink:href="#CMR17-7a" transform="translate(393.518036 0)scale(0.996264)"/>
      <use xlink:href="#CMR17-65" transform="translate(434.003696 0)scale(0.996264)"/>
      <use xlink:href="#CMR17-4c" transform="translate(504.565323 0)scale(0.996264)"/>
     </g>
    </g>
   </g>
   <g id="matplotlib.axis_2">
    <g id="ytick_1">
     <g id="line2d_14">
      <defs>
       <path id="m1bf4edacef" d="M 0 0 
L -3.5 0 
" style="stroke: #000000; stroke-width: 0.8"/>
      </defs>
      <g>
       <use xlink:href="#m1bf4edacef" x="106.92" y="162.85925" style="stroke: #000000; stroke-width: 0.8"/>
      </g>
     </g>
     <g id="text_4">
      <!-- $\mathdefault{10^{-4}}$ -->
      <g transform="translate(75.332546 167.356264)scale(0.13 -0.13)">
       <defs>
        <path id="CMSY10-0" d="M 4218 1472 
C 4326 1472 4442 1472 4442 1600 
C 4442 1728 4326 1728 4218 1728 
L 755 1728 
C 646 1728 531 1728 531 1600 
C 531 1472 646 1472 755 1472 
L 4218 1472 
z
" transform="scale(0.015625)"/>
        <path id="CMR17-34" d="M 2150 4147 
C 2150 4281 2144 4288 2029 4288 
L 128 1254 
L 128 1088 
L 1779 1088 
L 1779 460 
C 1779 230 1766 166 1318 166 
L 1197 166 
L 1197 0 
C 1402 12 1747 12 1965 12 
C 2182 12 2528 12 2733 0 
L 2733 166 
L 2611 166 
C 2163 166 2150 230 2150 460 
L 2150 1088 
L 2803 1088 
L 2803 1254 
L 2150 1254 
L 2150 4147 
z
M 1798 3723 
L 1798 1254 
L 256 1254 
L 1798 3723 
z
" transform="scale(0.015625)"/>
       </defs>
       <use xlink:href="#CMR17-31" transform="scale(0.996264)"/>
       <use xlink:href="#CMR17-30" transform="translate(45.690477 0)scale(0.996264)"/>
       <use xlink:href="#CMSY10-0" transform="translate(91.380954 36.153639)scale(0.697382)"/>
       <use xlink:href="#CMR17-34" transform="translate(145.621947 36.153639)scale(0.697382)"/>
      </g>
     </g>
    </g>
    <g id="ytick_2">
     <g id="line2d_15">
      <g>
       <use xlink:href="#m1bf4edacef" x="106.92" y="118.512435" style="stroke: #000000; stroke-width: 0.8"/>
      </g>
     </g>
     <g id="text_5">
      <!-- $\mathdefault{10^{-3}}$ -->
      <g transform="translate(75.332546 123.00945)scale(0.13 -0.13)">
       <defs>
        <path id="CMR17-33" d="M 1414 2176 
C 1984 2176 2234 1673 2234 1094 
C 2234 322 1824 25 1453 25 
C 1114 25 563 193 390 691 
C 422 678 454 678 486 678 
C 640 678 755 780 755 947 
C 755 1132 614 1216 486 1216 
C 378 1216 211 1164 211 927 
C 211 335 787 -128 1466 -128 
C 2176 -128 2720 432 2720 1087 
C 2720 1718 2208 2176 1600 2246 
C 2086 2347 2554 2776 2554 3353 
C 2554 3856 2048 4224 1472 4224 
C 890 4224 378 3862 378 3347 
C 378 3123 544 3084 627 3084 
C 762 3084 877 3167 877 3334 
C 877 3500 762 3584 627 3584 
C 602 3584 570 3584 544 3571 
C 730 3999 1235 4076 1459 4076 
C 1683 4076 2106 3966 2106 3347 
C 2106 3167 2080 2851 1862 2574 
C 1670 2329 1453 2316 1242 2297 
C 1210 2297 1062 2284 1037 2284 
C 992 2278 966 2272 966 2227 
C 966 2182 973 2176 1101 2176 
L 1414 2176 
z
" transform="scale(0.015625)"/>
       </defs>
       <use xlink:href="#CMR17-31" transform="scale(0.996264)"/>
       <use xlink:href="#CMR17-30" transform="translate(45.690477 0)scale(0.996264)"/>
       <use xlink:href="#CMSY10-0" transform="translate(91.380954 36.153639)scale(0.697382)"/>
       <use xlink:href="#CMR17-33" transform="translate(145.621947 36.153639)scale(0.697382)"/>
      </g>
     </g>
    </g>
    <g id="ytick_3">
     <g id="line2d_16">
      <g>
       <use xlink:href="#m1bf4edacef" x="106.92" y="74.165621" style="stroke: #000000; stroke-width: 0.8"/>
      </g>
     </g>
     <g id="text_6">
      <!-- $\mathdefault{10^{-2}}$ -->
      <g transform="translate(75.332546 78.662635)scale(0.13 -0.13)">
       <use xlink:href="#CMR17-31" transform="scale(0.996264)"/>
       <use xlink:href="#CMR17-30" transform="translate(45.690477 0)scale(0.996264)"/>
       <use xlink:href="#CMSY10-0" transform="translate(91.380954 36.153639)scale(0.697382)"/>
       <use xlink:href="#CMR17-32" transform="translate(145.621947 36.153639)scale(0.697382)"/>
      </g>
     </g>
    </g>
    <g id="ytick_4">
     <g id="line2d_17">
      <g>
       <use xlink:href="#m1bf4edacef" x="106.92" y="29.818807" style="stroke: #000000; stroke-width: 0.8"/>
      </g>
     </g>
     <g id="text_7">
      <!-- $\mathdefault{10^{-1}}$ -->
      <g transform="translate(75.332546 34.315821)scale(0.13 -0.13)">
       <use xlink:href="#CMR17-31" transform="scale(0.996264)"/>
       <use xlink:href="#CMR17-30" transform="translate(45.690477 0)scale(0.996264)"/>
       <use xlink:href="#CMSY10-0" transform="translate(91.380954 36.153639)scale(0.697382)"/>
       <use xlink:href="#CMR17-31" transform="translate(145.621947 36.153639)scale(0.697382)"/>
      </g>
     </g>
    </g>
    <g id="ytick_5">
     <g id="line2d_18">
      <defs>
       <path id="m2451f8333c" d="M 0 0 
L -2 0 
" style="stroke: #000000; stroke-width: 0.6"/>
      </defs>
      <g>
       <use xlink:href="#m2451f8333c" x="106.92" y="193.856343" style="stroke: #000000; stroke-width: 0.6"/>
      </g>
     </g>
    </g>
    <g id="ytick_6">
     <g id="line2d_19">
      <g>
       <use xlink:href="#m2451f8333c" x="106.92" y="186.047256" style="stroke: #000000; stroke-width: 0.6"/>
      </g>
     </g>
    </g>
    <g id="ytick_7">
     <g id="line2d_20">
      <g>
       <use xlink:href="#m2451f8333c" x="106.92" y="180.506621" style="stroke: #000000; stroke-width: 0.6"/>
      </g>
     </g>
    </g>
    <g id="ytick_8">
     <g id="line2d_21">
      <g>
       <use xlink:href="#m2451f8333c" x="106.92" y="176.208971" style="stroke: #000000; stroke-width: 0.6"/>
      </g>
     </g>
    </g>
    <g id="ytick_9">
     <g id="line2d_22">
      <g>
       <use xlink:href="#m2451f8333c" x="106.92" y="172.697535" style="stroke: #000000; stroke-width: 0.6"/>
      </g>
     </g>
    </g>
    <g id="ytick_10">
     <g id="line2d_23">
      <g>
       <use xlink:href="#m2451f8333c" x="106.92" y="169.728658" style="stroke: #000000; stroke-width: 0.6"/>
      </g>
     </g>
    </g>
    <g id="ytick_11">
     <g id="line2d_24">
      <g>
       <use xlink:href="#m2451f8333c" x="106.92" y="167.1569" style="stroke: #000000; stroke-width: 0.6"/>
      </g>
     </g>
    </g>
    <g id="ytick_12">
     <g id="line2d_25">
      <g>
       <use xlink:href="#m2451f8333c" x="106.92" y="164.888449" style="stroke: #000000; stroke-width: 0.6"/>
      </g>
     </g>
    </g>
    <g id="ytick_13">
     <g id="line2d_26">
      <g>
       <use xlink:href="#m2451f8333c" x="106.92" y="149.509528" style="stroke: #000000; stroke-width: 0.6"/>
      </g>
     </g>
    </g>
    <g id="ytick_14">
     <g id="line2d_27">
      <g>
       <use xlink:href="#m2451f8333c" x="106.92" y="141.700442" style="stroke: #000000; stroke-width: 0.6"/>
      </g>
     </g>
    </g>
    <g id="ytick_15">
     <g id="line2d_28">
      <g>
       <use xlink:href="#m2451f8333c" x="106.92" y="136.159807" style="stroke: #000000; stroke-width: 0.6"/>
      </g>
     </g>
    </g>
    <g id="ytick_16">
     <g id="line2d_29">
      <g>
       <use xlink:href="#m2451f8333c" x="106.92" y="131.862157" style="stroke: #000000; stroke-width: 0.6"/>
      </g>
     </g>
    </g>
    <g id="ytick_17">
     <g id="line2d_30">
      <g>
       <use xlink:href="#m2451f8333c" x="106.92" y="128.350721" style="stroke: #000000; stroke-width: 0.6"/>
      </g>
     </g>
    </g>
    <g id="ytick_18">
     <g id="line2d_31">
      <g>
       <use xlink:href="#m2451f8333c" x="106.92" y="125.381844" style="stroke: #000000; stroke-width: 0.6"/>
      </g>
     </g>
    </g>
    <g id="ytick_19">
     <g id="line2d_32">
      <g>
       <use xlink:href="#m2451f8333c" x="106.92" y="122.810086" style="stroke: #000000; stroke-width: 0.6"/>
      </g>
     </g>
    </g>
    <g id="ytick_20">
     <g id="line2d_33">
      <g>
       <use xlink:href="#m2451f8333c" x="106.92" y="120.541634" style="stroke: #000000; stroke-width: 0.6"/>
      </g>
     </g>
    </g>
    <g id="ytick_21">
     <g id="line2d_34">
      <g>
       <use xlink:href="#m2451f8333c" x="106.92" y="105.162714" style="stroke: #000000; stroke-width: 0.6"/>
      </g>
     </g>
    </g>
    <g id="ytick_22">
     <g id="line2d_35">
      <g>
       <use xlink:href="#m2451f8333c" x="106.92" y="97.353628" style="stroke: #000000; stroke-width: 0.6"/>
      </g>
     </g>
    </g>
    <g id="ytick_23">
     <g id="line2d_36">
      <g>
       <use xlink:href="#m2451f8333c" x="106.92" y="91.812993" style="stroke: #000000; stroke-width: 0.6"/>
      </g>
     </g>
    </g>
    <g id="ytick_24">
     <g id="line2d_37">
      <g>
       <use xlink:href="#m2451f8333c" x="106.92" y="87.515343" style="stroke: #000000; stroke-width: 0.6"/>
      </g>
     </g>
    </g>
    <g id="ytick_25">
     <g id="line2d_38">
      <g>
       <use xlink:href="#m2451f8333c" x="106.92" y="84.003907" style="stroke: #000000; stroke-width: 0.6"/>
      </g>
     </g>
    </g>
    <g id="ytick_26">
     <g id="line2d_39">
      <g>
       <use xlink:href="#m2451f8333c" x="106.92" y="81.03503" style="stroke: #000000; stroke-width: 0.6"/>
      </g>
     </g>
    </g>
    <g id="ytick_27">
     <g id="line2d_40">
      <g>
       <use xlink:href="#m2451f8333c" x="106.92" y="78.463272" style="stroke: #000000; stroke-width: 0.6"/>
      </g>
     </g>
    </g>
    <g id="ytick_28">
     <g id="line2d_41">
      <g>
       <use xlink:href="#m2451f8333c" x="106.92" y="76.19482" style="stroke: #000000; stroke-width: 0.6"/>
      </g>
     </g>
    </g>
    <g id="ytick_29">
     <g id="line2d_42">
      <g>
       <use xlink:href="#m2451f8333c" x="106.92" y="60.8159" style="stroke: #000000; stroke-width: 0.6"/>
      </g>
     </g>
    </g>
    <g id="ytick_30">
     <g id="line2d_43">
      <g>
       <use xlink:href="#m2451f8333c" x="106.92" y="53.006814" style="stroke: #000000; stroke-width: 0.6"/>
      </g>
     </g>
    </g>
    <g id="ytick_31">
     <g id="line2d_44">
      <g>
       <use xlink:href="#m2451f8333c" x="106.92" y="47.466179" style="stroke: #000000; stroke-width: 0.6"/>
      </g>
     </g>
    </g>
    <g id="ytick_32">
     <g id="line2d_45">
      <g>
       <use xlink:href="#m2451f8333c" x="106.92" y="43.168528" style="stroke: #000000; stroke-width: 0.6"/>
      </g>
     </g>
    </g>
    <g id="ytick_33">
     <g id="line2d_46">
      <g>
       <use xlink:href="#m2451f8333c" x="106.92" y="39.657092" style="stroke: #000000; stroke-width: 0.6"/>
      </g>
     </g>
    </g>
    <g id="ytick_34">
     <g id="line2d_47">
      <g>
       <use xlink:href="#m2451f8333c" x="106.92" y="36.688215" style="stroke: #000000; stroke-width: 0.6"/>
      </g>
     </g>
    </g>
    <g id="ytick_35">
     <g id="line2d_48">
      <g>
       <use xlink:href="#m2451f8333c" x="106.92" y="34.116457" style="stroke: #000000; stroke-width: 0.6"/>
      </g>
     </g>
    </g>
    <g id="ytick_36">
     <g id="line2d_49">
      <g>
       <use xlink:href="#m2451f8333c" x="106.92" y="31.848006" style="stroke: #000000; stroke-width: 0.6"/>
      </g>
     </g>
    </g>
    <g id="ytick_37">
     <g id="line2d_50">
      <g>
       <use xlink:href="#m2451f8333c" x="106.92" y="16.469086" style="stroke: #000000; stroke-width: 0.6"/>
      </g>
     </g>
    </g>
    <g id="text_8">
     <!-- $\Delta_{\mathrm{f}}/J$ -->
     <g transform="translate(68.094688 118.474257)rotate(-90)scale(0.13 -0.13)">
      <defs>
       <path id="CMR17-1" d="M 2598 4435 
C 2547 4544 2522 4544 2470 4544 
C 2394 4544 2387 4531 2342 4441 
L 269 108 
C 262 96 237 38 237 32 
C 237 6 243 0 358 0 
L 4576 0 
C 4691 0 4698 6 4698 32 
C 4698 38 4672 96 4666 108 
L 2598 4435 
z
M 2310 4056 
L 4083 358 
L 531 358 
L 2310 4056 
z
" transform="scale(0.015625)"/>
       <path id="CMR17-66" d="M 979 2585 
L 1709 2585 
L 1709 2752 
L 966 2752 
L 966 3539 
C 966 4076 1235 4377 1510 4377 
C 1594 4377 1690 4363 1754 4339 
C 1702 4326 1568 4281 1568 4121 
C 1568 3955 1696 3904 1786 3904 
C 1875 3904 2003 3955 2003 4121 
C 2003 4353 1773 4480 1517 4480 
C 1152 4480 653 4211 653 3526 
L 653 2752 
L 141 2752 
L 141 2585 
L 653 2585 
L 653 441 
C 653 198 627 166 218 166 
L 218 0 
C 371 12 666 12 832 12 
C 1018 12 1344 12 1517 0 
L 1517 166 
C 1056 166 979 166 979 454 
L 979 2585 
z
" transform="scale(0.015625)"/>
       <path id="CMMI12-3d" d="M 2746 4563 
C 2746 4569 2784 4665 2784 4678 
C 2784 4755 2720 4800 2669 4800 
C 2637 4800 2579 4800 2528 4659 
L 384 -1364 
C 384 -1370 346 -1466 346 -1479 
C 346 -1556 410 -1600 461 -1600 
C 499 -1600 557 -1594 602 -1460 
L 2746 4563 
z
" transform="scale(0.015625)"/>
       <path id="CMMI12-4a" d="M 3418 3911 
C 3469 4102 3482 4166 3795 4166 
C 3898 4166 3962 4166 3962 4281 
C 3962 4352 3904 4352 3878 4352 
C 3770 4352 3648 4339 3533 4339 
L 3181 4339 
C 2912 4339 2630 4352 2362 4352 
C 2304 4352 2227 4352 2227 4236 
C 2227 4172 2278 4172 2278 4166 
L 2438 4166 
C 2950 4166 2950 4115 2950 4019 
C 2950 4013 2950 3968 2925 3866 
L 2189 953 
C 2022 304 1594 0 1286 0 
C 1069 0 762 99 685 428 
C 710 422 742 415 768 415 
C 979 415 1146 601 1146 787 
C 1146 889 1082 1024 890 1024 
C 774 1024 506 959 506 543 
C 506 149 838 -128 1299 -128 
C 1882 -128 2509 304 2662 908 
L 3418 3911 
z
" transform="scale(0.015625)"/>
      </defs>
      <use xlink:href="#CMR17-1" transform="scale(0.996264)"/>
      <use xlink:href="#CMR17-66" transform="translate(76.91959 -14.943915)scale(0.697382)"/>
      <use xlink:href="#CMMI12-3d" transform="translate(100.782922 0)scale(0.996264)"/>
      <use xlink:href="#CMMI12-4a" transform="translate(149.557841 0)scale(0.996264)"/>
     </g>
    </g>
   </g>
   <g id="line2d_51">
    <path d="M 123.512727 27.252966 
L 455.367273 32.66397 
" clip-path="url(#p154c5b77ce)" style="fill: none; stroke: #57106e; stroke-width: 1.5; stroke-linecap: square"/>
   </g>
   <g id="LineCollection_1">
    <path d="M 123.512727 25.508651 
L 123.512727 22.262515 
" clip-path="url(#p154c5b77ce)" style="fill: none; stroke: #57106e; stroke-width: 1.5"/>
    <path d="M 203.095584 28.484482 
L 203.095584 27.193118 
" clip-path="url(#p154c5b77ce)" style="fill: none; stroke: #57106e; stroke-width: 1.5"/>
    <path d="M 249.648571 29.567305 
L 249.648571 28.659214 
" clip-path="url(#p154c5b77ce)" style="fill: none; stroke: #57106e; stroke-width: 1.5"/>
    <path d="M 282.678441 30.706365 
L 282.678441 29.483729 
" clip-path="url(#p154c5b77ce)" style="fill: none; stroke: #57106e; stroke-width: 1.5"/>
    <path d="M 308.298399 31.07518 
L 308.298399 30.172148 
" clip-path="url(#p154c5b77ce)" style="fill: none; stroke: #57106e; stroke-width: 1.5"/>
    <path d="M 329.231429 31.337229 
L 329.231429 30.513682 
" clip-path="url(#p154c5b77ce)" style="fill: none; stroke: #57106e; stroke-width: 1.5"/>
    <path d="M 346.930053 31.775528 
L 346.930053 30.898101 
" clip-path="url(#p154c5b77ce)" style="fill: none; stroke: #57106e; stroke-width: 1.5"/>
    <path d="M 362.261299 31.806022 
L 362.261299 30.9752 
" clip-path="url(#p154c5b77ce)" style="fill: none; stroke: #57106e; stroke-width: 1.5"/>
    <path d="M 375.784416 31.688719 
L 375.784416 30.962945 
" clip-path="url(#p154c5b77ce)" style="fill: none; stroke: #57106e; stroke-width: 1.5"/>
    <path d="M 387.881256 33.289326 
L 387.881256 30.780617 
" clip-path="url(#p154c5b77ce)" style="fill: none; stroke: #57106e; stroke-width: 1.5"/>
    <path d="M 398.824179 33.546418 
L 398.824179 30.87899 
" clip-path="url(#p154c5b77ce)" style="fill: none; stroke: #57106e; stroke-width: 1.5"/>
    <path d="M 408.814286 32.245777 
L 408.814286 31.601362 
" clip-path="url(#p154c5b77ce)" style="fill: none; stroke: #57106e; stroke-width: 1.5"/>
    <path d="M 418.004293 32.25586 
L 418.004293 31.532475 
" clip-path="url(#p154c5b77ce)" style="fill: none; stroke: #57106e; stroke-width: 1.5"/>
    <path d="M 426.51291 33.731938 
L 426.51291 31.192693 
" clip-path="url(#p154c5b77ce)" style="fill: none; stroke: #57106e; stroke-width: 1.5"/>
    <path d="M 434.434243 33.539911 
L 434.434243 31.064995 
" clip-path="url(#p154c5b77ce)" style="fill: none; stroke: #57106e; stroke-width: 1.5"/>
    <path d="M 441.844156 33.627956 
L 441.844156 31.144044 
" clip-path="url(#p154c5b77ce)" style="fill: none; stroke: #57106e; stroke-width: 1.5"/>
    <path d="M 448.804698 32.482675 
L 448.804698 31.819954 
" clip-path="url(#p154c5b77ce)" style="fill: none; stroke: #57106e; stroke-width: 1.5"/>
    <path d="M 455.367273 34.005337 
L 455.367273 31.311644 
" clip-path="url(#p154c5b77ce)" style="fill: none; stroke: #57106e; stroke-width: 1.5"/>
   </g>
   <g id="line2d_52">
    <path d="M 123.512727 57.625422 
L 455.367273 180.802817 
" clip-path="url(#p154c5b77ce)" style="fill: none; stroke: #f98e09; stroke-width: 1.5; stroke-linecap: square"/>
   </g>
   <g id="LineCollection_2">
    <path d="M 123.512727 63.091445 
L 123.512727 51.158699 
" clip-path="url(#p154c5b77ce)" style="fill: none; stroke: #f98e09; stroke-width: 1.5"/>
    <path d="M 203.095584 91.555702 
L 203.095584 79.983042 
" clip-path="url(#p154c5b77ce)" style="fill: none; stroke: #f98e09; stroke-width: 1.5"/>
    <path d="M 249.648571 115.232629 
L 249.648571 100.089644 
" clip-path="url(#p154c5b77ce)" style="fill: none; stroke: #f98e09; stroke-width: 1.5"/>
    <path d="M 282.678441 126.671618 
L 282.678441 112.924034 
" clip-path="url(#p154c5b77ce)" style="fill: none; stroke: #f98e09; stroke-width: 1.5"/>
    <path d="M 308.298399 136.5227 
L 308.298399 123.848561 
" clip-path="url(#p154c5b77ce)" style="fill: none; stroke: #f98e09; stroke-width: 1.5"/>
    <path d="M 329.231429 142.254724 
L 329.231429 128.473888 
" clip-path="url(#p154c5b77ce)" style="fill: none; stroke: #f98e09; stroke-width: 1.5"/>
    <path d="M 346.930053 152.112175 
L 346.930053 138.135133 
" clip-path="url(#p154c5b77ce)" style="fill: none; stroke: #f98e09; stroke-width: 1.5"/>
    <path d="M 362.261299 153.140239 
L 362.261299 140.454759 
" clip-path="url(#p154c5b77ce)" style="fill: none; stroke: #f98e09; stroke-width: 1.5"/>
    <path d="M 375.784416 152.488311 
L 375.784416 141.446022 
" clip-path="url(#p154c5b77ce)" style="fill: none; stroke: #f98e09; stroke-width: 1.5"/>
    <path d="M 387.881256 162.965379 
L 387.881256 148.802996 
" clip-path="url(#p154c5b77ce)" style="fill: none; stroke: #f98e09; stroke-width: 1.5"/>
    <path d="M 398.824179 165.121305 
L 398.824179 151.884223 
" clip-path="url(#p154c5b77ce)" style="fill: none; stroke: #f98e09; stroke-width: 1.5"/>
    <path d="M 408.814286 174.330782 
L 408.814286 158.272449 
" clip-path="url(#p154c5b77ce)" style="fill: none; stroke: #f98e09; stroke-width: 1.5"/>
    <path d="M 418.004293 172.090043 
L 418.004293 157.872455 
" clip-path="url(#p154c5b77ce)" style="fill: none; stroke: #f98e09; stroke-width: 1.5"/>
    <path d="M 426.51291 177.824034 
L 426.51291 163.120623 
" clip-path="url(#p154c5b77ce)" style="fill: none; stroke: #f98e09; stroke-width: 1.5"/>
    <path d="M 434.434243 184.203586 
L 434.434243 169.979396 
" clip-path="url(#p154c5b77ce)" style="fill: none; stroke: #f98e09; stroke-width: 1.5"/>
    <path d="M 441.844156 183.814542 
L 441.844156 170.790107 
" clip-path="url(#p154c5b77ce)" style="fill: none; stroke: #f98e09; stroke-width: 1.5"/>
    <path d="M 448.804698 185.581816 
L 448.804698 174.078911 
" clip-path="url(#p154c5b77ce)" style="fill: none; stroke: #f98e09; stroke-width: 1.5"/>
    <path d="M 455.367273 186.712805 
L 455.367273 172.655112 
" clip-path="url(#p154c5b77ce)" style="fill: none; stroke: #f98e09; stroke-width: 1.5"/>
   </g>
   <g id="line2d_53">
    <defs>
     <path id="m2d6599c10e" d="M 0 1.5 
C 0.397805 1.5 0.77937 1.341951 1.06066 1.06066 
C 1.341951 0.77937 1.5 0.397805 1.5 0 
C 1.5 -0.397805 1.341951 -0.77937 1.06066 -1.06066 
C 0.77937 -1.341951 0.397805 -1.5 0 -1.5 
C -0.397805 -1.5 -0.77937 -1.341951 -1.06066 -1.06066 
C -1.341951 -0.77937 -1.5 -0.397805 -1.5 0 
C -1.5 0.397805 -1.341951 0.77937 -1.06066 1.06066 
C -0.77937 1.341951 -0.397805 1.5 0 1.5 
z
" style="stroke: #57106e"/>
    </defs>
    <g clip-path="url(#p154c5b77ce)">
     <use xlink:href="#m2d6599c10e" x="123.512727" y="23.817273" style="fill: #57106e; stroke: #57106e"/>
     <use xlink:href="#m2d6599c10e" x="203.095584" y="27.827979" style="fill: #57106e; stroke: #57106e"/>
     <use xlink:href="#m2d6599c10e" x="249.648571" y="29.107908" style="fill: #57106e; stroke: #57106e"/>
     <use xlink:href="#m2d6599c10e" x="282.678441" y="30.085346" style="fill: #57106e; stroke: #57106e"/>
     <use xlink:href="#m2d6599c10e" x="308.298399" y="30.618372" style="fill: #57106e; stroke: #57106e"/>
     <use xlink:href="#m2d6599c10e" x="329.231429" y="30.921054" style="fill: #57106e; stroke: #57106e"/>
     <use xlink:href="#m2d6599c10e" x="346.930053" y="31.331818" style="fill: #57106e; stroke: #57106e"/>
     <use xlink:href="#m2d6599c10e" x="362.261299" y="31.386131" style="fill: #57106e; stroke: #57106e"/>
     <use xlink:href="#m2d6599c10e" x="375.784416" y="31.322413" style="fill: #57106e; stroke: #57106e"/>
     <use xlink:href="#m2d6599c10e" x="387.881256" y="31.994153" style="fill: #57106e; stroke: #57106e"/>
     <use xlink:href="#m2d6599c10e" x="398.824179" y="32.166561" style="fill: #57106e; stroke: #57106e"/>
     <use xlink:href="#m2d6599c10e" x="408.814286" y="31.920875" style="fill: #57106e; stroke: #57106e"/>
     <use xlink:href="#m2d6599c10e" x="418.004293" y="31.890772" style="fill: #57106e; stroke: #57106e"/>
     <use xlink:href="#m2d6599c10e" x="426.51291" y="32.420498" style="fill: #57106e; stroke: #57106e"/>
     <use xlink:href="#m2d6599c10e" x="434.434243" y="32.262726" style="fill: #57106e; stroke: #57106e"/>
     <use xlink:href="#m2d6599c10e" x="441.844156" y="32.345984" style="fill: #57106e; stroke: #57106e"/>
     <use xlink:href="#m2d6599c10e" x="448.804698" y="32.148464" style="fill: #57106e; stroke: #57106e"/>
     <use xlink:href="#m2d6599c10e" x="455.367273" y="32.611436" style="fill: #57106e; stroke: #57106e"/>
    </g>
   </g>
   <g id="line2d_54">
    <defs>
     <path id="m5d5288ddd4" d="M 0 1.5 
C 0.397805 1.5 0.77937 1.341951 1.06066 1.06066 
C 1.341951 0.77937 1.5 0.397805 1.5 0 
C 1.5 -0.397805 1.341951 -0.77937 1.06066 -1.06066 
C 0.77937 -1.341951 0.397805 -1.5 0 -1.5 
C -0.397805 -1.5 -0.77937 -1.341951 -1.06066 -1.06066 
C -1.341951 -0.77937 -1.5 -0.397805 -1.5 0 
C -1.5 0.397805 -1.341951 0.77937 -1.06066 1.06066 
C -0.77937 1.341951 -0.397805 1.5 0 1.5 
z
" style="stroke: #f98e09"/>
    </defs>
    <g clip-path="url(#p154c5b77ce)">
     <use xlink:href="#m5d5288ddd4" x="123.512727" y="56.215332" style="fill: #f98e09; stroke: #f98e09"/>
     <use xlink:href="#m5d5288ddd4" x="203.095584" y="84.912922" style="fill: #f98e09; stroke: #f98e09"/>
     <use xlink:href="#m5d5288ddd4" x="249.648571" y="106.209677" style="fill: #f98e09; stroke: #f98e09"/>
     <use xlink:href="#m5d5288ddd4" x="282.678441" y="118.596379" style="fill: #f98e09; stroke: #f98e09"/>
     <use xlink:href="#m5d5288ddd4" x="308.298399" y="129.161359" style="fill: #f98e09; stroke: #f98e09"/>
     <use xlink:href="#m5d5288ddd4" x="329.231429" y="134.157158" style="fill: #f98e09; stroke: #f98e09"/>
     <use xlink:href="#m5d5288ddd4" x="346.930053" y="143.882613" style="fill: #f98e09; stroke: #f98e09"/>
     <use xlink:href="#m5d5288ddd4" x="362.261299" y="145.771425" style="fill: #f98e09; stroke: #f98e09"/>
     <use xlink:href="#m5d5288ddd4" x="375.784416" y="146.186401" style="fill: #f98e09; stroke: #f98e09"/>
     <use xlink:href="#m5d5288ddd4" x="387.881256" y="154.610726" style="fill: #f98e09; stroke: #f98e09"/>
     <use xlink:href="#m5d5288ddd4" x="398.824179" y="157.387239" style="fill: #f98e09; stroke: #f98e09"/>
     <use xlink:href="#m5d5288ddd4" x="408.814286" y="164.674312" style="fill: #f98e09; stroke: #f98e09"/>
     <use xlink:href="#m5d5288ddd4" x="418.004293" y="163.698055" style="fill: #f98e09; stroke: #f98e09"/>
     <use xlink:href="#m5d5288ddd4" x="426.51291" y="169.102" style="fill: #f98e09; stroke: #f98e09"/>
     <use xlink:href="#m5d5288ddd4" x="434.434243" y="175.807131" style="fill: #f98e09; stroke: #f98e09"/>
     <use xlink:href="#m5d5288ddd4" x="441.844156" y="176.221701" style="fill: #f98e09; stroke: #f98e09"/>
     <use xlink:href="#m5d5288ddd4" x="448.804698" y="178.984059" style="fill: #f98e09; stroke: #f98e09"/>
     <use xlink:href="#m5d5288ddd4" x="455.367273" y="178.428858" style="fill: #f98e09; stroke: #f98e09"/>
    </g>
   </g>
   <g id="patch_3">
    <path d="M 106.92 194.93532 
L 106.92 14.04 
" style="fill: none; stroke: #000000; stroke-width: 0.8; stroke-linejoin: miter; stroke-linecap: square"/>
   </g>
   <g id="patch_4">
    <path d="M 471.96 194.93532 
L 471.96 14.04 
" style="fill: none; stroke: #000000; stroke-width: 0.8; stroke-linejoin: miter; stroke-linecap: square"/>
   </g>
   <g id="patch_5">
    <path d="M 106.92 194.93532 
L 471.96 194.93532 
" style="fill: none; stroke: #000000; stroke-width: 0.8; stroke-linejoin: miter; stroke-linecap: square"/>
   </g>
   <g id="patch_6">
    <path d="M 106.92 14.04 
L 471.96 14.04 
" style="fill: none; stroke: #000000; stroke-width: 0.8; stroke-linejoin: miter; stroke-linecap: square"/>
   </g>
   <g id="legend_1">
    <g id="LineCollection_3">
     <path d="M 131.62 164.548695 
L 131.62 151.548695 
" style="fill: none; stroke: #57106e; stroke-width: 1.5"/>
    </g>
    <g id="line2d_55"/>
    <g id="line2d_56">
     <g>
      <use xlink:href="#m2d6599c10e" x="131.62" y="158.048695" style="fill: #57106e; stroke: #57106e"/>
     </g>
    </g>
    <g id="text_9">
     <!-- Ground State -->
     <g transform="translate(155.02 162.598695)scale(0.13 -0.13)">
      <defs>
       <path id="CMR17-47" d="M 3974 1258 
C 3974 1503 3994 1536 4390 1536 
L 4390 1702 
C 4237 1689 3891 1689 3718 1689 
C 3539 1689 3040 1696 2797 1702 
L 2797 1536 
L 2989 1536 
C 3539 1536 3552 1464 3552 1232 
L 3552 806 
C 3552 96 2720 38 2522 38 
C 1862 38 781 496 781 2179 
C 781 3862 1843 4313 2464 4313 
C 3187 4313 3712 3681 3834 2785 
C 3846 2708 3846 2695 3904 2695 
C 3974 2695 3974 2708 3974 2824 
L 3974 4351 
C 3974 4467 3968 4473 3930 4473 
C 3904 4473 3898 4467 3853 4390 
L 3571 3849 
C 3258 4249 2874 4480 2381 4480 
C 1286 4480 294 3507 294 2179 
C 294 858 1267 -128 2394 -128 
C 2912 -128 3418 57 3616 425 
C 3725 161 3904 -20 3936 -20 
C 3968 -20 3974 -13 3974 102 
L 3974 1258 
z
" transform="scale(0.015625)"/>
       <path id="CMR17-72" d="M 960 1517 
C 960 2134 1222 2713 1702 2713 
C 1747 2713 1792 2707 1837 2687 
C 1837 2687 1696 2642 1696 2475 
C 1696 2321 1818 2257 1914 2257 
C 1990 2257 2131 2302 2131 2482 
C 2131 2687 1926 2816 1709 2816 
C 1222 2816 1011 2340 947 2115 
L 941 2115 
L 941 2816 
L 198 2745 
L 198 2578 
C 576 2578 634 2540 634 2231 
L 634 443 
C 634 198 608 166 198 166 
L 198 0 
C 352 12 646 12 813 12 
C 998 12 1325 12 1498 0 
L 1498 166 
C 1037 166 960 166 960 455 
L 960 1517 
z
" transform="scale(0.015625)"/>
       <path id="CMR17-6f" d="M 2758 1356 
C 2758 2176 2163 2816 1466 2816 
C 768 2816 173 2176 173 1356 
C 173 550 768 -64 1466 -64 
C 2163 -64 2758 550 2758 1356 
z
M 1466 51 
C 1165 51 909 230 762 480 
C 602 768 582 1126 582 1408 
C 582 1676 595 2009 762 2297 
C 890 2508 1139 2713 1466 2713 
C 1754 2713 1997 2553 2150 2329 
C 2349 2028 2349 1606 2349 1408 
C 2349 1158 2336 774 2163 467 
C 1984 172 1709 51 1466 51 
z
" transform="scale(0.015625)"/>
       <path id="CMR17-75" d="M 1882 2745 
L 1882 2579 
C 2259 2579 2317 2540 2317 2229 
L 2317 1053 
C 2317 510 2029 38 1555 38 
C 1030 38 986 355 986 691 
L 986 2816 
L 211 2745 
L 211 2579 
C 467 2579 640 2579 646 2320 
L 646 1079 
C 646 646 646 368 813 187 
C 896 103 1056 -64 1517 -64 
C 2061 -64 2272 400 2323 536 
L 2330 536 
L 2330 -64 
L 3091 -13 
L 3091 154 
C 2714 154 2656 193 2656 503 
L 2656 2816 
L 1882 2745 
z
" transform="scale(0.015625)"/>
       <path id="CMR17-6e" d="M 2656 1954 
C 2656 2282 2592 2816 1837 2816 
C 1331 2816 1069 2424 973 2166 
L 966 2166 
L 966 2816 
L 211 2745 
L 211 2578 
C 589 2578 646 2540 646 2231 
L 646 443 
C 646 198 621 166 211 166 
L 211 0 
C 365 12 646 12 813 12 
C 979 12 1267 12 1421 0 
L 1421 166 
C 1011 166 986 192 986 443 
L 986 1678 
C 986 2269 1344 2713 1792 2713 
C 2266 2713 2317 2289 2317 1980 
L 2317 443 
C 2317 198 2291 166 1882 166 
L 1882 0 
C 2035 12 2317 12 2483 12 
C 2650 12 2938 12 3091 0 
L 3091 166 
C 2682 166 2656 192 2656 443 
L 2656 1954 
z
" transform="scale(0.015625)"/>
       <path id="CMR17-64" d="M 1869 4345 
L 1869 4179 
C 2246 4179 2304 4141 2304 3843 
L 2304 2371 
C 2278 2403 2016 2816 1498 2816 
C 845 2816 211 2228 211 1376 
C 211 529 806 -64 1434 -64 
C 1978 -64 2259 361 2291 406 
L 2291 -64 
L 3066 -13 
L 3066 154 
C 2688 154 2630 193 2630 503 
L 2630 4416 
L 1869 4345 
z
M 2291 762 
C 2291 568 2176 393 2029 264 
C 1811 70 1594 38 1472 38 
C 1286 38 621 135 621 1369 
C 621 2636 1363 2713 1530 2713 
C 1824 2713 2061 2545 2208 2313 
C 2291 2177 2291 2157 2291 2041 
L 2291 762 
z
" transform="scale(0.015625)"/>
       <path id="CMR17-61" d="M 2304 1656 
C 2304 2048 2304 2275 2035 2534 
C 1798 2751 1523 2816 1306 2816 
C 800 2816 435 2408 435 1977 
C 435 1740 627 1728 666 1728 
C 749 1728 896 1779 896 1958 
C 896 2118 774 2188 666 2188 
C 640 2188 608 2182 589 2176 
C 723 2594 1069 2713 1293 2713 
C 1613 2713 1965 2421 1965 1875 
L 1965 1632 
C 1587 1619 1133 1568 774 1373 
C 371 1147 256 822 256 576 
C 256 77 832 -64 1171 -64 
C 1523 -64 1850 135 1990 505 
C 2003 219 2182 -39 2464 -39 
C 2598 -39 2938 51 2938 563 
L 2938 926 
L 2822 926 
L 2822 557 
C 2822 161 2650 109 2566 109 
C 2304 109 2304 446 2304 732 
L 2304 1656 
z
M 1965 887 
C 1965 323 1568 38 1216 38 
C 896 38 646 278 646 576 
C 646 771 730 1114 1101 1322 
C 1408 1497 1760 1523 1965 1536 
L 1965 887 
z
" transform="scale(0.015625)"/>
      </defs>
      <use xlink:href="#CMR17-47" transform="scale(0.996264)"/>
      <use xlink:href="#CMR17-72" transform="translate(72.355346 0)scale(0.996264)"/>
      <use xlink:href="#CMR17-6f" transform="translate(107.636114 0)scale(0.996264)"/>
      <use xlink:href="#CMR17-75" transform="translate(153.326591 0)scale(0.996264)"/>
      <use xlink:href="#CMR17-6e" transform="translate(204.221961 0)scale(0.996264)"/>
      <use xlink:href="#CMR17-64" transform="translate(255.11733 0)scale(0.996264)"/>
      <use xlink:href="#CMR17-53" transform="translate(336.088667 0)scale(0.996264)"/>
      <use xlink:href="#CMR17-74" transform="translate(386.984036 0)scale(0.996264)"/>
      <use xlink:href="#CMR17-61" transform="translate(422.264804 0)scale(0.996264)"/>
      <use xlink:href="#CMR17-74" transform="translate(467.955281 0)scale(0.996264)"/>
      <use xlink:href="#CMR17-65" transform="translate(503.236049 0)scale(0.996264)"/>
     </g>
    </g>
    <g id="LineCollection_4">
     <path d="M 131.62 182.667008 
L 131.62 169.667008 
" style="fill: none; stroke: #f98e09; stroke-width: 1.5"/>
    </g>
    <g id="line2d_57"/>
    <g id="line2d_58">
     <g>
      <use xlink:href="#m5d5288ddd4" x="131.62" y="176.167008" style="fill: #f98e09; stroke: #f98e09"/>
     </g>
    </g>
    <g id="text_10">
     <!-- Random Flux Sector -->
     <g transform="translate(155.02 180.717008)scale(0.13 -0.13)">
      <defs>
       <path id="CMR17-52" d="M 2509 2156 
C 3117 2278 3629 2689 3629 3203 
C 3629 3806 2950 4352 2054 4352 
L 333 4352 
L 333 4185 
C 774 4185 845 4185 845 3896 
L 845 428 
C 845 140 774 140 333 140 
L 333 -26 
C 518 -13 851 -13 1050 -13 
C 1248 -13 1581 -13 1766 -26 
L 1766 140 
C 1325 140 1254 140 1254 428 
L 1254 2112 
L 2003 2112 
C 2368 2112 2573 1964 2662 1881 
C 2918 1632 2918 1459 2918 1024 
C 2918 595 2918 377 3110 160 
C 3354 -103 3680 -128 3821 -128 
C 4294 -128 4365 403 4365 512 
C 4365 550 4365 595 4307 595 
C 4256 595 4250 556 4250 531 
C 4218 115 4032 -26 3834 -26 
C 3482 -26 3443 377 3405 768 
C 3386 902 3373 998 3360 1139 
C 3322 1459 3270 1926 2509 2156 
z
M 1984 2214 
L 1254 2214 
L 1254 3935 
C 1254 4153 1267 4185 1523 4185 
L 1990 4185 
C 2522 4185 3142 3999 3142 3203 
C 3142 2374 2464 2214 1984 2214 
z
" transform="scale(0.015625)"/>
       <path id="CMR17-46" d="M 3482 4339 
L 326 4339 
L 326 4172 
C 768 4172 838 4172 838 3883 
L 838 450 
C 838 166 768 166 326 166 
L 326 0 
C 512 12 870 12 1069 12 
C 1331 12 1638 12 1901 0 
L 1901 166 
L 1760 166 
C 1274 166 1261 229 1261 456 
L 1261 2073 
L 1837 2073 
C 2432 2073 2490 1865 2490 1334 
L 2605 1334 
L 2605 2991 
L 2490 2991 
C 2490 2451 2432 2240 1837 2240 
L 1261 2240 
L 1261 3922 
C 1261 4140 1274 4172 1530 4172 
L 2355 4172 
C 3322 4172 3430 3774 3520 2920 
L 3635 2920 
L 3482 4339 
z
" transform="scale(0.015625)"/>
       <path id="CMR17-6c" d="M 979 4416 
L 218 4345 
L 218 4179 
C 595 4179 653 4141 653 3835 
L 653 439 
C 653 198 627 166 218 166 
L 218 0 
C 371 12 653 12 813 12 
C 979 12 1261 12 1414 0 
L 1414 166 
C 1005 166 979 191 979 439 
L 979 4416 
z
" transform="scale(0.015625)"/>
       <path id="CMR17-78" d="M 1664 1491 
C 1856 1740 2074 2022 2253 2233 
C 2464 2476 2707 2579 2989 2585 
L 2989 2752 
C 2880 2745 2656 2739 2541 2739 
C 2368 2739 2170 2739 2022 2752 
L 2022 2585 
C 2112 2572 2163 2508 2163 2419 
C 2163 2304 2099 2233 2067 2188 
L 1594 1587 
L 1030 2323 
C 973 2393 973 2406 973 2438 
C 973 2515 1037 2579 1146 2585 
L 1146 2752 
C 992 2739 717 2739 557 2739 
C 384 2739 179 2739 38 2752 
L 38 2585 
C 384 2585 461 2560 614 2368 
L 1350 1414 
C 1363 1401 1395 1363 1395 1344 
C 1395 1318 838 633 768 544 
C 480 198 179 172 6 166 
L 6 0 
C 115 6 339 12 454 12 
C 582 12 864 12 979 0 
L 979 166 
C 941 172 838 185 838 332 
C 838 448 890 518 947 595 
L 1478 1248 
L 2035 524 
C 2086 454 2163 358 2163 313 
C 2163 224 2086 172 1984 166 
L 1984 0 
C 2138 12 2413 12 2573 12 
C 2746 12 2950 12 3091 0 
L 3091 166 
C 2771 166 2675 179 2522 377 
L 1664 1491 
z
" transform="scale(0.015625)"/>
       <path id="CMR17-63" d="M 2234 2240 
C 2112 2240 1933 2240 1933 2015 
C 1933 1836 2080 1785 2163 1785 
C 2208 1785 2394 1804 2394 2028 
C 2394 2476 1958 2816 1466 2816 
C 787 2816 211 2201 211 1379 
C 211 521 813 -64 1466 -64 
C 2259 -64 2458 676 2458 747 
C 2458 773 2451 792 2406 792 
C 2362 792 2355 786 2330 702 
C 2163 180 1798 51 1523 51 
C 1114 51 621 431 621 1385 
C 621 2358 1094 2700 1472 2700 
C 1722 2700 2093 2582 2234 2240 
z
" transform="scale(0.015625)"/>
      </defs>
      <use xlink:href="#CMR17-52" transform="scale(0.996264)"/>
      <use xlink:href="#CMR17-61" transform="translate(67.791102 0)scale(0.996264)"/>
      <use xlink:href="#CMR17-6e" transform="translate(113.481579 0)scale(0.996264)"/>
      <use xlink:href="#CMR17-64" transform="translate(164.376949 0)scale(0.996264)"/>
      <use xlink:href="#CMR17-6f" transform="translate(215.272319 0)scale(0.996264)"/>
      <use xlink:href="#CMR17-6d" transform="translate(260.962796 0)scale(0.996264)"/>
      <use xlink:href="#CMR17-46" transform="translate(367.958352 0)scale(0.996264)"/>
      <use xlink:href="#CMR17-6c" transform="translate(427.942199 0)scale(0.996264)"/>
      <use xlink:href="#CMR17-75" transform="translate(452.813257 0)scale(0.996264)"/>
      <use xlink:href="#CMR17-78" transform="translate(503.708627 0)scale(0.996264)"/>
      <use xlink:href="#CMR17-53" transform="translate(582.077509 0)scale(0.996264)"/>
      <use xlink:href="#CMR17-65" transform="translate(632.972879 0)scale(0.996264)"/>
      <use xlink:href="#CMR17-63" transform="translate(673.458539 0)scale(0.996264)"/>
      <use xlink:href="#CMR17-74" transform="translate(713.9442 0)scale(0.996264)"/>
      <use xlink:href="#CMR17-6f" transform="translate(749.224968 0)scale(0.996264)"/>
      <use xlink:href="#CMR17-72" transform="translate(794.915445 0)scale(0.996264)"/>
     </g>
    </g>
   </g>
  </g>
 </g>
 <defs>
  <clipPath id="p154c5b77ce">
   <rect x="106.92" y="14.04" width="365.04" height="180.89532"/>
  </clipPath>
 </defs>
</svg>
