<?xml version="1.0" encoding="ISO-8859-1" standalone="no"?><svg xmlns="http://www.w3.org/2000/svg" height="2000" width="2000" version="1.1" xmlns:xlink="http://www.w3.org/1999/xlink"  >
<defs  >
<clipPath id="clip"  >
<circle cy="1000.0" cx="1000.0" r="1000.0" style="stroke:black; stroke-width:1; fill:none; "  />
</clipPath>
</defs>
<g style="clip-path:url(#clip); stroke:#D02090; stroke-width:1; stroke-opacity:0.6; fill:none; "  >
<circle cy="5.0" cx="1000.0" r="5.0"  />
<circle cy="15.0" cx="1000.0" r="5.0"  />
<circle cy="25.0" cx="1000.0" r="5.0"  />
<circle cy="35.0" cx="1000.0" r="5.0"  />
<circle cy="45.0" cx="1000.0" r="5.0"  />
<circle cy="55.0" cx="1000.0" r="5.0"  />
<circle cy="65.0" cx="1000.0" r="5.0"  />
<circle cy="75.0" cx="1000.0" r="5.0"  />
<circle cy="85.0" cx="1000.0" r="5.0"  />
<circle cy="95.0" cx="1000.0" r="5.0"  />
<circle cy="105.0" cx="1000.0" r="5.0"  />
<circle cy="115.0" cx="1000.0" r="5.0"  />
<circle cy="125.0" cx="1000.0" r="5.0"  />
<circle cy="135.0" cx="1000.0" r="5.0"  />
<circle cy="145.0" cx="1000.0" r="5.0"  />
<circle cy="155.0" cx="1000.0" r="5.0"  />
<circle cy="165.0" cx="1000.0" r="5.0"  />
<circle cy="175.0" cx="1000.0" r="5.0"  />
<circle cy="185.0" cx="1000.0" r="5.0"  />
<circle cy="195.0" cx="1000.0" r="5.0"  />
<circle cy="205.0" cx="1000.0" r="5.0"  />
<circle cy="215.0" cx="1000.0" r="5.0"  />
<circle cy="225.0" cx="1000.0" r="5.0"  />
<circle cy="235.0" cx="1000.0" r="5.0"  />
<circle cy="245.0" cx="1000.0" r="5.0"  />
<circle cy="255.0" cx="1000.0" r="5.0"  />
<circle cy="265.0" cx="1000.0" r="5.0"  />
<circle cy="275.0" cx="1000.0" r="5.0"  />
<circle cy="285.0" cx="1000.0" r="5.0"  />
<circle cy="295.0" cx="1000.0" r="5.0"  />
<circle cy="305.0" cx="1000.0" r="5.0"  />
<circle cy="315.0" cx="1000.0" r="5.0"  />
<circle cy="325.0" cx="1000.0" r="5.0"  />
<circle cy="335.0" cx="1000.0" r="5.0"  />
<circle cy="345.0" cx="1000.0" r="5.0"  />
<circle cy="355.0" cx="1000.0" r="5.0"  />
<circle cy="365.0" cx="1000.0" r="5.0"  />
<circle cy="375.0" cx="1000.0" r="5.0"  />
<circle cy="385.0" cx="1000.0" r="5.0"  />
<circle cy="395.0" cx="1000.0" r="5.0"  />
<circle cy="405.0" cx="1000.0" r="5.0"  />
<circle cy="415.0" cx="1000.0" r="5.0"  />
<circle cy="425.0" cx="1000.0" r="5.0"  />
<circle cy="435.0" cx="1000.0" r="5.0"  />
<circle cy="445.0" cx="1000.0" r="5.0"  />
<circle cy="455.0" cx="1000.0" r="5.0"  />
<circle cy="465.0" cx="1000.0" r="5.0"  />
<circle cy="475.0" cx="1000.0" r="5.0"  />
<circle cy="485.0" cx="1000.0" r="5.0"  />
<circle cy="495.0" cx="1000.0" r="5.0"  />
<circle cy="505.0" cx="1000.0" r="5.0"  />
<circle cy="515.0" cx="1000.0" r="5.0"  />
<circle cy="525.0" cx="1000.0" r="5.0"  />
<circle cy="535.0" cx="1000.0" r="5.0"  />
<circle cy="545.0" cx="1000.0" r="5.0"  />
<circle cy="555.0" cx="1000.0" r="5.0"  />
<circle cy="565.0" cx="1000.0" r="5.0"  />
<circle cy="575.0" cx="1000.0" r="5.0"  />
<circle cy="585.0" cx="1000.0" r="5.0"  />
<circle cy="595.0" cx="1000.0" r="5.0"  />
<circle cy="605.0" cx="1000.0" r="5.0"  />
<circle cy="615.0" cx="1000.0" r="5.0"  />
<circle cy="625.0" cx="1000.0" r="5.0"  />
<circle cy="635.0" cx="1000.0" r="5.0"  />
<circle cy="645.0" cx="1000.0" r="5.0"  />
<circle cy="655.0" cx="1000.0" r="5.0"  />
<circle cy="665.0" cx="1000.0" r="5.0"  />
<circle cy="675.0" cx="1000.0" r="5.0"  />
<circle cy="685.0" cx="1000.0" r="5.0"  />
<circle cy="695.0" cx="1000.0" r="5.0"  />
<circle cy="705.0" cx="1000.0" r="5.0"  />
<circle cy="715.0" cx="1000.0" r="5.0"  />
<circle cy="725.0" cx="1000.0" r="5.0"  />
<circle cy="735.0" cx="1000.0" r="5.0"  />
<circle cy="745.0" cx="1000.0" r="5.0"  />
<circle cy="755.0" cx="1000.0" r="5.0"  />
<circle cy="765.0" cx="1000.0" r="5.0"  />
<circle cy="775.0" cx="1000.0" r="5.0"  />
<circle cy="785.0" cx="1000.0" r="5.0"  />
<circle cy="795.0" cx="1000.0" r="5.0"  />
<circle cy="805.0" cx="1000.0" r="5.0"  />
<circle cy="815.0" cx="1000.0" r="5.0"  />
<circle cy="825.0" cx="1000.0" r="5.0"  />
<circle cy="835.0" cx="1000.0" r="5.0"  />
<circle cy="845.0" cx="1000.0" r="5.0"  />
<circle cy="855.0" cx="1000.0" r="5.0"  />
<circle cy="865.0" cx="1000.0" r="5.0"  />
<circle cy="875.0" cx="1000.0" r="5.0"  />
<circle cy="885.0" cx="1000.0" r="5.0"  />
<circle cy="895.0" cx="1000.0" r="5.0"  />
<circle cy="905.0" cx="1000.0" r="5.0"  />
<circle cy="915.0" cx="1000.0" r="5.0"  />
<circle cy="925.0" cx="1000.0" r="5.0"  />
<circle cy="935.0" cx="1000.0" r="5.0"  />
<circle cy="945.0" cx="1000.0" r="5.0"  />
<circle cy="955.0" cx="1000.0" r="5.0"  />
<circle cy="965.0" cx="1000.0" r="5.0"  />
<circle cy="975.0" cx="1000.0" r="5.0"  />
<circle cy="985.0" cx="1000.0" r="5.0"  />
<circle cy="995.0" cx="1000.0" r="5.0"  />
<circle cy="1005.0" cx="1000.0" r="5.0"  />
<circle cy="1015.0" cx="1000.0" r="5.0"  />
<circle cy="1025.0" cx="1000.0" r="5.0"  />
<circle cy="1035.0" cx="1000.0" r="5.0"  />
<circle cy="1045.0" cx="1000.0" r="5.0"  />
<circle cy="1055.0" cx="1000.0" r="5.0"  />
<circle cy="1065.0" cx="1000.0" r="5.0"  />
<circle cy="1075.0" cx="1000.0" r="5.0"  />
<circle cy="1085.0" cx="1000.0" r="5.0"  />
<circle cy="1095.0" cx="1000.0" r="5.0"  />
<circle cy="1105.0" cx="1000.0" r="5.0"  />
<circle cy="1115.0" cx="1000.0" r="5.0"  />
<circle cy="1125.0" cx="1000.0" r="5.0"  />
<circle cy="1135.0" cx="1000.0" r="5.0"  />
<circle cy="1145.0" cx="1000.0" r="5.0"  />
<circle cy="1155.0" cx="1000.0" r="5.0"  />
<circle cy="1165.0" cx="1000.0" r="5.0"  />
<circle cy="1175.0" cx="1000.0" r="5.0"  />
<circle cy="1185.0" cx="1000.0" r="5.0"  />
<circle cy="1195.0" cx="1000.0" r="5.0"  />
<circle cy="1205.0" cx="1000.0" r="5.0"  />
<circle cy="1215.0" cx="1000.0" r="5.0"  />
<circle cy="1225.0" cx="1000.0" r="5.0"  />
<circle cy="1235.0" cx="1000.0" r="5.0"  />
<circle cy="1245.0" cx="1000.0" r="5.0"  />
<circle cy="1255.0" cx="1000.0" r="5.0"  />
<circle cy="1265.0" cx="1000.0" r="5.0"  />
<circle cy="1275.0" cx="1000.0" r="5.0"  />
<circle cy="1285.0" cx="1000.0" r="5.0"  />
<circle cy="1295.0" cx="1000.0" r="5.0"  />
<circle cy="1305.0" cx="1000.0" r="5.0"  />
<circle cy="1315.0" cx="1000.0" r="5.0"  />
<circle cy="1325.0" cx="1000.0" r="5.0"  />
<circle cy="1335.0" cx="1000.0" r="5.0"  />
<circle cy="1345.0" cx="1000.0" r="5.0"  />
<circle cy="1355.0" cx="1000.0" r="5.0"  />
<circle cy="1365.0" cx="1000.0" r="5.0"  />
<circle cy="1375.0" cx="1000.0" r="5.0"  />
<circle cy="1385.0" cx="1000.0" r="5.0"  />
<circle cy="1395.0" cx="1000.0" r="5.0"  />
<circle cy="1405.0" cx="1000.0" r="5.0"  />
<circle cy="1415.0" cx="1000.0" r="5.0"  />
<circle cy="1425.0" cx="1000.0" r="5.0"  />
<circle cy="1435.0" cx="1000.0" r="5.0"  />
<circle cy="1445.0" cx="1000.0" r="5.0"  />
<circle cy="1455.0" cx="1000.0" r="5.0"  />
<circle cy="1465.0" cx="1000.0" r="5.0"  />
<circle cy="1475.0" cx="1000.0" r="5.0"  />
<circle cy="1485.0" cx="1000.0" r="5.0"  />
<circle cy="1495.0" cx="1000.0" r="5.0"  />
<circle cy="1505.0" cx="1000.0" r="5.0"  />
<circle cy="1515.0" cx="1000.0" r="5.0"  />
<circle cy="1525.0" cx="1000.0" r="5.0"  />
<circle cy="1535.0" cx="1000.0" r="5.0"  />
<circle cy="1545.0" cx="1000.0" r="5.0"  />
<circle cy="1555.0" cx="1000.0" r="5.0"  />
<circle cy="1565.0" cx="1000.0" r="5.0"  />
<circle cy="1575.0" cx="1000.0" r="5.0"  />
<circle cy="1585.0" cx="1000.0" r="5.0"  />
<circle cy="1595.0" cx="1000.0" r="5.0"  />
<circle cy="1605.0" cx="1000.0" r="5.0"  />
<circle cy="1615.0" cx="1000.0" r="5.0"  />
<circle cy="1625.0" cx="1000.0" r="5.0"  />
<circle cy="1635.0" cx="1000.0" r="5.0"  />
<circle cy="1645.0" cx="1000.0" r="5.0"  />
<circle cy="1655.0" cx="1000.0" r="5.0"  />
<circle cy="1665.0" cx="1000.0" r="5.0"  />
<circle cy="1675.0" cx="1000.0" r="5.0"  />
<circle cy="1685.0" cx="1000.0" r="5.0"  />
<circle cy="1695.0" cx="1000.0" r="5.0"  />
<circle cy="1705.0" cx="1000.0" r="5.0"  />
<circle cy="1715.0" cx="1000.0" r="5.0"  />
<circle cy="1725.0" cx="1000.0" r="5.0"  />
<circle cy="1735.0" cx="1000.0" r="5.0"  />
<circle cy="1745.0" cx="1000.0" r="5.0"  />
<circle cy="1755.0" cx="1000.0" r="5.0"  />
<circle cy="1765.0" cx="1000.0" r="5.0"  />
<circle cy="1775.0" cx="1000.0" r="5.0"  />
<circle cy="1785.0" cx="1000.0" r="5.0"  />
<circle cy="1795.0" cx="1000.0" r="5.0"  />
<circle cy="1805.0" cx="1000.0" r="5.0"  />
<circle cy="1815.0" cx="1000.0" r="5.0"  />
<circle cy="1825.0" cx="1000.0" r="5.0"  />
<circle cy="1835.0" cx="1000.0" r="5.0"  />
<circle cy="1845.0" cx="1000.0" r="5.0"  />
<circle cy="1855.0" cx="1000.0" r="5.0"  />
<circle cy="1865.0" cx="1000.0" r="5.0"  />
<circle cy="1875.0" cx="1000.0" r="5.0"  />
<circle cy="1885.0" cx="1000.0" r="5.0"  />
<circle cy="1895.0" cx="1000.0" r="5.0"  />
<circle cy="1905.0" cx="1000.0" r="5.0"  />
<circle cy="1915.0" cx="1000.0" r="5.0"  />
<circle cy="1925.0" cx="1000.0" r="5.0"  />
<circle cy="1935.0" cx="1000.0" r="5.0"  />
<circle cy="1945.0" cx="1000.0" r="5.0"  />
<circle cy="1955.0" cx="1000.0" r="5.0"  />
<circle cy="1965.0" cx="1000.0" r="5.0"  />
<circle cy="1975.0" cx="1000.0" r="5.0"  />
<circle cy="1985.0" cx="1000.0" r="5.0"  />
<circle cy="1995.0" cx="1000.0" r="5.0"  />
<circle cy="10.0" cx="1000.0" r="10.0"  />
<circle cy="30.0" cx="1000.0" r="10.0"  />
<circle cy="50.0" cx="1000.0" r="10.0"  />
<circle cy="70.0" cx="1000.0" r="10.0"  />
<circle cy="90.0" cx="1000.0" r="10.0"  />
<circle cy="110.0" cx="1000.0" r="10.0"  />
<circle cy="130.0" cx="1000.0" r="10.0"  />
<circle cy="150.0" cx="1000.0" r="10.0"  />
<circle cy="170.0" cx="1000.0" r="10.0"  />
<circle cy="190.0" cx="1000.0" r="10.0"  />
<circle cy="210.0" cx="1000.0" r="10.0"  />
<circle cy="230.0" cx="1000.0" r="10.0"  />
<circle cy="250.0" cx="1000.0" r="10.0"  />
<circle cy="270.0" cx="1000.0" r="10.0"  />
<circle cy="290.0" cx="1000.0" r="10.0"  />
<circle cy="310.0" cx="1000.0" r="10.0"  />
<circle cy="330.0" cx="1000.0" r="10.0"  />
<circle cy="350.0" cx="1000.0" r="10.0"  />
<circle cy="370.0" cx="1000.0" r="10.0"  />
<circle cy="390.0" cx="1000.0" r="10.0"  />
<circle cy="410.0" cx="1000.0" r="10.0"  />
<circle cy="430.0" cx="1000.0" r="10.0"  />
<circle cy="450.0" cx="1000.0" r="10.0"  />
<circle cy="470.0" cx="1000.0" r="10.0"  />
<circle cy="490.0" cx="1000.0" r="10.0"  />
<circle cy="510.0" cx="1000.0" r="10.0"  />
<circle cy="530.0" cx="1000.0" r="10.0"  />
<circle cy="550.0" cx="1000.0" r="10.0"  />
<circle cy="570.0" cx="1000.0" r="10.0"  />
<circle cy="590.0" cx="1000.0" r="10.0"  />
<circle cy="610.0" cx="1000.0" r="10.0"  />
<circle cy="630.0" cx="1000.0" r="10.0"  />
<circle cy="650.0" cx="1000.0" r="10.0"  />
<circle cy="670.0" cx="1000.0" r="10.0"  />
<circle cy="690.0" cx="1000.0" r="10.0"  />
<circle cy="710.0" cx="1000.0" r="10.0"  />
<circle cy="730.0" cx="1000.0" r="10.0"  />
<circle cy="750.0" cx="1000.0" r="10.0"  />
<circle cy="770.0" cx="1000.0" r="10.0"  />
<circle cy="790.0" cx="1000.0" r="10.0"  />
<circle cy="810.0" cx="1000.0" r="10.0"  />
<circle cy="830.0" cx="1000.0" r="10.0"  />
<circle cy="850.0" cx="1000.0" r="10.0"  />
<circle cy="870.0" cx="1000.0" r="10.0"  />
<circle cy="890.0" cx="1000.0" r="10.0"  />
<circle cy="910.0" cx="1000.0" r="10.0"  />
<circle cy="930.0" cx="1000.0" r="10.0"  />
<circle cy="950.0" cx="1000.0" r="10.0"  />
<circle cy="970.0" cx="1000.0" r="10.0"  />
<circle cy="990.0" cx="1000.0" r="10.0"  />
<circle cy="1010.0" cx="1000.0" r="10.0"  />
<circle cy="1030.0" cx="1000.0" r="10.0"  />
<circle cy="1050.0" cx="1000.0" r="10.0"  />
<circle cy="1070.0" cx="1000.0" r="10.0"  />
<circle cy="1090.0" cx="1000.0" r="10.0"  />
<circle cy="1110.0" cx="1000.0" r="10.0"  />
<circle cy="1130.0" cx="1000.0" r="10.0"  />
<circle cy="1150.0" cx="1000.0" r="10.0"  />
<circle cy="1170.0" cx="1000.0" r="10.0"  />
<circle cy="1190.0" cx="1000.0" r="10.0"  />
<circle cy="1210.0" cx="1000.0" r="10.0"  />
<circle cy="1230.0" cx="1000.0" r="10.0"  />
<circle cy="1250.0" cx="1000.0" r="10.0"  />
<circle cy="1270.0" cx="1000.0" r="10.0"  />
<circle cy="1290.0" cx="1000.0" r="10.0"  />
<circle cy="1310.0" cx="1000.0" r="10.0"  />
<circle cy="1330.0" cx="1000.0" r="10.0"  />
<circle cy="1350.0" cx="1000.0" r="10.0"  />
<circle cy="1370.0" cx="1000.0" r="10.0"  />
<circle cy="1390.0" cx="1000.0" r="10.0"  />
<circle cy="1410.0" cx="1000.0" r="10.0"  />
<circle cy="1430.0" cx="1000.0" r="10.0"  />
<circle cy="1450.0" cx="1000.0" r="10.0"  />
<circle cy="1470.0" cx="1000.0" r="10.0"  />
<circle cy="1490.0" cx="1000.0" r="10.0"  />
<circle cy="1510.0" cx="1000.0" r="10.0"  />
<circle cy="1530.0" cx="1000.0" r="10.0"  />
<circle cy="1550.0" cx="1000.0" r="10.0"  />
<circle cy="1570.0" cx="1000.0" r="10.0"  />
<circle cy="1590.0" cx="1000.0" r="10.0"  />
<circle cy="1610.0" cx="1000.0" r="10.0"  />
<circle cy="1630.0" cx="1000.0" r="10.0"  />
<circle cy="1650.0" cx="1000.0" r="10.0"  />
<circle cy="1670.0" cx="1000.0" r="10.0"  />
<circle cy="1690.0" cx="1000.0" r="10.0"  />
<circle cy="1710.0" cx="1000.0" r="10.0"  />
<circle cy="1730.0" cx="1000.0" r="10.0"  />
<circle cy="1750.0" cx="1000.0" r="10.0"  />
<circle cy="1770.0" cx="1000.0" r="10.0"  />
<circle cy="1790.0" cx="1000.0" r="10.0"  />
<circle cy="1810.0" cx="1000.0" r="10.0"  />
<circle cy="1830.0" cx="1000.0" r="10.0"  />
<circle cy="1850.0" cx="1000.0" r="10.0"  />
<circle cy="1870.0" cx="1000.0" r="10.0"  />
<circle cy="1890.0" cx="1000.0" r="10.0"  />
<circle cy="1910.0" cx="1000.0" r="10.0"  />
<circle cy="1930.0" cx="1000.0" r="10.0"  />
<circle cy="1950.0" cx="1000.0" r="10.0"  />
<circle cy="1970.0" cx="1000.0" r="10.0"  />
<circle cy="1990.0" cx="1000.0" r="10.0"  />
<circle cy="15.0" cx="1000.0" r="15.0"  />
<circle cy="45.0" cx="1000.0" r="15.0"  />
<circle cy="75.0" cx="1000.0" r="15.0"  />
<circle cy="105.0" cx="1000.0" r="15.0"  />
<circle cy="135.0" cx="1000.0" r="15.0"  />
<circle cy="165.0" cx="1000.0" r="15.0"  />
<circle cy="195.0" cx="1000.0" r="15.0"  />
<circle cy="225.0" cx="1000.0" r="15.0"  />
<circle cy="255.0" cx="1000.0" r="15.0"  />
<circle cy="285.0" cx="1000.0" r="15.0"  />
<circle cy="315.0" cx="1000.0" r="15.0"  />
<circle cy="345.0" cx="1000.0" r="15.0"  />
<circle cy="375.0" cx="1000.0" r="15.0"  />
<circle cy="405.0" cx="1000.0" r="15.0"  />
<circle cy="435.0" cx="1000.0" r="15.0"  />
<circle cy="465.0" cx="1000.0" r="15.0"  />
<circle cy="495.0" cx="1000.0" r="15.0"  />
<circle cy="525.0" cx="1000.0" r="15.0"  />
<circle cy="555.0" cx="1000.0" r="15.0"  />
<circle cy="585.0" cx="1000.0" r="15.0"  />
<circle cy="615.0" cx="1000.0" r="15.0"  />
<circle cy="645.0" cx="1000.0" r="15.0"  />
<circle cy="675.0" cx="1000.0" r="15.0"  />
<circle cy="705.0" cx="1000.0" r="15.0"  />
<circle cy="735.0" cx="1000.0" r="15.0"  />
<circle cy="765.0" cx="1000.0" r="15.0"  />
<circle cy="795.0" cx="1000.0" r="15.0"  />
<circle cy="825.0" cx="1000.0" r="15.0"  />
<circle cy="855.0" cx="1000.0" r="15.0"  />
<circle cy="885.0" cx="1000.0" r="15.0"  />
<circle cy="915.0" cx="1000.0" r="15.0"  />
<circle cy="945.0" cx="1000.0" r="15.0"  />
<circle cy="975.0" cx="1000.0" r="15.0"  />
<circle cy="1005.0" cx="1000.0" r="15.0"  />
<circle cy="1035.0" cx="1000.0" r="15.0"  />
<circle cy="1065.0" cx="1000.0" r="15.0"  />
<circle cy="1095.0" cx="1000.0" r="15.0"  />
<circle cy="1125.0" cx="1000.0" r="15.0"  />
<circle cy="1155.0" cx="1000.0" r="15.0"  />
<circle cy="1185.0" cx="1000.0" r="15.0"  />
<circle cy="1215.0" cx="1000.0" r="15.0"  />
<circle cy="1245.0" cx="1000.0" r="15.0"  />
<circle cy="1275.0" cx="1000.0" r="15.0"  />
<circle cy="1305.0" cx="1000.0" r="15.0"  />
<circle cy="1335.0" cx="1000.0" r="15.0"  />
<circle cy="1365.0" cx="1000.0" r="15.0"  />
<circle cy="1395.0" cx="1000.0" r="15.0"  />
<circle cy="1425.0" cx="1000.0" r="15.0"  />
<circle cy="1455.0" cx="1000.0" r="15.0"  />
<circle cy="1485.0" cx="1000.0" r="15.0"  />
<circle cy="1515.0" cx="1000.0" r="15.0"  />
<circle cy="1545.0" cx="1000.0" r="15.0"  />
<circle cy="1575.0" cx="1000.0" r="15.0"  />
<circle cy="1605.0" cx="1000.0" r="15.0"  />
<circle cy="1635.0" cx="1000.0" r="15.0"  />
<circle cy="1665.0" cx="1000.0" r="15.0"  />
<circle cy="1695.0" cx="1000.0" r="15.0"  />
<circle cy="1725.0" cx="1000.0" r="15.0"  />
<circle cy="1755.0" cx="1000.0" r="15.0"  />
<circle cy="1785.0" cx="1000.0" r="15.0"  />
<circle cy="1815.0" cx="1000.0" r="15.0"  />
<circle cy="1845.0" cx="1000.0" r="15.0"  />
<circle cy="1875.0" cx="1000.0" r="15.0"  />
<circle cy="1905.0" cx="1000.0" r="15.0"  />
<circle cy="1935.0" cx="1000.0" r="15.0"  />
<circle cy="1965.0" cx="1000.0" r="15.0"  />
<circle cy="1995.0" cx="1000.0" r="15.0"  />
<circle cy="20.0" cx="1000.0" r="20.0"  />
<circle cy="60.0" cx="1000.0" r="20.0"  />
<circle cy="100.0" cx="1000.0" r="20.0"  />
<circle cy="140.0" cx="1000.0" r="20.0"  />
<circle cy="180.0" cx="1000.0" r="20.0"  />
<circle cy="220.0" cx="1000.0" r="20.0"  />
<circle cy="260.0" cx="1000.0" r="20.0"  />
<circle cy="300.0" cx="1000.0" r="20.0"  />
<circle cy="340.0" cx="1000.0" r="20.0"  />
<circle cy="380.0" cx="1000.0" r="20.0"  />
<circle cy="420.0" cx="1000.0" r="20.0"  />
<circle cy="460.0" cx="1000.0" r="20.0"  />
<circle cy="500.0" cx="1000.0" r="20.0"  />
<circle cy="540.0" cx="1000.0" r="20.0"  />
<circle cy="580.0" cx="1000.0" r="20.0"  />
<circle cy="620.0" cx="1000.0" r="20.0"  />
<circle cy="660.0" cx="1000.0" r="20.0"  />
<circle cy="700.0" cx="1000.0" r="20.0"  />
<circle cy="740.0" cx="1000.0" r="20.0"  />
<circle cy="780.0" cx="1000.0" r="20.0"  />
<circle cy="820.0" cx="1000.0" r="20.0"  />
<circle cy="860.0" cx="1000.0" r="20.0"  />
<circle cy="900.0" cx="1000.0" r="20.0"  />
<circle cy="940.0" cx="1000.0" r="20.0"  />
<circle cy="980.0" cx="1000.0" r="20.0"  />
<circle cy="1020.0" cx="1000.0" r="20.0"  />
<circle cy="1060.0" cx="1000.0" r="20.0"  />
<circle cy="1100.0" cx="1000.0" r="20.0"  />
<circle cy="1140.0" cx="1000.0" r="20.0"  />
<circle cy="1180.0" cx="1000.0" r="20.0"  />
<circle cy="1220.0" cx="1000.0" r="20.0"  />
<circle cy="1260.0" cx="1000.0" r="20.0"  />
<circle cy="1300.0" cx="1000.0" r="20.0"  />
<circle cy="1340.0" cx="1000.0" r="20.0"  />
<circle cy="1380.0" cx="1000.0" r="20.0"  />
<circle cy="1420.0" cx="1000.0" r="20.0"  />
<circle cy="1460.0" cx="1000.0" r="20.0"  />
<circle cy="1500.0" cx="1000.0" r="20.0"  />
<circle cy="1540.0" cx="1000.0" r="20.0"  />
<circle cy="1580.0" cx="1000.0" r="20.0"  />
<circle cy="1620.0" cx="1000.0" r="20.0"  />
<circle cy="1660.0" cx="1000.0" r="20.0"  />
<circle cy="1700.0" cx="1000.0" r="20.0"  />
<circle cy="1740.0" cx="1000.0" r="20.0"  />
<circle cy="1780.0" cx="1000.0" r="20.0"  />
<circle cy="1820.0" cx="1000.0" r="20.0"  />
<circle cy="1860.0" cx="1000.0" r="20.0"  />
<circle cy="1900.0" cx="1000.0" r="20.0"  />
<circle cy="1940.0" cx="1000.0" r="20.0"  />
<circle cy="1980.0" cx="1000.0" r="20.0"  />
<circle cy="25.0" cx="1000.0" r="25.0"  />
<circle cy="75.0" cx="1000.0" r="25.0"  />
<circle cy="125.0" cx="1000.0" r="25.0"  />
<circle cy="175.0" cx="1000.0" r="25.0"  />
<circle cy="225.0" cx="1000.0" r="25.0"  />
<circle cy="275.0" cx="1000.0" r="25.0"  />
<circle cy="325.0" cx="1000.0" r="25.0"  />
<circle cy="375.0" cx="1000.0" r="25.0"  />
<circle cy="425.0" cx="1000.0" r="25.0"  />
<circle cy="475.0" cx="1000.0" r="25.0"  />
<circle cy="525.0" cx="1000.0" r="25.0"  />
<circle cy="575.0" cx="1000.0" r="25.0"  />
<circle cy="625.0" cx="1000.0" r="25.0"  />
<circle cy="675.0" cx="1000.0" r="25.0"  />
<circle cy="725.0" cx="1000.0" r="25.0"  />
<circle cy="775.0" cx="1000.0" r="25.0"  />
<circle cy="825.0" cx="1000.0" r="25.0"  />
<circle cy="875.0" cx="1000.0" r="25.0"  />
<circle cy="925.0" cx="1000.0" r="25.0"  />
<circle cy="975.0" cx="1000.0" r="25.0"  />
<circle cy="1025.0" cx="1000.0" r="25.0"  />
<circle cy="1075.0" cx="1000.0" r="25.0"  />
<circle cy="1125.0" cx="1000.0" r="25.0"  />
<circle cy="1175.0" cx="1000.0" r="25.0"  />
<circle cy="1225.0" cx="1000.0" r="25.0"  />
<circle cy="1275.0" cx="1000.0" r="25.0"  />
<circle cy="1325.0" cx="1000.0" r="25.0"  />
<circle cy="1375.0" cx="1000.0" r="25.0"  />
<circle cy="1425.0" cx="1000.0" r="25.0"  />
<circle cy="1475.0" cx="1000.0" r="25.0"  />
<circle cy="1525.0" cx="1000.0" r="25.0"  />
<circle cy="1575.0" cx="1000.0" r="25.0"  />
<circle cy="1625.0" cx="1000.0" r="25.0"  />
<circle cy="1675.0" cx="1000.0" r="25.0"  />
<circle cy="1725.0" cx="1000.0" r="25.0"  />
<circle cy="1775.0" cx="1000.0" r="25.0"  />
<circle cy="1825.0" cx="1000.0" r="25.0"  />
<circle cy="1875.0" cx="1000.0" r="25.0"  />
<circle cy="1925.0" cx="1000.0" r="25.0"  />
<circle cy="1975.0" cx="1000.0" r="25.0"  />
<circle cy="30.0" cx="1000.0" r="30.0"  />
<circle cy="90.0" cx="1000.0" r="30.0"  />
<circle cy="150.0" cx="1000.0" r="30.0"  />
<circle cy="210.0" cx="1000.0" r="30.0"  />
<circle cy="270.0" cx="1000.0" r="30.0"  />
<circle cy="330.0" cx="1000.0" r="30.0"  />
<circle cy="390.0" cx="1000.0" r="30.0"  />
<circle cy="450.0" cx="1000.0" r="30.0"  />
<circle cy="510.0" cx="1000.0" r="30.0"  />
<circle cy="570.0" cx="1000.0" r="30.0"  />
<circle cy="630.0" cx="1000.0" r="30.0"  />
<circle cy="690.0" cx="1000.0" r="30.0"  />
<circle cy="750.0" cx="1000.0" r="30.0"  />
<circle cy="810.0" cx="1000.0" r="30.0"  />
<circle cy="870.0" cx="1000.0" r="30.0"  />
<circle cy="930.0" cx="1000.0" r="30.0"  />
<circle cy="990.0" cx="1000.0" r="30.0"  />
<circle cy="1050.0" cx="1000.0" r="30.0"  />
<circle cy="1110.0" cx="1000.0" r="30.0"  />
<circle cy="1170.0" cx="1000.0" r="30.0"  />
<circle cy="1230.0" cx="1000.0" r="30.0"  />
<circle cy="1290.0" cx="1000.0" r="30.0"  />
<circle cy="1350.0" cx="1000.0" r="30.0"  />
<circle cy="1410.0" cx="1000.0" r="30.0"  />
<circle cy="1470.0" cx="1000.0" r="30.0"  />
<circle cy="1530.0" cx="1000.0" r="30.0"  />
<circle cy="1590.0" cx="1000.0" r="30.0"  />
<circle cy="1650.0" cx="1000.0" r="30.0"  />
<circle cy="1710.0" cx="1000.0" r="30.0"  />
<circle cy="1770.0" cx="1000.0" r="30.0"  />
<circle cy="1830.0" cx="1000.0" r="30.0"  />
<circle cy="1890.0" cx="1000.0" r="30.0"  />
<circle cy="1950.0" cx="1000.0" r="30.0"  />
<circle cy="2010.0" cx="1000.0" r="30.0"  />
<circle cy="35.0" cx="1000.0" r="35.0"  />
<circle cy="105.0" cx="1000.0" r="35.0"  />
<circle cy="175.0" cx="1000.0" r="35.0"  />
<circle cy="245.0" cx="1000.0" r="35.0"  />
<circle cy="315.0" cx="1000.0" r="35.0"  />
<circle cy="385.0" cx="1000.0" r="35.0"  />
<circle cy="455.0" cx="1000.0" r="35.0"  />
<circle cy="525.0" cx="1000.0" r="35.0"  />
<circle cy="595.0" cx="1000.0" r="35.0"  />
<circle cy="665.0" cx="1000.0" r="35.0"  />
<circle cy="735.0" cx="1000.0" r="35.0"  />
<circle cy="805.0" cx="1000.0" r="35.0"  />
<circle cy="875.0" cx="1000.0" r="35.0"  />
<circle cy="945.0" cx="1000.0" r="35.0"  />
<circle cy="1015.0" cx="1000.0" r="35.0"  />
<circle cy="1085.0" cx="1000.0" r="35.0"  />
<circle cy="1155.0" cx="1000.0" r="35.0"  />
<circle cy="1225.0" cx="1000.0" r="35.0"  />
<circle cy="1295.0" cx="1000.0" r="35.0"  />
<circle cy="1365.0" cx="1000.0" r="35.0"  />
<circle cy="1435.0" cx="1000.0" r="35.0"  />
<circle cy="1505.0" cx="1000.0" r="35.0"  />
<circle cy="1575.0" cx="1000.0" r="35.0"  />
<circle cy="1645.0" cx="1000.0" r="35.0"  />
<circle cy="1715.0" cx="1000.0" r="35.0"  />
<circle cy="1785.0" cx="1000.0" r="35.0"  />
<circle cy="1855.0" cx="1000.0" r="35.0"  />
<circle cy="1925.0" cx="1000.0" r="35.0"  />
<circle cy="1995.0" cx="1000.0" r="35.0"  />
<circle cy="40.0" cx="1000.0" r="40.0"  />
<circle cy="120.0" cx="1000.0" r="40.0"  />
<circle cy="200.0" cx="1000.0" r="40.0"  />
<circle cy="280.0" cx="1000.0" r="40.0"  />
<circle cy="360.0" cx="1000.0" r="40.0"  />
<circle cy="440.0" cx="1000.0" r="40.0"  />
<circle cy="520.0" cx="1000.0" r="40.0"  />
<circle cy="600.0" cx="1000.0" r="40.0"  />
<circle cy="680.0" cx="1000.0" r="40.0"  />
<circle cy="760.0" cx="1000.0" r="40.0"  />
<circle cy="840.0" cx="1000.0" r="40.0"  />
<circle cy="920.0" cx="1000.0" r="40.0"  />
<circle cy="1000.0" cx="1000.0" r="40.0"  />
<circle cy="1080.0" cx="1000.0" r="40.0"  />
<circle cy="1160.0" cx="1000.0" r="40.0"  />
<circle cy="1240.0" cx="1000.0" r="40.0"  />
<circle cy="1320.0" cx="1000.0" r="40.0"  />
<circle cy="1400.0" cx="1000.0" r="40.0"  />
<circle cy="1480.0" cx="1000.0" r="40.0"  />
<circle cy="1560.0" cx="1000.0" r="40.0"  />
<circle cy="1640.0" cx="1000.0" r="40.0"  />
<circle cy="1720.0" cx="1000.0" r="40.0"  />
<circle cy="1800.0" cx="1000.0" r="40.0"  />
<circle cy="1880.0" cx="1000.0" r="40.0"  />
<circle cy="1960.0" cx="1000.0" r="40.0"  />
<circle cy="45.0" cx="1000.0" r="45.0"  />
<circle cy="135.0" cx="1000.0" r="45.0"  />
<circle cy="225.0" cx="1000.0" r="45.0"  />
<circle cy="315.0" cx="1000.0" r="45.0"  />
<circle cy="405.0" cx="1000.0" r="45.0"  />
<circle cy="495.0" cx="1000.0" r="45.0"  />
<circle cy="585.0" cx="1000.0" r="45.0"  />
<circle cy="675.0" cx="1000.0" r="45.0"  />
<circle cy="765.0" cx="1000.0" r="45.0"  />
<circle cy="855.0" cx="1000.0" r="45.0"  />
<circle cy="945.0" cx="1000.0" r="45.0"  />
<circle cy="1035.0" cx="1000.0" r="45.0"  />
<circle cy="1125.0" cx="1000.0" r="45.0"  />
<circle cy="1215.0" cx="1000.0" r="45.0"  />
<circle cy="1305.0" cx="1000.0" r="45.0"  />
<circle cy="1395.0" cx="1000.0" r="45.0"  />
<circle cy="1485.0" cx="1000.0" r="45.0"  />
<circle cy="1575.0" cx="1000.0" r="45.0"  />
<circle cy="1665.0" cx="1000.0" r="45.0"  />
<circle cy="1755.0" cx="1000.0" r="45.0"  />
<circle cy="1845.0" cx="1000.0" r="45.0"  />
<circle cy="1935.0" cx="1000.0" r="45.0"  />
<circle cy="2025.0" cx="1000.0" r="45.0"  />
<circle cy="50.0" cx="1000.0" r="50.0"  />
<circle cy="150.0" cx="1000.0" r="50.0"  />
<circle cy="250.0" cx="1000.0" r="50.0"  />
<circle cy="350.0" cx="1000.0" r="50.0"  />
<circle cy="450.0" cx="1000.0" r="50.0"  />
<circle cy="550.0" cx="1000.0" r="50.0"  />
<circle cy="650.0" cx="1000.0" r="50.0"  />
<circle cy="750.0" cx="1000.0" r="50.0"  />
<circle cy="850.0" cx="1000.0" r="50.0"  />
<circle cy="950.0" cx="1000.0" r="50.0"  />
<circle cy="1050.0" cx="1000.0" r="50.0"  />
<circle cy="1150.0" cx="1000.0" r="50.0"  />
<circle cy="1250.0" cx="1000.0" r="50.0"  />
<circle cy="1350.0" cx="1000.0" r="50.0"  />
<circle cy="1450.0" cx="1000.0" r="50.0"  />
<circle cy="1550.0" cx="1000.0" r="50.0"  />
<circle cy="1650.0" cx="1000.0" r="50.0"  />
<circle cy="1750.0" cx="1000.0" r="50.0"  />
<circle cy="1850.0" cx="1000.0" r="50.0"  />
<circle cy="1950.0" cx="1000.0" r="50.0"  />
<circle cy="55.0" cx="1000.0" r="55.0"  />
<circle cy="165.0" cx="1000.0" r="55.0"  />
<circle cy="275.0" cx="1000.0" r="55.0"  />
<circle cy="385.0" cx="1000.0" r="55.0"  />
<circle cy="495.0" cx="1000.0" r="55.0"  />
<circle cy="605.0" cx="1000.0" r="55.0"  />
<circle cy="715.0" cx="1000.0" r="55.0"  />
<circle cy="825.0" cx="1000.0" r="55.0"  />
<circle cy="935.0" cx="1000.0" r="55.0"  />
<circle cy="1045.0" cx="1000.0" r="55.0"  />
<circle cy="1155.0" cx="1000.0" r="55.0"  />
<circle cy="1265.0" cx="1000.0" r="55.0"  />
<circle cy="1375.0" cx="1000.0" r="55.0"  />
<circle cy="1485.0" cx="1000.0" r="55.0"  />
<circle cy="1595.0" cx="1000.0" r="55.0"  />
<circle cy="1705.0" cx="1000.0" r="55.0"  />
<circle cy="1815.0" cx="1000.0" r="55.0"  />
<circle cy="1925.0" cx="1000.0" r="55.0"  />
<circle cy="2035.0" cx="1000.0" r="55.0"  />
<circle cy="60.0" cx="1000.0" r="60.0"  />
<circle cy="180.0" cx="1000.0" r="60.0"  />
<circle cy="300.0" cx="1000.0" r="60.0"  />
<circle cy="420.0" cx="1000.0" r="60.0"  />
<circle cy="540.0" cx="1000.0" r="60.0"  />
<circle cy="660.0" cx="1000.0" r="60.0"  />
<circle cy="780.0" cx="1000.0" r="60.0"  />
<circle cy="900.0" cx="1000.0" r="60.0"  />
<circle cy="1020.0" cx="1000.0" r="60.0"  />
<circle cy="1140.0" cx="1000.0" r="60.0"  />
<circle cy="1260.0" cx="1000.0" r="60.0"  />
<circle cy="1380.0" cx="1000.0" r="60.0"  />
<circle cy="1500.0" cx="1000.0" r="60.0"  />
<circle cy="1620.0" cx="1000.0" r="60.0"  />
<circle cy="1740.0" cx="1000.0" r="60.0"  />
<circle cy="1860.0" cx="1000.0" r="60.0"  />
<circle cy="1980.0" cx="1000.0" r="60.0"  />
<circle cy="65.0" cx="1000.0" r="65.0"  />
<circle cy="195.0" cx="1000.0" r="65.0"  />
<circle cy="325.0" cx="1000.0" r="65.0"  />
<circle cy="455.0" cx="1000.0" r="65.0"  />
<circle cy="585.0" cx="1000.0" r="65.0"  />
<circle cy="715.0" cx="1000.0" r="65.0"  />
<circle cy="845.0" cx="1000.0" r="65.0"  />
<circle cy="975.0" cx="1000.0" r="65.0"  />
<circle cy="1105.0" cx="1000.0" r="65.0"  />
<circle cy="1235.0" cx="1000.0" r="65.0"  />
<circle cy="1365.0" cx="1000.0" r="65.0"  />
<circle cy="1495.0" cx="1000.0" r="65.0"  />
<circle cy="1625.0" cx="1000.0" r="65.0"  />
<circle cy="1755.0" cx="1000.0" r="65.0"  />
<circle cy="1885.0" cx="1000.0" r="65.0"  />
<circle cy="2015.0" cx="1000.0" r="65.0"  />
<circle cy="70.0" cx="1000.0" r="70.0"  />
<circle cy="210.0" cx="1000.0" r="70.0"  />
<circle cy="350.0" cx="1000.0" r="70.0"  />
<circle cy="490.0" cx="1000.0" r="70.0"  />
<circle cy="630.0" cx="1000.0" r="70.0"  />
<circle cy="770.0" cx="1000.0" r="70.0"  />
<circle cy="910.0" cx="1000.0" r="70.0"  />
<circle cy="1050.0" cx="1000.0" r="70.0"  />
<circle cy="1190.0" cx="1000.0" r="70.0"  />
<circle cy="1330.0" cx="1000.0" r="70.0"  />
<circle cy="1470.0" cx="1000.0" r="70.0"  />
<circle cy="1610.0" cx="1000.0" r="70.0"  />
<circle cy="1750.0" cx="1000.0" r="70.0"  />
<circle cy="1890.0" cx="1000.0" r="70.0"  />
<circle cy="2030.0" cx="1000.0" r="70.0"  />
<circle cy="75.0" cx="1000.0" r="75.0"  />
<circle cy="225.0" cx="1000.0" r="75.0"  />
<circle cy="375.0" cx="1000.0" r="75.0"  />
<circle cy="525.0" cx="1000.0" r="75.0"  />
<circle cy="675.0" cx="1000.0" r="75.0"  />
<circle cy="825.0" cx="1000.0" r="75.0"  />
<circle cy="975.0" cx="1000.0" r="75.0"  />
<circle cy="1125.0" cx="1000.0" r="75.0"  />
<circle cy="1275.0" cx="1000.0" r="75.0"  />
<circle cy="1425.0" cx="1000.0" r="75.0"  />
<circle cy="1575.0" cx="1000.0" r="75.0"  />
<circle cy="1725.0" cx="1000.0" r="75.0"  />
<circle cy="1875.0" cx="1000.0" r="75.0"  />
<circle cy="2025.0" cx="1000.0" r="75.0"  />
<circle cy="80.0" cx="1000.0" r="80.0"  />
<circle cy="240.0" cx="1000.0" r="80.0"  />
<circle cy="400.0" cx="1000.0" r="80.0"  />
<circle cy="560.0" cx="1000.0" r="80.0"  />
<circle cy="720.0" cx="1000.0" r="80.0"  />
<circle cy="880.0" cx="1000.0" r="80.0"  />
<circle cy="1040.0" cx="1000.0" r="80.0"  />
<circle cy="1200.0" cx="1000.0" r="80.0"  />
<circle cy="1360.0" cx="1000.0" r="80.0"  />
<circle cy="1520.0" cx="1000.0" r="80.0"  />
<circle cy="1680.0" cx="1000.0" r="80.0"  />
<circle cy="1840.0" cx="1000.0" r="80.0"  />
<circle cy="2000.0" cx="1000.0" r="80.0"  />
<circle cy="85.0" cx="1000.0" r="85.0"  />
<circle cy="255.0" cx="1000.0" r="85.0"  />
<circle cy="425.0" cx="1000.0" r="85.0"  />
<circle cy="595.0" cx="1000.0" r="85.0"  />
<circle cy="765.0" cx="1000.0" r="85.0"  />
<circle cy="935.0" cx="1000.0" r="85.0"  />
<circle cy="1105.0" cx="1000.0" r="85.0"  />
<circle cy="1275.0" cx="1000.0" r="85.0"  />
<circle cy="1445.0" cx="1000.0" r="85.0"  />
<circle cy="1615.0" cx="1000.0" r="85.0"  />
<circle cy="1785.0" cx="1000.0" r="85.0"  />
<circle cy="1955.0" cx="1000.0" r="85.0"  />
<circle cy="90.0" cx="1000.0" r="90.0"  />
<circle cy="270.0" cx="1000.0" r="90.0"  />
<circle cy="450.0" cx="1000.0" r="90.0"  />
<circle cy="630.0" cx="1000.0" r="90.0"  />
<circle cy="810.0" cx="1000.0" r="90.0"  />
<circle cy="990.0" cx="1000.0" r="90.0"  />
<circle cy="1170.0" cx="1000.0" r="90.0"  />
<circle cy="1350.0" cx="1000.0" r="90.0"  />
<circle cy="1530.0" cx="1000.0" r="90.0"  />
<circle cy="1710.0" cx="1000.0" r="90.0"  />
<circle cy="1890.0" cx="1000.0" r="90.0"  />
<circle cy="2070.0" cx="1000.0" r="90.0"  />
<circle cy="95.0" cx="1000.0" r="95.0"  />
<circle cy="285.0" cx="1000.0" r="95.0"  />
<circle cy="475.0" cx="1000.0" r="95.0"  />
<circle cy="665.0" cx="1000.0" r="95.0"  />
<circle cy="855.0" cx="1000.0" r="95.0"  />
<circle cy="1045.0" cx="1000.0" r="95.0"  />
<circle cy="1235.0" cx="1000.0" r="95.0"  />
<circle cy="1425.0" cx="1000.0" r="95.0"  />
<circle cy="1615.0" cx="1000.0" r="95.0"  />
<circle cy="1805.0" cx="1000.0" r="95.0"  />
<circle cy="1995.0" cx="1000.0" r="95.0"  />
<circle cy="100.0" cx="1000.0" r="100.0"  />
<circle cy="300.0" cx="1000.0" r="100.0"  />
<circle cy="500.0" cx="1000.0" r="100.0"  />
<circle cy="700.0" cx="1000.0" r="100.0"  />
<circle cy="900.0" cx="1000.0" r="100.0"  />
<circle cy="1100.0" cx="1000.0" r="100.0"  />
<circle cy="1300.0" cx="1000.0" r="100.0"  />
<circle cy="1500.0" cx="1000.0" r="100.0"  />
<circle cy="1700.0" cx="1000.0" r="100.0"  />
<circle cy="1900.0" cx="1000.0" r="100.0"  />
<circle cy="105.0" cx="1000.0" r="105.0"  />
<circle cy="315.0" cx="1000.0" r="105.0"  />
<circle cy="525.0" cx="1000.0" r="105.0"  />
<circle cy="735.0" cx="1000.0" r="105.0"  />
<circle cy="945.0" cx="1000.0" r="105.0"  />
<circle cy="1155.0" cx="1000.0" r="105.0"  />
<circle cy="1365.0" cx="1000.0" r="105.0"  />
<circle cy="1575.0" cx="1000.0" r="105.0"  />
<circle cy="1785.0" cx="1000.0" r="105.0"  />
<circle cy="1995.0" cx="1000.0" r="105.0"  />
<circle cy="110.0" cx="1000.0" r="110.0"  />
<circle cy="330.0" cx="1000.0" r="110.0"  />
<circle cy="550.0" cx="1000.0" r="110.0"  />
<circle cy="770.0" cx="1000.0" r="110.0"  />
<circle cy="990.0" cx="1000.0" r="110.0"  />
<circle cy="1210.0" cx="1000.0" r="110.0"  />
<circle cy="1430.0" cx="1000.0" r="110.0"  />
<circle cy="1650.0" cx="1000.0" r="110.0"  />
<circle cy="1870.0" cx="1000.0" r="110.0"  />
<circle cy="2090.0" cx="1000.0" r="110.0"  />
<circle cy="115.0" cx="1000.0" r="115.0"  />
<circle cy="345.0" cx="1000.0" r="115.0"  />
<circle cy="575.0" cx="1000.0" r="115.0"  />
<circle cy="805.0" cx="1000.0" r="115.0"  />
<circle cy="1035.0" cx="1000.0" r="115.0"  />
<circle cy="1265.0" cx="1000.0" r="115.0"  />
<circle cy="1495.0" cx="1000.0" r="115.0"  />
<circle cy="1725.0" cx="1000.0" r="115.0"  />
<circle cy="1955.0" cx="1000.0" r="115.0"  />
<circle cy="120.0" cx="1000.0" r="120.0"  />
<circle cy="360.0" cx="1000.0" r="120.0"  />
<circle cy="600.0" cx="1000.0" r="120.0"  />
<circle cy="840.0" cx="1000.0" r="120.0"  />
<circle cy="1080.0" cx="1000.0" r="120.0"  />
<circle cy="1320.0" cx="1000.0" r="120.0"  />
<circle cy="1560.0" cx="1000.0" r="120.0"  />
<circle cy="1800.0" cx="1000.0" r="120.0"  />
<circle cy="2040.0" cx="1000.0" r="120.0"  />
<circle cy="125.0" cx="1000.0" r="125.0"  />
<circle cy="375.0" cx="1000.0" r="125.0"  />
<circle cy="625.0" cx="1000.0" r="125.0"  />
<circle cy="875.0" cx="1000.0" r="125.0"  />
<circle cy="1125.0" cx="1000.0" r="125.0"  />
<circle cy="1375.0" cx="1000.0" r="125.0"  />
<circle cy="1625.0" cx="1000.0" r="125.0"  />
<circle cy="1875.0" cx="1000.0" r="125.0"  />
<circle cy="130.0" cx="1000.0" r="130.0"  />
<circle cy="390.0" cx="1000.0" r="130.0"  />
<circle cy="650.0" cx="1000.0" r="130.0"  />
<circle cy="910.0" cx="1000.0" r="130.0"  />
<circle cy="1170.0" cx="1000.0" r="130.0"  />
<circle cy="1430.0" cx="1000.0" r="130.0"  />
<circle cy="1690.0" cx="1000.0" r="130.0"  />
<circle cy="1950.0" cx="1000.0" r="130.0"  />
<circle cy="135.0" cx="1000.0" r="135.0"  />
<circle cy="405.0" cx="1000.0" r="135.0"  />
<circle cy="675.0" cx="1000.0" r="135.0"  />
<circle cy="945.0" cx="1000.0" r="135.0"  />
<circle cy="1215.0" cx="1000.0" r="135.0"  />
<circle cy="1485.0" cx="1000.0" r="135.0"  />
<circle cy="1755.0" cx="1000.0" r="135.0"  />
<circle cy="2025.0" cx="1000.0" r="135.0"  />
<circle cy="140.0" cx="1000.0" r="140.0"  />
<circle cy="420.0" cx="1000.0" r="140.0"  />
<circle cy="700.0" cx="1000.0" r="140.0"  />
<circle cy="980.0" cx="1000.0" r="140.0"  />
<circle cy="1260.0" cx="1000.0" r="140.0"  />
<circle cy="1540.0" cx="1000.0" r="140.0"  />
<circle cy="1820.0" cx="1000.0" r="140.0"  />
<circle cy="2100.0" cx="1000.0" r="140.0"  />
<circle cy="145.0" cx="1000.0" r="145.0"  />
<circle cy="435.0" cx="1000.0" r="145.0"  />
<circle cy="725.0" cx="1000.0" r="145.0"  />
<circle cy="1015.0" cx="1000.0" r="145.0"  />
<circle cy="1305.0" cx="1000.0" r="145.0"  />
<circle cy="1595.0" cx="1000.0" r="145.0"  />
<circle cy="1885.0" cx="1000.0" r="145.0"  />
<circle cy="150.0" cx="1000.0" r="150.0"  />
<circle cy="450.0" cx="1000.0" r="150.0"  />
<circle cy="750.0" cx="1000.0" r="150.0"  />
<circle cy="1050.0" cx="1000.0" r="150.0"  />
<circle cy="1350.0" cx="1000.0" r="150.0"  />
<circle cy="1650.0" cx="1000.0" r="150.0"  />
<circle cy="1950.0" cx="1000.0" r="150.0"  />
<circle cy="155.0" cx="1000.0" r="155.0"  />
<circle cy="465.0" cx="1000.0" r="155.0"  />
<circle cy="775.0" cx="1000.0" r="155.0"  />
<circle cy="1085.0" cx="1000.0" r="155.0"  />
<circle cy="1395.0" cx="1000.0" r="155.0"  />
<circle cy="1705.0" cx="1000.0" r="155.0"  />
<circle cy="2015.0" cx="1000.0" r="155.0"  />
<circle cy="160.0" cx="1000.0" r="160.0"  />
<circle cy="480.0" cx="1000.0" r="160.0"  />
<circle cy="800.0" cx="1000.0" r="160.0"  />
<circle cy="1120.0" cx="1000.0" r="160.0"  />
<circle cy="1440.0" cx="1000.0" r="160.0"  />
<circle cy="1760.0" cx="1000.0" r="160.0"  />
<circle cy="2080.0" cx="1000.0" r="160.0"  />
<circle cy="165.0" cx="1000.0" r="165.0"  />
<circle cy="495.0" cx="1000.0" r="165.0"  />
<circle cy="825.0" cx="1000.0" r="165.0"  />
<circle cy="1155.0" cx="1000.0" r="165.0"  />
<circle cy="1485.0" cx="1000.0" r="165.0"  />
<circle cy="1815.0" cx="1000.0" r="165.0"  />
<circle cy="2145.0" cx="1000.0" r="165.0"  />
<circle cy="170.0" cx="1000.0" r="170.0"  />
<circle cy="510.0" cx="1000.0" r="170.0"  />
<circle cy="850.0" cx="1000.0" r="170.0"  />
<circle cy="1190.0" cx="1000.0" r="170.0"  />
<circle cy="1530.0" cx="1000.0" r="170.0"  />
<circle cy="1870.0" cx="1000.0" r="170.0"  />
<circle cy="175.0" cx="1000.0" r="175.0"  />
<circle cy="525.0" cx="1000.0" r="175.0"  />
<circle cy="875.0" cx="1000.0" r="175.0"  />
<circle cy="1225.0" cx="1000.0" r="175.0"  />
<circle cy="1575.0" cx="1000.0" r="175.0"  />
<circle cy="1925.0" cx="1000.0" r="175.0"  />
<circle cy="180.0" cx="1000.0" r="180.0"  />
<circle cy="540.0" cx="1000.0" r="180.0"  />
<circle cy="900.0" cx="1000.0" r="180.0"  />
<circle cy="1260.0" cx="1000.0" r="180.0"  />
<circle cy="1620.0" cx="1000.0" r="180.0"  />
<circle cy="1980.0" cx="1000.0" r="180.0"  />
<circle cy="185.0" cx="1000.0" r="185.0"  />
<circle cy="555.0" cx="1000.0" r="185.0"  />
<circle cy="925.0" cx="1000.0" r="185.0"  />
<circle cy="1295.0" cx="1000.0" r="185.0"  />
<circle cy="1665.0" cx="1000.0" r="185.0"  />
<circle cy="2035.0" cx="1000.0" r="185.0"  />
<circle cy="190.0" cx="1000.0" r="190.0"  />
<circle cy="570.0" cx="1000.0" r="190.0"  />
<circle cy="950.0" cx="1000.0" r="190.0"  />
<circle cy="1330.0" cx="1000.0" r="190.0"  />
<circle cy="1710.0" cx="1000.0" r="190.0"  />
<circle cy="2090.0" cx="1000.0" r="190.0"  />
<circle cy="195.0" cx="1000.0" r="195.0"  />
<circle cy="585.0" cx="1000.0" r="195.0"  />
<circle cy="975.0" cx="1000.0" r="195.0"  />
<circle cy="1365.0" cx="1000.0" r="195.0"  />
<circle cy="1755.0" cx="1000.0" r="195.0"  />
<circle cy="2145.0" cx="1000.0" r="195.0"  />
<circle cy="200.0" cx="1000.0" r="200.0"  />
<circle cy="600.0" cx="1000.0" r="200.0"  />
<circle cy="1000.0" cx="1000.0" r="200.0"  />
<circle cy="1400.0" cx="1000.0" r="200.0"  />
<circle cy="1800.0" cx="1000.0" r="200.0"  />
<circle cy="205.0" cx="1000.0" r="205.0"  />
<circle cy="615.0" cx="1000.0" r="205.0"  />
<circle cy="1025.0" cx="1000.0" r="205.0"  />
<circle cy="1435.0" cx="1000.0" r="205.0"  />
<circle cy="1845.0" cx="1000.0" r="205.0"  />
<circle cy="210.0" cx="1000.0" r="210.0"  />
<circle cy="630.0" cx="1000.0" r="210.0"  />
<circle cy="1050.0" cx="1000.0" r="210.0"  />
<circle cy="1470.0" cx="1000.0" r="210.0"  />
<circle cy="1890.0" cx="1000.0" r="210.0"  />
<circle cy="215.0" cx="1000.0" r="215.0"  />
<circle cy="645.0" cx="1000.0" r="215.0"  />
<circle cy="1075.0" cx="1000.0" r="215.0"  />
<circle cy="1505.0" cx="1000.0" r="215.0"  />
<circle cy="1935.0" cx="1000.0" r="215.0"  />
<circle cy="220.0" cx="1000.0" r="220.0"  />
<circle cy="660.0" cx="1000.0" r="220.0"  />
<circle cy="1100.0" cx="1000.0" r="220.0"  />
<circle cy="1540.0" cx="1000.0" r="220.0"  />
<circle cy="1980.0" cx="1000.0" r="220.0"  />
<circle cy="225.0" cx="1000.0" r="225.0"  />
<circle cy="675.0" cx="1000.0" r="225.0"  />
<circle cy="1125.0" cx="1000.0" r="225.0"  />
<circle cy="1575.0" cx="1000.0" r="225.0"  />
<circle cy="2025.0" cx="1000.0" r="225.0"  />
<circle cy="230.0" cx="1000.0" r="230.0"  />
<circle cy="690.0" cx="1000.0" r="230.0"  />
<circle cy="1150.0" cx="1000.0" r="230.0"  />
<circle cy="1610.0" cx="1000.0" r="230.0"  />
<circle cy="2070.0" cx="1000.0" r="230.0"  />
<circle cy="235.0" cx="1000.0" r="235.0"  />
<circle cy="705.0" cx="1000.0" r="235.0"  />
<circle cy="1175.0" cx="1000.0" r="235.0"  />
<circle cy="1645.0" cx="1000.0" r="235.0"  />
<circle cy="2115.0" cx="1000.0" r="235.0"  />
<circle cy="240.0" cx="1000.0" r="240.0"  />
<circle cy="720.0" cx="1000.0" r="240.0"  />
<circle cy="1200.0" cx="1000.0" r="240.0"  />
<circle cy="1680.0" cx="1000.0" r="240.0"  />
<circle cy="2160.0" cx="1000.0" r="240.0"  />
<circle cy="245.0" cx="1000.0" r="245.0"  />
<circle cy="735.0" cx="1000.0" r="245.0"  />
<circle cy="1225.0" cx="1000.0" r="245.0"  />
<circle cy="1715.0" cx="1000.0" r="245.0"  />
<circle cy="2205.0" cx="1000.0" r="245.0"  />
<circle cy="250.0" cx="1000.0" r="250.0"  />
<circle cy="750.0" cx="1000.0" r="250.0"  />
<circle cy="1250.0" cx="1000.0" r="250.0"  />
<circle cy="1750.0" cx="1000.0" r="250.0"  />
<circle cy="255.0" cx="1000.0" r="255.0"  />
<circle cy="765.0" cx="1000.0" r="255.0"  />
<circle cy="1275.0" cx="1000.0" r="255.0"  />
<circle cy="1785.0" cx="1000.0" r="255.0"  />
<circle cy="260.0" cx="1000.0" r="260.0"  />
<circle cy="780.0" cx="1000.0" r="260.0"  />
<circle cy="1300.0" cx="1000.0" r="260.0"  />
<circle cy="1820.0" cx="1000.0" r="260.0"  />
<circle cy="265.0" cx="1000.0" r="265.0"  />
<circle cy="795.0" cx="1000.0" r="265.0"  />
<circle cy="1325.0" cx="1000.0" r="265.0"  />
<circle cy="1855.0" cx="1000.0" r="265.0"  />
<circle cy="270.0" cx="1000.0" r="270.0"  />
<circle cy="810.0" cx="1000.0" r="270.0"  />
<circle cy="1350.0" cx="1000.0" r="270.0"  />
<circle cy="1890.0" cx="1000.0" r="270.0"  />
<circle cy="275.0" cx="1000.0" r="275.0"  />
<circle cy="825.0" cx="1000.0" r="275.0"  />
<circle cy="1375.0" cx="1000.0" r="275.0"  />
<circle cy="1925.0" cx="1000.0" r="275.0"  />
<circle cy="280.0" cx="1000.0" r="280.0"  />
<circle cy="840.0" cx="1000.0" r="280.0"  />
<circle cy="1400.0" cx="1000.0" r="280.0"  />
<circle cy="1960.0" cx="1000.0" r="280.0"  />
<circle cy="285.0" cx="1000.0" r="285.0"  />
<circle cy="855.0" cx="1000.0" r="285.0"  />
<circle cy="1425.0" cx="1000.0" r="285.0"  />
<circle cy="1995.0" cx="1000.0" r="285.0"  />
<circle cy="290.0" cx="1000.0" r="290.0"  />
<circle cy="870.0" cx="1000.0" r="290.0"  />
<circle cy="1450.0" cx="1000.0" r="290.0"  />
<circle cy="2030.0" cx="1000.0" r="290.0"  />
<circle cy="295.0" cx="1000.0" r="295.0"  />
<circle cy="885.0" cx="1000.0" r="295.0"  />
<circle cy="1475.0" cx="1000.0" r="295.0"  />
<circle cy="2065.0" cx="1000.0" r="295.0"  />
<circle cy="300.0" cx="1000.0" r="300.0"  />
<circle cy="900.0" cx="1000.0" r="300.0"  />
<circle cy="1500.0" cx="1000.0" r="300.0"  />
<circle cy="2100.0" cx="1000.0" r="300.0"  />
<circle cy="305.0" cx="1000.0" r="305.0"  />
<circle cy="915.0" cx="1000.0" r="305.0"  />
<circle cy="1525.0" cx="1000.0" r="305.0"  />
<circle cy="2135.0" cx="1000.0" r="305.0"  />
<circle cy="310.0" cx="1000.0" r="310.0"  />
<circle cy="930.0" cx="1000.0" r="310.0"  />
<circle cy="1550.0" cx="1000.0" r="310.0"  />
<circle cy="2170.0" cx="1000.0" r="310.0"  />
<circle cy="315.0" cx="1000.0" r="315.0"  />
<circle cy="945.0" cx="1000.0" r="315.0"  />
<circle cy="1575.0" cx="1000.0" r="315.0"  />
<circle cy="2205.0" cx="1000.0" r="315.0"  />
<circle cy="320.0" cx="1000.0" r="320.0"  />
<circle cy="960.0" cx="1000.0" r="320.0"  />
<circle cy="1600.0" cx="1000.0" r="320.0"  />
<circle cy="2240.0" cx="1000.0" r="320.0"  />
<circle cy="325.0" cx="1000.0" r="325.0"  />
<circle cy="975.0" cx="1000.0" r="325.0"  />
<circle cy="1625.0" cx="1000.0" r="325.0"  />
<circle cy="2275.0" cx="1000.0" r="325.0"  />
<circle cy="330.0" cx="1000.0" r="330.0"  />
<circle cy="990.0" cx="1000.0" r="330.0"  />
<circle cy="1650.0" cx="1000.0" r="330.0"  />
<circle cy="2310.0" cx="1000.0" r="330.0"  />
<circle cy="335.0" cx="1000.0" r="335.0"  />
<circle cy="1005.0" cx="1000.0" r="335.0"  />
<circle cy="1675.0" cx="1000.0" r="335.0"  />
<circle cy="340.0" cx="1000.0" r="340.0"  />
<circle cy="1020.0" cx="1000.0" r="340.0"  />
<circle cy="1700.0" cx="1000.0" r="340.0"  />
<circle cy="345.0" cx="1000.0" r="345.0"  />
<circle cy="1035.0" cx="1000.0" r="345.0"  />
<circle cy="1725.0" cx="1000.0" r="345.0"  />
<circle cy="350.0" cx="1000.0" r="350.0"  />
<circle cy="1050.0" cx="1000.0" r="350.0"  />
<circle cy="1750.0" cx="1000.0" r="350.0"  />
<circle cy="355.0" cx="1000.0" r="355.0"  />
<circle cy="1065.0" cx="1000.0" r="355.0"  />
<circle cy="1775.0" cx="1000.0" r="355.0"  />
<circle cy="360.0" cx="1000.0" r="360.0"  />
<circle cy="1080.0" cx="1000.0" r="360.0"  />
<circle cy="1800.0" cx="1000.0" r="360.0"  />
<circle cy="365.0" cx="1000.0" r="365.0"  />
<circle cy="1095.0" cx="1000.0" r="365.0"  />
<circle cy="1825.0" cx="1000.0" r="365.0"  />
<circle cy="370.0" cx="1000.0" r="370.0"  />
<circle cy="1110.0" cx="1000.0" r="370.0"  />
<circle cy="1850.0" cx="1000.0" r="370.0"  />
<circle cy="375.0" cx="1000.0" r="375.0"  />
<circle cy="1125.0" cx="1000.0" r="375.0"  />
<circle cy="1875.0" cx="1000.0" r="375.0"  />
<circle cy="380.0" cx="1000.0" r="380.0"  />
<circle cy="1140.0" cx="1000.0" r="380.0"  />
<circle cy="1900.0" cx="1000.0" r="380.0"  />
<circle cy="385.0" cx="1000.0" r="385.0"  />
<circle cy="1155.0" cx="1000.0" r="385.0"  />
<circle cy="1925.0" cx="1000.0" r="385.0"  />
<circle cy="390.0" cx="1000.0" r="390.0"  />
<circle cy="1170.0" cx="1000.0" r="390.0"  />
<circle cy="1950.0" cx="1000.0" r="390.0"  />
<circle cy="395.0" cx="1000.0" r="395.0"  />
<circle cy="1185.0" cx="1000.0" r="395.0"  />
<circle cy="1975.0" cx="1000.0" r="395.0"  />
<circle cy="400.0" cx="1000.0" r="400.0"  />
<circle cy="1200.0" cx="1000.0" r="400.0"  />
<circle cy="2000.0" cx="1000.0" r="400.0"  />
<circle cy="405.0" cx="1000.0" r="405.0"  />
<circle cy="1215.0" cx="1000.0" r="405.0"  />
<circle cy="2025.0" cx="1000.0" r="405.0"  />
<circle cy="410.0" cx="1000.0" r="410.0"  />
<circle cy="1230.0" cx="1000.0" r="410.0"  />
<circle cy="2050.0" cx="1000.0" r="410.0"  />
<circle cy="415.0" cx="1000.0" r="415.0"  />
<circle cy="1245.0" cx="1000.0" r="415.0"  />
<circle cy="2075.0" cx="1000.0" r="415.0"  />
<circle cy="420.0" cx="1000.0" r="420.0"  />
<circle cy="1260.0" cx="1000.0" r="420.0"  />
<circle cy="2100.0" cx="1000.0" r="420.0"  />
<circle cy="425.0" cx="1000.0" r="425.0"  />
<circle cy="1275.0" cx="1000.0" r="425.0"  />
<circle cy="2125.0" cx="1000.0" r="425.0"  />
<circle cy="430.0" cx="1000.0" r="430.0"  />
<circle cy="1290.0" cx="1000.0" r="430.0"  />
<circle cy="2150.0" cx="1000.0" r="430.0"  />
<circle cy="435.0" cx="1000.0" r="435.0"  />
<circle cy="1305.0" cx="1000.0" r="435.0"  />
<circle cy="2175.0" cx="1000.0" r="435.0"  />
<circle cy="440.0" cx="1000.0" r="440.0"  />
<circle cy="1320.0" cx="1000.0" r="440.0"  />
<circle cy="2200.0" cx="1000.0" r="440.0"  />
<circle cy="445.0" cx="1000.0" r="445.0"  />
<circle cy="1335.0" cx="1000.0" r="445.0"  />
<circle cy="2225.0" cx="1000.0" r="445.0"  />
<circle cy="450.0" cx="1000.0" r="450.0"  />
<circle cy="1350.0" cx="1000.0" r="450.0"  />
<circle cy="2250.0" cx="1000.0" r="450.0"  />
<circle cy="455.0" cx="1000.0" r="455.0"  />
<circle cy="1365.0" cx="1000.0" r="455.0"  />
<circle cy="2275.0" cx="1000.0" r="455.0"  />
<circle cy="460.0" cx="1000.0" r="460.0"  />
<circle cy="1380.0" cx="1000.0" r="460.0"  />
<circle cy="2300.0" cx="1000.0" r="460.0"  />
<circle cy="465.0" cx="1000.0" r="465.0"  />
<circle cy="1395.0" cx="1000.0" r="465.0"  />
<circle cy="2325.0" cx="1000.0" r="465.0"  />
<circle cy="470.0" cx="1000.0" r="470.0"  />
<circle cy="1410.0" cx="1000.0" r="470.0"  />
<circle cy="2350.0" cx="1000.0" r="470.0"  />
<circle cy="475.0" cx="1000.0" r="475.0"  />
<circle cy="1425.0" cx="1000.0" r="475.0"  />
<circle cy="2375.0" cx="1000.0" r="475.0"  />
<circle cy="480.0" cx="1000.0" r="480.0"  />
<circle cy="1440.0" cx="1000.0" r="480.0"  />
<circle cy="2400.0" cx="1000.0" r="480.0"  />
<circle cy="485.0" cx="1000.0" r="485.0"  />
<circle cy="1455.0" cx="1000.0" r="485.0"  />
<circle cy="2425.0" cx="1000.0" r="485.0"  />
<circle cy="490.0" cx="1000.0" r="490.0"  />
<circle cy="1470.0" cx="1000.0" r="490.0"  />
<circle cy="2450.0" cx="1000.0" r="490.0"  />
<circle cy="495.0" cx="1000.0" r="495.0"  />
<circle cy="1485.0" cx="1000.0" r="495.0"  />
<circle cy="2475.0" cx="1000.0" r="495.0"  />
<circle cy="500.0" cx="1000.0" r="500.0"  />
<circle cy="1500.0" cx="1000.0" r="500.0"  />
<circle cy="505.0" cx="1000.0" r="505.0"  />
<circle cy="1515.0" cx="1000.0" r="505.0"  />
<circle cy="510.0" cx="1000.0" r="510.0"  />
<circle cy="1530.0" cx="1000.0" r="510.0"  />
<circle cy="515.0" cx="1000.0" r="515.0"  />
<circle cy="1545.0" cx="1000.0" r="515.0"  />
<circle cy="520.0" cx="1000.0" r="520.0"  />
<circle cy="1560.0" cx="1000.0" r="520.0"  />
<circle cy="525.0" cx="1000.0" r="525.0"  />
<circle cy="1575.0" cx="1000.0" r="525.0"  />
<circle cy="530.0" cx="1000.0" r="530.0"  />
<circle cy="1590.0" cx="1000.0" r="530.0"  />
<circle cy="535.0" cx="1000.0" r="535.0"  />
<circle cy="1605.0" cx="1000.0" r="535.0"  />
<circle cy="540.0" cx="1000.0" r="540.0"  />
<circle cy="1620.0" cx="1000.0" r="540.0"  />
<circle cy="545.0" cx="1000.0" r="545.0"  />
<circle cy="1635.0" cx="1000.0" r="545.0"  />
<circle cy="550.0" cx="1000.0" r="550.0"  />
<circle cy="1650.0" cx="1000.0" r="550.0"  />
<circle cy="555.0" cx="1000.0" r="555.0"  />
<circle cy="1665.0" cx="1000.0" r="555.0"  />
<circle cy="560.0" cx="1000.0" r="560.0"  />
<circle cy="1680.0" cx="1000.0" r="560.0"  />
<circle cy="565.0" cx="1000.0" r="565.0"  />
<circle cy="1695.0" cx="1000.0" r="565.0"  />
<circle cy="570.0" cx="1000.0" r="570.0"  />
<circle cy="1710.0" cx="1000.0" r="570.0"  />
<circle cy="575.0" cx="1000.0" r="575.0"  />
<circle cy="1725.0" cx="1000.0" r="575.0"  />
<circle cy="580.0" cx="1000.0" r="580.0"  />
<circle cy="1740.0" cx="1000.0" r="580.0"  />
<circle cy="585.0" cx="1000.0" r="585.0"  />
<circle cy="1755.0" cx="1000.0" r="585.0"  />
<circle cy="590.0" cx="1000.0" r="590.0"  />
<circle cy="1770.0" cx="1000.0" r="590.0"  />
<circle cy="595.0" cx="1000.0" r="595.0"  />
<circle cy="1785.0" cx="1000.0" r="595.0"  />
<circle cy="600.0" cx="1000.0" r="600.0"  />
<circle cy="1800.0" cx="1000.0" r="600.0"  />
<circle cy="605.0" cx="1000.0" r="605.0"  />
<circle cy="1815.0" cx="1000.0" r="605.0"  />
<circle cy="610.0" cx="1000.0" r="610.0"  />
<circle cy="1830.0" cx="1000.0" r="610.0"  />
<circle cy="615.0" cx="1000.0" r="615.0"  />
<circle cy="1845.0" cx="1000.0" r="615.0"  />
<circle cy="620.0" cx="1000.0" r="620.0"  />
<circle cy="1860.0" cx="1000.0" r="620.0"  />
<circle cy="625.0" cx="1000.0" r="625.0"  />
<circle cy="1875.0" cx="1000.0" r="625.0"  />
<circle cy="630.0" cx="1000.0" r="630.0"  />
<circle cy="1890.0" cx="1000.0" r="630.0"  />
<circle cy="635.0" cx="1000.0" r="635.0"  />
<circle cy="1905.0" cx="1000.0" r="635.0"  />
<circle cy="640.0" cx="1000.0" r="640.0"  />
<circle cy="1920.0" cx="1000.0" r="640.0"  />
<circle cy="645.0" cx="1000.0" r="645.0"  />
<circle cy="1935.0" cx="1000.0" r="645.0"  />
<circle cy="650.0" cx="1000.0" r="650.0"  />
<circle cy="1950.0" cx="1000.0" r="650.0"  />
<circle cy="655.0" cx="1000.0" r="655.0"  />
<circle cy="1965.0" cx="1000.0" r="655.0"  />
<circle cy="660.0" cx="1000.0" r="660.0"  />
<circle cy="1980.0" cx="1000.0" r="660.0"  />
<circle cy="665.0" cx="1000.0" r="665.0"  />
<circle cy="1995.0" cx="1000.0" r="665.0"  />
<circle cy="670.0" cx="1000.0" r="670.0"  />
<circle cy="2010.0" cx="1000.0" r="670.0"  />
<circle cy="675.0" cx="1000.0" r="675.0"  />
<circle cy="2025.0" cx="1000.0" r="675.0"  />
<circle cy="680.0" cx="1000.0" r="680.0"  />
<circle cy="2040.0" cx="1000.0" r="680.0"  />
<circle cy="685.0" cx="1000.0" r="685.0"  />
<circle cy="2055.0" cx="1000.0" r="685.0"  />
<circle cy="690.0" cx="1000.0" r="690.0"  />
<circle cy="2070.0" cx="1000.0" r="690.0"  />
<circle cy="695.0" cx="1000.0" r="695.0"  />
<circle cy="2085.0" cx="1000.0" r="695.0"  />
<circle cy="700.0" cx="1000.0" r="700.0"  />
<circle cy="2100.0" cx="1000.0" r="700.0"  />
<circle cy="705.0" cx="1000.0" r="705.0"  />
<circle cy="2115.0" cx="1000.0" r="705.0"  />
<circle cy="710.0" cx="1000.0" r="710.0"  />
<circle cy="2130.0" cx="1000.0" r="710.0"  />
<circle cy="715.0" cx="1000.0" r="715.0"  />
<circle cy="2145.0" cx="1000.0" r="715.0"  />
<circle cy="720.0" cx="1000.0" r="720.0"  />
<circle cy="2160.0" cx="1000.0" r="720.0"  />
<circle cy="725.0" cx="1000.0" r="725.0"  />
<circle cy="2175.0" cx="1000.0" r="725.0"  />
<circle cy="730.0" cx="1000.0" r="730.0"  />
<circle cy="2190.0" cx="1000.0" r="730.0"  />
<circle cy="735.0" cx="1000.0" r="735.0"  />
<circle cy="2205.0" cx="1000.0" r="735.0"  />
<circle cy="740.0" cx="1000.0" r="740.0"  />
<circle cy="2220.0" cx="1000.0" r="740.0"  />
<circle cy="745.0" cx="1000.0" r="745.0"  />
<circle cy="2235.0" cx="1000.0" r="745.0"  />
<circle cy="750.0" cx="1000.0" r="750.0"  />
<circle cy="2250.0" cx="1000.0" r="750.0"  />
<circle cy="755.0" cx="1000.0" r="755.0"  />
<circle cy="2265.0" cx="1000.0" r="755.0"  />
<circle cy="760.0" cx="1000.0" r="760.0"  />
<circle cy="2280.0" cx="1000.0" r="760.0"  />
<circle cy="765.0" cx="1000.0" r="765.0"  />
<circle cy="2295.0" cx="1000.0" r="765.0"  />
<circle cy="770.0" cx="1000.0" r="770.0"  />
<circle cy="2310.0" cx="1000.0" r="770.0"  />
<circle cy="775.0" cx="1000.0" r="775.0"  />
<circle cy="2325.0" cx="1000.0" r="775.0"  />
<circle cy="780.0" cx="1000.0" r="780.0"  />
<circle cy="2340.0" cx="1000.0" r="780.0"  />
<circle cy="785.0" cx="1000.0" r="785.0"  />
<circle cy="2355.0" cx="1000.0" r="785.0"  />
<circle cy="790.0" cx="1000.0" r="790.0"  />
<circle cy="2370.0" cx="1000.0" r="790.0"  />
<circle cy="795.0" cx="1000.0" r="795.0"  />
<circle cy="2385.0" cx="1000.0" r="795.0"  />
<circle cy="800.0" cx="1000.0" r="800.0"  />
<circle cy="2400.0" cx="1000.0" r="800.0"  />
<circle cy="805.0" cx="1000.0" r="805.0"  />
<circle cy="2415.0" cx="1000.0" r="805.0"  />
<circle cy="810.0" cx="1000.0" r="810.0"  />
<circle cy="2430.0" cx="1000.0" r="810.0"  />
<circle cy="815.0" cx="1000.0" r="815.0"  />
<circle cy="2445.0" cx="1000.0" r="815.0"  />
<circle cy="820.0" cx="1000.0" r="820.0"  />
<circle cy="2460.0" cx="1000.0" r="820.0"  />
<circle cy="825.0" cx="1000.0" r="825.0"  />
<circle cy="2475.0" cx="1000.0" r="825.0"  />
<circle cy="830.0" cx="1000.0" r="830.0"  />
<circle cy="2490.0" cx="1000.0" r="830.0"  />
<circle cy="835.0" cx="1000.0" r="835.0"  />
<circle cy="2505.0" cx="1000.0" r="835.0"  />
<circle cy="840.0" cx="1000.0" r="840.0"  />
<circle cy="2520.0" cx="1000.0" r="840.0"  />
<circle cy="845.0" cx="1000.0" r="845.0"  />
<circle cy="2535.0" cx="1000.0" r="845.0"  />
<circle cy="850.0" cx="1000.0" r="850.0"  />
<circle cy="2550.0" cx="1000.0" r="850.0"  />
<circle cy="855.0" cx="1000.0" r="855.0"  />
<circle cy="2565.0" cx="1000.0" r="855.0"  />
<circle cy="860.0" cx="1000.0" r="860.0"  />
<circle cy="2580.0" cx="1000.0" r="860.0"  />
<circle cy="865.0" cx="1000.0" r="865.0"  />
<circle cy="2595.0" cx="1000.0" r="865.0"  />
<circle cy="870.0" cx="1000.0" r="870.0"  />
<circle cy="2610.0" cx="1000.0" r="870.0"  />
<circle cy="875.0" cx="1000.0" r="875.0"  />
<circle cy="2625.0" cx="1000.0" r="875.0"  />
<circle cy="880.0" cx="1000.0" r="880.0"  />
<circle cy="2640.0" cx="1000.0" r="880.0"  />
<circle cy="885.0" cx="1000.0" r="885.0"  />
<circle cy="2655.0" cx="1000.0" r="885.0"  />
<circle cy="890.0" cx="1000.0" r="890.0"  />
<circle cy="2670.0" cx="1000.0" r="890.0"  />
<circle cy="895.0" cx="1000.0" r="895.0"  />
<circle cy="2685.0" cx="1000.0" r="895.0"  />
<circle cy="900.0" cx="1000.0" r="900.0"  />
<circle cy="2700.0" cx="1000.0" r="900.0"  />
<circle cy="905.0" cx="1000.0" r="905.0"  />
<circle cy="2715.0" cx="1000.0" r="905.0"  />
<circle cy="910.0" cx="1000.0" r="910.0"  />
<circle cy="2730.0" cx="1000.0" r="910.0"  />
<circle cy="915.0" cx="1000.0" r="915.0"  />
<circle cy="2745.0" cx="1000.0" r="915.0"  />
<circle cy="920.0" cx="1000.0" r="920.0"  />
<circle cy="2760.0" cx="1000.0" r="920.0"  />
<circle cy="925.0" cx="1000.0" r="925.0"  />
<circle cy="2775.0" cx="1000.0" r="925.0"  />
<circle cy="930.0" cx="1000.0" r="930.0"  />
<circle cy="2790.0" cx="1000.0" r="930.0"  />
<circle cy="935.0" cx="1000.0" r="935.0"  />
<circle cy="2805.0" cx="1000.0" r="935.0"  />
<circle cy="940.0" cx="1000.0" r="940.0"  />
<circle cy="2820.0" cx="1000.0" r="940.0"  />
<circle cy="945.0" cx="1000.0" r="945.0"  />
<circle cy="2835.0" cx="1000.0" r="945.0"  />
<circle cy="950.0" cx="1000.0" r="950.0"  />
<circle cy="2850.0" cx="1000.0" r="950.0"  />
<circle cy="955.0" cx="1000.0" r="955.0"  />
<circle cy="2865.0" cx="1000.0" r="955.0"  />
<circle cy="960.0" cx="1000.0" r="960.0"  />
<circle cy="2880.0" cx="1000.0" r="960.0"  />
<circle cy="965.0" cx="1000.0" r="965.0"  />
<circle cy="2895.0" cx="1000.0" r="965.0"  />
<circle cy="970.0" cx="1000.0" r="970.0"  />
<circle cy="2910.0" cx="1000.0" r="970.0"  />
<circle cy="975.0" cx="1000.0" r="975.0"  />
<circle cy="2925.0" cx="1000.0" r="975.0"  />
<circle cy="980.0" cx="1000.0" r="980.0"  />
<circle cy="2940.0" cx="1000.0" r="980.0"  />
<circle cy="985.0" cx="1000.0" r="985.0"  />
<circle cy="2955.0" cx="1000.0" r="985.0"  />
<circle cy="990.0" cx="1000.0" r="990.0"  />
<circle cy="2970.0" cx="1000.0" r="990.0"  />
<circle cy="995.0" cx="1000.0" r="995.0"  />
<circle cy="2985.0" cx="1000.0" r="995.0"  />
<circle cy="1000.0" cx="1000.0" r="1000.0"  />
</g>
</svg>
