<svg xmlns="http://www.w3.org/2000/svg" width="500" height="500"><path d="M4155.818 4079.037v-19.25M4227.578 4013.127v-19.26M5020.208 3579.977v-19.25M5069.518 3549.097v-19.25M5679.468 3276.087l-83.51-48.22M5512.438 3179.647l-83.52-48.22M5428.918 3160.357v-28.93M3437.048 4006.587v-28.93M5140.788 2994.007l-1703.74 983.65M4251.338 3743.807l83.52 48.21M4334.858 3792.017l25.05-14.46M5345.408 3083.207v28.94M4501.888 3888.457l25.05-14.47M4526.938 3873.987l-83.51-48.21M4443.428 3825.777l-25.06 14.46M4418.368 3840.237l83.52 48.22M4205.118 4048.157v-19.25M5512.438 3179.647v28.93M4113.858 4091.797l-196.78-30.44M3921.398 3927.257l304.86 47.16M5083.638 3532.027l-340.84-52.73M4856.508 3400.627l196.78 30.44M5091.968 3514.067v-19.26M4756.198 3539.137l264.01 40.84M4230.138 3994.267l-329.29-50.94M3886.738 3960.397l340.84 52.73M4167.818 3695.587l25.06-14.47M4184.568 4064.237l-304.85-47.17M3992.108 3899.687l196.79 30.44M5094.528 3495.207l-329.28-50.94M4740.238 3498.157l329.28 50.94M3508.038 4076.507l25.06-14.46M3533.098 4062.047l-96.05-55.46M5512.438 3208.577l-25.06 14.47M3950.678 4303.137l-25.05 14.46M5140.788 3022.937l-1703.74 983.65M5140.788 3022.937l96.05 55.45M5320.348 3126.607l83.52 48.22M5487.378 3223.047l83.52 48.22M3700.128 4158.477l-83.52-48.22M4740.238 3498.157v-2.95M5261.888 3063.927v-28.93M5679.468 3305.017l-25.05 14.46M5153.318 3705.227l83.52-48.22M4785.798 3428.197l304.86 47.16M5654.418 3319.477l83.51 48.22M5679.468 3305.017l-83.51-48.22M5654.418 3415.917l83.51-48.22M5140.788 2994.007v28.93M3891.798 4038.197l264.02 40.84M4318.148 4187.407l83.52-48.21M5654.418 3415.917l-25.06-14.46M5570.898 3271.267l25.06-14.47M5211.778 3642.547l25.06 14.46M5128.258 3690.757l-83.51 48.22M3891.798 4038.197v-19.26M5153.318 3705.227l-25.06-14.47M5320.348 3608.787l83.52-48.21M4986.288 3801.667l83.51-48.22M4460.128 4076.507l-83.52 48.22M4652.218 3994.537l16.7-9.64M3875.838 3997.217l329.28 50.94M5295.298 3594.327l-83.52 48.22M5320.348 3608.787l-25.05-14.46M5078.568 3454.227l-264.01-40.84M4126.068 4269.377l-83.52 48.22M5487.378 3512.357l-25.05-14.47M3508.038 4076.507l83.52 48.22M4359.908 3777.557l-83.52-48.22M3616.608 4110.257l-25.05 14.47M5487.378 3512.357l83.52-48.22M5345.408 3112.147l-83.52-48.22M4034.198 4351.357l33.4-19.29M5545.848 3449.667l25.05 14.47M5236.838 3078.387l25.05-14.46M4151.118 4283.847l-25.05-14.47M5679.468 3276.087v28.93M5048.968 3565.177l-304.86-47.16M5345.408 3112.147l-25.06 14.46M5629.358 3401.457l-83.51 48.21M4121.888 3640.137l-25.06 14.46M3675.078 4172.947l25.05-14.47M3675.078 4172.947l83.51 48.22M3783.648 4206.697l-25.06 14.47M5345.408 3083.207l-83.52-48.21M4585.408 3936.677l83.51 48.22M5462.328 3497.887l-83.52 48.22M3867.158 4254.917l-83.51-48.22M3842.108 4269.377l25.05-14.46M4794.198 3883.637l-83.52 48.22M3842.108 4269.377l83.52 48.22M5595.958 3256.797v-28.93M4986.288 3801.667l-25.06-14.47M4034.198 4351.357l-83.52-48.22M4042.548 4317.597l25.05 14.47M4293.098 4172.947l-83.52 48.22M4192.878 3681.117l-70.99-40.98M4096.828 3654.597l70.99 40.99M4151.118 4283.847l83.52-48.22M4214.168 3953.287l-264.01-40.84M4978.258 3592.737l-196.78-30.44M4485.188 4090.977l-25.06-14.47M4209.578 4221.167l25.06 14.46M4485.188 4090.977l83.51-48.22M4693.978 3970.427l41.76-24.11M5403.868 3174.827l25.05-14.47M4543.648 4028.287l25.05 14.47M4652.218 3994.537l-25.06-14.47M3875.838 3997.217v-2.95M4756.198 3539.137v-19.26M4877.708 3835.417l25.06 14.47M4610.458 3922.207l-25.05 14.47M4751.128 3461.337l340.84 52.73M5044.748 3738.977l25.05 14.47M4693.978 3970.427l-83.52-48.22M4710.678 3931.857l25.06 14.46M4819.248 3898.097l-25.05-14.46M5378.808 3546.107l25.06 14.47M4376.608 4124.727l25.06 14.47M4627.158 3980.067l-83.51 48.22M4819.248 3898.097l83.52-48.21M4276.388 3729.337l-25.05 14.47M4961.228 3787.197l-83.52 48.22M5512.438 3208.577l-83.52-48.22M4318.148 4187.407l-25.05-14.46M4219.238 4031.087l-340.84-52.73M5208.258 3496.687c0-7.536-10.577-13.642-23.623-13.642s-23.622 6.106-23.622 13.638 10.576 13.638 23.622 13.638 23.622-6.106 23.622-13.638M4076.608 4150.037c0-7.528-10.576-13.634-23.622-13.634s-23.622 6.106-23.622 13.638 10.576 13.638 23.622 13.638 23.622-6.106 23.622-13.638M4343.858 3995.747c0-7.537-10.573-13.643-23.62-13.643-13.045 0-23.621 6.106-23.621 13.639s10.576 13.638 23.622 13.638 23.622-6.106 23.622-13.638M4076.608 3841.447c0-7.535-10.576-13.641-23.622-13.641s-23.622 6.106-23.622 13.638 10.576 13.638 23.622 13.638 23.622-6.106 23.622-13.638M4941.008 3650.977c0-7.527-10.58-13.633-23.626-13.633s-23.622 6.106-23.622 13.638 10.576 13.638 23.622 13.638 23.622-6.106 23.622-13.638M3917.078 4061.357c33.66 23.242 83.434 36.672 135.908 36.672 20.767 0 41.373-2.108 60.875-6.228M3950.158 3912.447c-10.489 4.317-20.132 9.281-28.758 14.805M4226.258 3974.417c-2.687-7.277-6.74-14.36-12.086-21.126M4814.558 3413.387c-10.493 4.318-20.136 9.282-28.761 14.806M3878.398 3978.357c-1.715 5.745-2.577 11.56-2.577 17.386 0 .492.01.983.018 1.475M3809.358 3995.747c0-7.537-10.579-13.643-23.625-13.643s-23.622 6.106-23.622 13.639 10.576 13.638 23.622 13.638 23.622-6.106 23.622-13.638M5091.968 3514.067c1.718-5.743 2.58-11.558 2.58-17.384 0-.492-.01-.984-.02-1.476M5053.288 3431.067c-33.658-23.24-83.432-36.67-135.906-36.67-20.767 0-41.372 2.108-60.875 6.228M4781.478 3562.297c33.657 23.243 83.43 36.673 135.904 36.673 20.767 0 41.373-2.108 60.876-6.228M4205.118 4048.157c5.612-5.425 10.337-11.139 14.12-17.068M5090.658 3475.357c-2.691-7.276-6.743-14.36-12.09-21.126M3879.718 4017.067c2.683 7.278 6.735 14.361 12.082 21.127M4227.578 4013.127c1.711-5.743 2.573-11.559 2.573-17.384 0-.492-.01-.984-.018-1.476M4765.248 3444.267c-5.61 5.426-10.335 11.14-14.117 17.07M4188.898 3930.127c-33.665-23.241-83.439-36.67-135.912-36.67-20.767 0-41.373 2.107-60.875 6.227M3900.848 3943.327c-5.606 5.426-10.332 11.14-14.113 17.07M5020.208 3579.977c10.491-4.315 20.134-9.28 28.76-14.803M4673.748 3496.687c0-7.536-10.573-13.642-23.619-13.642s-23.622 6.106-23.622 13.638 10.576 13.638 23.622 13.638 23.622-6.106 23.622-13.638M4155.818 4079.037c10.485-4.316 20.128-9.28 28.754-14.804M4941.008 3342.387c0-7.535-10.58-13.64-23.626-13.64s-23.622 6.105-23.622 13.638 10.576 13.638 23.622 13.638 23.622-6.106 23.622-13.638M4742.798 3479.297c-1.719 5.745-2.581 11.56-2.581 17.386 0 .492.01.984.018 1.476M5069.518 3549.097c5.608-5.424 10.334-11.138 14.116-17.068M4744.108 3518.017c2.69 7.269 6.741 14.352 12.088 21.118M3746.798 2360.477l50.11 28.93M3714.238 2532.607l-50.11-28.93M3796.908 2389.407c6.559 3.785 11.46 10.215 14.306 18.76M3798.788 2481.527a153 153 0 0 1-1.876 3.348c-22.831 39.544-59.847 60.915-82.677 47.734M3746.798 2360.477c22.834 13.181 22.834 55.923 0 95.467-22.83 39.544-59.847 60.915-82.677 47.734s-22.831-55.924 0-95.468c22.83-39.543 59.846-60.914 82.677-47.733" style="fill:none;stroke:#000;stroke-width:9.44882;stroke-linecap:round;stroke-linejoin:round;stroke-miterlimit:10;stroke-dasharray:none;stroke-opacity:1" transform="rotate(180 473.008 331.55)scale(.15172)"/><path d="m3631.738 2400.007 29.23-16.87M3596.238 2362.637l14.62-8.44M3548.218 2373.487l33.41-19.29" style="fill:none;stroke:#000;stroke-width:3.54331;stroke-linecap:round;stroke-linejoin:round;stroke-miterlimit:10;stroke-dasharray:none;stroke-opacity:1" transform="rotate(180 473.008 331.55)scale(.15172)"/><path d="M3629.558 2567.517v32.79M3593.648 2502.417l20.88-12.05M3593.648 2569.927l20.88-12.05M3609.518 2579.087l20.87-12.05M3614.528 2557.877v-67.51M3629.558 2745.927v32.79M3630.388 2499.527v67.51" style="fill:none;stroke:#000;stroke-width:9.44882;stroke-linecap:round;stroke-linejoin:round;stroke-miterlimit:10;stroke-dasharray:none;stroke-opacity:1" transform="rotate(180 473.008 331.55)scale(.15172)"/><path d="m3637.908 2706.387-7.52 4.34M3637.908 2773.887l-8.35 4.83" style="fill:none;stroke:#000;stroke-width:3.54331;stroke-linecap:round;stroke-linejoin:round;stroke-miterlimit:10;stroke-dasharray:none;stroke-opacity:1" transform="rotate(180 473.008 331.55)scale(.15172)"/><path d="m3593.648 2680.827 20.88-12.05M3593.648 2748.337l20.88-12.06M3630.388 2745.447l-15.86-9.17M3614.528 2736.277v-67.5" style="fill:none;stroke:#000;stroke-width:9.44882;stroke-linecap:round;stroke-linejoin:round;stroke-miterlimit:10;stroke-dasharray:none;stroke-opacity:1" transform="rotate(180 473.008 331.55)scale(.15172)"/><path d="m3637.908 2884.797-7.52 4.34" style="fill:none;stroke:#000;stroke-width:3.54331;stroke-linecap:round;stroke-linejoin:round;stroke-miterlimit:10;stroke-dasharray:none;stroke-opacity:1" transform="rotate(180 473.008 331.55)scale(.15172)"/><path d="M3630.388 2856.347v67.5M3630.388 2923.847l-15.86-9.16M3614.528 2914.687v-67.5" style="fill:none;stroke:#000;stroke-width:9.44882;stroke-linecap:round;stroke-linejoin:round;stroke-miterlimit:10;stroke-dasharray:none;stroke-opacity:1" transform="rotate(180 473.008 331.55)scale(.15172)"/><path d="m3637.908 3063.197-7.52 4.34M3637.908 3130.707l-8.35 4.82" style="fill:none;stroke:#000;stroke-width:3.54331;stroke-linecap:round;stroke-linejoin:round;stroke-miterlimit:10;stroke-dasharray:none;stroke-opacity:1" transform="rotate(180 473.008 331.55)scale(.15172)"/><path d="m3614.528 3025.587 15.86 9.16M3593.648 3105.147l20.88-12.05M3630.388 3102.257l-15.86-9.16M3609.518 3114.317l20.87-12.06" style="fill:none;stroke:#000;stroke-width:9.44882;stroke-linecap:round;stroke-linejoin:round;stroke-miterlimit:10;stroke-dasharray:none;stroke-opacity:1" transform="rotate(180 473.008 331.55)scale(.15172)"/><path d="m3637.908 3241.607-7.52 4.34" style="fill:none;stroke:#000;stroke-width:3.54331;stroke-linecap:round;stroke-linejoin:round;stroke-miterlimit:10;stroke-dasharray:none;stroke-opacity:1" transform="rotate(180 473.008 331.55)scale(.15172)"/><path d="M3736.638 3326.367v21.91M3724.108 3350.097v-23.35" style="fill:none;stroke:#000;stroke-width:9.44882;stroke-linecap:round;stroke-linejoin:round;stroke-miterlimit:10;stroke-dasharray:none;stroke-opacity:1" transform="rotate(180 473.008 331.55)scale(.15172)"/><path d="m3637.908 3309.117-8.35 4.82" style="fill:none;stroke:#000;stroke-width:3.54331;stroke-linecap:round;stroke-linejoin:round;stroke-miterlimit:10;stroke-dasharray:none;stroke-opacity:1" transform="rotate(180 473.008 331.55)scale(.15172)"/><path d="m3675.908 3361.427 25.66-14.81M3593.648 3216.057l20.88-12.06M3609.518 2935.907l20.87-12.06M3630.388 3213.157v67.51M3593.648 2859.237l20.88-12.05M3614.528 3271.507v-67.51M3614.528 3203.997l15.86 9.16" style="fill:none;stroke:#000;stroke-width:9.44882;stroke-linecap:round;stroke-linejoin:round;stroke-miterlimit:10;stroke-dasharray:none;stroke-opacity:1" transform="rotate(180 473.008 331.55)scale(.15172)"/><path d="m3637.908 2595.487-8.35 4.82" style="fill:none;stroke:#000;stroke-width:3.54331;stroke-linecap:round;stroke-linejoin:round;stroke-miterlimit:10;stroke-dasharray:none;stroke-opacity:1" transform="rotate(180 473.008 331.55)scale(.15172)"/><path d="M3629.558 2924.337v32.78M3609.518 3292.717l20.87-12.05M3684.858 3336.977l16.71 9.64M3743.978 2592.047v730.09M3732.938 3328.507l-16.71-9.64M3716.228 3318.867l11.04-6.38M3732.938 3328.507l11.04-6.37M3703.228 3468.817l-34.33-19.82M3731.958 3345.567l12.02 6.94M3681.638 3441.647l-33.41 19.28M3629.558 3281.147v32.79M3731.958 3345.567v53.04M3630.388 2567.037l-15.86-9.16M3659.208 3351.787l25.65-14.81" style="fill:none;stroke:#000;stroke-width:9.44882;stroke-linecap:round;stroke-linejoin:round;stroke-miterlimit:10;stroke-dasharray:none;stroke-opacity:1" transform="rotate(180 473.008 331.55)scale(.15172)"/><path d="m3731.958 3398.607 12.02 6.94" style="fill:none;stroke:#000;stroke-width:3.54331;stroke-linecap:round;stroke-linejoin:round;stroke-miterlimit:10;stroke-dasharray:none;stroke-opacity:1" transform="rotate(180 473.008 331.55)scale(.15172)"/><path d="m3690.198 3369.677 41.76-24.11M3618.698 3308.627l10.02 5.79M3637.908 3309.117v-67.51M3593.648 3216.057v67.5M3618.698 2951.817l10.02 5.79M3727.268 3312.487v-697.72M3637.908 2952.297v-67.5M3614.528 3093.097v-67.51M3593.648 2859.237v67.51M3630.388 2677.937v67.51M3593.648 2569.927l15.87 9.16M3609.518 2757.497l20.87-12.05M3618.698 2594.997l10.02 5.79M3637.908 2595.487v-67.51M3593.648 3105.147l15.87 9.17M3618.698 3130.227l10.02 5.78M3637.908 3130.707v-67.51M3593.648 3037.647v67.5M3743.978 3322.137l-16.71-9.65M3618.698 2773.407l10.02 5.79M3637.908 2773.887v-67.5M3727.988 3454.527l-24.76 14.29M3593.648 2680.827v67.51M3652.108 2490.467v857.22M3556.778 2354.567l33.41-19.29M3614.528 2668.777l15.86 9.16M3614.528 2847.187l15.86 9.16M3547.708 2416.597l99.78 57.6M3593.648 3283.557l20.88-12.05M3699.048 2638.527v16.58M3699.048 2816.937v16.58M3699.048 2995.347v16.58M3699.048 3173.747v16.59M3699.048 3348.067v16.5M3548.218 3379.327v-38.58M3627.558 3458.887l-50.11-28.94" style="fill:none;stroke:#000;stroke-width:9.44882;stroke-linecap:round;stroke-linejoin:round;stroke-miterlimit:10;stroke-dasharray:none;stroke-opacity:1" transform="rotate(180 473.008 331.55)scale(.15172)"/><path d="m3627.558 3458.887 33.41-19.29" style="fill:none;stroke:#000;stroke-width:3.54331;stroke-linecap:round;stroke-linejoin:round;stroke-miterlimit:10;stroke-dasharray:none;stroke-opacity:1" transform="rotate(180 473.008 331.55)scale(.15172)"/><path d="M3501.778 3313.937v-928.69M3501.778 2385.247l33.41-19.28M3630.388 3034.747v67.51M3548.218 3340.747l-46.44-26.81" style="fill:none;stroke:#000;stroke-width:9.44882;stroke-linecap:round;stroke-linejoin:round;stroke-miterlimit:10;stroke-dasharray:none;stroke-opacity:1" transform="rotate(180 473.008 331.55)scale(.15172)"/><path d="m3637.908 2952.297-8.35 4.82" style="fill:none;stroke:#000;stroke-width:3.54331;stroke-linecap:round;stroke-linejoin:round;stroke-miterlimit:10;stroke-dasharray:none;stroke-opacity:1" transform="rotate(180 473.008 331.55)scale(.15172)"/><path d="m3581.628 3321.457-33.41 19.29" style="fill:none;stroke:#000;stroke-width:9.44882;stroke-linecap:round;stroke-linejoin:round;stroke-miterlimit:10;stroke-dasharray:none;stroke-opacity:1" transform="rotate(180 473.008 331.55)scale(.15172)"/><path d="m3596.238 3368.477 14.62-8.44M3548.218 3379.327l33.41-19.29M3577.448 3429.947l33.41-19.28" style="fill:none;stroke:#000;stroke-width:3.54331;stroke-linecap:round;stroke-linejoin:round;stroke-miterlimit:10;stroke-dasharray:none;stroke-opacity:1" transform="rotate(180 473.008 331.55)scale(.15172)"/><path d="m3593.648 2926.747 20.88-12.06M3593.648 3283.557l15.87 9.16M3660.968 2383.137l-50.11-28.94M3629.558 3102.737v32.79M3610.858 2387.957l48.97 28.27M3593.648 2748.337l15.87 9.16M3660.968 3388.967l-50.11-28.93M3614.528 2490.367l15.86 9.16M3610.858 3393.787l50.11 28.93M3649.198 2446.257l-101.49-58.59M3593.648 2502.417v67.51M3547.708 2387.667v899.75" style="fill:none;stroke:#000;stroke-width:9.44882;stroke-linecap:round;stroke-linejoin:round;stroke-miterlimit:10;stroke-dasharray:none;stroke-opacity:1" transform="rotate(180 473.008 331.55)scale(.15172)"/><path d="m3637.908 2527.977-7.52 4.34" style="fill:none;stroke:#000;stroke-width:3.54331;stroke-linecap:round;stroke-linejoin:round;stroke-miterlimit:10;stroke-dasharray:none;stroke-opacity:1" transform="rotate(180 473.008 331.55)scale(.15172)"/><path d="m3547.708 3287.417 142.49 82.26M3690.198 3369.677v53.04M3742.748 3463.047l-46.44-26.81M3660.968 3439.597l-50.11-28.93M3501.778 3313.937l33.41-19.29M3581.628 3360.037v-38.58M3593.648 2926.747l15.87 9.16M3581.628 3321.457l-46.44-26.81M3593.648 3037.647l20.88-12.06M3535.188 3294.647v-928.68M3535.188 2365.967l46.44 26.81M3630.388 3280.667l-15.86-9.16" style="fill:none;stroke:#000;stroke-width:9.44882;stroke-linecap:round;stroke-linejoin:round;stroke-miterlimit:10;stroke-dasharray:none;stroke-opacity:1" transform="rotate(180 473.008 331.55)scale(.15172)"/><path d="m3631.738 3405.847 29.23-16.88" style="fill:none;stroke:#000;stroke-width:3.54331;stroke-linecap:round;stroke-linejoin:round;stroke-miterlimit:10;stroke-dasharray:none;stroke-opacity:1" transform="rotate(180 473.008 331.55)scale(.15172)"/><path d="M3581.628 2392.777v-38.58M3610.858 2337.327l50.11 28.93M3548.218 2373.487c0-8.95 3.079-15.757 8.56-18.922M3696.728 2656.107c-1.265-7.084.89-16.357 5.758-24.787 3.336-5.78 7.705-10.735 12.393-14.06M3660.968 2366.257c7.085 4.092 13.932 11.02 19.263 19.493M3610.858 3410.667c-7.756-4.478-15.191-12.327-20.673-21.822s-8.562-19.858-8.562-28.81" style="fill:none;stroke:#000;stroke-width:9.44882;stroke-linecap:round;stroke-linejoin:round;stroke-miterlimit:10;stroke-dasharray:none;stroke-opacity:1" transform="rotate(180 473.008 331.55)scale(.15172)"/><path d="M3703.888 2604.477c-6.625 2.58-13.36 8.981-18.106 17.2-8.154 14.122-8.154 29.387 0 34.095s21.374-2.925 29.528-17.048c3.915-6.782 6.115-14.184 6.115-20.578M3629.558 2957.117q0 .467-.036.907M3610.858 3360.037c-3.88-2.24-7.597-2.608-10.338-1.025-5.708 3.295-5.708 13.98 0 23.866 2.74 4.748 6.458 8.672 10.334 10.91M3660.968 3422.717c3.872 2.24 7.59 2.608 10.33 1.026 5.709-3.295 5.709-13.981 0-23.867-2.74-4.747-6.458-8.672-10.334-10.91M3637.908 2884.797c0-2.818-.967-6.075-2.69-9.059-1.315-2.277-2.997-4.27-4.826-5.716M3610.858 2354.197c-3.88-2.233-7.597-2.602-10.338-1.02-5.708 3.296-5.708 13.982 0 23.868 2.74 4.747 6.458 8.671 10.334 10.91M3775.238 3439.997a51 51 0 0 1-2.96 6.004c-8.154 14.122-21.374 21.755-29.528 17.047M3577.448 3429.947c-7.753-4.471-15.188-12.32-20.67-21.815-5.481-9.494-8.561-19.858-8.561-28.81M3690.198 3422.717c0 8.954-3.083 15.761-8.564 18.926-5.482 3.165-12.917 2.428-20.67-2.047M3685.778 3012.587c8.158 4.708 21.378-2.925 29.532-17.047s8.154-29.388 0-34.096-21.374 2.925-29.528 17.048-8.154 29.388 0 34.095M3696.728 2834.517c-1.265-7.086.89-16.36 5.758-24.79 4.867-8.43 11.82-14.933 18.586-17.384M3628.718 2779.197c2.44 1.404 4.777 1.636 6.5.641s2.69-3.134 2.69-5.947M3609.518 2757.497c0 2.813.963 6.07 2.686 9.054s4.06 5.45 6.496 6.858M3672.218 2395.737a36 36 0 0 0-.92-1.695c-2.74-4.747-6.458-8.672-10.334-10.91M3629.558 2600.307q0 .46-.036.902" style="fill:none;stroke:#000;stroke-width:9.44882;stroke-linecap:round;stroke-linejoin:round;stroke-miterlimit:10;stroke-dasharray:none;stroke-opacity:1" transform="rotate(180 473.008 331.55)scale(.15172)"/><path d="M3628.718 2600.787c2.44 1.407 4.777 1.638 6.5.644 1.723-.995 2.69-3.134 2.69-5.948M3637.908 3063.197c0-2.81-.967-6.067-2.69-9.05-1.315-2.278-2.997-4.271-4.826-5.717M3628.718 3136.007c2.44 1.41 4.777 1.641 6.5.647 1.723-.995 2.69-3.134 2.69-5.948M3637.908 2706.387c0-2.815-.967-6.072-2.69-9.056-1.315-2.278-2.997-4.27-4.826-5.717M3609.518 3114.317c0 2.808.963 6.065 2.686 9.05 1.723 2.984 4.06 5.45 6.496 6.857M3637.908 2527.977c0-2.813-.967-6.07-2.69-9.054-1.315-2.277-2.997-4.27-4.826-5.716M3628.718 2957.607c2.44 1.402 4.777 1.634 6.5.639s2.69-3.134 2.69-5.947M3609.518 2935.907c0 2.81.963 6.068 2.686 9.052s4.06 5.45 6.496 6.857" style="fill:none;stroke:#000;stroke-width:9.44882;stroke-linecap:round;stroke-linejoin:round;stroke-miterlimit:10;stroke-dasharray:none;stroke-opacity:1" transform="rotate(180 473.008 331.55)scale(.15172)"/><path d="M3629.558 3135.527q0 .465-.036.905M3637.908 3241.607c0-2.812-.967-6.07-2.69-9.053-1.315-2.277-2.997-4.27-4.826-5.716M3628.718 3314.417c2.44 1.408 4.777 1.64 6.5.645s2.69-3.135 2.69-5.948M3581.628 2354.197c0-8.947 3.075-15.754 8.557-18.92 5.482-3.164 12.917-2.428 20.67 2.048M3721.408 3392.767c5.708 3.293 5.708 13.978 0 23.864-5.707 9.886-14.96 15.229-20.669 11.934-5.707-3.296-5.707-13.981 0-23.867 5.708-9.886 14.962-15.229 20.67-11.934M3609.518 3292.717c0 2.816.963 6.073 2.686 9.057s4.06 5.451 6.496 6.858" style="fill:none;stroke:#000;stroke-width:9.44882;stroke-linecap:round;stroke-linejoin:round;stroke-miterlimit:10;stroke-dasharray:none;stroke-opacity:1" transform="rotate(180 473.008 331.55)scale(.15172)"/><path d="M3690.198 3422.717c0 6.396 2.197 11.258 6.112 13.52 8.154 4.707 21.374-2.926 29.528-17.049 3.915-6.782 6.115-14.184 6.115-20.578M3609.518 2579.087c0 2.815.963 6.072 2.686 9.056s4.06 5.451 6.496 6.858M3701.568 3346.617q.44-.84.918-1.666c7.784-13.482 20.274-21.16 28.544-17.545M3648.228 3460.927c-5.483 3.168-12.918 2.432-20.67-2.044M3716.228 3318.867a9 9 0 0 0-.918-.608c-8.154-4.707-21.374 2.926-29.528 17.048q-.476.826-.922 1.668M3685.778 3190.997c8.158 4.706 21.378-2.927 29.532-17.05 8.154-14.122 8.154-29.388 0-34.095-8.154-4.708-21.374 2.925-29.528 17.048s-8.154 29.387 0 34.095M3685.778 2834.177c8.158 4.71 21.378-2.922 29.532-17.045s8.154-29.388 0-34.096-21.374 2.925-29.528 17.048-8.154 29.388 0 34.096M3629.558 3313.937q0 .461-.036.903M3629.558 2778.717q0 .458-.036.9" style="fill:none;stroke:#000;stroke-width:9.44882;stroke-linecap:round;stroke-linejoin:round;stroke-miterlimit:10;stroke-dasharray:none;stroke-opacity:1" transform="rotate(180 473.008 331.55)scale(.15172)"/><path d="M3696.728 3191.337c-1.265-7.09.89-16.364 5.758-24.794 4.867-8.43 11.82-14.933 18.586-17.385M3696.728 3012.927c-1.265-7.088.89-16.362 5.758-24.792 4.867-8.43 11.82-14.933 18.586-17.384M4151.118 4283.847l-83.52 48.22M4067.598 4332.067l-25.05-14.47M4126.068 4269.377l25.05 14.47M5762.988 1453.437v67.5M5737.928 1438.967l25.06 14.47M5762.988 1520.937l-25.06-14.46M4318.148 4187.407l-83.51 48.22M4234.638 4235.627l-25.06-14.46M5762.988 1617.377v96.43M5737.928 1602.907l25.06 14.47M5762.988 1713.807l-25.06-14.46M4485.188 4090.977l-83.52 48.22M4401.668 4139.197l-25.06-14.47M4460.128 4076.507l25.06 14.47M5762.988 1810.247v96.44M5762.988 1906.687l-25.06-14.47M4652.218 3994.537l-83.52 48.22M4568.698 4042.757l-25.05-14.47M4627.158 3980.067l25.06 14.47M5762.988 2003.117v96.44M5762.988 2099.557l-25.06-14.46M4819.248 3898.097l-83.51 48.22M4735.738 3946.317l-25.06-14.46M5762.988 2195.997v96.43M5737.928 1988.657l25.06 14.46M4986.288 3801.667l-83.52 48.22M4902.768 3849.887l-25.06-14.47M4961.228 3787.197l25.06 14.47M5737.928 2374.407l25.06 14.46M5737.928 1795.787l25.06 14.46M4794.198 3883.637l25.05 14.46M5762.988 2485.307l-25.06-14.47M5762.988 2292.427l-25.06-14.46M5153.318 3705.227l-83.52 48.22M5069.798 3753.447l-25.05-14.47M4293.098 4172.947l25.05 14.46M5128.258 3690.757l25.06 14.47M5737.928 2567.277l25.06 14.46M5762.988 2678.177l-25.06-14.46M5236.838 3657.007l-25.06-14.46M5295.298 3594.327l25.05 14.46M5737.928 2760.147l25.06 14.47M5762.988 2581.737v96.44M5762.988 2871.047l-25.06-14.46M5487.378 3512.357l-83.51 48.22M5403.868 3560.577l-25.06-14.47M5762.988 2967.487v96.44M5737.928 2953.017l25.06 14.47M5762.988 3063.927l-25.06-14.47M5762.988 2388.867v96.44M5570.898 3464.137l-25.05-14.47M5629.358 3401.457l25.06 14.46M5762.988 3160.357v96.44M5737.928 3145.897l25.06 14.46M5762.988 3256.797l-25.06-14.47M5672.588 1476.687l19.51-11.26M5737.928 2181.527l25.06 14.47M5762.988 2774.617v96.43M5462.328 3497.887l25.05 14.47M5737.928 1438.967v67.51M5737.928 1602.907v96.44M5737.928 1795.787v96.43M5737.928 1988.657v96.44M5737.928 2181.527v96.44M5737.928 2374.407v96.43M5737.928 2567.277v96.44M5654.418 3415.917l-83.52 48.22M5737.928 2760.147v96.44M5737.928 2953.017v96.44M5737.928 3145.897v96.43M5545.848 3449.667l83.51-48.21M5378.808 3546.107l83.52-48.22M4877.708 3835.417l83.52-48.22M4710.678 3931.857l83.52-48.22M4543.648 4028.287l83.51-48.22M5211.778 3642.547l83.52-48.22M5044.748 3738.977l83.51-48.22M4376.608 4124.727l83.52-48.22M4209.578 4221.167l83.52-48.22M5320.348 3608.787l-83.51 48.22M4042.548 4317.597l83.52-48.22M4009.138 3565.397v-96.44M4009.138 3372.517v-29.89M5040.568 1325.657l100.22 57.86M4130.238 3066.337l442.64 255.55M5405.028 2942.707l156.36-90.27M5556.288 2838.507l-220.31-127.2M5140.788 2598.617l-100.22-57.86" style="fill:none;stroke:#000;stroke-width:9.44882;stroke-linecap:round;stroke-linejoin:round;stroke-miterlimit:10;stroke-dasharray:none;stroke-opacity:1" transform="rotate(180 473.008 331.55)scale(.15172)"/><path d="m5090.678 1904.277 50.11 28.93" style="fill:none;stroke:#000;stroke-width:3.54331;stroke-linecap:round;stroke-linejoin:round;stroke-miterlimit:10;stroke-dasharray:none;stroke-opacity:1" transform="rotate(180 473.008 331.55)scale(.15172)"/><path d="M4130.238 1851.237v1215.1M4130.238 1851.237l910.33-525.58M4130.238 3066.337l910.33-525.58M5040.568 1325.657l.56 36.1 1.59 36.22 5.68 72.69 8.03 72.89 9.2 72.9 9.2 72.7 8.02 72.33 5.68 71.77 1.59 35.62.56 35.4M5040.568 2540.757l.56-36.75 1.59-38.06 2.48-39.16 3.2-40.09 8.03-82.16 9.2-83.51 9.2-83.33 8.02-81.6 3.21-39.67 2.47-38.65 1.59-37.45.56-36.05M3816.208 2409.747l62.64 36.17M3843.408 2507.287l-62.63-36.16M3878.848 2445.917c9.78 5.646 9.78 23.965 0 40.912-9.785 16.947-25.649 26.106-35.433 20.457M3816.208 2409.747c9.783 5.653 9.783 23.97 0 40.918-9.785 16.947-25.649 26.107-35.433 20.457-9.785-5.649-9.785-23.967 0-40.914s25.648-26.107 35.433-20.457M3826.738 2313.897l62.64 36.17M3853.948 2411.437l-62.64-36.17M3889.378 2350.067c9.784 5.644 9.784 23.962 0 40.91s-25.649 26.106-35.434 20.457M3826.738 2313.897c9.787 5.65 9.787 23.968 0 40.916-9.785 16.947-25.649 26.106-35.433 20.457-9.785-5.649-9.785-23.967 0-40.914s25.648-26.107 35.433-20.458M3718.918 2619.597l21.72-12.54M3703.888 2610.917l15.03 8.68M3725.598 2598.377l15.04 8.68M3725.598 2598.377l-21.71 12.54M3703.888 2610.917v-50.5M3789.398 2385.067l9.44-5.45M3869.698 2338.697l34.63-19.99M3904.328 2318.707v176.48M3904.328 2318.707l15.03 8.68M3919.358 2503.867v-176.48M3904.328 2495.187l-136.97 79.08M3904.328 2495.187l15.03 8.68M3782.388 2582.947l136.97-79.08M3767.358 2574.267l15.03 8.68M3740.638 2607.057c0-6.396 2.196-13.798 6.111-20.58 5.22-9.04 12.806-15.816 19.955-17.825" style="fill:none;stroke:#000;stroke-width:9.44882;stroke-linecap:round;stroke-linejoin:round;stroke-miterlimit:10;stroke-dasharray:none;stroke-opacity:1" transform="rotate(180 473.008 331.55)scale(.15172)"/><path d="M3725.598 2598.377c0-6.395 2.203-13.797 6.118-20.58 8.154-14.122 21.374-21.755 29.528-17.047 3.916 2.26 6.115 7.123 6.115 13.517M3752.468 2532.367l-59.38 34.29M3668.808 2545.817v-39.43" style="fill:none;stroke:#000;stroke-width:9.44882;stroke-linecap:round;stroke-linejoin:round;stroke-miterlimit:10;stroke-dasharray:none;stroke-opacity:1" transform="rotate(180 473.008 331.55)scale(.15172)"/><path d="m3687.188 2566.067 54.51-31.47" style="fill:none;stroke:#000;stroke-width:3.54331;stroke-linecap:round;stroke-linejoin:round;stroke-miterlimit:10;stroke-dasharray:none;stroke-opacity:1" transform="rotate(180 473.008 331.55)scale(.15172)"/><path d="m3687.188 2566.067-10.03-5.78" style="fill:none;stroke:#000;stroke-width:9.44882;stroke-linecap:round;stroke-linejoin:round;stroke-miterlimit:10;stroke-dasharray:none;stroke-opacity:1" transform="rotate(180 473.008 331.55)scale(.15172)"/><path d="m3668.808 2545.817 34.15-19.72M3720.498 2535.267l-43.34 25.02" style="fill:none;stroke:#000;stroke-width:3.54331;stroke-linecap:round;stroke-linejoin:round;stroke-miterlimit:10;stroke-dasharray:none;stroke-opacity:1" transform="rotate(180 473.008 331.55)scale(.15172)"/><path d="M3693.088 2566.657c-1.565.902-3.69.692-5.905-.587M3677.158 2560.287c-2.211-1.282-4.336-3.525-5.902-6.237s-2.446-5.674-2.446-8.232M3747.808 2532.397c1.766.713 3.4.703 4.661-.025 1.107-.64 1.88-1.804 2.233-3.362" style="fill:none;stroke:#000;stroke-width:9.44882;stroke-linecap:round;stroke-linejoin:round;stroke-miterlimit:10;stroke-dasharray:none;stroke-opacity:1" transform="rotate(180 473.008 331.55)scale(.15172)"/><path d="m5718.758 1468.877-25.06 14.47M5660.298 1435.127l-25.06 14.47" style="fill:none;stroke:#000;stroke-width:3.54331;stroke-linecap:round;stroke-linejoin:round;stroke-miterlimit:10;stroke-dasharray:none;stroke-opacity:1" transform="rotate(180 473.008 331.55)scale(.15172)"/><path d="m5576.778 1415.837-17.85 25.4" style="fill:none;stroke:#000;stroke-width:9.44882;stroke-linecap:round;stroke-linejoin:round;stroke-miterlimit:10;stroke-dasharray:none;stroke-opacity:1" transform="rotate(180 473.008 331.55)scale(.15172)"/><path d="m5601.828 1401.377-25.05 14.46M5631.358 1476.287l-4.58 2.65" style="fill:none;stroke:#000;stroke-width:3.54331;stroke-linecap:round;stroke-linejoin:round;stroke-miterlimit:10;stroke-dasharray:none;stroke-opacity:1" transform="rotate(180 473.008 331.55)scale(.15172)"/><path d="m5518.318 1382.087-17.86 25.4" style="fill:none;stroke:#000;stroke-width:9.44882;stroke-linecap:round;stroke-linejoin:round;stroke-miterlimit:10;stroke-dasharray:none;stroke-opacity:1" transform="rotate(180 473.008 331.55)scale(.15172)"/><path d="m5543.368 1367.627-25.05 14.46" style="fill:none;stroke:#000;stroke-width:3.54331;stroke-linecap:round;stroke-linejoin:round;stroke-miterlimit:10;stroke-dasharray:none;stroke-opacity:1" transform="rotate(180 473.008 331.55)scale(.15172)"/><path d="m5459.858 1348.337-17.86 25.4" style="fill:none;stroke:#000;stroke-width:9.44882;stroke-linecap:round;stroke-linejoin:round;stroke-miterlimit:10;stroke-dasharray:none;stroke-opacity:1" transform="rotate(180 473.008 331.55)scale(.15172)"/><path d="m5484.908 1333.867-25.05 14.47M5455.978 1375.027l-4.59 2.65" style="fill:none;stroke:#000;stroke-width:3.54331;stroke-linecap:round;stroke-linejoin:round;stroke-miterlimit:10;stroke-dasharray:none;stroke-opacity:1" transform="rotate(180 473.008 331.55)scale(.15172)"/><path d="m5342.928 1280.827-17.85 25.4" style="fill:none;stroke:#000;stroke-width:9.44882;stroke-linecap:round;stroke-linejoin:round;stroke-miterlimit:10;stroke-dasharray:none;stroke-opacity:1" transform="rotate(180 473.008 331.55)scale(.15172)"/><path d="m5367.988 1266.367-25.06 14.46M5309.528 1232.607l-25.06 14.47" style="fill:none;stroke:#000;stroke-width:3.54331;stroke-linecap:round;stroke-linejoin:round;stroke-miterlimit:10;stroke-dasharray:none;stroke-opacity:1" transform="rotate(180 473.008 331.55)scale(.15172)"/><path d="m5737.928 3367.697-83.51-48.22M5762.988 3353.237l-25.06 14.46" style="fill:none;stroke:#000;stroke-width:9.44882;stroke-linecap:round;stroke-linejoin:round;stroke-miterlimit:10;stroke-dasharray:none;stroke-opacity:1" transform="rotate(180 473.008 331.55)scale(.15172)"/><path d="m5426.448 1300.117-25.06 14.47" style="fill:none;stroke:#000;stroke-width:3.54331;stroke-linecap:round;stroke-linejoin:round;stroke-miterlimit:10;stroke-dasharray:none;stroke-opacity:1" transform="rotate(180 473.008 331.55)scale(.15172)"/><path d="m5570.898 3271.267-83.52-48.22M5487.378 3223.047l25.06-14.47M5595.958 3256.797l-25.06 14.47M5403.868 3174.827l-83.52-48.22M5428.918 3160.357l-25.05 14.47M5320.348 3126.607l25.06-14.46" style="fill:none;stroke:#000;stroke-width:9.44882;stroke-linecap:round;stroke-linejoin:round;stroke-miterlimit:10;stroke-dasharray:none;stroke-opacity:1" transform="rotate(180 473.008 331.55)scale(.15172)"/><path d="m5397.518 1341.277-4.59 2.65" style="fill:none;stroke:#000;stroke-width:3.54331;stroke-linecap:round;stroke-linejoin:round;stroke-miterlimit:10;stroke-dasharray:none;stroke-opacity:1" transform="rotate(180 473.008 331.55)scale(.15172)"/><path d="m5697.058 1441.887-28.93 41.16M5463.208 1306.877l-28.93 41.16M5222.128 1240.017l28.93-41.16M5404.748 1273.127l-28.93 41.16M5397.518 1341.277l28.93-41.16M5638.598 1408.137l-28.93 41.16M5631.358 1476.287l28.94-41.16M5514.438 1408.777l28.93-41.15M5280.588 1273.767l28.94-41.16M5339.058 1307.527l28.93-41.16M5580.138 1374.377l-28.94 41.16M5572.898 1442.537l28.93-41.16M5679.468 1405.217v-28.93M5737.928 1410.037l-58.46-33.75M5737.928 1410.037v96.44M5737.928 1506.477l25.06 14.46M5762.988 1617.377l-25.06-14.47M5737.928 1699.347l25.06 14.46M5762.988 1713.807v96.44M5737.928 1892.217l25.06 14.47M5762.988 1906.687v96.43M5226.008 1213.327l-17.85 25.39M5287.828 1205.617l-28.93 41.16M5762.988 2003.117l-25.06-14.46M5737.928 1988.657v96.44" style="fill:none;stroke:#000;stroke-width:9.44882;stroke-linecap:round;stroke-linejoin:round;stroke-miterlimit:10;stroke-dasharray:none;stroke-opacity:1" transform="rotate(180 473.008 331.55)scale(.15172)"/><path d="m5339.058 1307.527-4.59 2.64" style="fill:none;stroke:#000;stroke-width:3.54331;stroke-linecap:round;stroke-linejoin:round;stroke-miterlimit:10;stroke-dasharray:none;stroke-opacity:1" transform="rotate(180 473.008 331.55)scale(.15172)"/><path d="m5737.928 2085.097 25.06 14.46M5762.988 2099.557v96.44M5762.988 2195.997l-25.06-14.47M5737.928 2181.527v96.44M5737.928 2277.967l25.06 14.46M5762.988 2292.427v96.44M5762.988 2388.867l-25.06-14.46M5737.928 2374.407v96.43M5737.928 2470.837l25.06 14.47M5689.828 1510.037l28.93-41.16M5762.988 2485.307v96.43M5635.238 1449.597l-17.85 25.39M5762.988 2581.737l-25.06-14.46M5401.388 1314.587l-17.85 25.39M5762.988 2774.617l-25.06-14.47M5737.928 2760.147v96.44" style="fill:none;stroke:#000;stroke-width:9.44882;stroke-linecap:round;stroke-linejoin:round;stroke-miterlimit:10;stroke-dasharray:none;stroke-opacity:1" transform="rotate(180 473.008 331.55)scale(.15172)"/><path d="m5251.058 1198.857-25.05 14.47" style="fill:none;stroke:#000;stroke-width:3.54331;stroke-linecap:round;stroke-linejoin:round;stroke-miterlimit:10;stroke-dasharray:none;stroke-opacity:1" transform="rotate(180 473.008 331.55)scale(.15172)"/><path d="m5737.928 2856.587 25.06 14.46" style="fill:none;stroke:#000;stroke-width:9.44882;stroke-linecap:round;stroke-linejoin:round;stroke-miterlimit:10;stroke-dasharray:none;stroke-opacity:1" transform="rotate(180 473.008 331.55)scale(.15172)"/><path d="m5572.898 1442.537-4.58 2.64" style="fill:none;stroke:#000;stroke-width:3.54331;stroke-linecap:round;stroke-linejoin:round;stroke-miterlimit:10;stroke-dasharray:none;stroke-opacity:1" transform="rotate(180 473.008 331.55)scale(.15172)"/><path d="M5762.988 2871.047v96.44M5762.988 2967.487l-25.06-14.47M5737.928 2953.017v96.44M5762.988 3063.927v96.43M5762.988 3160.357l-25.06-14.46M5737.928 3145.897v96.43M5455.978 1375.027l28.93-41.16M5737.928 3242.327l25.06 14.47" style="fill:none;stroke:#000;stroke-width:9.44882;stroke-linecap:round;stroke-linejoin:round;stroke-miterlimit:10;stroke-dasharray:none;stroke-opacity:1" transform="rotate(180 473.008 331.55)scale(.15172)"/><path d="m5280.588 1273.767-4.58 2.65" style="fill:none;stroke:#000;stroke-width:3.54331;stroke-linecap:round;stroke-linejoin:round;stroke-miterlimit:10;stroke-dasharray:none;stroke-opacity:1" transform="rotate(180 473.008 331.55)scale(.15172)"/><path d="m5679.468 3305.017 83.52 48.22M5737.928 1795.787v96.43M5679.468 3305.017v-28.93M5679.468 3276.087l-83.51-48.22M5737.928 2567.277v96.44M5595.958 3227.867v28.93M5762.988 1520.937v96.44M5512.438 3208.577l83.52 48.22M5512.438 3208.577v-28.93M5512.438 3179.647l-83.52-48.22M5428.918 3131.427v28.93M5346.288 1239.367l-28.93 41.16M5345.408 3112.147l83.51 48.21M5737.928 1602.907v96.44M5345.408 3112.147v-28.94M5345.408 3083.207l-83.52-48.21" style="fill:none;stroke:#000;stroke-width:9.44882;stroke-linecap:round;stroke-linejoin:round;stroke-miterlimit:10;stroke-dasharray:none;stroke-opacity:1" transform="rotate(180 473.008 331.55)scale(.15172)"/><path d="m5689.828 1510.037-4.59 2.65" style="fill:none;stroke:#000;stroke-width:3.54331;stroke-linecap:round;stroke-linejoin:round;stroke-miterlimit:10;stroke-dasharray:none;stroke-opacity:1" transform="rotate(180 473.008 331.55)scale(.15172)"/><path d="M5762.988 2678.177v96.44M5261.888 3034.997v28.93M5261.888 1135.187l-96.04-55.45M5521.668 1340.627l-28.93 41.16M5261.888 1135.187v28.94M5261.888 1164.127l83.52 48.21M5229.368 1171.867l-28.93 41.16M5345.408 1212.337v-28.93M5762.988 3256.797v96.44M5428.918 1231.627l-83.51-48.22M5737.928 2663.717l25.06 14.46M5428.918 1231.627v28.93" style="fill:none;stroke:#000;stroke-width:9.44882;stroke-linecap:round;stroke-linejoin:round;stroke-miterlimit:10;stroke-dasharray:none;stroke-opacity:1" transform="rotate(180 473.008 331.55)scale(.15172)"/><path d="m5514.438 1408.777-4.58 2.65" style="fill:none;stroke:#000;stroke-width:3.54331;stroke-linecap:round;stroke-linejoin:round;stroke-miterlimit:10;stroke-dasharray:none;stroke-opacity:1" transform="rotate(180 473.008 331.55)scale(.15172)"/><path d="m5428.918 1260.557 83.52 48.22M5512.438 1308.777v-28.93M5595.958 1328.067l-83.52-48.22M5595.958 1328.067v28.93M5595.958 1356.997l83.51 48.22" style="fill:none;stroke:#000;stroke-width:9.44882;stroke-linecap:round;stroke-linejoin:round;stroke-miterlimit:10;stroke-dasharray:none;stroke-opacity:1" transform="rotate(180 473.008 331.55)scale(.15172)"/><path d="m5222.128 1240.017-4.58 2.65" style="fill:none;stroke:#000;stroke-width:3.54331;stroke-linecap:round;stroke-linejoin:round;stroke-miterlimit:10;stroke-dasharray:none;stroke-opacity:1" transform="rotate(180 473.008 331.55)scale(.15172)"/><path d="m5261.888 3063.927-25.05 14.46M5693.698 1483.347l-17.85 25.4M5236.838 3078.387l-96.05-55.45M5654.418 3319.477l25.05-14.46M5762.988 1810.247l-25.06-14.46M5737.928 3049.457l25.06 14.47M5165.848 3008.477l96.04 55.45M5165.848 1079.737l-25.06 14.47M5165.848 1079.737v1928.74M5284.468 1247.077l-17.85 25.4M5140.788 3022.937l25.06-14.46M5140.788 1094.207v1928.73M5569.058 1390.147c2.165 1.893 4.144 4.34 5.728 7.083 4.01 6.944 4.826 14.577 1.99 18.61M5510.598 1356.387c2.164 1.9 4.143 4.347 5.726 7.09 4.01 6.944 4.826 14.577 1.991 18.61M5452.128 1322.637c2.172 1.897 4.151 4.344 5.735 7.087 4.009 6.944 4.825 14.578 1.99 18.61M5393.668 1288.887c2.17 1.894 4.15 4.342 5.733 7.084 4.01 6.944 4.826 14.578 1.99 18.61M5218.288 1187.627c2.166 1.896 4.145 4.343 5.728 7.086 4.01 6.944 4.826 14.577 1.991 18.61M5484.908 1333.867c2.835-4.031 2.019-11.664-1.99-18.609-4.893-8.473-12.825-13.053-17.717-10.228a6.26 6.26 0 0 0-1.99 1.846M5718.758 1468.877c2.832-4.03 2.015-11.663-1.994-18.607-4.892-8.474-12.824-13.053-17.717-10.229a6.26 6.26 0 0 0-1.99 1.847M5200.438 1213.027c-2.84 4.03-2.024 11.663 1.986 18.608 4.892 8.473 12.824 13.053 17.716 10.228a6.26 6.26 0 0 0 1.991-1.846M5251.058 1198.857c2.84-4.032 2.022-11.665-1.987-18.61-4.892-8.474-12.824-13.053-17.716-10.229a6.26 6.26 0 0 0-1.991 1.847M5276.748 1221.377c2.168 1.899 4.146 4.346 5.73 7.089 4.01 6.944 4.826 14.577 1.99 18.61M5375.818 1314.287c-2.835 4.028-2.019 11.662 1.99 18.606 4.893 8.474 12.825 13.053 17.717 10.229a6.26 6.26 0 0 0 1.99-1.847M5356.748 2678.537c54.029-16.682 130.42 33.205 178.577 116.616 48.158 83.41 53.165 174.51 11.707 212.965M5426.448 1300.117c2.834-4.034 2.017-11.667-1.992-18.611-4.892-8.474-12.824-13.054-17.717-10.229a6.26 6.26 0 0 0-1.99 1.847M5609.668 1449.297c-2.84 4.03-2.022 11.663 1.987 18.607 4.892 8.474 12.824 13.053 17.716 10.229a6.26 6.26 0 0 0 1.991-1.847M5627.518 1423.897c2.167 1.896 4.146 4.343 5.73 7.085 4.009 6.945 4.825 14.578 1.99 18.611M5668.128 1483.047c-2.837 4.032-2.02 11.666 1.988 18.61 4.893 8.474 12.825 13.053 17.717 10.229a6.26 6.26 0 0 0 1.99-1.847M5434.278 1348.037c-2.834 4.031-2.017 11.664 1.992 18.609 4.892 8.473 12.824 13.053 17.717 10.228a6.26 6.26 0 0 0 1.99-1.846M5660.298 1435.127c2.83-4.032 2.014-11.666-1.996-18.61-4.892-8.474-12.824-13.053-17.716-10.229a6.26 6.26 0 0 0-1.991 1.847M5492.738 1381.787c-2.832 4.034-2.016 11.667 1.994 18.612 4.892 8.473 12.824 13.053 17.716 10.228a6.26 6.26 0 0 0 1.991-1.846M5685.978 1457.647c2.169 1.898 4.147 4.346 5.73 7.088 4.01 6.944 4.827 14.578 1.992 18.611M5543.368 1367.627c2.837-4.038 2.02-11.671-1.989-18.616-4.892-8.473-12.824-13.053-17.716-10.228a6.26 6.26 0 0 0-1.991 1.846M5258.898 1246.777c-2.839 4.033-2.022 11.666 1.987 18.61 4.893 8.474 12.824 13.054 17.717 10.229a6.26 6.26 0 0 0 1.99-1.846M5309.528 1232.607c2.83-4.03 2.014-11.663-1.995-18.607-4.893-8.474-12.825-13.053-17.717-10.229a6.26 6.26 0 0 0-1.99 1.847M5317.358 1280.527c-2.837 4.036-2.02 11.669 1.989 18.613 4.892 8.474 12.824 13.053 17.716 10.229a6.26 6.26 0 0 0 1.991-1.847M5367.988 1266.367c2.832-4.037 2.016-11.67-1.994-18.614-4.892-8.474-12.824-13.053-17.716-10.229a6.26 6.26 0 0 0-1.991 1.847M5551.198 1415.537c-2.83 4.037-2.014 11.67 1.995 18.614 4.892 8.474 12.824 13.054 17.717 10.229a6.26 6.26 0 0 0 1.99-1.847M5601.828 1401.377c2.839-4.035 2.022-11.669-1.987-18.613-4.893-8.474-12.825-13.053-17.717-10.229a6.26 6.26 0 0 0-1.99 1.847M5373.518 3004.127c-4.078 2.352-4.078 9.985 0 17.046 4.076 7.061 10.686 10.878 14.763 8.524s4.077-9.986 0-17.048-10.687-10.878-14.764-8.524M5335.208 1255.127c2.17 1.901 4.148 4.349 5.731 7.091 4.01 6.945 4.826 14.578 1.991 18.611" style="fill:none;stroke:#000;stroke-width:9.44882;stroke-linecap:round;stroke-linejoin:round;stroke-miterlimit:10;stroke-dasharray:none;stroke-opacity:1" transform="rotate(180 473.008 331.55)scale(.15172)"/><path d="M5368.448 2669.877c-52.997 30.6-52.997 129.822 0 221.62 53 91.799 138.93 141.41 191.929 110.81 53-30.598 53-129.821 0-221.62-53-91.798-138.93-141.41-191.93-110.81M5540.548 3100.557c-4.075 2.359-4.075 9.991 0 17.053 4.077 7.061 10.687 10.877 14.764 8.524s4.077-9.987 0-17.048c-4.077-7.062-10.687-10.878-14.764-8.524" style="fill:none;stroke:#000;stroke-width:9.44882;stroke-linecap:round;stroke-linejoin:round;stroke-miterlimit:10;stroke-dasharray:none;stroke-opacity:1" transform="rotate(180 473.008 331.55)scale(.15172)"/><path d="m3614.528 2339.447 12.52-7.24" style="fill:none;stroke:#000;stroke-width:3.54331;stroke-linecap:round;stroke-linejoin:round;stroke-miterlimit:10;stroke-dasharray:none;stroke-opacity:1" transform="rotate(180 473.008 331.55)scale(.15172)"/><path d="M3903.668 3584.437v123.82M4009.138 4365.817l-83.51-48.22M3659.448 3454.457v394.8M3842.108 4269.377l-83.52-48.21M3867.158 4254.917l-25.05 14.46M3675.078 4172.947l-83.52-48.22M3700.128 4158.477l-25.05 14.47M3591.558 4124.727l25.05-14.47M3437.048 2077.857l-25.05 14.47M3411.998 2092.327v1928.73M4034.198 4351.357l-25.06 14.46M3508.038 4076.507l-96.04-55.45M3411.998 4021.057l25.05-14.47M3623.168 2954.397l-8.36-21.55M3533.098 4062.047l-25.06 14.46M3499.698 2846.947l2.08 5.35M3925.628 4317.597l25.05-14.46M3614.528 2576.197v15.23M3614.528 2754.607v15.23M3695.188 2371.557l-68.14-39.35M3786.748 3533.777v241.99M3928.728 3693.797v-133.36M3542.528 3337.457v579.31M3684.498 3834.797v-376.79M3629.558 3109.487l-5.85-3.37M4009.138 3372.517v96.44M4009.138 3565.397v81.97M3950.678 4303.137l83.52 48.22M3758.588 4221.167l25.06-14.47M3783.648 4206.697l83.51 48.22M3616.608 4110.257l83.52 48.22M3437.048 4006.587l96.05 55.46M3437.048 2077.857v1928.73M3533.098 2162.237l83.51 48.22M3700.128 2258.677l83.52 48.22M3501.778 2825.567c-4.864 3.4-5.703 12.038-2.078 21.38M3627.048 2332.207c-3.319-1.914-6.505-2.23-8.855-.873s-3.669 4.273-3.669 8.11M3815.798 3457.627v-9.64" style="fill:none;stroke:#000;stroke-width:9.44882;stroke-linecap:round;stroke-linejoin:round;stroke-miterlimit:10;stroke-dasharray:none;stroke-opacity:1" transform="rotate(180 473.008 331.55)scale(.15172)"/><path d="M3778.218 3416.637v4.83" style="fill:none;stroke:#000;stroke-width:3.54331;stroke-linecap:round;stroke-linejoin:round;stroke-miterlimit:10;stroke-dasharray:none;stroke-opacity:1" transform="rotate(180 473.008 331.55)scale(.15172)"/><path d="M3878.438 3421.467v-9.65" style="fill:none;stroke:#000;stroke-width:9.44882;stroke-linecap:round;stroke-linejoin:round;stroke-miterlimit:10;stroke-dasharray:none;stroke-opacity:1" transform="rotate(180 473.008 331.55)scale(.15172)"/><path d="M3828.328 3387.707v4.82" style="fill:none;stroke:#000;stroke-width:3.54331;stroke-linecap:round;stroke-linejoin:round;stroke-miterlimit:10;stroke-dasharray:none;stroke-opacity:1" transform="rotate(180 473.008 331.55)scale(.15172)"/><path d="M3890.968 3414.227v-9.64M3916.018 3399.767v-9.65" style="fill:none;stroke:#000;stroke-width:9.44882;stroke-linecap:round;stroke-linejoin:round;stroke-miterlimit:10;stroke-dasharray:none;stroke-opacity:1" transform="rotate(180 473.008 331.55)scale(.15172)"/><path d="M3865.908 3366.007v4.83" style="fill:none;stroke:#000;stroke-width:3.54331;stroke-linecap:round;stroke-linejoin:round;stroke-miterlimit:10;stroke-dasharray:none;stroke-opacity:1" transform="rotate(180 473.008 331.55)scale(.15172)"/><path d="M3928.548 3392.527v-9.64" style="fill:none;stroke:#000;stroke-width:9.44882;stroke-linecap:round;stroke-linejoin:round;stroke-miterlimit:10;stroke-dasharray:none;stroke-opacity:1" transform="rotate(180 473.008 331.55)scale(.15172)"/><path d="M3878.438 3358.777v4.82M3890.968 3351.547v4.82" style="fill:none;stroke:#000;stroke-width:3.54331;stroke-linecap:round;stroke-linejoin:round;stroke-miterlimit:10;stroke-dasharray:none;stroke-opacity:1" transform="rotate(180 473.008 331.55)scale(.15172)"/><path d="M3966.128 3370.837v-9.65M3865.908 3428.697v-9.65" style="fill:none;stroke:#000;stroke-width:9.44882;stroke-linecap:round;stroke-linejoin:round;stroke-miterlimit:10;stroke-dasharray:none;stroke-opacity:1" transform="rotate(180 473.008 331.55)scale(.15172)"/><path d="M3916.018 3337.077v4.83" style="fill:none;stroke:#000;stroke-width:3.54331;stroke-linecap:round;stroke-linejoin:round;stroke-miterlimit:10;stroke-dasharray:none;stroke-opacity:1" transform="rotate(180 473.008 331.55)scale(.15172)"/><path d="M3991.188 3356.367v-9.64" style="fill:none;stroke:#000;stroke-width:9.44882;stroke-linecap:round;stroke-linejoin:round;stroke-miterlimit:10;stroke-dasharray:none;stroke-opacity:1" transform="rotate(180 473.008 331.55)scale(.15172)"/><path d="M3953.598 3315.387v4.82" style="fill:none;stroke:#000;stroke-width:3.54331;stroke-linecap:round;stroke-linejoin:round;stroke-miterlimit:10;stroke-dasharray:none;stroke-opacity:1" transform="rotate(180 473.008 331.55)scale(.15172)"/><path d="M4016.238 3341.907v-9.65M4028.768 3334.667v-9.64M3903.488 3406.997v-9.64M3978.658 3363.597v-9.64" style="fill:none;stroke:#000;stroke-width:9.44882;stroke-linecap:round;stroke-linejoin:round;stroke-miterlimit:10;stroke-dasharray:none;stroke-opacity:1" transform="rotate(180 473.008 331.55)scale(.15172)"/><path d="M3978.658 3300.917v4.82" style="fill:none;stroke:#000;stroke-width:3.54331;stroke-linecap:round;stroke-linejoin:round;stroke-miterlimit:10;stroke-dasharray:none;stroke-opacity:1" transform="rotate(180 473.008 331.55)scale(.15172)"/><path d="M4041.298 3327.437v-9.64" style="fill:none;stroke:#000;stroke-width:9.44882;stroke-linecap:round;stroke-linejoin:round;stroke-miterlimit:10;stroke-dasharray:none;stroke-opacity:1" transform="rotate(180 473.008 331.55)scale(.15172)"/><path d="M3803.268 3402.177v4.82" style="fill:none;stroke:#000;stroke-width:3.54331;stroke-linecap:round;stroke-linejoin:round;stroke-miterlimit:10;stroke-dasharray:none;stroke-opacity:1" transform="rotate(180 473.008 331.55)scale(.15172)"/><path d="M4053.818 3320.207v-9.65" style="fill:none;stroke:#000;stroke-width:9.44882;stroke-linecap:round;stroke-linejoin:round;stroke-miterlimit:10;stroke-dasharray:none;stroke-opacity:1" transform="rotate(180 473.008 331.55)scale(.15172)"/><path d="M4003.708 3286.447v4.83" style="fill:none;stroke:#000;stroke-width:3.54331;stroke-linecap:round;stroke-linejoin:round;stroke-miterlimit:10;stroke-dasharray:none;stroke-opacity:1" transform="rotate(180 473.008 331.55)scale(.15172)"/><path d="M4066.348 3312.967v-9.64" style="fill:none;stroke:#000;stroke-width:9.44882;stroke-linecap:round;stroke-linejoin:round;stroke-miterlimit:10;stroke-dasharray:none;stroke-opacity:1" transform="rotate(180 473.008 331.55)scale(.15172)"/><path d="M4016.238 3279.217v4.82" style="fill:none;stroke:#000;stroke-width:3.54331;stroke-linecap:round;stroke-linejoin:round;stroke-miterlimit:10;stroke-dasharray:none;stroke-opacity:1" transform="rotate(180 473.008 331.55)scale(.15172)"/><path d="M4078.878 3305.737v-9.64" style="fill:none;stroke:#000;stroke-width:9.44882;stroke-linecap:round;stroke-linejoin:round;stroke-miterlimit:10;stroke-dasharray:none;stroke-opacity:1" transform="rotate(180 473.008 331.55)scale(.15172)"/><path d="M4053.818 3257.517v4.83" style="fill:none;stroke:#000;stroke-width:3.54331;stroke-linecap:round;stroke-linejoin:round;stroke-miterlimit:10;stroke-dasharray:none;stroke-opacity:1" transform="rotate(180 473.008 331.55)scale(.15172)"/><path d="M3840.858 3443.157v-9.64M3953.598 3378.067v-9.64" style="fill:none;stroke:#000;stroke-width:9.44882;stroke-linecap:round;stroke-linejoin:round;stroke-miterlimit:10;stroke-dasharray:none;stroke-opacity:1" transform="rotate(180 473.008 331.55)scale(.15172)"/><path d="M4066.348 3250.287v4.82M3928.548 3329.847v4.82M4078.878 3243.057v4.82M4091.408 3235.827v4.82" style="fill:none;stroke:#000;stroke-width:3.54331;stroke-linecap:round;stroke-linejoin:round;stroke-miterlimit:10;stroke-dasharray:none;stroke-opacity:1" transform="rotate(180 473.008 331.55)scale(.15172)"/><path d="m3953.598 3320.207 50.11 28.93M4003.708 3349.137l-4.17 2.41M3999.538 3351.547l-50.11-28.93M3941.078 3327.437l50.11 28.93M3991.188 3356.367l-4.18 2.41M3916.018 3341.907l50.11 28.93M3966.128 3370.837l-4.17 2.41M3941.078 3385.297v-9.64M3961.958 3373.247l-50.11-28.93M3903.488 3349.137l50.11 28.93M3953.598 3378.067l-4.17 2.41" style="fill:none;stroke:#000;stroke-width:9.44882;stroke-linecap:round;stroke-linejoin:round;stroke-miterlimit:10;stroke-dasharray:none;stroke-opacity:1" transform="rotate(180 473.008 331.55)scale(.15172)"/><path d="M3903.488 3344.317v4.82" style="fill:none;stroke:#000;stroke-width:3.54331;stroke-linecap:round;stroke-linejoin:round;stroke-miterlimit:10;stroke-dasharray:none;stroke-opacity:1" transform="rotate(180 473.008 331.55)scale(.15172)"/><path d="m3890.968 3356.367 50.11 28.93M3974.478 3366.007l-50.11-28.93M3941.078 3385.297l-4.18 2.41M3936.898 3387.707l-50.11-28.93" style="fill:none;stroke:#000;stroke-width:9.44882;stroke-linecap:round;stroke-linejoin:round;stroke-miterlimit:10;stroke-dasharray:none;stroke-opacity:1" transform="rotate(180 473.008 331.55)scale(.15172)"/><path d="M3790.748 3409.407v4.82" style="fill:none;stroke:#000;stroke-width:3.54331;stroke-linecap:round;stroke-linejoin:round;stroke-miterlimit:10;stroke-dasharray:none;stroke-opacity:1" transform="rotate(180 473.008 331.55)scale(.15172)"/><path d="m3878.438 3363.597 50.11 28.93M3924.368 3394.947l-50.11-28.94M3853.378 3435.927v-9.64M3916.018 3399.767l-4.17 2.41M3853.378 3378.067l50.11 28.93M3903.488 3406.997l-4.17 2.41M3911.848 3402.177l-50.11-28.93M3840.858 3385.297l50.11 28.93M3890.968 3414.227l-4.18 2.41M3886.788 3416.637l-50.11-28.93M3828.328 3392.527l50.11 28.94M4091.408 3298.507v-9.64M3874.258 3423.877l-50.11-28.93M3815.798 3399.767l50.11 28.93" style="fill:none;stroke:#000;stroke-width:9.44882;stroke-linecap:round;stroke-linejoin:round;stroke-miterlimit:10;stroke-dasharray:none;stroke-opacity:1" transform="rotate(180 473.008 331.55)scale(.15172)"/><path d="M3853.378 3373.247v4.82" style="fill:none;stroke:#000;stroke-width:3.54331;stroke-linecap:round;stroke-linejoin:round;stroke-miterlimit:10;stroke-dasharray:none;stroke-opacity:1" transform="rotate(180 473.008 331.55)scale(.15172)"/><path d="m3865.908 3428.697-4.17 2.41M3987.008 3358.777l-50.11-28.93M3861.738 3431.107l-50.11-28.93" style="fill:none;stroke:#000;stroke-width:9.44882;stroke-linecap:round;stroke-linejoin:round;stroke-miterlimit:10;stroke-dasharray:none;stroke-opacity:1" transform="rotate(180 473.008 331.55)scale(.15172)"/><path d="M3765.688 3423.877v4.82" style="fill:none;stroke:#000;stroke-width:3.54331;stroke-linecap:round;stroke-linejoin:round;stroke-miterlimit:10;stroke-dasharray:none;stroke-opacity:1" transform="rotate(180 473.008 331.55)scale(.15172)"/><path d="m3803.268 3406.997 50.11 28.93M3853.378 3435.927l-4.17 2.41M3978.658 3363.597l-4.18 2.41M3849.208 3438.337l-50.11-28.93M3790.748 3414.227l50.11 28.93" style="fill:none;stroke:#000;stroke-width:9.44882;stroke-linecap:round;stroke-linejoin:round;stroke-miterlimit:10;stroke-dasharray:none;stroke-opacity:1" transform="rotate(180 473.008 331.55)scale(.15172)"/><path d="M3815.798 3394.947v4.82" style="fill:none;stroke:#000;stroke-width:3.54331;stroke-linecap:round;stroke-linejoin:round;stroke-miterlimit:10;stroke-dasharray:none;stroke-opacity:1" transform="rotate(180 473.008 331.55)scale(.15172)"/><path d="m3840.858 3443.157-4.18 2.41M3836.678 3445.567l-50.11-28.93M3878.438 3421.467l-4.18 2.41M3828.328 3450.397l-4.18 2.41M3824.148 3452.807l-50.11-28.93M3865.908 3370.837l50.11 28.93M3765.688 3428.697l50.11 28.93M3778.218 3421.467l50.11 28.93M3815.798 3457.627l-5.01 2.89M3928.548 3392.527l-4.18 2.42M3810.788 3460.517l-66.81-38.57" style="fill:none;stroke:#000;stroke-width:9.44882;stroke-linecap:round;stroke-linejoin:round;stroke-miterlimit:10;stroke-dasharray:none;stroke-opacity:1" transform="rotate(180 473.008 331.55)scale(.15172)"/><path d="M4028.768 3271.987v4.82M4041.298 3264.757v4.82" style="fill:none;stroke:#000;stroke-width:3.54331;stroke-linecap:round;stroke-linejoin:round;stroke-miterlimit:10;stroke-dasharray:none;stroke-opacity:1" transform="rotate(180 473.008 331.55)scale(.15172)"/><path d="m4091.408 3240.647 5.42 3.13M3828.328 3450.397v-9.65M4078.878 3247.877l17.95 10.37M4096.828 3263.067l-22.13-12.78M4066.348 3255.107l30.48 17.6M4053.818 3262.347l43.01 24.83M4096.828 3291.997l-47.18-27.24M4041.298 3269.577l50.11 28.93M4003.708 3349.137v-9.65M4091.408 3298.507l-4.18 2.41M4074.698 3308.147l-50.11-28.93" style="fill:none;stroke:#000;stroke-width:9.44882;stroke-linecap:round;stroke-linejoin:round;stroke-miterlimit:10;stroke-dasharray:none;stroke-opacity:1" transform="rotate(180 473.008 331.55)scale(.15172)"/><path d="M3991.188 3293.687v4.82" style="fill:none;stroke:#000;stroke-width:3.54331;stroke-linecap:round;stroke-linejoin:round;stroke-miterlimit:10;stroke-dasharray:none;stroke-opacity:1" transform="rotate(180 473.008 331.55)scale(.15172)"/><path d="m4016.238 3284.037 50.11 28.93" style="fill:none;stroke:#000;stroke-width:9.44882;stroke-linecap:round;stroke-linejoin:round;stroke-miterlimit:10;stroke-dasharray:none;stroke-opacity:1" transform="rotate(180 473.008 331.55)scale(.15172)"/><path d="M3966.128 3308.147v4.82" style="fill:none;stroke:#000;stroke-width:3.54331;stroke-linecap:round;stroke-linejoin:round;stroke-miterlimit:10;stroke-dasharray:none;stroke-opacity:1" transform="rotate(180 473.008 331.55)scale(.15172)"/><path d="m4066.348 3312.967-4.18 2.42M4062.168 3315.387l-50.1-28.94M4003.708 3291.277l50.11 28.93M4053.818 3320.207l-4.17 2.41M4096.828 3277.527l-34.66-20.01M4049.648 3322.617l-50.11-28.93M3991.188 3298.507l50.11 28.93M3928.548 3334.667l50.11 28.93M4087.228 3300.917l-50.11-28.93M4041.298 3327.437l-4.18 2.41M4037.118 3329.847l-50.11-28.93M4078.878 3305.737l-4.18 2.41M3978.658 3305.737l50.11 28.93M4028.768 3334.667l-4.18 2.41M4024.588 3337.077l-50.11-28.93M3966.128 3312.967l50.11 28.94M4016.238 3341.907l-4.17 2.41" style="fill:none;stroke:#000;stroke-width:9.44882;stroke-linecap:round;stroke-linejoin:round;stroke-miterlimit:10;stroke-dasharray:none;stroke-opacity:1" transform="rotate(180 473.008 331.55)scale(.15172)"/><path d="M3840.858 3380.477v4.82" style="fill:none;stroke:#000;stroke-width:3.54331;stroke-linecap:round;stroke-linejoin:round;stroke-miterlimit:10;stroke-dasharray:none;stroke-opacity:1" transform="rotate(180 473.008 331.55)scale(.15172)"/><path d="m4012.068 3344.317-50.11-28.93M3949.428 3380.477l-50.11-28.93M3919.358 2356.317l168.71-97.4M4028.768 3276.807l50.11 28.93M3743.978 3421.947l344.09-198.66M3743.978 3322.137v99.81M4088.068 2258.917l8.76 5.07M4088.068 3223.287l8.76 5.06" style="fill:none;stroke:#000;stroke-width:9.44882;stroke-linecap:round;stroke-linejoin:round;stroke-miterlimit:10;stroke-dasharray:none;stroke-opacity:1" transform="rotate(180 473.008 331.55)scale(.15172)"/><path d="M3941.078 3322.617v4.82" style="fill:none;stroke:#000;stroke-width:3.54331;stroke-linecap:round;stroke-linejoin:round;stroke-miterlimit:10;stroke-dasharray:none;stroke-opacity:1" transform="rotate(180 473.008 331.55)scale(.15172)"/><path d="m3899.318 3409.407-50.11-28.93M4096.828 3248.597l-9.6-5.54M4088.068 2258.917v964.37M3949.428 3322.617c-1.11-.641-2.612-1-4.178-1-3.262 0-5.906 1.526-5.906 3.409 0 .904.622 1.772 1.73 2.41M3936.898 3329.847c-1.108-.639-2.61-.998-4.176-.998-3.261 0-5.905 1.527-5.905 3.41 0 .904.622 1.771 1.73 2.41M3924.368 3337.077c-1.105-.636-2.607-.995-4.173-.995-3.262 0-5.906 1.526-5.906 3.41 0 .904.622 1.771 1.73 2.41M3911.848 3344.317c-1.112-.643-2.615-1.002-4.18-1.002-3.262 0-5.906 1.526-5.906 3.41 0 .904.622 1.77 1.73 2.41M3899.318 3351.547c-1.11-.64-2.612-1-4.178-1-3.262 0-5.906 1.527-5.906 3.41 0 .904.622 1.772 1.73 2.41M3886.788 3358.777c-1.107-.638-2.61-.997-4.176-.997-3.261 0-5.905 1.527-5.905 3.41 0 .904.622 1.771 1.73 2.41M3874.258 3366.007c-1.105-.635-2.607-.994-4.173-.994-3.262 0-5.906 1.526-5.906 3.41 0 .904.622 1.771 1.73 2.41M3861.738 3373.247c-1.112-.642-2.614-1.001-4.18-1.001-3.262 0-5.906 1.526-5.906 3.41 0 .904.622 1.77 1.73 2.41M3849.208 3380.477c-1.11-.64-2.612-.999-4.178-.999-3.262 0-5.906 1.527-5.906 3.41 0 .904.622 1.772 1.73 2.41M3836.678 3387.707c-1.107-.637-2.61-.996-4.176-.996-3.261 0-5.905 1.527-5.905 3.41 0 .904.622 1.771 1.73 2.41M3824.148 3394.947c-1.105-.644-2.607-1.003-4.173-1.003-3.262 0-5.906 1.526-5.906 3.41 0 .904.622 1.771 1.73 2.41M3811.628 3402.177c-1.112-.641-2.614-1-4.18-1-3.262 0-5.906 1.526-5.906 3.41 0 .903.622 1.77 1.73 2.41M3786.568 3416.637c-1.107-.636-2.61-.995-4.176-.995-3.261 0-5.905 1.527-5.905 3.41 0 .904.622 1.771 1.73 2.41M3774.038 3423.877c-1.105-.643-2.607-1.002-4.173-1.002-3.262 0-5.906 1.526-5.906 3.41 0 .904.623 1.77 1.73 2.41M4087.228 3243.057c-1.108-.641-2.61-1-4.176-1-3.262 0-5.906 1.526-5.906 3.409 0 .904.623 1.771 1.73 2.41M4074.698 3250.287c-1.105-.639-2.607-.998-4.174-.998-3.261 0-5.905 1.527-5.905 3.41 0 .904.622 1.771 1.73 2.41M4062.168 3257.517c-1.103-.636-2.605-.995-4.171-.995-3.262 0-5.906 1.526-5.906 3.41 0 .904.623 1.77 1.73 2.41M4049.648 3264.757c-1.11-.643-2.612-1.003-4.178-1.003-3.262 0-5.906 1.527-5.906 3.41 0 .904.622 1.772 1.73 2.411M4096.828 3234.897a11 11 0 0 0-1.249-.073c-3.261 0-5.905 1.526-5.905 3.41 0 .904.622 1.771 1.73 2.41M4037.118 3271.987c-1.108-.64-2.61-1-4.176-1-3.262 0-5.905 1.527-5.905 3.41 0 .904.622 1.771 1.73 2.41M4024.588 3279.217c-1.105-.638-2.607-.997-4.174-.997-3.261 0-5.905 1.527-5.905 3.41 0 .904.622 1.771 1.73 2.41M4012.068 3286.447c-1.113-.635-2.615-.994-4.181-.994-3.262 0-5.906 1.526-5.906 3.41 0 .903.623 1.77 1.73 2.41M3799.098 3409.407c-1.11-.638-2.612-.998-4.178-.998-3.262 0-5.906 1.527-5.906 3.41 0 .904.623 1.771 1.73 2.41M3999.538 3293.687c-1.11-.642-2.612-1.001-4.178-1.001-3.262 0-5.906 1.526-5.906 3.409 0 .904.622 1.772 1.73 2.41M3987.008 3300.917c-1.108-.64-2.61-.999-4.176-.999-3.261 0-5.905 1.527-5.905 3.41 0 .904.622 1.771 1.73 2.41M3974.478 3308.147c-1.105-.637-2.607-.996-4.173-.996-3.262 0-5.906 1.527-5.906 3.41 0 .904.622 1.771 1.73 2.41M3961.958 3315.387c-1.113-.644-2.615-1.003-4.18-1.003-3.262 0-5.906 1.526-5.906 3.41 0 .903.622 1.77 1.73 2.41M4668.918 3984.897l-83.51-48.22M4585.408 3936.677l25.05-14.47M4501.888 3888.457l-83.52-48.22M4526.938 3873.987l-25.05 14.47M4418.368 3840.237l25.06-14.46M4334.858 3792.017l-83.52-48.21M4359.908 3777.557l-25.05 14.46M4251.338 3743.807l25.05-14.47M4610.458 3922.207l83.52 48.22M4443.428 3825.777l83.51 48.21M4693.978 3970.427l-25.06 14.47M4276.388 3729.337l83.52 48.22M4192.878 1781.317l29.23 16.88M4121.888 1740.327v1841.94M4096.828 1754.797v1841.94M4192.878 3681.117l-25.06 14.47M4167.818 3695.587l-70.99-40.99M4096.828 3654.597l25.06-14.46M4121.888 3640.137l70.99 40.98M3903.668 3397.457v69.92M3843.538 3435.067v.96M3952.278 3574.027l-27.4-15.81M3952.278 3574.027l33.4-19.28M3878.198 3478.217l5.43-3.13M3870.258 3463.517l13.37-7.72M3919.958 3502.327l5.42-3.13M3883.628 3475.087v-19.29M3883.628 3455.797l41.75 24.11M3925.378 3479.907v19.29M3925.378 3499.197l-41.75-24.11M3840.858 3437.577l3.51-2.03M3853.378 3430.347l3.52-2.03M3862.568 3430.627l7.69 4.44M3870.258 3435.067v38.57M3916.318 3577.137l-33.41 19.29M3857.738 3466.407v-37.61" style="fill:none;stroke:#000;stroke-width:9.44882;stroke-linecap:round;stroke-linejoin:round;stroke-miterlimit:10;stroke-dasharray:none;stroke-opacity:1" transform="rotate(180 473.008 331.55)scale(.15172)"/><path d="m3866.418 3541.337 29.23-16.88" style="fill:none;stroke:#000;stroke-width:3.54331;stroke-linecap:round;stroke-linejoin:round;stroke-miterlimit:10;stroke-dasharray:none;stroke-opacity:1" transform="rotate(180 473.008 331.55)scale(.15172)"/><path d="M3836.858 3445.467v8.89M3912.018 3472.197v-70.12M3840.858 3435.927l1.43.83M3948.098 3379.707v138.87M3782.898 3514.817v-38.58" style="fill:none;stroke:#000;stroke-width:9.44882;stroke-linecap:round;stroke-linejoin:round;stroke-miterlimit:10;stroke-dasharray:none;stroke-opacity:1" transform="rotate(180 473.008 331.55)scale(.15172)"/><path d="m3830.918 3503.967 14.62-8.44M3862.238 3594.377l33.41-19.29" style="fill:none;stroke:#000;stroke-width:3.54331;stroke-linecap:round;stroke-linejoin:round;stroke-miterlimit:10;stroke-dasharray:none;stroke-opacity:1" transform="rotate(180 473.008 331.55)scale(.15172)"/><path d="m3782.898 3476.237-25.38-14.65M3816.308 3456.957l-.51.29M3810.458 3460.327l-27.56 15.91" style="fill:none;stroke:#000;stroke-width:9.44882;stroke-linecap:round;stroke-linejoin:round;stroke-miterlimit:10;stroke-dasharray:none;stroke-opacity:1" transform="rotate(180 473.008 331.55)scale(.15172)"/><path d="m3782.898 3514.817 33.41-19.29M3812.128 3565.447l33.41-19.29" style="fill:none;stroke:#000;stroke-width:3.54331;stroke-linecap:round;stroke-linejoin:round;stroke-miterlimit:10;stroke-dasharray:none;stroke-opacity:1" transform="rotate(180 473.008 331.55)scale(.15172)"/><path d="m3845.538 3529.277 50.11 28.94M3895.648 3524.457l-50.11-28.93M3828.328 3449.427l144.83 83.62M3973.158 3533.047v-167.8M3985.678 3358.017v196.73M3985.678 3554.747l-60.8-35.11M3924.878 3519.637v38.58M3862.238 3594.377l-50.11-28.93M3895.648 3575.087l-50.11-28.93M3816.308 3495.527v-38.57M3816.308 3456.957l-.51-.29M3882.908 3596.427c-5.481 3.162-12.916 2.425-20.669-2.05M3812.128 3565.447c-7.751-4.478-15.186-12.326-20.668-21.821s-8.562-19.858-8.562-28.81M3895.648 3558.217c3.874 2.233 7.591 2.602 10.332 1.02 5.708-3.296 5.708-13.982 0-23.868-2.74-4.747-6.458-8.671-10.334-10.91M3845.538 3495.527c-3.878-2.236-7.596-2.605-10.337-1.022-5.708 3.295-5.708 13.98 0 23.867 2.741 4.747 6.459 8.672 10.335 10.91M3924.878 3558.217c0 8.947-3.081 15.754-8.563 18.92-5.482 3.164-12.917 2.428-20.67-2.048M3845.538 3546.157c-7.755-4.475-15.19-12.324-20.672-21.818-5.481-9.495-8.561-19.858-8.561-28.81M5762.988 1424.497l-25.06-14.46M5737.928 1438.967v-28.93M5679.468 1376.287l-83.51-48.22M5679.468 1376.287v28.93M5595.958 1356.997v-28.93M5512.438 1279.847l-83.52-48.22M5512.438 1279.847v28.93M5428.918 1260.557v-28.93M5345.408 1183.407l-83.52-48.22M5345.408 1183.407v28.93M5261.888 1164.127v-28.94M5140.788 1094.207v28.93M3437.048 2106.787v-28.93M5140.788 1094.207l-1703.74 983.65M4192.878 1781.317l-70.99-40.99M4121.888 1740.327l-25.06 14.47M3804.358 2318.857l-20.71-11.96M3700.128 2258.677l-83.52-48.22M3533.098 2162.237l-96.05-55.45M3437.048 2106.787l1703.74-983.65M5261.888 1164.127l83.52 48.21M5428.918 1260.557l83.52 48.22M5762.988 1424.497v28.94M5595.958 1356.997l83.51 48.22M5737.928 1438.967l25.06 14.47" style="fill:none;stroke:#000;stroke-width:9.44882;stroke-linecap:round;stroke-linejoin:round;stroke-miterlimit:10;stroke-dasharray:none;stroke-opacity:1" transform="rotate(180 473.008 331.55)scale(.15172)"/></svg>