<?xml version="1.0" encoding="UTF-8" standalone="no"?>
<svg
   width="100%"
   height="100%"
   viewBox="0 0 400 300"
   version="1.1"
   xml:space="preserve"
   style="fill-rule:evenodd;clip-rule:evenodd;stroke-linecap:round;stroke-linejoin:round;stroke-miterlimit:1.5;"
   id="svg12223"
   sodipodi:docname="usbc.svg"
   inkscape:version="1.2.2 (b0a84865, 2022-12-01)"
   xmlns:inkscape="http://www.inkscape.org/namespaces/inkscape"
   xmlns:sodipodi="http://sodipodi.sourceforge.net/DTD/sodipodi-0.dtd"
   xmlns="http://www.w3.org/2000/svg"
   xmlns:svg="http://www.w3.org/2000/svg"><defs
   id="defs12227" /><sodipodi:namedview
   id="namedview12225"
   pagecolor="#ffffff"
   bordercolor="#000000"
   borderopacity="0.25"
   inkscape:showpageshadow="2"
   inkscape:pageopacity="0.0"
   inkscape:pagecheckerboard="0"
   inkscape:deskcolor="#d1d1d1"
   showgrid="false"
   inkscape:zoom="0.78666667"
   inkscape:cx="-36.864407"
   inkscape:cy="150"
   inkscape:window-width="1309"
   inkscape:window-height="456"
   inkscape:window-x="0"
   inkscape:window-y="35"
   inkscape:window-maximized="0"
   inkscape:current-layer="svg12223" />
    
    
    
    
    <g
   id="g12454"
   transform="translate(0,49.9999)"><g
     transform="translate(-23.0032,50.0051)"
     id="g12117">
        <path
   d="m 353.003,-0.005 c 27.596,0 50,22.404 50,50 0,27.595 -22.404,49.999 -50,50 h -260 c -27.596,0 -50,-22.404 -50,-50 0,-27.596 22.404,-50 50,-50 z"
   style="fill:#b3b3b3;stroke:#000000;stroke-width:8px"
   id="path12115" />
    </g><g
     transform="translate(-30.0033,12.5)"
     id="g12121">
        <path
   d="m 100.003,52.5 h 260 c 19.318,0 35,15.683 35,35 0,19.317 -15.683,35 -35,35 0,0 -260,0 -260,0 -19.317,0 -35,-15.683 -35,-35 0,-19.317 15.683,-35 35,-35 z"
   style="fill:#e6e6e6;stroke:#000000;stroke-width:2px"
   id="path12119" />
    </g><g
     transform="matrix(9.36582,0,0,9.36582,-1496.02,-1136.58)"
     id="g12171">
        <g
   transform="matrix(1.00002,0,0,0.976295,0.141729,11.9059)"
   id="g12125">
            <rect
   x="193.537"
   y="125.886"
   width="1.388"
   height="1.2029999"
   style="fill:#fcee21;stroke:#000000;stroke-width:0.21px;stroke-linecap:butt;stroke-linejoin:miter;stroke-miterlimit:4"
   id="rect12123" />
        </g>
        <g
   transform="matrix(1.00002,0,0,0.976295,0.128439,11.9059)"
   id="g12129">
            <rect
   x="191.133"
   y="125.886"
   width="1.388"
   height="1.2029999"
   style="fill:#fcee21;stroke:#000000;stroke-width:0.21px;stroke-linecap:butt;stroke-linejoin:miter;stroke-miterlimit:4"
   id="rect12127" />
        </g>
        <g
   transform="matrix(1.00002,0,0,0.976295,0.115154,11.9059)"
   id="g12133">
            <rect
   x="188.73"
   y="125.886"
   width="1.388"
   height="1.2029999"
   style="fill:#fcee21;stroke:#000000;stroke-width:0.21px;stroke-linecap:butt;stroke-linejoin:miter;stroke-miterlimit:4"
   id="rect12131" />
        </g>
        <g
   transform="matrix(1.00002,0,0,0.976295,0.101869,11.9059)"
   id="g12137">
            <rect
   x="186.327"
   y="125.886"
   width="1.388"
   height="1.2029999"
   style="fill:#fcee21;stroke:#000000;stroke-width:0.21px;stroke-linecap:butt;stroke-linejoin:miter;stroke-miterlimit:4"
   id="rect12135" />
        </g>
        <g
   transform="matrix(1.00002,0,0,0.976295,0.0885845,11.9059)"
   id="g12141">
            <rect
   x="183.924"
   y="125.886"
   width="1.388"
   height="1.2029999"
   style="fill:#fcee21;stroke:#000000;stroke-width:0.21px;stroke-linecap:butt;stroke-linejoin:miter;stroke-miterlimit:4"
   id="rect12139" />
        </g>
        <g
   transform="matrix(1.00002,0,0,0.976295,0.0752997,11.9059)"
   id="g12145">
            <rect
   x="181.521"
   y="125.886"
   width="1.388"
   height="1.2029999"
   style="fill:#fcee21;stroke:#000000;stroke-width:0.21px;stroke-linecap:butt;stroke-linejoin:miter;stroke-miterlimit:4"
   id="rect12143" />
        </g>
        <g
   transform="matrix(1.00002,0,0,0.976295,0.0620094,11.9059)"
   id="g12149">
            <rect
   x="179.117"
   y="125.886"
   width="1.388"
   height="1.2029999"
   style="fill:#fcee21;stroke:#000000;stroke-width:0.21px;stroke-linecap:butt;stroke-linejoin:miter;stroke-miterlimit:4"
   id="rect12147" />
        </g>
        <g
   transform="matrix(1.00002,0,0,0.976295,0.0487246,11.9059)"
   id="g12153">
            <rect
   x="176.714"
   y="125.886"
   width="1.388"
   height="1.2029999"
   style="fill:#fcee21;stroke:#000000;stroke-width:0.21px;stroke-linecap:butt;stroke-linejoin:miter;stroke-miterlimit:4"
   id="rect12151" />
        </g>
        <g
   transform="matrix(1.00002,0,0,0.976295,0.0354399,11.9059)"
   id="g12157">
            <rect
   x="174.311"
   y="125.886"
   width="1.388"
   height="1.2029999"
   style="fill:#fcee21;stroke:#000000;stroke-width:0.21px;stroke-linecap:butt;stroke-linejoin:miter;stroke-miterlimit:4"
   id="rect12155" />
        </g>
        <g
   transform="matrix(1.00002,0,0,0.976295,0.0221551,11.9059)"
   id="g12161">
            <rect
   x="171.908"
   y="125.886"
   width="1.388"
   height="1.2029999"
   style="fill:#fcee21;stroke:#000000;stroke-width:0.21px;stroke-linecap:butt;stroke-linejoin:miter;stroke-miterlimit:4"
   id="rect12159" />
        </g>
        <g
   transform="matrix(1.00002,0,0,0.976295,0.0088703,11.9059)"
   id="g12165">
            <rect
   x="169.505"
   y="125.886"
   width="1.388"
   height="1.2029999"
   style="fill:#fcee21;stroke:#000000;stroke-width:0.21px;stroke-linecap:butt;stroke-linejoin:miter;stroke-miterlimit:4"
   id="rect12163" />
        </g>
        <g
   transform="matrix(1.00002,0,0,0.976295,-0.00441448,11.9059)"
   id="g12169">
            <rect
   x="167.10201"
   y="125.886"
   width="1.388"
   height="1.2029999"
   style="fill:#fcee21;stroke:#000000;stroke-width:0.21px;stroke-linecap:butt;stroke-linejoin:miter;stroke-miterlimit:4"
   id="rect12167" />
        </g>
    </g><g
     transform="matrix(9.36582,0,0,9.36582,-1496.02,-1111.08)"
     id="g12221">
        <g
   transform="matrix(1.00002,0,0,0.976295,0.141729,6.44282)"
   id="g12175">
            <rect
   x="193.537"
   y="121.803"
   width="1.388"
   height="1.2029999"
   style="fill:#fcee21;stroke:#000000;stroke-width:0.21px;stroke-linecap:butt;stroke-linejoin:miter;stroke-miterlimit:4"
   id="rect12173" />
        </g>
        <g
   transform="matrix(1.00002,0,0,0.976295,0.128439,6.44282)"
   id="g12179">
            <rect
   x="191.133"
   y="121.803"
   width="1.388"
   height="1.2029999"
   style="fill:#fcee21;stroke:#000000;stroke-width:0.21px;stroke-linecap:butt;stroke-linejoin:miter;stroke-miterlimit:4"
   id="rect12177" />
        </g>
        <g
   transform="matrix(1.00002,0,0,0.976295,0.115154,6.44282)"
   id="g12183">
            <rect
   x="188.73"
   y="121.803"
   width="1.388"
   height="1.2029999"
   style="fill:#fcee21;stroke:#000000;stroke-width:0.21px;stroke-linecap:butt;stroke-linejoin:miter;stroke-miterlimit:4"
   id="rect12181" />
        </g>
        <g
   transform="matrix(1.00002,0,0,0.976295,0.101869,6.44282)"
   id="g12187">
            <rect
   x="186.327"
   y="121.803"
   width="1.388"
   height="1.2029999"
   style="fill:#fcee21;stroke:#000000;stroke-width:0.21px;stroke-linecap:butt;stroke-linejoin:miter;stroke-miterlimit:4"
   id="rect12185" />
        </g>
        <g
   transform="matrix(1.00002,0,0,0.976295,0.0885845,6.44282)"
   id="g12191">
            <rect
   x="183.924"
   y="121.803"
   width="1.388"
   height="1.2029999"
   style="fill:#fcee21;stroke:#000000;stroke-width:0.21px;stroke-linecap:butt;stroke-linejoin:miter;stroke-miterlimit:4"
   id="rect12189" />
        </g>
        <g
   transform="matrix(1.00002,0,0,0.976295,0.0752997,6.44282)"
   id="g12195">
            <rect
   x="181.521"
   y="121.803"
   width="1.388"
   height="1.2029999"
   style="fill:#fcee21;stroke:#000000;stroke-width:0.21px;stroke-linecap:butt;stroke-linejoin:miter;stroke-miterlimit:4"
   id="rect12193" />
        </g>
        <g
   transform="matrix(1.00002,0,0,0.976295,0.0620094,6.44282)"
   id="g12199">
            <rect
   x="179.117"
   y="121.803"
   width="1.388"
   height="1.2029999"
   style="fill:#fcee21;stroke:#000000;stroke-width:0.21px;stroke-linecap:butt;stroke-linejoin:miter;stroke-miterlimit:4"
   id="rect12197" />
        </g>
        <g
   transform="matrix(1.00002,0,0,0.976295,0.0487246,6.44282)"
   id="g12203">
            <rect
   x="176.714"
   y="121.803"
   width="1.388"
   height="1.2029999"
   style="fill:#fcee21;stroke:#000000;stroke-width:0.21px;stroke-linecap:butt;stroke-linejoin:miter;stroke-miterlimit:4"
   id="rect12201" />
        </g>
        <g
   transform="matrix(1.00002,0,0,0.976295,0.0354399,6.44282)"
   id="g12207">
            <rect
   x="174.311"
   y="121.803"
   width="1.388"
   height="1.2029999"
   style="fill:#fcee21;stroke:#000000;stroke-width:0.21px;stroke-linecap:butt;stroke-linejoin:miter;stroke-miterlimit:4"
   id="rect12205" />
        </g>
        <g
   transform="matrix(1.00002,0,0,0.976295,0.0221551,6.44282)"
   id="g12211">
            <rect
   x="171.908"
   y="121.803"
   width="1.388"
   height="1.2029999"
   style="fill:#fcee21;stroke:#000000;stroke-width:0.21px;stroke-linecap:butt;stroke-linejoin:miter;stroke-miterlimit:4"
   id="rect12209" />
        </g>
        <g
   transform="matrix(1.00002,0,0,0.976295,0.0088703,6.44282)"
   id="g12215">
            <rect
   x="169.505"
   y="121.803"
   width="1.388"
   height="1.2029999"
   style="fill:#fcee21;stroke:#000000;stroke-width:0.21px;stroke-linecap:butt;stroke-linejoin:miter;stroke-miterlimit:4"
   id="rect12213" />
        </g>
        <g
   transform="matrix(1.00002,0,0,0.976295,-0.00441448,6.44282)"
   id="g12219">
            <rect
   x="167.10201"
   y="121.803"
   width="1.388"
   height="1.2029999"
   style="fill:#fcee21;stroke:#000000;stroke-width:0.21px;stroke-linecap:butt;stroke-linejoin:miter;stroke-miterlimit:4"
   id="rect12217" />
        </g>
    </g></g>
</svg>
