<?xml version="1.0" encoding="UTF-8" standalone="no"?>
<!-- Created with Inkscape (http://www.inkscape.org/) -->

<svg
   width="85mm"
   height="85mm"
   viewBox="0 0 85 85"
   version="1.1"
   id="svg5"
   inkscape:version="1.2.1 (9c6d41e4, 2022-07-14)"
   sodipodi:docname="event_card.svg"
   xmlns:inkscape="http://www.inkscape.org/namespaces/inkscape"
   xmlns:sodipodi="http://sodipodi.sourceforge.net/DTD/sodipodi-0.dtd"
   xmlns="http://www.w3.org/2000/svg"
   xmlns:svg="http://www.w3.org/2000/svg">
  <sodipodi:namedview
     id="namedview7"
     pagecolor="#59115c"
     bordercolor="#000000"
     borderopacity="0.25"
     inkscape:showpageshadow="2"
     inkscape:pageopacity="0.99607843"
     inkscape:pagecheckerboard="0"
     inkscape:deskcolor="#d1d1d1"
     inkscape:document-units="mm"
     showgrid="false"
     inkscape:zoom="1.1893044"
     inkscape:cx="332.96774"
     inkscape:cy="202.63946"
     inkscape:window-width="1440"
     inkscape:window-height="846"
     inkscape:window-x="2560"
     inkscape:window-y="80"
     inkscape:window-maximized="0"
     inkscape:current-layer="layer1" />
  <defs
     id="defs2" />
  <g
     inkscape:label="Layer 1"
     inkscape:groupmode="layer"
     id="layer1">
    <text
       xml:space="preserve"
       style="font-style:normal;font-variant:normal;font-weight:normal;font-stretch:normal;font-size:21.3333px;font-family:STIXGeneral;-inkscape-font-specification:'STIXGeneral, Normal';font-variant-ligatures:normal;font-variant-caps:normal;font-variant-numeric:normal;font-variant-east-asian:normal;text-align:start;text-anchor:start;white-space:pre;inline-size:159.219;display:inline;opacity:0.851638;fill:#ffffff;fill-opacity:1;stroke:#f09000;stroke-width:1.5;stroke-linejoin:round"
       x="251.5773"
       y="97.507004"
       id="text1516"
       transform="matrix(0.26458333,0,0,0.26458333,-64.516003,-19.57727)"><tspan
         x="251.5773"
         y="97.507004"
         id="tspan36865"><tspan
           style="stroke:none"
           id="tspan36863">&quot;Interacting </tspan></tspan><tspan
         x="251.5773"
         y="124.17363"
         id="tspan36869"><tspan
           style="stroke:none"
           id="tspan36867">Quantum Many-</tspan></tspan><tspan
         x="251.5773"
         y="150.84025"
         id="tspan36873"><tspan
           style="stroke:none"
           id="tspan36871">body Systems&quot; </tspan></tspan></text>
    <text
       xml:space="preserve"
       style="font-style:normal;font-variant:normal;font-weight:normal;font-stretch:normal;font-size:21.3333px;font-family:STIXGeneral;-inkscape-font-specification:'STIXGeneral, Normal';font-variant-ligatures:normal;font-variant-caps:normal;font-variant-numeric:normal;font-variant-east-asian:normal;text-align:center;text-anchor:middle;white-space:pre;inline-size:154.174;display:inline;opacity:0.851638;fill:#ffffff;fill-opacity:1;stroke:#f09000;stroke-width:1.5;stroke-linejoin:round"
       x="321.05966"
       y="97.507004"
       id="text1516-7"
       transform="matrix(0.26458333,0,0,0.26458333,-20.358557,7.3583973)"><tspan
         x="321.05966"
         y="97.507004"
         id="tspan36877"><tspan
           style="stroke:none"
           id="tspan36875">What I've been</tspan><tspan
           y="97.507004"
           id="tspan36879"> </tspan></tspan><tspan
         x="321.05966"
         y="124.17363"
         id="tspan36883"><tspan
           style="stroke:none"
           id="tspan36881">doing these last</tspan><tspan
           y="124.17363"
           id="tspan36885"> </tspan></tspan><tspan
         x="321.05966"
         y="150.84025"
         id="tspan36889"><tspan
           style="stroke:none"
           id="tspan36887">four years</tspan></tspan></text>
    <text
       xml:space="preserve"
       style="font-style:normal;font-variant:normal;font-weight:normal;font-stretch:normal;font-size:21.3333px;font-family:STIXGeneral;-inkscape-font-specification:'STIXGeneral, Normal';font-variant-ligatures:normal;font-variant-caps:normal;font-variant-numeric:normal;font-variant-east-asian:normal;text-align:center;text-anchor:middle;white-space:pre;inline-size:154.174;display:inline;opacity:0.851638;fill:#ffffff;fill-opacity:1;stroke:none;stroke-width:1.5;stroke-linejoin:round"
       x="321.05966"
       y="97.507004"
       id="text1516-7-0"
       transform="matrix(0.26458333,0,0,0.26458333,-42.853324,0.71606106)"><tspan
         x="321.05966"
         y="97.507004"
         id="tspan36891">Or</tspan></text>
    <text
       xml:space="preserve"
       style="font-size:12px;font-family:STIXGeneral;-inkscape-font-specification:'STIXGeneral, Normal';text-align:start;text-anchor:start;opacity:0.851638;fill:#fdfdfd;fill-opacity:1;stroke:none;stroke-width:1.5;stroke-linejoin:round"
       x="245.32875"
       y="151.31422"
       id="text2710"
       transform="matrix(0.26458333,0,0,0.26458333,-62.958721,26.02887)"><tspan
         sodipodi:role="line"
         x="245.32875"
         y="151.31422"
         id="tspan4166"
         style="font-style:normal;font-variant:normal;font-weight:normal;font-stretch:normal;font-size:16px;font-family:STIXGeneral;-inkscape-font-specification:'STIXGeneral, Normal';font-variant-ligatures:normal;font-variant-caps:normal;font-variant-numeric:normal;font-variant-east-asian:normal;fill:#fdfdfd;fill-opacity:1">December 2nd</tspan><tspan
         sodipodi:role="line"
         x="245.32875"
         y="171.31422"
         id="tspan4172"
         style="font-style:normal;font-variant:normal;font-weight:normal;font-stretch:normal;font-size:16px;font-family:STIXGeneral;-inkscape-font-specification:'STIXGeneral, Normal';font-variant-ligatures:normal;font-variant-caps:normal;font-variant-numeric:normal;font-variant-east-asian:normal;fill:#fdfdfd;fill-opacity:1">13:30 - 14:30</tspan><tspan
         sodipodi:role="line"
         x="245.32875"
         y="191.31422"
         id="tspan3438"
         style="font-style:normal;font-variant:normal;font-weight:normal;font-stretch:normal;font-size:16px;font-family:STIXGeneral;-inkscape-font-specification:'STIXGeneral, Normal';font-variant-ligatures:normal;font-variant-caps:normal;font-variant-numeric:normal;font-variant-east-asian:normal;fill:#fdfdfd;fill-opacity:1">Huxley 711c</tspan><tspan
         sodipodi:role="line"
         x="245.32875"
         y="211.31422"
         id="tspan6408"
         style="font-style:normal;font-variant:normal;font-weight:normal;font-stretch:normal;font-size:16px;font-family:STIXGeneral;-inkscape-font-specification:'STIXGeneral, Normal';font-variant-ligatures:normal;font-variant-caps:normal;font-variant-numeric:normal;font-variant-east-asian:normal;fill:#fdfdfd;fill-opacity:1">Imperial College London</tspan></text>
    <text
       xml:space="preserve"
       style="font-style:normal;font-variant:normal;font-weight:normal;font-stretch:normal;font-size:26.6667px;font-family:STIXGeneral;-inkscape-font-specification:'STIXGeneral, Normal';font-variant-ligatures:normal;font-variant-caps:normal;font-variant-numeric:normal;font-variant-east-asian:normal;text-align:start;text-anchor:start;opacity:0.851638;fill:#000000;fill-opacity:0.947826;stroke:none;stroke-width:1.5;stroke-linejoin:round"
       x="284.19974"
       y="85.76442"
       id="text6412"
       transform="scale(0.26458333)"><tspan
         sodipodi:role="line"
         id="tspan6410"
         x="284.19974"
         y="85.76442"></tspan></text>
    <g
       id="g22069"
       transform="matrix(0.26458333,0,0,0.26458333,-219.03358,22.182197)">
      <path
         fill="#581845"
         stroke="none"
         paint-order="stroke fill markers"
         d="m 1027.8333,164.5 c 0,-2.57733 2.0894,-4.66667 4.6667,-4.66667 2.5773,0 4.6667,2.08934 4.6667,4.66667 0,2.57733 -2.0894,4.66667 -4.6667,4.66667 -2.5773,0 -4.6667,-2.08934 -4.6667,-4.66667"
         fill-opacity="0"
         id="path12000" />
      <path
         fill="#581845"
         stroke="none"
         paint-order="stroke fill markers"
         d="m 1027.8333,171.5 c 0,-2.57733 2.0894,-4.66667 4.6667,-4.66667 2.5773,0 4.6667,2.08934 4.6667,4.66667 0,2.57733 -2.0894,4.66667 -4.6667,4.66667 -2.5773,0 -4.6667,-2.08934 -4.6667,-4.66667"
         fill-opacity="0"
         id="path12002" />
      <path
         fill="#581845"
         stroke="none"
         paint-order="stroke fill markers"
         d="m 1027.8333,178.5 c 0,-2.57733 2.0894,-4.66667 4.6667,-4.66667 2.5773,0 4.6667,2.08934 4.6667,4.66667 0,2.57733 -2.0894,4.66667 -4.6667,4.66667 -2.5773,0 -4.6667,-2.08934 -4.6667,-4.66667"
         fill-opacity="0"
         id="path12004" />
      <path
         fill="#581845"
         stroke="none"
         paint-order="stroke fill markers"
         d="m 1027.8333,185.5 c 0,-2.57733 2.0894,-4.66667 4.6667,-4.66667 2.5773,0 4.6667,2.08934 4.6667,4.66667 0,2.57733 -2.0894,4.66667 -4.6667,4.66667 -2.5773,0 -4.6667,-2.08934 -4.6667,-4.66667"
         fill-opacity="0"
         id="path12006" />
      <path
         fill="#581845"
         stroke="none"
         paint-order="stroke fill markers"
         d="m 1027.8333,192.5 c 0,-2.57733 2.0894,-4.66667 4.6667,-4.66667 2.5773,0 4.6667,2.08934 4.6667,4.66667 0,2.57733 -2.0894,4.66667 -4.6667,4.66667 -2.5773,0 -4.6667,-2.08934 -4.6667,-4.66667"
         fill-opacity="0"
         id="path12008" />
      <path
         fill="#581845"
         stroke="none"
         paint-order="stroke fill markers"
         d="m 1034.8333,150.5 c 0,-2.57733 2.0894,-4.66667 4.6667,-4.66667 2.5773,0 4.6667,2.08934 4.6667,4.66667 0,2.57733 -2.0894,4.66667 -4.6667,4.66667 -2.5773,0 -4.6667,-2.08934 -4.6667,-4.66667"
         fill-opacity="0"
         id="path12030" />
      <path
         fill="#c70039"
         stroke="none"
         paint-order="stroke fill markers"
         d="m 1034.8333,157.5 c 0,-2.57733 2.0894,-4.66667 4.6667,-4.66667 2.5773,0 4.6667,2.08934 4.6667,4.66667 0,2.57733 -2.0894,4.66667 -4.6667,4.66667 -2.5773,0 -4.6667,-2.08934 -4.6667,-4.66667"
         fill-opacity="1"
         id="path12032" />
      <path
         fill="#581845"
         stroke="none"
         paint-order="stroke fill markers"
         d="m 1034.8333,164.5 c 0,-2.57733 2.0894,-4.66667 4.6667,-4.66667 2.5773,0 4.6667,2.08934 4.6667,4.66667 0,2.57733 -2.0894,4.66667 -4.6667,4.66667 -2.5773,0 -4.6667,-2.08934 -4.6667,-4.66667"
         fill-opacity="0"
         id="path12034" />
      <path
         fill="#ff5733"
         stroke="none"
         paint-order="stroke fill markers"
         d="m 1034.8333,171.5 c 0,-2.57733 2.0894,-4.66667 4.6667,-4.66667 2.5773,0 4.6667,2.08934 4.6667,4.66667 0,2.57733 -2.0894,4.66667 -4.6667,4.66667 -2.5773,0 -4.6667,-2.08934 -4.6667,-4.66667"
         fill-opacity="1"
         id="path12036" />
      <path
         fill="#ff5733"
         stroke="none"
         paint-order="stroke fill markers"
         d="m 1034.8333,178.5 c 0,-2.57733 2.0894,-4.66667 4.6667,-4.66667 2.5773,0 4.6667,2.08934 4.6667,4.66667 0,2.57733 -2.0894,4.66667 -4.6667,4.66667 -2.5773,0 -4.6667,-2.08934 -4.6667,-4.66667"
         fill-opacity="1"
         id="path12038" />
      <path
         fill="#ff5733"
         stroke="none"
         paint-order="stroke fill markers"
         d="m 1034.8333,185.5 c 0,-2.57733 2.0894,-4.66667 4.6667,-4.66667 2.5773,0 4.6667,2.08934 4.6667,4.66667 0,2.57733 -2.0894,4.66667 -4.6667,4.66667 -2.5773,0 -4.6667,-2.08934 -4.6667,-4.66667"
         fill-opacity="1"
         id="path12040" />
      <path
         fill="#581845"
         stroke="none"
         paint-order="stroke fill markers"
         d="m 1034.8333,192.5 c 0,-2.57733 2.0894,-4.66667 4.6667,-4.66667 2.5773,0 4.6667,2.08934 4.6667,4.66667 0,2.57733 -2.0894,4.66667 -4.6667,4.66667 -2.5773,0 -4.6667,-2.08934 -4.6667,-4.66667"
         fill-opacity="0"
         id="path12042" />
      <path
         fill="#c70039"
         stroke="none"
         paint-order="stroke fill markers"
         d="m 1034.8333,199.5 c 0,-2.57733 2.0894,-4.66667 4.6667,-4.66667 2.5773,0 4.6667,2.08934 4.6667,4.66667 0,2.57733 -2.0894,4.66667 -4.6667,4.66667 -2.5773,0 -4.6667,-2.08934 -4.6667,-4.66667"
         fill-opacity="1"
         id="path12044" />
      <path
         fill="#581845"
         stroke="none"
         paint-order="stroke fill markers"
         d="m 1034.8333,206.5 c 0,-2.57733 2.0894,-4.66667 4.6667,-4.66667 2.5773,0 4.6667,2.08934 4.6667,4.66667 0,2.57733 -2.0894,4.66667 -4.6667,4.66667 -2.5773,0 -4.6667,-2.08934 -4.6667,-4.66667"
         fill-opacity="0"
         id="path12046" />
      <path
         fill="#900c3f"
         stroke="none"
         paint-order="stroke fill markers"
         d="m 1041.8333,143.5 c 0,-2.57733 2.0894,-4.66667 4.6667,-4.66667 2.5773,0 4.6667,2.08934 4.6667,4.66667 0,2.57733 -2.0894,4.66667 -4.6667,4.66667 -2.5773,0 -4.6667,-2.08934 -4.6667,-4.66667"
         fill-opacity="1"
         id="path12072" />
      <path
         fill="#581845"
         stroke="none"
         paint-order="stroke fill markers"
         d="m 1041.8333,150.5 c 0,-2.57733 2.0894,-4.66667 4.6667,-4.66667 2.5773,0 4.6667,2.08934 4.6667,4.66667 0,2.57733 -2.0894,4.66667 -4.6667,4.66667 -2.5773,0 -4.6667,-2.08934 -4.6667,-4.66667"
         fill-opacity="0"
         id="path12074" />
      <path
         fill="#ff5733"
         stroke="none"
         paint-order="stroke fill markers"
         d="m 1041.8333,157.5 c 0,-2.57733 2.0894,-4.66667 4.6667,-4.66667 2.5773,0 4.6667,2.08934 4.6667,4.66667 0,2.57733 -2.0894,4.66667 -4.6667,4.66667 -2.5773,0 -4.6667,-2.08934 -4.6667,-4.66667"
         fill-opacity="1"
         id="path12076" />
      <path
         fill="#ff5733"
         stroke="none"
         paint-order="stroke fill markers"
         d="m 1041.8333,164.5 c 0,-2.57733 2.0894,-4.66667 4.6667,-4.66667 2.5773,0 4.6667,2.08934 4.6667,4.66667 0,2.57733 -2.0894,4.66667 -4.6667,4.66667 -2.5773,0 -4.6667,-2.08934 -4.6667,-4.66667"
         fill-opacity="1"
         id="path12078" />
      <path
         fill="#581845"
         stroke="none"
         paint-order="stroke fill markers"
         d="m 1041.8333,171.5 c 0,-2.57733 2.0894,-4.66667 4.6667,-4.66667 2.5773,0 4.6667,2.08934 4.6667,4.66667 0,2.57733 -2.0894,4.66667 -4.6667,4.66667 -2.5773,0 -4.6667,-2.08934 -4.6667,-4.66667"
         fill-opacity="0"
         id="path12080" />
      <path
         fill="#ff5733"
         stroke="none"
         paint-order="stroke fill markers"
         d="m 1041.8333,178.5 c 0,-2.57733 2.0894,-4.66667 4.6667,-4.66667 2.5773,0 4.6667,2.08934 4.6667,4.66667 0,2.57733 -2.0894,4.66667 -4.6667,4.66667 -2.5773,0 -4.6667,-2.08934 -4.6667,-4.66667"
         fill-opacity="1"
         id="path12082" />
      <path
         fill="#581845"
         stroke="none"
         paint-order="stroke fill markers"
         d="m 1041.8333,185.5 c 0,-2.57733 2.0894,-4.66667 4.6667,-4.66667 2.5773,0 4.6667,2.08934 4.6667,4.66667 0,2.57733 -2.0894,4.66667 -4.6667,4.66667 -2.5773,0 -4.6667,-2.08934 -4.6667,-4.66667"
         fill-opacity="0"
         id="path12084" />
      <path
         fill="#ff5733"
         stroke="none"
         paint-order="stroke fill markers"
         d="m 1041.8333,192.5 c 0,-2.57733 2.0894,-4.66667 4.6667,-4.66667 2.5773,0 4.6667,2.08934 4.6667,4.66667 0,2.57733 -2.0894,4.66667 -4.6667,4.66667 -2.5773,0 -4.6667,-2.08934 -4.6667,-4.66667"
         fill-opacity="1"
         id="path12086" />
      <path
         fill="#ff5733"
         stroke="none"
         paint-order="stroke fill markers"
         d="m 1041.8333,199.5 c 0,-2.57733 2.0894,-4.66667 4.6667,-4.66667 2.5773,0 4.6667,2.08934 4.6667,4.66667 0,2.57733 -2.0894,4.66667 -4.6667,4.66667 -2.5773,0 -4.6667,-2.08934 -4.6667,-4.66667"
         fill-opacity="1"
         id="path12088" />
      <path
         fill="#581845"
         stroke="none"
         paint-order="stroke fill markers"
         d="m 1041.8333,206.5 c 0,-2.57733 2.0894,-4.66667 4.6667,-4.66667 2.5773,0 4.6667,2.08934 4.6667,4.66667 0,2.57733 -2.0894,4.66667 -4.6667,4.66667 -2.5773,0 -4.6667,-2.08934 -4.6667,-4.66667"
         fill-opacity="0"
         id="path12090" />
      <path
         fill="#900c3f"
         stroke="none"
         paint-order="stroke fill markers"
         d="m 1041.8333,213.5 c 0,-2.57733 2.0894,-4.66667 4.6667,-4.66667 2.5773,0 4.6667,2.08934 4.6667,4.66667 0,2.57733 -2.0894,4.66667 -4.6667,4.66667 -2.5773,0 -4.6667,-2.08934 -4.6667,-4.66667"
         fill-opacity="1"
         id="path12092" />
      <path
         fill="#900c3f"
         stroke="none"
         paint-order="stroke fill markers"
         d="m 1048.8333,136.5 c 0,-2.57733 2.0894,-4.66667 4.6667,-4.66667 2.5773,0 4.6667,2.08934 4.6667,4.66667 0,2.57733 -2.0894,4.66667 -4.6667,4.66667 -2.5773,0 -4.6667,-2.08934 -4.6667,-4.66667"
         fill-opacity="1"
         id="path12116" />
      <path
         fill="#900c3f"
         stroke="none"
         paint-order="stroke fill markers"
         d="m 1048.8333,143.5 c 0,-2.57733 2.0894,-4.66667 4.6667,-4.66667 2.5773,0 4.6667,2.08934 4.6667,4.66667 0,2.57733 -2.0894,4.66667 -4.6667,4.66667 -2.5773,0 -4.6667,-2.08934 -4.6667,-4.66667"
         fill-opacity="1"
         id="path12118" />
      <path
         fill="#581845"
         stroke="none"
         paint-order="stroke fill markers"
         d="m 1048.8333,150.5 c 0,-2.57733 2.0894,-4.66667 4.6667,-4.66667 2.5773,0 4.6667,2.08934 4.6667,4.66667 0,2.57733 -2.0894,4.66667 -4.6667,4.66667 -2.5773,0 -4.6667,-2.08934 -4.6667,-4.66667"
         fill-opacity="0"
         id="path12120" />
      <path
         fill="#900c3f"
         stroke="none"
         paint-order="stroke fill markers"
         d="m 1048.8333,157.5 c 0,-2.57733 2.0894,-4.66667 4.6667,-4.66667 2.5773,0 4.6667,2.08934 4.6667,4.66667 0,2.57733 -2.0894,4.66667 -4.6667,4.66667 -2.5773,0 -4.6667,-2.08934 -4.6667,-4.66667"
         fill-opacity="1"
         id="path12122" />
      <path
         fill="#c70039"
         stroke="none"
         paint-order="stroke fill markers"
         d="m 1048.8333,164.5 c 0,-2.57733 2.0894,-4.66667 4.6667,-4.66667 2.5773,0 4.6667,2.08934 4.6667,4.66667 0,2.57733 -2.0894,4.66667 -4.6667,4.66667 -2.5773,0 -4.6667,-2.08934 -4.6667,-4.66667"
         fill-opacity="1"
         id="path12124" />
      <path
         fill="#ff5733"
         stroke="none"
         paint-order="stroke fill markers"
         d="m 1048.8333,171.5 c 0,-2.57733 2.0894,-4.66667 4.6667,-4.66667 2.5773,0 4.6667,2.08934 4.6667,4.66667 0,2.57733 -2.0894,4.66667 -4.6667,4.66667 -2.5773,0 -4.6667,-2.08934 -4.6667,-4.66667"
         fill-opacity="1"
         id="path12126" />
      <path
         fill="#581845"
         stroke="none"
         paint-order="stroke fill markers"
         d="m 1048.8333,178.5 c 0,-2.57733 2.0894,-4.66667 4.6667,-4.66667 2.5773,0 4.6667,2.08934 4.6667,4.66667 0,2.57733 -2.0894,4.66667 -4.6667,4.66667 -2.5773,0 -4.6667,-2.08934 -4.6667,-4.66667"
         fill-opacity="0"
         id="path12128" />
      <path
         fill="#ff5733"
         stroke="none"
         paint-order="stroke fill markers"
         d="m 1048.8333,185.5 c 0,-2.57733 2.0894,-4.66667 4.6667,-4.66667 2.5773,0 4.6667,2.08934 4.6667,4.66667 0,2.57733 -2.0894,4.66667 -4.6667,4.66667 -2.5773,0 -4.6667,-2.08934 -4.6667,-4.66667"
         fill-opacity="1"
         id="path12130" />
      <path
         fill="#c70039"
         stroke="none"
         paint-order="stroke fill markers"
         d="m 1048.8333,192.5 c 0,-2.57733 2.0894,-4.66667 4.6667,-4.66667 2.5773,0 4.6667,2.08934 4.6667,4.66667 0,2.57733 -2.0894,4.66667 -4.6667,4.66667 -2.5773,0 -4.6667,-2.08934 -4.6667,-4.66667"
         fill-opacity="1"
         id="path12132" />
      <path
         fill="#900c3f"
         stroke="none"
         paint-order="stroke fill markers"
         d="m 1048.8333,199.5 c 0,-2.57733 2.0894,-4.66667 4.6667,-4.66667 2.5773,0 4.6667,2.08934 4.6667,4.66667 0,2.57733 -2.0894,4.66667 -4.6667,4.66667 -2.5773,0 -4.6667,-2.08934 -4.6667,-4.66667"
         fill-opacity="1"
         id="path12134" />
      <path
         fill="#581845"
         stroke="none"
         paint-order="stroke fill markers"
         d="m 1048.8333,206.5 c 0,-2.57733 2.0894,-4.66667 4.6667,-4.66667 2.5773,0 4.6667,2.08934 4.6667,4.66667 0,2.57733 -2.0894,4.66667 -4.6667,4.66667 -2.5773,0 -4.6667,-2.08934 -4.6667,-4.66667"
         fill-opacity="0"
         id="path12136" />
      <path
         fill="#900c3f"
         stroke="none"
         paint-order="stroke fill markers"
         d="m 1048.8333,213.5 c 0,-2.57733 2.0894,-4.66667 4.6667,-4.66667 2.5773,0 4.6667,2.08934 4.6667,4.66667 0,2.57733 -2.0894,4.66667 -4.6667,4.66667 -2.5773,0 -4.6667,-2.08934 -4.6667,-4.66667"
         fill-opacity="1"
         id="path12138" />
      <path
         fill="#900c3f"
         stroke="none"
         paint-order="stroke fill markers"
         d="m 1048.8333,220.5 c 0,-2.57733 2.0894,-4.66667 4.6667,-4.66667 2.5773,0 4.6667,2.08934 4.6667,4.66667 0,2.57733 -2.0894,4.66667 -4.6667,4.66667 -2.5773,0 -4.6667,-2.08934 -4.6667,-4.66667"
         fill-opacity="1"
         id="path12140" />
      <path
         fill="#581845"
         stroke="none"
         paint-order="stroke fill markers"
         d="m 1055.8333,129.5 c 0,-2.57733 2.0894,-4.66667 4.6667,-4.66667 2.5773,0 4.6667,2.08934 4.6667,4.66667 0,2.57733 -2.0894,4.66667 -4.6667,4.66667 -2.5773,0 -4.6667,-2.08934 -4.6667,-4.66667"
         fill-opacity="0"
         id="path12178" />
      <path
         fill="#581845"
         stroke="none"
         paint-order="stroke fill markers"
         d="m 1055.8333,136.5 c 0,-2.57733 2.0894,-4.66667 4.6667,-4.66667 2.5773,0 4.6667,2.08934 4.6667,4.66667 0,2.57733 -2.0894,4.66667 -4.6667,4.66667 -2.5773,0 -4.6667,-2.08934 -4.6667,-4.66667"
         fill-opacity="0"
         id="path12180" />
      <path
         fill="#581845"
         stroke="none"
         paint-order="stroke fill markers"
         d="m 1055.8333,143.5 c 0,-2.57733 2.0894,-4.66667 4.6667,-4.66667 2.5773,0 4.6667,2.08934 4.6667,4.66667 0,2.57733 -2.0894,4.66667 -4.6667,4.66667 -2.5773,0 -4.6667,-2.08934 -4.6667,-4.66667"
         fill-opacity="0"
         id="path12182" />
      <path
         fill="#900c3f"
         stroke="none"
         paint-order="stroke fill markers"
         d="m 1055.8333,150.5 c 0,-2.57733 2.0894,-4.66667 4.6667,-4.66667 2.5773,0 4.6667,2.08934 4.6667,4.66667 0,2.57733 -2.0894,4.66667 -4.6667,4.66667 -2.5773,0 -4.6667,-2.08934 -4.6667,-4.66667"
         fill-opacity="1"
         id="path12184" />
      <path
         fill="#900c3f"
         stroke="none"
         paint-order="stroke fill markers"
         d="m 1055.8333,157.5 c 0,-2.57733 2.0894,-4.66667 4.6667,-4.66667 2.5773,0 4.6667,2.08934 4.6667,4.66667 0,2.57733 -2.0894,4.66667 -4.6667,4.66667 -2.5773,0 -4.6667,-2.08934 -4.6667,-4.66667"
         fill-opacity="1"
         id="path12186" />
      <path
         fill="#900c3f"
         stroke="none"
         paint-order="stroke fill markers"
         d="m 1055.8333,164.5 c 0,-2.57733 2.0894,-4.66667 4.6667,-4.66667 2.5773,0 4.6667,2.08934 4.6667,4.66667 0,2.57733 -2.0894,4.66667 -4.6667,4.66667 -2.5773,0 -4.6667,-2.08934 -4.6667,-4.66667"
         fill-opacity="1"
         id="path12188" />
      <path
         fill="#ff5733"
         stroke="none"
         paint-order="stroke fill markers"
         d="m 1055.8333,171.5 c 0,-2.57733 2.0894,-4.66667 4.6667,-4.66667 2.5773,0 4.6667,2.08934 4.6667,4.66667 0,2.57733 -2.0894,4.66667 -4.6667,4.66667 -2.5773,0 -4.6667,-2.08934 -4.6667,-4.66667"
         fill-opacity="1"
         id="path12190" />
      <path
         fill="#581845"
         stroke="none"
         paint-order="stroke fill markers"
         d="m 1055.8333,178.5 c 0,-2.57733 2.0894,-4.66667 4.6667,-4.66667 2.5773,0 4.6667,2.08934 4.6667,4.66667 0,2.57733 -2.0894,4.66667 -4.6667,4.66667 -2.5773,0 -4.6667,-2.08934 -4.6667,-4.66667"
         fill-opacity="0"
         id="path12192" />
      <path
         fill="#ff5733"
         stroke="none"
         paint-order="stroke fill markers"
         d="m 1055.8333,185.5 c 0,-2.57733 2.0894,-4.66667 4.6667,-4.66667 2.5773,0 4.6667,2.08934 4.6667,4.66667 0,2.57733 -2.0894,4.66667 -4.6667,4.66667 -2.5773,0 -4.6667,-2.08934 -4.6667,-4.66667"
         fill-opacity="1"
         id="path12194" />
      <path
         fill="#900c3f"
         stroke="none"
         paint-order="stroke fill markers"
         d="m 1055.8333,192.5 c 0,-2.57733 2.0894,-4.66667 4.6667,-4.66667 2.5773,0 4.6667,2.08934 4.6667,4.66667 0,2.57733 -2.0894,4.66667 -4.6667,4.66667 -2.5773,0 -4.6667,-2.08934 -4.6667,-4.66667"
         fill-opacity="1"
         id="path12196" />
      <path
         fill="#900c3f"
         stroke="none"
         paint-order="stroke fill markers"
         d="m 1055.8333,199.5 c 0,-2.57733 2.0894,-4.66667 4.6667,-4.66667 2.5773,0 4.6667,2.08934 4.6667,4.66667 0,2.57733 -2.0894,4.66667 -4.6667,4.66667 -2.5773,0 -4.6667,-2.08934 -4.6667,-4.66667"
         fill-opacity="1"
         id="path12198" />
      <path
         fill="#900c3f"
         stroke="none"
         paint-order="stroke fill markers"
         d="m 1055.8333,206.5 c 0,-2.57733 2.0894,-4.66667 4.6667,-4.66667 2.5773,0 4.6667,2.08934 4.6667,4.66667 0,2.57733 -2.0894,4.66667 -4.6667,4.66667 -2.5773,0 -4.6667,-2.08934 -4.6667,-4.66667"
         fill-opacity="1"
         id="path12200" />
      <path
         fill="#581845"
         stroke="none"
         paint-order="stroke fill markers"
         d="m 1055.8333,213.5 c 0,-2.57733 2.0894,-4.66667 4.6667,-4.66667 2.5773,0 4.6667,2.08934 4.6667,4.66667 0,2.57733 -2.0894,4.66667 -4.6667,4.66667 -2.5773,0 -4.6667,-2.08934 -4.6667,-4.66667"
         fill-opacity="0"
         id="path12202" />
      <path
         fill="#581845"
         stroke="none"
         paint-order="stroke fill markers"
         d="m 1055.8333,220.5 c 0,-2.57733 2.0894,-4.66667 4.6667,-4.66667 2.5773,0 4.6667,2.08934 4.6667,4.66667 0,2.57733 -2.0894,4.66667 -4.6667,4.66667 -2.5773,0 -4.6667,-2.08934 -4.6667,-4.66667"
         fill-opacity="0"
         id="path12204" />
      <path
         fill="#581845"
         stroke="none"
         paint-order="stroke fill markers"
         d="m 1055.8333,227.5 c 0,-2.57733 2.0894,-4.66667 4.6667,-4.66667 2.5773,0 4.6667,2.08934 4.6667,4.66667 0,2.57733 -2.0894,4.66667 -4.6667,4.66667 -2.5773,0 -4.6667,-2.08934 -4.6667,-4.66667"
         fill-opacity="0"
         id="path12206" />
      <path
         fill="#c70039"
         stroke="none"
         paint-order="stroke fill markers"
         d="m 1062.8333,129.5 c 0,-2.57733 2.0894,-4.66667 4.6667,-4.66667 2.5773,0 4.6667,2.08934 4.6667,4.66667 0,2.57733 -2.0894,4.66667 -4.6667,4.66667 -2.5773,0 -4.6667,-2.08934 -4.6667,-4.66667"
         fill-opacity="1"
         id="path12252" />
      <path
         fill="#ff5733"
         stroke="none"
         paint-order="stroke fill markers"
         d="m 1062.8333,136.5 c 0,-2.57733 2.0894,-4.66667 4.6667,-4.66667 2.5773,0 4.6667,2.08934 4.6667,4.66667 0,2.57733 -2.0894,4.66667 -4.6667,4.66667 -2.5773,0 -4.6667,-2.08934 -4.6667,-4.66667"
         fill-opacity="1"
         id="path12254" />
      <path
         fill="#900c3f"
         stroke="none"
         paint-order="stroke fill markers"
         d="m 1062.8333,143.5 c 0,-2.57733 2.0894,-4.66667 4.6667,-4.66667 2.5773,0 4.6667,2.08934 4.6667,4.66667 0,2.57733 -2.0894,4.66667 -4.6667,4.66667 -2.5773,0 -4.6667,-2.08934 -4.6667,-4.66667"
         fill-opacity="1"
         id="path12256" />
      <path
         fill="#900c3f"
         stroke="none"
         paint-order="stroke fill markers"
         d="m 1062.8333,150.5 c 0,-2.57733 2.0894,-4.66667 4.6667,-4.66667 2.5773,0 4.6667,2.08934 4.6667,4.66667 0,2.57733 -2.0894,4.66667 -4.6667,4.66667 -2.5773,0 -4.6667,-2.08934 -4.6667,-4.66667"
         fill-opacity="1"
         id="path12258" />
      <path
         fill="#900c3f"
         stroke="none"
         paint-order="stroke fill markers"
         d="m 1062.8333,157.5 c 0,-2.57733 2.0894,-4.66667 4.6667,-4.66667 2.5773,0 4.6667,2.08934 4.6667,4.66667 0,2.57733 -2.0894,4.66667 -4.6667,4.66667 -2.5773,0 -4.6667,-2.08934 -4.6667,-4.66667"
         fill-opacity="1"
         id="path12260" />
      <path
         fill="#581845"
         stroke="none"
         paint-order="stroke fill markers"
         d="m 1062.8333,164.5 c 0,-2.57733 2.0894,-4.66667 4.6667,-4.66667 2.5773,0 4.6667,2.08934 4.6667,4.66667 0,2.57733 -2.0894,4.66667 -4.6667,4.66667 -2.5773,0 -4.6667,-2.08934 -4.6667,-4.66667"
         fill-opacity="0"
         id="path12262" />
      <path
         fill="#581845"
         stroke="none"
         paint-order="stroke fill markers"
         d="m 1062.8333,171.5 c 0,-2.57733 2.0894,-4.66667 4.6667,-4.66667 2.5773,0 4.6667,2.08934 4.6667,4.66667 0,2.57733 -2.0894,4.66667 -4.6667,4.66667 -2.5773,0 -4.6667,-2.08934 -4.6667,-4.66667"
         fill-opacity="0"
         id="path12264" />
      <path
         fill="#581845"
         stroke="none"
         paint-order="stroke fill markers"
         d="m 1062.8333,178.5 c 0,-2.57733 2.0894,-4.66667 4.6667,-4.66667 2.5773,0 4.6667,2.08934 4.6667,4.66667 0,2.57733 -2.0894,4.66667 -4.6667,4.66667 -2.5773,0 -4.6667,-2.08934 -4.6667,-4.66667"
         fill-opacity="0"
         id="path12266" />
      <path
         fill="#581845"
         stroke="none"
         paint-order="stroke fill markers"
         d="m 1062.8333,185.5 c 0,-2.57733 2.0894,-4.66667 4.6667,-4.66667 2.5773,0 4.6667,2.08934 4.6667,4.66667 0,2.57733 -2.0894,4.66667 -4.6667,4.66667 -2.5773,0 -4.6667,-2.08934 -4.6667,-4.66667"
         fill-opacity="0"
         id="path12268" />
      <path
         fill="#581845"
         stroke="none"
         paint-order="stroke fill markers"
         d="m 1062.8333,192.5 c 0,-2.57733 2.0894,-4.66667 4.6667,-4.66667 2.5773,0 4.6667,2.08934 4.6667,4.66667 0,2.57733 -2.0894,4.66667 -4.6667,4.66667 -2.5773,0 -4.6667,-2.08934 -4.6667,-4.66667"
         fill-opacity="0"
         id="path12270" />
      <path
         fill="#900c3f"
         stroke="none"
         paint-order="stroke fill markers"
         d="m 1062.8333,199.5 c 0,-2.57733 2.0894,-4.66667 4.6667,-4.66667 2.5773,0 4.6667,2.08934 4.6667,4.66667 0,2.57733 -2.0894,4.66667 -4.6667,4.66667 -2.5773,0 -4.6667,-2.08934 -4.6667,-4.66667"
         fill-opacity="1"
         id="path12272" />
      <path
         fill="#900c3f"
         stroke="none"
         paint-order="stroke fill markers"
         d="m 1062.8333,206.5 c 0,-2.57733 2.0894,-4.66667 4.6667,-4.66667 2.5773,0 4.6667,2.08934 4.6667,4.66667 0,2.57733 -2.0894,4.66667 -4.6667,4.66667 -2.5773,0 -4.6667,-2.08934 -4.6667,-4.66667"
         fill-opacity="1"
         id="path12274" />
      <path
         fill="#900c3f"
         stroke="none"
         paint-order="stroke fill markers"
         d="m 1062.8333,213.5 c 0,-2.57733 2.0894,-4.66667 4.6667,-4.66667 2.5773,0 4.6667,2.08934 4.6667,4.66667 0,2.57733 -2.0894,4.66667 -4.6667,4.66667 -2.5773,0 -4.6667,-2.08934 -4.6667,-4.66667"
         fill-opacity="1"
         id="path12276" />
      <path
         fill="#ff5733"
         stroke="none"
         paint-order="stroke fill markers"
         d="m 1062.8333,220.5 c 0,-2.57733 2.0894,-4.66667 4.6667,-4.66667 2.5773,0 4.6667,2.08934 4.6667,4.66667 0,2.57733 -2.0894,4.66667 -4.6667,4.66667 -2.5773,0 -4.6667,-2.08934 -4.6667,-4.66667"
         fill-opacity="1"
         id="path12278" />
      <path
         fill="#c70039"
         stroke="none"
         paint-order="stroke fill markers"
         d="m 1062.8333,227.5 c 0,-2.57733 2.0894,-4.66667 4.6667,-4.66667 2.5773,0 4.6667,2.08934 4.6667,4.66667 0,2.57733 -2.0894,4.66667 -4.6667,4.66667 -2.5773,0 -4.6667,-2.08934 -4.6667,-4.66667"
         fill-opacity="1"
         id="path12280" />
      <path
         fill="#581845"
         stroke="none"
         paint-order="stroke fill markers"
         d="m 1069.8333,129.5 c 0,-2.57733 2.0894,-4.66667 4.6667,-4.66667 2.5773,0 4.6667,2.08934 4.6667,4.66667 0,2.57733 -2.0894,4.66667 -4.6667,4.66667 -2.5773,0 -4.6667,-2.08934 -4.6667,-4.66667"
         fill-opacity="0"
         id="path12332" />
      <path
         fill="#ff5733"
         stroke="none"
         paint-order="stroke fill markers"
         d="m 1069.8333,136.5 c 0,-2.57733 2.0894,-4.66667 4.6667,-4.66667 2.5773,0 4.6667,2.08934 4.6667,4.66667 0,2.57733 -2.0894,4.66667 -4.6667,4.66667 -2.5773,0 -4.6667,-2.08934 -4.6667,-4.66667"
         fill-opacity="1"
         id="path12334" />
      <path
         fill="#c70039"
         stroke="none"
         paint-order="stroke fill markers"
         d="m 1069.8333,143.5 c 0,-2.57733 2.0894,-4.66667 4.6667,-4.66667 2.5773,0 4.6667,2.08934 4.6667,4.66667 0,2.57733 -2.0894,4.66667 -4.6667,4.66667 -2.5773,0 -4.6667,-2.08934 -4.6667,-4.66667"
         fill-opacity="1"
         id="path12336" />
      <path
         fill="#900c3f"
         stroke="none"
         paint-order="stroke fill markers"
         d="m 1069.8333,150.5 c 0,-2.57733 2.0894,-4.66667 4.6667,-4.66667 2.5773,0 4.6667,2.08934 4.6667,4.66667 0,2.57733 -2.0894,4.66667 -4.6667,4.66667 -2.5773,0 -4.6667,-2.08934 -4.6667,-4.66667"
         fill-opacity="1"
         id="path12338" />
      <path
         fill="#581845"
         stroke="none"
         paint-order="stroke fill markers"
         d="m 1069.8333,157.5 c 0,-2.57733 2.0894,-4.66667 4.6667,-4.66667 2.5773,0 4.6667,2.08934 4.6667,4.66667 0,2.57733 -2.0894,4.66667 -4.6667,4.66667 -2.5773,0 -4.6667,-2.08934 -4.6667,-4.66667"
         fill-opacity="0"
         id="path12340" />
      <path
         fill="#900c3f"
         stroke="none"
         paint-order="stroke fill markers"
         d="m 1069.8333,164.5 c 0,-2.57733 2.0894,-4.66667 4.6667,-4.66667 2.5773,0 4.6667,2.08934 4.6667,4.66667 0,2.57733 -2.0894,4.66667 -4.6667,4.66667 -2.5773,0 -4.6667,-2.08934 -4.6667,-4.66667"
         fill-opacity="1"
         id="path12342" />
      <path
         fill="#581845"
         stroke="none"
         paint-order="stroke fill markers"
         d="m 1069.8333,171.5 c 0,-2.57733 2.0894,-4.66667 4.6667,-4.66667 2.5773,0 4.6667,2.08934 4.6667,4.66667 0,2.57733 -2.0894,4.66667 -4.6667,4.66667 -2.5773,0 -4.6667,-2.08934 -4.6667,-4.66667"
         fill-opacity="0"
         id="path12344" />
      <path
         fill="#ff5733"
         stroke="none"
         paint-order="stroke fill markers"
         d="m 1069.8333,178.5 c 0,-2.57733 2.0894,-4.66667 4.6667,-4.66667 2.5773,0 4.6667,2.08934 4.6667,4.66667 0,2.57733 -2.0894,4.66667 -4.6667,4.66667 -2.5773,0 -4.6667,-2.08934 -4.6667,-4.66667"
         fill-opacity="1"
         id="path12346" />
      <path
         fill="#581845"
         stroke="none"
         paint-order="stroke fill markers"
         d="m 1069.8333,185.5 c 0,-2.57733 2.0894,-4.66667 4.6667,-4.66667 2.5773,0 4.6667,2.08934 4.6667,4.66667 0,2.57733 -2.0894,4.66667 -4.6667,4.66667 -2.5773,0 -4.6667,-2.08934 -4.6667,-4.66667"
         fill-opacity="0"
         id="path12348" />
      <path
         fill="#900c3f"
         stroke="none"
         paint-order="stroke fill markers"
         d="m 1069.8333,192.5 c 0,-2.57733 2.0894,-4.66667 4.6667,-4.66667 2.5773,0 4.6667,2.08934 4.6667,4.66667 0,2.57733 -2.0894,4.66667 -4.6667,4.66667 -2.5773,0 -4.6667,-2.08934 -4.6667,-4.66667"
         fill-opacity="1"
         id="path12350" />
      <path
         fill="#581845"
         stroke="none"
         paint-order="stroke fill markers"
         d="m 1069.8333,199.5 c 0,-2.57733 2.0894,-4.66667 4.6667,-4.66667 2.5773,0 4.6667,2.08934 4.6667,4.66667 0,2.57733 -2.0894,4.66667 -4.6667,4.66667 -2.5773,0 -4.6667,-2.08934 -4.6667,-4.66667"
         fill-opacity="0"
         id="path12352" />
      <path
         fill="#900c3f"
         stroke="none"
         paint-order="stroke fill markers"
         d="m 1069.8333,206.5 c 0,-2.57733 2.0894,-4.66667 4.6667,-4.66667 2.5773,0 4.6667,2.08934 4.6667,4.66667 0,2.57733 -2.0894,4.66667 -4.6667,4.66667 -2.5773,0 -4.6667,-2.08934 -4.6667,-4.66667"
         fill-opacity="1"
         id="path12354" />
      <path
         fill="#c70039"
         stroke="none"
         paint-order="stroke fill markers"
         d="m 1069.8333,213.5 c 0,-2.57733 2.0894,-4.66667 4.6667,-4.66667 2.5773,0 4.6667,2.08934 4.6667,4.66667 0,2.57733 -2.0894,4.66667 -4.6667,4.66667 -2.5773,0 -4.6667,-2.08934 -4.6667,-4.66667"
         fill-opacity="1"
         id="path12356" />
      <path
         fill="#ff5733"
         stroke="none"
         paint-order="stroke fill markers"
         d="m 1069.8333,220.5 c 0,-2.57733 2.0894,-4.66667 4.6667,-4.66667 2.5773,0 4.6667,2.08934 4.6667,4.66667 0,2.57733 -2.0894,4.66667 -4.6667,4.66667 -2.5773,0 -4.6667,-2.08934 -4.6667,-4.66667"
         fill-opacity="1"
         id="path12358" />
      <path
         fill="#581845"
         stroke="none"
         paint-order="stroke fill markers"
         d="m 1069.8333,227.5 c 0,-2.57733 2.0894,-4.66667 4.6667,-4.66667 2.5773,0 4.6667,2.08934 4.6667,4.66667 0,2.57733 -2.0894,4.66667 -4.6667,4.66667 -2.5773,0 -4.6667,-2.08934 -4.6667,-4.66667"
         fill-opacity="0"
         id="path12360" />
      <path
         fill="#ff5733"
         stroke="none"
         paint-order="stroke fill markers"
         d="m 1076.8333,129.5 c 0,-2.57733 2.0894,-4.66667 4.6667,-4.66667 2.5773,0 4.6667,2.08934 4.6667,4.66667 0,2.57733 -2.0894,4.66667 -4.6667,4.66667 -2.5773,0 -4.6667,-2.08934 -4.6667,-4.66667"
         fill-opacity="1"
         id="path12420" />
      <path
         fill="#581845"
         stroke="none"
         paint-order="stroke fill markers"
         d="m 1076.8333,136.5 c 0,-2.57733 2.0894,-4.66667 4.6667,-4.66667 2.5773,0 4.6667,2.08934 4.6667,4.66667 0,2.57733 -2.0894,4.66667 -4.6667,4.66667 -2.5773,0 -4.6667,-2.08934 -4.6667,-4.66667"
         fill-opacity="0"
         id="path12422" />
      <path
         fill="#ff5733"
         stroke="none"
         paint-order="stroke fill markers"
         d="m 1076.8333,143.5 c 0,-2.57733 2.0894,-4.66667 4.6667,-4.66667 2.5773,0 4.6667,2.08934 4.6667,4.66667 0,2.57733 -2.0894,4.66667 -4.6667,4.66667 -2.5773,0 -4.6667,-2.08934 -4.6667,-4.66667"
         fill-opacity="1"
         id="path12424" />
      <path
         fill="#ff5733"
         stroke="none"
         paint-order="stroke fill markers"
         d="m 1076.8333,150.5 c 0,-2.57733 2.0894,-4.66667 4.6667,-4.66667 2.5773,0 4.6667,2.08934 4.6667,4.66667 0,2.57733 -2.0894,4.66667 -4.6667,4.66667 -2.5773,0 -4.6667,-2.08934 -4.6667,-4.66667"
         fill-opacity="1"
         id="path12426" />
      <path
         fill="#581845"
         stroke="none"
         paint-order="stroke fill markers"
         d="m 1076.8333,157.5 c 0,-2.57733 2.0894,-4.66667 4.6667,-4.66667 2.5773,0 4.6667,2.08934 4.6667,4.66667 0,2.57733 -2.0894,4.66667 -4.6667,4.66667 -2.5773,0 -4.6667,-2.08934 -4.6667,-4.66667"
         fill-opacity="0"
         id="path12428" />
      <path
         fill="#581845"
         stroke="none"
         paint-order="stroke fill markers"
         d="m 1076.8333,164.5 c 0,-2.57733 2.0894,-4.66667 4.6667,-4.66667 2.5773,0 4.6667,2.08934 4.6667,4.66667 0,2.57733 -2.0894,4.66667 -4.6667,4.66667 -2.5773,0 -4.6667,-2.08934 -4.6667,-4.66667"
         fill-opacity="0"
         id="path12430" />
      <path
         fill="#ff5733"
         stroke="none"
         paint-order="stroke fill markers"
         d="m 1076.8333,171.5 c 0,-2.57733 2.0894,-4.66667 4.6667,-4.66667 2.5773,0 4.6667,2.08934 4.6667,4.66667 0,2.57733 -2.0894,4.66667 -4.6667,4.66667 -2.5773,0 -4.6667,-2.08934 -4.6667,-4.66667"
         fill-opacity="1"
         id="path12432" />
      <path
         fill="#581845"
         stroke="none"
         paint-order="stroke fill markers"
         d="m 1076.8333,178.5 c 0,-2.57733 2.0894,-4.66667 4.6667,-4.66667 2.5773,0 4.6667,2.08934 4.6667,4.66667 0,2.57733 -2.0894,4.66667 -4.6667,4.66667 -2.5773,0 -4.6667,-2.08934 -4.6667,-4.66667"
         fill-opacity="0"
         id="path12434" />
      <path
         fill="#ff5733"
         stroke="none"
         paint-order="stroke fill markers"
         d="m 1076.8333,185.5 c 0,-2.57733 2.0894,-4.66667 4.6667,-4.66667 2.5773,0 4.6667,2.08934 4.6667,4.66667 0,2.57733 -2.0894,4.66667 -4.6667,4.66667 -2.5773,0 -4.6667,-2.08934 -4.6667,-4.66667"
         fill-opacity="1"
         id="path12436" />
      <path
         fill="#581845"
         stroke="none"
         paint-order="stroke fill markers"
         d="m 1076.8333,192.5 c 0,-2.57733 2.0894,-4.66667 4.6667,-4.66667 2.5773,0 4.6667,2.08934 4.6667,4.66667 0,2.57733 -2.0894,4.66667 -4.6667,4.66667 -2.5773,0 -4.6667,-2.08934 -4.6667,-4.66667"
         fill-opacity="0"
         id="path12438" />
      <path
         fill="#581845"
         stroke="none"
         paint-order="stroke fill markers"
         d="m 1076.8333,199.5 c 0,-2.57733 2.0894,-4.66667 4.6667,-4.66667 2.5773,0 4.6667,2.08934 4.6667,4.66667 0,2.57733 -2.0894,4.66667 -4.6667,4.66667 -2.5773,0 -4.6667,-2.08934 -4.6667,-4.66667"
         fill-opacity="0"
         id="path12440" />
      <path
         fill="#ff5733"
         stroke="none"
         paint-order="stroke fill markers"
         d="m 1076.8333,206.5 c 0,-2.57733 2.0894,-4.66667 4.6667,-4.66667 2.5773,0 4.6667,2.08934 4.6667,4.66667 0,2.57733 -2.0894,4.66667 -4.6667,4.66667 -2.5773,0 -4.6667,-2.08934 -4.6667,-4.66667"
         fill-opacity="1"
         id="path12442" />
      <path
         fill="#ff5733"
         stroke="none"
         paint-order="stroke fill markers"
         d="m 1076.8333,213.5 c 0,-2.57733 2.0894,-4.66667 4.6667,-4.66667 2.5773,0 4.6667,2.08934 4.6667,4.66667 0,2.57733 -2.0894,4.66667 -4.6667,4.66667 -2.5773,0 -4.6667,-2.08934 -4.6667,-4.66667"
         fill-opacity="1"
         id="path12444" />
      <path
         fill="#581845"
         stroke="none"
         paint-order="stroke fill markers"
         d="m 1076.8333,220.5 c 0,-2.57733 2.0894,-4.66667 4.6667,-4.66667 2.5773,0 4.6667,2.08934 4.6667,4.66667 0,2.57733 -2.0894,4.66667 -4.6667,4.66667 -2.5773,0 -4.6667,-2.08934 -4.6667,-4.66667"
         fill-opacity="0"
         id="path12446" />
      <path
         fill="#ff5733"
         stroke="none"
         paint-order="stroke fill markers"
         d="m 1076.8333,227.5 c 0,-2.57733 2.0894,-4.66667 4.6667,-4.66667 2.5773,0 4.6667,2.08934 4.6667,4.66667 0,2.57733 -2.0894,4.66667 -4.6667,4.66667 -2.5773,0 -4.6667,-2.08934 -4.6667,-4.66667"
         fill-opacity="1"
         id="path12448" />
      <path
         fill="#ff5733"
         stroke="none"
         paint-order="stroke fill markers"
         d="m 1083.8333,129.5 c 0,-2.57733 2.0894,-4.66667 4.6667,-4.66667 2.5773,0 4.6667,2.08934 4.6667,4.66667 0,2.57733 -2.0894,4.66667 -4.6667,4.66667 -2.5773,0 -4.6667,-2.08934 -4.6667,-4.66667"
         fill-opacity="1"
         id="path12508" />
      <path
         fill="#ff5733"
         stroke="none"
         paint-order="stroke fill markers"
         d="m 1083.8333,136.5 c 0,-2.57733 2.0894,-4.66667 4.6667,-4.66667 2.5773,0 4.6667,2.08934 4.6667,4.66667 0,2.57733 -2.0894,4.66667 -4.6667,4.66667 -2.5773,0 -4.6667,-2.08934 -4.6667,-4.66667"
         fill-opacity="1"
         id="path12510" />
      <path
         fill="#581845"
         stroke="none"
         paint-order="stroke fill markers"
         d="m 1083.8333,143.5 c 0,-2.57733 2.0894,-4.66667 4.6667,-4.66667 2.5773,0 4.6667,2.08934 4.6667,4.66667 0,2.57733 -2.0894,4.66667 -4.6667,4.66667 -2.5773,0 -4.6667,-2.08934 -4.6667,-4.66667"
         fill-opacity="0"
         id="path12512" />
      <path
         fill="#581845"
         stroke="none"
         paint-order="stroke fill markers"
         d="m 1083.8333,150.5 c 0,-2.57733 2.0894,-4.66667 4.6667,-4.66667 2.5773,0 4.6667,2.08934 4.6667,4.66667 0,2.57733 -2.0894,4.66667 -4.6667,4.66667 -2.5773,0 -4.6667,-2.08934 -4.6667,-4.66667"
         fill-opacity="0"
         id="path12514" />
      <path
         fill="#581845"
         stroke="none"
         paint-order="stroke fill markers"
         d="m 1083.8333,157.5 c 0,-2.57733 2.0894,-4.66667 4.6667,-4.66667 2.5773,0 4.6667,2.08934 4.6667,4.66667 0,2.57733 -2.0894,4.66667 -4.6667,4.66667 -2.5773,0 -4.6667,-2.08934 -4.6667,-4.66667"
         fill-opacity="0"
         id="path12516" />
      <path
         fill="#ff5733"
         stroke="none"
         paint-order="stroke fill markers"
         d="m 1083.8333,164.5 c 0,-2.57733 2.0894,-4.66667 4.6667,-4.66667 2.5773,0 4.6667,2.08934 4.6667,4.66667 0,2.57733 -2.0894,4.66667 -4.6667,4.66667 -2.5773,0 -4.6667,-2.08934 -4.6667,-4.66667"
         fill-opacity="1"
         id="path12518" />
      <path
         fill="#581845"
         stroke="none"
         paint-order="stroke fill markers"
         d="m 1083.8333,171.5 c 0,-2.57733 2.0894,-4.66667 4.6667,-4.66667 2.5773,0 4.6667,2.08934 4.6667,4.66667 0,2.57733 -2.0894,4.66667 -4.6667,4.66667 -2.5773,0 -4.6667,-2.08934 -4.6667,-4.66667"
         fill-opacity="0"
         id="path12520" />
      <path
         fill="#900c3f"
         stroke="none"
         paint-order="stroke fill markers"
         d="m 1083.8333,178.5 c 0,-2.57733 2.0894,-4.66667 4.6667,-4.66667 2.5773,0 4.6667,2.08934 4.6667,4.66667 0,2.57733 -2.0894,4.66667 -4.6667,4.66667 -2.5773,0 -4.6667,-2.08934 -4.6667,-4.66667"
         fill-opacity="1"
         id="path12522" />
      <path
         fill="#581845"
         stroke="none"
         paint-order="stroke fill markers"
         d="m 1083.8333,185.5 c 0,-2.57733 2.0894,-4.66667 4.6667,-4.66667 2.5773,0 4.6667,2.08934 4.6667,4.66667 0,2.57733 -2.0894,4.66667 -4.6667,4.66667 -2.5773,0 -4.6667,-2.08934 -4.6667,-4.66667"
         fill-opacity="0"
         id="path12524" />
      <path
         fill="#ff5733"
         stroke="none"
         paint-order="stroke fill markers"
         d="m 1083.8333,192.5 c 0,-2.57733 2.0894,-4.66667 4.6667,-4.66667 2.5773,0 4.6667,2.08934 4.6667,4.66667 0,2.57733 -2.0894,4.66667 -4.6667,4.66667 -2.5773,0 -4.6667,-2.08934 -4.6667,-4.66667"
         fill-opacity="1"
         id="path12526" />
      <path
         fill="#581845"
         stroke="none"
         paint-order="stroke fill markers"
         d="m 1083.8333,199.5 c 0,-2.57733 2.0894,-4.66667 4.6667,-4.66667 2.5773,0 4.6667,2.08934 4.6667,4.66667 0,2.57733 -2.0894,4.66667 -4.6667,4.66667 -2.5773,0 -4.6667,-2.08934 -4.6667,-4.66667"
         fill-opacity="0"
         id="path12528" />
      <path
         fill="#581845"
         stroke="none"
         paint-order="stroke fill markers"
         d="m 1083.8333,206.5 c 0,-2.57733 2.0894,-4.66667 4.6667,-4.66667 2.5773,0 4.6667,2.08934 4.6667,4.66667 0,2.57733 -2.0894,4.66667 -4.6667,4.66667 -2.5773,0 -4.6667,-2.08934 -4.6667,-4.66667"
         fill-opacity="0"
         id="path12530" />
      <path
         fill="#581845"
         stroke="none"
         paint-order="stroke fill markers"
         d="m 1083.8333,213.5 c 0,-2.57733 2.0894,-4.66667 4.6667,-4.66667 2.5773,0 4.6667,2.08934 4.6667,4.66667 0,2.57733 -2.0894,4.66667 -4.6667,4.66667 -2.5773,0 -4.6667,-2.08934 -4.6667,-4.66667"
         fill-opacity="0"
         id="path12532" />
      <path
         fill="#ff5733"
         stroke="none"
         paint-order="stroke fill markers"
         d="m 1083.8333,220.5 c 0,-2.57733 2.0894,-4.66667 4.6667,-4.66667 2.5773,0 4.6667,2.08934 4.6667,4.66667 0,2.57733 -2.0894,4.66667 -4.6667,4.66667 -2.5773,0 -4.6667,-2.08934 -4.6667,-4.66667"
         fill-opacity="1"
         id="path12534" />
      <path
         fill="#ff5733"
         stroke="none"
         paint-order="stroke fill markers"
         d="m 1083.8333,227.5 c 0,-2.57733 2.0894,-4.66667 4.6667,-4.66667 2.5773,0 4.6667,2.08934 4.6667,4.66667 0,2.57733 -2.0894,4.66667 -4.6667,4.66667 -2.5773,0 -4.6667,-2.08934 -4.6667,-4.66667"
         fill-opacity="1"
         id="path12536" />
      <path
         fill="#ff5733"
         stroke="none"
         paint-order="stroke fill markers"
         d="m 1090.8333,129.5 c 0,-2.57733 2.0894,-4.66667 4.6667,-4.66667 2.5773,0 4.6667,2.08934 4.6667,4.66667 0,2.57733 -2.0894,4.66667 -4.6667,4.66667 -2.5773,0 -4.6667,-2.08934 -4.6667,-4.66667"
         fill-opacity="1"
         id="path12596" />
      <path
         fill="#581845"
         stroke="none"
         paint-order="stroke fill markers"
         d="m 1090.8333,136.5 c 0,-2.57733 2.0894,-4.66667 4.6667,-4.66667 2.5773,0 4.6667,2.08934 4.6667,4.66667 0,2.57733 -2.0894,4.66667 -4.6667,4.66667 -2.5773,0 -4.6667,-2.08934 -4.6667,-4.66667"
         fill-opacity="0"
         id="path12598" />
      <path
         fill="#ff5733"
         stroke="none"
         paint-order="stroke fill markers"
         d="m 1090.8333,143.5 c 0,-2.57733 2.0894,-4.66667 4.6667,-4.66667 2.5773,0 4.6667,2.08934 4.6667,4.66667 0,2.57733 -2.0894,4.66667 -4.6667,4.66667 -2.5773,0 -4.6667,-2.08934 -4.6667,-4.66667"
         fill-opacity="1"
         id="path12600" />
      <path
         fill="#ff5733"
         stroke="none"
         paint-order="stroke fill markers"
         d="m 1090.8333,150.5 c 0,-2.57733 2.0894,-4.66667 4.6667,-4.66667 2.5773,0 4.6667,2.08934 4.6667,4.66667 0,2.57733 -2.0894,4.66667 -4.6667,4.66667 -2.5773,0 -4.6667,-2.08934 -4.6667,-4.66667"
         fill-opacity="1"
         id="path12602" />
      <path
         fill="#581845"
         stroke="none"
         paint-order="stroke fill markers"
         d="m 1090.8333,157.5 c 0,-2.57733 2.0894,-4.66667 4.6667,-4.66667 2.5773,0 4.6667,2.08934 4.6667,4.66667 0,2.57733 -2.0894,4.66667 -4.6667,4.66667 -2.5773,0 -4.6667,-2.08934 -4.6667,-4.66667"
         fill-opacity="0"
         id="path12604" />
      <path
         fill="#581845"
         stroke="none"
         paint-order="stroke fill markers"
         d="m 1090.8333,164.5 c 0,-2.57733 2.0894,-4.66667 4.6667,-4.66667 2.5773,0 4.6667,2.08934 4.6667,4.66667 0,2.57733 -2.0894,4.66667 -4.6667,4.66667 -2.5773,0 -4.6667,-2.08934 -4.6667,-4.66667"
         fill-opacity="0"
         id="path12606" />
      <path
         fill="#ff5733"
         stroke="none"
         paint-order="stroke fill markers"
         d="m 1090.8333,171.5 c 0,-2.57733 2.0894,-4.66667 4.6667,-4.66667 2.5773,0 4.6667,2.08934 4.6667,4.66667 0,2.57733 -2.0894,4.66667 -4.6667,4.66667 -2.5773,0 -4.6667,-2.08934 -4.6667,-4.66667"
         fill-opacity="1"
         id="path12608" />
      <path
         fill="#581845"
         stroke="none"
         paint-order="stroke fill markers"
         d="m 1090.8333,178.5 c 0,-2.57733 2.0894,-4.66667 4.6667,-4.66667 2.5773,0 4.6667,2.08934 4.6667,4.66667 0,2.57733 -2.0894,4.66667 -4.6667,4.66667 -2.5773,0 -4.6667,-2.08934 -4.6667,-4.66667"
         fill-opacity="0"
         id="path12610" />
      <path
         fill="#ff5733"
         stroke="none"
         paint-order="stroke fill markers"
         d="m 1090.8333,185.5 c 0,-2.57733 2.0894,-4.66667 4.6667,-4.66667 2.5773,0 4.6667,2.08934 4.6667,4.66667 0,2.57733 -2.0894,4.66667 -4.6667,4.66667 -2.5773,0 -4.6667,-2.08934 -4.6667,-4.66667"
         fill-opacity="1"
         id="path12612" />
      <path
         fill="#581845"
         stroke="none"
         paint-order="stroke fill markers"
         d="m 1090.8333,192.5 c 0,-2.57733 2.0894,-4.66667 4.6667,-4.66667 2.5773,0 4.6667,2.08934 4.6667,4.66667 0,2.57733 -2.0894,4.66667 -4.6667,4.66667 -2.5773,0 -4.6667,-2.08934 -4.6667,-4.66667"
         fill-opacity="0"
         id="path12614" />
      <path
         fill="#581845"
         stroke="none"
         paint-order="stroke fill markers"
         d="m 1090.8333,199.5 c 0,-2.57733 2.0894,-4.66667 4.6667,-4.66667 2.5773,0 4.6667,2.08934 4.6667,4.66667 0,2.57733 -2.0894,4.66667 -4.6667,4.66667 -2.5773,0 -4.6667,-2.08934 -4.6667,-4.66667"
         fill-opacity="0"
         id="path12616" />
      <path
         fill="#ff5733"
         stroke="none"
         paint-order="stroke fill markers"
         d="m 1090.8333,206.5 c 0,-2.57733 2.0894,-4.66667 4.6667,-4.66667 2.5773,0 4.6667,2.08934 4.6667,4.66667 0,2.57733 -2.0894,4.66667 -4.6667,4.66667 -2.5773,0 -4.6667,-2.08934 -4.6667,-4.66667"
         fill-opacity="1"
         id="path12618" />
      <path
         fill="#ff5733"
         stroke="none"
         paint-order="stroke fill markers"
         d="m 1090.8333,213.5 c 0,-2.57733 2.0894,-4.66667 4.6667,-4.66667 2.5773,0 4.6667,2.08934 4.6667,4.66667 0,2.57733 -2.0894,4.66667 -4.6667,4.66667 -2.5773,0 -4.6667,-2.08934 -4.6667,-4.66667"
         fill-opacity="1"
         id="path12620" />
      <path
         fill="#581845"
         stroke="none"
         paint-order="stroke fill markers"
         d="m 1090.8333,220.5 c 0,-2.57733 2.0894,-4.66667 4.6667,-4.66667 2.5773,0 4.6667,2.08934 4.6667,4.66667 0,2.57733 -2.0894,4.66667 -4.6667,4.66667 -2.5773,0 -4.6667,-2.08934 -4.6667,-4.66667"
         fill-opacity="0"
         id="path12622" />
      <path
         fill="#ff5733"
         stroke="none"
         paint-order="stroke fill markers"
         d="m 1090.8333,227.5 c 0,-2.57733 2.0894,-4.66667 4.6667,-4.66667 2.5773,0 4.6667,2.08934 4.6667,4.66667 0,2.57733 -2.0894,4.66667 -4.6667,4.66667 -2.5773,0 -4.6667,-2.08934 -4.6667,-4.66667"
         fill-opacity="1"
         id="path12624" />
      <path
         fill="#581845"
         stroke="none"
         paint-order="stroke fill markers"
         d="m 1097.8333,129.5 c 0,-2.57733 2.0894,-4.66667 4.6667,-4.66667 2.5773,0 4.6667,2.08934 4.6667,4.66667 0,2.57733 -2.0894,4.66667 -4.6667,4.66667 -2.5773,0 -4.6667,-2.08934 -4.6667,-4.66667"
         fill-opacity="0"
         id="path12686" />
      <path
         fill="#ff5733"
         stroke="none"
         paint-order="stroke fill markers"
         d="m 1097.8333,136.5 c 0,-2.57733 2.0894,-4.66667 4.6667,-4.66667 2.5773,0 4.6667,2.08934 4.6667,4.66667 0,2.57733 -2.0894,4.66667 -4.6667,4.66667 -2.5773,0 -4.6667,-2.08934 -4.6667,-4.66667"
         fill-opacity="1"
         id="path12688" />
      <path
         fill="#c70039"
         stroke="none"
         paint-order="stroke fill markers"
         d="m 1097.8333,143.5 c 0,-2.57733 2.0894,-4.66667 4.6667,-4.66667 2.5773,0 4.6667,2.08934 4.6667,4.66667 0,2.57733 -2.0894,4.66667 -4.6667,4.66667 -2.5773,0 -4.6667,-2.08934 -4.6667,-4.66667"
         fill-opacity="1"
         id="path12690" />
      <path
         fill="#900c3f"
         stroke="none"
         paint-order="stroke fill markers"
         d="m 1097.8333,150.5 c 0,-2.57733 2.0894,-4.66667 4.6667,-4.66667 2.5773,0 4.6667,2.08934 4.6667,4.66667 0,2.57733 -2.0894,4.66667 -4.6667,4.66667 -2.5773,0 -4.6667,-2.08934 -4.6667,-4.66667"
         fill-opacity="1"
         id="path12692" />
      <path
         fill="#581845"
         stroke="none"
         paint-order="stroke fill markers"
         d="m 1097.8333,157.5 c 0,-2.57733 2.0894,-4.66667 4.6667,-4.66667 2.5773,0 4.6667,2.08934 4.6667,4.66667 0,2.57733 -2.0894,4.66667 -4.6667,4.66667 -2.5773,0 -4.6667,-2.08934 -4.6667,-4.66667"
         fill-opacity="0"
         id="path12694" />
      <path
         fill="#900c3f"
         stroke="none"
         paint-order="stroke fill markers"
         d="m 1097.8333,164.5 c 0,-2.57733 2.0894,-4.66667 4.6667,-4.66667 2.5773,0 4.6667,2.08934 4.6667,4.66667 0,2.57733 -2.0894,4.66667 -4.6667,4.66667 -2.5773,0 -4.6667,-2.08934 -4.6667,-4.66667"
         fill-opacity="1"
         id="path12696" />
      <path
         fill="#581845"
         stroke="none"
         paint-order="stroke fill markers"
         d="m 1097.8333,171.5 c 0,-2.57733 2.0894,-4.66667 4.6667,-4.66667 2.5773,0 4.6667,2.08934 4.6667,4.66667 0,2.57733 -2.0894,4.66667 -4.6667,4.66667 -2.5773,0 -4.6667,-2.08934 -4.6667,-4.66667"
         fill-opacity="0"
         id="path12698" />
      <path
         fill="#ff5733"
         stroke="none"
         paint-order="stroke fill markers"
         d="m 1097.8333,178.5 c 0,-2.57733 2.0894,-4.66667 4.6667,-4.66667 2.5773,0 4.6667,2.08934 4.6667,4.66667 0,2.57733 -2.0894,4.66667 -4.6667,4.66667 -2.5773,0 -4.6667,-2.08934 -4.6667,-4.66667"
         fill-opacity="1"
         id="path12700" />
      <path
         fill="#581845"
         stroke="none"
         paint-order="stroke fill markers"
         d="m 1097.8333,185.5 c 0,-2.57733 2.0894,-4.66667 4.6667,-4.66667 2.5773,0 4.6667,2.08934 4.6667,4.66667 0,2.57733 -2.0894,4.66667 -4.6667,4.66667 -2.5773,0 -4.6667,-2.08934 -4.6667,-4.66667"
         fill-opacity="0"
         id="path12702" />
      <path
         fill="#900c3f"
         stroke="none"
         paint-order="stroke fill markers"
         d="m 1097.8333,192.5 c 0,-2.57733 2.0894,-4.66667 4.6667,-4.66667 2.5773,0 4.6667,2.08934 4.6667,4.66667 0,2.57733 -2.0894,4.66667 -4.6667,4.66667 -2.5773,0 -4.6667,-2.08934 -4.6667,-4.66667"
         fill-opacity="1"
         id="path12704" />
      <path
         fill="#581845"
         stroke="none"
         paint-order="stroke fill markers"
         d="m 1097.8333,199.5 c 0,-2.57733 2.0894,-4.66667 4.6667,-4.66667 2.5773,0 4.6667,2.08934 4.6667,4.66667 0,2.57733 -2.0894,4.66667 -4.6667,4.66667 -2.5773,0 -4.6667,-2.08934 -4.6667,-4.66667"
         fill-opacity="0"
         id="path12706" />
      <path
         fill="#900c3f"
         stroke="none"
         paint-order="stroke fill markers"
         d="m 1097.8333,206.5 c 0,-2.57733 2.0894,-4.66667 4.6667,-4.66667 2.5773,0 4.6667,2.08934 4.6667,4.66667 0,2.57733 -2.0894,4.66667 -4.6667,4.66667 -2.5773,0 -4.6667,-2.08934 -4.6667,-4.66667"
         fill-opacity="1"
         id="path12708" />
      <path
         fill="#c70039"
         stroke="none"
         paint-order="stroke fill markers"
         d="m 1097.8333,213.5 c 0,-2.57733 2.0894,-4.66667 4.6667,-4.66667 2.5773,0 4.6667,2.08934 4.6667,4.66667 0,2.57733 -2.0894,4.66667 -4.6667,4.66667 -2.5773,0 -4.6667,-2.08934 -4.6667,-4.66667"
         fill-opacity="1"
         id="path12710" />
      <path
         fill="#ff5733"
         stroke="none"
         paint-order="stroke fill markers"
         d="m 1097.8333,220.5 c 0,-2.57733 2.0894,-4.66667 4.6667,-4.66667 2.5773,0 4.6667,2.08934 4.6667,4.66667 0,2.57733 -2.0894,4.66667 -4.6667,4.66667 -2.5773,0 -4.6667,-2.08934 -4.6667,-4.66667"
         fill-opacity="1"
         id="path12712" />
      <path
         fill="#581845"
         stroke="none"
         paint-order="stroke fill markers"
         d="m 1097.8333,227.5 c 0,-2.57733 2.0894,-4.66667 4.6667,-4.66667 2.5773,0 4.6667,2.08934 4.6667,4.66667 0,2.57733 -2.0894,4.66667 -4.6667,4.66667 -2.5773,0 -4.6667,-2.08934 -4.6667,-4.66667"
         fill-opacity="0"
         id="path12714" />
      <path
         fill="#c70039"
         stroke="none"
         paint-order="stroke fill markers"
         d="m 1104.8333,129.5 c 0,-2.57733 2.0894,-4.66667 4.6667,-4.66667 2.5773,0 4.6667,2.08934 4.6667,4.66667 0,2.57733 -2.0894,4.66667 -4.6667,4.66667 -2.5773,0 -4.6667,-2.08934 -4.6667,-4.66667"
         fill-opacity="1"
         id="path12774" />
      <path
         fill="#ff5733"
         stroke="none"
         paint-order="stroke fill markers"
         d="m 1104.8333,136.5 c 0,-2.57733 2.0894,-4.66667 4.6667,-4.66667 2.5773,0 4.6667,2.08934 4.6667,4.66667 0,2.57733 -2.0894,4.66667 -4.6667,4.66667 -2.5773,0 -4.6667,-2.08934 -4.6667,-4.66667"
         fill-opacity="1"
         id="path12776" />
      <path
         fill="#900c3f"
         stroke="none"
         paint-order="stroke fill markers"
         d="m 1104.8333,143.5 c 0,-2.57733 2.0894,-4.66667 4.6667,-4.66667 2.5773,0 4.6667,2.08934 4.6667,4.66667 0,2.57733 -2.0894,4.66667 -4.6667,4.66667 -2.5773,0 -4.6667,-2.08934 -4.6667,-4.66667"
         fill-opacity="1"
         id="path12778" />
      <path
         fill="#900c3f"
         stroke="none"
         paint-order="stroke fill markers"
         d="m 1104.8333,150.5 c 0,-2.57733 2.0894,-4.66667 4.6667,-4.66667 2.5773,0 4.6667,2.08934 4.6667,4.66667 0,2.57733 -2.0894,4.66667 -4.6667,4.66667 -2.5773,0 -4.6667,-2.08934 -4.6667,-4.66667"
         fill-opacity="1"
         id="path12780" />
      <path
         fill="#900c3f"
         stroke="none"
         paint-order="stroke fill markers"
         d="m 1104.8333,157.5 c 0,-2.57733 2.0894,-4.66667 4.6667,-4.66667 2.5773,0 4.6667,2.08934 4.6667,4.66667 0,2.57733 -2.0894,4.66667 -4.6667,4.66667 -2.5773,0 -4.6667,-2.08934 -4.6667,-4.66667"
         fill-opacity="1"
         id="path12782" />
      <path
         fill="#581845"
         stroke="none"
         paint-order="stroke fill markers"
         d="m 1104.8333,164.5 c 0,-2.57733 2.0894,-4.66667 4.6667,-4.66667 2.5773,0 4.6667,2.08934 4.6667,4.66667 0,2.57733 -2.0894,4.66667 -4.6667,4.66667 -2.5773,0 -4.6667,-2.08934 -4.6667,-4.66667"
         fill-opacity="0"
         id="path12784" />
      <path
         fill="#581845"
         stroke="none"
         paint-order="stroke fill markers"
         d="m 1104.8333,171.5 c 0,-2.57733 2.0894,-4.66667 4.6667,-4.66667 2.5773,0 4.6667,2.08934 4.6667,4.66667 0,2.57733 -2.0894,4.66667 -4.6667,4.66667 -2.5773,0 -4.6667,-2.08934 -4.6667,-4.66667"
         fill-opacity="0"
         id="path12786" />
      <path
         fill="#581845"
         stroke="none"
         paint-order="stroke fill markers"
         d="m 1104.8333,178.5 c 0,-2.57733 2.0894,-4.66667 4.6667,-4.66667 2.5773,0 4.6667,2.08934 4.6667,4.66667 0,2.57733 -2.0894,4.66667 -4.6667,4.66667 -2.5773,0 -4.6667,-2.08934 -4.6667,-4.66667"
         fill-opacity="0"
         id="path12788" />
      <path
         fill="#581845"
         stroke="none"
         paint-order="stroke fill markers"
         d="m 1104.8333,185.5 c 0,-2.57733 2.0894,-4.66667 4.6667,-4.66667 2.5773,0 4.6667,2.08934 4.6667,4.66667 0,2.57733 -2.0894,4.66667 -4.6667,4.66667 -2.5773,0 -4.6667,-2.08934 -4.6667,-4.66667"
         fill-opacity="0"
         id="path12790" />
      <path
         fill="#581845"
         stroke="none"
         paint-order="stroke fill markers"
         d="m 1104.8333,192.5 c 0,-2.57733 2.0894,-4.66667 4.6667,-4.66667 2.5773,0 4.6667,2.08934 4.6667,4.66667 0,2.57733 -2.0894,4.66667 -4.6667,4.66667 -2.5773,0 -4.6667,-2.08934 -4.6667,-4.66667"
         fill-opacity="0"
         id="path12792" />
      <path
         fill="#900c3f"
         stroke="none"
         paint-order="stroke fill markers"
         d="m 1104.8333,199.5 c 0,-2.57733 2.0894,-4.66667 4.6667,-4.66667 2.5773,0 4.6667,2.08934 4.6667,4.66667 0,2.57733 -2.0894,4.66667 -4.6667,4.66667 -2.5773,0 -4.6667,-2.08934 -4.6667,-4.66667"
         fill-opacity="1"
         id="path12794" />
      <path
         fill="#900c3f"
         stroke="none"
         paint-order="stroke fill markers"
         d="m 1104.8333,206.5 c 0,-2.57733 2.0894,-4.66667 4.6667,-4.66667 2.5773,0 4.6667,2.08934 4.6667,4.66667 0,2.57733 -2.0894,4.66667 -4.6667,4.66667 -2.5773,0 -4.6667,-2.08934 -4.6667,-4.66667"
         fill-opacity="1"
         id="path12796" />
      <path
         fill="#900c3f"
         stroke="none"
         paint-order="stroke fill markers"
         d="m 1104.8333,213.5 c 0,-2.57733 2.0894,-4.66667 4.6667,-4.66667 2.5773,0 4.6667,2.08934 4.6667,4.66667 0,2.57733 -2.0894,4.66667 -4.6667,4.66667 -2.5773,0 -4.6667,-2.08934 -4.6667,-4.66667"
         fill-opacity="1"
         id="path12798" />
      <path
         fill="#ff5733"
         stroke="none"
         paint-order="stroke fill markers"
         d="m 1104.8333,220.5 c 0,-2.57733 2.0894,-4.66667 4.6667,-4.66667 2.5773,0 4.6667,2.08934 4.6667,4.66667 0,2.57733 -2.0894,4.66667 -4.6667,4.66667 -2.5773,0 -4.6667,-2.08934 -4.6667,-4.66667"
         fill-opacity="1"
         id="path12800" />
      <path
         fill="#c70039"
         stroke="none"
         paint-order="stroke fill markers"
         d="m 1104.8333,227.5 c 0,-2.57733 2.0894,-4.66667 4.6667,-4.66667 2.5773,0 4.6667,2.08934 4.6667,4.66667 0,2.57733 -2.0894,4.66667 -4.6667,4.66667 -2.5773,0 -4.6667,-2.08934 -4.6667,-4.66667"
         fill-opacity="1"
         id="path12802" />
      <path
         fill="#581845"
         stroke="none"
         paint-order="stroke fill markers"
         d="m 1111.8333,129.5 c 0,-2.57733 2.0894,-4.66667 4.6667,-4.66667 2.5773,0 4.6667,2.08934 4.6667,4.66667 0,2.57733 -2.0894,4.66667 -4.6667,4.66667 -2.5773,0 -4.6667,-2.08934 -4.6667,-4.66667"
         fill-opacity="0"
         id="path12856" />
      <path
         fill="#581845"
         stroke="none"
         paint-order="stroke fill markers"
         d="m 1111.8333,136.5 c 0,-2.57733 2.0894,-4.66667 4.6667,-4.66667 2.5773,0 4.6667,2.08934 4.6667,4.66667 0,2.57733 -2.0894,4.66667 -4.6667,4.66667 -2.5773,0 -4.6667,-2.08934 -4.6667,-4.66667"
         fill-opacity="0"
         id="path12858" />
      <path
         fill="#581845"
         stroke="none"
         paint-order="stroke fill markers"
         d="m 1111.8333,143.5 c 0,-2.57733 2.0894,-4.66667 4.6667,-4.66667 2.5773,0 4.6667,2.08934 4.6667,4.66667 0,2.57733 -2.0894,4.66667 -4.6667,4.66667 -2.5773,0 -4.6667,-2.08934 -4.6667,-4.66667"
         fill-opacity="0"
         id="path12860" />
      <path
         fill="#900c3f"
         stroke="none"
         paint-order="stroke fill markers"
         d="m 1111.8333,150.5 c 0,-2.57733 2.0894,-4.66667 4.6667,-4.66667 2.5773,0 4.6667,2.08934 4.6667,4.66667 0,2.57733 -2.0894,4.66667 -4.6667,4.66667 -2.5773,0 -4.6667,-2.08934 -4.6667,-4.66667"
         fill-opacity="1"
         id="path12862" />
      <path
         fill="#900c3f"
         stroke="none"
         paint-order="stroke fill markers"
         d="m 1111.8333,157.5 c 0,-2.57733 2.0894,-4.66667 4.6667,-4.66667 2.5773,0 4.6667,2.08934 4.6667,4.66667 0,2.57733 -2.0894,4.66667 -4.6667,4.66667 -2.5773,0 -4.6667,-2.08934 -4.6667,-4.66667"
         fill-opacity="1"
         id="path12864" />
      <path
         fill="#900c3f"
         stroke="none"
         paint-order="stroke fill markers"
         d="m 1111.8333,164.5 c 0,-2.57733 2.0894,-4.66667 4.6667,-4.66667 2.5773,0 4.6667,2.08934 4.6667,4.66667 0,2.57733 -2.0894,4.66667 -4.6667,4.66667 -2.5773,0 -4.6667,-2.08934 -4.6667,-4.66667"
         fill-opacity="1"
         id="path12866" />
      <path
         fill="#ff5733"
         stroke="none"
         paint-order="stroke fill markers"
         d="m 1111.8333,171.5 c 0,-2.57733 2.0894,-4.66667 4.6667,-4.66667 2.5773,0 4.6667,2.08934 4.6667,4.66667 0,2.57733 -2.0894,4.66667 -4.6667,4.66667 -2.5773,0 -4.6667,-2.08934 -4.6667,-4.66667"
         fill-opacity="1"
         id="path12868" />
      <path
         fill="#581845"
         stroke="none"
         paint-order="stroke fill markers"
         d="m 1111.8333,178.5 c 0,-2.57733 2.0894,-4.66667 4.6667,-4.66667 2.5773,0 4.6667,2.08934 4.6667,4.66667 0,2.57733 -2.0894,4.66667 -4.6667,4.66667 -2.5773,0 -4.6667,-2.08934 -4.6667,-4.66667"
         fill-opacity="0"
         id="path12870" />
      <path
         fill="#ff5733"
         stroke="none"
         paint-order="stroke fill markers"
         d="m 1111.8333,185.5 c 0,-2.57733 2.0894,-4.66667 4.6667,-4.66667 2.5773,0 4.6667,2.08934 4.6667,4.66667 0,2.57733 -2.0894,4.66667 -4.6667,4.66667 -2.5773,0 -4.6667,-2.08934 -4.6667,-4.66667"
         fill-opacity="1"
         id="path12872" />
      <path
         fill="#900c3f"
         stroke="none"
         paint-order="stroke fill markers"
         d="m 1111.8333,192.5 c 0,-2.57733 2.0894,-4.66667 4.6667,-4.66667 2.5773,0 4.6667,2.08934 4.6667,4.66667 0,2.57733 -2.0894,4.66667 -4.6667,4.66667 -2.5773,0 -4.6667,-2.08934 -4.6667,-4.66667"
         fill-opacity="1"
         id="path12874" />
      <path
         fill="#900c3f"
         stroke="none"
         paint-order="stroke fill markers"
         d="m 1111.8333,199.5 c 0,-2.57733 2.0894,-4.66667 4.6667,-4.66667 2.5773,0 4.6667,2.08934 4.6667,4.66667 0,2.57733 -2.0894,4.66667 -4.6667,4.66667 -2.5773,0 -4.6667,-2.08934 -4.6667,-4.66667"
         fill-opacity="1"
         id="path12876" />
      <path
         fill="#900c3f"
         stroke="none"
         paint-order="stroke fill markers"
         d="m 1111.8333,206.5 c 0,-2.57733 2.0894,-4.66667 4.6667,-4.66667 2.5773,0 4.6667,2.08934 4.6667,4.66667 0,2.57733 -2.0894,4.66667 -4.6667,4.66667 -2.5773,0 -4.6667,-2.08934 -4.6667,-4.66667"
         fill-opacity="1"
         id="path12878" />
      <path
         fill="#581845"
         stroke="none"
         paint-order="stroke fill markers"
         d="m 1111.8333,213.5 c 0,-2.57733 2.0894,-4.66667 4.6667,-4.66667 2.5773,0 4.6667,2.08934 4.6667,4.66667 0,2.57733 -2.0894,4.66667 -4.6667,4.66667 -2.5773,0 -4.6667,-2.08934 -4.6667,-4.66667"
         fill-opacity="0"
         id="path12880" />
      <path
         fill="#581845"
         stroke="none"
         paint-order="stroke fill markers"
         d="m 1111.8333,220.5 c 0,-2.57733 2.0894,-4.66667 4.6667,-4.66667 2.5773,0 4.6667,2.08934 4.6667,4.66667 0,2.57733 -2.0894,4.66667 -4.6667,4.66667 -2.5773,0 -4.6667,-2.08934 -4.6667,-4.66667"
         fill-opacity="0"
         id="path12882" />
      <path
         fill="#581845"
         stroke="none"
         paint-order="stroke fill markers"
         d="m 1111.8333,227.5 c 0,-2.57733 2.0894,-4.66667 4.6667,-4.66667 2.5773,0 4.6667,2.08934 4.6667,4.66667 0,2.57733 -2.0894,4.66667 -4.6667,4.66667 -2.5773,0 -4.6667,-2.08934 -4.6667,-4.66667"
         fill-opacity="0"
         id="path12884" />
      <path
         fill="#900c3f"
         stroke="none"
         paint-order="stroke fill markers"
         d="m 1118.8333,136.5 c 0,-2.57733 2.0894,-4.66667 4.6667,-4.66667 2.5773,0 4.6667,2.08934 4.6667,4.66667 0,2.57733 -2.0894,4.66667 -4.6667,4.66667 -2.5773,0 -4.6667,-2.08934 -4.6667,-4.66667"
         fill-opacity="1"
         id="path12942" />
      <path
         fill="#900c3f"
         stroke="none"
         paint-order="stroke fill markers"
         d="m 1118.8333,143.5 c 0,-2.57733 2.0894,-4.66667 4.6667,-4.66667 2.5773,0 4.6667,2.08934 4.6667,4.66667 0,2.57733 -2.0894,4.66667 -4.6667,4.66667 -2.5773,0 -4.6667,-2.08934 -4.6667,-4.66667"
         fill-opacity="1"
         id="path12944" />
      <path
         fill="#581845"
         stroke="none"
         paint-order="stroke fill markers"
         d="m 1118.8333,150.5 c 0,-2.57733 2.0894,-4.66667 4.6667,-4.66667 2.5773,0 4.6667,2.08934 4.6667,4.66667 0,2.57733 -2.0894,4.66667 -4.6667,4.66667 -2.5773,0 -4.6667,-2.08934 -4.6667,-4.66667"
         fill-opacity="0"
         id="path12946" />
      <path
         fill="#900c3f"
         stroke="none"
         paint-order="stroke fill markers"
         d="m 1118.8333,157.5 c 0,-2.57733 2.0894,-4.66667 4.6667,-4.66667 2.5773,0 4.6667,2.08934 4.6667,4.66667 0,2.57733 -2.0894,4.66667 -4.6667,4.66667 -2.5773,0 -4.6667,-2.08934 -4.6667,-4.66667"
         fill-opacity="1"
         id="path12948" />
      <path
         fill="#c70039"
         stroke="none"
         paint-order="stroke fill markers"
         d="m 1118.8333,164.5 c 0,-2.57733 2.0894,-4.66667 4.6667,-4.66667 2.5773,0 4.6667,2.08934 4.6667,4.66667 0,2.57733 -2.0894,4.66667 -4.6667,4.66667 -2.5773,0 -4.6667,-2.08934 -4.6667,-4.66667"
         fill-opacity="1"
         id="path12950" />
      <path
         fill="#ff5733"
         stroke="none"
         paint-order="stroke fill markers"
         d="m 1118.8333,171.5 c 0,-2.57733 2.0894,-4.66667 4.6667,-4.66667 2.5773,0 4.6667,2.08934 4.6667,4.66667 0,2.57733 -2.0894,4.66667 -4.6667,4.66667 -2.5773,0 -4.6667,-2.08934 -4.6667,-4.66667"
         fill-opacity="1"
         id="path12952" />
      <path
         fill="#581845"
         stroke="none"
         paint-order="stroke fill markers"
         d="m 1118.8333,178.5 c 0,-2.57733 2.0894,-4.66667 4.6667,-4.66667 2.5773,0 4.6667,2.08934 4.6667,4.66667 0,2.57733 -2.0894,4.66667 -4.6667,4.66667 -2.5773,0 -4.6667,-2.08934 -4.6667,-4.66667"
         fill-opacity="0"
         id="path12954" />
      <path
         fill="#ff5733"
         stroke="none"
         paint-order="stroke fill markers"
         d="m 1118.8333,185.5 c 0,-2.57733 2.0894,-4.66667 4.6667,-4.66667 2.5773,0 4.6667,2.08934 4.6667,4.66667 0,2.57733 -2.0894,4.66667 -4.6667,4.66667 -2.5773,0 -4.6667,-2.08934 -4.6667,-4.66667"
         fill-opacity="1"
         id="path12956" />
      <path
         fill="#c70039"
         stroke="none"
         paint-order="stroke fill markers"
         d="m 1118.8333,192.5 c 0,-2.57733 2.0894,-4.66667 4.6667,-4.66667 2.5773,0 4.6667,2.08934 4.6667,4.66667 0,2.57733 -2.0894,4.66667 -4.6667,4.66667 -2.5773,0 -4.6667,-2.08934 -4.6667,-4.66667"
         fill-opacity="1"
         id="path12958" />
      <path
         fill="#900c3f"
         stroke="none"
         paint-order="stroke fill markers"
         d="m 1118.8333,199.5 c 0,-2.57733 2.0894,-4.66667 4.6667,-4.66667 2.5773,0 4.6667,2.08934 4.6667,4.66667 0,2.57733 -2.0894,4.66667 -4.6667,4.66667 -2.5773,0 -4.6667,-2.08934 -4.6667,-4.66667"
         fill-opacity="1"
         id="path12960" />
      <path
         fill="#581845"
         stroke="none"
         paint-order="stroke fill markers"
         d="m 1118.8333,206.5 c 0,-2.57733 2.0894,-4.66667 4.6667,-4.66667 2.5773,0 4.6667,2.08934 4.6667,4.66667 0,2.57733 -2.0894,4.66667 -4.6667,4.66667 -2.5773,0 -4.6667,-2.08934 -4.6667,-4.66667"
         fill-opacity="0"
         id="path12962" />
      <path
         fill="#900c3f"
         stroke="none"
         paint-order="stroke fill markers"
         d="m 1118.8333,213.5 c 0,-2.57733 2.0894,-4.66667 4.6667,-4.66667 2.5773,0 4.6667,2.08934 4.6667,4.66667 0,2.57733 -2.0894,4.66667 -4.6667,4.66667 -2.5773,0 -4.6667,-2.08934 -4.6667,-4.66667"
         fill-opacity="1"
         id="path12964" />
      <path
         fill="#900c3f"
         stroke="none"
         paint-order="stroke fill markers"
         d="m 1118.8333,220.5 c 0,-2.57733 2.0894,-4.66667 4.6667,-4.66667 2.5773,0 4.6667,2.08934 4.6667,4.66667 0,2.57733 -2.0894,4.66667 -4.6667,4.66667 -2.5773,0 -4.6667,-2.08934 -4.6667,-4.66667"
         fill-opacity="1"
         id="path12966" />
      <path
         fill="#900c3f"
         stroke="none"
         paint-order="stroke fill markers"
         d="m 1125.8333,143.5 c 0,-2.57733 2.0894,-4.66667 4.6667,-4.66667 2.5773,0 4.6667,2.08934 4.6667,4.66667 0,2.57733 -2.0894,4.66667 -4.6667,4.66667 -2.5773,0 -4.6667,-2.08934 -4.6667,-4.66667"
         fill-opacity="1"
         id="path13026" />
      <path
         fill="#581845"
         stroke="none"
         paint-order="stroke fill markers"
         d="m 1125.8333,150.5 c 0,-2.57733 2.0894,-4.66667 4.6667,-4.66667 2.5773,0 4.6667,2.08934 4.6667,4.66667 0,2.57733 -2.0894,4.66667 -4.6667,4.66667 -2.5773,0 -4.6667,-2.08934 -4.6667,-4.66667"
         fill-opacity="0"
         id="path13028" />
      <path
         fill="#ff5733"
         stroke="none"
         paint-order="stroke fill markers"
         d="m 1125.8333,157.5 c 0,-2.57733 2.0894,-4.66667 4.6667,-4.66667 2.5773,0 4.6667,2.08934 4.6667,4.66667 0,2.57733 -2.0894,4.66667 -4.6667,4.66667 -2.5773,0 -4.6667,-2.08934 -4.6667,-4.66667"
         fill-opacity="1"
         id="path13030" />
      <path
         fill="#ff5733"
         stroke="none"
         paint-order="stroke fill markers"
         d="m 1125.8333,164.5 c 0,-2.57733 2.0894,-4.66667 4.6667,-4.66667 2.5773,0 4.6667,2.08934 4.6667,4.66667 0,2.57733 -2.0894,4.66667 -4.6667,4.66667 -2.5773,0 -4.6667,-2.08934 -4.6667,-4.66667"
         fill-opacity="1"
         id="path13032" />
      <path
         fill="#581845"
         stroke="none"
         paint-order="stroke fill markers"
         d="m 1125.8333,171.5 c 0,-2.57733 2.0894,-4.66667 4.6667,-4.66667 2.5773,0 4.6667,2.08934 4.6667,4.66667 0,2.57733 -2.0894,4.66667 -4.6667,4.66667 -2.5773,0 -4.6667,-2.08934 -4.6667,-4.66667"
         fill-opacity="0"
         id="path13034" />
      <path
         fill="#ff5733"
         stroke="none"
         paint-order="stroke fill markers"
         d="m 1125.8333,178.5 c 0,-2.57733 2.0894,-4.66667 4.6667,-4.66667 2.5773,0 4.6667,2.08934 4.6667,4.66667 0,2.57733 -2.0894,4.66667 -4.6667,4.66667 -2.5773,0 -4.6667,-2.08934 -4.6667,-4.66667"
         fill-opacity="1"
         id="path13036" />
      <path
         fill="#581845"
         stroke="none"
         paint-order="stroke fill markers"
         d="m 1125.8333,185.5 c 0,-2.57733 2.0894,-4.66667 4.6667,-4.66667 2.5773,0 4.6667,2.08934 4.6667,4.66667 0,2.57733 -2.0894,4.66667 -4.6667,4.66667 -2.5773,0 -4.6667,-2.08934 -4.6667,-4.66667"
         fill-opacity="0"
         id="path13038" />
      <path
         fill="#ff5733"
         stroke="none"
         paint-order="stroke fill markers"
         d="m 1125.8333,192.5 c 0,-2.57733 2.0894,-4.66667 4.6667,-4.66667 2.5773,0 4.6667,2.08934 4.6667,4.66667 0,2.57733 -2.0894,4.66667 -4.6667,4.66667 -2.5773,0 -4.6667,-2.08934 -4.6667,-4.66667"
         fill-opacity="1"
         id="path13040" />
      <path
         fill="#ff5733"
         stroke="none"
         paint-order="stroke fill markers"
         d="m 1125.8333,199.5 c 0,-2.57733 2.0894,-4.66667 4.6667,-4.66667 2.5773,0 4.6667,2.08934 4.6667,4.66667 0,2.57733 -2.0894,4.66667 -4.6667,4.66667 -2.5773,0 -4.6667,-2.08934 -4.6667,-4.66667"
         fill-opacity="1"
         id="path13042" />
      <path
         fill="#581845"
         stroke="none"
         paint-order="stroke fill markers"
         d="m 1125.8333,206.5 c 0,-2.57733 2.0894,-4.66667 4.6667,-4.66667 2.5773,0 4.6667,2.08934 4.6667,4.66667 0,2.57733 -2.0894,4.66667 -4.6667,4.66667 -2.5773,0 -4.6667,-2.08934 -4.6667,-4.66667"
         fill-opacity="0"
         id="path13044" />
      <path
         fill="#900c3f"
         stroke="none"
         paint-order="stroke fill markers"
         d="m 1125.8333,213.5 c 0,-2.57733 2.0894,-4.66667 4.6667,-4.66667 2.5773,0 4.6667,2.08934 4.6667,4.66667 0,2.57733 -2.0894,4.66667 -4.6667,4.66667 -2.5773,0 -4.6667,-2.08934 -4.6667,-4.66667"
         fill-opacity="1"
         id="path13046" />
      <path
         fill="#581845"
         stroke="none"
         paint-order="stroke fill markers"
         d="m 1132.8333,150.5 c 0,-2.57733 2.0894,-4.66667 4.6667,-4.66667 2.5773,0 4.6667,2.08934 4.6667,4.66667 0,2.57733 -2.0894,4.66667 -4.6667,4.66667 -2.5773,0 -4.6667,-2.08934 -4.6667,-4.66667"
         fill-opacity="0"
         id="path13106" />
      <path
         fill="#c70039"
         stroke="none"
         paint-order="stroke fill markers"
         d="m 1132.8333,157.5 c 0,-2.57733 2.0894,-4.66667 4.6667,-4.66667 2.5773,0 4.6667,2.08934 4.6667,4.66667 0,2.57733 -2.0894,4.66667 -4.6667,4.66667 -2.5773,0 -4.6667,-2.08934 -4.6667,-4.66667"
         fill-opacity="1"
         id="path13108" />
      <path
         fill="#581845"
         stroke="none"
         paint-order="stroke fill markers"
         d="m 1132.8333,164.5 c 0,-2.57733 2.0894,-4.66667 4.6667,-4.66667 2.5773,0 4.6667,2.08934 4.6667,4.66667 0,2.57733 -2.0894,4.66667 -4.6667,4.66667 -2.5773,0 -4.6667,-2.08934 -4.6667,-4.66667"
         fill-opacity="0"
         id="path13110" />
      <path
         fill="#ff5733"
         stroke="none"
         paint-order="stroke fill markers"
         d="m 1132.8333,171.5 c 0,-2.57733 2.0894,-4.66667 4.6667,-4.66667 2.5773,0 4.6667,2.08934 4.6667,4.66667 0,2.57733 -2.0894,4.66667 -4.6667,4.66667 -2.5773,0 -4.6667,-2.08934 -4.6667,-4.66667"
         fill-opacity="1"
         id="path13112" />
      <path
         fill="#ff5733"
         stroke="none"
         paint-order="stroke fill markers"
         d="m 1132.8333,178.5 c 0,-2.57733 2.0894,-4.66667 4.6667,-4.66667 2.5773,0 4.6667,2.08934 4.6667,4.66667 0,2.57733 -2.0894,4.66667 -4.6667,4.66667 -2.5773,0 -4.6667,-2.08934 -4.6667,-4.66667"
         fill-opacity="1"
         id="path13114" />
      <path
         fill="#ff5733"
         stroke="none"
         paint-order="stroke fill markers"
         d="m 1132.8333,185.5 c 0,-2.57733 2.0894,-4.66667 4.6667,-4.66667 2.5773,0 4.6667,2.08934 4.6667,4.66667 0,2.57733 -2.0894,4.66667 -4.6667,4.66667 -2.5773,0 -4.6667,-2.08934 -4.6667,-4.66667"
         fill-opacity="1"
         id="path13116" />
      <path
         fill="#581845"
         stroke="none"
         paint-order="stroke fill markers"
         d="m 1132.8333,192.5 c 0,-2.57733 2.0894,-4.66667 4.6667,-4.66667 2.5773,0 4.6667,2.08934 4.6667,4.66667 0,2.57733 -2.0894,4.66667 -4.6667,4.66667 -2.5773,0 -4.6667,-2.08934 -4.6667,-4.66667"
         fill-opacity="0"
         id="path13118" />
      <path
         fill="#c70039"
         stroke="none"
         paint-order="stroke fill markers"
         d="m 1132.8333,199.5 c 0,-2.57733 2.0894,-4.66667 4.6667,-4.66667 2.5773,0 4.6667,2.08934 4.6667,4.66667 0,2.57733 -2.0894,4.66667 -4.6667,4.66667 -2.5773,0 -4.6667,-2.08934 -4.6667,-4.66667"
         fill-opacity="1"
         id="path13120" />
      <path
         fill="#581845"
         stroke="none"
         paint-order="stroke fill markers"
         d="m 1132.8333,206.5 c 0,-2.57733 2.0894,-4.66667 4.6667,-4.66667 2.5773,0 4.6667,2.08934 4.6667,4.66667 0,2.57733 -2.0894,4.66667 -4.6667,4.66667 -2.5773,0 -4.6667,-2.08934 -4.6667,-4.66667"
         fill-opacity="0"
         id="path13122" />
      <path
         fill="#581845"
         stroke="none"
         paint-order="stroke fill markers"
         d="m 1139.8333,164.5 c 0,-2.57733 2.0894,-4.66667 4.6667,-4.66667 2.5773,0 4.6667,2.08934 4.6667,4.66667 0,2.57733 -2.0894,4.66667 -4.6667,4.66667 -2.5773,0 -4.6667,-2.08934 -4.6667,-4.66667"
         fill-opacity="0"
         id="path13190" />
      <path
         fill="#581845"
         stroke="none"
         paint-order="stroke fill markers"
         d="m 1139.8333,171.5 c 0,-2.57733 2.0894,-4.66667 4.6667,-4.66667 2.5773,0 4.6667,2.08934 4.6667,4.66667 0,2.57733 -2.0894,4.66667 -4.6667,4.66667 -2.5773,0 -4.6667,-2.08934 -4.6667,-4.66667"
         fill-opacity="0"
         id="path13192" />
      <path
         fill="#581845"
         stroke="none"
         paint-order="stroke fill markers"
         d="m 1139.8333,178.5 c 0,-2.57733 2.0894,-4.66667 4.6667,-4.66667 2.5773,0 4.6667,2.08934 4.6667,4.66667 0,2.57733 -2.0894,4.66667 -4.6667,4.66667 -2.5773,0 -4.6667,-2.08934 -4.6667,-4.66667"
         fill-opacity="0"
         id="path13194" />
      <path
         fill="#581845"
         stroke="none"
         paint-order="stroke fill markers"
         d="m 1139.8333,185.5 c 0,-2.57733 2.0894,-4.66667 4.6667,-4.66667 2.5773,0 4.6667,2.08934 4.6667,4.66667 0,2.57733 -2.0894,4.66667 -4.6667,4.66667 -2.5773,0 -4.6667,-2.08934 -4.6667,-4.66667"
         fill-opacity="0"
         id="path13196" />
      <path
         fill="#581845"
         stroke="none"
         paint-order="stroke fill markers"
         d="m 1139.8333,192.5 c 0,-2.57733 2.0894,-4.66667 4.6667,-4.66667 2.5773,0 4.6667,2.08934 4.6667,4.66667 0,2.57733 -2.0894,4.66667 -4.6667,4.66667 -2.5773,0 -4.6667,-2.08934 -4.6667,-4.66667"
         fill-opacity="0"
         id="path13198" />
    </g>
  </g>
</svg>
