<svg xmlns="http://www.w3.org/2000/svg" width="500" height="500"><defs><clipPath id="a" clipPathUnits="userSpaceOnUse"><path d="M6102 4955h5664v5386H6102z"/></clipPath></defs><g clip-path="url(#a)" transform="matrix(.09535 0 0 -.09535 -601.068 979.456)"><path d="m11130 6598-62-31M11057 6611v-25M9591 7447l-36-18M11137 6594l10 6M11225 6645l146 84M11137 6594 7926 8448" style="fill:none;stroke:#000;stroke-width:24;stroke-linecap:round;stroke-linejoin:round;stroke-miterlimit:10;stroke-dasharray:none;stroke-opacity:1"/><path d="M-144.603-250.67C-106.253-317.15-54.237-354.5 0-354.5" style="fill:none;stroke:#000;stroke-width:24;stroke-linecap:round;stroke-linejoin:round;stroke-miterlimit:10;stroke-dasharray:none;stroke-opacity:1" transform="rotate(-150.002 5526.894 3806.038)"/><path d="m8410 10155 95-55M11025 8646l95-56" style="fill:none;stroke:#000;stroke-width:24;stroke-linecap:round;stroke-linejoin:round;stroke-miterlimit:10;stroke-dasharray:none;stroke-opacity:1"/><path d="M144.603-250.67c79.863 138.442 79.863 362.898 0 501.34" style="fill:none;stroke:#000;stroke-width:24;stroke-linecap:round;stroke-linejoin:round;stroke-miterlimit:10;stroke-dasharray:none;stroke-opacity:1" transform="rotate(29.998 -9931.493 24903.34)"/><path d="M11371 8156V6729M10669 7836l-32 18M10719 7927v-62" style="fill:none;stroke:#000;stroke-width:24;stroke-linecap:round;stroke-linejoin:round;stroke-miterlimit:10;stroke-dasharray:none;stroke-opacity:1"/><path d="M-28.638-49.851c15.816-27.532 41.46-27.532 57.276 0" style="fill:none;stroke:#000;stroke-width:24;stroke-linecap:round;stroke-linejoin:round;stroke-miterlimit:10;stroke-dasharray:none;stroke-opacity:1" transform="rotate(29.998 -9397.474 23858.203)"/><path d="M11137 8021V6594" style="fill:none;stroke:#000;stroke-width:24;stroke-linecap:round;stroke-linejoin:round;stroke-miterlimit:10;stroke-dasharray:none;stroke-opacity:1"/><path d="M144.603-250.67c79.863 138.442 79.863 362.898 0 501.34" style="fill:none;stroke:#000;stroke-width:24;stroke-linecap:round;stroke-linejoin:round;stroke-miterlimit:10;stroke-dasharray:none;stroke-opacity:1" transform="rotate(29.998 -9796.565 24399.16)"/><path d="m8176 10020 2710-1565" style="fill:none;stroke:#000;stroke-width:24;stroke-linecap:round;stroke-linejoin:round;stroke-miterlimit:10;stroke-dasharray:none;stroke-opacity:1"/><path d="M144.603 250.67c-79.862 138.44-209.344 138.44-289.206 0" style="fill:none;stroke:#000;stroke-width:24;stroke-linecap:round;stroke-linejoin:round;stroke-miterlimit:10;stroke-dasharray:none;stroke-opacity:1" transform="rotate(29.998 -14070.247 20123.908)"/><path d="M7926 9875V8448M7999 10037l234 135M11432 6171v-89" style="fill:none;stroke:#000;stroke-width:24;stroke-linecap:round;stroke-linejoin:round;stroke-miterlimit:10;stroke-dasharray:none;stroke-opacity:1"/><path d="M-945.437 380.588c-87.638-72.592-149.325-154.547-181.452-241.07" style="fill:none;stroke:#000;stroke-width:24;stroke-linecap:round;stroke-linejoin:round;stroke-miterlimit:10;stroke-dasharray:none;stroke-opacity:1" transform="rotate(-119.998 6915.09 -296.836)"/><path d="M-313.133 640.465q-4.254-.693-8.498-1.405" style="fill:none;stroke:#000;stroke-width:24;stroke-linecap:round;stroke-linejoin:round;stroke-miterlimit:10;stroke-dasharray:none;stroke-opacity:1" transform="rotate(-119.998 7054.237 -55.836)"/><path d="m7814 8344 25-43M7998 8393l100-58 159-275M8416 8152l100-58 159-275M8833 7910l101-57 158-275M9251 7669l100-58 159-274M9669 7428l100-58 159-275M10086 7187l101-58 158-275M10504 6946l100-58 159-275M10922 6705l100-58 159-275" style="fill:none;stroke:#000;stroke-width:24;stroke-linecap:round;stroke-linejoin:round;stroke-miterlimit:10;stroke-dasharray:none;stroke-opacity:1"/><path d="M1126.89 139.518c-32.128 86.523-93.815 168.478-181.453 241.07" style="fill:none;stroke:#000;stroke-width:24;stroke-linecap:round;stroke-linejoin:round;stroke-miterlimit:10;stroke-dasharray:none;stroke-opacity:1" transform="rotate(60.002 -2876.973 10019.252)"/><path d="M0 665.5c-81.215 0-162.203-4.957-241.614-14.789" style="fill:none;stroke:#000;stroke-width:24;stroke-linecap:round;stroke-linejoin:round;stroke-miterlimit:10;stroke-dasharray:none;stroke-opacity:1" transform="rotate(-60.002 10558.029 -2262.215)"/><path d="M6428 8027v77" style="fill:none;stroke:#000;stroke-width:24;stroke-linecap:round;stroke-linejoin:round;stroke-miterlimit:10;stroke-dasharray:none;stroke-opacity:1"/><path d="M-1106.711-185.722c41.739-82.933 111.034-160.382 204.019-228.026" style="fill:none;stroke:#000;stroke-width:24;stroke-linecap:round;stroke-linejoin:round;stroke-miterlimit:10;stroke-dasharray:none;stroke-opacity:1" transform="rotate(-60.002 10139.755 -2503.716)"/><path d="M321.63 639.06C217.12 656.598 108.835 665.5 0 665.5" style="fill:none;stroke:#000;stroke-width:24;stroke-linecap:round;stroke-linejoin:round;stroke-miterlimit:10;stroke-dasharray:none;stroke-opacity:1" transform="rotate(60.002 -3294.381 10260.253)"/><path d="M-902.692 413.748c-92.985-67.644-162.28-145.093-204.02-228.025" style="fill:none;stroke:#000;stroke-width:24;stroke-linecap:round;stroke-linejoin:round;stroke-miterlimit:10;stroke-dasharray:none;stroke-opacity:1" transform="rotate(-60.002 10139.755 -2503.716)"/><path d="m9869 5981-100 58M9452 6223l-101 57M9034 6464l-100 58M8616 6705l-100 58M8199 6946l-101 58M7781 7187l-100 58M7363 7428l-100 58M6946 7669l-101 58M9469 7313l200 115M9469 7313l-118 68v230M9052 7418v136l199 115M9233 7313l118 68M9052 7554l-118 68v231M8634 7659v136l199 115M8815 7554l119 68M8634 7795l-118 69v230M8216 7900v137l200 115M8398 7795l118 69M8216 8037l-118 68v230M7799 8141v137l199 115M7980 8037l118 68M7799 8278l-118 68v200M7381 8510v-128M7562 8278l119 68M11140 5866l204 118M6524 8395l203-117 118 68v235M6428 8104l118-67M6727 8141v137M6546 7940h-40M6727 7795l-174 101M7145 7554l-199 115M7562 7313l-199 115M7980 7072l-199 115M8398 6831l-199 115M8634 7313v-136M8634 7217h-69M8467 7217h-69M8398 7177v136l118 68 118-68M6963 8278v-137M6963 8181h-69M6796 8181h-69M6845 8346l118-68M7799 8181h-69M7632 8181h-70M7562 8141v137M8216 7072v-129M8216 6976h-56M7987 7076l111 64 118-68M6546 8037v-127M10305 6349v-137M10305 6252h-69M10138 6252h-70M10068 6212v137l119 68 118-68M10305 6831v-137M10305 6734h-69M10138 6734h-70M10068 6694v137l119 68 118-68M9052 6590v-129M9052 6493h-57M8822 6593l112 65 118-68M9469 7313v-136M9469 7217h-69M9302 7217h-69M9233 7177v136M10084 5875l103 60 118-69v-62M10722 6590v-137M10722 6493h-69M10555 6493h-69M10486 6453v137l118 68 118-68M10722 6108v-137M10722 6011h-69M10555 6011h-69M10486 5971v137l118 68 118-68M9052 7072v-136M9052 6976h-69M8885 6976h-70M8815 6936v136l119 68 118-68M7799 7313v-129M7799 7217h-57M7569 7317l112 64 118-68M8216 7940h-69M8049 7940h-69M7980 7900v137M8216 7554v-136M8216 7458h-69M8049 7458h-69M7980 7418v136l118 68 118-68M7381 8037v-137M7381 7940h-69M7214 7940h-69M7145 7900v137l118 68 118-68M7145 8382v136M9052 7458h-69M8885 7458h-70M8815 7418v136M6963 7795v-129M6963 7699h-56M6734 7799l111 65 118-69M9887 6590v-137M9887 6493h-69M9720 6493h-69M9651 6453v137l118 68 118-68M9887 7072v-136M9887 6976h-69M9720 6976h-69M9651 6936v136l118 68 118-68M11321 5971v137l111 63M9469 6349v-129M9469 6252h-56M9240 6352l111 65 118-68M8634 6831v-129M8634 6734h-56M8404 6835l112 64 118-68M9887 6108v-129M9887 6011h-56M9657 6111l112 65 118-68M11140 6349v-137M11140 6252h-69M10973 6252h-69M10904 6212v137l118 68 118-68M10904 5792v74l118 69 118-69v-5M9469 6831v-137M9469 6734h-69M9302 6734h-69M9233 6694v137l118 68 118-68M7381 7554v-129M7381 7458h-56M7151 7558l112 64 118-68M8634 7699h-69M8467 7699h-69M8398 7659v136M7799 7795v-136M7799 7699h-69M7632 7699h-70M7562 7659v136l119 69 118-69M10604 5771v172l-83 48-216-125" style="fill:none;stroke:#000;stroke-width:24;stroke-linecap:round;stroke-linejoin:round;stroke-miterlimit:10;stroke-dasharray:none;stroke-opacity:1"/><path d="m10305 6349 216 124 83 49M10486 6590l-216 124-83-48v-249M10521 5991l83 48M10486 6108l-216 124-83-48v-249M8098 7140v250l-83 48-216-125M8015 7438l83 48 84-48 216-125M7980 7554l-216 125-83-48v-250M8516 7381v250l-84 48-216-125M7263 8451l83-49 216-124M6963 8278l216 124 84 49M8934 7486l83-48 216-125M8634 7313l216 125 84 48M8815 7554l-216 125-83-48M9769 6522l83-49 216-124M10187 6666l-84 48-216-124M9769 7004l83-48 216-125M9887 7072l199 115M10187 6899v230M9769 7140v230M9469 6349l216 124 84 49M10604 6658v230M10305 6831l199 115M8934 6658v249l-84 49-216-125M8850 6956l84 48M10068 5866l-199 115M9651 6108l-199 115M10187 6184l-84 48-216-124M10904 6349l-216 124-84-48v-249M11022 6417v230M11140 6349l174 100M10904 5866l-216 125-84-48M9233 6831l-216 125-83-49M9769 6658v249l-84 49-216-125M9685 6956l84 48M7681 7631l-84 48-216-125M8398 7795l-216 125-84-48v-250M8098 7872l-83 48-216-125M8015 7920l83 48M7346 8402l-83-48v-249M7263 8354l-84 48M10604 6039l84-48M10604 6522l84-49M10604 6425l-83 48M9852 6473l-83-48v-249M9769 6425l-84 48M9852 6956l-83-49M8934 7004l83-48M9233 6349l-199 115" style="fill:none;stroke:#000;stroke-width:24;stroke-linecap:round;stroke-linejoin:round;stroke-miterlimit:10;stroke-dasharray:none;stroke-opacity:1"/><path d="m9017 7438-83-48v-250M8934 7390l-84 48M8182 7438l-84-48M8098 7968l84-48M7562 7795l-216 125-83-48v-250M7263 7872l-84 48-216-125M7179 7920l84 48 83-48M6845 8209l84-48 216-124" style="fill:none;stroke:#000;stroke-width:24;stroke-linecap:round;stroke-linejoin:round;stroke-miterlimit:10;stroke-dasharray:none;stroke-opacity:1"/><path d="m6929 8161-84-48v-249M6845 8113l-83 48-216-124M6762 8161l83 48M7681 8209l83-48 216-124M7764 8161l-83-48v-249M7681 8113l-84 48-216-124M7597 8161l84 48M7597 7679l84 48 83-48M8432 7679l84 48 83-48M8516 7245l83-48 216-125" style="fill:none;stroke:#000;stroke-width:24;stroke-linecap:round;stroke-linejoin:round;stroke-miterlimit:10;stroke-dasharray:none;stroke-opacity:1"/><path d="m8599 7197-83-49v-249M8516 7148l-84 49-216-125M8432 7197l84 48M8815 6590l-199 115M9351 7245l84-48 216-125" style="fill:none;stroke:#000;stroke-width:24;stroke-linecap:round;stroke-linejoin:round;stroke-miterlimit:10;stroke-dasharray:none;stroke-opacity:1"/><path d="m9435 7197-84-49v-249M9351 7148l-83 49-216-125M9268 7197l83 48M9351 6763l84-49 216-124M9435 6714l-84-48v-249M9351 6666l-83 48-216-124M9268 6714l83 49M10103 6714l84 49 83-49M10722 6590l200 115M10103 6232l84 48 83-48M11022 6280l83-48 216-124M11105 6232l-83-48v-249M11022 6184l-84 48-216-124M10938 6232l84 48M6506 7940h40M9469 7178h-1M9887 6937l-1-1M10305 6696l-2-1M10722 6455l-1-1M11140 6214l-1-1M11321 6011h56M7562 8181h70M7730 8181h69M8160 6976h56M8398 7699h69M8565 7699h69M8398 7217h69M8565 7217h69M9233 6734h69M9400 6734h69M9413 6252h56M9651 6976h69M9818 6976h69M10068 6734h70M10236 6734h69M8995 6493h57M9651 6493h69M9818 6493h69M10486 6011h69M10653 6011h69M7742 7217h57M7325 7458h56M7980 7940h69M8147 7940h69M8815 7458h70M8983 7458h69M7562 7699h70M7730 7699h69M10068 6252h70M10236 6252h69M8815 6976h70M8983 6976h69M9831 6011h56M8578 6734h56M10904 6252h69M11071 6252h69M6727 8181h69M6894 8181h69M10486 6493h69M10653 6493h69M9233 7217h69M9400 7217h69M7980 7458h69M8147 7458h69M7145 7940h69M7312 7940h69M6907 7699h56M7564 8142l-2 1M7799 8143l-2-1M8399 7660h-1M8634 7660h-1M8399 7178h-1M8634 7178h-1M9235 6695l-2 1M9469 6696l-1-1M9652 6936l-1 1M10070 6695l-2 1M9652 6454l-1 1M9887 6455l-1-1M10488 5972h-2M10722 5972h-1M7982 7901h-2M8216 7901h-1M8817 7419h-2M9052 7419h-2M7564 7660h-2M7799 7660h-2M10070 6213l-2 1M10305 6214l-2-1M8817 6936l-2 1M9052 6937l-2-1M9887 5972h-1M8399 6695l-1 1M10905 6213l-1 1M6729 8142l-2 1M6963 8143l-1-1M10488 6454l-2 1M9235 7178h-2M7982 7419h-2M8216 7419h-1M7146 7901h-1M7381 7901h-1M6963 7660h-1M10424 8051l-7 14 7-6M10439 8081l-25 2M11370 8186l20 27-34 131-30 2M10827 8841l-4 8-11 4M10987 8682l12-14 5 8M11040 8639l-2 7 16 19-88 58M11160 8564l-26 42-19-13" style="fill:none;stroke:#000;stroke-width:24;stroke-linecap:round;stroke-linejoin:round;stroke-miterlimit:10;stroke-dasharray:none;stroke-opacity:1"/><path d="m11060 8625-22 21 2-7M10926 8762l32-4 53-12-67 54-52 9 52-9 67-54 73 32-2 6 2-6-73-32 43-81 21 15 66 38 59-74M10837 8933l-62-41-26-5M10812 8853l11-4 4-8" style="fill:none;stroke:#000;stroke-width:24;stroke-linecap:round;stroke-linejoin:round;stroke-miterlimit:10;stroke-dasharray:none;stroke-opacity:1"/><path d="m10966 8723 88-58-43 81-53 12-32 4M10921 8762l-9 1M11115 8593l19 13-59 74-21-15-16-19 22-21M11399 8015l-2-4-26-25M11371 7941h10M11324 7940l-16-41" style="fill:none;stroke:#000;stroke-width:24;stroke-linecap:round;stroke-linejoin:round;stroke-miterlimit:10;stroke-dasharray:none;stroke-opacity:1"/><path d="m11326 8346-53 6 28 45 20 35-44 4 44-4-43 88-26-49 26 49-50 85-28 39-125 36 59-74 26-42" style="fill:none;stroke:#000;stroke-width:24;stroke-linecap:round;stroke-linejoin:round;stroke-miterlimit:10;stroke-dasharray:none;stroke-opacity:1"/><path d="M11232 8605h-4l50-85-21 44 21-44 43-88M11371 7986l26 25 2 4M11374 8301l-18 43 34-131 2 4-2-4-20-27M10666 8001l43 25 32-37-32 37-27 37 27-37-48-28M10650 7992l-3-2M10711 8908l62 38 64-13-27 8M10686 8944l-23-8" style="fill:none;stroke:#000;stroke-width:24;stroke-linecap:round;stroke-linejoin:round;stroke-miterlimit:10;stroke-dasharray:none;stroke-opacity:1"/><path d="m10749 8887 26 5 62 41-64 13-62-38M11141 8718l-66-38 125-36zM11232 8605l-32 39 28-39zl-32 39M10663 8936l23 8-21-9" style="fill:none;stroke:#000;stroke-width:24;stroke-linecap:round;stroke-linejoin:round;stroke-miterlimit:10;stroke-dasharray:none;stroke-opacity:1"/><path d="m11064 8623 139 17-48-73M10777 8894l-3-22M9169 9835l-16 18M9140 9876h-5l59-74-59 74-47-29M9025 9884l-18 19-66 54-55 10 55-10 66-54 64 39 7-1M8772 10104l-37 3-67-29M8687 10045l16 20 101-29 68-32-68 32-17-14 17 14-101 29-1-2" style="fill:none;stroke:#000;stroke-width:24;stroke-linecap:round;stroke-linejoin:round;stroke-miterlimit:10;stroke-dasharray:none;stroke-opacity:1"/><path d="m8668 10078 67 29-55-5-45-14M9088 9847l47 29-64 66-64-39 18-19" style="fill:none;stroke:#000;stroke-width:24;stroke-linecap:round;stroke-linejoin:round;stroke-miterlimit:10;stroke-dasharray:none;stroke-opacity:1"/><path d="m9078 9941-7 1 64-66h5M10673 7873l43 30 3 7-3-7zM10435 7778l27 16 16 19-16-19zl-34-4-37 8-39 17 39-17 37-8zM10499 7875v45l-9 50-46-2 46 2-28 74-43 70-34 41-39 33-39 22-43 12-30-1-43-20 43 20 30 1 43-12 39-22 39-33 34-41 43-70 28-74 9-50zM10156 8052l23-76zl-2 23-2 25 2-25zM10218 7903l50-61 19-15 57 9-57-9-19 15z" style="fill:none;stroke:#000;stroke-width:24;stroke-linecap:round;stroke-linejoin:round;stroke-miterlimit:10;stroke-dasharray:none;stroke-opacity:1"/><path d="m10318 8104-86 2-73 45 11 25-11-25 73-45zM8740 9142l-5 79-13 58-39 86-37 52-39 46-66 52-10-8M8139 9241l9-8-2 25 2-25 2-23-2 23zM8265 8999l18-16 57 10-57-10zl-53 62zM8322 8956l39-17 36-8 32 5 18 8-18-8-32-5-36 8zM8491 9014l4 63-9 50-96 92 67-17-44 70-34 41-39 33-39 22-41 11-48-1-39-31-20-38 73-119-73 119 20 38-9 21 9-21 39 31 48 1 41-11 39-22 39-33 34-41 44-70 29-75 9-50z" style="fill:none;stroke:#000;stroke-width:24;stroke-linecap:round;stroke-linejoin:round;stroke-miterlimit:10;stroke-dasharray:none;stroke-opacity:1"/><path d="m8486 9127-29 75-67 17zM10233 5823l-124 67M9632 5474 6606 7221l16-12M10634 5766l-160 6-112 12 112-12zM10469 5756l-112 14v-13l112-17zM10143 5810l4 13-96 40-2-15zM6613 7869l-7-1 3374-1949 7 2M6814 8542v100-314M6837 8668l-5 8-135-46 71 20-71-20-118-61-51-34-87-77-59-81-9-50 9 50 59 81 19 32-19-32 87 77 51 34 118 61 135 46-4 5-51-16 51 16 45 16 60 8 48 12 61 7 51 7-51-7-61-7-48-12-60-8-45-16 4-5zl75 1 126 20 80 9 100 3 158-6 62-7 86-19 5 19h68l-50 13-109 19-115 10 115-10 109-19" style="fill:none;stroke:#000;stroke-width:24;stroke-linecap:round;stroke-linejoin:round;stroke-miterlimit:10;stroke-dasharray:none;stroke-opacity:1"/><path d="m6622 7209-16 12-75 49-58 648-82 87 82-87 39-12 14 8-21 25-45 29v10l-64 85-39 17 39-17-41 87-7 46 7-46 41-87 13-6-22 45-12 36-2 9-7 44-2 46 9 47 14 43 22 44 30 41-30-41-22-44-14-43-9-47 2-46 7-44 2-9 12-36 22-45 1-73M7363 8393l13 302-158 6-100-3 5-328M7120 8529l-2 169-80-9-126-20-75-1M6678 8344l1 249 66 28-66-28-1-287" style="fill:none;stroke:#000;stroke-width:24;stroke-linecap:round;stroke-linejoin:round;stroke-miterlimit:10;stroke-dasharray:none;stroke-opacity:1"/><path d="m6409 8057-13 6 41-50z" style="fill:none;stroke:#000;stroke-width:24;stroke-linecap:round;stroke-linejoin:round;stroke-miterlimit:10;stroke-dasharray:none;stroke-opacity:1"/><path d="m6437 8013-41 50 64-85 13-8zM6339 8106v-8l13-29 19-31-19 31-13 29 25-624-25 624zM6470 8288l6 166-13-369" style="fill:none;stroke:#000;stroke-width:24;stroke-linecap:round;stroke-linejoin:round;stroke-miterlimit:10;stroke-dasharray:none;stroke-opacity:1"/><path d="m6409 8057 28-44 36-43 42-38M6566 7896l47-27 7-7M11257 5918l14 5 18 3 16-22 69 50 32 29 27 29 46 58 30 75 20 96 7 23M11507 6371l-26 35-25 25-39 38-9-15 30-41" style="fill:none;stroke:#000;stroke-width:24;stroke-linecap:round;stroke-linejoin:round;stroke-miterlimit:10;stroke-dasharray:none;stroke-opacity:1"/><path d="m11406 6278-7-415 9 591-22-125M11018 5817l137 47 116 59-14-5M9964 5908 6590 7856l-5-16 21-619 3374-1948-20 619zM6512 7906l-39 12 112-78z" style="fill:none;stroke:#000;stroke-width:24;stroke-linecap:round;stroke-linejoin:round;stroke-miterlimit:10;stroke-dasharray:none;stroke-opacity:1"/><path d="m6473 7918 58-648 75-49-21 619zM6444 8481l-28-29zl16 12M11392 5732l-18-274 43 59-22-13 22 13-43-59 39 592-5-16 60 85 20 43 19 90-14 90 14-90-19-90-20-43-60-85-39-41 21 10-21-10-6 2 6-2 39 41 5 16" style="fill:none;stroke:#000;stroke-width:24;stroke-linecap:round;stroke-linejoin:round;stroke-miterlimit:10;stroke-dasharray:none;stroke-opacity:1"/><path d="m11484 6194 2 78-7 46 7-46zM7521 8547l3 122-86 19-62 7-13-302M7529 8688l-5-19 76-17 135-43 121-60 6 18 7 6-123 61-149 54z" style="fill:none;stroke:#000;stroke-width:24;stroke-linecap:round;stroke-linejoin:round;stroke-miterlimit:10;stroke-dasharray:none;stroke-opacity:1"/><path d="m7729 8479 6 130-135 43-76 17-3-122M7547 8701l50-13 149-54 123-61 57-32M11162 6672l82-47 103-70 45-29 64-95 25-25 26-35-53 96-48 49-69 63-86 50-82 47M7926 8548l-50 29h9l5-10" style="fill:none;stroke:#000;stroke-width:24;stroke-linecap:round;stroke-linejoin:round;stroke-miterlimit:10;stroke-dasharray:none;stroke-opacity:1"/><path d="m7849 8307 7 242-121 60-6-130M7885 8577h-9l50-29M7883 8326l7 241M11335 6708l-6-124M11100 6587l-65 37M10909 6697l-292 168M10491 6938l-141 81 1 13" style="fill:none;stroke:#000;stroke-width:24;stroke-linecap:round;stroke-linejoin:round;stroke-miterlimit:10;stroke-dasharray:none;stroke-opacity:1"/><path d="m7862 8567-6-18-7-242M9351 7098l31-18M7926 8541l-57 32-7-6M11237 6618l-7-17 53-33 48-35 77-79 9 15 39-38-64 95-45 29-103 70z" style="fill:none;stroke:#000;stroke-width:24;stroke-linecap:round;stroke-linejoin:round;stroke-miterlimit:10;stroke-dasharray:none;stroke-opacity:1"/><path d="m11386 6329 22 125-77 79-2-103M11529 6241l-20-96-30-75 18-512 12 65" style="fill:none;stroke:#000;stroke-width:24;stroke-linecap:round;stroke-linejoin:round;stroke-miterlimit:10;stroke-dasharray:none;stroke-opacity:1"/><path d="m11481 6425-25-611zl32-64zl-27 42 53-96M11536 6264l-7-23M10347 6855l3 125M11301 6661l-1-60" style="fill:none;stroke:#000;stroke-width:24;stroke-linecap:round;stroke-linejoin:round;stroke-miterlimit:10;stroke-dasharray:none;stroke-opacity:1"/><path d="m11497 5558-18 512-23-607zM11329 6584l6 124M11406 6516l48-49 27-42z" style="fill:none;stroke:#000;stroke-width:24;stroke-linecap:round;stroke-linejoin:round;stroke-miterlimit:10;stroke-dasharray:none;stroke-opacity:1"/><path d="m11509 5623-12-65-41-95 9 19-9-19-43-46 43 46-50-71-34-30h-1M8408 9902l-4 30 69-24 4 16 9 16-105 31h-61M8317 9965l23-4z" style="fill:none;stroke:#000;stroke-width:24;stroke-linecap:round;stroke-linejoin:round;stroke-miterlimit:10;stroke-dasharray:none;stroke-opacity:1"/><path d="m10752 8549-2 2-64 63-107 81-2036 1177-70 36-69 24 4-30M10806 8536l-1 2 213 125h4" style="fill:none;stroke:#000;stroke-width:24;stroke-linecap:round;stroke-linejoin:round;stroke-miterlimit:10;stroke-dasharray:none;stroke-opacity:1"/><path d="m10771 8874-208-128-7-7 23-44 107-81 64-63 2-2M11097 8202l131 113 20-44-20 44-197-169 41-140 14-90 5-84 46 25M10821 8493l2-6-11-9" style="fill:none;stroke:#000;stroke-width:24;stroke-linecap:round;stroke-linejoin:round;stroke-miterlimit:10;stroke-dasharray:none;stroke-opacity:1"/><path d="m8694 10068-135-165 2004-1157 208 128-1997 1155 1997-1155M10926 8758l-45 39-74 53 74-53z" style="fill:none;stroke:#000;stroke-width:24;stroke-linecap:round;stroke-linejoin:round;stroke-miterlimit:10;stroke-dasharray:none;stroke-opacity:1"/><path d="M8320 9971h61l105-31 73-37 135 165-82 26-92 10-18-2" style="fill:none;stroke:#000;stroke-width:24;stroke-linecap:round;stroke-linejoin:round;stroke-miterlimit:10;stroke-dasharray:none;stroke-opacity:1"/><path d="m8502 10102 18 2 92-10 82-26M10563 8746 8559 9903l-7-7 7 7-73 37-9-16-4-16 70-36 2036-1177-23 44zM10414 8083v37M10775 8892l48-43 69-40 66-51 48-46 48-47 17-28 17-28M11390 8213l11-125-4-77M11381 7941l-10-23 1 2 7 21M11084 8778l28-30 29-30" style="fill:none;stroke:#000;stroke-width:24;stroke-linecap:round;stroke-linejoin:round;stroke-miterlimit:10;stroke-dasharray:none;stroke-opacity:1"/><path d="m11082 8784 34-33 30-33 54-74M11232 8605l25-41 48-86-13 21-14 21M11321 8432l-8 23-8 23 37-87 32-90M11390 8213l-16 88 18-84 12-123-5-79-3-18-4-17-5-19-6-20M10810 8941l-37 5-27 3h-37l-23-5M10837 8933l20-6 19-6 64-34 39-20-32 19-71 35M11082 8784l-18 15-17 16-39 25-29 27 34-26 34-26 19-19 18-18" style="fill:none;stroke:#000;stroke-width:24;stroke-linecap:round;stroke-linejoin:round;stroke-miterlimit:10;stroke-dasharray:none;stroke-opacity:1"/><path d="m11255 8563 10-17 9-17M10829 8928l11-3 11-2M8834 9994l52-27 15-11M9194 9802l9-13 9-13M8703 10065h-4M8792 10100l76-25 68-31 73-45 31-28 31-29" style="fill:none;stroke:#000;stroke-width:24;stroke-linecap:round;stroke-linejoin:round;stroke-miterlimit:10;stroke-dasharray:none;stroke-opacity:1"/><path d="m9009 9999 35-29 34-29 31-32 31-33 29-37 30-37M8735 10107l-49-10-48-10M8772 10104l32-5 71-22 68-35 66-43" style="fill:none;stroke:#000;stroke-width:24;stroke-linecap:round;stroke-linejoin:round;stroke-miterlimit:10;stroke-dasharray:none;stroke-opacity:1"/><path d="m9169 9835 9-11 8-11M10478 7771l7 11 7 10 25 17 19 61v50l-19 85-18 23" style="fill:none;stroke:#000;stroke-width:24;stroke-linecap:round;stroke-linejoin:round;stroke-miterlimit:10;stroke-dasharray:none;stroke-opacity:1"/><path d="m10147 8152 12 36 20 33 41 32 57 4 44-15 32-37 32-2 41-43 36-47 32-53 3-16 2-16 2-29 3-29 16-25 16-25-8-25-8-26-19 74 3 27M10152 8031l32-82 45-74 39-43 41-37 44-25 41-11 50 6 30 17 18 10 12 36 16 41" style="fill:none;stroke:#000;stroke-width:24;stroke-linecap:round;stroke-linejoin:round;stroke-miterlimit:10;stroke-dasharray:none;stroke-opacity:1"/><path d="m10499 8028-37 16-18 56 25-20 25-20M10444 8100l-55 66-36 39-46 19-39 12-39 3-32-13-25-22-25-52M10287 7827l19-14 19-14M10147 8152l-4-66 9-55M8443 8920l45 19 23 29-7 14M8226 9032l36-42 41-37 44-25 29-6" style="fill:none;stroke:#000;stroke-width:24;stroke-linecap:round;stroke-linejoin:round;stroke-miterlimit:10;stroke-dasharray:none;stroke-opacity:1"/><path d="m8347 8928 18-3 44-12 17 4 17 3 25 20 36 42 26 46-14 21-6-33-6-34M8525 9107l-5-29-4-29-12 52-13 52-3 65-47 78-39 43-35 10 37-45 50-71 37-80M8164 9368l-16-38-9-42v-47l7-52 9-26 9-27M8283 8983l19-13 20-14" style="fill:none;stroke:#000;stroke-width:24;stroke-linecap:round;stroke-linejoin:round;stroke-miterlimit:10;stroke-dasharray:none;stroke-opacity:1"/><path d="m8482 8982 4 16 5 16M8358 9375l-13 4-14 4 18-17 18-17M8315 9400l8-8 8-9-48 15-39 6-37-5-22-5-21-26 22 16 21 15M8162 9365l1 2 1 1M8150 9210l23-76 25-49-17 26-17 25M8226 9032l-14 27-14 26 7-12 7-12M10474 5772l40-1 40-1-158 18-75 11M10554 5770l79 1 78 1 2-2 1-2M10526 5763l-164 21-107 22M10711 5772l13-3M10714 5768l79 8 78 9" style="fill:none;stroke:#000;stroke-width:24;stroke-linecap:round;stroke-linejoin:round;stroke-miterlimit:10;stroke-dasharray:none;stroke-opacity:1"/><path d="m11130 5834-101-35-160-34-169-16-57-1-114 11 55 2M10529 5759l-30-2-30-1M10147 5823l98-43 112-10-102 36-51 15-50 14M6912 8669l-98-27-69-21M6837 8668l-69-18-89-57-87-48M6640 8610l-80-43-100-77M6396 8063l-39 56-18 61M6373 8327l-9-90-14 47-1-44-1-44M6373 8147l7-22 7-23M6512 7906l-64 53-52 59-39 62-9 13-9 13" style="fill:none;stroke:#000;stroke-width:24;stroke-linecap:round;stroke-linejoin:round;stroke-miterlimit:10;stroke-dasharray:none;stroke-opacity:1"/><path d="m6357 8080-13 32-12 33 3-20 4-19M6332 8145l-5 48-4 49 25 67 23 64 89 117M6439 8412l18 21 19 21M6389 7655l7-99 20-59M6409 8026l26-29 25-29M6391 8005l-10 16-10 17M6339 8106l7-18 6-19" style="fill:none;stroke:#000;stroke-width:24;stroke-linecap:round;stroke-linejoin:round;stroke-miterlimit:10;stroke-dasharray:none;stroke-opacity:1"/><path d="m6332 8145-8 27-8 27 3 21 4 22" style="fill:none;stroke:#000;stroke-width:24;stroke-linecap:round;stroke-linejoin:round;stroke-miterlimit:10;stroke-dasharray:none;stroke-opacity:1"/><path d="m6316 8199 4 63 19 66" style="fill:none;stroke:#000;stroke-width:24;stroke-linecap:round;stroke-linejoin:round;stroke-miterlimit:10;stroke-dasharray:none;stroke-opacity:1"/><path d="m6323 8242 20 96 53 91 32 31 32 30 26 26 26 26 121 69 89 41M6832 8676l40-3 40-4M6565 8530l-24-18-24-18M6416 7497l13-22 12-22M6460 7978l45-39 101-71M6613 7869l1687-974 1687-974 124-58 66-25 144-39M10131 5271l69-24 89-25 105-21 103-12 77-3 156 3M10919 5786l77 21 76 20M10641 5733l-86 4-86 3M10051 5863l-43 22-44 23M6590 7856l-39 25-39 25M6531 7270l-32 26-32 27-11 8-10 9" style="fill:none;stroke:#000;stroke-width:24;stroke-linecap:round;stroke-linejoin:round;stroke-miterlimit:10;stroke-dasharray:none;stroke-opacity:1"/><path d="m6346 7538 18-64 32-63 71-88-32 38-32 38 21-29 22-30M6356 7663l4 18 4 18M6396 8429l10 12 10 11M6512 8542l-34-31-34-30M6783 8667l18 5 17 4M6722 8652l76 23 75 22M6453 7436l15-20 15-21 27-25 27-25M11127 5855l41 20 41 21 24 11 24 11M11367 5999l-16-14-16-14 14 12 14 12 25 27 25 28M11363 5995l22 19 23 20M11413 6050l50 84 21 60" style="fill:none;stroke:#000;stroke-width:24;stroke-linecap:round;stroke-linejoin:round;stroke-miterlimit:10;stroke-dasharray:none;stroke-opacity:1"/><path d="m11257 5918 39 27 39 26 34 22-98-70-31-13-31-14-27-16-27-16M10860 5132l-53-7-109-10-114-3-112 15-108 14" style="fill:none;stroke:#000;stroke-width:24;stroke-linecap:round;stroke-linejoin:round;stroke-miterlimit:10;stroke-dasharray:none;stroke-opacity:1"/><path d="m10419 5125-107 18-103 25-50 21-51 21-89 41-39 22 44-33M9960 5892l-1687 974-1688 974M6606 7221l-35 19-36 20-44 40-45 40M6403 7399l-30 62-10 35M6358 7623l15 63 13 28M6873 8697l108 20 112 14" style="fill:none;stroke:#000;stroke-width:24;stroke-linecap:round;stroke-linejoin:round;stroke-miterlimit:10;stroke-dasharray:none;stroke-opacity:1"/><path d="m6933 8705 109 19 167 14-58-3-58-4M7209 8738l57-4 57-4M7298 8718l79-8 79-9-66 15-67 14M7456 8701l36-6 37-7M7885 8577l-86 45-94 38-79 21-79 20M7705 8660l-54 14-54 14" style="fill:none;stroke:#000;stroke-width:24;stroke-linecap:round;stroke-linejoin:round;stroke-miterlimit:10;stroke-dasharray:none;stroke-opacity:1"/><path d="m7323 8730 274-42-141 13M7529 8688l72-19 72-19 62-41 68-11M7885 8577l21-12 20-11M7876 8577l-42 22-42 22" style="fill:none;stroke:#000;stroke-width:24;stroke-linecap:round;stroke-linejoin:round;stroke-miterlimit:10;stroke-dasharray:none;stroke-opacity:1"/><path d="m7673 8650 65-26 65-26 30-16 29-15M7856 8549l35-20 35-20M11148 6649l41-24 41-24M11461 6371l9-27 9-26M11516 6281l-5-66-16-62M11509 6145l-32-61-23-31-41-43-41-42-41-21-42-21-35-27-35-27-135-70 139 57 82 45M11162 5230l-46-19-46-18M10970 5164l-55-16-55-16M11363 5362l-60-53-18-12M10209 5168l-42 16-43 17M10108 5210l-42 15-42 15 50-20 50-19M6535 7260l44-26 43-25M11277 6675l12-7 12-7M11295 6685l12-7 12-7M7862 8567l32-19 32-18M11155 6666l41-24 41-24 46-50-39 57M11347 6555l34-46 36-40M11456 6431l37-89-12 64M11525 6307l2-33 2-33" style="fill:none;stroke:#000;stroke-width:24;stroke-linecap:round;stroke-linejoin:round;stroke-miterlimit:10;stroke-dasharray:none;stroke-opacity:1"/><path d="m11513 6361 23-97-4-66-19-64-34-64M11454 6053l-10-21-11-20M11372 5968l-33-32-34-32M11200 5242l-89-41-93-33-158-36M6601 7300l21-17 21-17M6622 7209l1686-973 1687-974M11336 6709l-4-127zM11251 6629l75-49 66-54 62-59 27-61" style="fill:none;stroke:#000;stroke-width:24;stroke-linecap:round;stroke-linejoin:round;stroke-miterlimit:10;stroke-dasharray:none;stroke-opacity:1"/><path d="m11536 6264-6 21-5 22-9 32-9 32M11497 5558l-16-38-16-38M11406 5392l-10-9-11-8-6-7-7-6M11285 5296l30 14 70 65M11175 6676l76-47M11392 6526l-27 27-28 26M11468 5768l-2 2-2 1M10956 8733l-34 33-37 31-71 54" style="fill:none;stroke:#000;stroke-width:24;stroke-linecap:round;stroke-linejoin:round;stroke-miterlimit:10;stroke-dasharray:none;stroke-opacity:1"/><path d="m11018 8663-30 38-62 57M10805 8538l-23 13-23 13 12-14 11-14M10759 8564l-66 65-71 56-66 54M10814 8851l-43 23 36-24M10771 8874l-1002 578-1002 579 4-1 3-1M8767 10031l-36 18-37 19M8520 10104l76-6 16-4M8694 10068l-30 11M10780 8853l-1002 578-1002 578M11018 8663l8-11 8-12M8404 9932l-64 10h-2M8477 9924l-71 25-66 12 21 5 20 5M11022 8663l11-14 11-15M8552 9896l-2-3-2-2 1004-576 1004-576M8548 9891l-36 16-35 17M8340 9961l-11-1-11-1M8473 9235l-4 6-3 6M10837 8933l-14 4-13 4M11232 8605l-16 20-16 19M10686 8944l-23-8" style="fill:none;stroke:#000;stroke-width:24;stroke-linecap:round;stroke-linejoin:round;stroke-miterlimit:10;stroke-dasharray:none;stroke-opacity:1"/><path d="m9218 9772-9 15-10 15M8772 10104l-37 3-55-5-45-14M10394 7759h32l52 12 195 102 43 30 3 7M10393 8365l-173-112M8409 8913l32 3 47 23 169 84M8385 9522l-200-128M8162 9365l-7-18-7-17M6373 8147l-7 44-2 46 12-291 13-291M6517 8494l25 17 23 19M6316 8199l15-331 15-330M6396 8429l-25-40-28-51-4-10M6441 7453l6-8 6-9M6515 7932l-42 38-36 43-28 44-22 45M6613 7869l-24 13-23 14M11155 5864l-137-47-147-32M6396 7411l3-6 4-6M6444 8481l-14-15-14-14M7547 8701l-109 19-115 10M8830 7926l-1-18M8947 7830l291-168M9364 7589l191-111 26 14M6537 7345l32-22 32-23M11482 6190l4 82-2-41zM10312 5143l57-10 50-8 59-5 106-8M11497 5558l12 65 27 641M11200 5242l57 34 58 34M11371 5362h1l34 30 50 71 9 19M11513 6361l-32 64-27 42-48 49-69 63-86 50" style="fill:none;stroke:#000;stroke-width:24;stroke-linecap:round;stroke-linejoin:round;stroke-miterlimit:10;stroke-dasharray:none;stroke-opacity:1"/><path d="m10771 8874-998 578-999 577M8664 10079l-26 8-26 7M11022 8663l-34 38-32 32M8559 9903l-3-4-4-3M8520 10104l-18-2" style="fill:none;stroke:#000;stroke-width:24;stroke-linecap:round;stroke-linejoin:round;stroke-miterlimit:10;stroke-dasharray:none;stroke-opacity:1"/></g></svg>