<svg xmlns="http://www.w3.org/2000/svg" width="500" height="500"><defs><clipPath id="a" clipPathUnits="userSpaceOnUse"><path d="M2651 3760h4869v8525H2651z"/></clipPath></defs><g clip-path="url(#a)" transform="matrix(-.0607 0 0 .0607 558.648 -236.889)"><path d="M1782.175-2354.746c105.607 239.796 194.722 500.089 265.543 775.614" style="fill:none;stroke:#000;stroke-width:17;stroke-linecap:round;stroke-linejoin:round;stroke-miterlimit:10;stroke-dasharray:none;stroke-opacity:1" transform="rotate(-150.002 4189.946 3786.442)"/><path d="m3538 7466 67-38M3405 7543l66-38M3271 7621l67-39M3137 7698l67-39M3004 7775l66-39M2870 7852l67-39M2803 8046v78M2803 8202v78M2803 8358v78M2803 8513v78M2803 8669v78M2803 8825v78M2803 8981v78M2803 9137v78M2803 9293v78M2803 9449v78M2803 9605v78M2803 9761v78M2803 9917v78M2803 10073v78M2803 10229v78M2803 10385v77M2828 10009l-25-14M2828 9385l-25-14M2828 8761l-25-14M2828 8138l-25-14M2828 8294l-25-14M2828 8917l-25-14M2828 9541l-25-14M2828 10165l-25-14M2828 9853l-25-14M2828 9229l-25-14M2828 8606l-25-15M2828 8450l-25-14M2828 9073l-25-14M2828 9697l-25-14M2828 10321l-25-14M2803 10462l25 15M3204 10308l-165 95M2937 7891l67-39M3070 7813l67-38M3204 7736l67-38M3338 7659l67-38M3471 7582l67-39M3605 7505l67-39-67-38M3070 7736l67 39M3204 7736l-67-38M2937 7813l67 39M3070 7813l-66-38M3471 7505l67 38M3605 7505l-67-39M3204 7659l67 39M3338 7659l-67-38M2937 7891l-67-39M3338 7582l67 39M3471 7582l-66-39M6574 7251l-25 53M6549 7304l92 14 24-53M6574 7251l-44-7M6756 7279l-91-14M2803 7968l25 52M2852 8073l24 53M2901 8179l24 52M2950 8284l24 53M2999 8389l24 53M3048 8495l24 52M3097 8600l24 53M3146 8706l24 52M3194 8811l25 53M3243 8916l25 53M3292 9022l25 52M3341 9127l25 53M3390 9233l25 52 91 14M3597 9313l92 15M3780 9342l91 14M3962 9370l92 14M4145 9398l91 14M4328 9426l91 15M4510 9455l92 14M4693 9483l91 14M4875 9511l92 14M5058 9539l91 15M5241 9568l91 14M5423 9596l91 14M5606 9624l91 14 67-38M5831 9561l67-39M5964 9484l67-39M6098 9407l67-39M6232 9330l67-39M6365 9252l67-38M6499 9175l67-38M6633 9098l67-38M6766 9021l67-39M6900 8944l67-39M7034 8867l67-39M7167 8790l67-39M7301 8712l67-38M6900 8944v-77l-67-39M6833 8828l-67 39 67 38v77M6365 9252v-77l-66-38M6299 9137l-67 38 67 39v77M5831 9561v-77l-67-39M5764 9445l-67 39 67 38v78M5964 9484v-77l-66-39M5898 9368l-67 39 67 38v77M6499 9175v-77l-67-38M6432 9060l-67 38 67 39v77M7034 8867v-77l-67-39M6967 8751l-67 39 67 38v77M6766 9021v-77l-66-39M6700 8905l-67 39 67 38v78M6232 9330v-78l-67-38M6165 9214l-67 38 67 39v77M7167 8635l67 39v77M7301 8712v-77l-67-38-67 38M6098 9407v-77l-67-39M6031 9291l-67 39 67 38v77M6633 9098v-77l-67-39M6566 8982l-67 39 67 39v77M7167 8790v-78l-66-38M7101 8674l-67 38 67 39v77M7167 8712l67-38M7301 8635l67-38v77M6098 9330l67-39M6633 9021l67-39M7034 8790l67-39M6499 9098l67-38M5964 9407l67-39M5831 9484l67-39" style="fill:none;stroke:#000;stroke-width:17;stroke-linecap:round;stroke-linejoin:round;stroke-miterlimit:10;stroke-dasharray:none;stroke-opacity:1"/><path d="m5764 9522-67 39v77M6365 9175l67-38M6232 9252l67-38M6900 8867l67-39M6766 8944l67-39M6928 7648l-92 14M6836 7662l25 53 91-14M7123 8070l-91 14M7032 8084l24 52 92-14M7252 8558l91-14M7319 8491l-91 14 24 53M7270 8386l-91 14M7179 8400l24 53 92-14M7074 7964l-91 14M6983 7978l25 53 91-14M6879 7543l-92 14M6787 7557l25 52 91-14M6977 7753l-92 15M6885 7768l25 52 91-14M7172 8175l-91 14M7081 8189l24 53 92-14M6781 7332l-91 14M6690 7346l24 53 91-14M7221 8280l-91 15M7130 8295l24 52 92-14M7025 7859l-91 14M6934 7873l25 53 91-14M6830 7437l-92 14M6738 7451l25 53 91-14M7368 8597l-25-53M6781 7332l-25-53M6830 7437l-25-52M7221 8280l-24-52M7025 7859l-24-53M6879 7543l-25-53M7074 7964l-24-52M7270 8386l-24-53M7319 8491l-24-52M7123 8070l-24-53M7172 8175l-24-53M6928 7648l-25-53M6977 7753l-25-52M5058 9539v-77l24-52M5082 9410l-91-15-24 53v77M4328 9426v-77l24-52M4352 9297l-91-15-25 53v77M3530 9169l-24 53v77M3597 9313v-77l25-52-92-15M3780 9342v-77l24-53M3804 9212l-91-14-24 52v78M4510 9455v-77l25-53M4535 9325l-92-14-24 52v78M5241 9568v-78l24-52M5265 9438l-91-14-25 52v78M4875 9511v-77l25-53M4900 9381l-91-14-25 53v77M4145 9398v-77l24-53M4169 9268l-91-14-24 53v77M5606 9624v-77l24-53M5630 9494l-91-14-25 53v77M3962 9370v-77l25-53M3987 9240l-91-14-25 53v77M4693 9483v-77l24-53M4717 9353l-91-14-24 53v77M5423 9596v-77l25-53M5448 9466l-92-14-24 53v77M3506 9222l-91-14v77M5606 9547l91 14M5423 9519l91 14M3962 9293l92 14M4693 9406l91 14M5241 9490l91 15M4510 9378l92 14M3780 9265l91 14M3597 9236l92 14M4328 9349l91 14M4145 9321l91 14M5058 9462l91 14M4875 9434l92 14M3271 7621l67 38M3338 7659l67-38-67-39M3137 7698l67 38M3204 7736l67-38-67-39M3405 7543l66 39M3471 7582l67-39-67-38M2870 7852l67 39M2937 7891l67-39-67-39M3538 7466l67 39M3605 7505l67-39-67-38M3004 7775l66 38M3070 7813l67-38-67-39M2870 7852l-67 39v77M3004 7775l-67 38M3538 7466l-67 39M3137 7698l-67 38M3668 7392l-63 36M3271 7621l-67 38M3405 7543l-67 39M3243 8916v-77l92-14" style="fill:none;stroke:#000;stroke-width:17;stroke-linecap:round;stroke-linejoin:round;stroke-miterlimit:10;stroke-dasharray:none;stroke-opacity:1"/><path d="m3335 8825-25-53-91 14v78M3048 8495v-77l91-15" style="fill:none;stroke:#000;stroke-width:17;stroke-linecap:round;stroke-linejoin:round;stroke-miterlimit:10;stroke-dasharray:none;stroke-opacity:1"/><path d="m3139 8403-24-52-92 14v77M2852 8073v-77l91-14" style="fill:none;stroke:#000;stroke-width:17;stroke-linecap:round;stroke-linejoin:round;stroke-miterlimit:10;stroke-dasharray:none;stroke-opacity:1"/><path d="m2943 7982-24-53-91 14v77M2901 8179v-78l91-14" style="fill:none;stroke:#000;stroke-width:17;stroke-linecap:round;stroke-linejoin:round;stroke-miterlimit:10;stroke-dasharray:none;stroke-opacity:1"/><path d="m2992 8087-24-52-92 14v77M3097 8600v-77l91-14" style="fill:none;stroke:#000;stroke-width:17;stroke-linecap:round;stroke-linejoin:round;stroke-miterlimit:10;stroke-dasharray:none;stroke-opacity:1"/><path d="m3188 8509-25-53-91 14v77M3292 9022v-77l92-15" style="fill:none;stroke:#000;stroke-width:17;stroke-linecap:round;stroke-linejoin:round;stroke-miterlimit:10;stroke-dasharray:none;stroke-opacity:1"/><path d="m3384 8930-25-52-91 14v77M3194 8811v-77l92-14" style="fill:none;stroke:#000;stroke-width:17;stroke-linecap:round;stroke-linejoin:round;stroke-miterlimit:10;stroke-dasharray:none;stroke-opacity:1"/><path d="m3286 8720-25-53-91 14v77M2999 8389v-77l91-14" style="fill:none;stroke:#000;stroke-width:17;stroke-linecap:round;stroke-linejoin:round;stroke-miterlimit:10;stroke-dasharray:none;stroke-opacity:1"/><path d="m3090 8298-24-53-92 14v78M3457 9089l-91 14v77" style="fill:none;stroke:#000;stroke-width:17;stroke-linecap:round;stroke-linejoin:round;stroke-miterlimit:10;stroke-dasharray:none;stroke-opacity:1"/><path d="M3390 9233v-78l91-14-24-52M2950 8284v-77l91-14" style="fill:none;stroke:#000;stroke-width:17;stroke-linecap:round;stroke-linejoin:round;stroke-miterlimit:10;stroke-dasharray:none;stroke-opacity:1"/><path d="m3041 8193-24-53-92 14v77M3146 8706v-78l91-14" style="fill:none;stroke:#000;stroke-width:17;stroke-linecap:round;stroke-linejoin:round;stroke-miterlimit:10;stroke-dasharray:none;stroke-opacity:1"/><path d="m3237 8614-25-52-91 14v77M3341 9127v-77l92-14" style="fill:none;stroke:#000;stroke-width:17;stroke-linecap:round;stroke-linejoin:round;stroke-miterlimit:10;stroke-dasharray:none;stroke-opacity:1"/><path d="m3433 9036-25-53-91 14v77M3390 9155l25 53M3341 9050l25 53M2950 8207l24 52M3146 8628l24 53M3292 8945l25 52M3097 8523l24 53M2901 8101l24 53M2852 7996l24 53M2803 7891l25 52M3048 8418l24 52M2999 8312l24 53M3243 8839l25 53M3194 8734l25 52M3415 9383l-25 4 25 53M3506 9348l-91 14-25-52v77M3481 9141l-24-52M3433 9036l-25-53M3384 8930l-25-52M3335 8825l-25-53M3286 8720l-25-53M3237 8614l-25-52M3188 8509l-25-53M3139 8403l-24-52M3090 8298l-24-53M3041 8193l-24-53M2992 8087l-24-52M2943 7982l-24-53M3017 10712l3-60 3-59 5-57 4-56 5-55 5-53 6-52 7-51 6-49 8-48 7-46 8-45 9-43 9-42 9-40 10-39 10-37 11-36 11-34 11-32 12-31 12-29 13-27 13-26 13-24 14-22 14-21 14-18 15-18 15-15 15-13 16-12 16-10 16-9M3415 9285v77" style="fill:none;stroke:#000;stroke-width:17;stroke-linecap:round;stroke-linejoin:round;stroke-miterlimit:10;stroke-dasharray:none;stroke-opacity:1"/><path d="M3415 9440v77l-19-7-18-4-18-3-18-1-18 1-17 3-17 4-17 7-16 8-16 10-16 11-16 14-15 15-15 17-14 18-14 21-14 22-13 24-13 25-13 28-12 29-12 30-12 33-11 34-10 35-11 38-9 38-10 41-9 42-8 43-9 45-7 47-8 48-6 49-7 51-6 52-5 53-5 55-5 57-4 57-3 59-4 60-97-211v-78l-25-52v-78l25 52v-78l-25-52v-78l25 52v-78l-25-52v-78l25 52v-78l-25-52v-78l25 52v-77l-25-53v-78l25 53v-78l-25-53v-78l25 53v-78l-25-53v-78l25 53v-78l-25-53v-78l25 53v-78l-25-53v-78l25 53v-78l-25-53v-78l25 53v-78l-25-53v-78l25 53v-78l-25-53v-78l25 53v-78l-25-53v-77l25 52v-78l-25-52v-78l25 52v-78l-25-52v-78l25 52v-78l-25-52v-78l25 52v-77l24 53v77l24 53v-77l25 52v78l24 52v-77l25 53v77l24 53v-78l25 53v77l24 53v-77l25 53v77l24 52v-77l25 53v77l24 53v-77l25 52v78l24 52v-77l24 53v77l25 53v-78l24 53v77l25 53v-77l24 53v77l25 52v-77l24 53v77l25 53v-77l24 52v78l25 52M3237 8614l-91 14M3170 8681l91-14M3041 8193l-91 14M2974 8259l92-14M3384 8930l-92 15M3317 8997l91-14M3433 9036l-92 14M3366 9103l91-14M2992 8087l-91 14M2925 8154l92-14M3188 8509l-91 14M3121 8576l91-14M3286 8720l-92 14M3219 8786l91-14M3090 8298l-91 14M3023 8365l92-14M2828 7943l91-14M3481 9141l-91 14M2943 7982l-91 14M2876 8049l92-14M3139 8403l-91 15M3072 8470l91-14M3335 8825l-92 14M3268 8892l91-14M3415 9517l91-14M2925 10726l92-14M7368 8751l-67 39v77l67-39M7234 8597l-67 38M7101 8674l-67 38M6967 8751l-67 39M6833 8828l-67 39M6700 8905l-67 39M6566 8982l-67 39M6432 9060l-67 38M6299 9137l-67 38M6165 9214l-67 38M6031 9291l-67 39M5898 9368l-67 39M5764 9445l-67 39M5630 9628v50M5630 9784v50M5630 9940v49M5630 10096v49M5630 10252v49M5630 10407v50M5630 10563v50M5630 10719v50M5630 10875v50M5630 11031v50M5630 11187v50M5630 11343v50M5630 11499v50M5630 11655v50M5630 11811v49M5630 11967v49M7368 8674v77" style="fill:none;stroke:#000;stroke-width:17;stroke-linecap:round;stroke-linejoin:round;stroke-miterlimit:10;stroke-dasharray:none;stroke-opacity:1"/><path d="M7368 8828v77l-65 81-63 81-62 84-61 84-60 86-59 87-57 88-56 89-55 90-53 91-52 92-50 92-48 94-47 93-46 95-43 95-42 95-41 96-38 96-37 96-35 96-33 96-31 96-29 96-27 96-25 95-24 96-21 94-20 95-17 93-15 93-14 93-11 91-267 154v-78l-67 39v-78l67-39v-78l-67 39v-78l67-38v-78l-67 38v-78l67-38v-78l-67 38v-78l67-38v-78l-67 38v-78l67-38v-78l-67 38v-78l67-38v-78l-67 38v-77l67-39v-78l-67 39v-78l67-39v-78l-67 39v-78l67-39v-78l-67 39v-78l67-39v-78l-67 39v-78l67-39v-78l-67 39v-78l67-39v-78l-67 39v-78l67-39v-78l-67 39v-78l67-39v-77l-67 38v-78l67-38v-78l-67 38v-78l67-38v-78l67-38v77l67-39v-77l66-38v77l67-39v-77l67-38v77l67-39v-77l67-39v78l67-39v-77l66-39v77l67-38v-77l67-39v77l67-38v-77l67-39v77l67-38v-78l66-38v77l67-39v-77l67-38v77l67-39v-77l67-38v77l67-39v-77l66-39v78l67-39v-77l67-39v77l67-38M5764 11783l-42-25M5697 11743l-67-38M5764 11159l-42-25M5697 11119l-67-38M5764 10535l-42-24M5697 10496l-67-39M5764 9911l-42-24M5697 9872l-67-38M5764 10067l-42-24M5697 10028l-67-39M5764 10691l-42-24M5697 10652l-67-39M5764 11315l-42-25M5697 11275l-67-38M5764 11938l-42-24M5697 11899l-67-39M5764 11627l-42-25M5697 11587l-67-38M5764 11003l-42-25M5697 10964l-67-39M5764 10379l-42-24M5697 10340l-67-39M5764 9756l-42-25M5697 9716l-67-38M5764 10223l-42-24M5697 10184l-67-39M5764 10847l-42-24M5697 10808l-67-39M5764 11471l-42-25M5697 11431l-67-38M5722 12070l42 24M5697 12055l-67-39M6566 8982l67 39M6700 8982l-67-38M6031 9291l67 39M6165 9291l-67-39M6967 8751l67 39M7101 8751l-67-39M7101 8674l66 38M7234 8674l-67-39M5898 9368l66 39M6031 9368l-67-38M6432 9060l67 38M6566 9060l-67-39M6700 8905l66 39M6833 8905l-67-38M6165 9214l67 38M6299 9214l-67-39M5764 9522l-67-38M7234 8597l67 38M5764 9445l67 39M5898 9445l-67-38M6299 9137l66 38M6432 9137l-67-39M6833 8828l67 39M6967 8828l-67-38M6549 7304l92 14M6641 7318l24-53-91-14-25 53" style="fill:none;stroke:#000;stroke-width:17;stroke-linecap:round;stroke-linejoin:round;stroke-miterlimit:10;stroke-dasharray:none;stroke-opacity:1"/><path d="M-1413.268-401.975C-1148.05-712.715-600.077-909.5 0-909.5s1148.05 196.785 1413.268 507.525" style="fill:none;stroke:#000;stroke-width:17;stroke-linecap:round;stroke-linejoin:round;stroke-miterlimit:10;stroke-dasharray:none;stroke-opacity:1" transform="rotate(180 2543.25 4087.25)"/><path d="M6475.932 7553.29c447.32 399.18 317.357 927.41-304.84 1239.01-622.195 311.6-1546.988 311.6-2169.185 0s-752.159-839.83-304.84-1239.01M6499 8576l70-83M3672 8576l-70-83" style="fill:none;stroke:#000;stroke-width:17;stroke-linecap:round;stroke-linejoin:round;stroke-miterlimit:10;stroke-dasharray:none;stroke-opacity:1"/><path d="M1690.66 129.595C1578.091 618.933 855.146 984.5 0 984.5s-1578.092-365.567-1690.66-854.905" style="fill:none;stroke:#000;stroke-width:17;stroke-linecap:round;stroke-linejoin:round;stroke-miterlimit:10;stroke-dasharray:none;stroke-opacity:1" transform="rotate(180 2543.25 2773.75)"/><path d="M1719.329 170.53C1575.537 654.08 849.529 1007.5 0 1007.5s-1575.537-353.42-1719.329-836.97" style="fill:none;stroke:#000;stroke-width:17;stroke-linecap:round;stroke-linejoin:round;stroke-miterlimit:10;stroke-dasharray:none;stroke-opacity:1" transform="rotate(180 2543.25 2773.75)"/><path d="M1302.844-752.008c719.541 415.323 719.541 1088.693 0 1504.016-719.54 415.323-1886.147 415.323-2605.688 0s-719.541-1088.693 0-1504.016c719.54-415.323 1886.147-415.323 2605.688 0" style="fill:none;stroke:#000;stroke-width:17;stroke-linecap:round;stroke-linejoin:round;stroke-miterlimit:10;stroke-dasharray:none;stroke-opacity:1" transform="rotate(180 2542.75 2497.25)"/><path d="M6410.972 4229.057c732.037 422.742 732.037 1108.144 0 1530.886s-1918.906 422.742-2650.944 0-732.037-1108.144 0-1530.886 1918.906-422.742 2650.944 0M6379.181 8093.284C6311.021 8476.024 5752.717 8767 5086.5 8767s-1224.52-290.976-1292.68-673.716" style="fill:none;stroke:#000;stroke-width:17;stroke-linecap:round;stroke-linejoin:round;stroke-miterlimit:10;stroke-dasharray:none;stroke-opacity:1"/><path d="M6848.699 5678.112C6755.729 6199.568 5994.21 6596 5085.5 6596s-1670.229-396.432-1763.199-917.888M6378 8093l393-2204M3793 8093l-393-2204M6848 5678l102-573M3323 5678l-102-573M3506 9526v-72l-91-14M3415 9362l91 14M5241 12062l-17-97-21-98-23-98-27-98-31-97-33-97-37-97-41-96-43-96-47-95-50-94-52-93-56-93-59-91-62-90-65-90-67-88-70-86-73-85-76-84-78-82-80-80-83-79-86-77-87-75-90-73-92-71-93-69-96-67M3415 9362v78" style="fill:none;stroke:#000;stroke-width:17;stroke-linecap:round;stroke-linejoin:round;stroke-miterlimit:10;stroke-dasharray:none;stroke-opacity:1"/><path d="M3506 9376v-154l91 14v77l92 15v-78l91 15v77l91 14v-77l91 14v77l92 14v-77l91 14v77l91 14v-77l92 14v77l91 15v-78l91 15v77l92 14v-77l91 14v77l91 14v-77l91 14v77l92 14v-77l91 14v77l91 15v-78l92 14v78l91 14v-77l91 14v77l91 14v-77l92 14v155l91 14v78l-91-14v78l91 14v78l-91-14v78l91 14v78l-91-14v78l91 14v78l-91-14v78l91 14v78l-91-14v78l91 14v78l-91-14v78l91 14v78l-91-14v78l91 14v78l-91-15v78l91 15v78l-91-15v78l91 14v78l-91-14v78l91 14v78l-91-14v78l91 14v78l-91-14v78l91 14v78l-91-14v78l91 14v78l-91-14v78l91 14v78l-91-14v78l91 14v78l-456-71M5606 11729l24-53M5722 11612l-25 53M5606 11105l24-52M5722 10989l-25 53M5606 10482l24-53M5722 10365l-25 53M5606 9858l24-53M5722 9741l-25 53M5606 10014l24-53M5722 9897l-25 53M5606 10638l24-53M5722 10521l-25 53M5606 11261l24-52M5722 11145l-25 52M5606 11885l24-53M5722 11768l-25 53M5606 11573l24-53M5722 11457l-25 52M5606 10949l24-52M5722 10833l-25 53M5606 10326l24-53M5722 10209l-25 53M5606 9702l24-53M5606 10170l24-53M5722 10053l-25 53M5606 10794l24-53M5722 10677l-25 53M5606 11417l24-53M5722 11301l-25 52M5606 12041l24-53M5722 11924l-25 53M5697 12133l25-53v-39M5722 10209v-39M5722 10833v-39M5722 11457v-40M5722 11924v-39M5722 11301v-40M5722 10677v-39M5722 10053v-39M5722 9741v-39M5722 9897v-39M5722 10365v-39M5722 10521v-39M5722 10989v-40M5722 11145v-40M5722 11612v-39M5722 11768v-39M5630 9494l-91-14M5448 9466l-92-14M5265 9438l-91-14M5082 9410l-91-15M4900 9381l-91-14M4717 9353l-91-14M4535 9325l-92-14M4352 9297l-91-15M4169 9268l-91-14M3987 9240l-91-14M3804 9212l-91-14M3622 9184l-92-15M3871 9279l25-53M3804 9212l-24 53M4602 9392l24-53M4535 9325l-25 53M5332 9505l24-53M5265 9438l-24 52M5514 9533l25-53M5448 9466l-25 53M4784 9420l25-53M4717 9353l-24 53M4054 9307l24-53M3987 9240l-25 53M3622 9184l-25 52M3689 9250l24-52M4419 9363l24-52M4352 9297l-24 52M5149 9476l25-52M5082 9410l-24 52M5630 9494l-24 53M4967 9448l24-53M4900 9381l-25 53M4236 9335l25-53M4169 9268l-24 53M3506 9222l24-53M7368 8828l-67 10M6824 9685l-6 51-6 52-5 54-5 55-4 56-4 57-4 59-3 60 92-14 3-64 4-62 4-61 5-59 5-58 6-57 6-55 7-53 7-52 8-51 8-49M7368 8751v77M7319 8491l24 53M7270 8386l25 53M7221 8280l25 53M7172 8175l25 53M7123 8070l25 52M7074 7964l25 53M7025 7859l25 53M6977 7753l24 53M6928 7648l24 53M6879 7543l24 52M6830 7437l24 53M6781 7332l24 53M6787 10129l-96-208M6690 7346l24 53M6738 7451l25 53M6787 7557l25 52M6836 7662l25 53M6885 7768l25 52M6934 7873l25 53M6983 7978l25 53M7032 8084l24 52M7081 8189l24 53M7130 8295l24 52M7179 8400l24 53M7228 8505l24 53M7246 8333l-92 14M7179 8400l91-14M7050 7912l-91 14M6983 7978l91-14M6854 7490l-91 14M6787 7557l92-14M6805 7385l-91 14M6738 7451l92-14M7001 7806l-91 14M6934 7873l91-14M7197 8228l-92 14M7130 8295l91-15M7228 8505l91-14M7295 8439l-92 14M7099 8017l-91 14M7032 8084l91-14M6903 7595l-91 14M6836 7662l92-14M6690 7346l91-14M6952 7701l-91 14M6885 7768l92-15M7148 8122l-92 14M7081 8189l91-14M7343 8544l-91 14" style="fill:none;stroke:#000;stroke-width:17;stroke-linecap:round;stroke-linejoin:round;stroke-miterlimit:10;stroke-dasharray:none;stroke-opacity:1"/></g></svg>