<?xml version="1.0" encoding="UTF-8" standalone="no"?>
<!-- Created with Inkscape (http://www.inkscape.org/) -->

<svg
   version="1.1"
   id="svg182"
   width="500"
   height="500"
   viewBox="0 0 500 499.99998"
   sodipodi:docname="thumbnail.svg"
   inkscape:version="1.2.2 (b0a84865, 2022-12-01)"
   xmlns:inkscape="http://www.inkscape.org/namespaces/inkscape"
   xmlns:sodipodi="http://sodipodi.sourceforge.net/DTD/sodipodi-0.dtd"
   xmlns="http://www.w3.org/2000/svg"
   xmlns:svg="http://www.w3.org/2000/svg">
  <defs
     id="defs186">
    <clipPath
       clipPathUnits="userSpaceOnUse"
       id="clipPath198">
      <path
         d="M 3534,6505 H 7157 V 9554 H 3534 V 6505"
         id="path196" />
    </clipPath>
    <clipPath
       clipPathUnits="userSpaceOnUse"
       id="clipPath430">
      <path
         d="M 0,0 H 9921 V 14031 H 0 V 0"
         id="path428" />
    </clipPath>
    <clipPath
       clipPathUnits="userSpaceOnUse"
       id="clipPath470">
      <path
         d="M 0,0 H 9921 V 14031 H 0 V 0"
         id="path468" />
    </clipPath>
    <clipPath
       clipPathUnits="userSpaceOnUse"
       id="clipPath482">
      <path
         d="M 0,0 H 9921 V 14031 H 0 V 0"
         id="path480" />
    </clipPath>
    <clipPath
       clipPathUnits="userSpaceOnUse"
       id="clipPath198-3">
      <path
         d="M 3534,6505 H 7157 V 9554 H 3534 V 6505"
         id="path196-8" />
    </clipPath>
  </defs>
  <sodipodi:namedview
     id="namedview184"
     pagecolor="#ffffff"
     bordercolor="#000000"
     borderopacity="0.25"
     inkscape:showpageshadow="2"
     inkscape:pageopacity="1"
     inkscape:pagecheckerboard="0"
     inkscape:deskcolor="#d1d1d1"
     showgrid="false"
     inkscape:zoom="0.91478612"
     inkscape:cx="61.216495"
     inkscape:cy="302.25645"
     inkscape:window-width="1837"
     inkscape:window-height="1205"
     inkscape:window-x="0"
     inkscape:window-y="25"
     inkscape:window-maximized="0"
     inkscape:current-layer="g192">
    <inkscape:page
       x="0"
       y="0"
       id="page188"
       width="500"
       height="499.99997"
       inkscape:export-filename="thumbnail.png"
       inkscape:export-xdpi="96"
       inkscape:export-ydpi="96" />
  </sodipodi:namedview>
  <g
     id="g190"
     inkscape:groupmode="layer"
     inkscape:label="Page 1"
     transform="matrix(0.08,0,0,-0.08,0,1122.6667)">
    <g
       id="g192"
       transform="translate(2101.3656,-1744.4139)">
      <g
         id="g194"
         clip-path="url(#clipPath198-3)"
         transform="matrix(1.696231,0,0,1.696231,-8043.9591,-968.0465)">
        <g
           id="g200"
           transform="matrix(-0.86441,0.50279,-0.50279,-0.86441,4292.5,7632.5)">
          <path
             d="m -31.92603,-27.76634 c 3.38455,-2.42551 7.19485,-4.45263 11.31303,-6.01866"
             style="fill:none;stroke:#000000;stroke-width:17;stroke-linecap:round;stroke-linejoin:round;stroke-miterlimit:10;stroke-dasharray:none;stroke-opacity:1"
             id="path202" />
        </g>
        <path
           d="m 4326,7651 v -9"
           style="fill:none;stroke:#000000;stroke-width:17;stroke-linecap:round;stroke-linejoin:round;stroke-miterlimit:10;stroke-dasharray:none;stroke-opacity:1"
           id="path204" />
        <g
           id="g206"
           transform="matrix(-0.8592,0.51163,-0.51163,-0.8592,4292.5,7633.5)">
          <path
             d="m -31.66553,-27.20628 c 3.41397,-2.34625 7.2516,-4.30074 11.39372,-5.80278"
             style="fill:none;stroke:#000000;stroke-width:17;stroke-linecap:round;stroke-linejoin:round;stroke-miterlimit:10;stroke-dasharray:none;stroke-opacity:1"
             id="path208" />
        </g>
        <g
           id="g210"
           transform="matrix(-0.8592,0.51163,-0.51163,-0.8592,4538.5,7346.5)">
          <path
             d="M -17.58681,-33.90604 C 1.524,-39.75917 23.36607,-35.4934 36.52076,-23.33881"
             style="fill:none;stroke:#000000;stroke-width:17;stroke-linecap:round;stroke-linejoin:round;stroke-miterlimit:10;stroke-dasharray:none;stroke-opacity:1"
             id="path212" />
        </g>
        <g
           id="g214"
           transform="matrix(-0.86604,-0.49997,0.49997,-0.86604,4448.5,7509.5)">
          <path
             d="M 42.37274,178.98293 C 17.97854,196.3759 -9.1785,198.2 -34.27438,184.13121"
             style="fill:none;stroke:#000000;stroke-width:17;stroke-linecap:round;stroke-linejoin:round;stroke-miterlimit:10;stroke-dasharray:none;stroke-opacity:1"
             id="path216" />
        </g>
        <g
           id="g218"
           transform="matrix(-0.94302,-0.33273,0.33273,-0.94302,4538.5,7491.5)">
          <path
             d="m -37.23536,-7.14017 c 13.27752,-4.05856 36.12011,-5.46865 55.80338,-3.44478"
             style="fill:none;stroke:#000000;stroke-width:17;stroke-linecap:round;stroke-linejoin:round;stroke-miterlimit:10;stroke-dasharray:none;stroke-opacity:1"
             id="path220" />
        </g>
        <g
           id="g222"
           transform="matrix(0.86604,0.49997,-0.49997,0.86604,4448.5,7509.5)">
          <path
             d="M 106.10145,-59.48064 C 118.9689,9.64679 108.44181,85.45759 78.84241,136.82516 49.243,188.19273 5.55875,206.46173 -34.27438,184.13121"
             style="fill:none;stroke:#000000;stroke-width:17;stroke-linecap:round;stroke-linejoin:round;stroke-miterlimit:10;stroke-dasharray:none;stroke-opacity:1"
             id="path224" />
        </g>
        <path
           d="m 4336,7614 2,1 1,1 1,1 2,2 1,1 1,1 2,1 1,1 h 2 l 1,1 2,1 1,1 h 2 l 2,1 1,1 h 2 2 l 1,1 h 2 2 l 2,1 h 2 2 1 2 2 2 2 2 l 2,-1 h 2 2 l 3,-1 h 2 l 2,-1 2,-1 3,-1 h 2 l 2,-1 2,-1 3,-1 2,-1 2,-1 3,-2 2,-1 2,-1 3,-1 2,-2 2,-1 3,-2 2,-1 2,-2 3,-2 2,-2 2,-1 2,-2 3,-2 2,-2 2,-2 2,-2 3,-2 2,-2 2,-3 2,-2 2,-2 2,-3 3,-2 2,-2 2,-3 2,-2 2,-3 2,-2 2,-3 2,-3 1,-2 2,-3 2,-3 2,-2 2,-3 1,-3 2,-3 2,-3 1,-2 2,-3 1,-3 2,-3 1,-3 2,-3 1,-3 2,-3 1,-3 1,-3 1,-3 2,-3 1,-3 1,-3"
           style="fill:none;stroke:#000000;stroke-width:9;stroke-linecap:round;stroke-linejoin:round;stroke-miterlimit:10;stroke-dasharray:none;stroke-opacity:1"
           id="path226" />
        <g
           id="g228"
           transform="rotate(148.66707,1239.0657,4309.6748)">
          <path
             d="m -17.25211,-34.00742 c 19.20236,-5.75204 41.04101,-1.33245 54.06526,10.94145"
             style="fill:none;stroke:#000000;stroke-width:17;stroke-linecap:round;stroke-linejoin:round;stroke-miterlimit:10;stroke-dasharray:none;stroke-opacity:1"
             id="path230" />
        </g>
        <g
           id="g232"
           transform="rotate(-159.81272,2935.9513,3341.2941)">
          <path
             d="m -37.33411,-7.72813 c 13.22223,-4.42353 36.04754,-5.97625 55.75952,-3.79312"
             style="fill:none;stroke:#000000;stroke-width:17;stroke-linecap:round;stroke-linejoin:round;stroke-miterlimit:10;stroke-dasharray:none;stroke-opacity:1"
             id="path234" />
        </g>
        <path
           d="m 4517,7495 v 0"
           style="fill:none;stroke:#000000;stroke-width:17;stroke-linecap:round;stroke-linejoin:round;stroke-miterlimit:10;stroke-dasharray:none;stroke-opacity:1"
           id="path236" />
        <path
           d="m 4517,7495 1,-4 2,-4 1,-3 1,-4 2,-3 1,-4 1,-3 1,-4 1,-3 1,-4 1,-3 1,-3 v -4 l 1,-3 v -3 l 1,-4 v -3 -3 -4 l -1,-3 v -3 l -1,-3 v -3 l -1,-3 -1,-4 -1,-2 -1,-3 -1,-3 -1,-3 -2,-3 -1,-2 -1,-3"
           style="fill:none;stroke:#000000;stroke-width:9;stroke-linecap:round;stroke-linejoin:round;stroke-miterlimit:10;stroke-dasharray:none;stroke-opacity:1"
           id="path238" />
        <path
           d="m 4570,7366 v 144"
           style="fill:none;stroke:#000000;stroke-width:17;stroke-linecap:round;stroke-linejoin:round;stroke-miterlimit:10;stroke-dasharray:none;stroke-opacity:1"
           id="path240" />
        <path
           d="m 4342,7669 -116,67 50,29 114,-66"
           style="fill:none;stroke:#000000;stroke-width:17;stroke-linecap:round;stroke-linejoin:round;stroke-miterlimit:10;stroke-dasharray:none;stroke-opacity:1"
           id="path242" />
        <path
           d="m 4226,7736 v -62 l 33,-19"
           style="fill:none;stroke:#000000;stroke-width:17;stroke-linecap:round;stroke-linejoin:round;stroke-miterlimit:10;stroke-dasharray:none;stroke-opacity:1"
           id="path244" />
        <g
           id="g246"
           transform="matrix(-0.86604,-0.49997,0.49997,-0.86604,4532.5,7557.5)">
          <path
             d="M -106.10145,59.48064 C -117.06254,0.59471 -111.13339,-63.83735 -90.14944,-113.86998 -69.16548,-163.9026 -35.65817,-193.5 0,-193.5"
             style="fill:none;stroke:#000000;stroke-width:17;stroke-linecap:round;stroke-linejoin:round;stroke-miterlimit:10;stroke-dasharray:none;stroke-opacity:1"
             id="path248" />
        </g>
        <path
           d="m 4654,7558 v -70 l 134,-78 v -61"
           style="fill:none;stroke:#000000;stroke-width:17;stroke-linecap:round;stroke-linejoin:round;stroke-miterlimit:10;stroke-dasharray:none;stroke-opacity:1"
           id="path250" />
        <path
           d="m 4779,7695 -160,199"
           style="fill:none;stroke:#000000;stroke-width:17;stroke-linecap:round;stroke-linejoin:round;stroke-miterlimit:10;stroke-dasharray:none;stroke-opacity:1"
           id="path252" />
        <g
           id="g254"
           transform="matrix(-0.86604,-0.49997,0.49997,-0.86604,4532.5,8002.5)">
          <path
             d="m 70.81174,70.05177 c -18.34751,55.90631 -56.11037,83.28119 -91.90801,66.62557"
             style="fill:none;stroke:#000000;stroke-width:17;stroke-linecap:round;stroke-linejoin:round;stroke-miterlimit:10;stroke-dasharray:none;stroke-opacity:1"
             id="path256" />
        </g>
        <g
           id="g258"
           transform="matrix(-0.86604,-0.49997,0.49997,-0.86604,4532.5,7111.5)">
          <path
             d="m -78.72228,36.62726 c -6.12832,-39.70383 -2.0096,-82.0721 11.28483,-116.0844 13.29444,-34.01229 34.45049,-56.30659 57.96524,-61.08392"
             style="fill:none;stroke:#000000;stroke-width:17;stroke-linecap:round;stroke-linejoin:round;stroke-miterlimit:10;stroke-dasharray:none;stroke-opacity:1"
             id="path260" />
        </g>
        <path
           d="m 4619,7119 160,14"
           style="fill:none;stroke:#000000;stroke-width:17;stroke-linecap:round;stroke-linejoin:round;stroke-miterlimit:10;stroke-dasharray:none;stroke-opacity:1"
           id="path262" />
        <g
           id="g264"
           transform="matrix(-0.86604,-0.49997,0.49997,-0.86604,4866.5,7141.5)">
          <path
             d="m -57.6292,-100.05561 c 20.5886,-35.74586 50.59702,-49.7066 78.72169,-36.62348 28.12468,13.08311 50.09294,51.22249 57.62979,100.05183"
             style="fill:none;stroke:#000000;stroke-width:17;stroke-linecap:round;stroke-linejoin:round;stroke-miterlimit:10;stroke-dasharray:none;stroke-opacity:1"
             id="path266" />
        </g>
        <path
           d="m 4866,7257 v 214"
           style="fill:none;stroke:#000000;stroke-width:17;stroke-linecap:round;stroke-linejoin:round;stroke-miterlimit:10;stroke-dasharray:none;stroke-opacity:1"
           id="path268" />
        <g
           id="g270"
           transform="matrix(-0.86604,-0.49997,0.49997,-0.86604,4866.5,7587.5)">
          <path
             d="m 21.09627,-136.67734 c 28.12431,13.08546 50.09152,51.22667 57.62702,100.05663 C 86.2588,12.20925 78.2178,64.30975 57.6292,100.05561"
             style="fill:none;stroke:#000000;stroke-width:17;stroke-linecap:round;stroke-linejoin:round;stroke-miterlimit:10;stroke-dasharray:none;stroke-opacity:1"
             id="path272" />
        </g>
        <path
           d="m 4788,7349 -51,-29 -133,77"
           style="fill:none;stroke:#000000;stroke-width:17;stroke-linecap:round;stroke-linejoin:round;stroke-miterlimit:10;stroke-dasharray:none;stroke-opacity:1"
           id="path274" />
        <path
           d="m 4788,7410 -51,-28 -133,77 50,29"
           style="fill:none;stroke:#000000;stroke-width:17;stroke-linecap:round;stroke-linejoin:round;stroke-miterlimit:10;stroke-dasharray:none;stroke-opacity:1"
           id="path276" />
        <path
           d="m 4737,7320 v 62"
           style="fill:none;stroke:#000000;stroke-width:17;stroke-linecap:round;stroke-linejoin:round;stroke-miterlimit:10;stroke-dasharray:none;stroke-opacity:1"
           id="path278" />
        <path
           d="m 4604,7397 v 62"
           style="fill:none;stroke:#000000;stroke-width:17;stroke-linecap:round;stroke-linejoin:round;stroke-miterlimit:10;stroke-dasharray:none;stroke-opacity:1"
           id="path280" />
        <path
           d="m 4614,7391 -44,-25"
           style="fill:none;stroke:#000000;stroke-width:17;stroke-linecap:round;stroke-linejoin:round;stroke-miterlimit:10;stroke-dasharray:none;stroke-opacity:1"
           id="path282" />
        <path
           d="m 4654,7558 -84,-48"
           style="fill:none;stroke:#000000;stroke-width:17;stroke-linecap:round;stroke-linejoin:round;stroke-miterlimit:10;stroke-dasharray:none;stroke-opacity:1"
           id="path284" />
        <g
           id="g286"
           transform="matrix(-0.86604,-0.49997,0.49997,-0.86604,4916.5,7616.5)">
          <path
             d="m 21.09627,-136.67734 c 28.12431,13.08546 50.09152,51.22667 57.62702,100.05663 C 86.2588,12.20925 78.2178,64.30975 57.6292,100.05561"
             style="fill:none;stroke:#000000;stroke-width:17;stroke-linecap:round;stroke-linejoin:round;stroke-miterlimit:10;stroke-dasharray:none;stroke-opacity:1"
             id="path288" />
        </g>
        <path
           d="m 4829,7724 -50,-29"
           style="fill:none;stroke:#000000;stroke-width:17;stroke-linecap:round;stroke-linejoin:round;stroke-miterlimit:10;stroke-dasharray:none;stroke-opacity:1"
           id="path290" />
        <path
           d="m 4866,7257 50,29 v 214 l -50,-29"
           style="fill:none;stroke:#000000;stroke-width:17;stroke-linecap:round;stroke-linejoin:round;stroke-miterlimit:10;stroke-dasharray:none;stroke-opacity:1"
           id="path292" />
        <g
           id="g294"
           transform="matrix(-0.86604,-0.49997,0.49997,-0.86604,4916.5,7170.5)">
          <path
             d="m 28.81317,-132.36208 c 24.54194,16.10402 43.11786,51.73603 49.90911,95.73482"
             style="fill:none;stroke:#000000;stroke-width:17;stroke-linecap:round;stroke-linejoin:round;stroke-miterlimit:10;stroke-dasharray:none;stroke-opacity:1"
             id="path296" />
        </g>
        <path
           d="m 4829,7162 -50,-29"
           style="fill:none;stroke:#000000;stroke-width:17;stroke-linecap:round;stroke-linejoin:round;stroke-miterlimit:10;stroke-dasharray:none;stroke-opacity:1"
           id="path298" />
        <g
           id="g300"
           transform="matrix(-0.86604,-0.49997,0.49997,-0.86604,4582.5,8031.5)">
          <path
             d="M 76.23681,50.02532 C 66.96136,92.63495 46.43833,124.88638 21.09627,136.67734"
             style="fill:none;stroke:#000000;stroke-width:17;stroke-linecap:round;stroke-linejoin:round;stroke-miterlimit:10;stroke-dasharray:none;stroke-opacity:1"
             id="path302" />
        </g>
        <path
           d="m 4829,7724 -160,199 -50,-29"
           style="fill:none;stroke:#000000;stroke-width:17;stroke-linecap:round;stroke-linejoin:round;stroke-miterlimit:10;stroke-dasharray:none;stroke-opacity:1"
           id="path304" />
        <path
           d="m 4623,7386 -78,-45"
           style="fill:none;stroke:#000000;stroke-width:17;stroke-linecap:round;stroke-linejoin:round;stroke-miterlimit:10;stroke-dasharray:none;stroke-opacity:1"
           id="path306" />
        <path
           d="m 4435,7725 -84,-49"
           style="fill:none;stroke:#000000;stroke-width:17;stroke-linecap:round;stroke-linejoin:round;stroke-miterlimit:10;stroke-dasharray:none;stroke-opacity:1"
           id="path308" />
        <path
           d="m 4827,7727 72,42 v -258"
           style="fill:none;stroke:#000000;stroke-width:17;stroke-linecap:round;stroke-linejoin:round;stroke-miterlimit:10;stroke-dasharray:none;stroke-opacity:1"
           id="path310" />
        <path
           d="m 4701,7884 198,-115"
           style="fill:none;stroke:#000000;stroke-width:17;stroke-linecap:round;stroke-linejoin:round;stroke-miterlimit:10;stroke-dasharray:none;stroke-opacity:1"
           id="path312" />
        <g
           id="g314"
           transform="matrix(-0.86604,-0.49997,0.49997,-0.86604,4128.5,7323.5)">
          <path
             d="M 0,472.5 C -110.21597,472.5 -209.57935,357.37906 -251.75717,180.81792 -293.935,4.25677 -270.62106,-198.97391 -192.6866,-334.10794"
             style="fill:none;stroke:#000000;stroke-width:17;stroke-linecap:round;stroke-linejoin:round;stroke-miterlimit:10;stroke-dasharray:none;stroke-opacity:1"
             id="path316" />
        </g>
        <g
           id="g318"
           transform="matrix(-0.86604,-0.49997,0.49997,-0.86604,4071.5,7291.5)">
          <path
             d="m 192.6866,334.10794 c -106.41788,184.52274 -278.95532,184.52274 -385.3732,0 -106.41786,-184.52272 -106.41786,-483.69316 0,-668.21588"
             style="fill:none;stroke:#000000;stroke-width:17;stroke-linecap:round;stroke-linejoin:round;stroke-miterlimit:10;stroke-dasharray:none;stroke-opacity:1"
             id="path320" />
        </g>
        <path
           d="m 4523,7398 -66,-199"
           style="fill:none;stroke:#000000;stroke-width:17;stroke-linecap:round;stroke-linejoin:round;stroke-miterlimit:10;stroke-dasharray:none;stroke-opacity:1"
           id="path322" />
        <path
           d="m 4390,7629 -205,42"
           style="fill:none;stroke:#000000;stroke-width:17;stroke-linecap:round;stroke-linejoin:round;stroke-miterlimit:10;stroke-dasharray:none;stroke-opacity:1"
           id="path324" />
        <path
           d="m 4364,6914 -57,-33"
           style="fill:none;stroke:#000000;stroke-width:17;stroke-linecap:round;stroke-linejoin:round;stroke-miterlimit:10;stroke-dasharray:none;stroke-opacity:1"
           id="path326" />
        <g
           id="g328"
           transform="matrix(-0.86604,0.49997,-0.49997,-0.86604,5351.5,8029.5)">
          <path
             d="M 24.80145,826.38306 C 16.54128,827.12756 8.27134,827.5 0,827.5"
             style="fill:none;stroke:#000000;stroke-width:17;stroke-linecap:round;stroke-linejoin:round;stroke-miterlimit:10;stroke-dasharray:none;stroke-opacity:1"
             id="path330" />
        </g>
        <path
           d="m 5037,7255 -7,-1 h -7 l -8,-1 -7,-1 h -8 l -7,-1 -7,-1 h -7 l -7,-1 h -8 -7 l -7,-1 h -7 -7 -7 l -7,-1 h -7 -6 -7 -7 -7 -6 -7 -7 -6 -7 -6 l -6,1 h -7 -6 -6 -6"
           style="fill:none;stroke:#000000;stroke-width:17;stroke-linecap:round;stroke-linejoin:round;stroke-miterlimit:10;stroke-dasharray:none;stroke-opacity:1"
           id="path332" />
        <path
           d="m 4128,7709 -57,-33 v -21 l -29,-16 v 46 l 29,48"
           style="fill:none;stroke:#000000;stroke-width:17;stroke-linecap:round;stroke-linejoin:round;stroke-miterlimit:10;stroke-dasharray:none;stroke-opacity:1"
           id="path334" />
        <path
           d="m 4582,7916 v 57 l -50,-29 v -23 l -386,-223"
           style="fill:none;stroke:#000000;stroke-width:17;stroke-linecap:round;stroke-linejoin:round;stroke-miterlimit:10;stroke-dasharray:none;stroke-opacity:1"
           id="path336" />
        <path
           d="m 4801,7944 -101,-59"
           style="fill:none;stroke:#000000;stroke-width:17;stroke-linecap:round;stroke-linejoin:round;stroke-miterlimit:10;stroke-dasharray:none;stroke-opacity:1"
           id="path338" />
        <g
           id="g340"
           transform="matrix(-0.86604,0.49997,-0.49997,-0.86604,5351.5,8029.5)">
          <path
             d="m 390.5285,-476.15689 c 98.29764,242.12241 114.46967,556.80247 42.40958,825.21826"
             style="fill:none;stroke:#000000;stroke-width:17;stroke-linecap:round;stroke-linejoin:round;stroke-miterlimit:10;stroke-dasharray:none;stroke-opacity:1"
             id="path342" />
        </g>
        <path
           d="m 4071,7733 511,432 5,3 5,3 6,3 5,3 5,4 5,3 5,4 6,3 5,4 5,4 5,3 5,4 6,4 5,4 5,4 5,4 5,5 5,4 6,4 5,5 5,4 5,4 5,5 6,5 5,4 5,5 5,5 5,5 6,4 5,5 5,5 5,5 5,5 6,5 5,5 5,6 5,5 5,5 5,5 6,6 10,10 10,11 11,11 10,11 11,11 10,11 10,11 11,12 10,11 11,11 20,23 21,23 21,23 10,11 11,11 10,11 10,11 11,11 10,11 10,11 11,11 5,5 5,6 5,5 6,5 5,5 5,5 5,5 5,5 6,5 5,5 5,5 5,5 5,5 6,5 5,5 5,4 5,5 5,5 6,4 5,5 5,4 6,5 5,4 5,5 6,4 5,4 5,4 6,4 5,4 5,4 6,4 5,4 5,4 6,4 5,3 6,4 5,3 6,4 5,3 5,3 v -145"
           style="fill:none;stroke:#000000;stroke-width:17;stroke-linecap:round;stroke-linejoin:round;stroke-miterlimit:10;stroke-dasharray:none;stroke-opacity:1"
           id="path344" />
        <path
           d="m 4071,6848 -29,15"
           style="fill:none;stroke:#000000;stroke-width:17;stroke-linecap:round;stroke-linejoin:round;stroke-miterlimit:10;stroke-dasharray:none;stroke-opacity:1"
           id="path346" />
        <path
           d="m 4582,7007 -173,-54"
           style="fill:none;stroke:#000000;stroke-width:17;stroke-linecap:round;stroke-linejoin:round;stroke-miterlimit:10;stroke-dasharray:none;stroke-opacity:1"
           id="path348" />
        <path
           d="m 4146,6871 -75,-23"
           style="fill:none;stroke:#000000;stroke-width:17;stroke-linecap:round;stroke-linejoin:round;stroke-miterlimit:10;stroke-dasharray:none;stroke-opacity:1"
           id="path350" />
        <path
           d="m 5224,7147 -5,-2 -5,-3 -6,-2 -5,-3 -5,-2 -6,-2 -5,-2 -5,-2 -5,-2 -6,-2 -5,-2 -5,-2 -5,-2 -6,-1 -5,-2 -5,-2 -5,-1 -6,-2 -5,-1 -5,-1 -5,-1 -5,-2 -5,-1 -6,-1 -5,-1 -5,-1 -5,-1 -5,-1 -5,-1 -5,-1 -6,-1 h -5 l -10,-2 -10,-1 -10,-1 -10,-1 -10,-1 -10,-1 -10,-1 -10,-1 -9,-1 h -10 l -20,-2 -39,-2 -19,-1 -10,-1 h -10 l -10,-1 -10,-1 -9,-1 -10,-1 -10,-1 -10,-1 -10,-1 -9,-1 -10,-2 -5,-1 h -5 l -5,-1 -5,-1 -5,-1 -4,-1 -5,-1 -5,-1 -5,-1 -5,-1 -5,-1 -5,-2 -5,-1 -5,-1 -5,-2 -5,-1 -5,-1 -5,-2 -5,-1 -5,-2 -5,-2 -5,-2 -5,-1 -5,-2 -5,-2 -5,-2 -5,-2 -5,-2 -5,-3 -5,-2 -5,-2 -5,-3 -5,-2 -6,-3 -5,-3 -5,-2 -5,-3 -5,-3"
           style="fill:none;stroke:#000000;stroke-width:17;stroke-linecap:round;stroke-linejoin:round;stroke-miterlimit:10;stroke-dasharray:none;stroke-opacity:1"
           id="path352" />
        <path
           d="m 4582,7183 v -139 l 3,2 4,1 3,2 3,2 3,1 4,2 3,1 4,2 3,1 4,2 3,1 4,1 3,2 4,1 4,1 3,1 4,1 4,1 3,1 4,1 4,1 4,1 4,1 4,1 3,1 h 4 l 4,1 4,1 4,1 h 4 l 4,1 h 5 l 4,1 4,1 h 4 l 4,1 h 5 l 4,1 h 4 4 l 5,1 h 4 l 5,1 h 4 4 l 5,1 h 4 5 4 l 5,1 h 5 4 5 l 5,1 h 4 5 5 l 5,1 h 5 4 5 5 l 5,1 h 5 5 5 l 5,1 h 5 10 l 11,1 h 10 l 11,1 h 5 l 5,1 h 5 6 l 5,1 h 6 l 5,1 h 6 5 l 6,1 h 5 l 6,1 h 6 l 5,1 6,1 h 6 l 5,1 6,1 h 6 l 6,1 6,1 6,1 6,1 h 6 l 6,1 6,1 6,1 6,1 6,1 6,1 6,2 6,1 6,1 7,1 6,2 6,1 6,1 7,2 6,1 7,2 6,2 6,1 7,2 6,2 7,2 7,2 6,2 7,2 6,2 7,2 7,2 6,2"
           style="fill:none;stroke:#000000;stroke-width:17;stroke-linecap:round;stroke-linejoin:round;stroke-miterlimit:10;stroke-dasharray:none;stroke-opacity:1"
           id="path354" />
        <path
           d="m 4461,7151 71,41 v -23 l 41,24"
           style="fill:none;stroke:#000000;stroke-width:17;stroke-linecap:round;stroke-linejoin:round;stroke-miterlimit:10;stroke-dasharray:none;stroke-opacity:1"
           id="path356" />
        <path
           d="m 4042,6863 v 47 l 29,16 v -21"
           style="fill:none;stroke:#000000;stroke-width:17;stroke-linecap:round;stroke-linejoin:round;stroke-miterlimit:10;stroke-dasharray:none;stroke-opacity:1"
           id="path358" />
        <g
           id="g360"
           transform="matrix(-0.86604,-0.49997,0.49997,-0.86604,4532.5,7557.5)">
          <path
             d="m 182.08,-315.72318 c 12.17751,21.11558 23.10268,44.29621 32.61138,69.19368"
             style="fill:none;stroke:#000000;stroke-width:17;stroke-linecap:round;stroke-linejoin:round;stroke-miterlimit:10;stroke-dasharray:none;stroke-opacity:1"
             id="path362" />
        </g>
        <g
           id="g364"
           transform="matrix(-0.86604,-0.49997,0.49997,-0.86604,4532.5,7557.5)">
          <path
             d="m 214.69138,246.5295 c -9.5087,24.89747 -20.43387,48.0781 -32.61138,69.19368"
             style="fill:none;stroke:#000000;stroke-width:17;stroke-linecap:round;stroke-linejoin:round;stroke-miterlimit:10;stroke-dasharray:none;stroke-opacity:1"
             id="path366" />
        </g>
        <g
           id="g368"
           transform="matrix(0.86604,0.49997,-0.49997,0.86604,4071.5,7291.5)">
          <path
             d="M -16.47998,445.58463 C -117.42738,434.35901 -205.23361,321.6882 -240.93195,157.57341 -276.63028,-6.54139 -253.60722,-191.69635 -182.08,-315.72318"
             style="fill:none;stroke:#000000;stroke-width:17;stroke-linecap:round;stroke-linejoin:round;stroke-miterlimit:10;stroke-dasharray:none;stroke-opacity:1"
             id="path370" />
        </g>
        <path
           d="m 4816,7234 h 7 6 7 7 6 7 7 l 7,1 h 7 7 7 7 l 7,1 h 7 l 7,1 h 7 8 l 7,1 7,1 h 7 l 8,1 7,1 h 7 l 8,1 7,1 8,1 7,1 7,1 8,1 8,2 7,1 8,1"
           style="fill:none;stroke:#000000;stroke-width:9;stroke-linecap:round;stroke-linejoin:round;stroke-miterlimit:10;stroke-dasharray:none;stroke-opacity:1"
           id="path372" />
        <g
           id="g374"
           transform="matrix(0.86604,0.49997,-0.49997,0.86604,4042.5,7274.5)">
          <path
             d="m 182.08,315.72318 c -100.56001,174.36911 -263.59999,174.36911 -364.16,0 -100.56001,-174.3691 -100.56001,-457.07726 0,-631.44636"
             style="fill:none;stroke:#000000;stroke-width:17;stroke-linecap:round;stroke-linejoin:round;stroke-miterlimit:10;stroke-dasharray:none;stroke-opacity:1"
             id="path376" />
        </g>
        <g
           id="g378"
           transform="matrix(0.86604,0.49997,-0.49997,0.86604,4042.5,7274.5)">
          <path
             d="m 205.41452,356.02826 c -113.44731,196.62897 -297.38173,196.62897 -410.82904,0 -113.44733,-196.62898 -113.44733,-515.42754 0,-712.05652"
             style="fill:none;stroke:#000000;stroke-width:17;stroke-linecap:round;stroke-linejoin:round;stroke-miterlimit:10;stroke-dasharray:none;stroke-opacity:1"
             id="path380" />
        </g>
        <path
           d="m 4776,8982 6,6 5,6 6,6 5,7 170,-99"
           style="fill:none;stroke:#000000;stroke-width:17;stroke-linecap:round;stroke-linejoin:round;stroke-miterlimit:10;stroke-dasharray:none;stroke-opacity:1"
           id="path382" />
        <path
           d="m 4943,8890 -12,7 -13,7 -13,7 -12,7 -13,7 -13,7 -25,15 -26,14 -13,7 -13,7 -13,7 -12,6 -13,7 -13,7"
           style="fill:none;stroke:#000000;stroke-width:17;stroke-linecap:round;stroke-linejoin:round;stroke-miterlimit:10;stroke-dasharray:none;stroke-opacity:1"
           id="path384" />
        <path
           d="m 4739,9002 4,3 3,3 4,3 4,3 3,2 4,3 4,3 3,2 4,3 4,2 3,3 4,2 4,2 4,3 3,2 4,2 v -36"
           style="fill:none;stroke:#000000;stroke-width:17;stroke-linecap:round;stroke-linejoin:round;stroke-miterlimit:10;stroke-dasharray:none;stroke-opacity:1"
           id="path386" />
        <path
           d="m 5250,8782 -252,145 -3,-2 -3,-2 -4,-2 -3,-2 -4,-2 -3,-2 -4,-3 -3,-2 -4,-2 -3,-3 -4,-2 -3,-3 -4,-2 -3,-3 -3,-2 -4,-3"
           style="fill:none;stroke:#000000;stroke-width:17;stroke-linecap:round;stroke-linejoin:round;stroke-miterlimit:10;stroke-dasharray:none;stroke-opacity:1"
           id="path388" />
        <path
           d="m 4245,8209 3,1 2,2 3,2 2,1 3,2 2,2 3,2 2,1 3,2 2,2 3,2 2,2 2,2 3,3 2,2 2,2 2,2 3,2 2,3 2,2 2,3 2,2 3,2 2,3 2,3 2,2 2,3 2,3 2,2 2,3 2,3 2,3 2,3 2,2 2,3 2,3 4,6 3,7 4,6 4,6 3,7 4,7 3,6 3,7 4,7 3,8 3,7 3,7 3,8 4,7 3,8 3,8 2,8 3,8 3,8 3,8 3,8 3,8 2,9 3,8 3,8 2,9 3,9 2,8 3,9 2,9 3,8 2,9 3,9 2,9 5,18 5,18 4,18 5,19 9,36 10,37 4,18 5,18 5,18 5,18 2,9 2,9 3,9 2,9 3,9 2,8 3,9 3,9 2,8 3,9 3,8 2,8 3,9 3,8 3,8 2,8 3,8 3,8 3,7 3,8 3,8 3,7 4,8 3,7 3,7 3,7 4,7 3,7 4,7 3,6 4,7 3,6 4,6 4,6 2,3 2,3 2,3 2,3 2,3 2,2 2,3 2,3 2,3 2,2 2,3 2,2 2,3 2,2 2,3 3,2 2,3 2,2 2,2 3,3 2,2 2,2 2,2 3,2 2,2 3,2 2,2 2,2 3,2 2,2 3,1 2,2 3,2 2,1 3,2 3,2 132,-77"
           style="fill:none;stroke:#000000;stroke-width:17;stroke-linecap:round;stroke-linejoin:round;stroke-miterlimit:10;stroke-dasharray:none;stroke-opacity:1"
           id="path390" />
        <g
           id="g392"
           transform="matrix(-0.86604,-0.49997,0.49997,-0.86604,4582.5,7586.5)">
          <path
             d="m -289.56024,-500.98517 c 71.93997,-124.46753 168.08353,-198.14532 269.70231,-206.68127"
             style="fill:none;stroke:#000000;stroke-width:17;stroke-linecap:round;stroke-linejoin:round;stroke-miterlimit:10;stroke-dasharray:none;stroke-opacity:1"
             id="path394" />
        </g>
        <g
           id="g396"
           transform="matrix(0.86604,0.49997,-0.49997,0.86604,4071.5,7291.5)">
          <path
             d="M 220.97087,382.89832 C 102.89278,587.50403 -87.15359,595.09851 -210.54942,400.14246"
             style="fill:none;stroke:#000000;stroke-width:17;stroke-linecap:round;stroke-linejoin:round;stroke-miterlimit:10;stroke-dasharray:none;stroke-opacity:1"
             id="path398" />
        </g>
        <g
           id="g400"
           transform="matrix(-0.86604,-0.49997,0.49997,-0.86604,4582.5,7586.5)">
          <path
             d="m -19.85793,-707.66644 c 28.99344,-2.43549 58.05438,0.46972 86.69275,8.66656"
             style="fill:none;stroke:#000000;stroke-width:17;stroke-linecap:round;stroke-linejoin:round;stroke-miterlimit:10;stroke-dasharray:none;stroke-opacity:1"
             id="path402" />
        </g>
        <path
           d="m 3686,7498 2,34"
           style="fill:none;stroke:#000000;stroke-width:17;stroke-linecap:round;stroke-linejoin:round;stroke-miterlimit:10;stroke-dasharray:none;stroke-opacity:1"
           id="path404" />
        <path
           d="m 3759,7728 415,430"
           style="fill:none;stroke:#000000;stroke-width:17;stroke-linecap:round;stroke-linejoin:round;stroke-miterlimit:10;stroke-dasharray:none;stroke-opacity:1"
           id="path406" />
        <path
           d="m 4226,8199 h 1 v 1 h 1 l 1,1 h 1 v 1 l 1,1 1,1 1,1 2,1 1,1 1,1 2,2 1,1 2,2 2,1 1,2 2,2 2,2 2,2 2,2 2,3 2,2 2,3 3,2 2,3 2,3 2,3 3,3 2,3 3,3 2,3 2,4 3,3 2,4 3,3 2,4 3,3 2,4 3,4 2,4 3,4 2,4 3,4 2,4 3,4 2,4 3,4 2,4 3,4 2,5 2,4 3,4 2,5 3,4 2,4 2,5 3,4 2,5 2,4 2,5 3,4 2,5 2,4 2,5 3,5 2,4 2,5 2,5 2,4 2,5 2,5 2,4 3,5 2,5 2,5 2,4 2,5 2,5 1,5 2,4 2,5 2,5 2,5 2,5 2,4 2,5 1,5 2,5 2,5 2,5 3,9 4,10 3,10 3,9 3,10 3,10 4,10 3,9 3,10 2,10 3,10 3,9 3,10 2,10 3,9 3,10 2,10 3,9"
           style="fill:none;stroke:#000000;stroke-width:17;stroke-linecap:round;stroke-linejoin:round;stroke-miterlimit:10;stroke-dasharray:none;stroke-opacity:1"
           id="path408" />
        <g
           id="g410"
           transform="matrix(0.86604,-0.49997,0.49997,0.86604,6420.5,7412.5)">
          <path
             d="m 337.64349,-585.13086 c 186.47535,323.15888 186.47535,847.10284 0,1170.26172 -186.47535,323.15887 -488.81163,323.15887 -675.28698,0 -186.47535,-323.15888 -186.47535,-847.10284 0,-1170.26172 186.47535,-323.15887 488.81163,-323.15887 675.28698,0"
             style="fill:none;stroke:#000000;stroke-width:17;stroke-linecap:round;stroke-linejoin:round;stroke-miterlimit:10;stroke-dasharray:none;stroke-opacity:1"
             id="path412" />
        </g>
        <g
           id="g414"
           transform="matrix(0.86604,-0.49997,0.49997,0.86604,4281.5,8647.5)">
          <path
             d="M 0,827.5 C -263.71597,827.5 -477.5,457.01566 -477.5,0 -477.5,-457.01566 -263.71597,-827.5 0,-827.5"
             style="fill:none;stroke:#000000;stroke-width:17;stroke-linecap:round;stroke-linejoin:round;stroke-miterlimit:10;stroke-dasharray:none;stroke-opacity:1"
             id="path416" />
        </g>
        <path
           d="M 6007,6696 4937,7313"
           style="fill:none;stroke:#000000;stroke-width:17;stroke-linecap:round;stroke-linejoin:round;stroke-miterlimit:10;stroke-dasharray:none;stroke-opacity:1"
           id="path418" />
        <path
           d="m 3924,7898 -56,33"
           style="fill:none;stroke:#000000;stroke-width:17;stroke-linecap:round;stroke-linejoin:round;stroke-miterlimit:10;stroke-dasharray:none;stroke-opacity:1"
           id="path420" />
        <path
           d="M 6834,8128 4695,9363"
           style="fill:none;stroke:#000000;stroke-width:17;stroke-linecap:round;stroke-linejoin:round;stroke-miterlimit:10;stroke-dasharray:none;stroke-opacity:1"
           id="path422" />
      </g>
    </g>
  </g>
</svg>
