<svg xmlns="http://www.w3.org/2000/svg" width="500" height="500"><defs><clipPath id="a" clipPathUnits="userSpaceOnUse"><path d="M3534 6505h3623v3049H3534z"/></clipPath></defs><g clip-path="url(#a)" transform="matrix(.1357 0 0 -.1357 -475.407 1339.664)"><path d="M-31.926-27.766c3.385-2.426 7.195-4.453 11.313-6.019" style="fill:none;stroke:#000;stroke-width:17;stroke-linecap:round;stroke-linejoin:round;stroke-miterlimit:10;stroke-dasharray:none;stroke-opacity:1" transform="rotate(149.815 1117.091 4395.043)"/><path d="M4326 7651v-9" style="fill:none;stroke:#000;stroke-width:17;stroke-linecap:round;stroke-linejoin:round;stroke-miterlimit:10;stroke-dasharray:none;stroke-opacity:1"/><path d="M-31.666-27.206c3.414-2.347 7.252-4.301 11.394-5.803" style="fill:none;stroke:#000;stroke-width:17;stroke-linecap:round;stroke-linejoin:round;stroke-miterlimit:10;stroke-dasharray:none;stroke-opacity:1" transform="scale(-1)rotate(-30.773 -16015.89 3982.455)"/><path d="M-17.587-33.906c19.111-5.853 40.953-1.587 54.108 10.567" style="fill:none;stroke:#000;stroke-width:17;stroke-linecap:round;stroke-linejoin:round;stroke-miterlimit:10;stroke-dasharray:none;stroke-opacity:1" transform="scale(-1)rotate(-30.773 -15617.428 4572.924)"/><path d="M42.373 178.983C17.979 196.376-9.178 198.2-34.274 184.13" style="fill:none;stroke:#000;stroke-width:17;stroke-linecap:round;stroke-linejoin:round;stroke-miterlimit:10;stroke-dasharray:none;stroke-opacity:1" transform="rotate(-150.002 3230.268 3158.808)"/><path d="M-37.235-7.14c13.277-4.059 36.12-5.469 55.803-3.445" style="fill:none;stroke:#000;stroke-width:17;stroke-linecap:round;stroke-linejoin:round;stroke-miterlimit:10;stroke-dasharray:none;stroke-opacity:1" transform="rotate(-160.565 2910.69 3357.159)"/><path d="M106.101-59.48c12.868 69.127 2.34 144.938-27.259 196.305S5.56 206.462-34.274 184.131" style="fill:none;stroke:#000;stroke-width:17;stroke-linecap:round;stroke-linejoin:round;stroke-miterlimit:10;stroke-dasharray:none;stroke-opacity:1" transform="rotate(29.998 -11789.561 12056.383)"/><path d="m4336 7614 2 1 1 1 1 1 2 2 1 1 1 1 2 1 1 1h2l1 1 2 1 1 1h2l2 1 1 1h4l1 1h4l2 1h15l2-1h4l3-1h2l2-1 2-1 3-1h2l2-1 2-1 3-1 2-1 2-1 3-2 2-1 2-1 3-1 2-2 2-1 3-2 2-1 2-2 3-2 2-2 2-1 2-2 3-2 2-2 2-2 2-2 3-2 2-2 2-3 2-2 2-2 2-3 3-2 2-2 2-3 2-2 2-3 2-2 2-3 2-3 1-2 2-3 2-3 2-2 2-3 1-3 2-3 2-3 1-2 2-3 1-3 2-3 1-3 2-3 1-3 2-3 1-3 1-3 1-3 2-3 1-3 1-3" style="fill:none;stroke:#000;stroke-width:9;stroke-linecap:round;stroke-linejoin:round;stroke-miterlimit:10;stroke-dasharray:none;stroke-opacity:1"/><path d="M-17.252-34.007C1.95-39.76 23.788-35.34 36.813-23.066" style="fill:none;stroke:#000;stroke-width:17;stroke-linecap:round;stroke-linejoin:round;stroke-miterlimit:10;stroke-dasharray:none;stroke-opacity:1" transform="rotate(148.667 1239.066 4309.675)"/><path d="M-37.334-7.728c13.222-4.424 36.047-5.976 55.76-3.793" style="fill:none;stroke:#000;stroke-width:17;stroke-linecap:round;stroke-linejoin:round;stroke-miterlimit:10;stroke-dasharray:none;stroke-opacity:1" transform="rotate(-159.813 2935.951 3341.294)"/><path d="M4517 7495" style="fill:none;stroke:#000;stroke-width:17;stroke-linecap:round;stroke-linejoin:round;stroke-miterlimit:10;stroke-dasharray:none;stroke-opacity:1"/><path d="m4517 7495 1-4 2-4 1-3 1-4 2-3 1-4 1-3 1-4 1-3 1-4 1-3 1-3v-4l1-3v-3l1-4v-10l-1-3v-3l-1-3v-3l-1-3-1-4-1-2-1-3-1-3-1-3-2-3-1-2-1-3" style="fill:none;stroke:#000;stroke-width:9;stroke-linecap:round;stroke-linejoin:round;stroke-miterlimit:10;stroke-dasharray:none;stroke-opacity:1"/><path d="M4570 7366v144M4342 7669l-116 67 50 29 114-66M4226 7736v-62l33-19" style="fill:none;stroke:#000;stroke-width:17;stroke-linecap:round;stroke-linejoin:round;stroke-miterlimit:10;stroke-dasharray:none;stroke-opacity:1"/><path d="M-106.101 59.48C-117.063.596-111.133-63.836-90.15-113.87S-35.66-193.5 0-193.5" style="fill:none;stroke:#000;stroke-width:17;stroke-linecap:round;stroke-linejoin:round;stroke-miterlimit:10;stroke-dasharray:none;stroke-opacity:1" transform="rotate(-150.002 3278.698 3171.555)"/><path d="M4654 7558v-70l134-78v-61M4779 7695l-160 199" style="fill:none;stroke:#000;stroke-width:17;stroke-linecap:round;stroke-linejoin:round;stroke-miterlimit:10;stroke-dasharray:none;stroke-opacity:1"/><path d="M70.812 70.052c-18.348 55.906-56.11 83.281-91.908 66.625" style="fill:none;stroke:#000;stroke-width:17;stroke-linecap:round;stroke-linejoin:round;stroke-miterlimit:10;stroke-dasharray:none;stroke-opacity:1" transform="rotate(-150.002 3338.313 3394.056)"/><path d="M-78.722 36.627c-6.129-39.704-2.01-82.072 11.285-116.084s34.45-56.307 57.965-61.084" style="fill:none;stroke:#000;stroke-width:17;stroke-linecap:round;stroke-linejoin:round;stroke-miterlimit:10;stroke-dasharray:none;stroke-opacity:1" transform="rotate(-150.002 3218.95 2948.555)"/><path d="m4619 7119 160 14" style="fill:none;stroke:#000;stroke-width:17;stroke-linecap:round;stroke-linejoin:round;stroke-miterlimit:10;stroke-dasharray:none;stroke-opacity:1"/><path d="M-57.63-100.056c20.59-35.745 50.598-49.706 78.722-36.623 28.125 13.083 50.093 51.222 57.63 100.052" style="fill:none;stroke:#000;stroke-width:17;stroke-linecap:round;stroke-linejoin:round;stroke-miterlimit:10;stroke-dasharray:none;stroke-opacity:1" transform="rotate(-150.002 3389.969 2918.81)"/><path d="M4866 7257v214" style="fill:none;stroke:#000;stroke-width:17;stroke-linecap:round;stroke-linejoin:round;stroke-miterlimit:10;stroke-dasharray:none;stroke-opacity:1"/><path d="M21.096-136.677c28.125 13.085 50.092 51.226 57.627 100.056S78.218 64.31 57.63 100.056" style="fill:none;stroke:#000;stroke-width:17;stroke-linecap:round;stroke-linejoin:round;stroke-miterlimit:10;stroke-dasharray:none;stroke-opacity:1" transform="rotate(-150.002 3449.718 3141.81)"/><path d="m4788 7349-51-29-133 77M4788 7410l-51-28-133 77 50 29M4737 7320v62M4604 7397v62M4614 7391l-44-25M4654 7558l-84-48" style="fill:none;stroke:#000;stroke-width:17;stroke-linecap:round;stroke-linejoin:round;stroke-miterlimit:10;stroke-dasharray:none;stroke-opacity:1"/><path d="M21.096-136.677c28.125 13.085 50.092 51.226 57.627 100.056S78.218 64.31 57.63 100.056" style="fill:none;stroke:#000;stroke-width:17;stroke-linecap:round;stroke-linejoin:round;stroke-miterlimit:10;stroke-dasharray:none;stroke-opacity:1" transform="rotate(-150.002 3478.603 3149.613)"/><path d="m4829 7724-50-29M4866 7257l50 29v214l-50-29" style="fill:none;stroke:#000;stroke-width:17;stroke-linecap:round;stroke-linejoin:round;stroke-miterlimit:10;stroke-dasharray:none;stroke-opacity:1"/><path d="M28.813-132.362c24.542 16.104 43.118 51.736 49.91 95.735" style="fill:none;stroke:#000;stroke-width:17;stroke-linecap:round;stroke-linejoin:round;stroke-miterlimit:10;stroke-dasharray:none;stroke-opacity:1" transform="rotate(-150.002 3418.854 2926.612)"/><path d="m4829 7162-50-29" style="fill:none;stroke:#000;stroke-width:17;stroke-linecap:round;stroke-linejoin:round;stroke-miterlimit:10;stroke-dasharray:none;stroke-opacity:1"/><path d="M76.237 50.025c-9.276 42.61-29.799 74.861-55.14 86.652" style="fill:none;stroke:#000;stroke-width:17;stroke-linecap:round;stroke-linejoin:round;stroke-miterlimit:10;stroke-dasharray:none;stroke-opacity:1" transform="rotate(-150.002 3367.198 3401.857)"/><path d="m4829 7724-160 199-50-29M4623 7386l-78-45M4435 7725l-84-49" style="fill:none;stroke:#000;stroke-width:17;stroke-linecap:round;stroke-linejoin:round;stroke-miterlimit:10;stroke-dasharray:none;stroke-opacity:1"/><path d="m4827 7727 72 42v-258M4701 7884l198-115" style="fill:none;stroke:#000;stroke-width:17;stroke-linecap:round;stroke-linejoin:round;stroke-miterlimit:10;stroke-dasharray:none;stroke-opacity:1"/><path d="M0 472.5c-110.216 0-209.58-115.12-251.757-291.682-42.178-176.561-18.864-379.792 59.07-514.926" style="fill:none;stroke:#000;stroke-width:17;stroke-linecap:round;stroke-linejoin:round;stroke-miterlimit:10;stroke-dasharray:none;stroke-opacity:1" transform="rotate(-150.002 3045.35 3108.677)"/><path d="M192.687 334.108c-106.418 184.523-278.956 184.523-385.374 0-106.417-184.523-106.417-483.693 0-668.216" style="fill:none;stroke:#000;stroke-width:17;stroke-linecap:round;stroke-linejoin:round;stroke-miterlimit:10;stroke-dasharray:none;stroke-opacity:1" transform="rotate(-150.002 3012.563 3100.313)"/><path d="m4523 7398-66-199M4390 7629l-205 42M4364 6914l-57-33" style="fill:none;stroke:#000;stroke-width:17;stroke-linecap:round;stroke-linejoin:round;stroke-miterlimit:10;stroke-dasharray:none;stroke-opacity:1"/><path d="M24.801 826.383c-8.26.745-16.53 1.117-24.801 1.117" style="fill:none;stroke:#000;stroke-width:17;stroke-linecap:round;stroke-linejoin:round;stroke-miterlimit:10;stroke-dasharray:none;stroke-opacity:1" transform="rotate(150.002 1600.076 4731.672)"/><path d="m5037 7255-7-1h-7l-8-1-7-1h-8l-7-1-7-1h-7l-7-1h-15l-7-1h-21l-7-1h-73l-6 1h-25M4128 7709l-57-33v-21l-29-16v46l29 48M4582 7916v57l-50-29v-23l-386-223M4801 7944l-101-59" style="fill:none;stroke:#000;stroke-width:17;stroke-linecap:round;stroke-linejoin:round;stroke-miterlimit:10;stroke-dasharray:none;stroke-opacity:1"/><path d="M390.529-476.157c98.297 242.123 114.47 556.803 42.41 825.218" style="fill:none;stroke:#000;stroke-width:17;stroke-linecap:round;stroke-linejoin:round;stroke-miterlimit:10;stroke-dasharray:none;stroke-opacity:1" transform="rotate(150.002 1600.076 4731.672)"/><path d="m4071 7733 511 432 5 3 5 3 6 3 5 3 5 4 5 3 5 4 6 3 5 4 5 4 5 3 5 4 6 4 5 4 5 4 5 4 5 5 5 4 6 4 5 5 5 4 5 4 5 5 6 5 5 4 5 5 5 5 5 5 6 4 5 5 5 5 5 5 5 5 6 5 5 5 5 6 5 5 5 5 5 5 6 6 10 10 10 11 11 11 10 11 11 11 10 11 10 11 11 12 10 11 11 11 20 23 21 23 21 23 10 11 11 11 10 11 10 11 11 11 10 11 10 11 11 11 5 5 5 6 5 5 6 5 5 5 5 5 5 5 5 5 6 5 5 5 5 5 5 5 5 5 6 5 5 5 5 4 5 5 5 5 6 4 5 5 5 4 6 5 5 4 5 5 6 4 5 4 5 4 6 4 5 4 5 4 6 4 5 4 5 4 6 4 5 3 6 4 5 3 6 4 5 3 5 3v-145M4071 6848l-29 15M4582 7007l-173-54M4146 6871l-75-23M5224 7147l-5-2-5-3-6-2-5-3-5-2-6-2-5-2-5-2-5-2-6-2-5-2-5-2-5-2-6-1-5-2-5-2-5-1-6-2-5-1-5-1-5-1-5-2-5-1-6-1-5-1-5-1-5-1-5-1-5-1-5-1-6-1h-5l-10-2-10-1-10-1-10-1-10-1-10-1-10-1-10-1-9-1h-10l-20-2-39-2-19-1-10-1h-10l-10-1-10-1-9-1-10-1-10-1-10-1-10-1-9-1-10-2-5-1h-5l-5-1-5-1-5-1-4-1-5-1-5-1-5-1-5-1-5-1-5-2-5-1-5-1-5-2-5-1-5-1-5-2-5-1-5-2-5-2-5-2-5-1-5-2-5-2-5-2-5-2-5-2-5-3-5-2-5-2-5-3-5-2-6-3-5-3-5-2-5-3-5-3" style="fill:none;stroke:#000;stroke-width:17;stroke-linecap:round;stroke-linejoin:round;stroke-miterlimit:10;stroke-dasharray:none;stroke-opacity:1"/><path d="M4582 7183v-139l3 2 4 1 3 2 3 2 3 1 4 2 3 1 4 2 3 1 4 2 3 1 4 1 3 2 4 1 4 1 3 1 4 1 4 1 3 1 4 1 4 1 4 1 4 1 4 1 3 1h4l4 1 4 1 4 1h4l4 1h5l4 1 4 1h4l4 1h5l4 1h8l5 1h4l5 1h8l5 1h13l5 1h14l5 1h14l5 1h19l5 1h15l5 1h15l11 1h10l11 1h5l5 1h11l5 1h6l5 1h11l6 1h5l6 1h6l5 1 6 1h6l5 1 6 1h6l6 1 6 1 6 1 6 1h6l6 1 6 1 6 1 6 1 6 1 6 1 6 2 6 1 6 1 7 1 6 2 6 1 6 1 7 2 6 1 7 2 6 2 6 1 7 2 6 2 7 2 7 2 6 2 7 2 6 2 7 2 7 2 6 2M4461 7151l71 41v-23l41 24M4042 6863v47l29 16v-21" style="fill:none;stroke:#000;stroke-width:17;stroke-linecap:round;stroke-linejoin:round;stroke-miterlimit:10;stroke-dasharray:none;stroke-opacity:1"/><path d="M182.08-315.723c12.178 21.115 23.103 44.296 32.611 69.194M214.691 246.53c-9.508 24.897-20.433 48.078-32.611 69.193" style="fill:none;stroke:#000;stroke-width:17;stroke-linecap:round;stroke-linejoin:round;stroke-miterlimit:10;stroke-dasharray:none;stroke-opacity:1" transform="rotate(-150.002 3278.698 3171.555)"/><path d="M-16.48 445.585c-100.947-11.226-188.754-123.897-224.452-288.012-35.698-164.114-12.675-349.27 58.852-473.296" style="fill:none;stroke:#000;stroke-width:17;stroke-linecap:round;stroke-linejoin:round;stroke-miterlimit:10;stroke-dasharray:none;stroke-opacity:1" transform="rotate(29.998 -11571.244 11243.842)"/><path d="M4816 7234h47l7 1h28l7 1h7l7 1h15l7 1 7 1h7l8 1 7 1h7l8 1 7 1 8 1 7 1 7 1 8 1 8 2 7 1 8 1" style="fill:none;stroke:#000;stroke-width:9;stroke-linecap:round;stroke-linejoin:round;stroke-miterlimit:10;stroke-dasharray:none;stroke-opacity:1"/><path d="M182.08 315.723c-100.56 174.37-263.6 174.37-364.16 0-100.56-174.369-100.56-457.077 0-631.446" style="fill:none;stroke:#000;stroke-width:17;stroke-linecap:round;stroke-linejoin:round;stroke-miterlimit:10;stroke-dasharray:none;stroke-opacity:1" transform="rotate(29.998 -11554.02 11181.224)"/><path d="M205.415 356.028c-113.448 196.63-297.382 196.63-410.83 0-113.447-196.629-113.447-515.427 0-712.056" style="fill:none;stroke:#000;stroke-width:17;stroke-linecap:round;stroke-linejoin:round;stroke-miterlimit:10;stroke-dasharray:none;stroke-opacity:1" transform="rotate(29.998 -11554.02 11181.224)"/><path d="m4776 8982 6 6 5 6 6 6 5 7 170-99" style="fill:none;stroke:#000;stroke-width:17;stroke-linecap:round;stroke-linejoin:round;stroke-miterlimit:10;stroke-dasharray:none;stroke-opacity:1"/><path d="m4943 8890-12 7-13 7-13 7-12 7-13 7-13 7-25 15-26 14-13 7-13 7-13 7-12 6-13 7-13 7M4739 9002l4 3 3 3 4 3 4 3 3 2 4 3 4 3 3 2 4 3 4 2 3 3 4 2 4 2 4 3 3 2 4 2v-36M5250 8782l-252 145-3-2-3-2-4-2-3-2-4-2-3-2-4-3-3-2-4-2-3-3-4-2-3-3-4-2-3-3-3-2-4-3" style="fill:none;stroke:#000;stroke-width:17;stroke-linecap:round;stroke-linejoin:round;stroke-miterlimit:10;stroke-dasharray:none;stroke-opacity:1"/><path d="m4245 8209 3 1 2 2 3 2 2 1 3 2 2 2 3 2 2 1 3 2 2 2 3 2 2 2 2 2 3 3 2 2 2 2 2 2 3 2 2 3 2 2 2 3 2 2 3 2 2 3 2 3 2 2 2 3 2 3 2 2 2 3 2 3 2 3 2 3 2 2 2 3 2 3 4 6 3 7 4 6 4 6 3 7 4 7 3 6 3 7 4 7 3 8 3 7 3 7 3 8 4 7 3 8 3 8 2 8 3 8 3 8 3 8 3 8 3 8 2 9 3 8 3 8 2 9 3 9 2 8 3 9 2 9 3 8 2 9 3 9 2 9 5 18 5 18 4 18 5 19 9 36 10 37 4 18 5 18 5 18 5 18 2 9 2 9 3 9 2 9 3 9 2 8 3 9 3 9 2 8 3 9 3 8 2 8 3 9 3 8 3 8 2 8 3 8 3 8 3 7 3 8 3 8 3 7 4 8 3 7 3 7 3 7 4 7 3 7 4 7 3 6 4 7 3 6 4 6 4 6 2 3 2 3 2 3 2 3 2 3 2 2 2 3 2 3 2 3 2 2 2 3 2 2 2 3 2 2 2 3 3 2 2 3 2 2 2 2 3 3 2 2 2 2 2 2 3 2 2 2 3 2 2 2 2 2 3 2 2 2 3 1 2 2 3 2 2 1 3 2 3 2 132-77" style="fill:none;stroke:#000;stroke-width:17;stroke-linecap:round;stroke-linejoin:round;stroke-miterlimit:10;stroke-dasharray:none;stroke-opacity:1"/><path d="M-289.56-500.985c71.94-124.468 168.083-198.145 269.702-206.681" style="fill:none;stroke:#000;stroke-width:17;stroke-linecap:round;stroke-linejoin:round;stroke-miterlimit:10;stroke-dasharray:none;stroke-opacity:1" transform="rotate(-150.002 3307.584 3179.357)"/><path d="M220.97 382.898c-118.077 204.606-308.124 212.2-431.52 17.244" style="fill:none;stroke:#000;stroke-width:17;stroke-linecap:round;stroke-linejoin:round;stroke-miterlimit:10;stroke-dasharray:none;stroke-opacity:1" transform="rotate(29.998 -11571.244 11243.842)"/><path d="M-19.858-707.666c28.994-2.436 58.054.47 86.693 8.666" style="fill:none;stroke:#000;stroke-width:17;stroke-linecap:round;stroke-linejoin:round;stroke-miterlimit:10;stroke-dasharray:none;stroke-opacity:1" transform="rotate(-150.002 3307.584 3179.357)"/><path d="m3686 7498 2 34M3759 7728l415 430M4226 8199h1v1h1l1 1h1v1l1 1 1 1 1 1 2 1 1 1 1 1 2 2 1 1 2 2 2 1 1 2 2 2 2 2 2 2 2 2 2 3 2 2 2 3 3 2 2 3 2 3 2 3 3 3 2 3 3 3 2 3 2 4 3 3 2 4 3 3 2 4 3 3 2 4 3 4 2 4 3 4 2 4 3 4 2 4 3 4 2 4 3 4 2 4 3 4 2 5 2 4 3 4 2 5 3 4 2 4 2 5 3 4 2 5 2 4 2 5 3 4 2 5 2 4 2 5 3 5 2 4 2 5 2 5 2 4 2 5 2 5 2 4 3 5 2 5 2 5 2 4 2 5 2 5 1 5 2 4 2 5 2 5 2 5 2 5 2 4 2 5 1 5 2 5 2 5 2 5 3 9 4 10 3 10 3 9 3 10 3 10 4 10 3 9 3 10 2 10 3 10 3 9 3 10 2 10 3 9 3 10 2 10 3 9" style="fill:none;stroke:#000;stroke-width:17;stroke-linecap:round;stroke-linejoin:round;stroke-miterlimit:10;stroke-dasharray:none;stroke-opacity:1"/><path d="M337.643-585.13c186.476 323.158 186.476 847.102 0 1170.26-186.475 323.16-488.811 323.16-675.286 0-186.476-323.158-186.476-847.102 0-1170.26 186.475-323.16 488.811-323.16 675.286 0" style="fill:none;stroke:#000;stroke-width:17;stroke-linecap:round;stroke-linejoin:round;stroke-miterlimit:10;stroke-dasharray:none;stroke-opacity:1" transform="rotate(-29.998 17043.14 -8275.298)"/><path d="M0 827.5c-263.716 0-477.5-370.484-477.5-827.5S-263.716-827.5 0-827.5" style="fill:none;stroke:#000;stroke-width:17;stroke-linecap:round;stroke-linejoin:round;stroke-miterlimit:10;stroke-dasharray:none;stroke-opacity:1" transform="rotate(-29.998 18278.316 -3666.093)"/><path d="m6007 6696-1070 617M3924 7898l-56 33M6834 8128 4695 9363" style="fill:none;stroke:#000;stroke-width:17;stroke-linecap:round;stroke-linejoin:round;stroke-miterlimit:10;stroke-dasharray:none;stroke-opacity:1"/></g></svg>