<?xml version="1.0" encoding="utf-8"?>
<!-- Generator: Adobe Illustrator 22.1.0, SVG Export Plug-In . SVG Version: 6.00 Build 0)  -->
<svg version="1.1" xmlns="http://www.w3.org/2000/svg" xmlns:xlink="http://www.w3.org/1999/xlink" x="0px" y="0px"
	 viewBox="0 0 1012 205.3" style="enable-background:new 0 0 1012 205.3;" xml:space="preserve">
<style type="text/css">
	.st0{fill:#0068A8;}
</style>
<g id="Layer_1">
</g>
<g id="Layer_4">
	<g>
		<path class="st0" d="M386,14.3v27.2h-77.8v31.6h71.4v25.2h-71.4v36.1h79.5v27.2H275.8V14.3H386z"/>
		<path class="st0" d="M493.5,53.6c-1.9-3.1-4.3-5.8-7.2-8.2c-2.9-2.3-6.2-4.2-9.8-5.5c-3.6-1.3-7.5-2-11.5-2
			c-7.3,0-13.5,1.4-18.6,4.2c-5.1,2.8-9.2,6.6-12.4,11.4c-3.2,4.7-5.5,10.1-6.9,16.2c-1.4,6.1-2.2,12.3-2.2,18.8
			c0,6.2,0.7,12.2,2.2,18.1c1.4,5.9,3.7,11.1,6.9,15.8c3.2,4.7,7.3,8.4,12.4,11.2c5.1,2.8,11.3,4.2,18.6,4.2c9.9,0,17.6-3,23.2-9.1
			c5.6-6.1,9-14,10.2-23.9h31.4c-0.8,9.2-3,17.5-6.4,25c-3.4,7.4-8,13.8-13.6,19c-5.6,5.2-12.2,9.2-19.8,12
			c-7.6,2.7-15.9,4.1-25,4.1c-11.3,0-21.4-2-30.4-5.9c-9-3.9-16.6-9.3-22.8-16.2c-6.2-6.9-10.9-15-14.2-24.2c-3.3-9.3-5-19.3-5-30
			c0-11,1.7-21.2,5-30.6c3.3-9.4,8-17.6,14.2-24.7c6.2-7,13.8-12.5,22.8-16.5c9-4,19.2-6,30.4-6c8.1,0,15.8,1.2,23,3.5
			c7.2,2.3,13.7,5.7,19.4,10.2c5.7,4.5,10.4,10,14.1,16.6c3.7,6.6,6.1,14.2,7,22.7h-31.4C496.6,60.1,495.4,56.7,493.5,53.6z"/>
		<path class="st0" d="M588.3,14.3l34.5,101.3h0.4l32.6-101.3h45.6v147.4h-30.3V57.3h-0.4l-36.1,104.4h-25L573.5,58.3h-0.4v103.4
			h-30.3V14.3H588.3z"/>
		<path class="st0" d="M829.8,161.7l-25-100.3h-0.4l-24.6,100.3h-32.8l-39-147.4h32.4l23.3,100.3h0.4l25.6-100.3h30.3l25.2,101.5
			h0.4l24.1-101.5h31.8L862,161.7H829.8z"/>
		<path class="st0" d="M1011.9,14.3v27.2h-71.2v34.1h61.7v25.2h-61.7v60.9h-32.4V14.3H1011.9z"/>
	</g>
	<g>
		<path class="st0" d="M275.4,188.4h11.9v2.5h-9v4.3h8.3v2.4h-8.3v4.8h9.2v2.5h-12.1V188.4z"/>
		<path class="st0" d="M289.8,188.4h2.9v9.6c0,0.6,0,1.1,0.1,1.7c0.1,0.6,0.2,1.1,0.5,1.5c0.3,0.5,0.6,0.8,1.2,1.1
			c0.5,0.3,1.2,0.4,2.2,0.4c0.9,0,1.7-0.1,2.2-0.4c0.5-0.3,0.9-0.7,1.2-1.1c0.3-0.5,0.4-1,0.5-1.5c0.1-0.6,0.1-1.1,0.1-1.7v-9.6h2.9
			V199c0,1.1-0.2,2-0.5,2.8c-0.3,0.8-0.8,1.4-1.4,2c-0.6,0.5-1.3,0.9-2.1,1.2c-0.8,0.3-1.8,0.4-2.8,0.4c-1,0-1.9-0.1-2.8-0.4
			c-0.8-0.3-1.5-0.7-2.1-1.2c-0.6-0.5-1.1-1.2-1.4-2c-0.3-0.8-0.5-1.7-0.5-2.8V188.4z"/>
		<path class="st0" d="M306.8,188.4h7.9c1.8,0,3.2,0.4,4.1,1.2c0.9,0.8,1.4,1.9,1.4,3.3c0,0.8-0.1,1.4-0.3,2
			c-0.2,0.5-0.5,0.9-0.8,1.3s-0.6,0.5-0.9,0.7c-0.3,0.1-0.5,0.2-0.7,0.3v0c0.2,0,0.5,0.1,0.8,0.2c0.3,0.1,0.6,0.3,0.8,0.6
			c0.2,0.3,0.5,0.6,0.6,1.1c0.2,0.4,0.2,1,0.2,1.6c0,1,0.1,1.9,0.2,2.7c0.1,0.8,0.4,1.4,0.7,1.7h-3.1c-0.2-0.4-0.3-0.7-0.4-1.2
			c0-0.4-0.1-0.8-0.1-1.3c0-0.8,0-1.4-0.1-2c-0.1-0.5-0.3-1-0.5-1.4c-0.2-0.4-0.6-0.6-1-0.8c-0.4-0.2-1-0.3-1.6-0.3h-4.3v6.8h-2.9
			V188.4z M309.7,195.9h4.7c0.9,0,1.6-0.2,2.1-0.7c0.5-0.4,0.7-1.1,0.7-2c0-0.5-0.1-1-0.2-1.3c-0.2-0.3-0.4-0.6-0.6-0.8
			c-0.3-0.2-0.6-0.3-0.9-0.4c-0.3-0.1-0.7-0.1-1.1-0.1h-4.7V195.9z"/>
		<path class="st0" d="M330.2,188c1.2,0,2.3,0.2,3.3,0.7c1,0.5,1.8,1.1,2.5,1.9c0.7,0.8,1.2,1.7,1.6,2.8c0.4,1,0.5,2.2,0.5,3.3
			c0,1.2-0.2,2.3-0.5,3.4c-0.4,1.1-0.9,2-1.6,2.8c-0.7,0.8-1.5,1.4-2.5,1.9c-1,0.5-2.1,0.7-3.3,0.7s-2.3-0.2-3.3-0.7
			c-1-0.5-1.8-1.1-2.5-1.9c-0.7-0.8-1.2-1.7-1.6-2.8c-0.4-1.1-0.5-2.2-0.5-3.4c0-1.2,0.2-2.3,0.5-3.3c0.4-1.1,0.9-2,1.6-2.8
			c0.7-0.8,1.5-1.4,2.5-1.9C327.8,188.2,328.9,188,330.2,188z M330.2,190.3c-0.9,0-1.6,0.2-2.3,0.5c-0.6,0.4-1.2,0.8-1.6,1.4
			c-0.4,0.6-0.7,1.3-0.9,2c-0.2,0.8-0.3,1.5-0.3,2.3c0,0.8,0.1,1.6,0.3,2.3c0.2,0.8,0.5,1.4,0.9,2c0.4,0.6,0.9,1.1,1.6,1.4
			c0.6,0.4,1.4,0.5,2.3,0.5c0.9,0,1.6-0.2,2.3-0.5c0.6-0.4,1.2-0.8,1.6-1.4c0.4-0.6,0.7-1.3,0.9-2c0.2-0.8,0.3-1.5,0.3-2.3
			c0-0.8-0.1-1.6-0.3-2.3c-0.2-0.8-0.5-1.4-0.9-2c-0.4-0.6-0.9-1.1-1.6-1.4C331.8,190.5,331.1,190.3,330.2,190.3z"/>
		<path class="st0" d="M340.8,188.4h7.3c1.2,0,2.1,0.2,2.9,0.5c0.7,0.3,1.3,0.8,1.7,1.3c0.4,0.5,0.7,1.1,0.8,1.7
			c0.1,0.6,0.2,1.2,0.2,1.7c0,0.5-0.1,1.1-0.2,1.7c-0.1,0.6-0.4,1.1-0.8,1.7c-0.4,0.5-1,0.9-1.7,1.3c-0.7,0.3-1.7,0.5-2.9,0.5h-4.4
			v6.3h-2.9V188.4z M343.7,196.2h4.2c0.3,0,0.7,0,1-0.1c0.3-0.1,0.7-0.2,0.9-0.5c0.3-0.2,0.5-0.5,0.7-0.8c0.2-0.3,0.3-0.8,0.3-1.3
			c0-0.5-0.1-1-0.2-1.3c-0.2-0.4-0.4-0.6-0.6-0.8c-0.3-0.2-0.6-0.4-0.9-0.4c-0.3-0.1-0.7-0.1-1.1-0.1h-4.3V196.2z"/>
		<path class="st0" d="M356,188.4h11.9v2.5h-9v4.3h8.3v2.4h-8.3v4.8h9.2v2.5H356V188.4z"/>
		<path class="st0" d="M375.7,188.4h3.1l6.4,16.5H382l-1.6-4.4h-6.6l-1.6,4.4h-3L375.7,188.4z M374.6,198.3h5l-2.5-7.1h-0.1
			L374.6,198.3z"/>
		<path class="st0" d="M386.8,188.4h3.1l7.6,12.2h0v-12.2h2.8v16.5h-3.1l-7.5-12.2h-0.1v12.2h-2.8V188.4z"/>
		<path class="st0" d="M421.2,193.6c-0.1-0.5-0.3-0.9-0.5-1.3c-0.2-0.4-0.5-0.7-0.8-1c-0.3-0.3-0.7-0.5-1.2-0.7
			c-0.5-0.2-1-0.2-1.6-0.2c-0.9,0-1.6,0.2-2.3,0.5c-0.6,0.4-1.2,0.8-1.6,1.4c-0.4,0.6-0.7,1.3-0.9,2c-0.2,0.8-0.3,1.5-0.3,2.3
			c0,0.8,0.1,1.6,0.3,2.3c0.2,0.8,0.5,1.4,0.9,2c0.4,0.6,0.9,1.1,1.6,1.4c0.6,0.4,1.4,0.5,2.3,0.5c0.6,0,1.2-0.1,1.7-0.3
			c0.5-0.2,0.9-0.5,1.3-0.9c0.4-0.4,0.6-0.9,0.8-1.4c0.2-0.5,0.3-1.1,0.4-1.7h2.8c-0.1,1-0.3,1.9-0.6,2.7c-0.4,0.8-0.9,1.5-1.5,2.1
			c-0.6,0.6-1.3,1.1-2.2,1.4c-0.8,0.3-1.8,0.5-2.8,0.5c-1.2,0-2.3-0.2-3.3-0.7c-1-0.5-1.8-1.1-2.5-1.9c-0.7-0.8-1.2-1.7-1.6-2.8
			c-0.4-1.1-0.5-2.2-0.5-3.4c0-1.2,0.2-2.3,0.5-3.3c0.4-1.1,0.9-2,1.6-2.8c0.7-0.8,1.5-1.4,2.5-1.9c1-0.5,2.1-0.7,3.3-0.7
			c0.9,0,1.8,0.1,2.6,0.4c0.8,0.3,1.5,0.6,2.2,1.1c0.6,0.5,1.1,1.1,1.5,1.8c0.4,0.7,0.6,1.5,0.7,2.4H421.2z"/>
		<path class="st0" d="M426.9,188.4h11.9v2.5h-9v4.3h8.3v2.4h-8.3v4.8h9.2v2.5h-12.1V188.4z"/>
		<path class="st0" d="M441.5,188.4h3.1l7.6,12.2h0v-12.2h2.8v16.5h-3.1l-7.5-12.2h-0.1v12.2h-2.8V188.4z"/>
		<path class="st0" d="M456.8,188.4h13.4v2.5h-5.3v14H462v-14h-5.2V188.4z"/>
		<path class="st0" d="M472.1,188.4h7.9c1.8,0,3.2,0.4,4.1,1.2c0.9,0.8,1.4,1.9,1.4,3.3c0,0.8-0.1,1.4-0.3,2
			c-0.2,0.5-0.5,0.9-0.8,1.3c-0.3,0.3-0.6,0.5-0.9,0.7c-0.3,0.1-0.5,0.2-0.7,0.3v0c0.2,0,0.5,0.1,0.8,0.2c0.3,0.1,0.6,0.3,0.8,0.6
			c0.2,0.3,0.5,0.6,0.6,1.1c0.2,0.4,0.2,1,0.2,1.6c0,1,0.1,1.9,0.2,2.7c0.1,0.8,0.4,1.4,0.7,1.7H483c-0.2-0.4-0.3-0.7-0.4-1.2
			c0-0.4-0.1-0.8-0.1-1.3c0-0.8,0-1.4-0.1-2c-0.1-0.5-0.3-1-0.5-1.4c-0.2-0.4-0.6-0.6-1-0.8c-0.4-0.2-1-0.3-1.6-0.3H475v6.8h-2.9
			V188.4z M475,195.9h4.7c0.9,0,1.6-0.2,2.1-0.7c0.5-0.4,0.7-1.1,0.7-2c0-0.5-0.1-1-0.2-1.3c-0.2-0.3-0.4-0.6-0.6-0.8
			c-0.3-0.2-0.6-0.3-0.9-0.4c-0.3-0.1-0.7-0.1-1.1-0.1H475V195.9z"/>
		<path class="st0" d="M488.6,188.4h11.9v2.5h-9v4.3h8.3v2.4h-8.3v4.8h9.2v2.5h-12.1V188.4z"/>
		<path class="st0" d="M509.6,188.4h11.4v2.5h-8.5v4.3h7.5v2.4h-7.5v7.3h-2.9V188.4z"/>
		<path class="st0" d="M530.2,188c1.2,0,2.3,0.2,3.3,0.7c1,0.5,1.8,1.1,2.5,1.9c0.7,0.8,1.2,1.7,1.6,2.8c0.4,1,0.5,2.2,0.5,3.3
			c0,1.2-0.2,2.3-0.5,3.4c-0.4,1.1-0.9,2-1.6,2.8c-0.7,0.8-1.5,1.4-2.5,1.9c-1,0.5-2.1,0.7-3.3,0.7c-1.2,0-2.3-0.2-3.3-0.7
			c-1-0.5-1.8-1.1-2.5-1.9c-0.7-0.8-1.2-1.7-1.6-2.8c-0.4-1.1-0.5-2.2-0.5-3.4c0-1.2,0.2-2.3,0.5-3.3c0.4-1.1,0.9-2,1.6-2.8
			c0.7-0.8,1.5-1.4,2.5-1.9C527.8,188.2,528.9,188,530.2,188z M530.2,190.3c-0.9,0-1.6,0.2-2.3,0.5c-0.6,0.4-1.2,0.8-1.6,1.4
			c-0.4,0.6-0.7,1.3-0.9,2c-0.2,0.8-0.3,1.5-0.3,2.3c0,0.8,0.1,1.6,0.3,2.3c0.2,0.8,0.5,1.4,0.9,2c0.4,0.6,0.9,1.1,1.6,1.4
			c0.6,0.4,1.4,0.5,2.3,0.5c0.9,0,1.6-0.2,2.3-0.5c0.6-0.4,1.2-0.8,1.6-1.4c0.4-0.6,0.7-1.3,0.9-2c0.2-0.8,0.3-1.5,0.3-2.3
			c0-0.8-0.1-1.6-0.3-2.3c-0.2-0.8-0.5-1.4-0.9-2c-0.4-0.6-0.9-1.1-1.6-1.4C531.8,190.5,531,190.3,530.2,190.3z"/>
		<path class="st0" d="M540.8,188.4h7.9c1.8,0,3.2,0.4,4.1,1.2c0.9,0.8,1.4,1.9,1.4,3.3c0,0.8-0.1,1.4-0.3,2
			c-0.2,0.5-0.5,0.9-0.8,1.3c-0.3,0.3-0.6,0.5-0.9,0.7c-0.3,0.1-0.5,0.2-0.7,0.3v0c0.2,0,0.5,0.1,0.8,0.2c0.3,0.1,0.6,0.3,0.8,0.6
			c0.2,0.3,0.5,0.6,0.6,1.1c0.2,0.4,0.2,1,0.2,1.6c0,1,0.1,1.9,0.2,2.7c0.1,0.8,0.4,1.4,0.7,1.7h-3.1c-0.2-0.4-0.3-0.7-0.4-1.2
			c0-0.4-0.1-0.8-0.1-1.3c0-0.8,0-1.4-0.1-2c-0.1-0.5-0.3-1-0.5-1.4c-0.2-0.4-0.6-0.6-1-0.8c-0.4-0.2-1-0.3-1.6-0.3h-4.3v6.8h-2.9
			V188.4z M543.7,195.9h4.7c0.9,0,1.6-0.2,2.1-0.7c0.5-0.4,0.7-1.1,0.7-2c0-0.5-0.1-1-0.2-1.3c-0.2-0.3-0.4-0.6-0.6-0.8
			c-0.3-0.2-0.6-0.3-0.9-0.4c-0.3-0.1-0.7-0.1-1.1-0.1h-4.7V195.9z"/>
		<path class="st0" d="M563.5,188.4h4.1l4.6,12.9h0l4.4-12.9h4v16.5h-2.8v-12.8h0l-4.6,12.8h-2.4l-4.6-12.8h0v12.8h-2.8V188.4z"/>
		<path class="st0" d="M584.2,188.4h11.9v2.5h-9v4.3h8.3v2.4h-8.3v4.8h9.2v2.5h-12.1V188.4z"/>
		<path class="st0" d="M598.9,188.4h6.9c1.3,0,2.4,0.2,3.3,0.6c0.9,0.4,1.7,1,2.3,1.8c0.6,0.7,1,1.6,1.3,2.6c0.3,1,0.4,2.1,0.4,3.2
			s-0.1,2.2-0.4,3.2c-0.3,1-0.7,1.9-1.3,2.6c-0.6,0.7-1.3,1.3-2.3,1.8c-0.9,0.4-2,0.6-3.3,0.6h-6.9V188.4z M601.8,202.5h2.9
			c1.1,0,2-0.2,2.8-0.5c0.7-0.3,1.3-0.7,1.7-1.3c0.4-0.5,0.7-1.2,0.8-1.9c0.1-0.7,0.2-1.5,0.2-2.3c0-0.8-0.1-1.6-0.2-2.3
			c-0.1-0.7-0.4-1.3-0.8-1.9c-0.4-0.5-1-0.9-1.7-1.3c-0.7-0.3-1.6-0.5-2.8-0.5h-2.9V202.5z"/>
		<path class="st0" d="M615.8,188.4h2.9v16.5h-2.9V188.4z"/>
		<path class="st0" d="M622.1,188.4h2.9v9.6c0,0.6,0,1.1,0.1,1.7c0.1,0.6,0.2,1.1,0.5,1.5c0.3,0.5,0.6,0.8,1.2,1.1
			c0.5,0.3,1.2,0.4,2.2,0.4c0.9,0,1.7-0.1,2.2-0.4c0.5-0.3,0.9-0.7,1.2-1.1c0.3-0.5,0.4-1,0.5-1.5c0.1-0.6,0.1-1.1,0.1-1.7v-9.6h2.9
			V199c0,1.1-0.2,2-0.5,2.8c-0.3,0.8-0.8,1.4-1.4,2c-0.6,0.5-1.3,0.9-2.1,1.2c-0.8,0.3-1.8,0.4-2.8,0.4c-1,0-1.9-0.1-2.8-0.4
			c-0.8-0.3-1.5-0.7-2.1-1.2c-0.6-0.5-1.1-1.2-1.4-2c-0.3-0.8-0.5-1.7-0.5-2.8V188.4z"/>
		<path class="st0" d="M639.1,188.4h4.1l4.6,12.9h0l4.4-12.9h4v16.5h-2.8v-12.8h0l-4.6,12.8h-2.4l-4.6-12.8h0v12.8h-2.8V188.4z"/>
		<path class="st0" d="M659.5,197.4h6.7v2.5h-6.7V197.4z"/>
		<path class="st0" d="M669.4,188.4h7.9c1.8,0,3.2,0.4,4.1,1.2c0.9,0.8,1.4,1.9,1.4,3.3c0,0.8-0.1,1.4-0.3,2
			c-0.2,0.5-0.5,0.9-0.8,1.3s-0.6,0.5-0.9,0.7c-0.3,0.1-0.5,0.2-0.7,0.3v0c0.2,0,0.5,0.1,0.8,0.2c0.3,0.1,0.6,0.3,0.8,0.6
			c0.2,0.3,0.5,0.6,0.6,1.1c0.2,0.4,0.2,1,0.2,1.6c0,1,0.1,1.9,0.2,2.7c0.1,0.8,0.4,1.4,0.7,1.7h-3.1c-0.2-0.4-0.3-0.7-0.4-1.2
			c0-0.4-0.1-0.8-0.1-1.3c0-0.8,0-1.4-0.1-2c-0.1-0.5-0.3-1-0.5-1.4c-0.2-0.4-0.6-0.6-1-0.8c-0.4-0.2-1-0.3-1.6-0.3h-4.3v6.8h-2.9
			V188.4z M672.3,195.9h4.7c0.9,0,1.6-0.2,2.1-0.7c0.5-0.4,0.7-1.1,0.7-2c0-0.5-0.1-1-0.2-1.3c-0.2-0.3-0.4-0.6-0.6-0.8
			c-0.3-0.2-0.6-0.3-0.9-0.4c-0.3-0.1-0.7-0.1-1.1-0.1h-4.7V195.9z"/>
		<path class="st0" d="M690.9,188.4h3.1l6.4,16.5h-3.1l-1.6-4.4h-6.6l-1.6,4.4h-3L690.9,188.4z M689.9,198.3h5l-2.5-7.1h-0.1
			L689.9,198.3z"/>
		<path class="st0" d="M702.1,188.4h3.1l7.6,12.2h0v-12.2h2.8v16.5h-3.1l-7.5-12.2h-0.1v12.2h-2.8V188.4z"/>
		<path class="st0" d="M733.4,204.9h-1.9l-0.4-1.9c-0.8,0.9-1.5,1.5-2.3,1.8c-0.8,0.3-1.7,0.5-2.7,0.5c-1.2,0-2.3-0.2-3.3-0.7
			c-1-0.5-1.8-1.1-2.5-1.9c-0.7-0.8-1.2-1.7-1.6-2.8c-0.4-1.1-0.5-2.2-0.5-3.4c0-1.2,0.2-2.3,0.5-3.3c0.4-1.1,0.9-2,1.6-2.8
			c0.7-0.8,1.5-1.4,2.5-1.9c1-0.5,2.1-0.7,3.3-0.7c0.9,0,1.7,0.1,2.6,0.4c0.8,0.2,1.5,0.6,2.2,1.1c0.6,0.5,1.2,1.1,1.6,1.8
			c0.4,0.7,0.7,1.5,0.8,2.5h-2.8c-0.1-0.5-0.2-1-0.5-1.4c-0.3-0.4-0.6-0.8-1-1c-0.4-0.3-0.8-0.5-1.3-0.6c-0.5-0.1-1-0.2-1.5-0.2
			c-0.9,0-1.6,0.2-2.3,0.5c-0.6,0.4-1.2,0.8-1.6,1.4c-0.4,0.6-0.7,1.3-0.9,2c-0.2,0.8-0.3,1.5-0.3,2.3c0,0.8,0.1,1.6,0.3,2.3
			c0.2,0.8,0.5,1.4,0.9,2c0.4,0.6,0.9,1.1,1.6,1.4c0.6,0.4,1.4,0.5,2.3,0.5c0.7,0,1.4-0.1,2-0.3c0.6-0.2,1.1-0.5,1.4-0.9
			c0.4-0.4,0.7-0.9,0.9-1.4c0.2-0.6,0.3-1.2,0.3-1.9h-4.4v-2.2h7V204.9z"/>
		<path class="st0" d="M736.7,188.4h11.9v2.5h-9v4.3h8.3v2.4h-8.3v4.8h9.2v2.5h-12.1V188.4z"/>
		<path class="st0" d="M756.1,188.4h2.9l3,12.6h0l3.3-12.6h3l3.2,12.6h0l3.1-12.6h2.9l-4.6,16.5h-2.9l-3.3-12.6h0l-3.4,12.6h-3
			L756.1,188.4z"/>
		<path class="st0" d="M779.6,188.4h11.9v2.5h-9v4.3h8.3v2.4h-8.3v4.8h9.2v2.5h-12.1V188.4z"/>
		<path class="st0" d="M799.3,188.4h3.1l6.4,16.5h-3.1l-1.6-4.4h-6.6l-1.6,4.4h-3L799.3,188.4z M798.3,198.3h5l-2.5-7.1h-0.1
			L798.3,198.3z"/>
		<path class="st0" d="M807.1,188.4h13.4v2.5h-5.3v14h-2.9v-14h-5.2V188.4z"/>
		<path class="st0" d="M822.4,188.4h2.9v6.6h7.5v-6.6h2.9v16.5h-2.9v-7.5h-7.5v7.5h-2.9V188.4z"/>
		<path class="st0" d="M839.3,188.4h11.9v2.5h-9v4.3h8.3v2.4h-8.3v4.8h9.2v2.5h-12.1V188.4z"/>
		<path class="st0" d="M854,188.4h7.9c1.8,0,3.2,0.4,4.1,1.2s1.4,1.9,1.4,3.3c0,0.8-0.1,1.4-0.3,2c-0.2,0.5-0.5,0.9-0.8,1.3
			c-0.3,0.3-0.6,0.5-0.9,0.7c-0.3,0.1-0.5,0.2-0.7,0.3v0c0.2,0,0.5,0.1,0.8,0.2c0.3,0.1,0.6,0.3,0.8,0.6c0.2,0.3,0.5,0.6,0.6,1.1
			c0.2,0.4,0.2,1,0.2,1.6c0,1,0.1,1.9,0.2,2.7c0.1,0.8,0.4,1.4,0.7,1.7h-3.1c-0.2-0.4-0.3-0.7-0.4-1.2c0-0.4-0.1-0.8-0.1-1.3
			c0-0.8,0-1.4-0.1-2c-0.1-0.5-0.3-1-0.5-1.4c-0.2-0.4-0.6-0.6-1-0.8c-0.4-0.2-1-0.3-1.6-0.3h-4.3v6.8H854V188.4z M856.9,195.9h4.7
			c0.9,0,1.6-0.2,2.1-0.7c0.5-0.4,0.7-1.1,0.7-2c0-0.5-0.1-1-0.2-1.3c-0.2-0.3-0.4-0.6-0.6-0.8c-0.3-0.2-0.6-0.3-0.9-0.4
			c-0.3-0.1-0.7-0.1-1.1-0.1h-4.7V195.9z"/>
		<path class="st0" d="M876.7,188.4h11.4v2.5h-8.5v4.3h7.5v2.4h-7.5v7.3h-2.9V188.4z"/>
		<path class="st0" d="M897.2,188c1.2,0,2.3,0.2,3.3,0.7c1,0.5,1.8,1.1,2.5,1.9c0.7,0.8,1.2,1.7,1.6,2.8c0.4,1,0.5,2.2,0.5,3.3
			c0,1.2-0.2,2.3-0.5,3.4c-0.4,1.1-0.9,2-1.6,2.8c-0.7,0.8-1.5,1.4-2.5,1.9c-1,0.5-2.1,0.7-3.3,0.7s-2.3-0.2-3.3-0.7
			c-1-0.5-1.8-1.1-2.5-1.9c-0.7-0.8-1.2-1.7-1.6-2.8c-0.4-1.1-0.5-2.2-0.5-3.4c0-1.2,0.2-2.3,0.5-3.3c0.4-1.1,0.9-2,1.6-2.8
			c0.7-0.8,1.5-1.4,2.5-1.9C894.9,188.2,896,188,897.2,188z M897.2,190.3c-0.9,0-1.6,0.2-2.3,0.5c-0.6,0.4-1.2,0.8-1.6,1.4
			c-0.4,0.6-0.7,1.3-0.9,2c-0.2,0.8-0.3,1.5-0.3,2.3c0,0.8,0.1,1.6,0.3,2.3c0.2,0.8,0.5,1.4,0.9,2c0.4,0.6,0.9,1.1,1.6,1.4
			c0.6,0.4,1.4,0.5,2.3,0.5c0.9,0,1.6-0.2,2.3-0.5c0.6-0.4,1.2-0.8,1.6-1.4c0.4-0.6,0.7-1.3,0.9-2c0.2-0.8,0.3-1.5,0.3-2.3
			c0-0.8-0.1-1.6-0.3-2.3c-0.2-0.8-0.5-1.4-0.9-2c-0.4-0.6-0.9-1.1-1.6-1.4C898.9,190.5,898.1,190.3,897.2,190.3z"/>
		<path class="st0" d="M907.9,188.4h7.9c1.8,0,3.2,0.4,4.1,1.2s1.4,1.9,1.4,3.3c0,0.8-0.1,1.4-0.3,2c-0.2,0.5-0.5,0.9-0.8,1.3
			c-0.3,0.3-0.6,0.5-0.9,0.7c-0.3,0.1-0.5,0.2-0.7,0.3v0c0.2,0,0.5,0.1,0.8,0.2c0.3,0.1,0.6,0.3,0.8,0.6c0.2,0.3,0.5,0.6,0.6,1.1
			c0.2,0.4,0.2,1,0.2,1.6c0,1,0.1,1.9,0.2,2.7c0.1,0.8,0.4,1.4,0.7,1.7h-3.1c-0.2-0.4-0.3-0.7-0.4-1.2c0-0.4-0.1-0.8-0.1-1.3
			c0-0.8,0-1.4-0.1-2c-0.1-0.5-0.3-1-0.5-1.4c-0.2-0.4-0.6-0.6-1-0.8c-0.4-0.2-1-0.3-1.6-0.3h-4.3v6.8h-2.9V188.4z M910.8,195.9h4.7
			c0.9,0,1.6-0.2,2.1-0.7c0.5-0.4,0.7-1.1,0.7-2c0-0.5-0.1-1-0.2-1.3c-0.2-0.3-0.4-0.6-0.6-0.8c-0.3-0.2-0.6-0.3-0.9-0.4
			c-0.3-0.1-0.7-0.1-1.1-0.1h-4.7V195.9z"/>
		<path class="st0" d="M924.4,188.4h11.9v2.5h-9v4.3h8.3v2.4h-8.3v4.8h9.2v2.5h-12.1V188.4z"/>
		<path class="st0" d="M949.9,193.6c-0.1-0.5-0.3-0.9-0.5-1.3c-0.2-0.4-0.5-0.7-0.8-1c-0.3-0.3-0.7-0.5-1.2-0.7
			c-0.5-0.2-1-0.2-1.6-0.2c-0.9,0-1.6,0.2-2.3,0.5c-0.6,0.4-1.2,0.8-1.6,1.4c-0.4,0.6-0.7,1.3-0.9,2c-0.2,0.8-0.3,1.5-0.3,2.3
			c0,0.8,0.1,1.6,0.3,2.3c0.2,0.8,0.5,1.4,0.9,2c0.4,0.6,0.9,1.1,1.6,1.4c0.6,0.4,1.4,0.5,2.3,0.5c0.6,0,1.2-0.1,1.7-0.3
			c0.5-0.2,0.9-0.5,1.3-0.9c0.4-0.4,0.6-0.9,0.8-1.4c0.2-0.5,0.3-1.1,0.4-1.7h2.8c-0.1,1-0.3,1.9-0.6,2.7c-0.4,0.8-0.9,1.5-1.5,2.1
			c-0.6,0.6-1.3,1.1-2.2,1.4c-0.8,0.3-1.8,0.5-2.8,0.5c-1.2,0-2.3-0.2-3.3-0.7c-1-0.5-1.8-1.1-2.5-1.9c-0.7-0.8-1.2-1.7-1.6-2.8
			c-0.4-1.1-0.5-2.2-0.5-3.4c0-1.2,0.2-2.3,0.5-3.3c0.4-1.1,0.9-2,1.6-2.8c0.7-0.8,1.5-1.4,2.5-1.9c1-0.5,2.1-0.7,3.3-0.7
			c0.9,0,1.8,0.1,2.6,0.4c0.8,0.3,1.5,0.6,2.2,1.1c0.6,0.5,1.1,1.1,1.5,1.8c0.4,0.7,0.6,1.5,0.7,2.4H949.9z"/>
		<path class="st0" d="M959.6,188.4h3.1l6.4,16.5H966l-1.6-4.4h-6.6l-1.6,4.4h-3L959.6,188.4z M958.6,198.3h5l-2.5-7.1h-0.1
			L958.6,198.3z"/>
		<path class="st0" d="M972.5,199.4c0,0.6,0.1,1.2,0.3,1.6c0.2,0.4,0.5,0.8,0.9,1.1c0.4,0.3,0.8,0.5,1.3,0.6s1,0.2,1.6,0.2
			c0.6,0,1.2-0.1,1.6-0.2c0.4-0.1,0.8-0.3,1.1-0.6c0.3-0.2,0.5-0.5,0.6-0.8s0.2-0.6,0.2-0.9c0-0.6-0.1-1.1-0.4-1.4
			c-0.3-0.3-0.6-0.5-0.9-0.6c-0.6-0.2-1.3-0.4-2.1-0.6c-0.8-0.2-1.7-0.4-2.9-0.8c-0.7-0.2-1.3-0.4-1.8-0.7c-0.5-0.3-0.8-0.6-1.1-1
			c-0.3-0.4-0.5-0.8-0.6-1.2c-0.1-0.4-0.2-0.8-0.2-1.3c0-0.8,0.2-1.6,0.5-2.2c0.3-0.6,0.8-1.1,1.4-1.5c0.6-0.4,1.2-0.7,1.9-0.9
			c0.7-0.2,1.5-0.3,2.2-0.3c0.9,0,1.7,0.1,2.4,0.3c0.8,0.2,1.4,0.6,2,1c0.6,0.4,1,1,1.4,1.7c0.3,0.7,0.5,1.4,0.5,2.3h-2.9
			c-0.1-1.1-0.4-1.8-1.1-2.3c-0.6-0.4-1.5-0.7-2.5-0.7c-0.3,0-0.7,0-1,0.1c-0.4,0.1-0.7,0.2-1,0.3c-0.3,0.2-0.5,0.4-0.7,0.7
			c-0.2,0.3-0.3,0.6-0.3,1c0,0.6,0.2,1,0.5,1.4c0.4,0.3,0.8,0.6,1.4,0.8c0.1,0,0.3,0.1,0.7,0.2c0.4,0.1,0.9,0.2,1.4,0.4
			c0.5,0.1,1,0.3,1.5,0.4c0.5,0.1,0.9,0.2,1.1,0.3c0.5,0.2,1,0.4,1.4,0.7c0.4,0.3,0.7,0.6,1,1c0.3,0.4,0.5,0.8,0.6,1.2
			c0.1,0.4,0.2,0.9,0.2,1.3c0,0.9-0.2,1.7-0.6,2.4c-0.4,0.7-0.9,1.2-1.5,1.6c-0.6,0.4-1.3,0.7-2.1,0.9c-0.8,0.2-1.6,0.3-2.4,0.3
			c-0.9,0-1.8-0.1-2.7-0.3c-0.8-0.2-1.6-0.6-2.2-1.1c-0.6-0.5-1.1-1.1-1.5-1.8c-0.4-0.7-0.6-1.6-0.6-2.7H972.5z"/>
		<path class="st0" d="M984.1,188.4h13.4v2.5h-5.3v14h-2.9v-14h-5.2V188.4z"/>
		<path class="st0" d="M1001.4,199.4c0,0.6,0.1,1.2,0.3,1.6c0.2,0.4,0.5,0.8,0.9,1.1c0.4,0.3,0.8,0.5,1.3,0.6s1,0.2,1.6,0.2
			c0.6,0,1.2-0.1,1.6-0.2c0.4-0.1,0.8-0.3,1.1-0.6c0.3-0.2,0.5-0.5,0.6-0.8c0.1-0.3,0.2-0.6,0.2-0.9c0-0.6-0.1-1.1-0.4-1.4
			c-0.3-0.3-0.6-0.5-0.9-0.6c-0.6-0.2-1.3-0.4-2.1-0.6c-0.8-0.2-1.7-0.4-2.9-0.8c-0.7-0.2-1.3-0.4-1.8-0.7c-0.5-0.3-0.8-0.6-1.1-1
			c-0.3-0.4-0.5-0.8-0.6-1.2c-0.1-0.4-0.2-0.8-0.2-1.3c0-0.8,0.2-1.6,0.5-2.2c0.3-0.6,0.8-1.1,1.4-1.5c0.6-0.4,1.2-0.7,1.9-0.9
			c0.7-0.2,1.5-0.3,2.2-0.3c0.9,0,1.7,0.1,2.4,0.3c0.8,0.2,1.4,0.6,2,1c0.6,0.4,1,1,1.4,1.7c0.3,0.7,0.5,1.4,0.5,2.3h-2.9
			c-0.1-1.1-0.4-1.8-1.1-2.3c-0.6-0.4-1.5-0.7-2.5-0.7c-0.3,0-0.7,0-1,0.1c-0.4,0.1-0.7,0.2-1,0.3c-0.3,0.2-0.5,0.4-0.7,0.7
			c-0.2,0.3-0.3,0.6-0.3,1c0,0.6,0.2,1,0.5,1.4c0.4,0.3,0.8,0.6,1.4,0.8c0.1,0,0.3,0.1,0.7,0.2c0.4,0.1,0.9,0.2,1.4,0.4
			c0.5,0.1,1,0.3,1.5,0.4c0.5,0.1,0.9,0.2,1.1,0.3c0.5,0.2,1,0.4,1.4,0.7c0.4,0.3,0.7,0.6,1,1c0.3,0.4,0.5,0.8,0.6,1.2
			c0.1,0.4,0.2,0.9,0.2,1.3c0,0.9-0.2,1.7-0.6,2.4c-0.4,0.7-0.9,1.2-1.5,1.6c-0.6,0.4-1.3,0.7-2.1,0.9c-0.8,0.2-1.6,0.3-2.4,0.3
			c-0.9,0-1.8-0.1-2.7-0.3c-0.8-0.2-1.6-0.6-2.2-1.1c-0.6-0.5-1.1-1.1-1.5-1.8c-0.4-0.7-0.6-1.6-0.6-2.7H1001.4z"/>
	</g>
	<g>
		<path class="st0" d="M0.9,96.9h72.5V77.3H0.9C-0.3,83.8-0.2,90.5,0.9,96.9z"/>
		<g>
			<path class="st0" d="M242.1,103.7c-7.4,40.4-43.2,70.4-84.3,70.4c-12,0-24.7-3-35.5-7.7c-11.3,5.3-23.8,7.7-36.6,7.7
				c-41.1,0-76.9-29.4-84.2-70.1l52.8-0.1c5.8,13.2,19.2,21.7,33.5,21.7c15.4,0,29.7-10.5,34.9-24.9c5,14.8,19.3,24.9,34.9,24.9
				c14.7,0,28.3-8.5,34.1-21.8L242.1,103.7z"/>
			<path class="st0" d="M242.1,70.4C234.7,30,198.9,0,157.8,0c-12,0-24.7,3-35.5,7.8C111,2.4,98.5,0,85.8,0
				C44.7,0,8.9,29.4,1.6,70.1l52.8,0.1C60.3,57,73.6,48.5,88,48.5c15.4,0,29.7,10.4,34.9,24.9c5-14.8,19.3-24.9,34.9-24.9
				c14.7,0,28.3,8.5,34.1,21.8L242.1,70.4z"/>
		</g>
	</g>
</g>
</svg>
