<?xml version="1.0" encoding="UTF-8" standalone="no"?>
<!-- Generator: Adobe Illustrator 22.1.0, SVG Export Plug-In . SVG Version: 6.00 Build 0)  -->

<svg
   version="1.1"
   x="0px"
   y="0px"
   viewBox="0 0 350 349.99999"
   xml:space="preserve"
   id="svg127"
   sodipodi:docname="ecmwf_just_logo.svg"
   width="350"
   height="350"
   inkscape:version="1.2.2 (b0a84865, 2022-12-01)"
   xmlns:inkscape="http://www.inkscape.org/namespaces/inkscape"
   xmlns:sodipodi="http://sodipodi.sourceforge.net/DTD/sodipodi-0.dtd"
   xmlns="http://www.w3.org/2000/svg"
   xmlns:svg="http://www.w3.org/2000/svg"><defs
   id="defs131">
	
	
	
</defs><sodipodi:namedview
   id="namedview129"
   pagecolor="#ffffff"
   bordercolor="#000000"
   borderopacity="0.25"
   inkscape:showpageshadow="2"
   inkscape:pageopacity="0.0"
   inkscape:pagecheckerboard="0"
   inkscape:deskcolor="#d1d1d1"
   showgrid="false"
   inkscape:zoom="1.1495372"
   inkscape:cx="118.30848"
   inkscape:cy="135.27182"
   inkscape:window-width="1309"
   inkscape:window-height="669"
   inkscape:window-x="0"
   inkscape:window-y="35"
   inkscape:window-maximized="0"
   inkscape:current-layer="svg127" />
<style
   type="text/css"
   id="style9">
	.st0{fill:#0068A8;}
</style>
<g
   id="Layer_1"
   transform="translate(-0.03709278)">
</g>
<g
   id="g124"
   transform="translate(53.931454,87.95)">
		<path
   class="st0"
   d="M 0.9,96.9 H 73.4 V 77.3 H 0.9 c -1.2,6.5 -1.1,13.2 0,19.6 z"
   id="path116" />
		<g
   id="g122">
			<path
   class="st0"
   d="m 242.1,103.7 c -7.4,40.4 -43.2,70.4 -84.3,70.4 -12,0 -24.7,-3 -35.5,-7.7 -11.3,5.3 -23.8,7.7 -36.6,7.7 C 44.6,174.1 8.8,144.7 1.5,104 l 52.8,-0.1 c 5.8,13.2 19.2,21.7 33.5,21.7 15.4,0 29.7,-10.5 34.9,-24.9 5,14.8 19.3,24.9 34.9,24.9 14.7,0 28.3,-8.5 34.1,-21.8 z"
   id="path118" />
			<path
   class="st0"
   d="M 242.1,70.4 C 234.7,30 198.9,0 157.8,0 145.8,0 133.1,3 122.3,7.8 111,2.4 98.5,0 85.8,0 44.7,0 8.9,29.4 1.6,70.1 l 52.8,0.1 C 60.3,57 73.6,48.5 88,48.5 c 15.4,0 29.7,10.4 34.9,24.9 5,-14.8 19.3,-24.9 34.9,-24.9 14.7,0 28.3,8.5 34.1,21.8 z"
   id="path120" />
		</g>
	</g>
</svg>
