<?xml version="1.0" encoding="utf-8" standalone="no"?>
<!DOCTYPE svg PUBLIC "-//W3C//DTD SVG 1.1//EN"
  "http://www.w3.org/Graphics/SVG/1.1/DTD/svg11.dtd">
<svg xmlns:xlink="http://www.w3.org/1999/xlink" width="486pt" height="162pt" viewBox="0 0 486 162" xmlns="http://www.w3.org/2000/svg" version="1.1">
 <metadata>
  <rdf:RDF xmlns:dc="http://purl.org/dc/elements/1.1/" xmlns:cc="http://creativecommons.org/ns#" xmlns:rdf="http://www.w3.org/1999/02/22-rdf-syntax-ns#">
   <cc:Work>
    <dc:type rdf:resource="http://purl.org/dc/dcmitype/StillImage"/>
    <dc:date>2022-08-04T18:14:06.999322</dc:date>
    <dc:format>image/svg+xml</dc:format>
    <dc:creator>
     <cc:Agent>
      <dc:title>Matplotlib v3.5.1, https://matplotlib.org/</dc:title>
     </cc:Agent>
    </dc:creator>
   </cc:Work>
  </rdf:RDF>
 </metadata>
 <defs>
  <style type="text/css">*{stroke-linejoin: round; stroke-linecap: butt}</style>
 </defs>
 <g id="figure_1">
  <g id="patch_1">
   <path d="M 0 162 
L 486 162 
L 486 0 
L 0 0 
z
" style="fill: #ffffff"/>
  </g>
  <g id="axes_1">
   <g id="patch_2">
    <path d="M 52.756452 112.496228 
L 172.892687 112.496228 
L 172.892687 22.235084 
L 52.756452 22.235084 
z
" style="fill: #ffffff"/>
   </g>
   <g id="matplotlib.axis_1">
    <g id="xtick_1">
     <g id="line2d_1">
      <defs>
       <path id="mb59eeebe9f" d="M 0 0 
L 0 3.5 
" style="stroke: #000000; stroke-width: 0.8"/>
      </defs>
      <g>
       <use xlink:href="#mb59eeebe9f" x="52.756452" y="112.496228" style="stroke: #000000; stroke-width: 0.8"/>
      </g>
     </g>
     <g id="text_1">
      <!-- $\mathdefault{0.6}$ -->
      <g transform="translate(44.654396 128.490256)scale(0.13 -0.13)">
       <defs>
        <path id="CMR17-30" d="M 2688 2038 
C 2688 2430 2682 3099 2413 3613 
C 2176 4063 1798 4224 1466 4224 
C 1158 4224 768 4082 525 3620 
C 269 3137 243 2539 243 2038 
C 243 1671 250 1112 448 623 
C 723 -39 1216 -128 1466 -128 
C 1760 -128 2208 -7 2470 604 
C 2662 1048 2688 1568 2688 2038 
z
M 1466 -26 
C 1056 -26 813 328 723 816 
C 653 1196 653 1749 653 2109 
C 653 2604 653 3015 736 3407 
C 858 3954 1216 4121 1466 4121 
C 1728 4121 2067 3947 2189 3420 
C 2272 3054 2278 2623 2278 2109 
C 2278 1691 2278 1176 2202 797 
C 2067 96 1690 -26 1466 -26 
z
" transform="scale(0.015625)"/>
        <path id="CMMI12-3a" d="M 1178 307 
C 1178 492 1024 620 870 620 
C 685 620 557 467 557 313 
C 557 128 710 0 864 0 
C 1050 0 1178 153 1178 307 
z
" transform="scale(0.015625)"/>
        <path id="CMR17-36" d="M 678 2198 
C 678 3712 1395 4076 1811 4076 
C 1946 4076 2272 4049 2400 3782 
C 2298 3782 2106 3782 2106 3558 
C 2106 3385 2246 3328 2336 3328 
C 2394 3328 2566 3353 2566 3571 
C 2566 3987 2246 4224 1805 4224 
C 1043 4224 243 3411 243 2011 
C 243 257 966 -128 1478 -128 
C 2099 -128 2688 431 2688 1295 
C 2688 2101 2170 2688 1517 2688 
C 1126 2688 838 2430 678 1979 
L 678 2198 
z
M 1478 25 
C 691 25 691 1212 691 1450 
C 691 1914 909 2585 1504 2585 
C 1613 2585 1926 2585 2138 2140 
C 2253 1889 2253 1624 2253 1302 
C 2253 954 2253 696 2118 438 
C 1978 173 1773 25 1478 25 
z
" transform="scale(0.015625)"/>
       </defs>
       <use xlink:href="#CMR17-30" transform="scale(0.996264)"/>
       <use xlink:href="#CMMI12-3a" transform="translate(45.690477 0)scale(0.996264)"/>
       <use xlink:href="#CMR17-36" transform="translate(72.787654 0)scale(0.996264)"/>
      </g>
     </g>
    </g>
    <g id="xtick_2">
     <g id="line2d_2">
      <g>
       <use xlink:href="#mb59eeebe9f" x="112.82457" y="112.496228" style="stroke: #000000; stroke-width: 0.8"/>
      </g>
     </g>
     <g id="text_2">
      <!-- $\mathdefault{0.8}$ -->
      <g transform="translate(104.722514 128.490256)scale(0.13 -0.13)">
       <defs>
        <path id="CMR17-38" d="M 1741 2289 
C 2144 2494 2554 2803 2554 3298 
C 2554 3884 1990 4224 1472 4224 
C 890 4224 378 3800 378 3215 
C 378 3054 416 2777 666 2533 
C 730 2469 998 2276 1171 2154 
C 883 2006 211 1652 211 945 
C 211 282 838 -128 1459 -128 
C 2144 -128 2720 366 2720 1022 
C 2720 1607 2330 1877 2074 2051 
L 1741 2289 
z
M 902 2855 
C 851 2887 595 3086 595 3388 
C 595 3781 998 4076 1459 4076 
C 1965 4076 2336 3716 2336 3298 
C 2336 2700 1670 2359 1638 2359 
C 1632 2359 1626 2359 1574 2398 
L 902 2855 
z
M 2080 1536 
C 2176 1466 2483 1253 2483 861 
C 2483 385 2010 25 1472 25 
C 890 25 448 443 448 951 
C 448 1459 838 1884 1280 2083 
L 2080 1536 
z
" transform="scale(0.015625)"/>
       </defs>
       <use xlink:href="#CMR17-30" transform="scale(0.996264)"/>
       <use xlink:href="#CMMI12-3a" transform="translate(45.690477 0)scale(0.996264)"/>
       <use xlink:href="#CMR17-38" transform="translate(72.787654 0)scale(0.996264)"/>
      </g>
     </g>
    </g>
    <g id="xtick_3">
     <g id="line2d_3">
      <g>
       <use xlink:href="#mb59eeebe9f" x="172.892687" y="112.496228" style="stroke: #000000; stroke-width: 0.8"/>
      </g>
     </g>
     <g id="text_3">
      <!-- $\mathdefault{1.0}$ -->
      <g transform="translate(164.790631 128.490256)scale(0.13 -0.13)">
       <defs>
        <path id="CMR17-31" d="M 1702 4083 
C 1702 4217 1696 4224 1606 4224 
C 1357 3927 979 3833 621 3820 
C 602 3820 570 3820 563 3808 
C 557 3795 557 3782 557 3648 
C 755 3648 1088 3686 1344 3839 
L 1344 467 
C 1344 243 1331 166 781 166 
L 589 166 
L 589 0 
C 896 6 1216 12 1523 12 
C 1830 12 2150 6 2458 0 
L 2458 166 
L 2266 166 
C 1715 166 1702 236 1702 467 
L 1702 4083 
z
" transform="scale(0.015625)"/>
       </defs>
       <use xlink:href="#CMR17-31" transform="scale(0.996264)"/>
       <use xlink:href="#CMMI12-3a" transform="translate(45.690477 0)scale(0.996264)"/>
       <use xlink:href="#CMR17-30" transform="translate(72.787654 0)scale(0.996264)"/>
      </g>
     </g>
    </g>
    <g id="text_4">
     <!-- Proportional Distance (t) -->
     <g transform="translate(42.162801 144.722142)scale(0.13 -0.13)">
      <defs>
       <path id="CMR17-50" d="M 1267 2048 
L 2291 2048 
C 3117 2048 3718 2583 3718 3187 
C 3718 3791 3130 4352 2291 4352 
L 333 4352 
L 333 4185 
C 774 4185 845 4185 845 3899 
L 845 453 
C 845 166 774 166 333 166 
L 333 0 
C 518 12 858 12 1056 12 
C 1254 12 1594 12 1779 0 
L 1779 166 
C 1338 166 1267 166 1267 453 
L 1267 2048 
z
M 1254 2182 
L 1254 3937 
C 1254 4153 1267 4185 1523 4185 
L 2170 4185 
C 2995 4185 3232 3715 3232 3187 
C 3232 2608 2950 2182 2170 2182 
L 1254 2182 
z
" transform="scale(0.015625)"/>
       <path id="CMR17-72" d="M 960 1517 
C 960 2134 1222 2713 1702 2713 
C 1747 2713 1792 2707 1837 2687 
C 1837 2687 1696 2642 1696 2475 
C 1696 2321 1818 2257 1914 2257 
C 1990 2257 2131 2302 2131 2482 
C 2131 2687 1926 2816 1709 2816 
C 1222 2816 1011 2340 947 2115 
L 941 2115 
L 941 2816 
L 198 2745 
L 198 2578 
C 576 2578 634 2540 634 2231 
L 634 443 
C 634 198 608 166 198 166 
L 198 0 
C 352 12 646 12 813 12 
C 998 12 1325 12 1498 0 
L 1498 166 
C 1037 166 960 166 960 455 
L 960 1517 
z
" transform="scale(0.015625)"/>
       <path id="CMR17-6f" d="M 2758 1356 
C 2758 2176 2163 2816 1466 2816 
C 768 2816 173 2176 173 1356 
C 173 550 768 -64 1466 -64 
C 2163 -64 2758 550 2758 1356 
z
M 1466 51 
C 1165 51 909 230 762 480 
C 602 768 582 1126 582 1408 
C 582 1676 595 2009 762 2297 
C 890 2508 1139 2713 1466 2713 
C 1754 2713 1997 2553 2150 2329 
C 2349 2028 2349 1606 2349 1408 
C 2349 1158 2336 774 2163 467 
C 1984 172 1709 51 1466 51 
z
" transform="scale(0.015625)"/>
       <path id="CMR17-70" d="M 1408 -1114 
C 998 -1114 973 -1088 973 -834 
L 973 380 
C 1158 109 1427 -64 1766 -64 
C 2406 -64 3053 503 3053 1382 
C 3053 2196 2496 2816 1837 2816 
C 1453 2816 1139 2603 960 2345 
L 960 2816 
L 198 2745 
L 198 2577 
C 576 2577 634 2539 634 2228 
L 634 -834 
C 634 -1081 608 -1114 198 -1114 
L 198 -1280 
C 352 -1268 634 -1268 800 -1268 
C 966 -1268 1254 -1268 1408 -1280 
L 1408 -1114 
z
M 973 2015 
C 973 2106 973 2241 1222 2481 
C 1254 2506 1472 2700 1792 2700 
C 2259 2700 2643 2112 2643 1376 
C 2643 639 2234 38 1728 38 
C 1498 38 1248 148 1056 451 
C 973 594 973 632 973 736 
L 973 2015 
z
" transform="scale(0.015625)"/>
       <path id="CMR17-74" d="M 966 2585 
L 1862 2585 
L 1862 2752 
L 966 2752 
L 966 3968 
L 851 3968 
C 838 3292 614 2700 70 2687 
L 70 2585 
L 627 2585 
L 627 778 
C 627 655 627 -64 1370 -64 
C 1747 -64 1965 308 1965 784 
L 1965 1151 
L 1850 1151 
L 1850 790 
C 1850 347 1677 51 1408 51 
C 1222 51 966 179 966 765 
L 966 2585 
z
" transform="scale(0.015625)"/>
       <path id="CMR17-69" d="M 992 3961 
C 992 4102 877 4224 730 4224 
C 589 4224 467 4108 467 3961 
C 467 3820 582 3699 730 3699 
C 870 3699 992 3814 992 3961 
z
M 243 2745 
L 243 2579 
C 602 2579 653 2540 653 2231 
L 653 443 
C 653 198 627 166 218 166 
L 218 0 
C 371 12 646 12 806 12 
C 960 12 1222 12 1370 0 
L 1370 166 
C 992 166 979 205 979 436 
L 979 2816 
L 243 2745 
z
" transform="scale(0.015625)"/>
       <path id="CMR17-6e" d="M 2656 1954 
C 2656 2282 2592 2816 1837 2816 
C 1331 2816 1069 2424 973 2166 
L 966 2166 
L 966 2816 
L 211 2745 
L 211 2578 
C 589 2578 646 2540 646 2231 
L 646 443 
C 646 198 621 166 211 166 
L 211 0 
C 365 12 646 12 813 12 
C 979 12 1267 12 1421 0 
L 1421 166 
C 1011 166 986 192 986 443 
L 986 1678 
C 986 2269 1344 2713 1792 2713 
C 2266 2713 2317 2289 2317 1980 
L 2317 443 
C 2317 198 2291 166 1882 166 
L 1882 0 
C 2035 12 2317 12 2483 12 
C 2650 12 2938 12 3091 0 
L 3091 166 
C 2682 166 2656 192 2656 443 
L 2656 1954 
z
" transform="scale(0.015625)"/>
       <path id="CMR17-61" d="M 2304 1656 
C 2304 2048 2304 2275 2035 2534 
C 1798 2751 1523 2816 1306 2816 
C 800 2816 435 2408 435 1977 
C 435 1740 627 1728 666 1728 
C 749 1728 896 1779 896 1958 
C 896 2118 774 2188 666 2188 
C 640 2188 608 2182 589 2176 
C 723 2594 1069 2713 1293 2713 
C 1613 2713 1965 2421 1965 1875 
L 1965 1632 
C 1587 1619 1133 1568 774 1373 
C 371 1147 256 822 256 576 
C 256 77 832 -64 1171 -64 
C 1523 -64 1850 135 1990 505 
C 2003 219 2182 -39 2464 -39 
C 2598 -39 2938 51 2938 563 
L 2938 926 
L 2822 926 
L 2822 557 
C 2822 161 2650 109 2566 109 
C 2304 109 2304 446 2304 732 
L 2304 1656 
z
M 1965 887 
C 1965 323 1568 38 1216 38 
C 896 38 646 278 646 576 
C 646 771 730 1114 1101 1322 
C 1408 1497 1760 1523 1965 1536 
L 1965 887 
z
" transform="scale(0.015625)"/>
       <path id="CMR17-6c" d="M 979 4416 
L 218 4345 
L 218 4179 
C 595 4179 653 4141 653 3835 
L 653 439 
C 653 198 627 166 218 166 
L 218 0 
C 371 12 653 12 813 12 
C 979 12 1261 12 1414 0 
L 1414 166 
C 1005 166 979 191 979 439 
L 979 4416 
z
" transform="scale(0.015625)"/>
       <path id="CMR17-44" d="M 333 4352 
L 333 4185 
C 774 4185 845 4185 845 3898 
L 845 453 
C 845 166 774 166 333 166 
L 333 0 
L 2368 0 
C 3398 0 4224 943 4224 2140 
C 4224 3344 3411 4352 2368 4352 
L 333 4352 
z
M 1523 166 
C 1267 166 1254 198 1254 414 
L 1254 3936 
C 1254 4153 1267 4185 1523 4185 
L 2240 4185 
C 2771 4185 3750 3873 3750 2140 
C 3750 1242 3488 879 3366 707 
C 3213 510 2848 166 2240 166 
L 1523 166 
z
" transform="scale(0.015625)"/>
       <path id="CMR17-73" d="M 1978 2688 
C 1978 2803 1971 2809 1933 2809 
C 1907 2809 1901 2803 1824 2707 
C 1805 2681 1747 2617 1728 2592 
C 1523 2809 1235 2816 1126 2816 
C 416 2816 160 2444 160 2073 
C 160 1497 813 1363 998 1324 
C 1402 1241 1542 1216 1677 1100 
C 1760 1024 1901 883 1901 652 
C 1901 384 1747 38 1158 38 
C 602 38 403 460 288 1024 
C 269 1113 269 1120 218 1120 
C 166 1120 160 1113 160 985 
L 160 64 
C 160 -52 166 -58 205 -58 
C 237 -58 243 -52 275 0 
C 314 57 410 211 448 275 
C 576 102 800 -64 1158 -64 
C 1792 -64 2131 281 2131 780 
C 2131 1107 1958 1280 1875 1356 
C 1683 1555 1459 1600 1190 1651 
C 838 1728 390 1817 390 2208 
C 390 2374 480 2726 1126 2726 
C 1811 2726 1850 2086 1862 1881 
C 1869 1849 1901 1843 1920 1843 
C 1978 1843 1978 1862 1978 1971 
L 1978 2688 
z
" transform="scale(0.015625)"/>
       <path id="CMR17-63" d="M 2234 2240 
C 2112 2240 1933 2240 1933 2015 
C 1933 1836 2080 1785 2163 1785 
C 2208 1785 2394 1804 2394 2028 
C 2394 2476 1958 2816 1466 2816 
C 787 2816 211 2201 211 1379 
C 211 521 813 -64 1466 -64 
C 2259 -64 2458 676 2458 747 
C 2458 773 2451 792 2406 792 
C 2362 792 2355 786 2330 702 
C 2163 180 1798 51 1523 51 
C 1114 51 621 431 621 1385 
C 621 2358 1094 2700 1472 2700 
C 1722 2700 2093 2582 2234 2240 
z
" transform="scale(0.015625)"/>
       <path id="CMR17-65" d="M 2438 1503 
C 2464 1529 2464 1542 2464 1606 
C 2464 2251 2118 2816 1389 2816 
C 710 2816 173 2175 173 1394 
C 173 554 781 -64 1459 -64 
C 2176 -64 2458 619 2458 755 
C 2458 800 2419 800 2406 800 
C 2362 800 2355 787 2330 709 
C 2189 270 1837 51 1504 51 
C 1229 51 954 206 781 490 
C 582 819 582 1200 582 1503 
L 2438 1503 
z
M 589 1600 
C 634 2511 1126 2713 1382 2713 
C 1818 2713 2112 2308 2118 1600 
L 589 1600 
z
" transform="scale(0.015625)"/>
       <path id="CMR17-28" d="M 1958 -1562 
C 1958 -1556 1958 -1543 1939 -1524 
C 1645 -1223 858 -403 858 1596 
C 858 3595 1632 4408 1946 4729 
C 1946 4735 1958 4748 1958 4767 
C 1958 4787 1939 4800 1914 4800 
C 1843 4800 1299 4325 986 3620 
C 666 2909 576 2218 576 1603 
C 576 1141 621 360 1005 -467 
C 1312 -1133 1837 -1600 1914 -1600 
C 1946 -1600 1958 -1588 1958 -1562 
z
" transform="scale(0.015625)"/>
       <path id="CMR17-29" d="M 1683 1596 
C 1683 2057 1638 2839 1254 3665 
C 947 4332 422 4800 346 4800 
C 326 4800 301 4793 301 4761 
C 301 4748 307 4742 314 4729 
C 621 4408 1402 3595 1402 1603 
C 1402 -396 627 -1210 314 -1530 
C 307 -1543 301 -1549 301 -1562 
C 301 -1594 326 -1600 346 -1600 
C 416 -1600 960 -1127 1274 -422 
C 1594 289 1683 981 1683 1596 
z
" transform="scale(0.015625)"/>
      </defs>
      <use xlink:href="#CMR17-50" transform="scale(0.996264)"/>
      <use xlink:href="#CMR17-72" transform="translate(62.586301 0)scale(0.996264)"/>
      <use xlink:href="#CMR17-6f" transform="translate(97.867068 0)scale(0.996264)"/>
      <use xlink:href="#CMR17-70" transform="translate(143.557545 0)scale(0.996264)"/>
      <use xlink:href="#CMR17-6f" transform="translate(197.055354 0)scale(0.996264)"/>
      <use xlink:href="#CMR17-72" transform="translate(242.745831 0)scale(0.996264)"/>
      <use xlink:href="#CMR17-74" transform="translate(278.026599 0)scale(0.996264)"/>
      <use xlink:href="#CMR17-69" transform="translate(313.307367 0)scale(0.996264)"/>
      <use xlink:href="#CMR17-6f" transform="translate(338.178425 0)scale(0.996264)"/>
      <use xlink:href="#CMR17-6e" transform="translate(383.868902 0)scale(0.996264)"/>
      <use xlink:href="#CMR17-61" transform="translate(434.764272 0)scale(0.996264)"/>
      <use xlink:href="#CMR17-6c" transform="translate(480.454749 0)scale(0.996264)"/>
      <use xlink:href="#CMR17-44" transform="translate(535.401774 0)scale(0.996264)"/>
      <use xlink:href="#CMR17-69" transform="translate(605.79533 0)scale(0.996264)"/>
      <use xlink:href="#CMR17-73" transform="translate(630.666388 0)scale(0.996264)"/>
      <use xlink:href="#CMR17-74" transform="translate(666.467726 0)scale(0.996264)"/>
      <use xlink:href="#CMR17-61" transform="translate(701.748494 0)scale(0.996264)"/>
      <use xlink:href="#CMR17-6e" transform="translate(747.438971 0)scale(0.996264)"/>
      <use xlink:href="#CMR17-63" transform="translate(798.334341 0)scale(0.996264)"/>
      <use xlink:href="#CMR17-65" transform="translate(838.820001 0)scale(0.996264)"/>
      <use xlink:href="#CMR17-28" transform="translate(909.381628 0)scale(0.996264)"/>
      <use xlink:href="#CMR17-74" transform="translate(944.662396 0)scale(0.996264)"/>
      <use xlink:href="#CMR17-29" transform="translate(979.943164 0)scale(0.996264)"/>
     </g>
    </g>
   </g>
   <g id="matplotlib.axis_2">
    <g id="ytick_1">
     <g id="line2d_4">
      <defs>
       <path id="md3afbfffbd" d="M 0 0 
L -3.5 0 
" style="stroke: #000000; stroke-width: 0.8"/>
      </defs>
      <g>
       <use xlink:href="#md3afbfffbd" x="52.756452" y="108.898264" style="stroke: #000000; stroke-width: 0.8"/>
      </g>
     </g>
     <g id="text_5">
      <!-- $\mathdefault{0.0}$ -->
      <g transform="translate(29.55234 113.395278)scale(0.13 -0.13)">
       <use xlink:href="#CMR17-30" transform="scale(0.996264)"/>
       <use xlink:href="#CMMI12-3a" transform="translate(45.690477 0)scale(0.996264)"/>
       <use xlink:href="#CMR17-30" transform="translate(72.787654 0)scale(0.996264)"/>
      </g>
     </g>
    </g>
    <g id="ytick_2">
     <g id="line2d_5">
      <g>
       <use xlink:href="#md3afbfffbd" x="52.756452" y="66.303735" style="stroke: #000000; stroke-width: 0.8"/>
      </g>
     </g>
     <g id="text_6">
      <!-- $\mathdefault{0.1}$ -->
      <g transform="translate(29.55234 70.800749)scale(0.13 -0.13)">
       <use xlink:href="#CMR17-30" transform="scale(0.996264)"/>
       <use xlink:href="#CMMI12-3a" transform="translate(45.690477 0)scale(0.996264)"/>
       <use xlink:href="#CMR17-31" transform="translate(72.787654 0)scale(0.996264)"/>
      </g>
     </g>
    </g>
    <g id="ytick_3">
     <g id="line2d_6">
      <g>
       <use xlink:href="#md3afbfffbd" x="52.756452" y="23.709206" style="stroke: #000000; stroke-width: 0.8"/>
      </g>
     </g>
     <g id="text_7">
      <!-- $\mathdefault{0.2}$ -->
      <g transform="translate(29.55234 28.20622)scale(0.13 -0.13)">
       <defs>
        <path id="CMR17-32" d="M 2669 990 
L 2554 990 
C 2490 537 2438 460 2413 422 
C 2381 371 1920 371 1830 371 
L 602 371 
C 832 620 1280 1073 1824 1596 
C 2214 1966 2669 2400 2669 3033 
C 2669 3788 2067 4224 1395 4224 
C 691 4224 262 3603 262 3027 
C 262 2777 448 2745 525 2745 
C 589 2745 781 2783 781 3007 
C 781 3206 614 3264 525 3264 
C 486 3264 448 3257 422 3244 
C 544 3788 915 4057 1306 4057 
C 1862 4057 2227 3616 2227 3033 
C 2227 2477 1901 1998 1536 1583 
L 262 147 
L 262 0 
L 2515 0 
L 2669 990 
z
" transform="scale(0.015625)"/>
       </defs>
       <use xlink:href="#CMR17-30" transform="scale(0.996264)"/>
       <use xlink:href="#CMMI12-3a" transform="translate(45.690477 0)scale(0.996264)"/>
       <use xlink:href="#CMR17-32" transform="translate(72.787654 0)scale(0.996264)"/>
      </g>
     </g>
    </g>
    <g id="text_8">
     <!-- Fermion Gap -->
     <g transform="translate(23.034028 103.779192)rotate(-90)scale(0.13 -0.13)">
      <defs>
       <path id="CMR17-46" d="M 3482 4339 
L 326 4339 
L 326 4172 
C 768 4172 838 4172 838 3883 
L 838 450 
C 838 166 768 166 326 166 
L 326 0 
C 512 12 870 12 1069 12 
C 1331 12 1638 12 1901 0 
L 1901 166 
L 1760 166 
C 1274 166 1261 229 1261 456 
L 1261 2073 
L 1837 2073 
C 2432 2073 2490 1865 2490 1334 
L 2605 1334 
L 2605 2991 
L 2490 2991 
C 2490 2451 2432 2240 1837 2240 
L 1261 2240 
L 1261 3922 
C 1261 4140 1274 4172 1530 4172 
L 2355 4172 
C 3322 4172 3430 3774 3520 2920 
L 3635 2920 
L 3482 4339 
z
" transform="scale(0.015625)"/>
       <path id="CMR17-6d" d="M 4326 1954 
C 4326 2276 4269 2816 3507 2816 
C 3072 2816 2771 2520 2656 2173 
L 2650 2173 
C 2573 2700 2195 2816 1837 2816 
C 1331 2816 1069 2424 973 2166 
L 966 2166 
L 966 2816 
L 211 2745 
L 211 2578 
C 589 2578 646 2540 646 2231 
L 646 443 
C 646 198 621 166 211 166 
L 211 0 
C 365 12 646 12 813 12 
C 979 12 1267 12 1421 0 
L 1421 166 
C 1011 166 986 192 986 443 
L 986 1678 
C 986 2269 1344 2713 1792 2713 
C 2266 2713 2317 2289 2317 1980 
L 2317 443 
C 2317 198 2291 166 1882 166 
L 1882 0 
C 2035 12 2317 12 2483 12 
C 2650 12 2938 12 3091 0 
L 3091 166 
C 2682 166 2656 192 2656 443 
L 2656 1678 
C 2656 2269 3014 2713 3462 2713 
C 3936 2713 3987 2289 3987 1980 
L 3987 443 
C 3987 198 3962 166 3552 166 
L 3552 0 
C 3706 12 3987 12 4154 12 
C 4320 12 4608 12 4762 0 
L 4762 166 
C 4352 166 4326 192 4326 443 
L 4326 1954 
z
" transform="scale(0.015625)"/>
       <path id="CMR17-47" d="M 3974 1258 
C 3974 1503 3994 1536 4390 1536 
L 4390 1702 
C 4237 1689 3891 1689 3718 1689 
C 3539 1689 3040 1696 2797 1702 
L 2797 1536 
L 2989 1536 
C 3539 1536 3552 1464 3552 1232 
L 3552 806 
C 3552 96 2720 38 2522 38 
C 1862 38 781 496 781 2179 
C 781 3862 1843 4313 2464 4313 
C 3187 4313 3712 3681 3834 2785 
C 3846 2708 3846 2695 3904 2695 
C 3974 2695 3974 2708 3974 2824 
L 3974 4351 
C 3974 4467 3968 4473 3930 4473 
C 3904 4473 3898 4467 3853 4390 
L 3571 3849 
C 3258 4249 2874 4480 2381 4480 
C 1286 4480 294 3507 294 2179 
C 294 858 1267 -128 2394 -128 
C 2912 -128 3418 57 3616 425 
C 3725 161 3904 -20 3936 -20 
C 3968 -20 3974 -13 3974 102 
L 3974 1258 
z
" transform="scale(0.015625)"/>
      </defs>
      <use xlink:href="#CMR17-46" transform="scale(0.996264)"/>
      <use xlink:href="#CMR17-65" transform="translate(52.176591 0)scale(0.996264)"/>
      <use xlink:href="#CMR17-72" transform="translate(92.662252 0)scale(0.996264)"/>
      <use xlink:href="#CMR17-6d" transform="translate(127.943019 0)scale(0.996264)"/>
      <use xlink:href="#CMR17-69" transform="translate(204.862609 0)scale(0.996264)"/>
      <use xlink:href="#CMR17-6f" transform="translate(229.733668 0)scale(0.996264)"/>
      <use xlink:href="#CMR17-6e" transform="translate(275.424145 0)scale(0.996264)"/>
      <use xlink:href="#CMR17-47" transform="translate(356.395481 0)scale(0.996264)"/>
      <use xlink:href="#CMR17-61" transform="translate(428.750827 0)scale(0.996264)"/>
      <use xlink:href="#CMR17-70" transform="translate(474.441304 0)scale(0.996264)"/>
     </g>
    </g>
   </g>
   <g id="line2d_7">
    <path d="M 22.722393 26.495719 
L 25.787093 29.088595 
L 28.851793 31.675866 
L 31.916493 34.2572 
L 34.981193 36.832236 
L 38.045893 39.40058 
L 41.110593 41.961799 
L 44.175292 44.515417 
L 47.239992 47.060907 
L 50.304692 49.597687 
L 53.369392 52.125106 
L 56.434092 54.642436 
L 59.498792 57.148857 
L 62.563492 59.643442 
L 65.628192 62.125132 
L 68.692891 64.592716 
L 71.757591 67.044791 
L 74.822291 69.479726 
L 77.886991 71.895604 
L 80.951691 74.29015 
L 84.016391 76.660639 
L 87.081091 79.003764 
L 90.145791 81.315466 
L 93.21049 83.590695 
L 96.27519 85.823064 
L 99.33989 88.004376 
L 102.40459 90.123926 
L 105.46929 92.167504 
L 108.53399 94.115947 
L 111.59869 95.943139 
L 114.66339 97.613452 
L 117.728089 99.079225 
L 120.792789 100.280379 
L 123.857489 101.150867 
L 126.922189 101.637262 
L 129.986889 101.72559 
L 133.051589 101.456022 
L 136.116289 100.909083 
L 139.180989 100.176379 
L 142.245688 99.339081 
L 145.310388 98.460624 
L 148.375088 97.587575 
L 151.439788 96.752603 
L 154.504488 95.977263 
L 157.569188 95.274704 
L 160.633888 94.652685 
L 163.698588 94.116579 
L 166.763288 93.671921 
L 169.827987 93.32655 
L 172.892687 93.092092 
" clip-path="url(#pfb9ace97ef)" style="fill: none; stroke: #1f77b4; stroke-width: 1.5; stroke-linecap: square"/>
   </g>
   <g id="line2d_8">
    <path d="M 22.722393 26.337863 
L 25.787093 28.924299 
L 28.851793 31.504922 
L 31.916493 34.079397 
L 34.981193 36.647358 
L 38.045893 39.208404 
L 41.110593 41.762095 
L 44.175292 44.307942 
L 47.239992 46.845406 
L 50.304692 49.373887 
L 53.369392 51.892708 
L 56.434092 54.401113 
L 59.498792 56.898242 
L 62.563492 59.383117 
L 65.628192 61.854621 
L 68.692891 64.311464 
L 71.757591 66.752149 
L 74.822291 69.174931 
L 77.886991 71.577749 
L 80.951691 73.958155 
L 84.016391 76.313212 
L 87.081091 78.639355 
L 90.145791 80.932209 
L 93.21049 83.186338 
L 96.27519 85.394891 
L 99.33989 87.549122 
L 102.40459 89.637694 
L 105.46929 91.645727 
L 108.53399 93.553476 
L 111.59869 95.33462 
L 114.66339 96.954315 
L 117.728089 98.36775 
L 120.792789 99.521151 
L 123.857489 100.358667 
L 126.922189 100.837879 
L 129.986889 100.94963 
L 133.051589 100.728266 
L 136.116289 100.242002 
L 139.180989 99.570923 
L 142.245688 98.788022 
L 145.310388 97.950464 
L 148.375088 97.099634 
L 151.439788 96.265755 
L 154.504488 95.472919 
L 157.569188 94.741946 
L 160.633888 94.090576 
L 163.698588 93.532241 
L 166.763288 93.07571 
L 169.827987 92.727238 
L 172.892687 92.493968 
" clip-path="url(#pfb9ace97ef)" style="fill: none; stroke: #ff7f0e; stroke-width: 1.5; stroke-linecap: square"/>
   </g>
   <g id="line2d_9">
    <path d="M 22.722393 26.708376 
L 25.787093 29.312143 
L 28.851793 31.911008 
L 31.916493 34.50471 
L 34.981193 37.092968 
L 38.045893 39.675478 
L 41.110593 42.251914 
L 44.175292 44.82192 
L 47.239992 47.385113 
L 50.304692 49.941072 
L 53.369392 52.489343 
L 56.434092 55.029427 
L 59.498792 57.560775 
L 62.563492 60.082787 
L 65.628192 62.5948 
L 68.692891 65.096078 
L 71.757591 67.585807 
L 74.822291 70.063075 
L 77.886991 72.526866 
L 80.951691 74.976035 
L 84.016391 77.409292 
L 87.081091 79.825173 
L 90.145791 82.222012 
L 93.21049 84.597906 
L 96.27519 86.950666 
L 99.33989 89.277771 
L 102.40459 91.576301 
L 105.46929 93.842867 
L 108.53399 96.073531 
L 111.59869 98.263713 
L 114.66339 100.408106 
L 117.728089 102.500602 
L 120.792789 104.534256 
L 123.857489 106.501327 
L 126.922189 108.393448 
L 129.986889 107.594547 
L 133.051589 105.877945 
L 136.116289 104.26056 
L 139.180989 102.747802 
L 142.245688 101.342602 
L 145.310388 100.045351 
L 148.375088 98.854545 
L 151.439788 97.767922 
L 154.504488 96.783512 
L 157.569188 95.900079 
L 160.633888 95.116993 
L 163.698588 94.434089 
L 166.763288 93.852379 
L 169.827987 93.376235 
L 172.892687 93.016847 
" clip-path="url(#pfb9ace97ef)" style="fill: none; stroke: #2ca02c; stroke-width: 1.5; stroke-linecap: square"/>
   </g>
   <g id="line2d_10">
    <path d="M 22.722393 26.399671 
L 25.787093 28.98842 
L 28.851793 31.571556 
L 31.916493 34.148783 
L 34.981193 36.719786 
L 38.045893 39.284219 
L 41.110593 41.841709 
L 44.175292 44.391845 
L 47.239992 46.934172 
L 50.304692 49.468184 
L 53.369392 51.993315 
L 56.434092 54.508925 
L 59.498792 57.014288 
L 62.563492 59.508577 
L 65.628192 61.990842 
L 68.692891 64.45999 
L 71.757591 66.914752 
L 74.822291 69.353651 
L 77.886991 71.774951 
L 80.951691 74.176594 
L 84.016391 76.55612 
L 87.081091 78.91055 
L 90.145791 81.236233 
L 93.21049 83.52862 
L 96.27519 85.781954 
L 99.33989 87.988806 
L 102.40459 90.139393 
L 105.46929 92.220544 
L 108.53399 94.21413 
L 111.59869 96.094719 
L 114.66339 97.826206 
L 117.728089 99.357727 
L 120.792789 100.620973 
L 123.857489 101.53548 
L 126.922189 102.031992 
L 129.986889 102.091465 
L 133.051589 101.766428 
L 136.116289 101.15721 
L 139.180989 100.368965 
L 142.245688 99.486293 
L 145.310388 98.569074 
L 148.375088 97.6575 
L 151.439788 96.778277 
L 154.504488 95.949328 
L 157.569188 95.182763 
L 160.633888 94.486657 
L 163.698588 93.866383 
L 166.763288 93.326091 
L 169.827987 92.870455 
L 172.892687 92.506354 
" clip-path="url(#pfb9ace97ef)" style="fill: none; stroke: #d62728; stroke-width: 1.5; stroke-linecap: square"/>
   </g>
   <g id="patch_3">
    <path d="M 52.756452 112.496228 
L 52.756452 22.235084 
" style="fill: none; stroke: #000000; stroke-width: 1.2; stroke-linejoin: miter; stroke-linecap: square"/>
   </g>
   <g id="patch_4">
    <path d="M 172.892687 112.496228 
L 172.892687 22.235084 
" style="fill: none; stroke: #000000; stroke-width: 1.2; stroke-linejoin: miter; stroke-linecap: square"/>
   </g>
   <g id="patch_5">
    <path d="M 52.756452 112.496228 
L 172.892687 112.496228 
" style="fill: none; stroke: #000000; stroke-width: 1.2; stroke-linejoin: miter; stroke-linecap: square"/>
   </g>
   <g id="patch_6">
    <path d="M 52.756452 22.235084 
L 172.892687 22.235084 
" style="fill: none; stroke: #000000; stroke-width: 1.2; stroke-linejoin: miter; stroke-linecap: square"/>
   </g>
  </g>
  <g id="axes_2">
   <g id="line2d_11">
    <path d="M 207.750846 108.393448 
L 210.624919 108.393448 
L 213.498992 108.393448 
L 216.373064 108.393448 
L 219.247137 108.393448 
L 222.121209 108.393448 
L 224.995282 108.393448 
L 227.869355 108.393448 
L 230.743427 108.393448 
L 233.6175 108.393448 
L 236.491573 108.393448 
L 239.365645 108.393448 
L 242.239718 108.393448 
L 245.11379 108.393448 
L 247.987863 108.393448 
L 250.861936 108.393448 
L 253.736008 108.393448 
L 256.610081 108.393448 
L 259.484153 108.393448 
L 262.358226 108.393448 
" clip-path="url(#p559b722447)" style="fill: none; stroke: #000000; stroke-width: 1.5; stroke-linecap: square"/>
   </g>
   <g id="line2d_12">
    <path d="M 207.750846 108.393448 
L 210.624919 107.913591 
L 213.498992 107.433734 
L 216.373064 106.953877 
L 219.247137 106.47402 
L 222.121209 105.994162 
L 224.995282 105.514305 
L 227.869355 105.034448 
L 230.743427 104.554591 
L 233.6175 104.074733 
L 236.491573 103.594876 
L 239.365645 103.115019 
L 242.239718 102.635162 
L 245.11379 102.155305 
L 247.987863 101.675447 
L 250.861936 101.19559 
L 253.736008 100.715733 
L 256.610081 100.235876 
L 259.484153 99.756018 
L 262.358226 99.276161 
" clip-path="url(#p559b722447)" style="fill: none; stroke: #000000; stroke-width: 1.5; stroke-linecap: square"/>
   </g>
   <g id="line2d_13">
    <path d="M 207.750846 108.393448 
L 210.624919 107.433734 
L 213.498992 106.47402 
L 216.373064 105.514305 
L 219.247137 104.554591 
L 222.121209 103.594876 
L 224.995282 102.635162 
L 227.869355 101.675447 
L 230.743427 100.715733 
L 233.6175 99.756018 
L 236.491573 98.796304 
L 239.365645 97.83659 
L 242.239718 96.876875 
L 245.11379 95.917161 
L 247.987863 94.957446 
L 250.861936 93.997732 
L 253.736008 93.038017 
L 256.610081 92.078303 
L 259.484153 91.118588 
L 262.358226 90.158874 
" clip-path="url(#p559b722447)" style="fill: none; stroke: #000000; stroke-width: 1.5; stroke-linecap: square"/>
   </g>
   <g id="line2d_14">
    <path d="M 207.750846 108.393448 
L 210.624919 106.953877 
L 213.498992 105.514305 
L 216.373064 104.074733 
L 219.247137 102.635162 
L 222.121209 101.19559 
L 224.995282 99.756018 
L 227.869355 98.316447 
L 230.743427 96.876875 
L 233.6175 95.437303 
L 236.491573 93.997732 
L 239.365645 92.55816 
L 242.239718 91.118588 
L 245.11379 89.679017 
L 247.987863 88.239445 
L 250.861936 86.799873 
L 253.736008 85.360302 
L 256.610081 83.92073 
L 259.484153 82.481158 
L 262.358226 81.041587 
" clip-path="url(#p559b722447)" style="fill: none; stroke: #ff0000; stroke-width: 1.5; stroke-linecap: square"/>
   </g>
   <g id="line2d_15">
    <path d="M 207.750846 108.393448 
L 210.145907 106.713948 
L 212.540967 105.034448 
L 214.936028 103.354948 
L 217.331088 101.675447 
L 219.726149 99.995947 
L 222.121209 98.316447 
L 224.51627 96.636946 
L 226.911331 94.957446 
L 229.306391 93.277946 
L 231.701452 91.598446 
L 234.096512 89.918945 
L 236.491573 88.239445 
L 238.886633 86.559945 
L 241.281694 84.880445 
L 243.676754 83.200944 
L 246.071815 81.521444 
L 248.466875 79.841944 
L 250.861936 78.162443 
L 253.256996 76.482943 
" clip-path="url(#p559b722447)" style="fill: none; stroke: #000000; stroke-width: 1.5; stroke-linecap: square"/>
   </g>
   <g id="line2d_16">
    <path d="M 207.750846 108.393448 
L 209.666895 106.47402 
L 211.582943 104.554591 
L 213.498992 102.635162 
L 215.41504 100.715733 
L 217.331088 98.796304 
L 219.247137 96.876875 
L 221.163185 94.957446 
L 223.079234 93.038017 
L 224.995282 91.118588 
L 226.911331 89.19916 
L 228.827379 87.279731 
L 230.743427 85.360302 
L 232.659476 83.440873 
L 234.575524 81.521444 
L 236.491573 79.602015 
L 238.407621 77.682586 
L 240.323669 75.763157 
L 242.239718 73.843728 
L 244.155766 71.9243 
" clip-path="url(#p559b722447)" style="fill: none; stroke: #000000; stroke-width: 1.5; stroke-linecap: square"/>
   </g>
   <g id="line2d_17">
    <path d="M 207.750846 108.393448 
L 209.187883 106.234091 
L 210.624919 104.074733 
L 212.061955 101.915376 
L 213.498992 99.756018 
L 214.936028 97.596661 
L 216.373064 95.437303 
L 217.810101 93.277946 
L 219.247137 91.118588 
L 220.684173 88.959231 
L 222.121209 86.799873 
L 223.558246 84.640516 
L 224.995282 82.481158 
L 226.432318 80.321801 
L 227.869355 78.162443 
L 229.306391 76.003086 
L 230.743427 73.843728 
L 232.180464 71.684371 
L 233.6175 69.525013 
L 235.054536 67.365656 
" clip-path="url(#p559b722447)" style="fill: none; stroke: #000000; stroke-width: 1.5; stroke-linecap: square"/>
   </g>
   <g id="line2d_18">
    <path d="M 262.358226 26.337863 
L 260.92119 28.497221 
L 259.484153 30.656578 
L 258.047117 32.815936 
L 256.610081 34.975293 
L 255.173045 37.134651 
L 253.736008 39.294008 
L 252.298972 41.453366 
L 250.861936 43.612723 
L 249.424899 45.772081 
L 247.987863 47.931438 
L 246.550827 50.090796 
L 245.11379 52.250153 
L 243.676754 54.409511 
L 242.239718 56.568868 
L 240.802681 58.728226 
L 239.365645 60.887583 
L 237.928609 63.046941 
L 236.491573 65.206298 
L 235.054536 67.365656 
" clip-path="url(#p559b722447)" style="fill: none; stroke: #000000; stroke-width: 1.5; stroke-linecap: square"/>
   </g>
   <g id="line2d_19">
    <path d="M 262.358226 26.337863 
L 261.400202 28.737149 
L 260.442178 31.136436 
L 259.484153 33.535722 
L 258.526129 35.935008 
L 257.568105 38.334294 
L 256.610081 40.73358 
L 255.652057 43.132866 
L 254.694032 45.532152 
L 253.736008 47.931438 
L 252.777984 50.330725 
L 251.81996 52.730011 
L 250.861936 55.129297 
L 249.903911 57.528583 
L 248.945887 59.927869 
L 247.987863 62.327155 
L 247.029839 64.726441 
L 246.071815 67.125727 
L 245.11379 69.525013 
L 244.155766 71.9243 
" clip-path="url(#p559b722447)" style="fill: none; stroke: #000000; stroke-width: 1.5; stroke-linecap: square"/>
   </g>
   <g id="line2d_20">
    <path d="M 262.358226 26.337863 
L 261.879214 28.977078 
L 261.400202 31.616293 
L 260.92119 34.255508 
L 260.442178 36.894722 
L 259.963166 39.533937 
L 259.484153 42.173152 
L 259.005141 44.812366 
L 258.526129 47.451581 
L 258.047117 50.090796 
L 257.568105 52.730011 
L 257.089093 55.369225 
L 256.610081 58.00844 
L 256.131069 60.647655 
L 255.652057 63.28687 
L 255.173045 65.926084 
L 254.694032 68.565299 
L 254.21502 71.204514 
L 253.736008 73.843728 
L 253.256996 76.482943 
" clip-path="url(#p559b722447)" style="fill: none; stroke: #000000; stroke-width: 1.5; stroke-linecap: square"/>
   </g>
   <g id="line2d_21">
    <path d="M 262.358226 26.337863 
L 262.358226 29.217007 
L 262.358226 32.09615 
L 262.358226 34.975293 
L 262.358226 37.854437 
L 262.358226 40.73358 
L 262.358226 43.612723 
L 262.358226 46.491867 
L 262.358226 49.37101 
L 262.358226 52.250153 
L 262.358226 55.129297 
L 262.358226 58.00844 
L 262.358226 60.887583 
L 262.358226 63.766727 
L 262.358226 66.64587 
L 262.358226 69.525013 
L 262.358226 72.404157 
L 262.358226 75.2833 
L 262.358226 78.162443 
L 262.358226 81.041587 
" clip-path="url(#p559b722447)" style="fill: none; stroke: #000000; stroke-width: 1.5; stroke-linecap: square"/>
   </g>
   <g id="line2d_22">
    <path d="M 262.358226 26.337863 
L 262.837238 28.977078 
L 263.31625 31.616293 
L 263.795262 34.255508 
L 264.274274 36.894722 
L 264.753287 39.533937 
L 265.232299 42.173152 
L 265.711311 44.812366 
L 266.190323 47.451581 
L 266.669335 50.090796 
L 267.148347 52.730011 
L 267.627359 55.369225 
L 268.106371 58.00844 
L 268.585383 60.647655 
L 269.064395 63.28687 
L 269.543408 65.926084 
L 270.02242 68.565299 
L 270.501432 71.204514 
L 270.980444 73.843728 
L 271.459456 76.482943 
" clip-path="url(#p559b722447)" style="fill: none; stroke: #000000; stroke-width: 1.5; stroke-linecap: square"/>
   </g>
   <g id="line2d_23">
    <path d="M 262.358226 26.337863 
L 263.31625 28.737149 
L 264.274274 31.136436 
L 265.232299 33.535722 
L 266.190323 35.935008 
L 267.148347 38.334294 
L 268.106371 40.73358 
L 269.064395 43.132866 
L 270.02242 45.532152 
L 270.980444 47.931438 
L 271.938468 50.330725 
L 272.896492 52.730011 
L 273.854516 55.129297 
L 274.812541 57.528583 
L 275.770565 59.927869 
L 276.728589 62.327155 
L 277.686613 64.726441 
L 278.644638 67.125727 
L 279.602662 69.525013 
L 280.560686 71.9243 
" clip-path="url(#p559b722447)" style="fill: none; stroke: #000000; stroke-width: 1.5; stroke-linecap: square"/>
   </g>
   <g id="line2d_24">
    <path d="M 262.358226 26.337863 
L 263.795262 28.497221 
L 265.232299 30.656578 
L 266.669335 32.815936 
L 268.106371 34.975293 
L 269.543408 37.134651 
L 270.980444 39.294008 
L 272.41748 41.453366 
L 273.854516 43.612723 
L 275.291553 45.772081 
L 276.728589 47.931438 
L 278.165625 50.090796 
L 279.602662 52.250153 
L 281.039698 54.409511 
L 282.476734 56.568868 
L 283.913771 58.728226 
L 285.350807 60.887583 
L 286.787843 63.046941 
L 288.22488 65.206298 
L 289.661916 67.365656 
" clip-path="url(#p559b722447)" style="fill: none; stroke: #000000; stroke-width: 1.5; stroke-linecap: square"/>
   </g>
   <g id="line2d_25">
    <path d="M 316.965606 108.393448 
L 315.528569 106.234091 
L 314.091533 104.074733 
L 312.654497 101.915376 
L 311.21746 99.756018 
L 309.780424 97.596661 
L 308.343388 95.437303 
L 306.906352 93.277946 
L 305.469315 91.118588 
L 304.032279 88.959231 
L 302.595243 86.799873 
L 301.158206 84.640516 
L 299.72117 82.481158 
L 298.284134 80.321801 
L 296.847097 78.162443 
L 295.410061 76.003086 
L 293.973025 73.843728 
L 292.535988 71.684371 
L 291.098952 69.525013 
L 289.661916 67.365656 
" clip-path="url(#p559b722447)" style="fill: none; stroke: #000000; stroke-width: 1.5; stroke-linecap: square"/>
   </g>
   <g id="line2d_26">
    <path d="M 316.965606 108.393448 
L 315.049557 106.47402 
L 313.133509 104.554591 
L 311.21746 102.635162 
L 309.301412 100.715733 
L 307.385364 98.796304 
L 305.469315 96.876875 
L 303.553267 94.957446 
L 301.637218 93.038017 
L 299.72117 91.118588 
L 297.805122 89.19916 
L 295.889073 87.279731 
L 293.973025 85.360302 
L 292.056976 83.440873 
L 290.140928 81.521444 
L 288.22488 79.602015 
L 286.308831 77.682586 
L 284.392783 75.763157 
L 282.476734 73.843728 
L 280.560686 71.9243 
" clip-path="url(#p559b722447)" style="fill: none; stroke: #000000; stroke-width: 1.5; stroke-linecap: square"/>
   </g>
   <g id="line2d_27">
    <path d="M 316.965606 108.393448 
L 314.570545 106.713948 
L 312.175485 105.034448 
L 309.780424 103.354948 
L 307.385364 101.675447 
L 304.990303 99.995947 
L 302.595243 98.316447 
L 300.200182 96.636946 
L 297.805122 94.957446 
L 295.410061 93.277946 
L 293.015001 91.598446 
L 290.61994 89.918945 
L 288.22488 88.239445 
L 285.829819 86.559945 
L 283.434759 84.880445 
L 281.039698 83.200944 
L 278.644638 81.521444 
L 276.249577 79.841944 
L 273.854516 78.162443 
L 271.459456 76.482943 
" clip-path="url(#p559b722447)" style="fill: none; stroke: #000000; stroke-width: 1.5; stroke-linecap: square"/>
   </g>
   <g id="line2d_28">
    <path d="M 316.965606 108.393448 
L 314.091533 106.953877 
L 311.21746 105.514305 
L 308.343388 104.074733 
L 305.469315 102.635162 
L 302.595243 101.19559 
L 299.72117 99.756018 
L 296.847097 98.316447 
L 293.973025 96.876875 
L 291.098952 95.437303 
L 288.22488 93.997732 
L 285.350807 92.55816 
L 282.476734 91.118588 
L 279.602662 89.679017 
L 276.728589 88.239445 
L 273.854516 86.799873 
L 270.980444 85.360302 
L 268.106371 83.92073 
L 265.232299 82.481158 
L 262.358226 81.041587 
" clip-path="url(#p559b722447)" style="fill: none; stroke: #000000; stroke-width: 1.5; stroke-linecap: square"/>
   </g>
   <g id="line2d_29">
    <path d="M 316.965606 108.393448 
L 314.091533 107.433734 
L 311.21746 106.47402 
L 308.343388 105.514305 
L 305.469315 104.554591 
L 302.595243 103.594876 
L 299.72117 102.635162 
L 296.847097 101.675447 
L 293.973025 100.715733 
L 291.098952 99.756018 
L 288.22488 98.796304 
L 285.350807 97.83659 
L 282.476734 96.876875 
L 279.602662 95.917161 
L 276.728589 94.957446 
L 273.854516 93.997732 
L 270.980444 93.038017 
L 268.106371 92.078303 
L 265.232299 91.118588 
L 262.358226 90.158874 
" clip-path="url(#p559b722447)" style="fill: none; stroke: #000000; stroke-width: 1.5; stroke-linecap: square"/>
   </g>
   <g id="line2d_30">
    <path d="M 316.965606 108.393448 
L 314.091533 107.913591 
L 311.21746 107.433734 
L 308.343388 106.953877 
L 305.469315 106.47402 
L 302.595243 105.994162 
L 299.72117 105.514305 
L 296.847097 105.034448 
L 293.973025 104.554591 
L 291.098952 104.074733 
L 288.22488 103.594876 
L 285.350807 103.115019 
L 282.476734 102.635162 
L 279.602662 102.155305 
L 276.728589 101.675447 
L 273.854516 101.19559 
L 270.980444 100.715733 
L 268.106371 100.235876 
L 265.232299 99.756018 
L 262.358226 99.276161 
" clip-path="url(#p559b722447)" style="fill: none; stroke: #000000; stroke-width: 1.5; stroke-linecap: square"/>
   </g>
   <g id="line2d_31">
    <path d="M 316.965606 108.393448 
L 314.091533 108.393448 
L 311.21746 108.393448 
L 308.343388 108.393448 
L 305.469315 108.393448 
L 302.595243 108.393448 
L 299.72117 108.393448 
L 296.847097 108.393448 
L 293.973025 108.393448 
L 291.098952 108.393448 
L 288.22488 108.393448 
L 285.350807 108.393448 
L 282.476734 108.393448 
L 279.602662 108.393448 
L 276.728589 108.393448 
L 273.854516 108.393448 
L 270.980444 108.393448 
L 268.106371 108.393448 
L 265.232299 108.393448 
L 262.358226 108.393448 
" clip-path="url(#p559b722447)" style="fill: none; stroke: #000000; stroke-width: 1.5; stroke-linecap: square"/>
   </g>
   <g id="LineCollection_1">
    <path d="M 235.054536 67.365656 
L 289.661916 67.365656 
" clip-path="url(#p559b722447)" style="fill: none; stroke-dasharray: 1.5,2.475; stroke-dashoffset: 0; stroke: #000000; stroke-width: 1.5"/>
    <path d="M 289.661916 67.365656 
L 262.358226 108.393448 
" clip-path="url(#p559b722447)" style="fill: none; stroke-dasharray: 1.5,2.475; stroke-dashoffset: 0; stroke: #000000; stroke-width: 1.5"/>
    <path d="M 262.358226 108.393448 
L 235.054536 67.365656 
" clip-path="url(#p559b722447)" style="fill: none; stroke-dasharray: 1.5,2.475; stroke-dashoffset: 0; stroke: #000000; stroke-width: 1.5"/>
   </g>
   <g id="LineCollection_2">
    <path d="M 207.750846 108.393448 
L 262.358226 26.337863 
" clip-path="url(#p559b722447)" style="fill: none; stroke: #000000; stroke-width: 1.5"/>
    <path d="M 262.358226 26.337863 
L 316.965606 108.393448 
" clip-path="url(#p559b722447)" style="fill: none; stroke: #000000; stroke-width: 1.5"/>
    <path d="M 316.965606 108.393448 
L 207.750846 108.393448 
" clip-path="url(#p559b722447)" style="fill: none; stroke: #000000; stroke-width: 1.5"/>
   </g>
   <g id="text_9">
    <!-- $J_x$ -->
    <g transform="translate(195.460053 117.387477)scale(0.13 -0.13)">
     <defs>
      <path id="CMMI12-4a" d="M 3418 3911 
C 3469 4102 3482 4166 3795 4166 
C 3898 4166 3962 4166 3962 4281 
C 3962 4352 3904 4352 3878 4352 
C 3770 4352 3648 4339 3533 4339 
L 3181 4339 
C 2912 4339 2630 4352 2362 4352 
C 2304 4352 2227 4352 2227 4236 
C 2227 4172 2278 4172 2278 4166 
L 2438 4166 
C 2950 4166 2950 4115 2950 4019 
C 2950 4013 2950 3968 2925 3866 
L 2189 953 
C 2022 304 1594 0 1286 0 
C 1069 0 762 99 685 428 
C 710 422 742 415 768 415 
C 979 415 1146 601 1146 787 
C 1146 889 1082 1024 890 1024 
C 774 1024 506 959 506 543 
C 506 149 838 -128 1299 -128 
C 1882 -128 2509 304 2662 908 
L 3418 3911 
z
" transform="scale(0.015625)"/>
      <path id="CMMI12-78" d="M 3034 2624 
C 2829 2585 2752 2431 2752 2310 
C 2752 2156 2874 2105 2963 2105 
C 3155 2105 3290 2271 3290 2444 
C 3290 2694 2982 2816 2714 2816 
C 2323 2816 2106 2451 2048 2329 
C 1901 2790 1504 2816 1389 2816 
C 736 2816 390 1993 390 1849 
C 390 1823 416 1790 461 1790 
C 512 1790 525 1829 538 1855 
C 755 2572 1184 2687 1370 2687 
C 1658 2687 1715 2438 1715 2284 
C 1715 2143 1677 1993 1600 1678 
L 1382 778 
C 1286 390 1101 64 762 64 
C 730 64 570 64 435 126 
C 666 166 717 358 717 435 
C 717 563 621 640 499 640 
C 346 640 179 505 179 300 
C 179 57 480 -64 755 -64 
C 1062 -64 1280 153 1414 415 
C 1517 64 1837 -64 2074 -64 
C 2726 -64 3072 751 3072 896 
C 3072 929 3046 955 3008 955 
C 2950 955 2944 922 2925 870 
C 2752 300 2381 64 2093 64 
C 1869 64 1747 204 1747 467 
C 1747 607 1773 712 1875 1146 
L 2099 2039 
C 2195 2425 2413 2687 2707 2687 
C 2720 2687 2899 2687 3034 2624 
z
" transform="scale(0.015625)"/>
     </defs>
     <use xlink:href="#CMMI12-4a" transform="scale(0.996264)"/>
     <use xlink:href="#CMMI12-78" transform="translate(53.917955 -14.943915)scale(0.697382)"/>
    </g>
   </g>
   <g id="text_10">
    <!-- $J_y$ -->
    <g transform="translate(256.559111 21.684857)scale(0.13 -0.13)">
     <defs>
      <path id="CMMI12-79" d="M 1683 -673 
C 1510 -921 1261 -1152 947 -1152 
C 870 -1152 563 -1139 467 -826 
C 486 -833 518 -833 531 -833 
C 723 -833 851 -666 851 -519 
C 851 -372 730 -320 634 -320 
C 531 -320 307 -397 307 -711 
C 307 -1050 582 -1280 947 -1280 
C 1587 -1280 2234 -673 2413 -7 
L 3040 2483 
C 3046 2515 3059 2553 3059 2591 
C 3059 2687 2982 2752 2886 2752 
C 2829 2752 2694 2726 2643 2534 
L 2170 657 
C 2138 542 2138 530 2086 459 
C 1958 281 1747 64 1440 64 
C 1082 64 1050 415 1050 587 
C 1050 951 1222 1443 1395 1902 
C 1466 2087 1504 2177 1504 2305 
C 1504 2573 1312 2816 998 2816 
C 410 2816 173 1890 173 1838 
C 173 1813 198 1781 243 1781 
C 301 1781 307 1807 333 1896 
C 486 2432 730 2687 979 2687 
C 1037 2687 1146 2687 1146 2477 
C 1146 2311 1075 2126 979 1883 
C 666 1047 666 836 666 683 
C 666 76 1101 -64 1421 -64 
C 1606 -64 1837 -7 2061 230 
L 2067 223 
C 1971 -141 1907 -359 1683 -673 
z
" transform="scale(0.015625)"/>
     </defs>
     <use xlink:href="#CMMI12-4a" transform="scale(0.996264)"/>
     <use xlink:href="#CMMI12-79" transform="translate(53.917955 -14.943915)scale(0.697382)"/>
    </g>
   </g>
   <g id="text_11">
    <!-- $J_z$ -->
    <g transform="translate(316.965606 117.387477)scale(0.13 -0.13)">
     <defs>
      <path id="CMMI12-7a" d="M 813 486 
C 1088 809 1312 1015 1632 1313 
C 2016 1657 2182 1822 2272 1922 
C 2720 2371 2944 2713 2944 2764 
C 2944 2816 2893 2816 2880 2816 
C 2835 2816 2822 2790 2790 2745 
C 2630 2470 2477 2368 2310 2368 
C 2176 2368 2106 2403 1984 2547 
C 1850 2707 1741 2816 1555 2816 
C 1088 2816 806 2265 806 2127 
C 806 2107 813 2067 870 2067 
C 922 2067 928 2094 947 2140 
C 1056 2387 1363 2415 1485 2415 
C 1619 2415 1747 2387 1882 2342 
C 2125 2239 2227 2239 2291 2239 
C 2336 2239 2362 2239 2394 2246 
C 2182 1988 1837 1670 1549 1399 
L 902 783 
C 512 380 275 32 275 -13 
C 275 -52 307 -64 346 -64 
C 384 -64 390 -58 435 19 
C 538 179 742 384 979 384 
C 1114 384 1178 356 1306 211 
C 1427 70 1536 -64 1741 -64 
C 2368 -64 2726 723 2726 876 
C 2726 902 2720 942 2656 942 
C 2605 942 2598 915 2579 849 
C 2438 460 2061 336 1811 336 
C 1677 336 1549 364 1414 409 
C 1158 512 1088 512 1005 512 
C 941 512 870 512 813 486 
z
" transform="scale(0.015625)"/>
     </defs>
     <use xlink:href="#CMMI12-4a" transform="scale(0.996264)"/>
     <use xlink:href="#CMMI12-7a" transform="translate(53.917955 -14.943915)scale(0.697382)"/>
    </g>
   </g>
  </g>
  <g id="axes_3">
   <g id="patch_7">
    <path d="M 357.284503 108.393448 
L 411.891882 26.337863 
L 466.499262 108.393448 
z
" clip-path="url(#p49824f222f)" style="fill: #ffffff"/>
   </g>
   <g id="patch_8">
    <path d="M 411.888272 108.393448 
L 411.81172 106.442612 
L 411.645497 104.50367 
L 411.362885 102.589113 
L 410.993922 100.707137 
L 410.536085 98.86746 
L 409.973051 97.083126 
L 409.303842 95.365669 
L 408.538979 93.723476 
L 407.704072 92.158566 
L 406.827303 90.668374 
L 405.928579 89.24956 
L 405.025386 87.896972 
L 404.126766 86.606884 
L 403.241753 85.374282 
L 403.241753 85.374282 
L 402.337201 84.155794 
L 401.386354 82.905183 
L 400.384199 81.624492 
L 399.327282 80.315478 
L 398.2142 78.979035 
L 397.037362 77.621134 
L 395.789731 76.249146 
L 394.461657 74.874977 
L 393.041277 73.516216 
L 391.521975 72.190134 
L 389.903881 70.911089 
L 388.197904 69.683522 
L 386.420236 68.50436 
L 384.586388 67.368368 
L 384.589998 67.362944 
L 386.592272 68.253348 
L 388.612174 69.092628 
L 390.655555 69.852443 
L 392.726617 70.495745 
L 394.815853 71.00394 
L 396.905184 71.377282 
L 398.970149 71.643722 
L 400.99253 71.831956 
L 402.960927 71.966095 
L 404.870081 72.060096 
L 406.717444 72.126042 
L 408.503086 72.167336 
L 410.227435 72.190925 
L 411.891882 72.196635 
L 411.891882 72.196635 
L 413.556212 72.187675 
L 415.280164 72.16036 
L 417.064696 72.111665 
L 418.910545 72.039659 
L 420.817971 71.941231 
L 422.785986 71.810047 
L 424.812696 71.640498 
L 426.897034 71.432739 
L 429.029344 71.164629 
L 431.165124 70.744529 
L 433.229494 70.059981 
L 435.232498 69.204488 
L 437.214388 68.29128 
L 439.193767 67.362944 
L 439.197377 67.368368 
L 437.247243 68.345156 
L 435.297108 69.321943 
L 433.346973 70.298731 
L 431.537193 71.423932 
L 429.980357 72.772832 
L 428.598598 74.22267 
L 427.311199 75.679113 
L 426.096171 77.117795 
L 424.946368 78.53117 
L 423.863061 79.919166 
L 422.839683 81.276752 
L 421.876672 82.604227 
L 420.966229 83.897381 
L 420.106208 85.155996 
L 420.106208 85.155996 
L 419.264829 86.424485 
L 418.412112 87.74831 
L 417.550461 89.129635 
L 416.68961 90.572902 
L 415.843922 92.082648 
L 415.036668 93.663908 
L 414.303536 95.321495 
L 413.670508 97.053029 
L 413.147351 98.849513 
L 412.724203 100.697743 
L 412.37522 102.584213 
L 412.105365 104.501315 
L 411.950282 106.441833 
L 411.895492 108.393448 
z
" clip-path="url(#p49824f222f)" style="fill: #f98e09; stroke: #000000; stroke-linejoin: miter"/>
   </g>
   <g id="PathCollection_1">
    <defs>
     <path id="mc73468d95a" d="M 0 0.866025 
C 0.229673 0.866025 0.449969 0.774776 0.612372 0.612372 
C 0.774776 0.449969 0.866025 0.229673 0.866025 0 
C 0.866025 -0.229673 0.774776 -0.449969 0.612372 -0.612372 
C 0.449969 -0.774776 0.229673 -0.866025 0 -0.866025 
C -0.229673 -0.866025 -0.449969 -0.774776 -0.612372 -0.612372 
C -0.774776 -0.449969 -0.866025 -0.229673 -0.866025 0 
C -0.866025 0.229673 -0.774776 0.449969 -0.612372 0.612372 
C -0.449969 0.774776 -0.229673 0.866025 0 0.866025 
z
" style="stroke: #000000"/>
    </defs>
    <g clip-path="url(#p49824f222f)">
     <use xlink:href="#mc73468d95a" x="411.888272" y="108.393448" style="stroke: #000000"/>
     <use xlink:href="#mc73468d95a" x="410.993922" y="100.707137" style="stroke: #000000"/>
     <use xlink:href="#mc73468d95a" x="408.538979" y="93.723476" style="stroke: #000000"/>
     <use xlink:href="#mc73468d95a" x="405.025386" y="87.896972" style="stroke: #000000"/>
     <use xlink:href="#mc73468d95a" x="402.337201" y="84.155794" style="stroke: #000000"/>
     <use xlink:href="#mc73468d95a" x="398.2142" y="78.979035" style="stroke: #000000"/>
     <use xlink:href="#mc73468d95a" x="393.041277" y="73.516216" style="stroke: #000000"/>
     <use xlink:href="#mc73468d95a" x="386.420236" y="68.50436" style="stroke: #000000"/>
     <use xlink:href="#mc73468d95a" x="388.612174" y="69.092628" style="stroke: #000000"/>
     <use xlink:href="#mc73468d95a" x="396.905184" y="71.377282" style="stroke: #000000"/>
     <use xlink:href="#mc73468d95a" x="404.870081" y="72.060096" style="stroke: #000000"/>
     <use xlink:href="#mc73468d95a" x="411.891882" y="72.196635" style="stroke: #000000"/>
     <use xlink:href="#mc73468d95a" x="417.064696" y="72.111665" style="stroke: #000000"/>
     <use xlink:href="#mc73468d95a" x="424.812696" y="71.640498" style="stroke: #000000"/>
     <use xlink:href="#mc73468d95a" x="433.229494" y="70.059981" style="stroke: #000000"/>
     <use xlink:href="#mc73468d95a" x="439.197377" y="67.368368" style="stroke: #000000"/>
     <use xlink:href="#mc73468d95a" x="431.537193" y="71.423932" style="stroke: #000000"/>
     <use xlink:href="#mc73468d95a" x="426.096171" y="77.117795" style="stroke: #000000"/>
     <use xlink:href="#mc73468d95a" x="421.876672" y="82.604227" style="stroke: #000000"/>
     <use xlink:href="#mc73468d95a" x="419.264829" y="86.424485" style="stroke: #000000"/>
     <use xlink:href="#mc73468d95a" x="415.843922" y="92.082648" style="stroke: #000000"/>
     <use xlink:href="#mc73468d95a" x="413.147351" y="98.849513" style="stroke: #000000"/>
     <use xlink:href="#mc73468d95a" x="411.950282" y="106.441833" style="stroke: #000000"/>
    </g>
   </g>
   <g id="LineCollection_3">
    <path d="M 384.588193 67.365656 
L 439.195572 67.365656 
" clip-path="url(#p49824f222f)" style="fill: none; stroke-dasharray: 1.5,2.475; stroke-dashoffset: 0; stroke: #000000; stroke-width: 1.5"/>
    <path d="M 439.195572 67.365656 
L 411.891882 108.393448 
" clip-path="url(#p49824f222f)" style="fill: none; stroke-dasharray: 1.5,2.475; stroke-dashoffset: 0; stroke: #000000; stroke-width: 1.5"/>
    <path d="M 411.891882 108.393448 
L 384.588193 67.365656 
" clip-path="url(#p49824f222f)" style="fill: none; stroke-dasharray: 1.5,2.475; stroke-dashoffset: 0; stroke: #000000; stroke-width: 1.5"/>
   </g>
   <g id="LineCollection_4">
    <path d="M 357.284503 108.393448 
L 411.891882 26.337863 
" clip-path="url(#p49824f222f)" style="fill: none; stroke: #000000; stroke-width: 1.5"/>
    <path d="M 411.891882 26.337863 
L 466.499262 108.393448 
" clip-path="url(#p49824f222f)" style="fill: none; stroke: #000000; stroke-width: 1.5"/>
    <path d="M 466.499262 108.393448 
L 357.284503 108.393448 
" clip-path="url(#p49824f222f)" style="fill: none; stroke: #000000; stroke-width: 1.5"/>
   </g>
   <g id="text_12">
    <!-- $B$ -->
    <g transform="translate(407.074863 84.279445)scale(0.13 -0.13)">
     <defs>
      <path id="CMMI12-42" d="M 2342 3915 
C 2400 4153 2426 4166 2675 4166 
L 3507 4166 
C 4230 4166 4230 3547 4230 3489 
C 4230 2967 3712 2304 2867 2304 
L 1946 2304 
L 2342 3915 
z
M 3424 2252 
C 4122 2381 4755 2871 4755 3463 
C 4755 3966 4314 4352 3590 4352 
L 1536 4352 
C 1414 4352 1357 4352 1357 4230 
C 1357 4166 1414 4166 1510 4166 
C 1901 4166 1901 4114 1901 4043 
C 1901 4031 1901 3992 1875 3895 
L 1011 469 
C 954 248 941 185 493 185 
C 371 185 307 185 307 70 
C 307 0 346 0 474 0 
L 2669 0 
C 3648 0 4403 733 4403 1369 
C 4403 1886 3942 2201 3424 2252 
z
M 2515 185 
L 1651 185 
C 1562 185 1549 185 1510 191 
C 1440 198 1434 210 1434 261 
C 1434 305 1446 343 1459 399 
L 1907 2176 
L 3110 2176 
C 3866 2176 3866 1483 3866 1432 
C 3866 828 3309 185 2515 185 
z
" transform="scale(0.015625)"/>
     </defs>
     <use xlink:href="#CMMI12-42" transform="scale(0.996264)"/>
    </g>
   </g>
   <g id="text_13">
    <!-- $A_x$ -->
    <g transform="translate(437.26227 100.690562)scale(0.13 -0.13)">
     <defs>
      <path id="CMMI12-41" d="M 1088 720 
C 864 335 646 205 339 185 
C 269 179 218 179 218 64 
C 218 25 250 0 294 0 
C 410 0 698 12 813 12 
C 998 12 1203 0 1382 0 
C 1421 0 1498 0 1498 121 
C 1498 179 1446 185 1408 185 
C 1261 198 1139 250 1139 407 
C 1139 498 1178 570 1261 714 
L 1747 1536 
L 3379 1536 
C 3386 1477 3386 1425 3392 1366 
C 3411 1196 3488 518 3488 394 
C 3488 198 3162 185 3059 185 
C 2989 185 2918 185 2918 70 
C 2918 0 2976 0 3014 0 
C 3123 0 3251 12 3360 12 
L 3725 12 
C 4115 12 4397 0 4403 0 
C 4448 0 4518 0 4518 121 
C 4518 185 4461 185 4365 185 
C 4013 185 4006 244 3987 440 
L 3597 4403 
C 3584 4531 3558 4544 3488 4544 
C 3424 4544 3386 4531 3328 4435 
L 1088 720 
z
M 1856 1721 
L 3142 3831 
L 3360 1721 
L 1856 1721 
z
" transform="scale(0.015625)"/>
     </defs>
     <use xlink:href="#CMMI12-41" transform="scale(0.996264)"/>
     <use xlink:href="#CMMI12-78" transform="translate(73.127885 -14.943915)scale(0.697382)"/>
    </g>
   </g>
   <g id="text_14">
    <!-- $A_y$ -->
    <g transform="translate(404.844123 50.791669)scale(0.13 -0.13)">
     <use xlink:href="#CMMI12-41" transform="scale(0.996264)"/>
     <use xlink:href="#CMMI12-79" transform="translate(73.127885 -14.943915)scale(0.697382)"/>
    </g>
   </g>
   <g id="text_15">
    <!-- $A_z$ -->
    <g transform="translate(372.207352 100.690562)scale(0.13 -0.13)">
     <use xlink:href="#CMMI12-41" transform="scale(0.996264)"/>
     <use xlink:href="#CMMI12-7a" transform="translate(73.127885 -14.943915)scale(0.697382)"/>
    </g>
   </g>
  </g>
 </g>
 <defs>
  <clipPath id="pfb9ace97ef">
   <rect x="52.756452" y="22.235084" width="120.136235" height="90.261144"/>
  </clipPath>
  <clipPath id="p559b722447">
   <rect x="202.290108" y="22.235084" width="120.136235" height="90.261144"/>
  </clipPath>
  <clipPath id="p49824f222f">
   <rect x="351.823765" y="22.235084" width="120.136235" height="90.261144"/>
  </clipPath>
 </defs>
</svg>
