<?xml version="1.0" encoding="UTF-8" standalone="no"?>
<!-- Created with Inkscape (http://www.inkscape.org/) -->

<svg
   width="250mm"
   height="250mm"
   viewBox="0 0 250 250"
   version="1.1"
   id="svg5"
   xml:space="preserve"
   sodipodi:docname="thumbnail.svg"
   inkscape:version="1.2.2 (b0a84865, 2022-12-01)"
   xmlns:inkscape="http://www.inkscape.org/namespaces/inkscape"
   xmlns:sodipodi="http://sodipodi.sourceforge.net/DTD/sodipodi-0.dtd"
   xmlns="http://www.w3.org/2000/svg"
   xmlns:svg="http://www.w3.org/2000/svg"><sodipodi:namedview
     id="namedview7"
     pagecolor="#ffffff"
     bordercolor="#000000"
     borderopacity="0.25"
     inkscape:showpageshadow="2"
     inkscape:pageopacity="0.0"
     inkscape:pagecheckerboard="0"
     inkscape:deskcolor="#d1d1d1"
     inkscape:document-units="mm"
     showgrid="false"
     inkscape:zoom="0.33165719"
     inkscape:cx="432.67568"
     inkscape:cy="107.03824"
     inkscape:window-width="1390"
     inkscape:window-height="1205"
     inkscape:window-x="166"
     inkscape:window-y="43"
     inkscape:window-maximized="0"
     inkscape:current-layer="g2512" /><defs
     id="defs2" /><g
     inkscape:label="Layer 1"
     inkscape:groupmode="layer"
     id="layer1"
     transform="translate(-1.8192797,-13.999887)"><g
       id="g2512"
       transform="matrix(3.1226268,0,0,3.1226268,-3.8616521,-29.716538)"><path
         style="fill:none;stroke:none;stroke-width:0.6858;stroke-dasharray:none;stroke-opacity:1"
         d="m 2.1621798,54.030288 v -39.6875 H 41.84968 81.53718 v 39.6875 39.6875 H 41.84968 2.1621798 Z"
         id="path406" /><path
         style="fill:none;stroke:#000000;stroke-width:0.6858;stroke-dasharray:none;stroke-opacity:1"
         d="m 30.779229,93.452872 -0.150034,-0.7276 c -0.416208,-2.01845 -0.950344,-5.52016 -0.950344,-6.23032 0,-0.44175 -0.07704,-0.72615 -0.171188,-0.632 -0.372642,0.37264 -1.114263,2.99155 -0.990388,3.49738 0.07242,0.29572 -0.05258,0.89103 -0.277786,1.32292 -0.225204,0.43189 -0.310474,0.99354 -0.311371,1.30906 -0.002,0.685905 -0.115251,0.895165 -0.484417,1.219779 m -6.584299,0.06472 c -0.09701,-0.097 -0.176711,-0.60302 -0.177104,-1.12448 -6.09e-4,-0.82371 -0.130783,-1.01817 -0.992188,-1.48231 -0.857599,-0.46208 -0.978182,-0.64071 -0.893041,-1.32291 0.119249,-0.95551 0.155688,-6.72556 0.07079,-11.20876 -0.05065,-2.67466 -0.159576,-3.46748 -0.593145,-4.31734 -0.518574,-1.01649 -0.521126,-1.12266 -0.108191,-4.50171 0.232599,-1.90337 0.533212,-3.66678 0.668028,-3.91869 0.134816,-0.2519 0.313209,-1.18687 0.39643,-2.07771 0.135857,-1.45429 0.1013,-1.6197 -0.338382,-1.6197 -0.269331,0 -0.720808,-0.1748 -1.003282,-0.38846 -0.282475,-0.21365 -0.846926,-0.39224 -1.254334,-0.39687 -1.78881,-0.0203 -3.456505,-1.69851 -3.765424,-3.78912 -0.144882,-0.9805 -0.09223,-1.37216 0.23276,-1.73127 0.379584,-0.41943 0.578215,-1.41289 1.490067,-7.45261 0.356484,-2.36121 0.831608,-4.00768 1.603371,-5.55625 0.874045,-1.7538 1.2908,-2.14504 3.108757,-2.91842 0.769792,-0.32748 1.507772,-0.79749 1.639956,-1.04448 0.139078,-0.25987 0.998532,-0.65024 2.039961,-0.92657 0.989795,-0.26263 1.948456,-0.5942 2.130357,-0.73683 0.519401,-0.40726 0.382772,-1.23251 -0.551469,-3.33089 -0.777251,-1.74576 -0.847627,-2.10391 -0.684792,-3.48493 0.271566,-2.30318 1.138963,-3.67996 2.871205,-4.55736 1.936786,-0.981 3.164378,-0.93876 5.178077,0.17816 1.225479,0.67972 1.720771,1.14446 2.171907,2.0379 0.851117,1.68558 0.811588,3.95411 -0.107913,6.19314 -0.711722,1.73307 -0.712473,1.74202 -0.22292,2.65107 0.270166,0.50167 0.682504,0.91213 0.916305,0.91213 0.65304,0 3.317029,1.02791 3.413949,1.31729 0.04725,0.14108 0.844319,0.62987 1.771263,1.0862 0.926944,0.45634 1.851867,1.02497 2.055384,1.26362 0.515805,0.60487 1.921687,5.03766 2.403298,7.57768 0.220736,1.16416 0.585779,2.90554 0.811207,3.86972 0.22543,0.96419 0.432626,2.81966 0.460439,4.12328 0.04772,2.23636 0.0067,2.43192 -0.725758,3.46276 -0.993815,1.39862 -1.756153,1.70331 -4.238011,1.69384 l -2.015604,-0.008 0.20455,1.23425 c 0.112503,0.67884 0.230859,1.61109 0.263014,2.07167 0.03215,0.46058 0.245668,1.17496 0.474472,1.5875 0.444765,0.80193 0.807167,1.97646 1.340541,4.34466 0.351599,1.56112 0.197302,3.90875 -0.297072,4.51992 -0.320011,0.39562 -1.276376,13.68669 -1.047745,14.56098 0.215625,0.82455 -0.252669,1.49238 -1.221266,1.74164 -0.660998,0.1701 -0.872694,0.38055 -0.937509,0.93202 l -0.08372,0.7123"
         id="path404"
         sodipodi:nodetypes="cssssssccsssssssssscsssssssssssssssssscssscccssssssssc" /></g></g></svg>
