<?xml version="1.0" encoding="UTF-8" standalone="no"?>
<!-- Created with Inkscape (http://www.inkscape.org/) -->

<svg
   version="1.1"
   id="svg3276"
   width="500"
   height="500"
   viewBox="0 0 500 499.99998"
   sodipodi:docname="bw_thumbnail.svg"
   inkscape:version="1.2.2 (b0a84865, 2022-12-01)"
   xmlns:inkscape="http://www.inkscape.org/namespaces/inkscape"
   xmlns:sodipodi="http://sodipodi.sourceforge.net/DTD/sodipodi-0.dtd"
   xmlns="http://www.w3.org/2000/svg"
   xmlns:svg="http://www.w3.org/2000/svg">
  <defs
     id="defs3280">
    <clipPath
       clipPathUnits="userSpaceOnUse"
       id="clipPath3292">
      <path
         d="m 4610,4220 h 7643 v 7594 H 4610 V 4220"
         id="path3290" />
    </clipPath>
    <clipPath
       clipPathUnits="userSpaceOnUse"
       id="clipPath3612">
      <path
         d="M 0,0 H 19842 V 14031 H 0 V 0"
         id="path3610" />
    </clipPath>
    <clipPath
       clipPathUnits="userSpaceOnUse"
       id="clipPath3672">
      <path
         d="M 0,0 H 19842 V 14031 H 0 V 0"
         id="path3670" />
    </clipPath>
    <clipPath
       clipPathUnits="userSpaceOnUse"
       id="clipPath3684">
      <path
         d="M 0,0 H 19842 V 14031 H 0 V 0"
         id="path3682" />
    </clipPath>
    <clipPath
       clipPathUnits="userSpaceOnUse"
       id="clipPath3292-7">
      <path
         d="m 4610,4220 h 7643 v 7594 H 4610 V 4220"
         id="path3290-6" />
    </clipPath>
  </defs>
  <sodipodi:namedview
     id="namedview3278"
     pagecolor="#ffffff"
     bordercolor="#000000"
     borderopacity="0.25"
     inkscape:showpageshadow="2"
     inkscape:pageopacity="0.0"
     inkscape:pagecheckerboard="0"
     inkscape:deskcolor="#d1d1d1"
     showgrid="false"
     inkscape:zoom="0.21021375"
     inkscape:cx="-340.12998"
     inkscape:cy="337.75145"
     inkscape:window-width="1352"
     inkscape:window-height="456"
     inkscape:window-x="0"
     inkscape:window-y="35"
     inkscape:window-maximized="0"
     inkscape:current-layer="g3284">
    <inkscape:page
       x="0"
       y="0"
       id="page3282"
       width="500"
       height="499.99997" />
  </sodipodi:namedview>
  <g
     id="g3284"
     inkscape:groupmode="layer"
     inkscape:label="Page 1"
     transform="matrix(0.08,0,0,-0.08,-571.25915,896.73763)">
    <g
       id="g3288"
       clip-path="url(#clipPath3292-7)"
       transform="matrix(0.7496506,0,0,0.7496506,3945.0017,2073.9833)">
      <path
         d="m 8451.0371,11307.419 c 0.4444,-6.542 4.9053,-12.777 12.5811,-17.585"
         style="fill:none;stroke:#000000;stroke-width:12;stroke-linecap:round;stroke-linejoin:round;stroke-miterlimit:10;stroke-dasharray:none;stroke-opacity:1"
         id="path3294" />
      <path
         d="m 8465,10519 v 729"
         style="fill:none;stroke:#000000;stroke-width:12;stroke-linecap:round;stroke-linejoin:round;stroke-miterlimit:10;stroke-dasharray:none;stroke-opacity:1"
         id="path3296" />
      <g
         id="g3298"
         transform="matrix(0.86609,-0.49989,0.49989,0.86609,11071.5,4460.5)">
        <path
           d="m -18.66625,-34.88156 c 4.80786,-7.67599 11.0435,-12.13734 17.58555,-12.58175"
           style="fill:none;stroke:#000000;stroke-width:12;stroke-linecap:round;stroke-linejoin:round;stroke-miterlimit:10;stroke-dasharray:none;stroke-opacity:1"
           id="path3300" />
      </g>
      <path
         d="M 10950,4492 9369,5404"
         style="fill:none;stroke:#000000;stroke-width:12;stroke-linecap:round;stroke-linejoin:round;stroke-miterlimit:10;stroke-dasharray:none;stroke-opacity:1"
         id="path3302" />
      <path
         d="m 11341.65,4613.5894 c 17.768,-8.7857 43.932,-8.7857 61.7,0"
         style="fill:none;stroke:#000000;stroke-width:12;stroke-linecap:round;stroke-linejoin:round;stroke-miterlimit:10;stroke-dasharray:none;stroke-opacity:1"
         id="path3304" />
      <g
         id="g3306"
         transform="matrix(0.86604,0.49997,-0.49997,0.86604,11038.5,4788.5)">
        <path
           d="m -159.44307,-323.54742 c 91.82756,-135.93677 227.05858,-135.93677 318.88614,0"
           style="fill:none;stroke:#000000;stroke-width:12;stroke-linecap:round;stroke-linejoin:round;stroke-miterlimit:10;stroke-dasharray:none;stroke-opacity:1"
           id="path3308" />
      </g>
      <g
         id="g3310"
         transform="matrix(0.86604,0.49997,-0.49997,0.86604,11071.5,4807.5)">
        <path
           d="m 10.70874,-472.13501 c 64.8258,4.42069 126.61527,48.79935 174.25679,125.15533"
           style="fill:none;stroke:#000000;stroke-width:12;stroke-linecap:round;stroke-linejoin:round;stroke-miterlimit:10;stroke-dasharray:none;stroke-opacity:1"
           id="path3312" />
      </g>
      <path
         d="m 11341.65,9628.5889 c 17.768,-8.7852 43.932,-8.7852 61.7,0"
         style="fill:none;stroke:#000000;stroke-width:12;stroke-linecap:round;stroke-linejoin:round;stroke-miterlimit:10;stroke-dasharray:none;stroke-opacity:1"
         id="path3314" />
      <path
         d="M 11338,9590 V 8867"
         style="fill:none;stroke:#000000;stroke-width:12;stroke-linecap:round;stroke-linejoin:round;stroke-miterlimit:10;stroke-dasharray:none;stroke-opacity:1"
         id="path3316" />
      <path
         d="M 11338,6157 V 4696"
         style="fill:none;stroke:#000000;stroke-width:12;stroke-linecap:round;stroke-linejoin:round;stroke-miterlimit:10;stroke-dasharray:none;stroke-opacity:1"
         id="path3318" />
      <path
         d="M 11405,4691 V 6068"
         style="fill:none;stroke:#000000;stroke-width:12;stroke-linecap:round;stroke-linejoin:round;stroke-miterlimit:10;stroke-dasharray:none;stroke-opacity:1"
         id="path3320" />
      <path
         d="m 11405,8867 v 723"
         style="fill:none;stroke:#000000;stroke-width:12;stroke-linecap:round;stroke-linejoin:round;stroke-miterlimit:10;stroke-dasharray:none;stroke-opacity:1"
         id="path3322" />
      <g
         id="g3324"
         transform="matrix(-0.86604,0.49997,-0.49997,-0.86604,11071.5,10170.5)">
        <path
           d="m 20.91082,-30.84947 c 8.78557,17.76704 8.78557,43.9319 0,61.69894"
           style="fill:none;stroke:#000000;stroke-width:12;stroke-linecap:round;stroke-linejoin:round;stroke-miterlimit:10;stroke-dasharray:none;stroke-opacity:1"
           id="path3326" />
      </g>
      <g
         id="g3328"
         transform="matrix(0.86604,0.49997,-0.49997,0.86604,11038.5,9803.5)">
        <path
           d="m 186.67661,-276.34634 c 78.43118,159.1553 78.43118,393.53738 0,552.69268"
           style="fill:none;stroke:#000000;stroke-width:12;stroke-linecap:round;stroke-linejoin:round;stroke-miterlimit:10;stroke-dasharray:none;stroke-opacity:1"
           id="path3330" />
      </g>
      <g
         id="g3332"
         transform="matrix(0.86604,0.49997,-0.49997,0.86604,11071.5,9823.5)">
        <path
           d="m 207.20723,-306.87109 c 87.05702,176.73533 87.05702,437.00685 0,613.74218"
           style="fill:none;stroke:#000000;stroke-width:12;stroke-linecap:round;stroke-linejoin:round;stroke-miterlimit:10;stroke-dasharray:none;stroke-opacity:1"
           id="path3334" />
      </g>
      <g
         id="g3336"
         transform="matrix(-0.86604,0.49997,-0.49997,-0.86604,8799.5,11481.5)">
        <path
           d="m 20.91082,-30.84947 c 8.78557,17.76704 8.78557,43.9319 0,61.69894"
           style="fill:none;stroke:#000000;stroke-width:12;stroke-linecap:round;stroke-linejoin:round;stroke-miterlimit:10;stroke-dasharray:none;stroke-opacity:1"
           id="path3338" />
      </g>
      <path
         d="m 8879,11397 2045,-1181"
         style="fill:none;stroke:#000000;stroke-width:12;stroke-linecap:round;stroke-linejoin:round;stroke-miterlimit:10;stroke-dasharray:none;stroke-opacity:1"
         id="path3340" />
      <path
         d="M 10957,10274 8913,11454"
         style="fill:none;stroke:#000000;stroke-width:12;stroke-linecap:round;stroke-linejoin:round;stroke-miterlimit:10;stroke-dasharray:none;stroke-opacity:1"
         id="path3342" />
      <g
         id="g3344"
         transform="matrix(-0.86604,-0.49997,0.49997,-0.86604,8766.5,11115.5)">
        <path
           d="m -159.44307,-323.54742 c 91.82756,-135.93677 227.05858,-135.93677 318.88614,0"
           style="fill:none;stroke:#000000;stroke-width:12;stroke-linecap:round;stroke-linejoin:round;stroke-miterlimit:10;stroke-dasharray:none;stroke-opacity:1"
           id="path3346" />
      </g>
      <g
         id="g3348"
         transform="matrix(0.86604,0.49997,-0.49997,0.86604,8799.5,11134.5)">
        <path
           d="M 184.96553,346.97968 C 137.32401,423.33566 75.53454,467.71432 10.70874,472.13501"
           style="fill:none;stroke:#000000;stroke-width:12;stroke-linecap:round;stroke-linejoin:round;stroke-miterlimit:10;stroke-dasharray:none;stroke-opacity:1"
           id="path3350" />
      </g>
      <g
         id="g3352"
         transform="matrix(0.86604,0.49997,-0.49997,0.86604,11238.5,4904.5)">
        <path
           d="m 0,-472.5 c 72.2715,0 141.58293,49.7811 192.6866,138.39206"
           style="fill:none;stroke:#000000;stroke-width:24;stroke-linecap:round;stroke-linejoin:round;stroke-miterlimit:10;stroke-dasharray:none;stroke-opacity:1"
           id="path3354" />
      </g>
      <path
         d="m 11564,4706 -151,-87"
         style="fill:none;stroke:#000000;stroke-width:12;stroke-linecap:round;stroke-linejoin:round;stroke-miterlimit:10;stroke-dasharray:none;stroke-opacity:1"
         id="path3356" />
      <g
         id="g3358"
         transform="matrix(0.86604,0.49997,-0.49997,0.86604,10570.5,6177.5)">
        <path
           d="m -77.42819,-133.28963 c 42.76241,-73.61383 112.09397,-73.61383 154.85638,0"
           style="fill:none;stroke:#000000;stroke-width:24;stroke-linecap:round;stroke-linejoin:round;stroke-miterlimit:10;stroke-dasharray:none;stroke-opacity:1"
           id="path3360" />
      </g>
      <path
         d="m 10570,6023 -152,88"
         style="fill:none;stroke:#000000;stroke-width:24;stroke-linecap:round;stroke-linejoin:round;stroke-miterlimit:10;stroke-dasharray:none;stroke-opacity:1"
         id="path3362" />
      <path
         d="M 10703,6279 V 6100"
         style="fill:none;stroke:#000000;stroke-width:24;stroke-linecap:round;stroke-linejoin:round;stroke-miterlimit:10;stroke-dasharray:none;stroke-opacity:1"
         id="path3364" />
      <path
         d="m 10579,6028 -9,-5"
         style="fill:none;stroke:#000000;stroke-width:12;stroke-linecap:round;stroke-linejoin:round;stroke-miterlimit:10;stroke-dasharray:none;stroke-opacity:1"
         id="path3366" />
      <path
         d="m 11230,10300 -151,-87"
         style="fill:none;stroke:#000000;stroke-width:12;stroke-linecap:round;stroke-linejoin:round;stroke-miterlimit:10;stroke-dasharray:none;stroke-opacity:1"
         id="path3368" />
      <path
         d="m 8966,11616 2272,-1311"
         style="fill:none;stroke:#000000;stroke-width:24;stroke-linecap:round;stroke-linejoin:round;stroke-miterlimit:10;stroke-dasharray:none;stroke-opacity:1"
         id="path3370" />
      <path
         d="m 8958,11612 -151,-87"
         style="fill:none;stroke:#000000;stroke-width:12;stroke-linecap:round;stroke-linejoin:round;stroke-miterlimit:10;stroke-dasharray:none;stroke-opacity:1"
         id="path3372" />
      <path
         d="m 11564,9721 -151,-87"
         style="fill:none;stroke:#000000;stroke-width:12;stroke-linecap:round;stroke-linejoin:round;stroke-miterlimit:10;stroke-dasharray:none;stroke-opacity:1"
         id="path3374" />
      <g
         id="g3376"
         transform="matrix(0.86604,0.49997,-0.49997,0.86604,11238.5,9919.5)">
        <path
           d="m 192.6866,-334.10794 c 106.41786,184.52272 106.41786,483.69316 0,668.21588"
           style="fill:none;stroke:#000000;stroke-width:24;stroke-linecap:round;stroke-linejoin:round;stroke-miterlimit:10;stroke-dasharray:none;stroke-opacity:1"
           id="path3378" />
      </g>
      <path
         d="M 11572,9726 V 8916"
         style="fill:none;stroke:#000000;stroke-width:24;stroke-linecap:round;stroke-linejoin:round;stroke-miterlimit:10;stroke-dasharray:none;stroke-opacity:1"
         id="path3380" />
      <path
         d="M 11572,5405 V 4711"
         style="fill:none;stroke:#000000;stroke-width:24;stroke-linecap:round;stroke-linejoin:round;stroke-miterlimit:10;stroke-dasharray:none;stroke-opacity:1"
         id="path3382" />
      <g
         id="g3384"
         transform="matrix(0.86604,0.49997,-0.49997,0.86604,8966.5,11231.5)">
        <path
           d="M 192.6866,334.10794 C 141.58293,422.7189 72.2715,472.5 0,472.5"
           style="fill:none;stroke:#000000;stroke-width:24;stroke-linecap:round;stroke-linejoin:round;stroke-miterlimit:10;stroke-dasharray:none;stroke-opacity:1"
           id="path3386" />
      </g>
      <path
         d="m 8451,11308 v -822"
         style="fill:none;stroke:#000000;stroke-width:24;stroke-linecap:round;stroke-linejoin:round;stroke-miterlimit:10;stroke-dasharray:none;stroke-opacity:1"
         id="path3388" />
      <path
         d="m 9268,5447 1779,-1028 9,-4 8,-5 8,-4 9,-4 8,-4 8,-3 9,-3 8,-4 9,-2 8,-3 8,-2 9,-2 8,-2 9,-2 8,-1 8,-1 h 9 l 8,-1 h 8 9 l 8,1 h 8 l 8,2 8,1 8,2 8,2 7,2 8,3 8,3 7,3 7,3 7,4"
         style="fill:none;stroke:#000000;stroke-width:24;stroke-linecap:round;stroke-linejoin:round;stroke-miterlimit:10;stroke-dasharray:none;stroke-opacity:1"
         id="path3390" />
      <path
         d="m 8563,11543 -7,-4 -7,-4 -6,-5 -7,-5 -6,-5 -6,-6 -5,-6 -6,-6 -5,-6 -5,-6 -5,-7 -4,-7 -4,-7 -4,-7 -4,-8 -4,-7 -3,-8 -3,-8 -3,-8 -3,-8 -2,-8 -3,-9 -2,-8 -1,-9 -2,-9 -1,-9 -1,-9 -1,-9 -1,-9 -1,-9 v -10 -9"
         style="fill:none;stroke:#000000;stroke-width:24;stroke-linecap:round;stroke-linejoin:round;stroke-miterlimit:10;stroke-dasharray:none;stroke-opacity:1"
         id="path3392" />
      <path
         d="m 11474,4495 -167,-97"
         style="fill:none;stroke:#000000;stroke-width:24;stroke-linecap:round;stroke-linejoin:round;stroke-miterlimit:10;stroke-dasharray:none;stroke-opacity:1"
         id="path3394" />
      <path
         d="m 8730,11640 -167,-97"
         style="fill:none;stroke:#000000;stroke-width:24;stroke-linecap:round;stroke-linejoin:round;stroke-miterlimit:10;stroke-dasharray:none;stroke-opacity:1"
         id="path3396" />
      <g
         id="g3398"
         transform="matrix(-0.86604,0.49997,-0.49997,-0.86604,10586.5,6052.5)">
        <path
           d="m 9.16343,17.25719 c -2.36022,3.7976 -5.42135,6.00479 -8.63291,6.22466"
           style="fill:none;stroke:#000000;stroke-width:12;stroke-linecap:round;stroke-linejoin:round;stroke-miterlimit:10;stroke-dasharray:none;stroke-opacity:1"
           id="path3400" />
      </g>
      <path
         d="m 10687.549,6109.5864 c 4.108,-2.1816 9.437,-3.4497 15.027,-3.5762"
         style="fill:none;stroke:#000000;stroke-width:12;stroke-linecap:round;stroke-linejoin:round;stroke-miterlimit:10;stroke-dasharray:none;stroke-opacity:1"
         id="path3402" />
      <g
         id="g3404"
         transform="matrix(0.86604,0.49997,-0.49997,0.86604,10570.5,6177.5)">
        <path
           d="m -62.02368,-125.84512 c 35.72111,-52.87317 88.32625,-52.87317 124.04736,0"
           style="fill:none;stroke:#000000;stroke-width:12;stroke-linecap:round;stroke-linejoin:round;stroke-miterlimit:10;stroke-dasharray:none;stroke-opacity:1"
           id="path3406" />
      </g>
      <path
         d="M 10687,6259 V 6117"
         style="fill:none;stroke:#000000;stroke-width:12;stroke-linecap:round;stroke-linejoin:round;stroke-miterlimit:10;stroke-dasharray:none;stroke-opacity:1"
         id="path3408" />
      <path
         d="m 10563,6046 -122,70"
         style="fill:none;stroke:#000000;stroke-width:12;stroke-linecap:round;stroke-linejoin:round;stroke-miterlimit:10;stroke-dasharray:none;stroke-opacity:1"
         id="path3410" />
      <path
         d="m 10427,6116 148,-85 6,-3 6,-3 6,-3 6,-2 6,-2 6,-2 6,-2 7,-1 6,-1 h 6 6 l 6,1 h 6 l 6,2 6,1 3,1 3,1"
         style="fill:none;stroke:#000000;stroke-width:24;stroke-linecap:round;stroke-linejoin:round;stroke-miterlimit:10;stroke-dasharray:none;stroke-opacity:1"
         id="path3412" />
      <g
         id="g3414"
         transform="matrix(-0.86604,-0.49997,0.49997,-0.86604,8344.5,5604.5)">
        <path
           d="m 287.48508,-434.85245 c 105.8265,210.34802 124.11444,513.24308 45.70761,757.03461"
           style="fill:none;stroke:#000000;stroke-width:12;stroke-linecap:round;stroke-linejoin:round;stroke-miterlimit:10;stroke-dasharray:none;stroke-opacity:1"
           id="path3416" />
      </g>
      <path
         d="m 7862.0366,5893.4194 c 0.4444,-6.542 4.9058,-12.7778 12.582,-17.5854"
         style="fill:none;stroke:#000000;stroke-width:12;stroke-linecap:round;stroke-linejoin:round;stroke-miterlimit:10;stroke-dasharray:none;stroke-opacity:1"
         id="path3418" />
      <path
         d="m 8247,5132 v -2 -2 -1 -2 -2 -1 l 1,-1 v -2 l 1,-1 v -1 l 1,-1 1,-1 v -1 l 1,-1 1,-1 h 1"
         style="fill:none;stroke:#000000;stroke-width:24;stroke-linecap:round;stroke-linejoin:round;stroke-miterlimit:10;stroke-dasharray:none;stroke-opacity:1"
         id="path3420" />
      <path
         d="m 7862.0366,6456.4194 c 0.4444,-6.542 4.9058,-12.7778 12.582,-17.5854"
         style="fill:none;stroke:#000000;stroke-width:12;stroke-linecap:round;stroke-linejoin:round;stroke-miterlimit:10;stroke-dasharray:none;stroke-opacity:1"
         id="path3422" />
      <path
         d="m 7876,5902 v 508"
         style="fill:none;stroke:#000000;stroke-width:12;stroke-linecap:round;stroke-linejoin:round;stroke-miterlimit:10;stroke-dasharray:none;stroke-opacity:1"
         id="path3424" />
      <g
         id="g3426"
         transform="matrix(-0.86604,-0.49997,0.49997,-0.86604,8344.5,6168.5)">
        <path
           d="m 124.90106,-625.04321 c 51.63419,31.0216 98.82231,80.91516 138.37049,146.30374"
           style="fill:none;stroke:#000000;stroke-width:12;stroke-linecap:round;stroke-linejoin:round;stroke-miterlimit:10;stroke-dasharray:none;stroke-opacity:1"
           id="path3428" />
      </g>
      <g
         id="g3430"
         transform="matrix(0.86604,0.49997,-0.49997,0.86604,8244.5,6214.5)">
        <path
           d="m 276.42633,-455.90137 c 39.60913,72.20618 69.29788,158.99646 86.84894,253.88871"
           style="fill:none;stroke:#000000;stroke-width:12;stroke-linecap:round;stroke-linejoin:round;stroke-miterlimit:10;stroke-dasharray:none;stroke-opacity:1"
           id="path3432" />
      </g>
      <path
         d="m 8714.6504,5942.5894 c 17.7676,-8.7857 43.9316,-8.7857 61.6992,0"
         style="fill:none;stroke:#000000;stroke-width:12;stroke-linecap:round;stroke-linejoin:round;stroke-miterlimit:10;stroke-dasharray:none;stroke-opacity:1"
         id="path3434" />
      <g
         id="g3436"
         transform="matrix(0.86604,0.49997,-0.49997,0.86604,8277.5,6233.5)">
        <path
           d="m 295.16779,-491.09155 c 33.35842,60.01831 60.34075,129.74066 79.70846,205.96661"
           style="fill:none;stroke:#000000;stroke-width:12;stroke-linecap:round;stroke-linejoin:round;stroke-miterlimit:10;stroke-dasharray:none;stroke-opacity:1"
           id="path3438" />
      </g>
      <path
         d="m 8714.6504,5402.5894 c 17.7676,-8.7857 43.9316,-8.7857 61.6992,0"
         style="fill:none;stroke:#000000;stroke-width:12;stroke-linecap:round;stroke-linejoin:round;stroke-miterlimit:10;stroke-dasharray:none;stroke-opacity:1"
         id="path3440" />
      <path
         d="m 8778,5431 v 486"
         style="fill:none;stroke:#000000;stroke-width:12;stroke-linecap:round;stroke-linejoin:round;stroke-miterlimit:10;stroke-dasharray:none;stroke-opacity:1"
         id="path3442" />
      <path
         d="M 8711,5917 V 5431"
         style="fill:none;stroke:#000000;stroke-width:12;stroke-linecap:round;stroke-linejoin:round;stroke-miterlimit:10;stroke-dasharray:none;stroke-opacity:1"
         id="path3444" />
      <g
         id="g3446"
         transform="matrix(0.86604,0.49997,-0.49997,0.86604,8277.5,5693.5)">
        <path
           d="m 16.09259,-707.9527 c 97.41711,6.62873 190.27136,73.17316 261.86478,187.66675"
           style="fill:none;stroke:#000000;stroke-width:12;stroke-linecap:round;stroke-linejoin:round;stroke-miterlimit:10;stroke-dasharray:none;stroke-opacity:1"
           id="path3448" />
      </g>
      <g
         id="g3450"
         transform="matrix(0.86604,0.49997,-0.49997,0.86604,8244.5,5674.5)">
        <path
           d="m -245.76164,-505.95392 c 142.81535,-208.56848 351.70775,-207.24884 493.64287,3.11841"
           style="fill:none;stroke:#000000;stroke-width:12;stroke-linecap:round;stroke-linejoin:round;stroke-miterlimit:10;stroke-dasharray:none;stroke-opacity:1"
           id="path3452" />
      </g>
      <path
         d="M 10707,6517 8880,5462"
         style="fill:none;stroke:#000000;stroke-width:12;stroke-linecap:round;stroke-linejoin:round;stroke-miterlimit:10;stroke-dasharray:none;stroke-opacity:1"
         id="path3454" />
      <path
         d="m 8811,5963 587,339"
         style="fill:none;stroke:#000000;stroke-width:12;stroke-linecap:round;stroke-linejoin:round;stroke-miterlimit:10;stroke-dasharray:none;stroke-opacity:1"
         id="path3456" />
      <path
         d="m 8253,5113 -11,8 -10,9 -10,9 -10,9 -10,10 -10,9 -10,10 -10,10 -10,10 -9,10 -10,11 -9,11 -9,10 -10,11 -9,12 -9,11 -9,11 -8,12 -9,12 -8,12 -9,12 -8,12 -8,12 -8,12 -8,13 -7,12 -8,13 -7,13 -7,13 -7,13 -7,13 -7,13 -6,13 -7,13 -6,13 -6,14 -5,13 -6,13 -5,14 -6,13 -5,14 -4,13 -5,14 -5,13 -4,14 -4,13 -4,14 -3,13 -4,13 -3,14 -3,13 -3,14 -2,13 -3,13 -2,13 -2,13 -1,13 -2,13 -1,13 -1,13 -1,13 v 13 l -1,12 v 13 563 15 l 1,14 1,15 1,14 1,14 2,14 2,13 3,14 2,13 4,13 3,12 4,13 4,12 2,6 3,6 2,6 2,6 3,6 3,6"
         style="fill:none;stroke:#000000;stroke-width:24;stroke-linecap:round;stroke-linejoin:round;stroke-miterlimit:10;stroke-dasharray:none;stroke-opacity:1"
         id="path3458" />
      <path
         d="m 10671,6257 -2040,-1178 -5,-2 -5,-3 -5,-3 -5,-2 -5,-3 -5,-2 -5,-2 -6,-2 -5,-2 -6,-2 -5,-1 -6,-2 -5,-1 -6,-2 -5,-1 -6,-1 -6,-1 -5,-1 -6,-1 -6,-1 -12,-1 -11,-1 h -12 -12 l -12,1 -12,1 -12,1 -13,2 -12,2 -12,3 -12,3 -13,3 -12,4 -13,4 -12,4 -12,5 -13,5 -12,6 -13,6 -12,6 -12,7 -13,7"
         style="fill:none;stroke:#000000;stroke-width:24;stroke-linecap:round;stroke-linejoin:round;stroke-miterlimit:10;stroke-dasharray:none;stroke-opacity:1"
         id="path3460" />
      <path
         d="m 7729.0366,6309.4194 c 0.4444,-6.542 4.9058,-12.7778 12.582,-17.5854"
         style="fill:none;stroke:#000000;stroke-width:12;stroke-linecap:round;stroke-linejoin:round;stroke-miterlimit:10;stroke-dasharray:none;stroke-opacity:1"
         id="path3462" />
      <g
         id="g3464"
         transform="matrix(0.86609,-0.49989,0.49989,0.86609,7776.5,6310.5)">
        <path
           d="m -18.66625,-34.88156 c 4.80786,-7.67599 11.0435,-12.13734 17.58555,-12.58175"
           style="fill:none;stroke:#000000;stroke-width:12;stroke-linecap:round;stroke-linejoin:round;stroke-miterlimit:10;stroke-dasharray:none;stroke-opacity:1"
           id="path3466" />
      </g>
      <path
         d="m 7856,6225 -108,63"
         style="fill:none;stroke:#000000;stroke-width:12;stroke-linecap:round;stroke-linejoin:round;stroke-miterlimit:10;stroke-dasharray:none;stroke-opacity:1"
         id="path3468" />
      <path
         d="m 7742,6315 v 424"
         style="fill:none;stroke:#000000;stroke-width:12;stroke-linecap:round;stroke-linejoin:round;stroke-miterlimit:10;stroke-dasharray:none;stroke-opacity:1"
         id="path3470" />
      <g
         id="g3472"
         transform="matrix(0.86604,-0.49997,0.49997,0.86604,7776.5,6310.5)">
        <path
           d="M -41.13697,-23.74869 C -32.65211,-38.44598 -16.97066,-47.5 0,-47.5"
           style="fill:none;stroke:#000000;stroke-width:24;stroke-linecap:round;stroke-linejoin:round;stroke-miterlimit:10;stroke-dasharray:none;stroke-opacity:1"
           id="path3474" />
      </g>
      <path
         d="m 7752,6269 110,-63"
         style="fill:none;stroke:#000000;stroke-width:24;stroke-linecap:round;stroke-linejoin:round;stroke-miterlimit:10;stroke-dasharray:none;stroke-opacity:1"
         id="path3476" />
      <path
         d="M 7729,6770 V 6310"
         style="fill:none;stroke:#000000;stroke-width:24;stroke-linecap:round;stroke-linejoin:round;stroke-miterlimit:10;stroke-dasharray:none;stroke-opacity:1"
         id="path3478" />
      <path
         d="M 11923,8578 9217,7016"
         style="fill:none;stroke:#000000;stroke-width:12;stroke-linecap:round;stroke-linejoin:round;stroke-miterlimit:10;stroke-dasharray:none;stroke-opacity:1"
         id="path3480" />
      <g
         id="g3482"
         transform="matrix(0.86604,0.49997,-0.49997,0.86604,9066.5,6852.5)">
        <path
           d="m 41.44145,-61.37422 c 17.4114,35.34707 17.4114,87.40137 0,122.74844"
           style="fill:none;stroke:#000000;stroke-width:12;stroke-linecap:round;stroke-linejoin:round;stroke-miterlimit:10;stroke-dasharray:none;stroke-opacity:1"
           id="path3484" />
      </g>
      <path
         d="m 9280,6898 2646,1528"
         style="fill:none;stroke:#000000;stroke-width:12;stroke-linecap:round;stroke-linejoin:round;stroke-miterlimit:10;stroke-dasharray:none;stroke-opacity:1"
         id="path3486" />
      <g
         id="g3488"
         transform="matrix(0.49997,0.86604,-0.86604,0.49997,12006.5,8549.5)">
        <path
           d="m 0,-77.5 c 73.73002,0 133.5,34.69793 133.5,77.5"
           style="fill:none;stroke:#000000;stroke-width:24;stroke-linecap:round;stroke-linejoin:round;stroke-miterlimit:10;stroke-dasharray:none;stroke-opacity:1"
           id="path3490" />
      </g>
      <g
         id="g3492"
         transform="matrix(0.86604,0.49997,-0.49997,0.86604,9066.5,6235.5)">
        <path
           d="m 2.14175,-94.427 c 12.96516,0.88414 25.32305,9.75987 34.85136,25.03106"
           style="fill:none;stroke:#000000;stroke-width:12;stroke-linecap:round;stroke-linejoin:round;stroke-miterlimit:10;stroke-dasharray:none;stroke-opacity:1"
           id="path3494" />
      </g>
      <g
         id="g3496"
         transform="matrix(0.86609,-0.49989,0.49989,0.86609,9133.5,6505.5)">
        <path
           d="m -176.76529,221.90065 c -63.1795,-150.2262 -53.7386,-357.5273 22.26245,-488.83345 76.00106,-131.30618 195.98858,-147.61713 282.94069,-38.46262"
           style="fill:none;stroke:#000000;stroke-width:12;stroke-linecap:round;stroke-linejoin:round;stroke-miterlimit:10;stroke-dasharray:none;stroke-opacity:1"
           id="path3498" />
      </g>
      <g
         id="g3500"
         transform="matrix(-0.86604,0.49997,-0.49997,-0.86604,9066.5,6543.5)">
        <path
           d="m 214.00211,-292.51477 c 61.0588,134.30409 75.49856,315.33414 37.75506,473.33269 -37.7435,157.99855 -121.77841,268.30177 -219.72304,288.40587"
           style="fill:none;stroke:#000000;stroke-width:12;stroke-linecap:round;stroke-linejoin:round;stroke-miterlimit:10;stroke-dasharray:none;stroke-opacity:1"
           id="path3502" />
      </g>
      <path
         d="m 11745.126,4998.0586 c 35.347,-17.4116 87.401,-17.4116 122.748,0"
         style="fill:none;stroke:#000000;stroke-width:12;stroke-linecap:round;stroke-linejoin:round;stroke-miterlimit:10;stroke-dasharray:none;stroke-opacity:1"
         id="path3504" />
      <path
         d="m 11873,5000 v 19 18 l -1,18 v 19 18 l -1,18 -1,18 v 18 l -1,18 -1,18 -1,18 -1,17 -1,18 -2,18 -1,17 -2,18 -1,17 -2,17 -2,18 -2,17 -2,17 -2,17 -2,17 -3,17 -2,16 -3,17 -2,17 -3,16 -3,17 -3,16 -3,16 -3,17 -4,16 -3,16 -4,16 -3,16 -4,15 -4,16 -4,16 -4,15 -4,16 -4,15 -5,15 -4,15 -5,15 -4,15 -5,15 -5,15 -5,14 -5,15 -5,14 -6,15 -5,14 -6,14 -5,14 -6,14 -6,13 -6,14 -6,14 -6,13 -6,13 -7,14 -6,13 -7,13 -7,12 -6,13 -7,13 -7,12 -8,13 -7,12 -7,12 -8,12 -7,12 -8,12 -8,11 -7,12 -8,11 -8,11 -9,12 -8,11 -8,10 -9,11 -8,11 -9,10 -9,11 -8,10 -9,10 -9,10 -10,10 -9,10 -9,9 -10,10 -9,9 -10,9 -9,9 -10,9 -10,9 -10,9 -10,8 -10,8 -10,9 -11,8 -10,8 -11,8 -10,7 -11,8 -11,7 -10,8 -11,7 -11,7 -11,7 -12,6 -11,7 -11,6 -12,7 -11,6 -12,6 -11,6 -12,6 -12,5 -12,6 -11,5 -12,5 -13,6 -12,5 -12,4 -12,5 -13,5 -12,4 -12,4 -13,4 -13,4 -12,4 -13,4 -13,4 -13,3 -13,4 -13,3 -13,3 -13,3 -13,3 -13,2 -13,3 -14,2 -13,2 -14,3 -13,2 -14,2 -13,1 -14,2 -14,1 -14,2 -13,1 -14,1 -14,1 -14,1 -14,1 h -14 l -14,1 h -14 -15 l -14,1 h -14 l -14,-1 h -15 -14 l -15,-1 h -14 l -15,-1 -14,-1 -15,-1 -15,-1 -14,-1 -15,-1 -15,-2 -14,-1 -15,-2 -15,-2 -15,-2 -15,-2 -15,-2 -15,-2 -15,-3 -15,-2 -15,-3 -15,-2 -15,-3 -15,-3 -15,-3 -16,-3 -15,-4 -15,-3 -15,-4 -16,-3 -15,-4 -15,-4 -16,-3 -15,-4 -16,-5 -15,-4 -16,-4 -15,-5 -16,-4 -15,-5 -31,-9 -31,-10 -32,-11 -31,-10 -31,-11 -32,-12 -31,-12 -32,-12 -31,-13 -32,-13 -31,-13 -32,-14 -32,-14 -31,-14 -32,-15 -32,-15 -32,-15 -32,-16 -32,-16 -31,-17 -32,-16 -32,-17 -32,-18 -32,-17 -32,-18 -32,-19"
         style="fill:none;stroke:#000000;stroke-width:12;stroke-linecap:round;stroke-linejoin:round;stroke-miterlimit:10;stroke-dasharray:none;stroke-opacity:1"
         id="path3506" />
      <path
         d="m 11103,6463 9,-6 10,-6 9,-6 10,-6 9,-6 10,-6 9,-6 9,-6 9,-7 9,-7 9,-6 9,-7 9,-7 9,-7 9,-7 8,-7 9,-7 9,-8 8,-7 9,-8 8,-8 8,-7 8,-8 9,-8 8,-8 8,-9 8,-8 7,-8 8,-9 8,-8 8,-9 7,-9 8,-9 7,-9 7,-9 8,-9 7,-9 7,-10 7,-9 7,-10 7,-9 7,-10 6,-10 7,-10 7,-10 6,-10 7,-10 6,-11 6,-10 6,-11 6,-10 7,-11 5,-11 6,-11 6,-11 6,-11 6,-11 5,-11 6,-11 5,-12 5,-11 6,-12 5,-11 5,-12 5,-12 5,-12 4,-12 5,-12 5,-12 4,-12 5,-13 4,-12 5,-13 4,-12 4,-13 4,-13 4,-12 4,-13 4,-13 4,-13 4,-13 3,-13 4,-14 3,-13 4,-13 3,-14 3,-13 3,-14 3,-14 3,-13 3,-14 3,-14 3,-14 2,-14 3,-14 2,-14 3,-14 2,-15 2,-14 3,-14 2,-15 2,-14 4,-29 3,-30 3,-30 3,-29 3,-31 2,-30 2,-30 1,-31 2,-31 1,-31 1,-31 v -32 -32"
         style="fill:none;stroke:#000000;stroke-width:12;stroke-linecap:round;stroke-linejoin:round;stroke-miterlimit:10;stroke-dasharray:none;stroke-opacity:1"
         id="path3508" />
      <g
         id="g3510"
         transform="rotate(180,6003.25,2577.75)">
        <path
           d="M -69.39594,36.99311 C -84.66713,27.4648 -93.54286,15.10691 -94.427,2.14175"
           style="fill:none;stroke:#000000;stroke-width:12;stroke-linecap:round;stroke-linejoin:round;stroke-miterlimit:10;stroke-dasharray:none;stroke-opacity:1"
           id="path3512" />
      </g>
      <g
         id="g3514"
         transform="matrix(0.86609,-0.49989,0.49989,0.86609,11973.5,5058.5)">
        <path
           d="m -47.90703,-114.47272 c 32.43294,-40.91487 77.18801,-34.80096 105.53623,14.41711 28.34822,49.21807 31.86966,126.92166 8.30384,183.23161"
           style="fill:none;stroke:#000000;stroke-width:12;stroke-linecap:round;stroke-linejoin:round;stroke-miterlimit:10;stroke-dasharray:none;stroke-opacity:1"
           id="path3516" />
      </g>
      <g
         id="g3518"
         transform="matrix(-0.86604,0.49997,-0.49997,-0.86604,11906.5,5097.5)">
        <path
           d="M 92.65246,173.67343 C 68.78799,211.89182 37.83657,234.10463 5.3642,236.31731"
           style="fill:none;stroke:#000000;stroke-width:12;stroke-linecap:round;stroke-linejoin:round;stroke-miterlimit:10;stroke-dasharray:none;stroke-opacity:1"
           id="path3520" />
      </g>
      <path
         d="M 12073,8341 V 5286"
         style="fill:none;stroke:#000000;stroke-width:12;stroke-linecap:round;stroke-linejoin:round;stroke-miterlimit:10;stroke-dasharray:none;stroke-opacity:1"
         id="path3522" />
      <path
         d="m 11672,5039 v 17 16 17 16 l -1,16 v 17 l -1,16 v 16 l -1,16 -1,16 v 16 l -1,15 -1,16 -1,16 -2,15 -1,16 -1,15 -2,15 -1,15 -2,15 -1,15 -2,15 -2,15 -1,15 -2,15 -2,14 -2,15 -3,14 -2,14 -2,15 -3,14 -2,14 -2,14 -3,14 -3,14 -3,13 -2,14 -3,14 -3,13 -3,14 -3,13 -4,13 -3,13 -3,13 -4,13 -3,13 -4,13 -3,13 -4,12 -4,13 -4,12 -4,13 -4,12 -4,12 -4,12 -4,12 -4,12 -5,12 -4,12 -5,12 -4,11 -5,12 -5,11 -4,12 -5,11 -5,11 -5,11 -5,11 -5,11 -6,11 -10,21 -11,21 -11,21 -12,21 -11,20 -12,19 -13,20 -12,19 -13,18 -13,18 -13,18 -14,18 -14,17 -14,17 -14,16 -15,17 -15,15 -15,16 -15,15 -16,15 -16,14 -16,14 -16,14 -17,13 -17,13 -17,12 -17,13 -18,11 -18,12"
         style="fill:none;stroke:#000000;stroke-width:24;stroke-linecap:round;stroke-linejoin:round;stroke-miterlimit:10;stroke-dasharray:none;stroke-opacity:1"
         id="path3524" />
      <path
         d="m 11676,5037 60,-35"
         style="fill:none;stroke:#000000;stroke-width:12;stroke-linecap:round;stroke-linejoin:round;stroke-miterlimit:10;stroke-dasharray:none;stroke-opacity:1"
         id="path3526" />
      <path
         d="M 5321,9092 8869,7043"
         style="fill:none;stroke:#000000;stroke-width:12;stroke-linecap:round;stroke-linejoin:round;stroke-miterlimit:10;stroke-dasharray:none;stroke-opacity:1"
         id="path3528" />
      <g
         id="g3530"
         transform="matrix(0.86609,-0.49989,0.49989,0.86609,5124.5,8820.5)">
        <path
           d="m -214.00211,292.51477 c -61.0588,-134.30409 -75.49856,-315.33414 -37.75506,-473.33269 37.7435,-157.99855 121.77841,-268.30177 219.72304,-288.40587"
           style="fill:none;stroke:#000000;stroke-width:12;stroke-linecap:round;stroke-linejoin:round;stroke-miterlimit:10;stroke-dasharray:none;stroke-opacity:1"
           id="path3532" />
      </g>
      <path
         d="m 11438,8839 168,96 467,-270"
         style="fill:none;stroke:#000000;stroke-width:24;stroke-linecap:round;stroke-linejoin:round;stroke-miterlimit:10;stroke-dasharray:none;stroke-opacity:1"
         id="path3534" />
      <path
         d="m 11305.679,8838.9629 c 36.904,-21.2842 96.738,-21.2842 133.642,0"
         style="fill:none;stroke:#000000;stroke-width:24;stroke-linecap:round;stroke-linejoin:round;stroke-miterlimit:10;stroke-dasharray:none;stroke-opacity:1"
         id="path3536" />
      <path
         d="m 11305,8839 -384,222 -101,-58"
         style="fill:none;stroke:#000000;stroke-width:24;stroke-linecap:round;stroke-linejoin:round;stroke-miterlimit:10;stroke-dasharray:none;stroke-opacity:1"
         id="path3538" />
      <path
         d="m 10753.912,9003.0547 c 18.55,-10.7393 48.626,-10.7393 67.176,0"
         style="fill:none;stroke:#000000;stroke-width:24;stroke-linecap:round;stroke-linejoin:round;stroke-miterlimit:10;stroke-dasharray:none;stroke-opacity:1"
         id="path3540" />
      <path
         d="m 10754,9003 -134,77"
         style="fill:none;stroke:#000000;stroke-width:24;stroke-linecap:round;stroke-linejoin:round;stroke-miterlimit:10;stroke-dasharray:none;stroke-opacity:1"
         id="path3542" />
      <path
         d="m 10619.912,9118.9453 c -18.55,-10.7392 -18.55,-28.1513 0,-38.8906"
         style="fill:none;stroke:#000000;stroke-width:24;stroke-linecap:round;stroke-linejoin:round;stroke-miterlimit:10;stroke-dasharray:none;stroke-opacity:1"
         id="path3544" />
      <path
         d="m 10620,9119 100,57 -1704,984 -100,-58"
         style="fill:none;stroke:#000000;stroke-width:24;stroke-linecap:round;stroke-linejoin:round;stroke-miterlimit:10;stroke-dasharray:none;stroke-opacity:1"
         id="path3546" />
      <path
         d="m 8849.9121,10103.055 c 18.5498,-10.74 48.626,-10.74 67.1758,0"
         style="fill:none;stroke:#000000;stroke-width:24;stroke-linecap:round;stroke-linejoin:round;stroke-miterlimit:10;stroke-dasharray:none;stroke-opacity:1"
         id="path3548" />
      <path
         d="m 8715,10179 134,-77"
         style="fill:none;stroke:#000000;stroke-width:24;stroke-linecap:round;stroke-linejoin:round;stroke-miterlimit:10;stroke-dasharray:none;stroke-opacity:1"
         id="path3550" />
      <g
         id="g3552"
         transform="rotate(180,4374.75,5099.75)">
        <path
           d="m 33.58757,-19.44544 c 18.54991,10.73942 18.54991,28.15146 0,38.89088"
           style="fill:none;stroke:#000000;stroke-width:24;stroke-linecap:round;stroke-linejoin:round;stroke-miterlimit:10;stroke-dasharray:none;stroke-opacity:1"
           id="path3554" />
      </g>
      <path
         d="m 8431,10498 385,-222 -101,-58"
         style="fill:none;stroke:#000000;stroke-width:24;stroke-linecap:round;stroke-linejoin:round;stroke-miterlimit:10;stroke-dasharray:none;stroke-opacity:1"
         id="path3556" />
      <g
         id="g3558"
         transform="rotate(180,4249.25,5268.25)">
        <path
           d="m 66.82159,-38.53732 c 36.90455,21.28358 36.90455,55.79106 0,77.07464"
           style="fill:none;stroke:#000000;stroke-width:24;stroke-linecap:round;stroke-linejoin:round;stroke-miterlimit:10;stroke-dasharray:none;stroke-opacity:1"
           id="path3560" />
      </g>
      <path
         d="m 8451,10586 -20,-11"
         style="fill:none;stroke:#000000;stroke-width:24;stroke-linecap:round;stroke-linejoin:round;stroke-miterlimit:10;stroke-dasharray:none;stroke-opacity:1"
         id="path3562" />
      <path
         d="m 8451,10756 -320,185"
         style="fill:none;stroke:#000000;stroke-width:24;stroke-linecap:round;stroke-linejoin:round;stroke-miterlimit:10;stroke-dasharray:none;stroke-opacity:1"
         id="path3564" />
      <path
         d="m 5274,9292 2706,1563"
         style="fill:none;stroke:#000000;stroke-width:12;stroke-linecap:round;stroke-linejoin:round;stroke-miterlimit:10;stroke-dasharray:none;stroke-opacity:1"
         id="path3566" />
      <g
         id="g3568"
         transform="matrix(-0.86604,-0.49997,0.49997,-0.86604,5124.5,9128.5)">
        <path
           d="m -36.99311,-69.39594 c 9.52831,-15.27119 21.8862,-24.14692 34.85136,-25.03106"
           style="fill:none;stroke:#000000;stroke-width:12;stroke-linecap:round;stroke-linejoin:round;stroke-miterlimit:10;stroke-dasharray:none;stroke-opacity:1"
           id="path3570" />
      </g>
      <g
         id="g3572"
         transform="matrix(0.49997,0.86604,-0.86604,0.49997,8064.5,10826.5)">
        <path
           d="m 133.5,0 c 0,20.55428 -14.06514,40.2667 -39.10124,54.80078"
           style="fill:none;stroke:#000000;stroke-width:24;stroke-linecap:round;stroke-linejoin:round;stroke-miterlimit:10;stroke-dasharray:none;stroke-opacity:1"
           id="path3574" />
      </g>
      <path
         d="m 8816,10276 v -77"
         style="fill:none;stroke:#000000;stroke-width:24;stroke-linecap:round;stroke-linejoin:round;stroke-miterlimit:10;stroke-dasharray:none;stroke-opacity:1"
         id="path3576" />
      <path
         d="m 8431,10571 v -69"
         style="fill:none;stroke:#000000;stroke-width:12;stroke-linecap:round;stroke-linejoin:round;stroke-miterlimit:10;stroke-dasharray:none;stroke-opacity:1"
         id="path3578" />
      <path
         d="m 8431,10498 20,11"
         style="fill:none;stroke:#000000;stroke-width:24;stroke-linecap:round;stroke-linejoin:round;stroke-miterlimit:10;stroke-dasharray:none;stroke-opacity:1"
         id="path3580" />
      <path
         d="m 8715,10216 v -35"
         style="fill:none;stroke:#000000;stroke-width:12;stroke-linecap:round;stroke-linejoin:round;stroke-miterlimit:10;stroke-dasharray:none;stroke-opacity:1"
         id="path3582" />
      <path
         d="m 8749,10160 67,39"
         style="fill:none;stroke:#000000;stroke-width:24;stroke-linecap:round;stroke-linejoin:round;stroke-miterlimit:10;stroke-dasharray:none;stroke-opacity:1"
         id="path3584" />
      <path
         d="m 11539,5877 v -452 l 117,-68"
         style="fill:none;stroke:#000000;stroke-width:24;stroke-linecap:round;stroke-linejoin:round;stroke-miterlimit:10;stroke-dasharray:none;stroke-opacity:1"
         id="path3586" />
      <g
         id="g3588"
         transform="matrix(-0.86604,0.49997,-0.49997,-0.86604,11839.5,5135.5)">
        <path
           d="M 96.52007,167.23076 C 70.92136,211.58311 36.20205,236.5 0,236.5"
           style="fill:none;stroke:#000000;stroke-width:24;stroke-linecap:round;stroke-linejoin:round;stroke-miterlimit:10;stroke-dasharray:none;stroke-opacity:1"
           id="path3590" />
      </g>
      <path
         d="m 10720,9176 v -77 l -67,-38"
         style="fill:none;stroke:#000000;stroke-width:24;stroke-linecap:round;stroke-linejoin:round;stroke-miterlimit:10;stroke-dasharray:none;stroke-opacity:1"
         id="path3592" />
      <path
         d="m 10620,9117 v -35"
         style="fill:none;stroke:#000000;stroke-width:12;stroke-linecap:round;stroke-linejoin:round;stroke-miterlimit:10;stroke-dasharray:none;stroke-opacity:1"
         id="path3594" />
      <path
         d="m 8830,6134 8,-4 9,-4 8,-4 9,-4 9,-3 9,-2 9,-3 9,-2 9,-1 9,-1 9,-1 10,-1 h 9 9 9 l 9,1 9,1 10,2 9,1 9,2 9,2 9,3 8,2 9,3 9,4 9,3 8,4 9,3 8,5 9,4 8,4 9,5 17,10 18,10 17,10 17,10 18,9 17,10 18,9 17,10 18,9 17,9 18,9 17,9 17,9 18,9 17,9 18,8 17,9 17,8 18,8 17,8 17,9 18,7 17,8 17,8 18,8 17,7 17,8 17,7 17,7 18,7 17,7 17,7 17,7 17,6 17,7 17,6 17,6 17,7 17,6 17,5 17,6 17,6 17,6 17,5 17,5 16,5 17,5 17,5 17,5 16,5 17,4 17,5 16,4 17,4 16,4 17,4 16,4 16,4 17,3 16,4 16,3 17,3 16,3 16,3 16,3 16,2 16,3 16,2 16,2 16,2 15,2 16,2 16,1 16,2 15,1 16,1 15,1 15,1 16,1 15,1 h 15 16 l 15,1 h 15 15 l 15,-1 h 14 l 15,-1 h 15 l 15,-1 14,-1 15,-1 14,-1 15,-2 14,-1 14,-2 14,-2 14,-2 14,-2 14,-2 14,-3 14,-3 14,-2 13,-3 14,-3 13,-3 14,-4 13,-3 13,-4 13,-4 13,-4 13,-4 13,-4 13,-5 13,-4 12,-5 13,-5 12,-5 12,-5 13,-5 12,-6 12,-5 12,-6 12,-6 12,-6 11,-6 12,-7 12,-6"
         style="fill:none;stroke:#000000;stroke-width:24;stroke-linecap:round;stroke-linejoin:round;stroke-miterlimit:10;stroke-dasharray:none;stroke-opacity:1"
         id="path3596" />
      <path
         d="m 11788,4892 4,-2 4,-2 4,-2 4,-2 4,-1 5,-2 4,-1 4,-2 4,-1 5,-1 4,-1 h 4 l 4,-1 h 5 l 4,-1 h 4 4 5 8 l 8,1 8,1 7,2 8,1 7,2 8,3 7,2 7,3 6,3 7,4 6,3 7,4 6,4 6,4 6,4 5,4 6,5 5,4 6,5 5,5 5,5 5,5 5,5 5,6 4,5 5,6 4,6 5,5 4,6 4,6 4,6 3,6 4,7 4,6 3,6 3,7 3,6 3,7 3,7 3,6 2,7 3,7 2,7 2,7 2,7 1,7 2,7 1,7 1,7 1,7 1,7 v 7 l 1,7 v 8 3449"
         style="fill:none;stroke:#000000;stroke-width:24;stroke-linecap:round;stroke-linejoin:round;stroke-miterlimit:10;stroke-dasharray:none;stroke-opacity:1"
         id="path3598" />
      <path
         d="M 4888,8410 8830,6134"
         style="fill:none;stroke:#000000;stroke-width:24;stroke-linecap:round;stroke-linejoin:round;stroke-miterlimit:10;stroke-dasharray:none;stroke-opacity:1"
         id="path3600" />
      <path
         d="m 8064,10935 -2987,-1725 -7,-4 -6,-3 -6,-4 -6,-4 -6,-4 -6,-5 -6,-4 -6,-4 -6,-5 -6,-4 -6,-5 -5,-5 -6,-5 -6,-4 -5,-6 -6,-5 -6,-5 -5,-5 -6,-6 -5,-5 -5,-6 -6,-5 -5,-6 -5,-6 -5,-5 -5,-6 -5,-6 -5,-6 -5,-7 -5,-6 -5,-6 -5,-6 -4,-7 -5,-6 -4,-7 -5,-6 -4,-7 -5,-6 -4,-7 -4,-7 -4,-7 -4,-7 -4,-6 -4,-7 -4,-7 -4,-7 -4,-7 -3,-7 -4,-8 -3,-7 -4,-7 -3,-7 -3,-7 -3,-8 -3,-7 -3,-7 -3,-7 -3,-8 -3,-7 -2,-7 -3,-8 -2,-7 -2,-8 -3,-7 -2,-7 -2,-8 -2,-7 -2,-8 -2,-7 -1,-7 -2,-8 -1,-7 -2,-8 -1,-7 -1,-7 -1,-8 -1,-7 -1,-7 -1,-8 v -7 l -1,-7 v -8 l -1,-7 v -7 -7 -8 -7 -7 l 1,-7 v -7 l 1,-7 1,-7 1,-7 1,-7 1,-7 1,-7 1,-7 2,-6 1,-7 2,-7 2,-7 2,-6 2,-7 3,-6 2,-7 3,-6 3,-6 3,-6 3,-7 3,-6 4,-6 3,-6 4,-5 4,-6 4,-6 4,-5 5,-5 4,-6 5,-5 5,-5 5,-5 5,-4 6,-5 5,-4 6,-4 6,-4 6,-4 6,-4"
         style="fill:none;stroke:#000000;stroke-width:24;stroke-linecap:round;stroke-linejoin:round;stroke-miterlimit:10;stroke-dasharray:none;stroke-opacity:1"
         id="path3602" />
      <path
         d="m 11721,4931 67,-39"
         style="fill:none;stroke:#000000;stroke-width:24;stroke-linecap:round;stroke-linejoin:round;stroke-miterlimit:10;stroke-dasharray:none;stroke-opacity:1"
         id="path3604" />
    </g>
  </g>
</svg>
