<svg xmlns="http://www.w3.org/2000/svg" width="500" height="500"><defs><clipPath id="a" clipPathUnits="userSpaceOnUse"><path d="M4610 4220h7643v7594H4610z"/></clipPath></defs><g clip-path="url(#a)" transform="matrix(.05997 0 0 -.05997 -255.659 730.819)"><path d="M8451.037 11307.419c.444-6.542 4.905-12.777 12.581-17.585M8465 10519v729" style="fill:none;stroke:#000;stroke-width:12;stroke-linecap:round;stroke-linejoin:round;stroke-miterlimit:10;stroke-dasharray:none;stroke-opacity:1"/><path d="M-18.666-34.882c4.808-7.676 11.043-12.137 17.585-12.581" style="fill:none;stroke:#000;stroke-width:12;stroke-linecap:round;stroke-linejoin:round;stroke-miterlimit:10;stroke-dasharray:none;stroke-opacity:1" transform="rotate(-29.993 13861.241 -18434.738)"/><path d="m10950 4492-1581 912M11341.65 4613.59c17.768-8.786 43.932-8.786 61.7 0" style="fill:none;stroke:#000;stroke-width:12;stroke-linecap:round;stroke-linejoin:round;stroke-miterlimit:10;stroke-dasharray:none;stroke-opacity:1"/><path d="M-159.443-323.547c91.827-135.937 227.059-135.937 318.886 0" style="fill:none;stroke:#000;stroke-width:12;stroke-linecap:round;stroke-linejoin:round;stroke-miterlimit:10;stroke-dasharray:none;stroke-opacity:1" transform="rotate(29.998 -3416.71 22993.785)"/><path d="M10.709-472.135c64.826 4.42 126.615 48.8 174.257 125.155" style="fill:none;stroke:#000;stroke-width:12;stroke-linecap:round;stroke-linejoin:round;stroke-miterlimit:10;stroke-dasharray:none;stroke-opacity:1" transform="rotate(29.998 -3435.667 23064.868)"/><path d="M11341.65 9628.589c17.768-8.785 43.932-8.785 61.7 0M11338 9590v-723M11338 6157V4696M11405 4691v1377M11405 8867v723" style="fill:none;stroke:#000;stroke-width:12;stroke-linecap:round;stroke-linejoin:round;stroke-miterlimit:10;stroke-dasharray:none;stroke-opacity:1"/><path d="M20.91-30.85c8.786 17.768 8.786 43.932 0 61.7" style="fill:none;stroke:#000;stroke-width:12;stroke-linecap:round;stroke-linejoin:round;stroke-miterlimit:10;stroke-dasharray:none;stroke-opacity:1" transform="rotate(150.002 4173.26 6568.457)"/><path d="M186.677-276.346c78.43 159.155 78.43 393.537 0 552.692" style="fill:none;stroke:#000;stroke-width:12;stroke-linecap:round;stroke-linejoin:round;stroke-miterlimit:10;stroke-dasharray:none;stroke-opacity:1" transform="rotate(29.998 -12775.45 25501.329)"/><path d="M207.207-306.871c87.057 176.735 87.057 437.007 0 613.742" style="fill:none;stroke:#000;stroke-width:12;stroke-linecap:round;stroke-linejoin:round;stroke-miterlimit:10;stroke-dasharray:none;stroke-opacity:1" transform="rotate(29.998 -12796.273 25572.912)"/><path d="M20.91-30.85c8.786 17.768 8.786 43.932 0 61.7" style="fill:none;stroke:#000;stroke-width:12;stroke-linecap:round;stroke-linejoin:round;stroke-miterlimit:10;stroke-dasharray:none;stroke-opacity:1" transform="rotate(150.002 2861.629 6919.588)"/><path d="m8879 11397 2045-1181M10957 10274l-2044 1180" style="fill:none;stroke:#000;stroke-width:12;stroke-linecap:round;stroke-linejoin:round;stroke-miterlimit:10;stroke-dasharray:none;stroke-opacity:1"/><path d="M-159.443-323.547c91.827-135.937 227.059-135.937 318.886 0" style="fill:none;stroke:#000;stroke-width:12;stroke-linecap:round;stroke-linejoin:round;stroke-miterlimit:10;stroke-dasharray:none;stroke-opacity:1" transform="rotate(-150.002 5872.351 4383.347)"/><path d="M184.966 346.98C137.324 423.336 75.535 467.714 10.709 472.135" style="fill:none;stroke:#000;stroke-width:12;stroke-linecap:round;stroke-linejoin:round;stroke-miterlimit:10;stroke-dasharray:none;stroke-opacity:1" transform="rotate(29.998 -16378.815 21988.532)"/><path d="M0-472.5c72.272 0 141.583 49.781 192.687 138.392" style="fill:none;stroke:#000;stroke-width:24;stroke-linecap:round;stroke-linejoin:round;stroke-miterlimit:10;stroke-dasharray:none;stroke-opacity:1" transform="rotate(29.998 -3533.182 23425.016)"/><path d="m11564 4706-151-87" style="fill:none;stroke:#000;stroke-width:12;stroke-linecap:round;stroke-linejoin:round;stroke-miterlimit:10;stroke-dasharray:none;stroke-opacity:1"/><path d="M-77.428-133.29c42.762-73.613 112.094-73.613 154.856 0" style="fill:none;stroke:#000;stroke-width:24;stroke-linecap:round;stroke-linejoin:round;stroke-miterlimit:10;stroke-dasharray:none;stroke-opacity:1" transform="rotate(29.998 -6242.796 22814.939)"/><path d="m10570 6023-152 88M10703 6279v-179" style="fill:none;stroke:#000;stroke-width:24;stroke-linecap:round;stroke-linejoin:round;stroke-miterlimit:10;stroke-dasharray:none;stroke-opacity:1"/><path d="m10579 6028-9-5M11230 10300l-151-87" style="fill:none;stroke:#000;stroke-width:12;stroke-linecap:round;stroke-linejoin:round;stroke-miterlimit:10;stroke-dasharray:none;stroke-opacity:1"/><path d="m8966 11616 2272-1311" style="fill:none;stroke:#000;stroke-width:24;stroke-linecap:round;stroke-linejoin:round;stroke-miterlimit:10;stroke-dasharray:none;stroke-opacity:1"/><path d="m8958 11612-151-87M11564 9721l-151-87" style="fill:none;stroke:#000;stroke-width:12;stroke-linecap:round;stroke-linejoin:round;stroke-miterlimit:10;stroke-dasharray:none;stroke-opacity:1"/><path d="M192.687-334.108c106.417 184.523 106.417 483.693 0 668.216" style="fill:none;stroke:#000;stroke-width:24;stroke-linecap:round;stroke-linejoin:round;stroke-miterlimit:10;stroke-dasharray:none;stroke-opacity:1" transform="rotate(29.998 -12891.922 25932.56)"/><path d="M11572 9726v-810M11572 5405v-694" style="fill:none;stroke:#000;stroke-width:24;stroke-linecap:round;stroke-linejoin:round;stroke-miterlimit:10;stroke-dasharray:none;stroke-opacity:1"/><path d="M192.687 334.108C141.583 422.718 72.27 472.5 0 472.5" style="fill:none;stroke:#000;stroke-width:24;stroke-linecap:round;stroke-linejoin:round;stroke-miterlimit:10;stroke-dasharray:none;stroke-opacity:1" transform="rotate(29.998 -16476.33 22348.68)"/><path d="M8451 11308v-822M9268 5447l1779-1028 9-4 8-5 8-4 9-4 8-4 8-3 9-3 8-4 9-2 8-3 8-2 9-2 8-2 9-2 8-1 8-1h9l8-1h17l8 1h8l8 2 8 1 8 2 8 2 7 2 8 3 8 3 7 3 7 3 7 4M8563 11543l-7-4-7-4-6-5-7-5-6-5-6-6-5-6-6-6-5-6-5-6-5-7-4-7-4-7-4-7-4-8-4-7-3-8-3-8-3-8-3-8-2-8-3-9-2-8-1-9-2-9-1-9-1-9-1-9-1-9-1-9v-19M11474 4495l-167-97M8730 11640l-167-97" style="fill:none;stroke:#000;stroke-width:24;stroke-linecap:round;stroke-linejoin:round;stroke-miterlimit:10;stroke-dasharray:none;stroke-opacity:1"/><path d="M9.163 17.257c-2.36 3.798-5.42 6.005-8.632 6.225" style="fill:none;stroke:#000;stroke-width:12;stroke-linecap:round;stroke-linejoin:round;stroke-miterlimit:10;stroke-dasharray:none;stroke-opacity:1" transform="rotate(150.002 4482.43 4444.481)"/><path d="M10687.549 6109.586c4.108-2.181 9.437-3.45 15.027-3.576" style="fill:none;stroke:#000;stroke-width:12;stroke-linecap:round;stroke-linejoin:round;stroke-miterlimit:10;stroke-dasharray:none;stroke-opacity:1"/><path d="M-62.024-125.845c35.721-52.873 88.327-52.873 124.048 0" style="fill:none;stroke:#000;stroke-width:12;stroke-linecap:round;stroke-linejoin:round;stroke-miterlimit:10;stroke-dasharray:none;stroke-opacity:1" transform="rotate(29.998 -6242.796 22814.939)"/><path d="M10687 6259v-142M10563 6046l-122 70" style="fill:none;stroke:#000;stroke-width:12;stroke-linecap:round;stroke-linejoin:round;stroke-miterlimit:10;stroke-dasharray:none;stroke-opacity:1"/><path d="m10427 6116 148-85 6-3 6-3 6-3 6-2 6-2 6-2 6-2 7-1 6-1h12l6 1h6l6 2 6 1 3 1 3 1" style="fill:none;stroke:#000;stroke-width:24;stroke-linecap:round;stroke-linejoin:round;stroke-miterlimit:10;stroke-dasharray:none;stroke-opacity:1"/><path d="M287.485-434.852C393.312-224.504 411.6 78.39 333.193 322.182" style="fill:none;stroke:#000;stroke-width:12;stroke-linecap:round;stroke-linejoin:round;stroke-miterlimit:10;stroke-dasharray:none;stroke-opacity:1" transform="rotate(-150.002 4923.066 1684.377)"/><path d="M7862.037 5893.42c.444-6.543 4.905-12.778 12.582-17.586" style="fill:none;stroke:#000;stroke-width:12;stroke-linecap:round;stroke-linejoin:round;stroke-miterlimit:10;stroke-dasharray:none;stroke-opacity:1"/><path d="M8247 5132v-10l1-1v-2l1-1v-1l1-1 1-1v-1l1-1 1-1h1" style="fill:none;stroke:#000;stroke-width:24;stroke-linecap:round;stroke-linejoin:round;stroke-miterlimit:10;stroke-dasharray:none;stroke-opacity:1"/><path d="M7862.037 6456.42c.444-6.543 4.905-12.778 12.582-17.586M7876 5902v508" style="fill:none;stroke:#000;stroke-width:12;stroke-linecap:round;stroke-linejoin:round;stroke-miterlimit:10;stroke-dasharray:none;stroke-opacity:1"/><path d="M124.901-625.043c51.634 31.021 98.822 80.915 138.37 146.304" style="fill:none;stroke:#000;stroke-width:12;stroke-linecap:round;stroke-linejoin:round;stroke-miterlimit:10;stroke-dasharray:none;stroke-opacity:1" transform="rotate(-150.002 4998.623 1966.377)"/><path d="M276.426-455.901c39.61 72.206 69.298 158.996 86.85 253.888" style="fill:none;stroke:#000;stroke-width:12;stroke-linecap:round;stroke-linejoin:round;stroke-miterlimit:10;stroke-dasharray:none;stroke-opacity:1" transform="rotate(29.998 -7474.864 18492.775)"/><path d="M8714.65 5942.59c17.768-8.786 43.932-8.786 61.7 0" style="fill:none;stroke:#000;stroke-width:12;stroke-linecap:round;stroke-linejoin:round;stroke-miterlimit:10;stroke-dasharray:none;stroke-opacity:1"/><path d="M295.168-491.092c33.358 60.019 60.34 129.741 79.708 205.967" style="fill:none;stroke:#000;stroke-width:12;stroke-linecap:round;stroke-linejoin:round;stroke-miterlimit:10;stroke-dasharray:none;stroke-opacity:1" transform="rotate(29.998 -7493.82 18563.858)"/><path d="M8714.65 5402.59c17.768-8.786 43.932-8.786 61.7 0M8778 5431v486M8711 5917v-486" style="fill:none;stroke:#000;stroke-width:12;stroke-linecap:round;stroke-linejoin:round;stroke-miterlimit:10;stroke-dasharray:none;stroke-opacity:1"/><path d="M16.093-707.953c97.417 6.629 190.27 73.173 261.864 187.667" style="fill:none;stroke:#000;stroke-width:12;stroke-linecap:round;stroke-linejoin:round;stroke-miterlimit:10;stroke-dasharray:none;stroke-opacity:1" transform="rotate(29.998 -6486.1 18293.854)"/><path d="M-245.762-505.954c142.816-208.568 351.708-207.249 493.643 3.118" style="fill:none;stroke:#000;stroke-width:12;stroke-linecap:round;stroke-linejoin:round;stroke-miterlimit:10;stroke-dasharray:none;stroke-opacity:1" transform="rotate(29.998 -6467.143 18222.77)"/><path d="M10707 6517 8880 5462M8811 5963l587 339" style="fill:none;stroke:#000;stroke-width:12;stroke-linecap:round;stroke-linejoin:round;stroke-miterlimit:10;stroke-dasharray:none;stroke-opacity:1"/><path d="m8253 5113-11 8-10 9-10 9-10 9-10 10-10 9-10 10-10 10-10 10-9 10-10 11-9 11-9 10-10 11-9 12-9 11-9 11-8 12-9 12-8 12-9 12-8 12-8 12-8 12-8 13-7 12-8 13-7 13-7 13-7 13-7 13-7 13-6 13-7 13-6 13-6 14-5 13-6 13-5 14-6 13-5 14-4 13-5 14-5 13-4 14-4 13-4 14-3 13-4 13-3 14-3 13-3 14-2 13-3 13-2 13-2 13-1 13-2 13-1 13-1 13-1 13v13l-1 12v591l1 14 1 15 1 14 1 14 2 14 2 13 3 14 2 13 4 13 3 12 4 13 4 12 2 6 3 6 2 6 2 6 3 6 3 6M10671 6257 8631 5079l-5-2-5-3-5-3-5-2-5-3-5-2-5-2-6-2-5-2-6-2-5-1-6-2-5-1-6-2-5-1-6-1-6-1-5-1-6-1-6-1-12-1-11-1h-24l-12 1-12 1-12 1-13 2-12 2-12 3-12 3-13 3-12 4-13 4-12 4-12 5-13 5-12 6-13 6-12 6-12 7-13 7" style="fill:none;stroke:#000;stroke-width:24;stroke-linecap:round;stroke-linejoin:round;stroke-miterlimit:10;stroke-dasharray:none;stroke-opacity:1"/><path d="M7729.037 6309.42c.444-6.543 4.905-12.778 12.582-17.586" style="fill:none;stroke:#000;stroke-width:12;stroke-linecap:round;stroke-linejoin:round;stroke-miterlimit:10;stroke-dasharray:none;stroke-opacity:1"/><path d="M-18.666-34.882c4.808-7.676 11.043-12.137 17.585-12.581" style="fill:none;stroke:#000;stroke-width:12;stroke-linecap:round;stroke-linejoin:round;stroke-miterlimit:10;stroke-dasharray:none;stroke-opacity:1" transform="rotate(-29.993 15666.78 -11359.622)"/><path d="m7856 6225-108 63M7742 6315v424" style="fill:none;stroke:#000;stroke-width:12;stroke-linecap:round;stroke-linejoin:round;stroke-miterlimit:10;stroke-dasharray:none;stroke-opacity:1"/><path d="M-41.137-23.749A47.5 47.5 0 0 1 0-47.5" style="fill:none;stroke:#000;stroke-width:24;stroke-linecap:round;stroke-linejoin:round;stroke-miterlimit:10;stroke-dasharray:none;stroke-opacity:1" transform="rotate(-29.998 15664.656 -11356.807)"/><path d="m7752 6269 110-63M7729 6770v-460" style="fill:none;stroke:#000;stroke-width:24;stroke-linecap:round;stroke-linejoin:round;stroke-miterlimit:10;stroke-dasharray:none;stroke-opacity:1"/><path d="M11923 8578 9217 7016" style="fill:none;stroke:#000;stroke-width:12;stroke-linecap:round;stroke-linejoin:round;stroke-miterlimit:10;stroke-dasharray:none;stroke-opacity:1"/><path d="M41.441-61.374c17.412 35.347 17.412 87.401 0 122.748" style="fill:none;stroke:#000;stroke-width:12;stroke-linecap:round;stroke-linejoin:round;stroke-miterlimit:10;stroke-dasharray:none;stroke-opacity:1" transform="rotate(29.998 -8254.46 20345.756)"/><path d="m9280 6898 2646 1528" style="fill:none;stroke:#000;stroke-width:12;stroke-linecap:round;stroke-linejoin:round;stroke-miterlimit:10;stroke-dasharray:none;stroke-opacity:1"/><path d="M0-77.5c73.73 0 133.5 34.698 133.5 77.5" style="fill:none;stroke:#000;stroke-width:24;stroke-linecap:round;stroke-linejoin:round;stroke-miterlimit:10;stroke-dasharray:none;stroke-opacity:1" transform="rotate(60.002 -1400.521 14672.305)"/><path d="M2.142-94.427c12.965.884 25.323 9.76 34.851 25.031" style="fill:none;stroke:#000;stroke-width:12;stroke-linecap:round;stroke-linejoin:round;stroke-miterlimit:10;stroke-dasharray:none;stroke-opacity:1" transform="rotate(29.998 -7103.046 20037.25)"/><path d="M-176.765 221.9c-63.18-150.226-53.739-357.527 22.262-488.833s195.989-147.617 282.94-38.462" style="fill:none;stroke:#000;stroke-width:12;stroke-linecap:round;stroke-linejoin:round;stroke-miterlimit:10;stroke-dasharray:none;stroke-opacity:1" transform="rotate(-29.993 16709.244 -13794.965)"/><path d="M214.002-292.515c61.059 134.304 75.499 315.334 37.755 473.333C214.014 338.816 129.98 449.12 32.034 469.224" style="fill:none;stroke:#000;stroke-width:12;stroke-linecap:round;stroke-linejoin:round;stroke-miterlimit:10;stroke-dasharray:none;stroke-opacity:1" transform="rotate(150.002 3656.651 4486.354)"/><path d="M11745.126 4998.059c35.347-17.412 87.401-17.412 122.748 0M11873 5000v37l-1 18v37l-1 18-1 18v18l-1 18-1 18-1 18-1 17-1 18-2 18-1 17-2 18-1 17-2 17-2 18-2 17-2 17-2 17-2 17-3 17-2 16-3 17-2 17-3 16-3 17-3 16-3 16-3 17-4 16-3 16-4 16-3 16-4 15-4 16-4 16-4 15-4 16-4 15-5 15-4 15-5 15-4 15-5 15-5 15-5 14-5 15-5 14-6 15-5 14-6 14-5 14-6 14-6 13-6 14-6 14-6 13-6 13-7 14-6 13-7 13-7 12-6 13-7 13-7 12-8 13-7 12-7 12-8 12-7 12-8 12-8 11-7 12-8 11-8 11-9 12-8 11-8 10-9 11-8 11-9 10-9 11-8 10-9 10-9 10-10 10-9 10-9 9-10 10-9 9-10 9-9 9-10 9-10 9-10 9-10 8-10 8-10 9-11 8-10 8-11 8-10 7-11 8-11 7-10 8-11 7-11 7-11 7-12 6-11 7-11 6-12 7-11 6-12 6-11 6-12 6-12 5-12 6-11 5-12 5-13 6-12 5-12 4-12 5-13 5-12 4-12 4-13 4-13 4-12 4-13 4-13 4-13 3-13 4-13 3-13 3-13 3-13 3-13 2-13 3-14 2-13 2-14 3-13 2-14 2-13 1-14 2-14 1-14 2-13 1-14 1-14 1-14 1-14 1h-14l-14 1h-29l-14 1h-14l-14-1h-29l-15-1h-14l-15-1-14-1-15-1-15-1-14-1-15-1-15-2-14-1-15-2-15-2-15-2-15-2-15-2-15-2-15-3-15-2-15-3-15-2-15-3-15-3-15-3-16-3-15-4-15-3-15-4-16-3-15-4-15-4-16-3-15-4-16-5-15-4-16-4-15-5-16-4-15-5-31-9-31-10-32-11-31-10-31-11-32-12-31-12-32-12-31-13-32-13-31-13-32-14-32-14-31-14-32-15-32-15-32-15-32-16-32-16-31-17-32-16-32-17-32-18-32-17-32-18-32-19" style="fill:none;stroke:#000;stroke-width:12;stroke-linecap:round;stroke-linejoin:round;stroke-miterlimit:10;stroke-dasharray:none;stroke-opacity:1"/><path d="m11103 6463 9-6 10-6 9-6 10-6 9-6 10-6 9-6 9-6 9-7 9-7 9-6 9-7 9-7 9-7 9-7 8-7 9-7 9-8 8-7 9-8 8-8 8-7 8-8 9-8 8-8 8-9 8-8 7-8 8-9 8-8 8-9 7-9 8-9 7-9 7-9 8-9 7-9 7-10 7-9 7-10 7-9 7-10 6-10 7-10 7-10 6-10 7-10 6-11 6-10 6-11 6-10 7-11 5-11 6-11 6-11 6-11 6-11 5-11 6-11 5-12 5-11 6-12 5-11 5-12 5-12 5-12 4-12 5-12 5-12 4-12 5-13 4-12 5-13 4-12 4-13 4-13 4-12 4-13 4-13 4-13 4-13 3-13 4-14 3-13 4-13 3-14 3-13 3-14 3-14 3-13 3-14 3-14 3-14 2-14 3-14 2-14 3-14 2-15 2-14 3-14 2-15 2-14 4-29 3-30 3-30 3-29 3-31 2-30 2-30 1-31 2-31 1-31 1-31v-64" style="fill:none;stroke:#000;stroke-width:12;stroke-linecap:round;stroke-linejoin:round;stroke-miterlimit:10;stroke-dasharray:none;stroke-opacity:1"/><path d="M-69.396 36.993c-15.271-9.528-24.147-21.886-25.031-34.851" style="fill:none;stroke:#000;stroke-width:12;stroke-linecap:round;stroke-linejoin:round;stroke-miterlimit:10;stroke-dasharray:none;stroke-opacity:1" transform="rotate(180 6003.25 2577.75)"/><path d="M-47.907-114.473c32.433-40.915 77.188-34.8 105.536 14.417C85.977-50.838 89.5 26.866 65.933 83.176" style="fill:none;stroke:#000;stroke-width:12;stroke-linecap:round;stroke-linejoin:round;stroke-miterlimit:10;stroke-dasharray:none;stroke-opacity:1" transform="rotate(-29.993 15428.406 -19819.325)"/><path d="M92.652 173.673c-23.864 38.219-54.815 60.432-87.288 62.644" style="fill:none;stroke:#000;stroke-width:12;stroke-linecap:round;stroke-linejoin:round;stroke-miterlimit:10;stroke-dasharray:none;stroke-opacity:1" transform="rotate(150.002 5270.367 4143.816)"/><path d="M12073 8341V5286" style="fill:none;stroke:#000;stroke-width:12;stroke-linecap:round;stroke-linejoin:round;stroke-miterlimit:10;stroke-dasharray:none;stroke-opacity:1"/><path d="M11672 5039v66l-1 16v17l-1 16v16l-1 16-1 16v16l-1 15-1 16-1 16-2 15-1 16-1 15-2 15-1 15-2 15-1 15-2 15-2 15-1 15-2 15-2 14-2 15-3 14-2 14-2 15-3 14-2 14-2 14-3 14-3 14-3 13-2 14-3 14-3 13-3 14-3 13-4 13-3 13-3 13-4 13-3 13-4 13-3 13-4 12-4 13-4 12-4 13-4 12-4 12-4 12-4 12-4 12-5 12-4 12-5 12-4 11-5 12-5 11-4 12-5 11-5 11-5 11-5 11-5 11-6 11-10 21-11 21-11 21-12 21-11 20-12 19-13 20-12 19-13 18-13 18-13 18-14 18-14 17-14 17-14 16-15 17-15 15-15 16-15 15-16 15-16 14-16 14-16 14-17 13-17 13-17 12-17 13-18 11-18 12" style="fill:none;stroke:#000;stroke-width:24;stroke-linecap:round;stroke-linejoin:round;stroke-miterlimit:10;stroke-dasharray:none;stroke-opacity:1"/><path d="m11676 5037 60-35M5321 9092l3548-2049" style="fill:none;stroke:#000;stroke-width:12;stroke-linecap:round;stroke-linejoin:round;stroke-miterlimit:10;stroke-dasharray:none;stroke-opacity:1"/><path d="M-214.002 292.515c-61.059-134.304-75.499-315.334-37.755-473.333C-214.014-338.816-129.98-449.12-32.034-469.224" style="fill:none;stroke:#000;stroke-width:12;stroke-linecap:round;stroke-linejoin:round;stroke-miterlimit:10;stroke-dasharray:none;stroke-opacity:1" transform="rotate(-29.993 19025.709 -5154.669)"/><path d="m11438 8839 168 96 467-270" style="fill:none;stroke:#000;stroke-width:24;stroke-linecap:round;stroke-linejoin:round;stroke-miterlimit:10;stroke-dasharray:none;stroke-opacity:1"/><path d="M11305.679 8838.963c36.904-21.284 96.738-21.284 133.642 0M11305 8839l-384 222-101-58" style="fill:none;stroke:#000;stroke-width:24;stroke-linecap:round;stroke-linejoin:round;stroke-miterlimit:10;stroke-dasharray:none;stroke-opacity:1"/><path d="M10753.912 9003.055c18.55-10.74 48.626-10.74 67.176 0M10754 9003l-134 77M10619.912 9118.945c-18.55-10.739-18.55-28.151 0-38.89M10620 9119l100 57-1704 984-100-58M8849.912 10103.055c18.55-10.74 48.626-10.74 67.176 0M8715 10179l134-77" style="fill:none;stroke:#000;stroke-width:24;stroke-linecap:round;stroke-linejoin:round;stroke-miterlimit:10;stroke-dasharray:none;stroke-opacity:1"/><path d="M33.588-19.445c18.55 10.739 18.55 28.151 0 38.89" style="fill:none;stroke:#000;stroke-width:24;stroke-linecap:round;stroke-linejoin:round;stroke-miterlimit:10;stroke-dasharray:none;stroke-opacity:1" transform="rotate(180 4374.75 5099.75)"/><path d="m8431 10498 385-222-101-58" style="fill:none;stroke:#000;stroke-width:24;stroke-linecap:round;stroke-linejoin:round;stroke-miterlimit:10;stroke-dasharray:none;stroke-opacity:1"/><path d="M66.822-38.537c36.904 21.283 36.904 55.79 0 77.074" style="fill:none;stroke:#000;stroke-width:24;stroke-linecap:round;stroke-linejoin:round;stroke-miterlimit:10;stroke-dasharray:none;stroke-opacity:1" transform="rotate(180 4249.25 5268.25)"/><path d="m8451 10586-20-11M8451 10756l-320 185" style="fill:none;stroke:#000;stroke-width:24;stroke-linecap:round;stroke-linejoin:round;stroke-miterlimit:10;stroke-dasharray:none;stroke-opacity:1"/><path d="m5274 9292 2706 1563" style="fill:none;stroke:#000;stroke-width:12;stroke-linecap:round;stroke-linejoin:round;stroke-miterlimit:10;stroke-dasharray:none;stroke-opacity:1"/><path d="M-36.993-69.396c9.528-15.271 21.886-24.147 34.851-25.031" style="fill:none;stroke:#000;stroke-width:12;stroke-linecap:round;stroke-linejoin:round;stroke-miterlimit:10;stroke-dasharray:none;stroke-opacity:1" transform="rotate(-150.002 3785.159 3877.749)"/><path d="M133.5 0c0 20.554-14.065 40.267-39.101 54.8" style="fill:none;stroke:#000;stroke-width:24;stroke-linecap:round;stroke-linejoin:round;stroke-miterlimit:10;stroke-dasharray:none;stroke-opacity:1" transform="rotate(60.002 -5343.395 12397.069)"/><path d="M8816 10276v-77" style="fill:none;stroke:#000;stroke-width:24;stroke-linecap:round;stroke-linejoin:round;stroke-miterlimit:10;stroke-dasharray:none;stroke-opacity:1"/><path d="M8431 10571v-69" style="fill:none;stroke:#000;stroke-width:12;stroke-linecap:round;stroke-linejoin:round;stroke-miterlimit:10;stroke-dasharray:none;stroke-opacity:1"/><path d="m8431 10498 20 11" style="fill:none;stroke:#000;stroke-width:24;stroke-linecap:round;stroke-linejoin:round;stroke-miterlimit:10;stroke-dasharray:none;stroke-opacity:1"/><path d="M8715 10216v-35" style="fill:none;stroke:#000;stroke-width:12;stroke-linecap:round;stroke-linejoin:round;stroke-miterlimit:10;stroke-dasharray:none;stroke-opacity:1"/><path d="m8749 10160 67 39M11539 5877v-452l117-68" style="fill:none;stroke:#000;stroke-width:24;stroke-linecap:round;stroke-linejoin:round;stroke-miterlimit:10;stroke-dasharray:none;stroke-opacity:1"/><path d="M96.52 167.23C70.921 211.584 36.202 236.5 0 236.5" style="fill:none;stroke:#000;stroke-width:24;stroke-linecap:round;stroke-linejoin:round;stroke-miterlimit:10;stroke-dasharray:none;stroke-opacity:1" transform="rotate(150.002 5231.777 4153.84)"/><path d="M10720 9176v-77l-67-38" style="fill:none;stroke:#000;stroke-width:24;stroke-linecap:round;stroke-linejoin:round;stroke-miterlimit:10;stroke-dasharray:none;stroke-opacity:1"/><path d="M10620 9117v-35" style="fill:none;stroke:#000;stroke-width:12;stroke-linecap:round;stroke-linejoin:round;stroke-miterlimit:10;stroke-dasharray:none;stroke-opacity:1"/><path d="m8830 6134 8-4 9-4 8-4 9-4 9-3 9-2 9-3 9-2 9-1 9-1 9-1 10-1h27l9 1 9 1 10 2 9 1 9 2 9 2 9 3 8 2 9 3 9 4 9 3 8 4 9 3 8 5 9 4 8 4 9 5 17 10 18 10 17 10 17 10 18 9 17 10 18 9 17 10 18 9 17 9 18 9 17 9 17 9 18 9 17 9 18 8 17 9 17 8 18 8 17 8 17 9 18 7 17 8 17 8 18 8 17 7 17 8 17 7 17 7 18 7 17 7 17 7 17 7 17 6 17 7 17 6 17 6 17 7 17 6 17 5 17 6 17 6 17 6 17 5 17 5 16 5 17 5 17 5 17 5 16 5 17 4 17 5 16 4 17 4 16 4 17 4 16 4 16 4 17 3 16 4 16 3 17 3 16 3 16 3 16 3 16 2 16 3 16 2 16 2 16 2 15 2 16 2 16 1 16 2 15 1 16 1 15 1 15 1 16 1 15 1h31l15 1h30l15-1h14l15-1h15l15-1 14-1 15-1 14-1 15-2 14-1 14-2 14-2 14-2 14-2 14-2 14-3 14-3 14-2 13-3 14-3 13-3 14-4 13-3 13-4 13-4 13-4 13-4 13-4 13-5 13-4 12-5 13-5 12-5 12-5 13-5 12-6 12-5 12-6 12-6 12-6 11-6 12-7 12-6M11788 4892l4-2 4-2 4-2 4-2 4-1 5-2 4-1 4-2 4-1 5-1 4-1h4l4-1h5l4-1h21l8 1 8 1 7 2 8 1 7 2 8 3 7 2 7 3 6 3 7 4 6 3 7 4 6 4 6 4 6 4 5 4 6 5 5 4 6 5 5 5 5 5 5 5 5 5 5 6 4 5 5 6 4 6 5 5 4 6 4 6 4 6 3 6 4 7 4 6 3 6 3 7 3 6 3 7 3 7 3 6 2 7 3 7 2 7 2 7 2 7 1 7 2 7 1 7 1 7 1 7 1 7v7l1 7v3457M4888 8410l3942-2276M8064 10935 5077 9210l-7-4-6-3-6-4-6-4-6-4-6-5-6-4-6-4-6-5-6-4-6-5-5-5-6-5-6-4-5-6-6-5-6-5-5-5-6-6-5-5-5-6-6-5-5-6-5-6-5-5-5-6-5-6-5-6-5-7-5-6-5-6-5-6-4-7-5-6-4-7-5-6-4-7-5-6-4-7-4-7-4-7-4-7-4-6-4-7-4-7-4-7-4-7-3-7-4-8-3-7-4-7-3-7-3-7-3-8-3-7-3-7-3-7-3-8-3-7-2-7-3-8-2-7-2-8-3-7-2-7-2-8-2-7-2-8-2-7-1-7-2-8-1-7-2-8-1-7-1-7-1-8-1-7-1-7-1-8v-7l-1-7v-8l-1-7v-36l1-7v-7l1-7 1-7 1-7 1-7 1-7 1-7 1-7 2-6 1-7 2-7 2-7 2-6 2-7 3-6 2-7 3-6 3-6 3-6 3-7 3-6 4-6 3-6 4-5 4-6 4-6 4-5 5-5 4-6 5-5 5-5 5-5 5-4 6-5 5-4 6-4 6-4 6-4 6-4M11721 4931l67-39" style="fill:none;stroke:#000;stroke-width:24;stroke-linecap:round;stroke-linejoin:round;stroke-miterlimit:10;stroke-dasharray:none;stroke-opacity:1"/></g></svg>