<?xml version="1.0" encoding="utf-8" standalone="no"?>
<!DOCTYPE svg PUBLIC "-//W3C//DTD SVG 1.1//EN"
  "http://www.w3.org/Graphics/SVG/1.1/DTD/svg11.dtd">
<svg xmlns:xlink="http://www.w3.org/1999/xlink" width="432pt" height="144pt" viewBox="0 0 432 144" xmlns="http://www.w3.org/2000/svg" version="1.1">
 <metadata>
  <rdf:RDF xmlns:dc="http://purl.org/dc/elements/1.1/" xmlns:cc="http://creativecommons.org/ns#" xmlns:rdf="http://www.w3.org/1999/02/22-rdf-syntax-ns#">
   <cc:Work>
    <dc:type rdf:resource="http://purl.org/dc/dcmitype/StillImage"/>
    <dc:date>2025-01-26T14:41:38.494634</dc:date>
    <dc:format>image/svg+xml</dc:format>
    <dc:creator>
     <cc:Agent>
      <dc:title>Matplotlib v3.8.2, https://matplotlib.org/</dc:title>
     </cc:Agent>
    </dc:creator>
   </cc:Work>
  </rdf:RDF>
 </metadata>
 <defs>
  <style type="text/css">*{stroke-linejoin: round; stroke-linecap: butt}</style>
 </defs>
 <g id="figure_1">
  <g id="patch_1">
   <path d="M 0 144 
L 432 144 
L 432 0 
L 0 0 
L 0 144 
z
" style="fill: none"/>
  </g>
  <g id="axes_1">
   <g id="patch_2">
    <path d="M 33.64 58.309559 
L 415.449081 58.309559 
L 415.449081 21.72 
L 33.64 21.72 
L 33.64 58.309559 
z
" style="fill: none"/>
   </g>
   <g id="patch_3">
    <path d="M 33.64 58.309559 
L 37.148617 58.309559 
L 37.148617 -83.935628 
L 33.64 -83.935628 
z
" clip-path="url(#p925f2d3785)" style="fill: #1f77b4"/>
   </g>
   <g id="patch_4">
    <path d="M 37.148617 58.309559 
L 40.657233 58.309559 
L 40.657233 54.292026 
L 37.148617 54.292026 
z
" clip-path="url(#p925f2d3785)" style="fill: #1f77b4"/>
   </g>
   <g id="patch_5">
    <path d="M 40.657233 58.309559 
L 44.16585 58.309559 
L 44.16585 55.137501 
L 40.657233 55.137501 
z
" clip-path="url(#p925f2d3785)" style="fill: #1f77b4"/>
   </g>
   <g id="patch_6">
    <path d="M 44.16585 58.309559 
L 47.674467 58.309559 
L 47.674467 55.381718 
L 44.16585 55.381718 
z
" clip-path="url(#p925f2d3785)" style="fill: #1f77b4"/>
   </g>
   <g id="patch_7">
    <path d="M 47.674467 58.309559 
L 51.183083 58.309559 
L 51.183083 55.613293 
L 47.674467 55.613293 
z
" clip-path="url(#p925f2d3785)" style="fill: #1f77b4"/>
   </g>
   <g id="patch_8">
    <path d="M 51.183083 58.309559 
L 54.6917 58.309559 
L 54.6917 55.819018 
L 51.183083 55.819018 
z
" clip-path="url(#p925f2d3785)" style="fill: #1f77b4"/>
   </g>
   <g id="patch_9">
    <path d="M 54.6917 58.309559 
L 58.200317 58.309559 
L 58.200317 56.05921 
L 54.6917 56.05921 
z
" clip-path="url(#p925f2d3785)" style="fill: #1f77b4"/>
   </g>
   <g id="patch_10">
    <path d="M 58.200317 58.309559 
L 61.708933 58.309559 
L 61.708933 56.321923 
L 58.200317 56.321923 
z
" clip-path="url(#p925f2d3785)" style="fill: #1f77b4"/>
   </g>
   <g id="patch_11">
    <path d="M 61.708933 58.309559 
L 65.21755 58.309559 
L 65.21755 56.546491 
L 61.708933 56.546491 
z
" clip-path="url(#p925f2d3785)" style="fill: #1f77b4"/>
   </g>
   <g id="patch_12">
    <path d="M 65.21755 58.309559 
L 68.726167 58.309559 
L 68.726167 56.734598 
L 65.21755 56.734598 
z
" clip-path="url(#p925f2d3785)" style="fill: #1f77b4"/>
   </g>
   <g id="patch_13">
    <path d="M 68.726167 58.309559 
L 72.234783 58.309559 
L 72.234783 56.89358 
L 68.726167 56.89358 
z
" clip-path="url(#p925f2d3785)" style="fill: #1f77b4"/>
   </g>
   <g id="patch_14">
    <path d="M 72.234783 58.309559 
L 75.7434 58.309559 
L 75.7434 57.013704 
L 72.234783 57.013704 
z
" clip-path="url(#p925f2d3785)" style="fill: #1f77b4"/>
   </g>
   <g id="patch_15">
    <path d="M 75.7434 58.309559 
L 79.252017 58.309559 
L 79.252017 57.116978 
L 75.7434 57.116978 
z
" clip-path="url(#p925f2d3785)" style="fill: #1f77b4"/>
   </g>
   <g id="patch_16">
    <path d="M 79.252017 58.309559 
L 82.760633 58.309559 
L 82.760633 57.219245 
L 79.252017 57.219245 
z
" clip-path="url(#p925f2d3785)" style="fill: #1f77b4"/>
   </g>
   <g id="patch_17">
    <path d="M 82.760633 58.309559 
L 86.26925 58.309559 
L 86.26925 57.301517 
L 82.760633 57.301517 
z
" clip-path="url(#p925f2d3785)" style="fill: #1f77b4"/>
   </g>
   <g id="patch_18">
    <path d="M 86.26925 58.309559 
L 89.777866 58.309559 
L 89.777866 57.365238 
L 86.26925 57.365238 
z
" clip-path="url(#p925f2d3785)" style="fill: #1f77b4"/>
   </g>
   <g id="patch_19">
    <path d="M 89.777866 58.309559 
L 93.286483 58.309559 
L 93.286483 57.418183 
L 89.777866 57.418183 
z
" clip-path="url(#p925f2d3785)" style="fill: #1f77b4"/>
   </g>
   <g id="patch_20">
    <path d="M 93.286483 58.309559 
L 96.7951 58.309559 
L 96.7951 57.459529 
L 93.286483 57.459529 
z
" clip-path="url(#p925f2d3785)" style="fill: #1f77b4"/>
   </g>
   <g id="patch_21">
    <path d="M 96.7951 58.309559 
L 100.303716 58.309559 
L 100.303716 57.465017 
L 96.7951 57.465017 
z
" clip-path="url(#p925f2d3785)" style="fill: #1f77b4"/>
   </g>
   <g id="patch_22">
    <path d="M 100.303716 58.309559 
L 103.812333 58.309559 
L 103.812333 57.438453 
L 100.303716 57.438453 
z
" clip-path="url(#p925f2d3785)" style="fill: #1f77b4"/>
   </g>
   <g id="patch_23">
    <path d="M 103.812333 58.309559 
L 107.32095 58.309559 
L 107.32095 57.410517 
L 103.812333 57.410517 
z
" clip-path="url(#p925f2d3785)" style="fill: #1f77b4"/>
   </g>
   <g id="patch_24">
    <path d="M 107.32095 58.309559 
L 110.829566 58.309559 
L 110.829566 57.478501 
L 107.32095 57.478501 
z
" clip-path="url(#p925f2d3785)" style="fill: #1f77b4"/>
   </g>
   <g id="patch_25">
    <path d="M 110.829566 58.309559 
L 114.338183 58.309559 
L 114.338183 57.60124 
L 110.829566 57.60124 
z
" clip-path="url(#p925f2d3785)" style="fill: #1f77b4"/>
   </g>
   <g id="patch_26">
    <path d="M 114.338183 58.309559 
L 117.8468 58.309559 
L 117.8468 57.695202 
L 114.338183 57.695202 
z
" clip-path="url(#p925f2d3785)" style="fill: #1f77b4"/>
   </g>
   <g id="patch_27">
    <path d="M 117.8468 58.309559 
L 121.355416 58.309559 
L 121.355416 57.776321 
L 117.8468 57.776321 
z
" clip-path="url(#p925f2d3785)" style="fill: #1f77b4"/>
   </g>
   <g id="patch_28">
    <path d="M 121.355416 58.309559 
L 124.864033 58.309559 
L 124.864033 57.821857 
L 121.355416 57.821857 
z
" clip-path="url(#p925f2d3785)" style="fill: #1f77b4"/>
   </g>
   <g id="patch_29">
    <path d="M 124.864033 58.309559 
L 128.37265 58.309559 
L 128.37265 57.84414 
L 124.864033 57.84414 
z
" clip-path="url(#p925f2d3785)" style="fill: #1f77b4"/>
   </g>
   <g id="patch_30">
    <path d="M 128.37265 58.309559 
L 131.881266 58.309559 
L 131.881266 57.857258 
L 128.37265 57.857258 
z
" clip-path="url(#p925f2d3785)" style="fill: #1f77b4"/>
   </g>
   <g id="patch_31">
    <path d="M 131.881266 58.309559 
L 135.389883 58.309559 
L 135.389883 57.85069 
L 131.881266 57.85069 
z
" clip-path="url(#p925f2d3785)" style="fill: #1f77b4"/>
   </g>
   <g id="patch_32">
    <path d="M 135.389883 58.309559 
L 138.8985 58.309559 
L 138.8985 57.85369 
L 135.389883 57.85369 
z
" clip-path="url(#p925f2d3785)" style="fill: #1f77b4"/>
   </g>
   <g id="patch_33">
    <path d="M 138.8985 58.309559 
L 142.407116 58.309559 
L 142.407116 57.834627 
L 138.8985 57.834627 
z
" clip-path="url(#p925f2d3785)" style="fill: #1f77b4"/>
   </g>
   <g id="patch_34">
    <path d="M 142.407116 58.309559 
L 145.915733 58.309559 
L 145.915733 57.817997 
L 142.407116 57.817997 
z
" clip-path="url(#p925f2d3785)" style="fill: #1f77b4"/>
   </g>
   <g id="patch_35">
    <path d="M 145.915733 58.309559 
L 149.42435 58.309559 
L 149.42435 57.789677 
L 145.915733 57.789677 
z
" clip-path="url(#p925f2d3785)" style="fill: #1f77b4"/>
   </g>
   <g id="patch_36">
    <path d="M 149.42435 58.309559 
L 152.932966 58.309559 
L 152.932966 57.748861 
L 149.42435 57.748861 
z
" clip-path="url(#p925f2d3785)" style="fill: #1f77b4"/>
   </g>
   <g id="patch_37">
    <path d="M 152.932966 58.309559 
L 156.441583 58.309559 
L 156.441583 57.707149 
L 152.932966 57.707149 
z
" clip-path="url(#p925f2d3785)" style="fill: #1f77b4"/>
   </g>
   <g id="patch_38">
    <path d="M 156.441583 58.309559 
L 159.9502 58.309559 
L 159.9502 57.646136 
L 156.441583 57.646136 
z
" clip-path="url(#p925f2d3785)" style="fill: #1f77b4"/>
   </g>
   <g id="patch_39">
    <path d="M 159.9502 58.309559 
L 163.458816 58.309559 
L 163.458816 57.575866 
L 159.9502 57.575866 
z
" clip-path="url(#p925f2d3785)" style="fill: #1f77b4"/>
   </g>
   <g id="patch_40">
    <path d="M 163.458816 58.309559 
L 166.967433 58.309559 
L 166.967433 57.479269 
L 163.458816 57.479269 
z
" clip-path="url(#p925f2d3785)" style="fill: #1f77b4"/>
   </g>
   <g id="patch_41">
    <path d="M 166.967433 58.309559 
L 170.47605 58.309559 
L 170.47605 57.372629 
L 166.967433 57.372629 
z
" clip-path="url(#p925f2d3785)" style="fill: #1f77b4"/>
   </g>
   <g id="patch_42">
    <path d="M 170.47605 58.309559 
L 173.984666 58.309559 
L 173.984666 57.246688 
L 170.47605 57.246688 
z
" clip-path="url(#p925f2d3785)" style="fill: #1f77b4"/>
   </g>
   <g id="patch_43">
    <path d="M 173.984666 58.309559 
L 177.493283 58.309559 
L 177.493283 57.076253 
L 173.984666 57.076253 
z
" clip-path="url(#p925f2d3785)" style="fill: #1f77b4"/>
   </g>
   <g id="patch_44">
    <path d="M 177.493283 58.309559 
L 181.001899 58.309559 
L 181.001899 56.870876 
L 177.493283 56.870876 
z
" clip-path="url(#p925f2d3785)" style="fill: #1f77b4"/>
   </g>
   <g id="patch_45">
    <path d="M 181.001899 58.309559 
L 184.510516 58.309559 
L 184.510516 56.635825 
L 181.001899 56.635825 
z
" clip-path="url(#p925f2d3785)" style="fill: #1f77b4"/>
   </g>
   <g id="patch_46">
    <path d="M 184.510516 58.309559 
L 188.019133 58.309559 
L 188.019133 56.346164 
L 184.510516 56.346164 
z
" clip-path="url(#p925f2d3785)" style="fill: #1f77b4"/>
   </g>
   <g id="patch_47">
    <path d="M 188.019133 58.309559 
L 191.527749 58.309559 
L 191.527749 55.99741 
L 188.019133 55.99741 
z
" clip-path="url(#p925f2d3785)" style="fill: #1f77b4"/>
   </g>
   <g id="patch_48">
    <path d="M 191.527749 58.309559 
L 195.036366 58.309559 
L 195.036366 55.583107 
L 191.527749 55.583107 
z
" clip-path="url(#p925f2d3785)" style="fill: #1f77b4"/>
   </g>
   <g id="patch_49">
    <path d="M 195.036366 58.309559 
L 198.544983 58.309559 
L 198.544983 55.081317 
L 195.036366 55.081317 
z
" clip-path="url(#p925f2d3785)" style="fill: #1f77b4"/>
   </g>
   <g id="patch_50">
    <path d="M 198.544983 58.309559 
L 202.053599 58.309559 
L 202.053599 54.500166 
L 198.544983 54.500166 
z
" clip-path="url(#p925f2d3785)" style="fill: #1f77b4"/>
   </g>
   <g id="patch_51">
    <path d="M 202.053599 58.309559 
L 205.562216 58.309559 
L 205.562216 53.833888 
L 202.053599 53.833888 
z
" clip-path="url(#p925f2d3785)" style="fill: #1f77b4"/>
   </g>
   <g id="patch_52">
    <path d="M 205.562216 58.309559 
L 209.070833 58.309559 
L 209.070833 53.045913 
L 205.562216 53.045913 
z
" clip-path="url(#p925f2d3785)" style="fill: #1f77b4"/>
   </g>
   <g id="patch_53">
    <path d="M 209.070833 58.309559 
L 212.579449 58.309559 
L 212.579449 52.13981 
L 209.070833 52.13981 
z
" clip-path="url(#p925f2d3785)" style="fill: #1f77b4"/>
   </g>
   <g id="patch_54">
    <path d="M 212.579449 58.309559 
L 216.088066 58.309559 
L 216.088066 51.070352 
L 212.579449 51.070352 
z
" clip-path="url(#p925f2d3785)" style="fill: #1f77b4"/>
   </g>
   <g id="patch_55">
    <path d="M 216.088066 58.309559 
L 219.596683 58.309559 
L 219.596683 49.865348 
L 216.088066 49.865348 
z
" clip-path="url(#p925f2d3785)" style="fill: #1f77b4"/>
   </g>
   <g id="patch_56">
    <path d="M 219.596683 58.309559 
L 223.105299 58.309559 
L 223.105299 48.491904 
L 219.596683 48.491904 
z
" clip-path="url(#p925f2d3785)" style="fill: #1f77b4"/>
   </g>
   <g id="patch_57">
    <path d="M 223.105299 58.309559 
L 226.613916 58.309559 
L 226.613916 46.886445 
L 223.105299 46.886445 
z
" clip-path="url(#p925f2d3785)" style="fill: #1f77b4"/>
   </g>
   <g id="patch_58">
    <path d="M 226.613916 58.309559 
L 230.122533 58.309559 
L 230.122533 45.141508 
L 226.613916 45.141508 
z
" clip-path="url(#p925f2d3785)" style="fill: #1f77b4"/>
   </g>
   <g id="patch_59">
    <path d="M 230.122533 58.309559 
L 233.631149 58.309559 
L 233.631149 43.230106 
L 230.122533 43.230106 
z
" clip-path="url(#p925f2d3785)" style="fill: #1f77b4"/>
   </g>
   <g id="patch_60">
    <path d="M 233.631149 58.309559 
L 237.139766 58.309559 
L 237.139766 41.517165 
L 233.631149 41.517165 
z
" clip-path="url(#p925f2d3785)" style="fill: #1f77b4"/>
   </g>
   <g id="patch_61">
    <path d="M 237.139766 58.309559 
L 240.648383 58.309559 
L 240.648383 40.402245 
L 237.139766 40.402245 
z
" clip-path="url(#p925f2d3785)" style="fill: #1f77b4"/>
   </g>
   <g id="patch_62">
    <path d="M 240.648383 58.309559 
L 244.156999 58.309559 
L 244.156999 40.431388 
L 240.648383 40.431388 
z
" clip-path="url(#p925f2d3785)" style="fill: #1f77b4"/>
   </g>
   <g id="patch_63">
    <path d="M 244.156999 58.309559 
L 247.665616 58.309559 
L 247.665616 41.730409 
L 244.156999 41.730409 
z
" clip-path="url(#p925f2d3785)" style="fill: #1f77b4"/>
   </g>
   <g id="patch_64">
    <path d="M 247.665616 58.309559 
L 251.174233 58.309559 
L 251.174233 43.808971 
L 247.665616 43.808971 
z
" clip-path="url(#p925f2d3785)" style="fill: #1f77b4"/>
   </g>
   <g id="patch_65">
    <path d="M 251.174233 58.309559 
L 254.682849 58.309559 
L 254.682849 46.156465 
L 251.174233 46.156465 
z
" clip-path="url(#p925f2d3785)" style="fill: #1f77b4"/>
   </g>
   <g id="patch_66">
    <path d="M 254.682849 58.309559 
L 258.191466 58.309559 
L 258.191466 48.328879 
L 254.682849 48.328879 
z
" clip-path="url(#p925f2d3785)" style="fill: #1f77b4"/>
   </g>
   <g id="patch_67">
    <path d="M 258.191466 58.309559 
L 261.700083 58.309559 
L 261.700083 50.240738 
L 258.191466 50.240738 
z
" clip-path="url(#p925f2d3785)" style="fill: #1f77b4"/>
   </g>
   <g id="patch_68">
    <path d="M 261.700083 58.309559 
L 265.208699 58.309559 
L 265.208699 51.768773 
L 261.700083 51.768773 
z
" clip-path="url(#p925f2d3785)" style="fill: #1f77b4"/>
   </g>
   <g id="patch_69">
    <path d="M 265.208699 58.309559 
L 268.717316 58.309559 
L 268.717316 52.973247 
L 265.208699 52.973247 
z
" clip-path="url(#p925f2d3785)" style="fill: #1f77b4"/>
   </g>
   <g id="patch_70">
    <path d="M 268.717316 58.309559 
L 272.225932 58.309559 
L 272.225932 53.915885 
L 268.717316 53.915885 
z
" clip-path="url(#p925f2d3785)" style="fill: #1f77b4"/>
   </g>
   <g id="patch_71">
    <path d="M 272.225932 58.309559 
L 275.734549 58.309559 
L 275.734549 54.642353 
L 272.225932 54.642353 
z
" clip-path="url(#p925f2d3785)" style="fill: #1f77b4"/>
   </g>
   <g id="patch_72">
    <path d="M 275.734549 58.309559 
L 279.243166 58.309559 
L 279.243166 55.185085 
L 275.734549 55.185085 
z
" clip-path="url(#p925f2d3785)" style="fill: #1f77b4"/>
   </g>
   <g id="patch_73">
    <path d="M 279.243166 58.309559 
L 282.751782 58.309559 
L 282.751782 55.595986 
L 279.243166 55.595986 
z
" clip-path="url(#p925f2d3785)" style="fill: #1f77b4"/>
   </g>
   <g id="patch_74">
    <path d="M 282.751782 58.309559 
L 286.260399 58.309559 
L 286.260399 55.887111 
L 282.751782 55.887111 
z
" clip-path="url(#p925f2d3785)" style="fill: #1f77b4"/>
   </g>
   <g id="patch_75">
    <path d="M 286.260399 58.309559 
L 289.769016 58.309559 
L 289.769016 56.140311 
L 286.260399 56.140311 
z
" clip-path="url(#p925f2d3785)" style="fill: #1f77b4"/>
   </g>
   <g id="patch_76">
    <path d="M 289.769016 58.309559 
L 293.277632 58.309559 
L 293.277632 56.319124 
L 289.769016 56.319124 
z
" clip-path="url(#p925f2d3785)" style="fill: #1f77b4"/>
   </g>
   <g id="patch_77">
    <path d="M 293.277632 58.309559 
L 296.786249 58.309559 
L 296.786249 56.475672 
L 293.277632 56.475672 
z
" clip-path="url(#p925f2d3785)" style="fill: #1f77b4"/>
   </g>
   <g id="patch_78">
    <path d="M 296.786249 58.309559 
L 300.294866 58.309559 
L 300.294866 56.60906 
L 296.786249 56.60906 
z
" clip-path="url(#p925f2d3785)" style="fill: #1f77b4"/>
   </g>
   <g id="patch_79">
    <path d="M 300.294866 58.309559 
L 303.803482 58.309559 
L 303.803482 56.721133 
L 300.294866 56.721133 
z
" clip-path="url(#p925f2d3785)" style="fill: #1f77b4"/>
   </g>
   <g id="patch_80">
    <path d="M 303.803482 58.309559 
L 307.312099 58.309559 
L 307.312099 56.836885 
L 303.803482 56.836885 
z
" clip-path="url(#p925f2d3785)" style="fill: #1f77b4"/>
   </g>
   <g id="patch_81">
    <path d="M 307.312099 58.309559 
L 310.820716 58.309559 
L 310.820716 56.915845 
L 307.312099 56.915845 
z
" clip-path="url(#p925f2d3785)" style="fill: #1f77b4"/>
   </g>
   <g id="patch_82">
    <path d="M 310.820716 58.309559 
L 314.329332 58.309559 
L 314.329332 56.99861 
L 310.820716 56.99861 
z
" clip-path="url(#p925f2d3785)" style="fill: #1f77b4"/>
   </g>
   <g id="patch_83">
    <path d="M 314.329332 58.309559 
L 317.837949 58.309559 
L 317.837949 57.095774 
L 314.329332 57.095774 
z
" clip-path="url(#p925f2d3785)" style="fill: #1f77b4"/>
   </g>
   <g id="patch_84">
    <path d="M 317.837949 58.309559 
L 321.346566 58.309559 
L 321.346566 57.155927 
L 317.837949 57.155927 
z
" clip-path="url(#p925f2d3785)" style="fill: #1f77b4"/>
   </g>
   <g id="patch_85">
    <path d="M 321.346566 58.309559 
L 324.855182 58.309559 
L 324.855182 57.216154 
L 321.346566 57.216154 
z
" clip-path="url(#p925f2d3785)" style="fill: #1f77b4"/>
   </g>
   <g id="patch_86">
    <path d="M 324.855182 58.309559 
L 328.363799 58.309559 
L 328.363799 57.279069 
L 324.855182 57.279069 
z
" clip-path="url(#p925f2d3785)" style="fill: #1f77b4"/>
   </g>
   <g id="patch_87">
    <path d="M 328.363799 58.309559 
L 331.872416 58.309559 
L 331.872416 57.328813 
L 328.363799 57.328813 
z
" clip-path="url(#p925f2d3785)" style="fill: #1f77b4"/>
   </g>
   <g id="patch_88">
    <path d="M 331.872416 58.309559 
L 335.381032 58.309559 
L 335.381032 57.373946 
L 331.872416 57.373946 
z
" clip-path="url(#p925f2d3785)" style="fill: #1f77b4"/>
   </g>
   <g id="patch_89">
    <path d="M 335.381032 58.309559 
L 338.889649 58.309559 
L 338.889649 57.414945 
L 335.381032 57.414945 
z
" clip-path="url(#p925f2d3785)" style="fill: #1f77b4"/>
   </g>
   <g id="patch_90">
    <path d="M 338.889649 58.309559 
L 342.398266 58.309559 
L 342.398266 57.45115 
L 338.889649 57.45115 
z
" clip-path="url(#p925f2d3785)" style="fill: #1f77b4"/>
   </g>
   <g id="patch_91">
    <path d="M 342.398266 58.309559 
L 345.906882 58.309559 
L 345.906882 57.485197 
L 342.398266 57.485197 
z
" clip-path="url(#p925f2d3785)" style="fill: #1f77b4"/>
   </g>
   <g id="patch_92">
    <path d="M 345.906882 58.309559 
L 349.415499 58.309559 
L 349.415499 57.514505 
L 345.906882 57.514505 
z
" clip-path="url(#p925f2d3785)" style="fill: #1f77b4"/>
   </g>
   <g id="patch_93">
    <path d="M 349.415499 58.309559 
L 352.924116 58.309559 
L 352.924116 57.538691 
L 349.415499 57.538691 
z
" clip-path="url(#p925f2d3785)" style="fill: #1f77b4"/>
   </g>
   <g id="patch_94">
    <path d="M 352.924116 58.309559 
L 356.432732 58.309559 
L 356.432732 57.562218 
L 352.924116 57.562218 
z
" clip-path="url(#p925f2d3785)" style="fill: #1f77b4"/>
   </g>
   <g id="patch_95">
    <path d="M 356.432732 58.309559 
L 359.941349 58.309559 
L 359.941349 57.588452 
L 356.432732 57.588452 
z
" clip-path="url(#p925f2d3785)" style="fill: #1f77b4"/>
   </g>
   <g id="patch_96">
    <path d="M 359.941349 58.309559 
L 363.449965 58.309559 
L 363.449965 57.609199 
L 359.941349 57.609199 
z
" clip-path="url(#p925f2d3785)" style="fill: #1f77b4"/>
   </g>
   <g id="patch_97">
    <path d="M 363.449965 58.309559 
L 366.958582 58.309559 
L 366.958582 57.620688 
L 363.449965 57.620688 
z
" clip-path="url(#p925f2d3785)" style="fill: #1f77b4"/>
   </g>
   <g id="patch_98">
    <path d="M 366.958582 58.309559 
L 370.467199 58.309559 
L 370.467199 57.633677 
L 366.958582 57.633677 
z
" clip-path="url(#p925f2d3785)" style="fill: #1f77b4"/>
   </g>
   <g id="patch_99">
    <path d="M 370.467199 58.309559 
L 373.975815 58.309559 
L 373.975815 57.644453 
L 370.467199 57.644453 
z
" clip-path="url(#p925f2d3785)" style="fill: #1f77b4"/>
   </g>
   <g id="patch_100">
    <path d="M 373.975815 58.309559 
L 377.484432 58.309559 
L 377.484432 57.655448 
L 373.975815 57.655448 
z
" clip-path="url(#p925f2d3785)" style="fill: #1f77b4"/>
   </g>
   <g id="patch_101">
    <path d="M 377.484432 58.309559 
L 380.993049 58.309559 
L 380.993049 57.661247 
L 377.484432 57.661247 
z
" clip-path="url(#p925f2d3785)" style="fill: #1f77b4"/>
   </g>
   <g id="patch_102">
    <path d="M 380.993049 58.309559 
L 384.501665 58.309559 
L 384.501665 57.672993 
L 380.993049 57.672993 
z
" clip-path="url(#p925f2d3785)" style="fill: #1f77b4"/>
   </g>
   <g id="patch_103">
    <path d="M 384.501665 58.309559 
L 388.010282 58.309559 
L 388.010282 57.690263 
L 384.501665 57.690263 
z
" clip-path="url(#p925f2d3785)" style="fill: #1f77b4"/>
   </g>
   <g id="patch_104">
    <path d="M 388.010282 58.309559 
L 391.518899 58.309559 
L 391.518899 57.693519 
L 388.010282 57.693519 
z
" clip-path="url(#p925f2d3785)" style="fill: #1f77b4"/>
   </g>
   <g id="patch_105">
    <path d="M 391.518899 58.309559 
L 395.027515 58.309559 
L 395.027515 57.699447 
L 391.518899 57.699447 
z
" clip-path="url(#p925f2d3785)" style="fill: #1f77b4"/>
   </g>
   <g id="patch_106">
    <path d="M 395.027515 58.309559 
L 398.536132 58.309559 
L 398.536132 57.707185 
L 395.027515 57.707185 
z
" clip-path="url(#p925f2d3785)" style="fill: #1f77b4"/>
   </g>
   <g id="patch_107">
    <path d="M 398.536132 58.309559 
L 402.044749 58.309559 
L 402.044749 57.713461 
L 398.536132 57.713461 
z
" clip-path="url(#p925f2d3785)" style="fill: #1f77b4"/>
   </g>
   <g id="patch_108">
    <path d="M 402.044749 58.309559 
L 405.553365 58.309559 
L 405.553365 57.716278 
L 402.044749 57.716278 
z
" clip-path="url(#p925f2d3785)" style="fill: #1f77b4"/>
   </g>
   <g id="patch_109">
    <path d="M 405.553365 58.309559 
L 409.061982 58.309559 
L 409.061982 57.73053 
L 405.553365 57.73053 
z
" clip-path="url(#p925f2d3785)" style="fill: #1f77b4"/>
   </g>
   <g id="patch_110">
    <path d="M 409.061982 58.309559 
L 412.570599 58.309559 
L 412.570599 57.732725 
L 409.061982 57.732725 
z
" clip-path="url(#p925f2d3785)" style="fill: #1f77b4"/>
   </g>
   <g id="patch_111">
    <path d="M 412.570599 58.309559 
L 416.079215 58.309559 
L 416.079215 57.738762 
L 412.570599 57.738762 
z
" clip-path="url(#p925f2d3785)" style="fill: #1f77b4"/>
   </g>
   <g id="patch_112">
    <path d="M 416.079215 58.309559 
L 419.587832 58.309559 
L 419.587832 57.734079 
L 416.079215 57.734079 
z
" clip-path="url(#p925f2d3785)" style="fill: #1f77b4"/>
   </g>
   <g id="patch_113">
    <path d="M 419.587832 58.309559 
L 423.096449 58.309559 
L 423.096449 57.745733 
L 419.587832 57.745733 
z
" clip-path="url(#p925f2d3785)" style="fill: #1f77b4"/>
   </g>
   <g id="patch_114">
    <path d="M 423.096449 58.309559 
L 426.605065 58.309559 
L 426.605065 57.744379 
L 423.096449 57.744379 
z
" clip-path="url(#p925f2d3785)" style="fill: #1f77b4"/>
   </g>
   <g id="patch_115">
    <path d="M 426.605065 58.309559 
L 430.113682 58.309559 
L 430.113682 57.742055 
L 426.605065 57.742055 
z
" clip-path="url(#p925f2d3785)" style="fill: #1f77b4"/>
   </g>
   <g id="patch_116">
    <path d="M 430.113682 58.309559 
L 433.622299 58.309559 
L 433.622299 57.751184 
L 430.113682 57.751184 
z
" clip-path="url(#p925f2d3785)" style="fill: #1f77b4"/>
   </g>
   <g id="patch_117">
    <path d="M 433.622299 58.309559 
L 437.130915 58.309559 
L 437.130915 57.752611 
L 433.622299 57.752611 
z
" clip-path="url(#p925f2d3785)" style="fill: #1f77b4"/>
   </g>
   <g id="patch_118">
    <path d="M 437.130915 58.309559 
L 440.639532 58.309559 
L 440.639532 57.754752 
L 437.130915 57.754752 
z
" clip-path="url(#p925f2d3785)" style="fill: #1f77b4"/>
   </g>
   <g id="patch_119">
    <path d="M 440.639532 58.309559 
L 444.148149 58.309559 
L 444.148149 57.754587 
L 440.639532 57.754587 
z
" clip-path="url(#p925f2d3785)" style="fill: #1f77b4"/>
   </g>
   <g id="patch_120">
    <path d="M 444.148149 58.309559 
L 447.656765 58.309559 
L 447.656765 57.750672 
L 444.148149 57.750672 
z
" clip-path="url(#p925f2d3785)" style="fill: #1f77b4"/>
   </g>
   <g id="patch_121">
    <path d="M 447.656765 58.309559 
L 451.165382 58.309559 
L 451.165382 57.760277 
L 447.656765 57.760277 
z
" clip-path="url(#p925f2d3785)" style="fill: #1f77b4"/>
   </g>
   <g id="patch_122">
    <path d="M 451.165382 58.309559 
L 454.673998 58.309559 
L 454.673998 57.758356 
L 451.165382 57.758356 
z
" clip-path="url(#p925f2d3785)" style="fill: #1f77b4"/>
   </g>
   <g id="patch_123">
    <path d="M 454.673998 58.309559 
L 458.182615 58.309559 
L 458.182615 57.765582 
L 454.673998 57.765582 
z
" clip-path="url(#p925f2d3785)" style="fill: #1f77b4"/>
   </g>
   <g id="patch_124">
    <path d="M 458.182615 58.309559 
L 461.691232 58.309559 
L 461.691232 57.7626 
L 458.182615 57.7626 
z
" clip-path="url(#p925f2d3785)" style="fill: #1f77b4"/>
   </g>
   <g id="patch_125">
    <path d="M 461.691232 58.309559 
L 465.199848 58.309559 
L 465.199848 57.763241 
L 461.691232 57.763241 
z
" clip-path="url(#p925f2d3785)" style="fill: #1f77b4"/>
   </g>
   <g id="patch_126">
    <path d="M 465.199848 58.309559 
L 468.708465 58.309559 
L 468.708465 57.765564 
L 465.199848 57.765564 
z
" clip-path="url(#p925f2d3785)" style="fill: #1f77b4"/>
   </g>
   <g id="patch_127">
    <path d="M 468.708465 58.309559 
L 472.217082 58.309559 
L 472.217082 57.766223 
L 468.708465 57.766223 
z
" clip-path="url(#p925f2d3785)" style="fill: #1f77b4"/>
   </g>
   <g id="patch_128">
    <path d="M 472.217082 58.309559 
L 475.725698 58.309559 
L 475.725698 57.763076 
L 472.217082 57.763076 
z
" clip-path="url(#p925f2d3785)" style="fill: #1f77b4"/>
   </g>
   <g id="patch_129">
    <path d="M 475.725698 58.309559 
L 479.234315 58.309559 
L 479.234315 57.770138 
L 475.725698 57.770138 
z
" clip-path="url(#p925f2d3785)" style="fill: #1f77b4"/>
   </g>
   <g id="patch_130">
    <path d="M 479.234315 58.309559 
L 482.742932 58.309559 
L 482.742932 57.760021 
L 479.234315 57.760021 
z
" clip-path="url(#p925f2d3785)" style="fill: #1f77b4"/>
   </g>
   <g id="patch_131">
    <path d="M 482.742932 58.309559 
L 486.251548 58.309559 
L 486.251548 57.753105 
L 482.742932 57.753105 
z
" clip-path="url(#p925f2d3785)" style="fill: #1f77b4"/>
   </g>
   <g id="patch_132">
    <path d="M 486.251548 58.309559 
L 489.760165 58.309559 
L 489.760165 57.750764 
L 486.251548 57.750764 
z
" clip-path="url(#p925f2d3785)" style="fill: #1f77b4"/>
   </g>
   <g id="patch_133">
    <path d="M 489.760165 58.309559 
L 493.268782 58.309559 
L 493.268782 57.753252 
L 489.760165 57.753252 
z
" clip-path="url(#p925f2d3785)" style="fill: #1f77b4"/>
   </g>
   <g id="patch_134">
    <path d="M 493.268782 58.309559 
L 496.777398 58.309559 
L 496.777398 57.739366 
L 493.268782 57.739366 
z
" clip-path="url(#p925f2d3785)" style="fill: #1f77b4"/>
   </g>
   <g id="patch_135">
    <path d="M 496.777398 58.309559 
L 500.286015 58.309559 
L 500.286015 57.739695 
L 496.777398 57.739695 
z
" clip-path="url(#p925f2d3785)" style="fill: #1f77b4"/>
   </g>
   <g id="patch_136">
    <path d="M 500.286015 58.309559 
L 503.794632 58.309559 
L 503.794632 57.733969 
L 500.286015 57.733969 
z
" clip-path="url(#p925f2d3785)" style="fill: #1f77b4"/>
   </g>
   <g id="patch_137">
    <path d="M 503.794632 58.309559 
L 507.303248 58.309559 
L 507.303248 57.741195 
L 503.794632 57.741195 
z
" clip-path="url(#p925f2d3785)" style="fill: #1f77b4"/>
   </g>
   <g id="patch_138">
    <path d="M 507.303248 58.309559 
L 510.811865 58.309559 
L 510.811865 57.744452 
L 507.303248 57.744452 
z
" clip-path="url(#p925f2d3785)" style="fill: #1f77b4"/>
   </g>
   <g id="patch_139">
    <path d="M 510.811865 58.309559 
L 514.320482 58.309559 
L 514.320482 57.747214 
L 510.811865 57.747214 
z
" clip-path="url(#p925f2d3785)" style="fill: #1f77b4"/>
   </g>
   <g id="patch_140">
    <path d="M 514.320482 58.309559 
L 517.829098 58.309559 
L 517.829098 57.754038 
L 514.320482 57.754038 
z
" clip-path="url(#p925f2d3785)" style="fill: #1f77b4"/>
   </g>
   <g id="patch_141">
    <path d="M 517.829098 58.309559 
L 521.337715 58.309559 
L 521.337715 57.759216 
L 517.829098 57.759216 
z
" clip-path="url(#p925f2d3785)" style="fill: #1f77b4"/>
   </g>
   <g id="patch_142">
    <path d="M 521.337715 58.309559 
L 524.846332 58.309559 
L 524.846332 57.766589 
L 521.337715 57.766589 
z
" clip-path="url(#p925f2d3785)" style="fill: #1f77b4"/>
   </g>
   <g id="patch_143">
    <path d="M 524.846332 58.309559 
L 528.354948 58.309559 
L 528.354948 57.774272 
L 524.846332 57.774272 
z
" clip-path="url(#p925f2d3785)" style="fill: #1f77b4"/>
   </g>
   <g id="patch_144">
    <path d="M 528.354948 58.309559 
L 531.863565 58.309559 
L 531.863565 57.779468 
L 528.354948 57.779468 
z
" clip-path="url(#p925f2d3785)" style="fill: #1f77b4"/>
   </g>
   <g id="patch_145">
    <path d="M 531.863565 58.309559 
L 535.372182 58.309559 
L 535.372182 57.792567 
L 531.863565 57.792567 
z
" clip-path="url(#p925f2d3785)" style="fill: #1f77b4"/>
   </g>
   <g id="patch_146">
    <path d="M 535.372182 58.309559 
L 538.880798 58.309559 
L 538.880798 57.806581 
L 535.372182 57.806581 
z
" clip-path="url(#p925f2d3785)" style="fill: #1f77b4"/>
   </g>
   <g id="patch_147">
    <path d="M 538.880798 58.309559 
L 542.389415 58.309559 
L 542.389415 57.813277 
L 538.880798 57.813277 
z
" clip-path="url(#p925f2d3785)" style="fill: #1f77b4"/>
   </g>
   <g id="patch_148">
    <path d="M 542.389415 58.309559 
L 545.898031 58.309559 
L 545.898031 57.826358 
L 542.389415 57.826358 
z
" clip-path="url(#p925f2d3785)" style="fill: #1f77b4"/>
   </g>
   <g id="patch_149">
    <path d="M 545.898031 58.309559 
L 549.406648 58.309559 
L 549.406648 57.833932 
L 545.898031 57.833932 
z
" clip-path="url(#p925f2d3785)" style="fill: #1f77b4"/>
   </g>
   <g id="patch_150">
    <path d="M 549.406648 58.309559 
L 552.915265 58.309559 
L 552.915265 57.848202 
L 549.406648 57.848202 
z
" clip-path="url(#p925f2d3785)" style="fill: #1f77b4"/>
   </g>
   <g id="patch_151">
    <path d="M 552.915265 58.309559 
L 556.423881 58.309559 
L 556.423881 57.860166 
L 552.915265 57.860166 
z
" clip-path="url(#p925f2d3785)" style="fill: #1f77b4"/>
   </g>
   <g id="patch_152">
    <path d="M 556.423881 58.309559 
L 559.932498 58.309559 
L 559.932498 57.87268 
L 556.423881 57.87268 
z
" clip-path="url(#p925f2d3785)" style="fill: #1f77b4"/>
   </g>
   <g id="patch_153">
    <path d="M 559.932498 58.309559 
L 563.441115 58.309559 
L 563.441115 57.885285 
L 559.932498 57.885285 
z
" clip-path="url(#p925f2d3785)" style="fill: #1f77b4"/>
   </g>
   <g id="patch_154">
    <path d="M 563.441115 58.309559 
L 566.949731 58.309559 
L 566.949731 57.895018 
L 563.441115 57.895018 
z
" clip-path="url(#p925f2d3785)" style="fill: #1f77b4"/>
   </g>
   <g id="patch_155">
    <path d="M 566.949731 58.309559 
L 570.458348 58.309559 
L 570.458348 57.913605 
L 566.949731 57.913605 
z
" clip-path="url(#p925f2d3785)" style="fill: #1f77b4"/>
   </g>
   <g id="patch_156">
    <path d="M 570.458348 58.309559 
L 573.966965 58.309559 
L 573.966965 57.930546 
L 570.458348 57.930546 
z
" clip-path="url(#p925f2d3785)" style="fill: #1f77b4"/>
   </g>
   <g id="patch_157">
    <path d="M 573.966965 58.309559 
L 577.475581 58.309559 
L 577.475581 57.955775 
L 573.966965 57.955775 
z
" clip-path="url(#p925f2d3785)" style="fill: #1f77b4"/>
   </g>
   <g id="patch_158">
    <path d="M 577.475581 58.309559 
L 580.984198 58.309559 
L 580.984198 57.972405 
L 577.475581 57.972405 
z
" clip-path="url(#p925f2d3785)" style="fill: #1f77b4"/>
   </g>
   <g id="patch_159">
    <path d="M 580.984198 58.309559 
L 584.492815 58.309559 
L 584.492815 57.993444 
L 580.984198 57.993444 
z
" clip-path="url(#p925f2d3785)" style="fill: #1f77b4"/>
   </g>
   <g id="patch_160">
    <path d="M 584.492815 58.309559 
L 588.001431 58.309559 
L 588.001431 58.013678 
L 584.492815 58.013678 
z
" clip-path="url(#p925f2d3785)" style="fill: #1f77b4"/>
   </g>
   <g id="patch_161">
    <path d="M 588.001431 58.309559 
L 591.510048 58.309559 
L 591.510048 58.032247 
L 588.001431 58.032247 
z
" clip-path="url(#p925f2d3785)" style="fill: #1f77b4"/>
   </g>
   <g id="patch_162">
    <path d="M 591.510048 58.309559 
L 595.018665 58.309559 
L 595.018665 58.049206 
L 591.510048 58.049206 
z
" clip-path="url(#p925f2d3785)" style="fill: #1f77b4"/>
   </g>
   <g id="patch_163">
    <path d="M 595.018665 58.309559 
L 598.527281 58.309559 
L 598.527281 58.068507 
L 595.018665 58.068507 
z
" clip-path="url(#p925f2d3785)" style="fill: #1f77b4"/>
   </g>
   <g id="patch_164">
    <path d="M 598.527281 58.309559 
L 602.035898 58.309559 
L 602.035898 58.09315 
L 598.527281 58.09315 
z
" clip-path="url(#p925f2d3785)" style="fill: #1f77b4"/>
   </g>
   <g id="patch_165">
    <path d="M 602.035898 58.309559 
L 605.544515 58.309559 
L 605.544515 58.115653 
L 602.035898 58.115653 
z
" clip-path="url(#p925f2d3785)" style="fill: #1f77b4"/>
   </g>
   <g id="patch_166">
    <path d="M 605.544515 58.309559 
L 609.053131 58.309559 
L 609.053131 58.142345 
L 605.544515 58.142345 
z
" clip-path="url(#p925f2d3785)" style="fill: #1f77b4"/>
   </g>
   <g id="patch_167">
    <path d="M 609.053131 58.309559 
L 612.561748 58.309559 
L 612.561748 58.168598 
L 609.053131 58.168598 
z
" clip-path="url(#p925f2d3785)" style="fill: #1f77b4"/>
   </g>
   <g id="patch_168">
    <path d="M 612.561748 58.309559 
L 616.070365 58.309559 
L 616.070365 58.188869 
L 612.561748 58.188869 
z
" clip-path="url(#p925f2d3785)" style="fill: #1f77b4"/>
   </g>
   <g id="patch_169">
    <path d="M 616.070365 58.309559 
L 619.578981 58.309559 
L 619.578981 58.207475 
L 616.070365 58.207475 
z
" clip-path="url(#p925f2d3785)" style="fill: #1f77b4"/>
   </g>
   <g id="patch_170">
    <path d="M 619.578981 58.309559 
L 623.087598 58.309559 
L 623.087598 58.222549 
L 619.578981 58.222549 
z
" clip-path="url(#p925f2d3785)" style="fill: #1f77b4"/>
   </g>
   <g id="patch_171">
    <path d="M 623.087598 58.309559 
L 626.596215 58.309559 
L 626.596215 58.231258 
L 623.087598 58.231258 
z
" clip-path="url(#p925f2d3785)" style="fill: #1f77b4"/>
   </g>
   <g id="patch_172">
    <path d="M 626.596215 58.309559 
L 630.104831 58.309559 
L 630.104831 58.239545 
L 626.596215 58.239545 
z
" clip-path="url(#p925f2d3785)" style="fill: #1f77b4"/>
   </g>
   <g id="patch_173">
    <path d="M 630.104831 58.309559 
L 633.613448 58.309559 
L 633.613448 58.245674 
L 630.104831 58.245674 
z
" clip-path="url(#p925f2d3785)" style="fill: #1f77b4"/>
   </g>
   <g id="patch_174">
    <path d="M 633.613448 58.309559 
L 637.122064 58.309559 
L 637.122064 58.253943 
L 633.613448 58.253943 
z
" clip-path="url(#p925f2d3785)" style="fill: #1f77b4"/>
   </g>
   <g id="patch_175">
    <path d="M 637.122064 58.309559 
L 640.630681 58.309559 
L 640.630681 58.260109 
L 637.122064 58.260109 
z
" clip-path="url(#p925f2d3785)" style="fill: #1f77b4"/>
   </g>
   <g id="patch_176">
    <path d="M 640.630681 58.309559 
L 644.139298 58.309559 
L 644.139298 58.265981 
L 640.630681 58.265981 
z
" clip-path="url(#p925f2d3785)" style="fill: #1f77b4"/>
   </g>
   <g id="patch_177">
    <path d="M 644.139298 58.309559 
L 647.647914 58.309559 
L 647.647914 58.270482 
L 644.139298 58.270482 
z
" clip-path="url(#p925f2d3785)" style="fill: #1f77b4"/>
   </g>
   <g id="patch_178">
    <path d="M 647.647914 58.309559 
L 651.156531 58.309559 
L 651.156531 58.273244 
L 647.647914 58.273244 
z
" clip-path="url(#p925f2d3785)" style="fill: #1f77b4"/>
   </g>
   <g id="patch_179">
    <path d="M 651.156531 58.309559 
L 654.665148 58.309559 
L 654.665148 58.275677 
L 651.156531 58.275677 
z
" clip-path="url(#p925f2d3785)" style="fill: #1f77b4"/>
   </g>
   <g id="patch_180">
    <path d="M 654.665148 58.309559 
L 658.173764 58.309559 
L 658.173764 58.277489 
L 654.665148 58.277489 
z
" clip-path="url(#p925f2d3785)" style="fill: #1f77b4"/>
   </g>
   <g id="patch_181">
    <path d="M 658.173764 58.309559 
L 661.682381 58.309559 
L 661.682381 58.278239 
L 658.173764 58.278239 
z
" clip-path="url(#p925f2d3785)" style="fill: #1f77b4"/>
   </g>
   <g id="patch_182">
    <path d="M 661.682381 58.309559 
L 665.190998 58.309559 
L 665.190998 58.277031 
L 661.682381 58.277031 
z
" clip-path="url(#p925f2d3785)" style="fill: #1f77b4"/>
   </g>
   <g id="patch_183">
    <path d="M 665.190998 58.309559 
L 668.699614 58.309559 
L 668.699614 58.278275 
L 665.190998 58.278275 
z
" clip-path="url(#p925f2d3785)" style="fill: #1f77b4"/>
   </g>
   <g id="patch_184">
    <path d="M 668.699614 58.309559 
L 672.208231 58.309559 
L 672.208231 58.278147 
L 668.699614 58.278147 
z
" clip-path="url(#p925f2d3785)" style="fill: #1f77b4"/>
   </g>
   <g id="patch_185">
    <path d="M 672.208231 58.309559 
L 675.716848 58.309559 
L 675.716848 58.278678 
L 672.208231 58.278678 
z
" clip-path="url(#p925f2d3785)" style="fill: #1f77b4"/>
   </g>
   <g id="patch_186">
    <path d="M 675.716848 58.309559 
L 679.225464 58.309559 
L 679.225464 58.277452 
L 675.716848 58.277452 
z
" clip-path="url(#p925f2d3785)" style="fill: #1f77b4"/>
   </g>
   <g id="patch_187">
    <path d="M 679.225464 58.309559 
L 682.734081 58.309559 
L 682.734081 58.278019 
L 679.225464 58.278019 
z
" clip-path="url(#p925f2d3785)" style="fill: #1f77b4"/>
   </g>
   <g id="patch_188">
    <path d="M 682.734081 58.309559 
L 686.242698 58.309559 
L 686.242698 58.277104 
L 682.734081 58.277104 
z
" clip-path="url(#p925f2d3785)" style="fill: #1f77b4"/>
   </g>
   <g id="patch_189">
    <path d="M 686.242698 58.309559 
L 689.751314 58.309559 
L 689.751314 58.27608 
L 686.242698 58.27608 
z
" clip-path="url(#p925f2d3785)" style="fill: #1f77b4"/>
   </g>
   <g id="patch_190">
    <path d="M 689.751314 58.309559 
L 693.259931 58.309559 
L 693.259931 58.275202 
L 689.751314 58.275202 
z
" clip-path="url(#p925f2d3785)" style="fill: #1f77b4"/>
   </g>
   <g id="patch_191">
    <path d="M 693.259931 58.309559 
L 696.768548 58.309559 
L 696.768548 58.277379 
L 693.259931 58.277379 
z
" clip-path="url(#p925f2d3785)" style="fill: #1f77b4"/>
   </g>
   <g id="patch_192">
    <path d="M 696.768548 58.309559 
L 700.277164 58.309559 
L 700.277164 58.277013 
L 696.768548 58.277013 
z
" clip-path="url(#p925f2d3785)" style="fill: #1f77b4"/>
   </g>
   <g id="patch_193">
    <path d="M 700.277164 58.309559 
L 703.785781 58.309559 
L 703.785781 58.276775 
L 700.277164 58.276775 
z
" clip-path="url(#p925f2d3785)" style="fill: #1f77b4"/>
   </g>
   <g id="patch_194">
    <path d="M 703.785781 58.309559 
L 707.294398 58.309559 
L 707.294398 58.277781 
L 703.785781 58.277781 
z
" clip-path="url(#p925f2d3785)" style="fill: #1f77b4"/>
   </g>
   <g id="patch_195">
    <path d="M 707.294398 58.309559 
L 710.803014 58.309559 
L 710.803014 58.276592 
L 707.294398 58.276592 
z
" clip-path="url(#p925f2d3785)" style="fill: #1f77b4"/>
   </g>
   <g id="patch_196">
    <path d="M 710.803014 58.309559 
L 714.311631 58.309559 
L 714.311631 58.279099 
L 710.803014 58.279099 
z
" clip-path="url(#p925f2d3785)" style="fill: #1f77b4"/>
   </g>
   <g id="patch_197">
    <path d="M 714.311631 58.309559 
L 717.820248 58.309559 
L 717.820248 58.277745 
L 714.311631 58.277745 
z
" clip-path="url(#p925f2d3785)" style="fill: #1f77b4"/>
   </g>
   <g id="patch_198">
    <path d="M 717.820248 58.309559 
L 721.328864 58.309559 
L 721.328864 58.277159 
L 717.820248 58.277159 
z
" clip-path="url(#p925f2d3785)" style="fill: #1f77b4"/>
   </g>
   <g id="patch_199">
    <path d="M 721.328864 58.309559 
L 724.837481 58.309559 
L 724.837481 58.278678 
L 721.328864 58.278678 
z
" clip-path="url(#p925f2d3785)" style="fill: #1f77b4"/>
   </g>
   <g id="patch_200">
    <path d="M 724.837481 58.309559 
L 728.346097 58.309559 
L 728.346097 58.279117 
L 724.837481 58.279117 
z
" clip-path="url(#p925f2d3785)" style="fill: #1f77b4"/>
   </g>
   <g id="patch_201">
    <path d="M 728.346097 58.309559 
L 731.854714 58.309559 
L 731.854714 58.277873 
L 728.346097 58.277873 
z
" clip-path="url(#p925f2d3785)" style="fill: #1f77b4"/>
   </g>
   <g id="patch_202">
    <path d="M 731.854714 58.309559 
L 735.363331 58.309559 
L 735.363331 58.278513 
L 731.854714 58.278513 
z
" clip-path="url(#p925f2d3785)" style="fill: #1f77b4"/>
   </g>
   <g id="patch_203">
    <path d="M 735.363331 58.309559 
L 738.871947 58.309559 
L 738.871947 58.278788 
L 735.363331 58.278788 
z
" clip-path="url(#p925f2d3785)" style="fill: #1f77b4"/>
   </g>
   <g id="patch_204">
    <path d="M 738.871947 58.309559 
L 742.380564 58.309559 
L 742.380564 58.279556 
L 738.871947 58.279556 
z
" clip-path="url(#p925f2d3785)" style="fill: #1f77b4"/>
   </g>
   <g id="patch_205">
    <path d="M 742.380564 58.309559 
L 745.889181 58.309559 
L 745.889181 58.280105 
L 742.380564 58.280105 
z
" clip-path="url(#p925f2d3785)" style="fill: #1f77b4"/>
   </g>
   <g id="patch_206">
    <path d="M 745.889181 58.309559 
L 749.397797 58.309559 
L 749.397797 58.279904 
L 745.889181 58.279904 
z
" clip-path="url(#p925f2d3785)" style="fill: #1f77b4"/>
   </g>
   <g id="patch_207">
    <path d="M 749.397797 58.309559 
L 752.906414 58.309559 
L 752.906414 58.280379 
L 749.397797 58.280379 
z
" clip-path="url(#p925f2d3785)" style="fill: #1f77b4"/>
   </g>
   <g id="patch_208">
    <path d="M 752.906414 58.309559 
L 756.415031 58.309559 
L 756.415031 58.282593 
L 752.906414 58.282593 
z
" clip-path="url(#p925f2d3785)" style="fill: #1f77b4"/>
   </g>
   <g id="patch_209">
    <path d="M 756.415031 58.309559 
L 759.923647 58.309559 
L 759.923647 58.28488 
L 756.415031 58.28488 
z
" clip-path="url(#p925f2d3785)" style="fill: #1f77b4"/>
   </g>
   <g id="patch_210">
    <path d="M 759.923647 58.309559 
L 763.432264 58.309559 
L 763.432264 58.284185 
L 759.923647 58.284185 
z
" clip-path="url(#p925f2d3785)" style="fill: #1f77b4"/>
   </g>
   <g id="patch_211">
    <path d="M 763.432264 58.309559 
L 766.940881 58.309559 
L 766.940881 58.283617 
L 763.432264 58.283617 
z
" clip-path="url(#p925f2d3785)" style="fill: #1f77b4"/>
   </g>
   <g id="patch_212">
    <path d="M 766.940881 58.309559 
L 770.449497 58.309559 
L 770.449497 58.286014 
L 766.940881 58.286014 
z
" clip-path="url(#p925f2d3785)" style="fill: #1f77b4"/>
   </g>
   <g id="patch_213">
    <path d="M 770.449497 58.309559 
L 773.958114 58.309559 
L 773.958114 58.28724 
L 770.449497 58.28724 
z
" clip-path="url(#p925f2d3785)" style="fill: #1f77b4"/>
   </g>
   <g id="patch_214">
    <path d="M 773.958114 58.309559 
L 777.466731 58.309559 
L 777.466731 58.288557 
L 773.958114 58.288557 
z
" clip-path="url(#p925f2d3785)" style="fill: #1f77b4"/>
   </g>
   <g id="patch_215">
    <path d="M 777.466731 58.309559 
L 780.975347 58.309559 
L 780.975347 58.288246 
L 777.466731 58.288246 
z
" clip-path="url(#p925f2d3785)" style="fill: #1f77b4"/>
   </g>
   <g id="patch_216">
    <path d="M 780.975347 58.309559 
L 784.483964 58.309559 
L 784.483964 58.290149 
L 780.975347 58.290149 
z
" clip-path="url(#p925f2d3785)" style="fill: #1f77b4"/>
   </g>
   <g id="patch_217">
    <path d="M 784.483964 58.309559 
L 787.992581 58.309559 
L 787.992581 58.291539 
L 784.483964 58.291539 
z
" clip-path="url(#p925f2d3785)" style="fill: #1f77b4"/>
   </g>
   <g id="patch_218">
    <path d="M 787.992581 58.309559 
L 791.501197 58.309559 
L 791.501197 58.292399 
L 787.992581 58.292399 
z
" clip-path="url(#p925f2d3785)" style="fill: #1f77b4"/>
   </g>
   <g id="patch_219">
    <path d="M 791.501197 58.309559 
L 795.009814 58.309559 
L 795.009814 58.293826 
L 791.501197 58.293826 
z
" clip-path="url(#p925f2d3785)" style="fill: #1f77b4"/>
   </g>
   <g id="patch_220">
    <path d="M 795.009814 58.309559 
L 798.518431 58.309559 
L 798.518431 58.294686 
L 795.009814 58.294686 
z
" clip-path="url(#p925f2d3785)" style="fill: #1f77b4"/>
   </g>
   <g id="patch_221">
    <path d="M 798.518431 58.309559 
L 802.027047 58.309559 
L 802.027047 58.296131 
L 798.518431 58.296131 
z
" clip-path="url(#p925f2d3785)" style="fill: #1f77b4"/>
   </g>
   <g id="patch_222">
    <path d="M 802.027047 58.309559 
L 805.535664 58.309559 
L 805.535664 58.296735 
L 802.027047 58.296735 
z
" clip-path="url(#p925f2d3785)" style="fill: #1f77b4"/>
   </g>
   <g id="patch_223">
    <path d="M 805.535664 58.309559 
L 809.044281 58.309559 
L 809.044281 58.297814 
L 805.535664 58.297814 
z
" clip-path="url(#p925f2d3785)" style="fill: #1f77b4"/>
   </g>
   <g id="patch_224">
    <path d="M 809.044281 58.309559 
L 812.552897 58.309559 
L 812.552897 58.299058 
L 809.044281 58.299058 
z
" clip-path="url(#p925f2d3785)" style="fill: #1f77b4"/>
   </g>
   <g id="patch_225">
    <path d="M 812.552897 58.309559 
L 816.061514 58.309559 
L 816.061514 58.300247 
L 812.552897 58.300247 
z
" clip-path="url(#p925f2d3785)" style="fill: #1f77b4"/>
   </g>
   <g id="patch_226">
    <path d="M 816.061514 58.309559 
L 819.570131 58.309559 
L 819.570131 58.30118 
L 816.061514 58.30118 
z
" clip-path="url(#p925f2d3785)" style="fill: #1f77b4"/>
   </g>
   <g id="patch_227">
    <path d="M 819.570131 58.309559 
L 823.078747 58.309559 
L 823.078747 58.301802 
L 819.570131 58.301802 
z
" clip-path="url(#p925f2d3785)" style="fill: #1f77b4"/>
   </g>
   <g id="patch_228">
    <path d="M 823.078747 58.309559 
L 826.587364 58.309559 
L 826.587364 58.302955 
L 823.078747 58.302955 
z
" clip-path="url(#p925f2d3785)" style="fill: #1f77b4"/>
   </g>
   <g id="patch_229">
    <path d="M 826.587364 58.309559 
L 830.09598 58.309559 
L 830.09598 58.304217 
L 826.587364 58.304217 
z
" clip-path="url(#p925f2d3785)" style="fill: #1f77b4"/>
   </g>
   <g id="patch_230">
    <path d="M 830.09598 58.309559 
L 833.604597 58.309559 
L 833.604597 58.305169 
L 830.09598 58.305169 
z
" clip-path="url(#p925f2d3785)" style="fill: #1f77b4"/>
   </g>
   <g id="patch_231">
    <path d="M 833.604597 58.309559 
L 837.113214 58.309559 
L 837.113214 58.305352 
L 833.604597 58.305352 
z
" clip-path="url(#p925f2d3785)" style="fill: #1f77b4"/>
   </g>
   <g id="patch_232">
    <path d="M 837.113214 58.309559 
L 840.62183 58.309559 
L 840.62183 58.305846 
L 837.113214 58.305846 
z
" clip-path="url(#p925f2d3785)" style="fill: #1f77b4"/>
   </g>
   <g id="patch_233">
    <path d="M 840.62183 58.309559 
L 844.130447 58.309559 
L 844.130447 58.306211 
L 840.62183 58.306211 
z
" clip-path="url(#p925f2d3785)" style="fill: #1f77b4"/>
   </g>
   <g id="patch_234">
    <path d="M 844.130447 58.309559 
L 847.639064 58.309559 
L 847.639064 58.30687 
L 844.130447 58.30687 
z
" clip-path="url(#p925f2d3785)" style="fill: #1f77b4"/>
   </g>
   <g id="patch_235">
    <path d="M 847.639064 58.309559 
L 851.14768 58.309559 
L 851.14768 58.307199 
L 847.639064 58.307199 
z
" clip-path="url(#p925f2d3785)" style="fill: #1f77b4"/>
   </g>
   <g id="patch_236">
    <path d="M 851.14768 58.309559 
L 854.656297 58.309559 
L 854.656297 58.307163 
L 851.14768 58.307163 
z
" clip-path="url(#p925f2d3785)" style="fill: #1f77b4"/>
   </g>
   <g id="patch_237">
    <path d="M 854.656297 58.309559 
L 858.164914 58.309559 
L 858.164914 58.307602 
L 854.656297 58.307602 
z
" clip-path="url(#p925f2d3785)" style="fill: #1f77b4"/>
   </g>
   <g id="patch_238">
    <path d="M 858.164914 58.309559 
L 861.67353 58.309559 
L 861.67353 58.308059 
L 858.164914 58.308059 
z
" clip-path="url(#p925f2d3785)" style="fill: #1f77b4"/>
   </g>
   <g id="patch_239">
    <path d="M 861.67353 58.309559 
L 865.182147 58.309559 
L 865.182147 58.308187 
L 861.67353 58.308187 
z
" clip-path="url(#p925f2d3785)" style="fill: #1f77b4"/>
   </g>
   <g id="patch_240">
    <path d="M 865.182147 58.309559 
L 868.690764 58.309559 
L 868.690764 58.30837 
L 865.182147 58.30837 
z
" clip-path="url(#p925f2d3785)" style="fill: #1f77b4"/>
   </g>
   <g id="patch_241">
    <path d="M 868.690764 58.309559 
L 872.19938 58.309559 
L 872.19938 58.30848 
L 868.690764 58.30848 
z
" clip-path="url(#p925f2d3785)" style="fill: #1f77b4"/>
   </g>
   <g id="patch_242">
    <path d="M 872.19938 58.309559 
L 875.707997 58.309559 
L 875.707997 58.308791 
L 872.19938 58.308791 
z
" clip-path="url(#p925f2d3785)" style="fill: #1f77b4"/>
   </g>
   <g id="patch_243">
    <path d="M 875.707997 58.309559 
L 879.216614 58.309559 
L 879.216614 58.309029 
L 875.707997 58.309029 
z
" clip-path="url(#p925f2d3785)" style="fill: #1f77b4"/>
   </g>
   <g id="patch_244">
    <path d="M 879.216614 58.309559 
L 882.72523 58.309559 
L 882.72523 58.309047 
L 879.216614 58.309047 
z
" clip-path="url(#p925f2d3785)" style="fill: #1f77b4"/>
   </g>
   <g id="patch_245">
    <path d="M 882.72523 58.309559 
L 886.233847 58.309559 
L 886.233847 58.309212 
L 882.72523 58.309212 
z
" clip-path="url(#p925f2d3785)" style="fill: #1f77b4"/>
   </g>
   <g id="patch_246">
    <path d="M 886.233847 58.309559 
L 889.742464 58.309559 
L 889.742464 58.309212 
L 886.233847 58.309212 
z
" clip-path="url(#p925f2d3785)" style="fill: #1f77b4"/>
   </g>
   <g id="patch_247">
    <path d="M 889.742464 58.309559 
L 893.25108 58.309559 
L 893.25108 58.309358 
L 889.742464 58.309358 
z
" clip-path="url(#p925f2d3785)" style="fill: #1f77b4"/>
   </g>
   <g id="patch_248">
    <path d="M 893.25108 58.309559 
L 896.759697 58.309559 
L 896.759697 58.309358 
L 893.25108 58.309358 
z
" clip-path="url(#p925f2d3785)" style="fill: #1f77b4"/>
   </g>
   <g id="patch_249">
    <path d="M 896.759697 58.309559 
L 900.268314 58.309559 
L 900.268314 58.309505 
L 896.759697 58.309505 
z
" clip-path="url(#p925f2d3785)" style="fill: #1f77b4"/>
   </g>
   <g id="patch_250">
    <path d="M 900.268314 58.309559 
L 903.77693 58.309559 
L 903.77693 58.309505 
L 900.268314 58.309505 
z
" clip-path="url(#p925f2d3785)" style="fill: #1f77b4"/>
   </g>
   <g id="patch_251">
    <path d="M 903.77693 58.309559 
L 907.285547 58.309559 
L 907.285547 58.309486 
L 903.77693 58.309486 
z
" clip-path="url(#p925f2d3785)" style="fill: #1f77b4"/>
   </g>
   <g id="patch_252">
    <path d="M 907.285547 58.309559 
L 910.794164 58.309559 
L 910.794164 58.309523 
L 907.285547 58.309523 
z
" clip-path="url(#p925f2d3785)" style="fill: #1f77b4"/>
   </g>
   <g id="patch_253">
    <path d="M 910.794164 58.309559 
L 914.30278 58.309559 
L 914.30278 58.309541 
L 910.794164 58.309541 
z
" clip-path="url(#p925f2d3785)" style="fill: #1f77b4"/>
   </g>
   <g id="patch_254">
    <path d="M 914.30278 58.309559 
L 917.811397 58.309559 
L 917.811397 58.309541 
L 914.30278 58.309541 
z
" clip-path="url(#p925f2d3785)" style="fill: #1f77b4"/>
   </g>
   <g id="patch_255">
    <path d="M 917.811397 58.309559 
L 921.320013 58.309559 
L 921.320013 58.309523 
L 917.811397 58.309523 
z
" clip-path="url(#p925f2d3785)" style="fill: #1f77b4"/>
   </g>
   <g id="patch_256">
    <path d="M 921.320013 58.309559 
L 924.82863 58.309559 
L 924.82863 58.309559 
L 921.320013 58.309559 
z
" clip-path="url(#p925f2d3785)" style="fill: #1f77b4"/>
   </g>
   <g id="patch_257">
    <path d="M 924.82863 58.309559 
L 928.337247 58.309559 
L 928.337247 58.309559 
L 924.82863 58.309559 
z
" clip-path="url(#p925f2d3785)" style="fill: #1f77b4"/>
   </g>
   <g id="patch_258">
    <path d="M 928.337247 58.309559 
L 931.845863 58.309559 
L 931.845863 58.309541 
L 928.337247 58.309541 
z
" clip-path="url(#p925f2d3785)" style="fill: #1f77b4"/>
   </g>
   <g id="matplotlib.axis_1">
    <g id="xtick_1">
     <g id="line2d_1">
      <defs>
       <path id="m6a865cbf0e" d="M 0 0 
L 0 3.5 
" style="stroke: #000000; stroke-width: 0.8"/>
      </defs>
      <g>
       <use xlink:href="#m6a865cbf0e" x="33.64" y="58.309559" style="stroke: #000000; stroke-width: 0.8"/>
      </g>
     </g>
     <g id="text_1">
      <!-- Air -1000 -->
      <g transform="translate(21.488928 109.802527) rotate(-70) scale(0.1 -0.1)">
       <defs>
        <path id="DejaVuSans-41" d="M 2188 4044 
L 1331 1722 
L 3047 1722 
L 2188 4044 
z
M 1831 4666 
L 2547 4666 
L 4325 0 
L 3669 0 
L 3244 1197 
L 1141 1197 
L 716 0 
L 50 0 
L 1831 4666 
z
" transform="scale(0.015625)"/>
        <path id="DejaVuSans-69" d="M 603 3500 
L 1178 3500 
L 1178 0 
L 603 0 
L 603 3500 
z
M 603 4863 
L 1178 4863 
L 1178 4134 
L 603 4134 
L 603 4863 
z
" transform="scale(0.015625)"/>
        <path id="DejaVuSans-72" d="M 2631 2963 
Q 2534 3019 2420 3045 
Q 2306 3072 2169 3072 
Q 1681 3072 1420 2755 
Q 1159 2438 1159 1844 
L 1159 0 
L 581 0 
L 581 3500 
L 1159 3500 
L 1159 2956 
Q 1341 3275 1631 3429 
Q 1922 3584 2338 3584 
Q 2397 3584 2469 3576 
Q 2541 3569 2628 3553 
L 2631 2963 
z
" transform="scale(0.015625)"/>
        <path id="DejaVuSans-20" transform="scale(0.015625)"/>
        <path id="DejaVuSans-2d" d="M 313 2009 
L 1997 2009 
L 1997 1497 
L 313 1497 
L 313 2009 
z
" transform="scale(0.015625)"/>
        <path id="DejaVuSans-31" d="M 794 531 
L 1825 531 
L 1825 4091 
L 703 3866 
L 703 4441 
L 1819 4666 
L 2450 4666 
L 2450 531 
L 3481 531 
L 3481 0 
L 794 0 
L 794 531 
z
" transform="scale(0.015625)"/>
        <path id="DejaVuSans-30" d="M 2034 4250 
Q 1547 4250 1301 3770 
Q 1056 3291 1056 2328 
Q 1056 1369 1301 889 
Q 1547 409 2034 409 
Q 2525 409 2770 889 
Q 3016 1369 3016 2328 
Q 3016 3291 2770 3770 
Q 2525 4250 2034 4250 
z
M 2034 4750 
Q 2819 4750 3233 4129 
Q 3647 3509 3647 2328 
Q 3647 1150 3233 529 
Q 2819 -91 2034 -91 
Q 1250 -91 836 529 
Q 422 1150 422 2328 
Q 422 3509 836 4129 
Q 1250 4750 2034 4750 
z
" transform="scale(0.015625)"/>
       </defs>
       <use xlink:href="#DejaVuSans-41"/>
       <use xlink:href="#DejaVuSans-69" x="68.408203"/>
       <use xlink:href="#DejaVuSans-72" x="96.191406"/>
       <use xlink:href="#DejaVuSans-20" x="137.304688"/>
       <use xlink:href="#DejaVuSans-2d" x="169.091797"/>
       <use xlink:href="#DejaVuSans-31" x="205.175781"/>
       <use xlink:href="#DejaVuSans-30" x="268.798828"/>
       <use xlink:href="#DejaVuSans-30" x="332.421875"/>
       <use xlink:href="#DejaVuSans-30" x="396.044922"/>
      </g>
     </g>
    </g>
    <g id="xtick_2">
     <g id="line2d_2">
      <g>
       <use xlink:href="#m6a865cbf0e" x="319.996811" y="58.309559" style="stroke: #000000; stroke-width: 0.8"/>
      </g>
     </g>
     <g id="text_2">
      <!--  500 -->
      <g transform="translate(315.951616 87.531812) rotate(-70) scale(0.1 -0.1)">
       <defs>
        <path id="DejaVuSans-35" d="M 691 4666 
L 3169 4666 
L 3169 4134 
L 1269 4134 
L 1269 2991 
Q 1406 3038 1543 3061 
Q 1681 3084 1819 3084 
Q 2600 3084 3056 2656 
Q 3513 2228 3513 1497 
Q 3513 744 3044 326 
Q 2575 -91 1722 -91 
Q 1428 -91 1123 -41 
Q 819 9 494 109 
L 494 744 
Q 775 591 1075 516 
Q 1375 441 1709 441 
Q 2250 441 2565 725 
Q 2881 1009 2881 1497 
Q 2881 1984 2565 2268 
Q 2250 2553 1709 2553 
Q 1456 2553 1204 2497 
Q 953 2441 691 2322 
L 691 4666 
z
" transform="scale(0.015625)"/>
       </defs>
       <use xlink:href="#DejaVuSans-20"/>
       <use xlink:href="#DejaVuSans-35" x="31.787109"/>
       <use xlink:href="#DejaVuSans-30" x="95.410156"/>
       <use xlink:href="#DejaVuSans-30" x="159.033203"/>
      </g>
     </g>
    </g>
    <g id="xtick_3">
     <g id="line2d_3">
      <g>
       <use xlink:href="#m6a865cbf0e" x="205.454087" y="58.309559" style="stroke: #000000; stroke-width: 0.8"/>
      </g>
     </g>
     <g id="text_3">
      <!-- Fat -100 -->
      <g transform="translate(195.083123 104.911721) rotate(-70) scale(0.1 -0.1)">
       <defs>
        <path id="DejaVuSans-46" d="M 628 4666 
L 3309 4666 
L 3309 4134 
L 1259 4134 
L 1259 2759 
L 3109 2759 
L 3109 2228 
L 1259 2228 
L 1259 0 
L 628 0 
L 628 4666 
z
" transform="scale(0.015625)"/>
        <path id="DejaVuSans-61" d="M 2194 1759 
Q 1497 1759 1228 1600 
Q 959 1441 959 1056 
Q 959 750 1161 570 
Q 1363 391 1709 391 
Q 2188 391 2477 730 
Q 2766 1069 2766 1631 
L 2766 1759 
L 2194 1759 
z
M 3341 1997 
L 3341 0 
L 2766 0 
L 2766 531 
Q 2569 213 2275 61 
Q 1981 -91 1556 -91 
Q 1019 -91 701 211 
Q 384 513 384 1019 
Q 384 1609 779 1909 
Q 1175 2209 1959 2209 
L 2766 2209 
L 2766 2266 
Q 2766 2663 2505 2880 
Q 2244 3097 1772 3097 
Q 1472 3097 1187 3025 
Q 903 2953 641 2809 
L 641 3341 
Q 956 3463 1253 3523 
Q 1550 3584 1831 3584 
Q 2591 3584 2966 3190 
Q 3341 2797 3341 1997 
z
" transform="scale(0.015625)"/>
        <path id="DejaVuSans-74" d="M 1172 4494 
L 1172 3500 
L 2356 3500 
L 2356 3053 
L 1172 3053 
L 1172 1153 
Q 1172 725 1289 603 
Q 1406 481 1766 481 
L 2356 481 
L 2356 0 
L 1766 0 
Q 1100 0 847 248 
Q 594 497 594 1153 
L 594 3053 
L 172 3053 
L 172 3500 
L 594 3500 
L 594 4494 
L 1172 4494 
z
" transform="scale(0.015625)"/>
       </defs>
       <use xlink:href="#DejaVuSans-46"/>
       <use xlink:href="#DejaVuSans-61" x="48.394531"/>
       <use xlink:href="#DejaVuSans-74" x="109.673828"/>
       <use xlink:href="#DejaVuSans-20" x="148.882812"/>
       <use xlink:href="#DejaVuSans-2d" x="180.669922"/>
       <use xlink:href="#DejaVuSans-31" x="216.753906"/>
       <use xlink:href="#DejaVuSans-30" x="280.376953"/>
       <use xlink:href="#DejaVuSans-30" x="344"/>
      </g>
     </g>
    </g>
    <g id="xtick_4">
     <g id="line2d_4">
      <g>
       <use xlink:href="#m6a865cbf0e" x="224.544541" y="58.309559" style="stroke: #000000; stroke-width: 0.8"/>
      </g>
     </g>
     <g id="text_4">
      <!-- Water 0 -->
      <g transform="translate(214.740582 103.353887) rotate(-70) scale(0.1 -0.1)">
       <defs>
        <path id="DejaVuSans-57" d="M 213 4666 
L 850 4666 
L 1831 722 
L 2809 4666 
L 3519 4666 
L 4500 722 
L 5478 4666 
L 6119 4666 
L 4947 0 
L 4153 0 
L 3169 4050 
L 2175 0 
L 1381 0 
L 213 4666 
z
" transform="scale(0.015625)"/>
        <path id="DejaVuSans-65" d="M 3597 1894 
L 3597 1613 
L 953 1613 
Q 991 1019 1311 708 
Q 1631 397 2203 397 
Q 2534 397 2845 478 
Q 3156 559 3463 722 
L 3463 178 
Q 3153 47 2828 -22 
Q 2503 -91 2169 -91 
Q 1331 -91 842 396 
Q 353 884 353 1716 
Q 353 2575 817 3079 
Q 1281 3584 2069 3584 
Q 2775 3584 3186 3129 
Q 3597 2675 3597 1894 
z
M 3022 2063 
Q 3016 2534 2758 2815 
Q 2500 3097 2075 3097 
Q 1594 3097 1305 2825 
Q 1016 2553 972 2059 
L 3022 2063 
z
" transform="scale(0.015625)"/>
       </defs>
       <use xlink:href="#DejaVuSans-57"/>
       <use xlink:href="#DejaVuSans-61" x="92.501953"/>
       <use xlink:href="#DejaVuSans-74" x="153.78125"/>
       <use xlink:href="#DejaVuSans-65" x="192.990234"/>
       <use xlink:href="#DejaVuSans-72" x="254.513672"/>
       <use xlink:href="#DejaVuSans-20" x="295.626953"/>
       <use xlink:href="#DejaVuSans-30" x="327.414062"/>
      </g>
     </g>
    </g>
    <g id="xtick_5">
     <g id="line2d_5">
      <g>
       <use xlink:href="#m6a865cbf0e" x="234.089768" y="58.309559" style="stroke: #000000; stroke-width: 0.8"/>
      </g>
     </g>
     <g id="text_5">
      <!-- Soft Tissue 50 -->
      <g transform="translate(213.616918 132.666423) rotate(-70) scale(0.1 -0.1)">
       <defs>
        <path id="DejaVuSans-53" d="M 3425 4513 
L 3425 3897 
Q 3066 4069 2747 4153 
Q 2428 4238 2131 4238 
Q 1616 4238 1336 4038 
Q 1056 3838 1056 3469 
Q 1056 3159 1242 3001 
Q 1428 2844 1947 2747 
L 2328 2669 
Q 3034 2534 3370 2195 
Q 3706 1856 3706 1288 
Q 3706 609 3251 259 
Q 2797 -91 1919 -91 
Q 1588 -91 1214 -16 
Q 841 59 441 206 
L 441 856 
Q 825 641 1194 531 
Q 1563 422 1919 422 
Q 2459 422 2753 634 
Q 3047 847 3047 1241 
Q 3047 1584 2836 1778 
Q 2625 1972 2144 2069 
L 1759 2144 
Q 1053 2284 737 2584 
Q 422 2884 422 3419 
Q 422 4038 858 4394 
Q 1294 4750 2059 4750 
Q 2388 4750 2728 4690 
Q 3069 4631 3425 4513 
z
" transform="scale(0.015625)"/>
        <path id="DejaVuSans-6f" d="M 1959 3097 
Q 1497 3097 1228 2736 
Q 959 2375 959 1747 
Q 959 1119 1226 758 
Q 1494 397 1959 397 
Q 2419 397 2687 759 
Q 2956 1122 2956 1747 
Q 2956 2369 2687 2733 
Q 2419 3097 1959 3097 
z
M 1959 3584 
Q 2709 3584 3137 3096 
Q 3566 2609 3566 1747 
Q 3566 888 3137 398 
Q 2709 -91 1959 -91 
Q 1206 -91 779 398 
Q 353 888 353 1747 
Q 353 2609 779 3096 
Q 1206 3584 1959 3584 
z
" transform="scale(0.015625)"/>
        <path id="DejaVuSans-66" d="M 2375 4863 
L 2375 4384 
L 1825 4384 
Q 1516 4384 1395 4259 
Q 1275 4134 1275 3809 
L 1275 3500 
L 2222 3500 
L 2222 3053 
L 1275 3053 
L 1275 0 
L 697 0 
L 697 3053 
L 147 3053 
L 147 3500 
L 697 3500 
L 697 3744 
Q 697 4328 969 4595 
Q 1241 4863 1831 4863 
L 2375 4863 
z
" transform="scale(0.015625)"/>
        <path id="DejaVuSans-54" d="M -19 4666 
L 3928 4666 
L 3928 4134 
L 2272 4134 
L 2272 0 
L 1638 0 
L 1638 4134 
L -19 4134 
L -19 4666 
z
" transform="scale(0.015625)"/>
        <path id="DejaVuSans-73" d="M 2834 3397 
L 2834 2853 
Q 2591 2978 2328 3040 
Q 2066 3103 1784 3103 
Q 1356 3103 1142 2972 
Q 928 2841 928 2578 
Q 928 2378 1081 2264 
Q 1234 2150 1697 2047 
L 1894 2003 
Q 2506 1872 2764 1633 
Q 3022 1394 3022 966 
Q 3022 478 2636 193 
Q 2250 -91 1575 -91 
Q 1294 -91 989 -36 
Q 684 19 347 128 
L 347 722 
Q 666 556 975 473 
Q 1284 391 1588 391 
Q 1994 391 2212 530 
Q 2431 669 2431 922 
Q 2431 1156 2273 1281 
Q 2116 1406 1581 1522 
L 1381 1569 
Q 847 1681 609 1914 
Q 372 2147 372 2553 
Q 372 3047 722 3315 
Q 1072 3584 1716 3584 
Q 2034 3584 2315 3537 
Q 2597 3491 2834 3397 
z
" transform="scale(0.015625)"/>
        <path id="DejaVuSans-75" d="M 544 1381 
L 544 3500 
L 1119 3500 
L 1119 1403 
Q 1119 906 1312 657 
Q 1506 409 1894 409 
Q 2359 409 2629 706 
Q 2900 1003 2900 1516 
L 2900 3500 
L 3475 3500 
L 3475 0 
L 2900 0 
L 2900 538 
Q 2691 219 2414 64 
Q 2138 -91 1772 -91 
Q 1169 -91 856 284 
Q 544 659 544 1381 
z
M 1991 3584 
L 1991 3584 
z
" transform="scale(0.015625)"/>
       </defs>
       <use xlink:href="#DejaVuSans-53"/>
       <use xlink:href="#DejaVuSans-6f" x="63.476562"/>
       <use xlink:href="#DejaVuSans-66" x="124.658203"/>
       <use xlink:href="#DejaVuSans-74" x="158.113281"/>
       <use xlink:href="#DejaVuSans-20" x="197.322266"/>
       <use xlink:href="#DejaVuSans-54" x="229.109375"/>
       <use xlink:href="#DejaVuSans-69" x="287.068359"/>
       <use xlink:href="#DejaVuSans-73" x="314.851562"/>
       <use xlink:href="#DejaVuSans-73" x="366.951172"/>
       <use xlink:href="#DejaVuSans-75" x="419.050781"/>
       <use xlink:href="#DejaVuSans-65" x="482.429688"/>
       <use xlink:href="#DejaVuSans-20" x="543.953125"/>
       <use xlink:href="#DejaVuSans-35" x="575.740234"/>
       <use xlink:href="#DejaVuSans-30" x="639.363281"/>
      </g>
     </g>
    </g>
    <g id="xtick_6">
     <g id="line2d_6">
      <g>
       <use xlink:href="#m6a865cbf0e" x="300.906357" y="58.309559" style="stroke: #000000; stroke-width: 0.8"/>
      </g>
     </g>
     <g id="text_6">
      <!-- Bone 400 -->
      <g transform="translate(288.149802 111.466077) rotate(-70) scale(0.1 -0.1)">
       <defs>
        <path id="DejaVuSans-42" d="M 1259 2228 
L 1259 519 
L 2272 519 
Q 2781 519 3026 730 
Q 3272 941 3272 1375 
Q 3272 1813 3026 2020 
Q 2781 2228 2272 2228 
L 1259 2228 
z
M 1259 4147 
L 1259 2741 
L 2194 2741 
Q 2656 2741 2882 2914 
Q 3109 3088 3109 3444 
Q 3109 3797 2882 3972 
Q 2656 4147 2194 4147 
L 1259 4147 
z
M 628 4666 
L 2241 4666 
Q 2963 4666 3353 4366 
Q 3744 4066 3744 3513 
Q 3744 3084 3544 2831 
Q 3344 2578 2956 2516 
Q 3422 2416 3680 2098 
Q 3938 1781 3938 1306 
Q 3938 681 3513 340 
Q 3088 0 2303 0 
L 628 0 
L 628 4666 
z
" transform="scale(0.015625)"/>
        <path id="DejaVuSans-6e" d="M 3513 2113 
L 3513 0 
L 2938 0 
L 2938 2094 
Q 2938 2591 2744 2837 
Q 2550 3084 2163 3084 
Q 1697 3084 1428 2787 
Q 1159 2491 1159 1978 
L 1159 0 
L 581 0 
L 581 3500 
L 1159 3500 
L 1159 2956 
Q 1366 3272 1645 3428 
Q 1925 3584 2291 3584 
Q 2894 3584 3203 3211 
Q 3513 2838 3513 2113 
z
" transform="scale(0.015625)"/>
        <path id="DejaVuSans-34" d="M 2419 4116 
L 825 1625 
L 2419 1625 
L 2419 4116 
z
M 2253 4666 
L 3047 4666 
L 3047 1625 
L 3713 1625 
L 3713 1100 
L 3047 1100 
L 3047 0 
L 2419 0 
L 2419 1100 
L 313 1100 
L 313 1709 
L 2253 4666 
z
" transform="scale(0.015625)"/>
       </defs>
       <use xlink:href="#DejaVuSans-42"/>
       <use xlink:href="#DejaVuSans-6f" x="68.603516"/>
       <use xlink:href="#DejaVuSans-6e" x="129.785156"/>
       <use xlink:href="#DejaVuSans-65" x="193.164062"/>
       <use xlink:href="#DejaVuSans-20" x="254.6875"/>
       <use xlink:href="#DejaVuSans-34" x="286.474609"/>
       <use xlink:href="#DejaVuSans-30" x="350.097656"/>
       <use xlink:href="#DejaVuSans-30" x="413.720703"/>
      </g>
     </g>
    </g>
    <g id="xtick_7">
     <g id="line2d_7">
      <g>
       <use xlink:href="#m6a865cbf0e" x="415.449081" y="58.309559" style="stroke: #000000; stroke-width: 0.8"/>
      </g>
     </g>
     <g id="text_7">
      <!-- Metal 1000 -->
      <g transform="translate(399.785356 119.453464) rotate(-70) scale(0.1 -0.1)">
       <defs>
        <path id="DejaVuSans-4d" d="M 628 4666 
L 1569 4666 
L 2759 1491 
L 3956 4666 
L 4897 4666 
L 4897 0 
L 4281 0 
L 4281 4097 
L 3078 897 
L 2444 897 
L 1241 4097 
L 1241 0 
L 628 0 
L 628 4666 
z
" transform="scale(0.015625)"/>
        <path id="DejaVuSans-6c" d="M 603 4863 
L 1178 4863 
L 1178 0 
L 603 0 
L 603 4863 
z
" transform="scale(0.015625)"/>
       </defs>
       <use xlink:href="#DejaVuSans-4d"/>
       <use xlink:href="#DejaVuSans-65" x="86.279297"/>
       <use xlink:href="#DejaVuSans-74" x="147.802734"/>
       <use xlink:href="#DejaVuSans-61" x="187.011719"/>
       <use xlink:href="#DejaVuSans-6c" x="248.291016"/>
       <use xlink:href="#DejaVuSans-20" x="276.074219"/>
       <use xlink:href="#DejaVuSans-31" x="307.861328"/>
       <use xlink:href="#DejaVuSans-30" x="371.484375"/>
       <use xlink:href="#DejaVuSans-30" x="435.107422"/>
       <use xlink:href="#DejaVuSans-30" x="498.730469"/>
      </g>
     </g>
    </g>
   </g>
   <g id="matplotlib.axis_2">
    <g id="ytick_1">
     <g id="line2d_8">
      <defs>
       <path id="m387ed36277" d="M 0 0 
L -3.5 0 
" style="stroke: #000000; stroke-width: 0.8"/>
      </defs>
      <g>
       <use xlink:href="#m387ed36277" x="33.64" y="58.309559" style="stroke: #000000; stroke-width: 0.8"/>
      </g>
     </g>
     <g id="text_8">
      <!-- 0 -->
      <g transform="translate(20.2775 62.108778) scale(0.1 -0.1)">
       <use xlink:href="#DejaVuSans-30"/>
      </g>
     </g>
    </g>
    <g id="ytick_2">
     <g id="line2d_9">
      <g>
       <use xlink:href="#m387ed36277" x="33.64" y="21.72" style="stroke: #000000; stroke-width: 0.8"/>
      </g>
     </g>
     <g id="text_9">
      <!-- 2 -->
      <g transform="translate(20.2775 25.519219) scale(0.1 -0.1)">
       <defs>
        <path id="DejaVuSans-32" d="M 1228 531 
L 3431 531 
L 3431 0 
L 469 0 
L 469 531 
Q 828 903 1448 1529 
Q 2069 2156 2228 2338 
Q 2531 2678 2651 2914 
Q 2772 3150 2772 3378 
Q 2772 3750 2511 3984 
Q 2250 4219 1831 4219 
Q 1534 4219 1204 4116 
Q 875 4013 500 3803 
L 500 4441 
Q 881 4594 1212 4672 
Q 1544 4750 1819 4750 
Q 2544 4750 2975 4387 
Q 3406 4025 3406 3419 
Q 3406 3131 3298 2873 
Q 3191 2616 2906 2266 
Q 2828 2175 2409 1742 
Q 1991 1309 1228 531 
z
" transform="scale(0.015625)"/>
       </defs>
       <use xlink:href="#DejaVuSans-32"/>
      </g>
     </g>
    </g>
    <g id="text_10">
     <!-- 1e6 -->
     <g transform="translate(33.64 18.72) scale(0.1 -0.1)">
      <defs>
       <path id="DejaVuSans-36" d="M 2113 2584 
Q 1688 2584 1439 2293 
Q 1191 2003 1191 1497 
Q 1191 994 1439 701 
Q 1688 409 2113 409 
Q 2538 409 2786 701 
Q 3034 994 3034 1497 
Q 3034 2003 2786 2293 
Q 2538 2584 2113 2584 
z
M 3366 4563 
L 3366 3988 
Q 3128 4100 2886 4159 
Q 2644 4219 2406 4219 
Q 1781 4219 1451 3797 
Q 1122 3375 1075 2522 
Q 1259 2794 1537 2939 
Q 1816 3084 2150 3084 
Q 2853 3084 3261 2657 
Q 3669 2231 3669 1497 
Q 3669 778 3244 343 
Q 2819 -91 2113 -91 
Q 1303 -91 875 529 
Q 447 1150 447 2328 
Q 447 3434 972 4092 
Q 1497 4750 2381 4750 
Q 2619 4750 2861 4703 
Q 3103 4656 3366 4563 
z
" transform="scale(0.015625)"/>
      </defs>
      <use xlink:href="#DejaVuSans-31"/>
      <use xlink:href="#DejaVuSans-65" x="63.623047"/>
      <use xlink:href="#DejaVuSans-36" x="125.146484"/>
     </g>
    </g>
   </g>
   <g id="patch_259">
    <path d="M 33.64 58.309559 
L 33.64 21.72 
" style="fill: none; stroke: #000000; stroke-width: 0.8; stroke-linejoin: miter; stroke-linecap: square"/>
   </g>
   <g id="patch_260">
    <path d="M 415.449081 58.309559 
L 415.449081 21.72 
" style="fill: none; stroke: #000000; stroke-width: 0.8; stroke-linejoin: miter; stroke-linecap: square"/>
   </g>
   <g id="patch_261">
    <path d="M 33.64 58.309559 
L 415.449081 58.309559 
" style="fill: none; stroke: #000000; stroke-width: 0.8; stroke-linejoin: miter; stroke-linecap: square"/>
   </g>
   <g id="patch_262">
    <path d="M 33.64 21.72 
L 415.449081 21.72 
" style="fill: none; stroke: #000000; stroke-width: 0.8; stroke-linejoin: miter; stroke-linecap: square"/>
   </g>
  </g>
 </g>
 <defs>
  <clipPath id="p925f2d3785">
   <rect x="33.64" y="21.72" width="381.809081" height="36.589559"/>
  </clipPath>
 </defs>
</svg>
