<?xml version="1.0" encoding="UTF-8"?>
<svg width="486pt" height="162pt" version="1.1" viewBox="0 0 486 162" xmlns="http://www.w3.org/2000/svg" xmlns:cc="http://creativecommons.org/ns#" xmlns:dc="http://purl.org/dc/elements/1.1/" xmlns:ns10="http://www.iki.fi/pav/software/textext/" xmlns:rdf="http://www.w3.org/1999/02/22-rdf-syntax-ns#">
 <metadata>
  <rdf:RDF>
   <cc:Work>
    <dc:type rdf:resource="http://purl.org/dc/dcmitype/StillImage"/>
    <dc:date/>
    <dc:format/>
    <dc:creator>
     <cc:Agent>
      <dc:title/>
     </cc:Agent>
    </dc:creator>
   </cc:Work>
  </rdf:RDF>
 </metadata>
 <defs>
  <style type="text/css">*{stroke-linejoin: round; stroke-linecap: butt}</style>
  <clipPath id="c">
   <path x="166.18065" y="1.62" width="153.6387" height="158.75999" d="m166.18 1.62h153.64v158.76h-153.64z"/>
  </clipPath>
  <clipPath id="a">
   <path x="4.8600001" y="1.62" width="153.6387" height="158.75999" d="m4.86 1.62h153.64v158.76h-153.64z"/>
  </clipPath>
  <clipPath id="h">
   <path x="166.18065" y="1.62" width="153.6387" height="158.75999" d="m166.18 1.62h153.64v158.76h-153.64z"/>
  </clipPath>
  <clipPath id="e">
   <path x="166.18065" y="1.62" width="153.6387" height="158.75999" d="m166.18 1.62h153.64v158.76h-153.64z"/>
  </clipPath>
  <clipPath id="d">
   <path x="166.18065" y="1.62" width="153.6387" height="158.75999" d="m166.18 1.62h153.64v158.76h-153.64z"/>
  </clipPath>
  <clipPath id="b">
   <path x="4.8600001" y="1.62" width="153.6387" height="158.75999" d="m4.86 1.62h153.64v158.76h-153.64z"/>
  </clipPath>
  <clipPath id="g">
   <path x="166.18065" y="1.62" width="153.6387" height="158.75999" d="m166.18 1.62h153.64v158.76h-153.64z"/>
  </clipPath>
  <clipPath id="f">
   <path x="166.18065" y="1.62" width="153.6387" height="158.75999" d="m166.18 1.62h153.64v158.76h-153.64z"/>
  </clipPath>
 </defs>
 <g display="none" fill="none" stroke="#000" stroke-linecap="square" stroke-width="1.5">
  <path d="m17.54 144.46v-130.42"/>
  <path d="m157.32 144.46v-130.42"/>
  <path d="m17.54 144.46h139.78"/>
  <path d="m17.54 14.04h139.78"/>
  <path d="m174.86 144.46v-130.42"/>
  <path d="m314.64 144.46v-130.42"/>
  <path d="m174.86 144.46h139.78"/>
  <path d="m174.86 14.04h139.78"/>
  <path d="m332.18 144.46v-130.42"/>
  <path d="m471.96 144.46v-130.42"/>
  <path d="m332.18 144.46h139.78"/>
  <path d="m332.18 14.04h139.78"/>
 </g>
 <g transform="translate(-34.709 -36.948)" fill="none" stroke-linecap="round" stroke-linejoin="round" stroke-width=".9">
  <path transform="translate(90.478 162.65)" d="m125.85 99.666v-4.41" clip-path="url(#a)" stroke="#57106e"/>
  <path transform="translate(90.478 162.65)" d="m133.53 99.666-3.841 2.205" clip-path="url(#a)" stroke="#f98e09"/>
  <path transform="translate(90.478 162.65)" d="m133.53 99.666v-4.41" clip-path="url(#a)" stroke="#57106e"/>
  <path transform="translate(90.478 162.65)" d="m141.21 99.666-3.841 2.205" clip-path="url(#a)" stroke="#f98e09"/>
  <path transform="translate(90.478 162.65)" d="m141.21 99.666v-4.41" clip-path="url(#a)" stroke="#57106e"/>
  <path transform="translate(90.478 162.65)" d="m148.9 99.666-3.841 2.205" clip-path="url(#a)" stroke="#f98e09"/>
  <g stroke="#57106e">
   <path transform="translate(90.478 162.65)" d="m148.9 99.666v-4.41" clip-path="url(#a)"/>
   <path transform="translate(90.478 162.65)" d="m125.85 86.436v-4.41" clip-path="url(#a)"/>
   <path transform="translate(90.478 162.65)" d="m129.69 93.051v-4.41" clip-path="url(#a)"/>
  </g>
  <path transform="translate(90.478 162.65)" d="m133.53 86.436-3.841 2.205" clip-path="url(#a)" stroke="#f98e09"/>
  <path transform="translate(90.478 162.65)" d="m133.53 86.436v-4.41" clip-path="url(#a)" stroke="#57106e"/>
  <path transform="translate(90.478 162.65)" d="m137.37 93.051v-4.41" clip-path="url(#a)" stroke="#57106e"/>
  <path transform="translate(90.478 162.65)" d="m141.21 86.436-3.841 2.205" clip-path="url(#a)" stroke="#f98e09"/>
  <path transform="translate(90.478 162.65)" d="m141.21 86.436v-4.41" clip-path="url(#a)" stroke="#57106e"/>
  <path transform="translate(90.478 162.65)" d="m145.06 93.051v-4.41" clip-path="url(#a)" stroke="#57106e"/>
  <path transform="translate(90.478 162.65)" d="m148.9 86.436-3.841 2.205" clip-path="url(#a)" stroke="#f98e09"/>
  <path transform="translate(90.478 162.65)" d="m148.9 86.436v-4.41" clip-path="url(#a)" stroke="#57106e"/>
  <path transform="translate(90.478 162.65)" d="m129.69 79.821v-4.41" clip-path="url(#a)" stroke="#57106e"/>
  <path transform="translate(90.478 162.65)" d="m133.53 73.206-3.841 2.205" clip-path="url(#a)" stroke="#f98e09"/>
  <path transform="translate(90.478 162.65)" d="m137.37 79.821v-4.41" clip-path="url(#a)" stroke="#57106e"/>
  <path transform="translate(90.478 162.65)" d="m141.21 73.206-3.841 2.205" clip-path="url(#a)" stroke="#f98e09"/>
  <path transform="translate(90.478 162.65)" d="m145.06 79.821v-4.41" clip-path="url(#a)" stroke="#57106e"/>
  <path transform="translate(90.478 162.65)" d="m148.9 73.206-3.841 2.205" clip-path="url(#a)" stroke="#f98e09"/>
  <g stroke="#bc3754">
   <path transform="translate(90.478 162.65)" d="m125.85 99.666 3.841 2.205" clip-path="url(#a)"/>
   <path transform="translate(90.478 162.65)" d="m133.53 99.666 3.841 2.205" clip-path="url(#a)"/>
   <path transform="translate(90.478 162.65)" d="m141.21 99.666 3.841 2.205" clip-path="url(#a)"/>
   <path transform="translate(90.478 162.65)" d="m125.85 86.436 3.841 2.205" clip-path="url(#a)"/>
   <path transform="translate(90.478 162.65)" d="m133.53 86.436 3.841 2.205" clip-path="url(#a)"/>
   <path transform="translate(90.478 162.65)" d="m141.21 86.436 3.841 2.205" clip-path="url(#a)"/>
   <path transform="translate(90.478 162.65)" d="m125.85 73.206 3.841 2.205" clip-path="url(#a)"/>
   <path transform="translate(90.478 162.65)" d="m133.53 73.206 3.841 2.205" clip-path="url(#a)"/>
   <path transform="translate(90.478 162.65)" d="m141.21 73.206 3.841 2.205" clip-path="url(#a)"/>
   <path transform="translate(90.478 162.65)" d="m129.69 93.051 3.841 2.205" clip-path="url(#a)"/>
   <path transform="translate(90.478 162.65)" d="m137.37 93.051 3.841 2.205" clip-path="url(#a)"/>
   <path transform="translate(90.478 162.65)" d="m145.06 93.051 3.841 2.205" clip-path="url(#a)"/>
   <path transform="translate(90.478 162.65)" d="m129.69 79.821 3.841 2.205" clip-path="url(#a)"/>
   <path transform="translate(90.478 162.65)" d="m137.37 79.821 3.841 2.205" clip-path="url(#a)"/>
   <path transform="translate(90.478 162.65)" d="m145.06 79.821 3.841 2.205" clip-path="url(#a)"/>
  </g>
  <g stroke="#f98e09">
   <path transform="translate(90.478 162.65)" d="m129.69 93.051-3.841 2.205" clip-path="url(#a)"/>
   <path transform="translate(90.478 162.65)" d="m137.37 93.051-3.841 2.205" clip-path="url(#a)"/>
   <path transform="translate(90.478 162.65)" d="m145.06 93.051-3.841 2.205" clip-path="url(#a)"/>
   <path transform="translate(90.478 162.65)" d="m129.69 79.821-3.841 2.205" clip-path="url(#a)"/>
   <path transform="translate(90.478 162.65)" d="m137.37 79.821-3.841 2.205" clip-path="url(#a)"/>
   <path transform="translate(90.478 162.65)" d="m145.06 79.821-3.841 2.205" clip-path="url(#a)"/>
  </g>
 </g>
 <g transform="matrix(2.2058 0 0 2.2058 -137.23 -442.64)" fill="none" stroke-linecap="round" stroke-linejoin="round" stroke-width=".53041">
  <path transform="translate(90.478 162.65)" d="m125.85 99.666v-4.41" clip-path="url(#b)" stroke="#57106e"/>
  <path transform="translate(90.478 162.65)" d="m133.53 99.666-3.841 2.205" clip-path="url(#b)" stroke="#f98e09"/>
  <path transform="translate(90.478 162.65)" d="m133.53 99.666v-4.41" clip-path="url(#b)" stroke="#57106e"/>
  <path transform="translate(90.478 162.65)" d="m141.21 99.666-3.841 2.205" clip-path="url(#b)" stroke="#f98e09"/>
  <path transform="translate(90.478 162.65)" d="m141.21 99.666v-4.41" clip-path="url(#b)" stroke="#57106e"/>
  <path transform="translate(90.478 162.65)" d="m148.9 99.666-3.841 2.205" clip-path="url(#b)" stroke="#f98e09"/>
  <g stroke="#57106e">
   <path transform="translate(90.478 162.65)" d="m148.9 99.666v-4.41" clip-path="url(#b)"/>
   <path transform="translate(90.478 162.65)" d="m125.85 86.436v-4.41" clip-path="url(#b)"/>
   <path transform="translate(90.478 162.65)" d="m129.69 93.051v-4.41" clip-path="url(#b)"/>
  </g>
  <path transform="translate(90.478 162.65)" d="m133.53 86.436-3.841 2.205" clip-path="url(#b)" stroke="#f98e09"/>
  <path transform="translate(90.478 162.65)" d="m133.53 86.436v-4.41" clip-path="url(#b)" stroke="#57106e"/>
  <path transform="translate(90.478 162.65)" d="m137.37 93.051v-4.41" clip-path="url(#b)" stroke="#57106e"/>
  <path transform="translate(90.478 162.65)" d="m141.21 86.436-3.841 2.205" clip-path="url(#b)" stroke="#f98e09"/>
  <path transform="translate(90.478 162.65)" d="m141.21 86.436v-4.41" clip-path="url(#b)" stroke="#57106e"/>
  <path transform="translate(90.478 162.65)" d="m145.06 93.051v-4.41" clip-path="url(#b)" stroke="#57106e"/>
  <path transform="translate(90.478 162.65)" d="m148.9 86.436-3.841 2.205" clip-path="url(#b)" stroke="#f98e09"/>
  <path transform="translate(90.478 162.65)" d="m148.9 86.436v-4.41" clip-path="url(#b)" stroke="#57106e"/>
  <path transform="translate(90.478 162.65)" d="m129.69 79.821v-4.41" clip-path="url(#b)" stroke="#57106e"/>
  <path transform="translate(90.478 162.65)" d="m133.53 73.206-3.841 2.205" clip-path="url(#b)" stroke="#f98e09"/>
  <path transform="translate(90.478 162.65)" d="m137.37 79.821v-4.41" clip-path="url(#b)" stroke="#57106e"/>
  <path transform="translate(90.478 162.65)" d="m141.21 73.206-3.841 2.205" clip-path="url(#b)" stroke="#f98e09"/>
  <path transform="translate(90.478 162.65)" d="m145.06 79.821v-4.41" clip-path="url(#b)" stroke="#57106e"/>
  <g stroke="#bc3754">
   <path transform="translate(90.478 162.65)" d="m125.85 99.666 3.841 2.205" clip-path="url(#b)"/>
   <path transform="translate(90.478 162.65)" d="m133.53 99.666 3.841 2.205" clip-path="url(#b)"/>
   <path transform="translate(90.478 162.65)" d="m141.21 99.666 3.841 2.205" clip-path="url(#b)"/>
   <path transform="translate(90.478 162.65)" d="m125.85 86.436 3.841 2.205" clip-path="url(#b)"/>
   <path transform="translate(90.478 162.65)" d="m133.53 86.436 3.841 2.205" clip-path="url(#b)"/>
   <path transform="translate(90.478 162.65)" d="m141.21 86.436 3.841 2.205" clip-path="url(#b)"/>
   <path transform="translate(90.478 162.65)" d="m133.53 73.206 3.841 2.205" clip-path="url(#b)"/>
   <path transform="translate(90.478 162.65)" d="m141.21 73.206 3.841 2.205" clip-path="url(#b)"/>
   <path transform="translate(90.478 162.65)" d="m129.69 93.051 3.841 2.205" clip-path="url(#b)"/>
   <path transform="translate(90.478 162.65)" d="m137.37 93.051 3.841 2.205" clip-path="url(#b)"/>
   <path transform="translate(90.478 162.65)" d="m145.06 93.051 3.841 2.205" clip-path="url(#b)"/>
   <path transform="translate(90.478 162.65)" d="m129.69 79.821 3.841 2.205" clip-path="url(#b)"/>
   <path transform="translate(90.478 162.65)" d="m137.37 79.821 3.841 2.205" clip-path="url(#b)"/>
   <path transform="translate(90.478 162.65)" d="m145.06 79.821 3.841 2.205" clip-path="url(#b)"/>
  </g>
  <g stroke="#f98e09">
   <path transform="translate(90.478 162.65)" d="m129.69 93.051-3.841 2.205" clip-path="url(#b)"/>
   <path transform="translate(90.478 162.65)" d="m137.37 93.051-3.841 2.205" clip-path="url(#b)"/>
   <path transform="translate(90.478 162.65)" d="m145.06 93.051-3.841 2.205" clip-path="url(#b)"/>
   <path transform="translate(90.478 162.65)" d="m129.69 79.821-3.841 2.205" clip-path="url(#b)"/>
   <path transform="translate(90.478 162.65)" d="m137.37 79.821-3.841 2.205" clip-path="url(#b)"/>
   <path transform="translate(90.478 162.65)" d="m145.06 79.821-3.841 2.205" clip-path="url(#b)"/>
  </g>
 </g>
 <g transform="matrix(.50215 0 0 .50215 -74.193 131.25)">
  <g fill="none" stroke-linecap="round" stroke-linejoin="round" stroke-width="1.5">
   <path transform="translate(71.315 27.454)" d="m194.99 108.18-19.205 11.025" clip-path="url(#c)" stroke="#f98e09"/>
   <path transform="translate(71.315 27.454)" d="m194.99 108.18v-22.05" clip-path="url(#c)" stroke="#57106e"/>
   <path transform="translate(71.315 27.454)" d="m214.19 141.26v-22.05" clip-path="url(#c)" stroke="#57106e"/>
   <path transform="translate(71.315 27.454)" d="m233.4 108.18-19.205 11.025" clip-path="url(#c)" stroke="#f98e09"/>
   <path transform="translate(71.315 27.454)" d="m233.4 108.18v-22.05" clip-path="url(#c)" stroke="#57106e"/>
   <path transform="translate(71.315 27.454)" d="m214.19 75.106v-22.05" clip-path="url(#c)" stroke="#57106e"/>
   <g stroke="#bc3754">
    <path transform="translate(71.315 27.454)" d="m194.99 108.18 19.205 11.025" clip-path="url(#c)"/>
    <path transform="translate(71.315 27.454)" d="m233.4 108.18 19.205 11.025" clip-path="url(#c)"/>
    <path transform="translate(71.315 27.454)" d="m175.78 75.106 19.205 11.025" clip-path="url(#c)"/>
    <path transform="translate(71.315 27.454)" d="m214.19 75.106 19.205 11.025" clip-path="url(#c)"/>
   </g>
   <path transform="translate(71.315 27.454)" d="m214.19 75.106-19.205 11.025" clip-path="url(#c)" stroke="#f98e09"/>
   <path transform="translate(71.315 27.454)" d="m252.6 75.106-19.205 11.025" clip-path="url(#c)" stroke="#f98e09"/>
  </g>
  <g>
   <path transform="translate(71.315 27.454)" d="m183.04 115.04 3.3949-5.1272 2.6115 4.8573z" clip-path="url(#c)" fill="#f98e09" stroke="#f98e09"/>
   <path transform="translate(71.315 27.454)" d="m194.99 94.377 2.6887 5.5566h-2.6887-2.6887z" clip-path="url(#c)" fill="#57106e" stroke="#57106e"/>
   <path transform="translate(71.315 27.454)" d="m214.19 127.45 2.6887 5.5566h-2.6887-2.6887z" clip-path="url(#c)" fill="#57106e" stroke="#57106e"/>
   <path transform="translate(71.315 27.454)" d="m221.44 115.04 3.3949-5.1272 1.3057 2.4287 1.3057 2.4287z" clip-path="url(#c)" fill="#f98e09" stroke="#f98e09"/>
   <path transform="translate(71.315 27.454)" d="m233.4 94.377 2.6887 5.5566h-2.6887-2.6887z" clip-path="url(#c)" fill="#57106e" stroke="#57106e"/>
   <path transform="translate(71.315 27.454)" d="m214.19 61.302 2.6887 5.5566h-2.6887-2.6887z" clip-path="url(#c)" fill="#57106e" stroke="#57106e"/>
  </g>
  <g fill="#bc3754" stroke="#bc3754">
   <path transform="translate(71.315 27.454)" d="m206.94 115.04-6.0064-0.26985 2.6115-4.8573z" clip-path="url(#c)"/>
   <path transform="translate(71.315 27.454)" d="m245.35 115.04-6.0064-0.26985 1.3057-2.4287 1.3057-2.4287z" clip-path="url(#c)"/>
   <path transform="translate(71.315 27.454)" d="m187.74 81.967-6.0064-0.26985 1.3057-2.4287c1.3057-2.4287 1.3057-2.4287 1.3057-2.4287z" clip-path="url(#c)"/>
   <path transform="translate(71.315 27.454)" d="m226.15 81.967-6.0064-0.26985 1.3057-2.4287 1.3057-2.4287z" clip-path="url(#c)"/>
  </g>
  <path transform="translate(71.315 27.454)" d="m202.24 81.967 3.3949-5.1272 2.6115 4.8573z" clip-path="url(#c)" fill="#f98e09" stroke="#f98e09"/>
  <path transform="translate(71.315 27.454)" d="m240.65 81.967 3.3949-5.1272 1.3057 2.4287c1.3057 2.4287 1.3057 2.4287 1.3057 2.4287z" clip-path="url(#c)" fill="#f98e09" stroke="#f98e09"/>
 </g>
 <g transform="matrix(.78335 0 0 .77693 21.717 11.758)">
  <g fill="none" stroke-linecap="round" stroke-linejoin="round" stroke-width="1.5">
   <path transform="translate(71.315 27.454)" d="m194.99 108.18-19.205 11.025" clip-path="url(#d)" opacity=".29516" stroke="#f98e09"/>
   <path transform="translate(71.315 27.454)" d="m194.99 108.18v-22.05" clip-path="url(#d)" stroke="#57106e"/>
   <path transform="translate(71.315 27.454)" d="m214.19 141.26v-22.05" clip-path="url(#d)" opacity=".29516" stroke="#57106e"/>
   <path transform="translate(71.315 27.454)" d="m233.4 108.18-19.205 11.025" clip-path="url(#d)" stroke="#f98e09"/>
   <path transform="translate(71.315 27.454)" d="m233.4 108.18v-22.05" clip-path="url(#d)" stroke="#57106e"/>
   <path transform="translate(71.315 27.454)" d="m214.19 75.106v-22.05" clip-path="url(#d)" opacity=".29516" stroke="#57106e"/>
   <g stroke="#bc3754">
    <path transform="translate(71.315 27.454)" d="m194.99 108.18 19.205 11.025" clip-path="url(#d)"/>
    <path transform="translate(71.315 27.454)" d="m233.4 108.18 19.205 11.025" clip-path="url(#d)" opacity=".29516"/>
    <path transform="translate(71.315 27.454)" d="m175.78 75.106 19.205 11.025" clip-path="url(#d)" opacity=".29516" style="mix-blend-mode:normal"/>
    <path transform="translate(71.315 27.454)" d="m214.19 75.106 19.205 11.025" clip-path="url(#d)"/>
   </g>
   <path transform="translate(71.315 27.454)" d="m214.19 75.106-19.205 11.025" clip-path="url(#d)" stroke="#f98e09"/>
   <path transform="translate(71.315 27.454)" d="m252.6 75.106-19.205 11.025" clip-path="url(#d)" opacity=".29516" stroke="#f98e09"/>
  </g>
  <g>
   <path transform="translate(71.315 27.454)" d="m194.99 94.377 2.6887 5.5566h-2.6887-2.6887z" clip-path="url(#d)" fill="#57106e" stroke="#57106e"/>
   <path transform="translate(71.315 27.454)" d="m221.44 115.04 3.3949-5.1272 1.3057 2.4287 1.3057 2.4287z" clip-path="url(#d)" fill="#f98e09" stroke="#f98e09"/>
   <path transform="matrix(1 0 0 -1 71.315 221.12)" d="m233.4 94.377 2.6887 5.5566h-2.6887-2.6887z" clip-path="url(#d)" fill="#57106e" stroke="#57106e"/>
   <path transform="rotate(180 239.6 126.92)" d="m206.94 115.04-6.0064-0.26985 2.6115-4.8573z" clip-path="url(#d)" fill="#bc3754" stroke="#bc3754"/>
   <path transform="translate(71.315 27.454)" d="m226.15 81.967-6.0064-0.26985 1.3057-2.4287 1.3057-2.4287z" clip-path="url(#d)" fill="#bc3754" stroke="#bc3754"/>
   <path transform="rotate(180 240.74 94.168)" d="m202.24 81.967 3.3949-5.1272 2.6115 4.8573z" clip-path="url(#d)" fill="#f98e09" stroke="#f98e09"/>
  </g>
 </g>
 <g transform="translate(328.52 37.285)" ns10:alignment="middle center" ns10:inkscapeversion="1.2" ns10:jacobian_sqrt="1.0" ns10:pdfconverter="inkscape" ns10:preamble="/Users/tom/Library/Application Support/org.inkscape.Inkscape/config/inkscape/extensions/textext/default_packages.tex" ns10:scale="1.0" ns10:stroke-to-path="0" ns10:texconverter="pdflatex" ns10:text="$$H = \\sum_{\\mathrm{bonds}} J^\\alpha K_{ij}$$" ns10:version="1.8.1">
  <defs></defs>
  <g>
   <g transform="translate(-269.91 -137.26)">
    <g transform="translate(269.52 146.72)">
     <path d="m7.6094-6.0469c0.09375-0.35938 0.10938-0.45312 0.82812-0.45312 0.26562 0 0.34375 0 0.34375-0.20312 0-0.10938-0.10938-0.10938-0.14062-0.10938-0.28125 0-1 0.03125-1.2812 0.03125s-0.98438-0.03125-1.2812-0.03125c-0.078125 0-0.1875 0-0.1875 0.20312 0 0.10938 0.09375 0.10938 0.28125 0.10938 0.015625 0 0.20312 0 0.375 0.015625 0.1875 0.03125 0.26562 0.03125 0.26562 0.17188 0 0.03125 0 0.046875-0.03125 0.1875l-0.59375 2.4219h-3.0469l0.59375-2.3438c0.078125-0.35938 0.10938-0.45312 0.82812-0.45312 0.26562 0 0.34375 0 0.34375-0.20312 0-0.10938-0.10938-0.10938-0.14062-0.10938-0.28125 0-1 0.03125-1.2812 0.03125s-0.98438-0.03125-1.2812-0.03125c-0.078125 0-0.1875 0-0.1875 0.20312 0 0.10938 0.09375 0.10938 0.28125 0.10938 0.015625 0 0.20312 0 0.375 0.015625 0.17188 0.03125 0.26562 0.03125 0.26562 0.17188 0 0.03125 0 0.0625-0.03125 0.1875l-1.3438 5.3438c-0.09375 0.39062-0.10938 0.46875-0.90625 0.46875-0.17188 0-0.26562 0-0.26562 0.20312 0 0.10938 0.125 0.10938 0.14062 0.10938 0.28125 0 0.98438-0.03125 1.2656-0.03125 0.20312 0 0.42188 0.015625 0.64062 0.015625s0.4375 0.015625 0.64062 0.015625c0.078125 0 0.20312 0 0.20312-0.20312 0-0.10938-0.09375-0.10938-0.28125-0.10938-0.375 0-0.64062 0-0.64062-0.17188 0-0.0625 0.015625-0.10938 0.015625-0.17188l0.6875-2.7344h3.0312c-0.40625 1.6562-0.64062 2.6094-0.6875 2.75-0.09375 0.32812-0.28125 0.32812-0.90625 0.32812-0.14062 0-0.23438 0-0.23438 0.20312 0 0.10938 0.125 0.10938 0.14062 0.10938 0.28125 0 0.98438-0.03125 1.2656-0.03125 0.20312 0 0.42188 0.015625 0.64062 0.015625s0.4375 0.015625 0.64062 0.015625c0.078125 0 0.20312 0 0.20312-0.20312 0-0.10938-0.09375-0.10938-0.28125-0.10938-0.35938 0-0.64062 0-0.64062-0.17188 0-0.0625 0.015625-0.10938 0.03125-0.17188z"/>
    </g>
    <g transform="translate(281.38 146.72)">
     <path id="i" d="m6.8438-3.2656c0.15625 0 0.34375 0 0.34375-0.1875 0-0.20312-0.1875-0.20312-0.32812-0.20312h-5.9688c-0.14062 0-0.32812 0-0.32812 0.20312 0 0.1875 0.1875 0.1875 0.32812 0.1875zm0.015625 1.9375c0.14062 0 0.32812 0 0.32812-0.20312 0-0.1875-0.1875-0.1875-0.34375-0.1875h-5.9531c-0.14062 0-0.32812 0-0.32812 0.1875 0 0.20312 0.1875 0.20312 0.32812 0.20312z"/>
    </g>
    <g transform="translate(294.97 137.26)">
     <path d="m12.625 13.953 1.2031-3.1875h-0.25c-0.39062 1.0312-1.4531 1.7188-2.5938 2.0156-0.20312 0.04687-1.1875 0.3125-3.0938 0.3125h-6.0156c5.0781-5.9531 5.0781-5.9531 5.0781-5.9531 0.0625-0.078125 0.078125-0.10938 0.078125-0.15625 0-0.03125 0-0.0625-0.0625-0.15625l-4.6406-6.3438h5.4531c1.3438 0 2.25 0.14062 2.3438 0.15625 0.53125 0.078125 1.4062 0.25 2.1875 0.75 0.25 0.15625 0.92188 0.60938 1.2656 1.4062h0.25l-1.2031-2.7969h-11.781c-0.23438 0-0.25 0.015625-0.28125 0.0625v0.34375c5.2656 7.2031 5.2656 7.2031 5.2656 7.2031-5.1562 6.0625-5.1562 6.0625-5.1562 6.0625-0.10938 0.10938-0.10938 0.17188-0.10938 0.17188 0 0.10938 0.09375 0.10938 0.28125 0.10938z"/>
    </g>
    <g transform="translate(291.89 158.7)">
     <path d="m1.3906-4.8438-1.0469 0.078125v0.25c0.46875 0 0.51562 0.0625 0.51562 0.40625v4.1094h0.23438l0.25-0.42188c0.26562 0.34375 0.65625 0.48438 1.0156 0.48438 0.92188 0 1.7031-0.6875 1.7031-1.5625 0-0.85938-0.70312-1.5781-1.625-1.5781-0.42188 0-0.79688 0.17188-1.0469 0.42188zm0.03125 2.5156c0.1875-0.32812 0.5625-0.54688 0.98438-0.54688 0.39062 0 0.67188 0.21875 0.8125 0.42188s0.21875 0.48438 0.21875 0.9375c0 0.15625 0 0.6875-0.28125 1.0156-0.28125 0.3125-0.625 0.375-0.82812 0.375-0.5625 0-0.84375-0.4375-0.90625-0.57812z"/>
    </g>
   </g>
   <g id="j" transform="translate(-269.91 -137.26)">
    <g transform="translate(296.51 158.7)">
     <path d="m3.6875-1.4844c0-0.875-0.75-1.625-1.7031-1.625-0.96875 0-1.7188 0.75-1.7188 1.625 0 0.85938 0.76562 1.5469 1.7188 1.5469 0.9375 0 1.7031-0.6875 1.7031-1.5469zm-1.7031 1.3281c-0.26562 0-0.64062-0.078125-0.875-0.42188-0.1875-0.28125-0.20312-0.64062-0.20312-0.96875 0-0.29688 0-0.71875 0.25-1.0156 0.17188-0.20312 0.46875-0.34375 0.82812-0.34375 0.40625 0 0.70312 0.1875 0.85938 0.40625 0.1875 0.26562 0.20312 0.625 0.20312 0.95312s-0.015625 0.70312-0.21875 0.98438c-0.1875 0.26562-0.5 0.40625-0.84375 0.40625z"/>
    </g>
    <g transform="translate(300.48 158.7)">
     <path d="m3.5938-2.1094c0-0.60938-0.29688-0.96875-1.0469-0.96875-0.57812 0-0.9375 0.3125-1.1406 0.6875v-0.6875l-1.0312 0.078125v0.25c0.46875 0 0.53125 0.046875 0.53125 0.39062v1.8125c0 0.29688-0.078125 0.29688-0.53125 0.29688v0.25c0.015625 0 0.5-0.03125 0.79688-0.03125 0.25 0 0.73438 0.03125 0.79688 0.03125v-0.25c-0.45312 0-0.51562 0-0.51562-0.29688v-1.2656c0-0.71875 0.57812-1.0625 1.0312-1.0625 0.48438 0 0.54688 0.375 0.54688 0.73438v1.5938c0 0.29688-0.0625 0.29688-0.51562 0.29688v0.25c0.015625 0 0.5-0.03125 0.79688-0.03125 0.25 0 0.73438 0.03125 0.79688 0.03125v-0.25c-0.45312 0-0.51562 0-0.51562-0.29688z"/>
    </g>
    <g transform="translate(304.88 158.7)">
     <path d="m2.4844-4.7656v0.25c0.46875 0 0.51562 0.0625 0.51562 0.39062v1.4531c-0.25-0.25-0.59375-0.40625-0.96875-0.40625-0.9375 0-1.7031 0.70312-1.7031 1.5781 0 0.875 0.73438 1.5625 1.6094 1.5625 0.57812 0 0.92188-0.29688 1.0312-0.42188v0.42188l1.0781-0.0625v-0.25c-0.46875 0-0.51562-0.046875-0.51562-0.39062v-4.2031zm0.48438 4.0312c-0.17188 0.32812-0.53125 0.60938-0.98438 0.60938-0.39062 0-0.67188-0.23438-0.8125-0.4375s-0.21875-0.48438-0.21875-0.92188c0-0.17188 0-0.6875 0.28125-1.0156 0.28125-0.3125 0.625-0.375 0.82812-0.375 0.32812 0 0.64062 0.15625 0.82812 0.40625 0.078125 0.10938 0.078125 0.10938 0.078125 0.25z"/>
    </g>
    <g transform="translate(309.28 158.7)">
     <path id="k" d="m2.6406-2.9219c0-0.125 0-0.1875-0.09375-0.1875-0.03125 0-0.046875 0-0.14062 0.078125-0.015625 0.015625-0.078125 0.078125-0.125 0.10938-0.21875-0.14062-0.46875-0.1875-0.73438-0.1875-1 0-1.2344 0.53125-1.2344 0.875 0 0.21875 0.09375 0.40625 0.26562 0.54688 0.26562 0.21875 0.53125 0.26562 0.96875 0.34375 0.34375 0.0625 0.90625 0.15625 0.90625 0.625 0 0.26562-0.1875 0.59375-0.85938 0.59375s-0.90625-0.4375-1.0312-0.90625c-0.03125-0.09375-0.03125-0.125-0.125-0.125-0.125 0-0.125 0.046875-0.125 0.1875v0.85938c0 0.10938 0 0.17188 0.09375 0.17188 0.0625 0 0.20312-0.14062 0.34375-0.29688 0.29688 0.29688 0.67188 0.29688 0.84375 0.29688 0.90625 0 1.25-0.48438 1.25-0.96875 0-0.26562-0.125-0.48438-0.3125-0.64062-0.26562-0.25-0.57812-0.3125-0.82812-0.34375-0.54688-0.10938-1-0.1875-1-0.5625 0-0.21875 0.1875-0.48438 0.84375-0.48438 0.8125 0 0.84375 0.5625 0.85938 0.76562 0 0.078125 0.09375 0.078125 0.10938 0.078125 0.125 0 0.125-0.046875 0.125-0.1875z"/>
    </g>
   </g>
   <g id="l" transform="translate(-269.91 -137.26)">
    <g transform="translate(314.09 146.72)">
     <path d="m5.3906-6.0781c0.078125-0.32812 0.10938-0.42188 0.65625-0.42188 0.15625 0 0.26562 0 0.26562-0.1875 0-0.09375-0.0625-0.125-0.14062-0.125-0.25 0-0.85938 0.03125-1.1094 0.03125-0.32812 0-1.1406-0.03125-1.4688-0.03125-0.078125 0-0.20312 0-0.20312 0.20312 0 0.10938 0.078125 0.10938 0.34375 0.10938 0.21875 0 0.32812 0 0.57812 0.015625 0.23438 0.03125 0.29688 0.0625 0.29688 0.20312 0 0.0625-0.015625 0.125-0.03125 0.20312l-1.1562 4.5781c-0.23438 0.96875-0.90625 1.5-1.4219 1.5-0.26562 0-0.79688-0.09375-0.95312-0.625 0.03125 0.015625 0.09375 0.015625 0.125 0.015625 0.39062 0 0.64062-0.34375 0.64062-0.64062 0-0.3125-0.26562-0.42188-0.4375-0.42188s-0.67188 0.125-0.67188 0.79688c0 0.625 0.53125 1.0938 1.3281 1.0938 0.90625 0 1.9531-0.65625 2.2031-1.6406z"/>
    </g>
   </g>
   <g transform="translate(-269.91 -137.26)">
    <g transform="translate(320.58 142.61)">
     <path d="m3.8125-0.98438c0.64062-0.65625 0.89062-1.5938 0.89062-1.6562 0-0.09375-0.078125-0.09375-0.10938-0.09375-0.09375 0-0.09375 0.015625-0.14062 0.17188-0.125 0.45312-0.35938 0.89062-0.65625 1.2656 0-0.10938-0.015625-0.57812-0.03125-0.64062-0.10938-0.6875-0.625-1.1406-1.3281-1.1406-1.0156 0-2 0.95312-2 1.9375 0 0.64062 0.46875 1.2031 1.2656 1.2031 0.64062 0 1.2188-0.28125 1.6094-0.57812 0.17188 0.5 0.51562 0.57812 0.73438 0.57812 0.40625 0 0.65625-0.32812 0.65625-0.48438 0-0.078125-0.09375-0.078125-0.125-0.078125-0.09375 0-0.10938 0.03125-0.125 0.0625-0.09375 0.26562-0.3125 0.3125-0.39062 0.3125-0.09375 0-0.21875 0-0.25-0.85938zm-0.54688 0.23438c-0.6875 0.5625-1.2656 0.625-1.5312 0.625-0.46875 0-0.71875-0.3125-0.71875-0.78125 0-0.1875 0.09375-0.95312 0.45312-1.4375 0.32812-0.42188 0.71875-0.53125 0.96875-0.53125 0.54688 0 0.71875 0.53125 0.76562 0.96875 0.046875 0.29688 0.03125 0.79688 0.0625 1.1562z"/>
    </g>
    <g transform="translate(326.25 146.72)">
     <path id="m" d="m5.0781-4.0312c-0.015625-0.03125-0.046875-0.10938-0.046875-0.14062 0 0 0.17188-0.14062 0.28125-0.21875l1.75-1.3438c0.9375-0.70312 1.3281-0.73438 1.625-0.76562 0.078125-0.015625 0.17188-0.015625 0.17188-0.20312 0-0.03125-0.03125-0.10938-0.10938-0.10938-0.21875 0-0.46875 0.03125-0.70312 0.03125-0.35938 0-0.75-0.03125-1.1094-0.03125-0.0625 0-0.1875 0-0.1875 0.20312 0 0.0625 0.046875 0.09375 0.125 0.10938 0.21875 0.015625 0.29688 0.0625 0.29688 0.20312 0 0.1875-0.29688 0.42188-0.35938 0.46875l-3.875 2.9844 0.79688-3.2031c0.078125-0.35938 0.10938-0.45312 0.82812-0.45312 0.25 0 0.34375 0 0.34375-0.20312 0-0.078125-0.078125-0.10938-0.14062-0.10938-0.28125 0-1 0.03125-1.2812 0.03125s-0.98438-0.03125-1.2812-0.03125c-0.0625 0-0.20312 0-0.20312 0.1875 0 0.125 0.09375 0.125 0.29688 0.125 0.125 0 0.3125 0.015625 0.42188 0.015625 0.15625 0.03125 0.21875 0.046875 0.21875 0.17188 0 0.03125 0 0.0625-0.03125 0.1875l-1.3438 5.3438c-0.09375 0.39062-0.10938 0.46875-0.90625 0.46875-0.17188 0-0.28125 0-0.28125 0.1875 0 0.125 0.125 0.125 0.15625 0.125 0.28125 0 0.98438-0.03125 1.2656-0.03125 0.20312 0 0.42188 0.015625 0.64062 0.015625s0.4375 0.015625 0.64062 0.015625c0.078125 0 0.20312 0 0.20312-0.20312 0-0.10938-0.09375-0.10938-0.28125-0.10938-0.375 0-0.64062 0-0.64062-0.17188 0-0.078125 0.046875-0.29688 0.078125-0.4375 0.14062-0.53125 0.28125-1.0469 0.40625-1.5781l1.4844-1.1562 1.1562 2.6875c0.125 0.26562 0.125 0.29688 0.125 0.34375 0 0.3125-0.4375 0.3125-0.53125 0.3125-0.10938 0-0.21875 0-0.21875 0.20312 0 0.10938 0.125 0.10938 0.14062 0.10938 0.40625 0 0.82812-0.03125 1.2188-0.03125 0.21875 0 0.76562 0.03125 0.98438 0.03125 0.046875 0 0.17188 0 0.17188-0.20312 0-0.10938-0.10938-0.10938-0.20312-0.10938-0.40625 0-0.53125-0.09375-0.6875-0.4375z"/>
    </g>
    <g transform="translate(334.72 148.21)">
     <path d="m2.2656-4.3594c0-0.10938-0.09375-0.26562-0.28125-0.26562s-0.39062 0.1875-0.39062 0.39062c0 0.10938 0.078125 0.26562 0.28125 0.26562 0.1875 0 0.39062-0.20312 0.39062-0.39062zm-1.4219 3.5469c-0.03125 0.09375-0.0625 0.17188-0.0625 0.29688 0 0.32812 0.26562 0.57812 0.65625 0.57812 0.6875 0 1-0.95312 1-1.0625 0-0.09375-0.09375-0.09375-0.10938-0.09375-0.09375 0-0.10938 0.046875-0.14062 0.125-0.15625 0.5625-0.45312 0.84375-0.73438 0.84375-0.14062 0-0.17188-0.09375-0.17188-0.25s0.046875-0.28125 0.10938-0.4375c0.078125-0.1875 0.15625-0.375 0.21875-0.5625 0.0625-0.17188 0.32812-0.79688 0.34375-0.89062 0.03125-0.0625 0.046875-0.14062 0.046875-0.21875 0-0.32812-0.28125-0.59375-0.65625-0.59375-0.70312 0-1.0156 0.95312-1.0156 1.0781 0 0.078125 0.09375 0.078125 0.125 0.078125 0.09375 0 0.09375-0.03125 0.125-0.10938 0.17188-0.59375 0.48438-0.84375 0.73438-0.84375 0.10938 0 0.17188 0.046875 0.17188 0.23438 0 0.17188-0.03125 0.26562-0.20312 0.70312z"/>
    </g>
    <g transform="translate(337.53 148.21)">
     <path d="m3.0625-4.3594c0-0.10938-0.09375-0.26562-0.28125-0.26562-0.20312 0-0.39062 0.20312-0.39062 0.39062 0 0.10938 0.078125 0.26562 0.28125 0.26562 0.1875 0 0.39062-0.1875 0.39062-0.39062zm-1.4844 4.7031c-0.10938 0.48438-0.48438 0.875-0.89062 0.875-0.09375 0-0.17188 0-0.25-0.03125 0.17188-0.09375 0.23438-0.25 0.23438-0.35938 0-0.17188-0.14062-0.25-0.28125-0.25-0.20312 0-0.39062 0.1875-0.39062 0.40625 0 0.26562 0.26562 0.4375 0.6875 0.4375s1.2344-0.25 1.4531-1.0938l0.625-2.5c0.015625-0.078125 0.03125-0.14062 0.03125-0.25 0-0.375-0.32812-0.65625-0.73438-0.65625-0.78125 0-1.2188 0.96875-1.2188 1.0781 0 0.078125 0.09375 0.078125 0.10938 0.078125 0.078125 0 0.09375-0.015625 0.14062-0.125 0.17188-0.40625 0.53125-0.82812 0.9375-0.82812 0.17188 0 0.23438 0.10938 0.23438 0.34375 0 0.078125 0 0.17188-0.015625 0.20312z"/>
    </g>
   </g>
  </g>
 </g>
 <g transform="translate(-.27206 .51003)" stroke="#f98e09">
  <path transform="matrix(.43487 .25107 -.25107 .43487 79.509 101.02)" d="m194.99 108.18-19.205 11.025" clip-path="url(#g)" fill="none" stroke-linecap="round" stroke-linejoin="round" stroke-width="1.5"/>
  <path transform="matrix(.43487 .25107 -.25107 .43487 79.509 101.02)" d="m183.04 115.04 3.3949-5.1272 2.6115 4.8573z" clip-path="url(#g)" fill="#f98e09"/>
 </g>
 <g transform="translate(-.64714)" stroke="#57106e">
  <path transform="matrix(0 -.50215 .50215 0 66.539 310.1)" d="m214.19 141.26v-22.05" clip-path="url(#g)" fill="none" stroke-linecap="round" stroke-linejoin="round" stroke-width="1.5"/>
  <path transform="matrix(0 -.50215 .50215 0 66.539 310.1)" d="m214.19 127.45 2.6887 5.5566h-2.6887-2.6887z" clip-path="url(#g)" fill="#57106e"/>
 </g>
 <g stroke="#bc3754">
  <path transform="matrix(-.43487 .25107 -.25107 -.43487 248.83 190.53)" d="m194.99 108.18 19.205 11.025" clip-path="url(#g)" fill="none" stroke-linecap="round" stroke-linejoin="round" stroke-width="1.5"/>
  <path transform="matrix(-.43487 .25107 -.25107 -.43487 248.83 190.53)" d="m206.94 115.04-6.0064-0.26985 2.6115-4.8573z" clip-path="url(#g)" fill="#bc3754"/>
 </g>
 <g fill="#000000" font-size="9px" stroke-width="6.685">
  <text x="327.21384" y="30.871222" stroke-linejoin="round" xml:space="preserve"><tspan x="327.21384" y="30.871222" fill="#000000" stroke-width="6.685">The Hamiltonian</tspan></text>
  <text x="32.469551" y="69.977478" xml:space="preserve"><tspan x="32.469551" y="69.977478" stroke-width="6.685"/></text>
  <text x="202.69528" y="29.625715" xml:space="preserve"><tspan x="202.69528" y="29.625715" stroke-width="6.685">Plaquette Operators</tspan></text>
 </g>
 <g transform="matrix(.68762 0 0 .68762 -185.74 102.53)">
  <g fill="none" stroke-linecap="round" stroke-linejoin="round" stroke-width="1.5">
   <path transform="translate(71.315 27.454)" d="m194.99 108.18v-22.05" clip-path="url(#e)" stroke="#57106e"/>
   <path transform="translate(71.315 27.454)" d="m233.4 108.18-19.205 11.025" clip-path="url(#e)" stroke="#f98e09"/>
   <path transform="translate(71.315 27.454)" d="m233.4 108.18v-22.05" clip-path="url(#e)" stroke="#57106e"/>
   <path transform="translate(71.315 27.454)" d="m194.99 108.18 19.205 11.025" clip-path="url(#e)" stroke="#bc3754"/>
   <path transform="translate(71.315 27.454)" d="m214.19 75.106 19.205 11.025" clip-path="url(#e)" stroke="#bc3754"/>
   <path transform="translate(71.315 27.454)" d="m214.19 75.106-19.205 11.025" clip-path="url(#e)" stroke="#f98e09"/>
  </g>
  <g>
   <path transform="rotate(180 230.65 110.56)" d="m194.99 94.377 2.6887 5.5566h-2.6887-2.6887z" clip-path="url(#e)" fill="#57106e" stroke="#57106e"/>
   <path transform="rotate(180 260.26 126.79)" d="m221.44 115.04 3.3949-5.1272 1.3057 2.4287 1.3057 2.4287z" clip-path="url(#e)" fill="#f98e09" stroke="#f98e09"/>
   <path transform="translate(71.315 27.454)" d="m233.4 94.377 2.6887 5.5566h-2.6887-2.6887z" clip-path="url(#e)" fill="#57106e" stroke="#57106e"/>
   <path transform="translate(71.315 27.454)" d="m206.94 115.04-6.0064-0.26985 2.6115-4.8573z" clip-path="url(#e)" fill="#bc3754" stroke="#bc3754"/>
   <path transform="rotate(180 259.1 94.168)" d="m226.15 81.967-6.0064-0.26985 1.3057-2.4287 1.3057-2.4287z" clip-path="url(#e)" fill="#bc3754" stroke="#bc3754"/>
   <path transform="translate(71.315 27.454)" d="m202.24 81.967 3.3949-5.1272 2.6115 4.8573z" clip-path="url(#e)" fill="#f98e09" stroke="#f98e09"/>
  </g>
 </g>
 <text transform="scale(.75)" fill="#000000" stroke-width="8.9133" style="shape-inside:url(#rect1539);white-space:pre" xml:space="preserve"/>
 <g transform="translate(-1.1603)">
  <text x="80.457794" y="30.871222" fill="#000000" font-size="9px" stroke-width="6.685" xml:space="preserve"><tspan x="80.457794" y="30.871222" fill="#000000" stroke-width="6.685">Bond Operators</tspan></text>
  <g transform="matrix(1.1719 0 0 1.1326 -15.433 -57.953)">
   <path transform="translate(-77.118 16.55)" d="m214.19 75.106 19.205 11.025" clip-path="url(#h)" fill="none" stroke="#bc3754" stroke-linecap="round" stroke-linejoin="round" stroke-width="1.0416"/>
   <path transform="translate(-77.118 16.55)" d="m226.15 81.967-6.0064-0.26985 1.3057-2.4287 1.3057-2.4287z" clip-path="url(#h)" fill="#bc3754" stroke="#bc3754"/>
   <g stroke-linejoin="round">
    <g transform="matrix(1.1107 0 0 1.1107 -200.62 -60.525)">
     <g transform="translate(324.06 149.18)" stroke-linejoin="round">
      <path d="m3.0625-4.3594c0-0.10938-0.09375-0.26562-0.28125-0.26562-0.20312 0-0.39062 0.20312-0.39062 0.39062 0 0.10938 0.078125 0.26562 0.28125 0.26562 0.1875 0 0.39062-0.1875 0.39062-0.39062zm-1.4844 4.7031c-0.10938 0.48438-0.48438 0.875-0.89062 0.875-0.09375 0-0.17188 0-0.25-0.03125 0.17188-0.09375 0.23438-0.25 0.23438-0.35938 0-0.17188-0.14062-0.25-0.28125-0.25-0.20312 0-0.39062 0.1875-0.39062 0.40625 0 0.26562 0.26562 0.4375 0.6875 0.4375s1.2344-0.25 1.4531-1.0938l0.625-2.5c0.015625-0.078125 0.03125-0.14062 0.03125-0.25 0-0.375-0.32812-0.65625-0.73438-0.65625-0.78125 0-1.2188 0.96875-1.2188 1.0781 0 0.078125 0.09375 0.078125 0.10938 0.078125 0.078125 0 0.09375-0.015625 0.14062-0.125 0.17188-0.40625 0.53125-0.82812 0.9375-0.82812 0.17188 0 0.23438 0.10938 0.23438 0.34375 0 0.078125 0 0.17188-0.015625 0.20312z" stroke-linejoin="round"/>
     </g>
    </g>
    <g transform="matrix(1.5125 0 0 1.5125 -340.95 -134.89)">
     <g transform="translate(312.33 149.18)" stroke-linejoin="round">
      <path d="m2.2656-4.3594c0-0.10938-0.09375-0.26562-0.28125-0.26562s-0.39062 0.1875-0.39062 0.39062c0 0.10938 0.078125 0.26562 0.28125 0.26562 0.1875 0 0.39062-0.20312 0.39062-0.39062zm-1.4219 3.5469c-0.03125 0.09375-0.0625 0.17188-0.0625 0.29688 0 0.32812 0.26562 0.57812 0.65625 0.57812 0.6875 0 1-0.95312 1-1.0625 0-0.09375-0.09375-0.09375-0.10938-0.09375-0.09375 0-0.10938 0.046875-0.14062 0.125-0.15625 0.5625-0.45312 0.84375-0.73438 0.84375-0.14062 0-0.17188-0.09375-0.17188-0.25s0.046875-0.28125 0.10938-0.4375c0.078125-0.1875 0.15625-0.375 0.21875-0.5625 0.0625-0.17188 0.32812-0.79688 0.34375-0.89062 0.03125-0.0625 0.046875-0.14062 0.046875-0.21875 0-0.32812-0.28125-0.59375-0.65625-0.59375-0.70312 0-1.0156 0.95312-1.0156 1.0781 0 0.078125 0.09375 0.078125 0.125 0.078125 0.09375 0 0.09375-0.03125 0.125-0.10938 0.17188-0.59375 0.48438-0.84375 0.73438-0.84375 0.10938 0 0.17188 0.046875 0.17188 0.23438 0 0.17188-0.03125 0.26562-0.20312 0.70312z" stroke-linejoin="round"/>
     </g>
    </g>
    <g transform="matrix(1.827 0 0 1.827 -442.59 -163.84)" fill="#bc3754">
     <g transform="translate(324.42 142.61)" fill="#bc3754" stroke-linejoin="round">
      <path d="m3.8125-0.98438c0.64062-0.65625 0.89062-1.5938 0.89062-1.6562 0-0.09375-0.078125-0.09375-0.10938-0.09375-0.09375 0-0.09375 0.015625-0.14062 0.17188-0.125 0.45312-0.35938 0.89062-0.65625 1.2656 0-0.10938-0.015625-0.57812-0.03125-0.64062-0.10938-0.6875-0.625-1.1406-1.3281-1.1406-1.0156 0-2 0.95312-2 1.9375 0 0.64062 0.46875 1.2031 1.2656 1.2031 0.64062 0 1.2188-0.28125 1.6094-0.57812 0.17188 0.5 0.51562 0.57812 0.73438 0.57812 0.40625 0 0.65625-0.32812 0.65625-0.48438 0-0.078125-0.09375-0.078125-0.125-0.078125-0.09375 0-0.10938 0.03125-0.125 0.0625-0.09375 0.26562-0.3125 0.3125-0.39062 0.3125-0.09375 0-0.21875 0-0.25-0.85938zm-0.54688 0.23438c-0.6875 0.5625-1.2656 0.625-1.5312 0.625-0.46875 0-0.71875-0.3125-0.71875-0.78125 0-0.1875 0.09375-0.95312 0.45312-1.4375 0.32812-0.42188 0.71875-0.53125 0.96875-0.53125 0.54688 0 0.71875 0.53125 0.76562 0.96875 0.046875 0.29688 0.03125 0.79688 0.0625 1.1562z" fill="#bc3754" stroke-linejoin="round"/>
     </g>
    </g>
   </g>
  </g>
  <g transform="translate(81.337 37.286)" ns10:alignment="middle center" ns10:inkscapeversion="1.2" ns10:jacobian_sqrt="1.0" ns10:pdfconverter="inkscape" ns10:preamble="/Users/tom/Library/Application Support/org.inkscape.Inkscape/config/inkscape/extensions/textext/default_packages.tex" ns10:scale="1.0" ns10:stroke-to-path="0" ns10:texconverter="pdflatex" ns10:text="$$k_{ij} = \\sigma_i^\\alpha \\sigma_j^\\alpha$$\n" ns10:version="1.8.1">
   <defs></defs>
   <g>
    <g transform="translate(-281.7 -139.53)">
     <g transform="translate(281.15 146.72)">
      <path id="n" d="m2.8594-6.8125s0-0.10938-0.125-0.10938c-0.23438 0-0.95312 0.078125-1.2188 0.10938-0.078125 0-0.1875 0.015625-0.1875 0.1875 0 0.125 0.09375 0.125 0.23438 0.125 0.48438 0 0.5 0.0625 0.5 0.17188l-0.03125 0.20312c-1.4375 5.7344-1.4375 5.7344-1.4375 5.7344-0.046875 0.14062-0.046875 0.15625-0.046875 0.21875 0 0.23438 0.20312 0.28125 0.29688 0.28125 0.125 0 0.26562-0.09375 0.32812-0.20312 0.046875-0.09375 0.5-1.9375 0.5625-2.1875 0.34375 0.03125 1.1562 0.1875 1.1562 0.84375 0 0.078125 0 0.10938-0.03125 0.21875-0.015625 0.10938-0.03125 0.23438-0.03125 0.34375 0 0.57812 0.39062 0.98438 0.90625 0.98438 0.29688 0 0.57812-0.15625 0.79688-0.53125 0.25-0.4375 0.35938-0.98438 0.35938-1 0-0.10938-0.09375-0.10938-0.125-0.10938-0.09375 0-0.10938 0.046875-0.14062 0.1875-0.20312 0.71875-0.42188 1.2344-0.85938 1.2344-0.20312 0-0.32812-0.10938-0.32812-0.46875 0-0.17188 0.046875-0.40625 0.078125-0.5625 0.046875-0.17188 0.046875-0.20312 0.046875-0.3125 0-0.64062-0.625-0.92188-1.4844-1.0469 0.3125-0.17188 0.64062-0.48438 0.85938-0.73438 0.48438-0.53125 0.9375-0.95312 1.4219-0.95312 0.0625 0 0.078125 0 0.09375 0.015625 0.125 0.015625 0.125 0.015625 0.21875 0.078125 0.015625 0 0.015625 0.015625 0.03125 0.03125-0.46875 0.03125-0.5625 0.42188-0.5625 0.54688 0 0.15625 0.10938 0.34375 0.375 0.34375s0.54688-0.21875 0.54688-0.60938c0-0.29688-0.23438-0.625-0.67188-0.625-0.28125 0-0.73438 0.078125-1.4531 0.875-0.34375 0.375-0.73438 0.78125-1.1094 0.92188z"/>
     </g>
     <g transform="translate(286.34 148.21)">
      <path d="m2.2656-4.3594c0-0.10938-0.09375-0.26562-0.28125-0.26562s-0.39062 0.1875-0.39062 0.39062c0 0.10938 0.078125 0.26562 0.28125 0.26562 0.1875 0 0.39062-0.20312 0.39062-0.39062zm-1.4219 3.5469c-0.03125 0.09375-0.0625 0.17188-0.0625 0.29688 0 0.32812 0.26562 0.57812 0.65625 0.57812 0.6875 0 1-0.95312 1-1.0625 0-0.09375-0.09375-0.09375-0.10938-0.09375-0.09375 0-0.10938 0.046875-0.14062 0.125-0.15625 0.5625-0.45312 0.84375-0.73438 0.84375-0.14062 0-0.17188-0.09375-0.17188-0.25s0.046875-0.28125 0.10938-0.4375c0.078125-0.1875 0.15625-0.375 0.21875-0.5625 0.0625-0.17188 0.32812-0.79688 0.34375-0.89062 0.03125-0.0625 0.046875-0.14062 0.046875-0.21875 0-0.32812-0.28125-0.59375-0.65625-0.59375-0.70312 0-1.0156 0.95312-1.0156 1.0781 0 0.078125 0.09375 0.078125 0.125 0.078125 0.09375 0 0.09375-0.03125 0.125-0.10938 0.17188-0.59375 0.48438-0.84375 0.73438-0.84375 0.10938 0 0.17188 0.046875 0.17188 0.23438 0 0.17188-0.03125 0.26562-0.20312 0.70312z"/>
     </g>
     <g transform="translate(289.16 148.21)">
      <path d="m3.0625-4.3594c0-0.10938-0.09375-0.26562-0.28125-0.26562-0.20312 0-0.39062 0.20312-0.39062 0.39062 0 0.10938 0.078125 0.26562 0.28125 0.26562 0.1875 0 0.39062-0.1875 0.39062-0.39062zm-1.4844 4.7031c-0.10938 0.48438-0.48438 0.875-0.89062 0.875-0.09375 0-0.17188 0-0.25-0.03125 0.17188-0.09375 0.23438-0.25 0.23438-0.35938 0-0.17188-0.14062-0.25-0.28125-0.25-0.20312 0-0.39062 0.1875-0.39062 0.40625 0 0.26562 0.26562 0.4375 0.6875 0.4375s1.2344-0.25 1.4531-1.0938l0.625-2.5c0.015625-0.078125 0.03125-0.14062 0.03125-0.25 0-0.375-0.32812-0.65625-0.73438-0.65625-0.78125 0-1.2188 0.96875-1.2188 1.0781 0 0.078125 0.09375 0.078125 0.10938 0.078125 0.078125 0 0.09375-0.015625 0.14062-0.125 0.17188-0.40625 0.53125-0.82812 0.9375-0.82812 0.17188 0 0.23438 0.10938 0.23438 0.34375 0 0.078125 0 0.17188-0.015625 0.20312z"/>
     </g>
     <g transform="translate(296.12 146.72)">
      <path id="o" d="m6.8438-3.2656c0.15625 0 0.34375 0 0.34375-0.1875 0-0.20312-0.1875-0.20312-0.32812-0.20312h-5.9688c-0.14062 0-0.32812 0-0.32812 0.20312 0 0.1875 0.1875 0.1875 0.32812 0.1875zm0.015625 1.9375c0.14062 0 0.32812 0 0.32812-0.20312 0-0.1875-0.1875-0.1875-0.34375-0.1875h-5.9531c-0.14062 0-0.32812 0-0.32812 0.1875 0 0.20312 0.1875 0.20312 0.32812 0.20312z"/>
     </g>
     <g transform="translate(306.64,146.72)">
      <path d="m5.1562-3.7188c0.14062 0 0.5 0 0.5-0.34375 0-0.23438-0.21875-0.23438-0.39062-0.23438h-2.2812c-1.5 0-2.6094 1.6406-2.6094 2.8281 0 0.875 0.59375 1.5781 1.5 1.5781 1.1719 0 2.5-1.2031 2.5-2.7344 0-0.17188 0-0.65625-0.3125-1.0938zm-3.2656 3.6094c-0.5 0-0.89062-0.35938-0.89062-1.0781 0-0.29688 0.10938-1.1094 0.46875-1.7031 0.42188-0.6875 1.0156-0.82812 1.3594-0.82812 0.82812 0 0.90625 0.65625 0.90625 0.96875 0 0.46875-0.20312 1.2812-0.53125 1.7969-0.39062 0.57812-0.9375 0.84375-1.3125 0.84375z"/>
     </g>
    </g>
    <g id="p" transform="translate(-281.7 -139.53)" fill="#bc3754">
     <g transform="translate(312.69 142.61)" fill="#bc3754">
      <path id="q" d="m3.8125-0.98438c0.64062-0.65625 0.89062-1.5938 0.89062-1.6562 0-0.09375-0.078125-0.09375-0.10938-0.09375-0.09375 0-0.09375 0.015625-0.14062 0.17188-0.125 0.45312-0.35938 0.89062-0.65625 1.2656 0-0.10938-0.015625-0.57812-0.03125-0.64062-0.10938-0.6875-0.625-1.1406-1.3281-1.1406-1.0156 0-2 0.95312-2 1.9375 0 0.64062 0.46875 1.2031 1.2656 1.2031 0.64062 0 1.2188-0.28125 1.6094-0.57812 0.17188 0.5 0.51562 0.57812 0.73438 0.57812 0.40625 0 0.65625-0.32812 0.65625-0.48438 0-0.078125-0.09375-0.078125-0.125-0.078125-0.09375 0-0.10938 0.03125-0.125 0.0625-0.09375 0.26562-0.3125 0.3125-0.39062 0.3125-0.09375 0-0.21875 0-0.25-0.85938zm-0.54688 0.23438c-0.6875 0.5625-1.2656 0.625-1.5312 0.625-0.46875 0-0.71875-0.3125-0.71875-0.78125 0-0.1875 0.09375-0.95312 0.45312-1.4375 0.32812-0.42188 0.71875-0.53125 0.96875-0.53125 0.54688 0 0.71875 0.53125 0.76562 0.96875 0.046875 0.29688 0.03125 0.79688 0.0625 1.1562z" fill="#bc3754"/>
     </g>
    </g>
    <g transform="translate(-281.7 -139.53)">
     <g transform="translate(312.33 149.18)">
      <path id="r" d="m2.2656-4.3594c0-0.10938-0.09375-0.26562-0.28125-0.26562s-0.39062 0.1875-0.39062 0.39062c0 0.10938 0.078125 0.26562 0.28125 0.26562 0.1875 0 0.39062-0.20312 0.39062-0.39062zm-1.4219 3.5469c-0.03125 0.09375-0.0625 0.17188-0.0625 0.29688 0 0.32812 0.26562 0.57812 0.65625 0.57812 0.6875 0 1-0.95312 1-1.0625 0-0.09375-0.09375-0.09375-0.10938-0.09375-0.09375 0-0.10938 0.046875-0.14062 0.125-0.15625 0.5625-0.45312 0.84375-0.73438 0.84375-0.14062 0-0.17188-0.09375-0.17188-0.25s0.046875-0.28125 0.10938-0.4375c0.078125-0.1875 0.15625-0.375 0.21875-0.5625 0.0625-0.17188 0.32812-0.79688 0.34375-0.89062 0.03125-0.0625 0.046875-0.14062 0.046875-0.21875 0-0.32812-0.28125-0.59375-0.65625-0.59375-0.70312 0-1.0156 0.95312-1.0156 1.0781 0 0.078125 0.09375 0.078125 0.125 0.078125 0.09375 0 0.09375-0.03125 0.125-0.10938 0.17188-0.59375 0.48438-0.84375 0.73438-0.84375 0.10938 0 0.17188 0.046875 0.17188 0.23438 0 0.17188-0.03125 0.26562-0.20312 0.70312z"/>
     </g>
     <g transform="translate(318.37 146.72)">
      <path d="m5.1562-3.7188c0.14062 0 0.5 0 0.5-0.34375 0-0.23438-0.21875-0.23438-0.39062-0.23438h-2.2812c-1.5 0-2.6094 1.6406-2.6094 2.8281 0 0.875 0.59375 1.5781 1.5 1.5781 1.1719 0 2.5-1.2031 2.5-2.7344 0-0.17188 0-0.65625-0.3125-1.0938zm-3.2656 3.6094c-0.5 0-0.89062-0.35938-0.89062-1.0781 0-0.29688 0.10938-1.1094 0.46875-1.7031 0.42188-0.6875 1.0156-0.82812 1.3594-0.82812 0.82812 0 0.90625 0.65625 0.90625 0.96875 0 0.46875-0.20312 1.2812-0.53125 1.7969-0.39062 0.57812-0.9375 0.84375-1.3125 0.84375z"/>
     </g>
    </g>
    <g transform="translate(-281.7 -139.53)" fill="#bc3754">
     <g transform="translate(324.42 142.61)" fill="#bc3754">
      <path d="m3.8125-0.98438c0.64062-0.65625 0.89062-1.5938 0.89062-1.6562 0-0.09375-0.078125-0.09375-0.10938-0.09375-0.09375 0-0.09375 0.015625-0.14062 0.17188-0.125 0.45312-0.35938 0.89062-0.65625 1.2656 0-0.10938-0.015625-0.57812-0.03125-0.64062-0.10938-0.6875-0.625-1.1406-1.3281-1.1406-1.0156 0-2 0.95312-2 1.9375 0 0.64062 0.46875 1.2031 1.2656 1.2031 0.64062 0 1.2188-0.28125 1.6094-0.57812 0.17188 0.5 0.51562 0.57812 0.73438 0.57812 0.40625 0 0.65625-0.32812 0.65625-0.48438 0-0.078125-0.09375-0.078125-0.125-0.078125-0.09375 0-0.10938 0.03125-0.125 0.0625-0.09375 0.26562-0.3125 0.3125-0.39062 0.3125-0.09375 0-0.21875 0-0.25-0.85938zm-0.54688 0.23438c-0.6875 0.5625-1.2656 0.625-1.5312 0.625-0.46875 0-0.71875-0.3125-0.71875-0.78125 0-0.1875 0.09375-0.95312 0.45312-1.4375 0.32812-0.42188 0.71875-0.53125 0.96875-0.53125 0.54688 0 0.71875 0.53125 0.76562 0.96875 0.046875 0.29688 0.03125 0.79688 0.0625 1.1562z" fill="#bc3754"/>
     </g>
    </g>
    <g transform="translate(-281.7 -139.53)">
     <g transform="translate(324.06 149.18)">
      <path id="s" d="m3.0625-4.3594c0-0.10938-0.09375-0.26562-0.28125-0.26562-0.20312 0-0.39062 0.20312-0.39062 0.39062 0 0.10938 0.078125 0.26562 0.28125 0.26562 0.1875 0 0.39062-0.1875 0.39062-0.39062zm-1.4844 4.7031c-0.10938 0.48438-0.48438 0.875-0.89062 0.875-0.09375 0-0.17188 0-0.25-0.03125 0.17188-0.09375 0.23438-0.25 0.23438-0.35938 0-0.17188-0.14062-0.25-0.28125-0.25-0.20312 0-0.39062 0.1875-0.39062 0.40625 0 0.26562 0.26562 0.4375 0.6875 0.4375s1.2344-0.25 1.4531-1.0938l0.625-2.5c0.015625-0.078125 0.03125-0.14062 0.03125-0.25 0-0.375-0.32812-0.65625-0.73438-0.65625-0.78125 0-1.2188 0.96875-1.2188 1.0781 0 0.078125 0.09375 0.078125 0.10938 0.078125 0.078125 0 0.09375-0.015625 0.14062-0.125 0.17188-0.40625 0.53125-0.82812 0.9375-0.82812 0.17188 0 0.23438 0.10938 0.23438 0.34375 0 0.078125 0 0.17188-0.015625 0.20312z"/>
     </g>
    </g>
   </g>
  </g>
  <g transform="translate(81.959 53.094)" ns10:alignment="middle center" ns10:inkscapeversion="1.2" ns10:jacobian_sqrt="1.0" ns10:pdfconverter="inkscape" ns10:preamble="/Users/tom/Library/Application Support/org.inkscape.Inkscape/config/inkscape/extensions/textext/default_packages.tex" ns10:scale="1.0" ns10:stroke-to-path="0" ns10:texconverter="pdflatex" ns10:text="$$\\alpha \\in {x,y,z}$$" ns10:version="1.8.1">
   <defs id="t"></defs>
   <g>
    <g transform="translate(-284.3 -141.33)">
     <g transform="translate(283.9 146.72)">
      <path d="m4.75-2.3594c0-1.5625-0.92188-2.0469-1.6562-2.0469-1.375 0-2.6875 1.4219-2.6875 2.8281 0 0.9375 0.59375 1.6875 1.625 1.6875 0.625 0 1.3438-0.23438 2.0938-0.84375 0.125 0.53125 0.45312 0.84375 0.90625 0.84375 0.53125 0 0.84375-0.54688 0.84375-0.70312 0-0.078125-0.0625-0.10938-0.125-0.10938s-0.09375 0.03125-0.125 0.10938c-0.1875 0.48438-0.54688 0.48438-0.5625 0.48438-0.3125 0-0.3125-0.78125-0.3125-1.0156 0-0.20312 0-0.23438 0.10938-0.34375 0.9375-1.1875 1.1406-2.3438 1.1406-2.3438 0-0.03125-0.015625-0.10938-0.125-0.10938-0.09375 0-0.09375 0.03125-0.14062 0.21875-0.1875 0.625-0.51562 1.375-0.98438 1.9688zm-0.65625 1.375c-0.89062 0.76562-1.6562 0.875-2.0469 0.875-0.59375 0-0.90625-0.45312-0.90625-1.0938 0-0.48438 0.26562-1.5625 0.57812-2.0625 0.46875-0.73438 1.0156-0.92188 1.3594-0.92188 0.98438 0 0.98438 1.3125 0.98438 2.0781 0 0.375 0 0.95312 0.03125 1.125z"/>
     </g>
    </g>
    <g id="u" transform="translate(-284.3 -141.33)">
     <g transform="translate(293.08 146.72)">
      <path d="m5.4688-2.2969c0.15625 0 0.34375 0 0.34375-0.20312 0-0.1875-0.1875-0.1875-0.34375-0.1875h-4.2344c0.125-1.3438 1.2656-2.2969 2.6719-2.2969h1.5625c0.15625 0 0.34375 0 0.34375-0.20312s-0.1875-0.20312-0.34375-0.20312h-1.5781c-1.7031 0-3.0625 1.2969-3.0625 2.8906 0 1.6094 1.3594 2.9062 3.0625 2.9062h1.5781c0.15625 0 0.34375 0 0.34375-0.20312s-0.1875-0.20312-0.34375-0.20312h-1.5625c-1.4062 0-2.5469-0.95312-2.6719-2.2969z"/>
     </g>
    </g>
    <g transform="translate(-284.3 -141.33)">
     <g transform="translate(302.49 146.72)">
      <path d="m3.3281-3.0156c0.0625-0.25 0.29688-1.1719 0.98438-1.1719 0.046875 0 0.29688 0 0.5 0.125-0.28125 0.0625-0.46875 0.29688-0.46875 0.54688 0 0.15625 0.10938 0.34375 0.375 0.34375 0.21875 0 0.53125-0.17188 0.53125-0.57812 0-0.51562-0.57812-0.65625-0.92188-0.65625-0.57812 0-0.92188 0.53125-1.0469 0.75-0.25-0.65625-0.78125-0.75-1.0781-0.75-1.0312 0-1.6094 1.2812-1.6094 1.5312 0 0.10938 0.10938 0.10938 0.125 0.10938 0.078125 0 0.10938-0.03125 0.125-0.10938 0.34375-1.0625 1-1.3125 1.3438-1.3125 0.1875 0 0.53125 0.09375 0.53125 0.67188 0 0.3125-0.17188 0.96875-0.53125 2.375-0.15625 0.60938-0.51562 1.0312-0.95312 1.0312-0.0625 0-0.28125 0-0.5-0.125 0.25-0.0625 0.46875-0.26562 0.46875-0.54688 0-0.26562-0.21875-0.34375-0.35938-0.34375-0.3125 0-0.54688 0.25-0.54688 0.57812 0 0.45312 0.48438 0.65625 0.92188 0.65625 0.67188 0 1.0312-0.70312 1.0469-0.75 0.125 0.35938 0.48438 0.75 1.0781 0.75 1.0312 0 1.5938-1.2812 1.5938-1.5312 0-0.10938-0.078125-0.10938-0.10938-0.10938-0.09375 0-0.10938 0.046875-0.14062 0.10938-0.32812 1.0781-1 1.3125-1.3125 1.3125-0.39062 0-0.54688-0.3125-0.54688-0.65625 0-0.21875 0.046875-0.4375 0.15625-0.875z"/>
     </g>
     <g transform="translate(308.18,146.72)">
      <path d="m2.0312-0.015625c0-0.65625-0.25-1.0469-0.64062-1.0469-0.32812 0-0.53125 0.25-0.53125 0.53125 0 0.26562 0.20312 0.53125 0.53125 0.53125 0.10938 0 0.25-0.046875 0.34375-0.125 0.03125-0.03125 0.046875-0.03125 0.046875-0.03125 0.015625 0 0.015625 0 0.015625 0.14062 0 0.75-0.34375 1.3438-0.67188 1.6719-0.10938 0.10938-0.10938 0.125-0.10938 0.15625 0 0.078125 0.046875 0.10938 0.09375 0.10938 0.10938 0 0.92188-0.76562 0.92188-1.9375z"/>
     </g>
     <g transform="translate(312.61 146.72)">
      <path id="v" d="m4.8438-3.7969c0.046875-0.14062 0.046875-0.15625 0.046875-0.23438 0-0.17188-0.14062-0.26562-0.29688-0.26562-0.09375 0-0.25 0.0625-0.34375 0.20312-0.015625 0.0625-0.10938 0.35938-0.14062 0.54688-0.078125 0.25-0.14062 0.53125-0.20312 0.79688l-0.45312 1.7969c-0.03125 0.14062-0.46875 0.84375-1.125 0.84375-0.5 0-0.60938-0.4375-0.60938-0.8125 0-0.45312 0.17188-1.0781 0.5-1.9531 0.15625-0.40625 0.20312-0.51562 0.20312-0.71875 0-0.4375-0.3125-0.8125-0.8125-0.8125-0.95312 0-1.3125 1.4531-1.3125 1.5312 0 0.10938 0.09375 0.10938 0.10938 0.10938 0.10938 0 0.10938-0.03125 0.15625-0.1875 0.28125-0.9375 0.67188-1.2344 1.0156-1.2344 0.078125 0 0.25 0 0.25 0.3125 0 0.25-0.10938 0.51562-0.17188 0.70312-0.40625 1.0625-0.57812 1.625-0.57812 2.0938 0 0.89062 0.625 1.1875 1.2188 1.1875 0.39062 0 0.71875-0.17188 1-0.45312-0.125 0.51562-0.25 1.0156-0.64062 1.5469-0.26562 0.32812-0.64062 0.625-1.0938 0.625-0.14062 0-0.59375-0.03125-0.76562-0.42188 0.15625 0 0.29688 0 0.42188-0.125 0.10938-0.078125 0.20312-0.21875 0.20312-0.40625 0-0.3125-0.26562-0.34375-0.35938-0.34375-0.23438 0-0.5625 0.15625-0.5625 0.64062 0 0.5 0.4375 0.875 1.0625 0.875 1.0156 0 2.0469-0.90625 2.3281-2.0312z"/>
     </g>
     <g transform="translate(317.85 146.72)">
      <path d="m2.0312-0.015625c0-0.65625-0.25-1.0469-0.64062-1.0469-0.32812 0-0.53125 0.25-0.53125 0.53125 0 0.26562 0.20312 0.53125 0.53125 0.53125 0.10938 0 0.25-0.046875 0.34375-0.125 0.03125-0.03125 0.046875-0.03125 0.046875-0.03125 0.015625 0 0.015625 0 0.015625 0.14062 0 0.75-0.34375 1.3438-0.67188 1.6719-0.10938 0.10938-0.10938 0.125-0.10938 0.15625 0 0.078125 0.046875 0.10938 0.09375 0.10938 0.10938 0 0.92188-0.76562 0.92188-1.9375z"/>
     </g>
     <g transform="translate(322.28 146.72)">
      <path d="m1.3281-0.82812c0.53125-0.57812 0.82812-0.82812 1.1875-1.1406 0 0 0.60938-0.53125 0.96875-0.89062 0.95312-0.92188 1.1719-1.4062 1.1719-1.4531 0-0.09375-0.09375-0.09375-0.10938-0.09375-0.078125 0-0.09375 0.015625-0.15625 0.10938-0.29688 0.48438-0.5 0.64062-0.73438 0.64062-0.25 0-0.35938-0.15625-0.51562-0.32812-0.1875-0.21875-0.35938-0.42188-0.6875-0.42188-0.75 0-1.2031 0.92188-1.2031 1.1406 0 0.046875 0.03125 0.10938 0.10938 0.10938 0.09375 0 0.10938-0.046875 0.14062-0.10938 0.1875-0.46875 0.76562-0.46875 0.84375-0.46875 0.20312 0 0.39062 0.0625 0.625 0.14062 0.40625 0.15625 0.51562 0.15625 0.76562 0.15625-0.35938 0.42188-1.1875 1.1406-1.375 1.2969l-0.90625 0.84375c-0.67188 0.67188-1.0312 1.2344-1.0312 1.3125 0 0.09375 0.10938 0.09375 0.125 0.09375 0.078125 0 0.09375-0.015625 0.15625-0.125 0.23438-0.35938 0.53125-0.625 0.85938-0.625 0.21875 0 0.32812 0.09375 0.57812 0.375 0.15625 0.21875 0.34375 0.375 0.625 0.375 1 0 1.5781-1.2656 1.5781-1.5312 0-0.046875-0.046875-0.10938-0.125-0.10938-0.09375 0-0.10938 0.0625-0.14062 0.14062-0.23438 0.64062-0.875 0.82812-1.2031 0.82812-0.1875 0-0.375-0.0625-0.57812-0.125-0.34375-0.125-0.5-0.17188-0.70312-0.17188-0.015625 0-0.17188 0-0.26562 0.03125z"/>
     </g>
    </g>
   </g>
  </g>
 </g>
 <g transform="translate(207.97 36.039)" ns10:alignment="middle center" ns10:inkscapeversion="1.2" ns10:jacobian_sqrt="1.0" ns10:pdfconverter="inkscape" ns10:preamble="/Users/tom/Library/Application Support/org.inkscape.Inkscape/config/inkscape/extensions/textext/default_packages.tex" ns10:scale="1.0" ns10:stroke-to-path="0" ns10:texconverter="pdflatex" ns10:text="$$W_p = K_{12}K_{23}...K_{n1}$$" ns10:version="1.8.1">
  <defs id="w">
   <g id="x"></g>
  </defs>
  <g>
   <g transform="translate(-262.54 -139.91)">
    <g transform="translate(261.99 146.72)">
     <path id="y" d="m9.1406-5.6562c0.25-0.4375 0.48438-0.79688 1.125-0.84375 0.07813-0.015625 0.1875-0.015625 0.1875-0.20312 0-0.03125-0.04687-0.10938-0.125-0.10938-0.23438 0-0.51562 0.03125-0.76562 0.03125-0.34375 0-0.70312-0.03125-1.0469-0.03125-0.046875 0-0.1875 0-0.1875 0.1875 0 0.10938 0.09375 0.125 0.15625 0.125 0.23438 0.015625 0.59375 0.09375 0.59375 0.39062 0 0.10938-0.0625 0.1875-0.14062 0.32812l-2.6875 4.6875c-0.375-4.9375-0.375-4.9375-0.375-4.9375 0-0.20312-0.015625-0.45312 0.70312-0.46875 0.17188 0 0.26562 0 0.26562-0.20312 0-0.09375-0.10938-0.10938-0.14062-0.10938-0.40625 0-0.82812 0.03125-1.2188 0.03125-0.23438 0-0.8125-0.03125-1.0469-0.03125-0.0625 0-0.1875 0-0.1875 0.20312 0 0.10938 0.09375 0.10938 0.23438 0.10938 0.4375 0 0.51562 0.0625 0.53125 0.25l0.0625 0.76562-2.5312 4.3906c-0.375-5.0469-0.375-5.0469-0.375-5.0469 0-0.125 0-0.34375 0.76562-0.35938 0.09375 0 0.20312 0 0.20312-0.20312 0-0.10938-0.125-0.10938-0.14062-0.10938-0.39062 0-0.8125 0.03125-1.2188 0.03125-0.35938 0-0.71875-0.03125-1.0469-0.03125-0.0625 0-0.1875 0-0.1875 0.1875 0 0.125 0.09375 0.125 0.25 0.125 0.5 0 0.51562 0.09375 0.53125 0.375 0.45312 6.0781 0.45312 6.0781 0.45312 6.0781 0 0.1875 0.015625 0.26562 0.15625 0.26562 0.10938 0 0.14062-0.0625 0.23438-0.20312 2.9375-5.0938 2.9375-5.0938 2.9375-5.0938l0.35938 5.0312c0.03125 0.21875 0.046875 0.26562 0.15625 0.26562 0.14062 0 0.20312-0.09375 0.25-0.1875z"/>
    </g>
    <g transform="translate(271.4 148.21)">
     <path id="z" d="m0.51562 0.84375c-0.046875 0.20312-0.0625 0.25-0.32812 0.25-0.09375 0-0.1875 0-0.1875 0.15625 0 0.078125 0.0625 0.10938 0.09375 0.10938 0.17188 0 0.40625-0.03125 0.59375-0.03125 0.23438 0 0.5 0.03125 0.73438 0.03125 0.0625 0 0.14062-0.03125 0.14062-0.15625 0-0.10938-0.09375-0.10938-0.1875-0.10938-0.15625 0-0.34375 0-0.34375-0.078125 0-0.03125 0.0625-0.21875 0.078125-0.3125 0.09375-0.375 0.1875-0.75 0.26562-1.0469 0.078125 0.14062 0.29688 0.40625 0.71875 0.40625 0.84375 0 1.7812-0.9375 1.7812-1.9688 0-0.8125-0.5625-1.1719-1.0312-1.1719-0.4375 0-0.8125 0.29688-1 0.5-0.10938-0.40625-0.5-0.5-0.71875-0.5-0.26562 0-0.4375 0.1875-0.54688 0.375-0.14062 0.23438-0.25 0.65625-0.25 0.70312 0 0.078125 0.09375 0.078125 0.125 0.078125 0.09375 0 0.09375-0.015625 0.14062-0.20312 0.10938-0.40625 0.25-0.75 0.51562-0.75 0.1875 0 0.23438 0.15625 0.23438 0.34375 0 0.078125-0.015625 0.15625-0.03125 0.20312zm1.3281-3.0781c0.40625-0.54688 0.75-0.64062 0.96875-0.64062 0.28125 0 0.51562 0.20312 0.51562 0.67188 0 0.28125-0.15625 1-0.35938 1.4062-0.1875 0.34375-0.51562 0.67188-0.875 0.67188-0.5 0-0.625-0.53125-0.625-0.60938 0-0.03125 0.015625-0.078125 0.015625-0.10938z"/>
    </g>
   </g>
   <g id="aa" transform="translate(-262.54 -139.91)">
    <g transform="translate(278.78 146.72)">
     <path id="ab" d="m6.8438-3.2656c0.15625 0 0.34375 0 0.34375-0.1875 0-0.20312-0.1875-0.20312-0.32812-0.20312h-5.9688c-0.14062 0-0.32812 0-0.32812 0.20312 0 0.1875 0.1875 0.1875 0.32812 0.1875zm0.015625 1.9375c0.14062 0 0.32812 0 0.32812-0.20312 0-0.1875-0.1875-0.1875-0.34375-0.1875h-5.9531c-0.14062 0-0.32812 0-0.32812 0.1875 0 0.20312 0.1875 0.20312 0.32812 0.20312z"/>
    </g>
   </g>
   <g id="ac" transform="translate(-262.54 -139.91)">
    <g transform="translate(289.29 146.72)">
     <path d="m5.0781-4.0312c-0.015625-0.03125-0.046875-0.10938-0.046875-0.14062 0 0 0.17188-0.14062 0.28125-0.21875l1.75-1.3438c0.9375-0.70312 1.3281-0.73438 1.625-0.76562 0.078125-0.015625 0.17188-0.015625 0.17188-0.20312 0-0.03125-0.03125-0.10938-0.10938-0.10938-0.21875 0-0.46875 0.03125-0.70312 0.03125-0.35938 0-0.75-0.03125-1.1094-0.03125-0.0625 0-0.1875 0-0.1875 0.20312 0 0.0625 0.046875 0.09375 0.125 0.10938 0.21875 0.015625 0.29688 0.0625 0.29688 0.20312 0 0.1875-0.29688 0.42188-0.35938 0.46875l-3.875 2.9844 0.79688-3.2031c0.078125-0.35938 0.10938-0.45312 0.82812-0.45312 0.25 0 0.34375 0 0.34375-0.20312 0-0.078125-0.078125-0.10938-0.14062-0.10938-0.28125 0-1 0.03125-1.2812 0.03125s-0.98438-0.03125-1.2812-0.03125c-0.0625 0-0.20312 0-0.20312 0.1875 0 0.125 0.09375 0.125 0.29688 0.125 0.125 0 0.3125 0.015625 0.42188 0.015625 0.15625 0.03125 0.21875 0.046875 0.21875 0.17188 0 0.03125 0 0.0625-0.03125 0.1875l-1.3438 5.3438c-0.09375 0.39062-0.10938 0.46875-0.90625 0.46875-0.17188 0-0.28125 0-0.28125 0.1875 0 0.125 0.125 0.125 0.15625 0.125 0.28125 0 0.98438-0.03125 1.2656-0.03125 0.20312 0 0.42188 0.015625 0.64062 0.015625s0.4375 0.015625 0.64062 0.015625c0.078125 0 0.20312 0 0.20312-0.20312 0-0.10938-0.09375-0.10938-0.28125-0.10938-0.375 0-0.64062 0-0.64062-0.17188 0-0.078125 0.046875-0.29688 0.078125-0.4375 0.14062-0.53125 0.28125-1.0469 0.40625-1.5781l1.4844-1.1562 1.1562 2.6875c0.125 0.26562 0.125 0.29688 0.125 0.34375 0 0.3125-0.4375 0.3125-0.53125 0.3125-0.10938 0-0.21875 0-0.21875 0.20312 0 0.10938 0.125 0.10938 0.14062 0.10938 0.40625 0 0.82812-0.03125 1.2188-0.03125 0.21875 0 0.76562 0.03125 0.98438 0.03125 0.046875 0 0.17188 0 0.17188-0.20312 0-0.10938-0.10938-0.10938-0.20312-0.10938-0.40625 0-0.53125-0.09375-0.6875-0.4375z"/>
    </g>
   </g>
   <g transform="translate(-262.54 -139.91)">
    <g transform="translate(297.75 148.21)">
     <path d="m2.3281-4.4375c0-0.1875 0-0.1875-0.20312-0.1875-0.45312 0.4375-1.0781 0.4375-1.3594 0.4375v0.25c0.15625 0 0.625 0 1-0.1875v3.5469c0 0.23438 0 0.32812-0.6875 0.32812h-0.26562v0.25c0.125 0 0.98438-0.03125 1.2344-0.03125 0.21875 0 1.0938 0.03125 1.25 0.03125v-0.25h-0.26562c-0.70312 0-0.70312-0.09375-0.70312-0.32812z"/>
    </g>
    <g transform="translate(301.72 148.21)">
     <path d="m3.5156-1.2656h-0.23438c-0.015625 0.15625-0.09375 0.5625-0.1875 0.625-0.046875 0.046875-0.57812 0.046875-0.6875 0.046875h-1.2812c0.73438-0.64062 0.98438-0.84375 1.3906-1.1719 0.51562-0.40625 1-0.84375 1-1.5 0-0.84375-0.73438-1.3594-1.625-1.3594-0.85938 0-1.4531 0.60938-1.4531 1.25 0 0.34375 0.29688 0.39062 0.375 0.39062 0.15625 0 0.35938-0.125 0.35938-0.375 0-0.125-0.046875-0.375-0.40625-0.375 0.21875-0.48438 0.6875-0.64062 1.0156-0.64062 0.70312 0 1.0625 0.54688 1.0625 1.1094 0 0.60938-0.4375 1.0781-0.65625 1.3281l-1.6719 1.6719c-0.078125 0.0625-0.078125 0.078125-0.078125 0.26562h2.875z"/>
    </g>
   </g>
   <g id="ad" transform="translate(-262.54 -139.91)">
    <g transform="translate(306.19 146.72)">
     <path id="ae" d="m5.0781-4.0312c-0.015625-0.03125-0.046875-0.10938-0.046875-0.14062 0 0 0.17188-0.14062 0.28125-0.21875l1.75-1.3438c0.9375-0.70312 1.3281-0.73438 1.625-0.76562 0.078125-0.015625 0.17188-0.015625 0.17188-0.20312 0-0.03125-0.03125-0.10938-0.10938-0.10938-0.21875 0-0.46875 0.03125-0.70312 0.03125-0.35938 0-0.75-0.03125-1.1094-0.03125-0.0625 0-0.1875 0-0.1875 0.20312 0 0.0625 0.046875 0.09375 0.125 0.10938 0.21875 0.015625 0.29688 0.0625 0.29688 0.20312 0 0.1875-0.29688 0.42188-0.35938 0.46875l-3.875 2.9844 0.79688-3.2031c0.078125-0.35938 0.10938-0.45312 0.82812-0.45312 0.25 0 0.34375 0 0.34375-0.20312 0-0.078125-0.078125-0.10938-0.14062-0.10938-0.28125 0-1 0.03125-1.2812 0.03125s-0.98438-0.03125-1.2812-0.03125c-0.0625 0-0.20312 0-0.20312 0.1875 0 0.125 0.09375 0.125 0.29688 0.125 0.125 0 0.3125 0.015625 0.42188 0.015625 0.15625 0.03125 0.21875 0.046875 0.21875 0.17188 0 0.03125 0 0.0625-0.03125 0.1875l-1.3438 5.3438c-0.09375 0.39062-0.10938 0.46875-0.90625 0.46875-0.17188 0-0.28125 0-0.28125 0.1875 0 0.125 0.125 0.125 0.15625 0.125 0.28125 0 0.98438-0.03125 1.2656-0.03125 0.20312 0 0.42188 0.015625 0.64062 0.015625s0.4375 0.015625 0.64062 0.015625c0.078125 0 0.20312 0 0.20312-0.20312 0-0.10938-0.09375-0.10938-0.28125-0.10938-0.375 0-0.64062 0-0.64062-0.17188 0-0.078125 0.046875-0.29688 0.078125-0.4375 0.14062-0.53125 0.28125-1.0469 0.40625-1.5781l1.4844-1.1562 1.1562 2.6875c0.125 0.26562 0.125 0.29688 0.125 0.34375 0 0.3125-0.4375 0.3125-0.53125 0.3125-0.10938 0-0.21875 0-0.21875 0.20312 0 0.10938 0.125 0.10938 0.14062 0.10938 0.40625 0 0.82812-0.03125 1.2188-0.03125 0.21875 0 0.76562 0.03125 0.98438 0.03125 0.046875 0 0.17188 0 0.17188-0.20312 0-0.10938-0.10938-0.10938-0.20312-0.10938-0.40625 0-0.53125-0.09375-0.6875-0.4375z"/>
    </g>
   </g>
   <g transform="translate(-262.54 -139.91)">
    <g transform="translate(314.66 148.21)">
     <path d="m3.5156-1.2656h-0.23438c-0.015625 0.15625-0.09375 0.5625-0.1875 0.625-0.046875 0.046875-0.57812 0.046875-0.6875 0.046875h-1.2812c0.73438-0.64062 0.98438-0.84375 1.3906-1.1719 0.51562-0.40625 1-0.84375 1-1.5 0-0.84375-0.73438-1.3594-1.625-1.3594-0.85938 0-1.4531 0.60938-1.4531 1.25 0 0.34375 0.29688 0.39062 0.375 0.39062 0.15625 0 0.35938-0.125 0.35938-0.375 0-0.125-0.046875-0.375-0.40625-0.375 0.21875-0.48438 0.6875-0.64062 1.0156-0.64062 0.70312 0 1.0625 0.54688 1.0625 1.1094 0 0.60938-0.4375 1.0781-0.65625 1.3281l-1.6719 1.6719c-0.078125 0.0625-0.078125 0.078125-0.078125 0.26562h2.875z"/>
    </g>
    <g transform="translate(318.63 148.21)">
     <path d="m1.9062-2.3281c0.54688 0 0.9375 0.375 0.9375 1.125 0 0.85938-0.51562 1.125-0.90625 1.125-0.28125 0-0.90625-0.078125-1.1875-0.5 0.32812 0 0.40625-0.23438 0.40625-0.39062 0-0.21875-0.17188-0.375-0.39062-0.375-0.1875 0-0.39062 0.125-0.39062 0.40625 0 0.65625 0.71875 1.0781 1.5625 1.0781 0.96875 0 1.6406-0.65625 1.6406-1.3438 0-0.54688-0.4375-1.0938-1.2031-1.25 0.71875-0.26562 0.98438-0.78125 0.98438-1.2188 0-0.54688-0.625-0.95312-1.4062-0.95312-0.76562 0-1.3594 0.375-1.3594 0.9375 0 0.23438 0.15625 0.35938 0.35938 0.35938 0.21875 0 0.35938-0.15625 0.35938-0.34375 0-0.20312-0.14062-0.35938-0.35938-0.375 0.25-0.29688 0.71875-0.375 0.98438-0.375 0.3125 0 0.75 0.15625 0.75 0.75 0 0.29688-0.09375 0.625-0.28125 0.82812-0.21875 0.26562-0.42188 0.28125-0.76562 0.3125-0.17188 0.015625-0.1875 0.015625-0.21875 0.015625-0.015625 0-0.078125 0.015625-0.078125 0.09375 0 0.09375 0.0625 0.09375 0.1875 0.09375z"/>
    </g>
    <g transform="translate(323.1 146.72)">
     <path id="af" d="m1.9062-0.53125c0-0.28125-0.23438-0.53125-0.51562-0.53125-0.29688 0-0.53125 0.25-0.53125 0.53125 0 0.29688 0.23438 0.53125 0.53125 0.53125 0.28125 0 0.51562-0.23438 0.51562-0.53125z"/>
    </g>
    <g transform="translate(325.86 146.72)">
     <path d="m1.9062-0.53125c0-0.28125-0.23438-0.53125-0.51562-0.53125-0.29688 0-0.53125 0.25-0.53125 0.53125 0 0.29688 0.23438 0.53125 0.53125 0.53125 0.28125 0 0.51562-0.23438 0.51562-0.53125z"/>
    </g>
    <g transform="translate(328.63 146.72)">
     <path d="m1.9062-0.53125c0-0.28125-0.23438-0.53125-0.51562-0.53125-0.29688 0-0.53125 0.25-0.53125 0.53125 0 0.29688 0.23438 0.53125 0.53125 0.53125 0.28125 0 0.51562-0.23438 0.51562-0.53125z"/>
    </g>
    <g transform="translate(331.4 146.72)">
     <path d="m5.0781-4.0312c-0.015625-0.03125-0.046875-0.10938-0.046875-0.14062 0 0 0.17188-0.14062 0.28125-0.21875l1.75-1.3438c0.9375-0.70312 1.3281-0.73438 1.625-0.76562 0.078125-0.015625 0.17188-0.015625 0.17188-0.20312 0-0.03125-0.03125-0.10938-0.10938-0.10938-0.21875 0-0.46875 0.03125-0.70312 0.03125-0.35938 0-0.75-0.03125-1.1094-0.03125-0.0625 0-0.1875 0-0.1875 0.20312 0 0.0625 0.046875 0.09375 0.125 0.10938 0.21875 0.015625 0.29688 0.0625 0.29688 0.20312 0 0.1875-0.29688 0.42188-0.35938 0.46875l-3.875 2.9844 0.79688-3.2031c0.078125-0.35938 0.10938-0.45312 0.82812-0.45312 0.25 0 0.34375 0 0.34375-0.20312 0-0.078125-0.078125-0.10938-0.14062-0.10938-0.28125 0-1 0.03125-1.2812 0.03125s-0.98438-0.03125-1.2812-0.03125c-0.0625 0-0.20312 0-0.20312 0.1875 0 0.125 0.09375 0.125 0.29688 0.125 0.125 0 0.3125 0.015625 0.42188 0.015625 0.15625 0.03125 0.21875 0.046875 0.21875 0.17188 0 0.03125 0 0.0625-0.03125 0.1875l-1.3438 5.3438c-0.09375 0.39062-0.10938 0.46875-0.90625 0.46875-0.17188 0-0.28125 0-0.28125 0.1875 0 0.125 0.125 0.125 0.15625 0.125 0.28125 0 0.98438-0.03125 1.2656-0.03125 0.20312 0 0.42188 0.015625 0.64062 0.015625s0.4375 0.015625 0.64062 0.015625c0.078125 0 0.20312 0 0.20312-0.20312 0-0.10938-0.09375-0.10938-0.28125-0.10938-0.375 0-0.64062 0-0.64062-0.17188 0-0.078125 0.046875-0.29688 0.078125-0.4375 0.14062-0.53125 0.28125-1.0469 0.40625-1.5781l1.4844-1.1562 1.1562 2.6875c0.125 0.26562 0.125 0.29688 0.125 0.34375 0 0.3125-0.4375 0.3125-0.53125 0.3125-0.10938 0-0.21875 0-0.21875 0.20312 0 0.10938 0.125 0.10938 0.14062 0.10938 0.40625 0 0.82812-0.03125 1.2188-0.03125 0.21875 0 0.76562 0.03125 0.98438 0.03125 0.046875 0 0.17188 0 0.17188-0.20312 0-0.10938-0.10938-0.10938-0.20312-0.10938-0.40625 0-0.53125-0.09375-0.6875-0.4375z"/>
    </g>
   </g>
   <g id="ag" transform="translate(-262.54 -139.91)">
    <g transform="translate(339.86 148.21)">
     <path d="m0.84375-0.4375c-0.015625 0.09375-0.0625 0.26562-0.0625 0.28125 0 0.15625 0.125 0.21875 0.23438 0.21875 0.125 0 0.23438-0.078125 0.28125-0.14062 0.03125-0.0625 0.078125-0.29688 0.125-0.4375 0.03125-0.125 0.10938-0.45312 0.14062-0.625 0.046875-0.15625 0.09375-0.3125 0.125-0.46875 0.078125-0.28125 0.09375-0.34375 0.29688-0.625 0.1875-0.28125 0.51562-0.64062 1.0469-0.64062 0.39062 0 0.40625 0.35938 0.40625 0.48438 0 0.42188-0.29688 1.1875-0.40625 1.4844-0.078125 0.20312-0.10938 0.26562-0.10938 0.375 0 0.375 0.29688 0.59375 0.65625 0.59375 0.70312 0 1-0.95312 1-1.0625 0-0.09375-0.078125-0.09375-0.10938-0.09375-0.09375 0-0.09375 0.046875-0.125 0.125-0.15625 0.5625-0.46875 0.84375-0.73438 0.84375-0.15625 0-0.1875-0.09375-0.1875-0.25s0.046875-0.25 0.17188-0.5625c0.078125-0.21875 0.35938-0.95312 0.35938-1.3438 0-0.67188-0.53125-0.79688-0.90625-0.79688-0.57812 0-0.96875 0.35938-1.1719 0.64062-0.046875-0.48438-0.45312-0.64062-0.75-0.64062s-0.45312 0.21875-0.54688 0.375c-0.15625 0.26562-0.25 0.65625-0.25 0.70312 0 0.078125 0.09375 0.078125 0.125 0.078125 0.09375 0 0.09375-0.015625 0.14062-0.20312 0.10938-0.40625 0.25-0.75 0.51562-0.75 0.1875 0 0.23438 0.15625 0.23438 0.34375 0 0.125-0.0625 0.39062-0.125 0.57812-0.046875 0.1875-0.10938 0.46875-0.14062 0.625z"/>
    </g>
   </g>
   <g id="ah" transform="translate(-262.54 -139.91)">
    <g transform="translate(344.78 148.21)">
     <path id="ai" d="m2.3281-4.4375c0-0.1875 0-0.1875-0.20312-0.1875-0.45312 0.4375-1.0781 0.4375-1.3594 0.4375v0.25c0.15625 0 0.625 0 1-0.1875v3.5469c0 0.23438 0 0.32812-0.6875 0.32812h-0.26562v0.25c0.125 0 0.98438-0.03125 1.2344-0.03125 0.21875 0 1.0938 0.03125 1.25 0.03125v-0.25h-0.26562c-0.70312 0-0.70312-0.09375-0.70312-0.32812z"/>
    </g>
   </g>
  </g>
 </g>
 <text x="184.11635" y="9.8608837" fill="#000000" font-size="9px" stroke-width="6.685" xml:space="preserve"><tspan x="184.11635" y="9.8608837" stroke-width="6.685">The Kitavev Model, Visually</tspan></text>
 <g>
  <text x="79.297455" y="90.782036" fill="#000000" font-size="9px" stroke-linejoin="round" stroke-width="6.685" xml:space="preserve"><tspan x="79.297455" y="90.782036" fill="#000000" stroke-width="6.685">Bond Types</tspan></text>
  <g transform="translate(-2.3845 1.6654)" stroke-width="1.2">
   <g transform="matrix(2.94 0 0 2.94 -284.88 -461.83)" stroke="#bc3754" stroke-width=".81282">
    <path transform="matrix(-.43487 .25107 -.25107 -.43487 248.83 190.53)" d="m194.99 108.18 19.205 11.025" clip-path="url(#f)" fill="none" stroke-linecap="round" stroke-linejoin="round"/>
    <path transform="matrix(-.43487 .25107 -.25107 -.43487 248.83 190.53)" d="m206.94 115.04-6.0064-0.26985 2.6115-4.8573z" clip-path="url(#f)" fill="#bc3754"/>
   </g>
   <g transform="matrix(1.4695 0 0 1.4695 124.62 100.67)" fill="#bc3754" stroke-width=".81659" ns10:alignment="middle center" ns10:inkscapeversion="1.2.1" ns10:jacobian_sqrt="1.0" ns10:pdfconverter="inkscape" ns10:preamble="/Users/tom/Library/Application Support/org.inkscape.Inkscape/config/inkscape/extensions/textext/default_packages.tex" ns10:scale="1.0" ns10:stroke-to-path="0" ns10:texconverter="pdflatex" ns10:text="$$x$$" ns10:version="1.8.1">
    <defs id="aj"></defs>
    <g transform="translate(-303.07 -142.31)" fill="#bc3754">
     <g transform="translate(302.78 146.72)" fill="#bc3754">
      <path d="m3.3281-3.0156c0.0625-0.25 0.29688-1.1719 0.98438-1.1719 0.046875 0 0.29688 0 0.5 0.125-0.28125 0.0625-0.46875 0.29688-0.46875 0.54688 0 0.15625 0.10938 0.34375 0.375 0.34375 0.21875 0 0.53125-0.17188 0.53125-0.57812 0-0.51562-0.57812-0.65625-0.92188-0.65625-0.57812 0-0.92188 0.53125-1.0469 0.75-0.25-0.65625-0.78125-0.75-1.0781-0.75-1.0312 0-1.6094 1.2812-1.6094 1.5312 0 0.10938 0.10938 0.10938 0.125 0.10938 0.078125 0 0.10938-0.03125 0.125-0.10938 0.34375-1.0625 1-1.3125 1.3438-1.3125 0.1875 0 0.53125 0.09375 0.53125 0.67188 0 0.3125-0.17188 0.96875-0.53125 2.375-0.15625 0.60938-0.51562 1.0312-0.95312 1.0312-0.0625 0-0.28125 0-0.5-0.125 0.25-0.0625 0.46875-0.26562 0.46875-0.54688 0-0.26562-0.21875-0.34375-0.35938-0.34375-0.3125 0-0.54688 0.25-0.54688 0.57812 0 0.45312 0.48438 0.65625 0.92188 0.65625 0.67188 0 1.0312-0.70312 1.0469-0.75 0.125 0.35938 0.48438 0.75 1.0781 0.75 1.0312 0 1.5938-1.2812 1.5938-1.5312 0-0.10938-0.078125-0.10938-0.10938-0.10938-0.09375 0-0.10938 0.046875-0.14062 0.10938-0.32812 1.0781-1 1.3125-1.3125 1.3125-0.39062 0-0.54688-0.3125-0.54688-0.65625 0-0.21875 0.046875-0.4375 0.15625-0.875z" fill="#bc3754"/>
     </g>
    </g>
   </g>
   <g transform="translate(0 .47514)">
    <g transform="matrix(2.94 0 0 2.94 -285.68 -462.89)" stroke="#f98e09" stroke-width=".81282">
     <path transform="matrix(.43487 .25107 -.25107 .43487 79.509 101.02)" d="m194.99 108.18-19.205 11.025" clip-path="url(#f)" fill="none" stroke-linecap="round" stroke-linejoin="round"/>
     <path transform="matrix(.43487 .25107 -.25107 .43487 79.509 101.02)" d="m183.04 115.04 3.3949-5.1272 2.6115 4.8573z" clip-path="url(#f)" fill="#f98e09"/>
    </g>
    <g transform="matrix(1.4695 0 0 1.4695 124.88 111.59)" fill="#f98e09" ns10:alignment="middle center" ns10:inkscapeversion="1.2.1" ns10:jacobian_sqrt="1.0" ns10:pdfconverter="inkscape" ns10:preamble="/Users/tom/Library/Application Support/org.inkscape.Inkscape/config/inkscape/extensions/textext/default_packages.tex" ns10:scale="1.0" ns10:stroke-to-path="0" ns10:texconverter="pdflatex" ns10:text="$$y$$" ns10:version="1.8.1">
     <defs stroke-width="0">
      <g stroke-width="0"></g>
     </defs>
     <g transform="translate(-303.3 -142.31)" fill="#f98e09" stroke-width=".81659">
      <g transform="translate(303 146.72)" fill="#f98e09" stroke-width=".81659">
       <path d="m4.8438-3.7969c0.046875-0.14062 0.046875-0.15625 0.046875-0.23438 0-0.17188-0.14062-0.26562-0.29688-0.26562-0.09375 0-0.25 0.0625-0.34375 0.20312-0.015625 0.0625-0.10938 0.35938-0.14062 0.54688-0.078125 0.25-0.14062 0.53125-0.20312 0.79688l-0.45312 1.7969c-0.03125 0.14062-0.46875 0.84375-1.125 0.84375-0.5 0-0.60938-0.4375-0.60938-0.8125 0-0.45312 0.17188-1.0781 0.5-1.9531 0.15625-0.40625 0.20312-0.51562 0.20312-0.71875 0-0.4375-0.3125-0.8125-0.8125-0.8125-0.95312 0-1.3125 1.4531-1.3125 1.5312 0 0.10938 0.09375 0.10938 0.10938 0.10938 0.10938 0 0.10938-0.03125 0.15625-0.1875 0.28125-0.9375 0.67188-1.2344 1.0156-1.2344 0.078125 0 0.25 0 0.25 0.3125 0 0.25-0.10938 0.51562-0.17188 0.70312-0.40625 1.0625-0.57812 1.625-0.57812 2.0938 0 0.89062 0.625 1.1875 1.2188 1.1875 0.39062 0 0.71875-0.17188 1-0.45312-0.125 0.51562-0.25 1.0156-0.64062 1.5469-0.26562 0.32812-0.64062 0.625-1.0938 0.625-0.14062 0-0.59375-0.03125-0.76562-0.42188 0.15625 0 0.29688 0 0.42188-0.125 0.10938-0.078125 0.20312-0.21875 0.20312-0.40625 0-0.3125-0.26562-0.34375-0.35938-0.34375-0.23438 0-0.5625 0.15625-0.5625 0.64062 0 0.5 0.4375 0.875 1.0625 0.875 1.0156 0 2.0469-0.90625 2.3281-2.0312z" fill="#f98e09" stroke-width=".81659"/>
      </g>
     </g>
    </g>
   </g>
   <g transform="matrix(2.94 0 0 2.94 -286.78 -465.99)" stroke="#57106e" stroke-width=".81282">
    <path transform="matrix(0 -.50215 .50215 0 66.539 310.1)" d="m214.19 141.26v-22.05" clip-path="url(#f)" fill="none" stroke-linecap="round" stroke-linejoin="round"/>
    <path transform="matrix(0 -.50215 .50215 0 66.539 310.1)" d="m214.19 127.45 2.6887 5.5566h-2.6887-2.6887z" clip-path="url(#f)" fill="#57106e"/>
   </g>
   <g transform="matrix(1.4695 0 0 1.4695 125.15 126.17)" fill="#57106e" stroke-width=".81659" ns10:alignment="middle center" ns10:inkscapeversion="1.2.1" ns10:jacobian_sqrt="1.0" ns10:pdfconverter="inkscape" ns10:preamble="/Users/tom/Library/Application Support/org.inkscape.Inkscape/config/inkscape/extensions/textext/default_packages.tex" ns10:scale="1.0" ns10:stroke-to-path="0" ns10:texconverter="pdflatex" ns10:text="$$z$$" ns10:version="1.8.1">
    <defs></defs>
    <g transform="translate(-303.51 -142.31)" fill="#57106e" stroke-width=".81659">
     <g transform="translate(303.09 146.72)" fill="#57106e" stroke-width=".81659">
      <path d="m1.3281-0.82812c0.53125-0.57812 0.82812-0.82812 1.1875-1.1406 0 0 0.60938-0.53125 0.96875-0.89062 0.95312-0.92188 1.1719-1.4062 1.1719-1.4531 0-0.09375-0.09375-0.09375-0.10938-0.09375-0.078125 0-0.09375 0.015625-0.15625 0.10938-0.29688 0.48438-0.5 0.64062-0.73438 0.64062-0.25 0-0.35938-0.15625-0.51562-0.32812-0.1875-0.21875-0.35938-0.42188-0.6875-0.42188-0.75 0-1.2031 0.92188-1.2031 1.1406 0 0.046875 0.03125 0.10938 0.10938 0.10938 0.09375 0 0.10938-0.046875 0.14062-0.10938 0.1875-0.46875 0.76562-0.46875 0.84375-0.46875 0.20312 0 0.39062 0.0625 0.625 0.14062 0.40625 0.15625 0.51562 0.15625 0.76562 0.15625-0.35938 0.42188-1.1875 1.1406-1.375 1.2969l-0.90625 0.84375c-0.67188 0.67188-1.0312 1.2344-1.0312 1.3125 0 0.09375 0.10938 0.09375 0.125 0.09375 0.078125 0 0.09375-0.015625 0.15625-0.125 0.23438-0.35938 0.53125-0.625 0.85938-0.625 0.21875 0 0.32812 0.09375 0.57812 0.375 0.15625 0.21875 0.34375 0.375 0.625 0.375 1 0 1.5781-1.2656 1.5781-1.5312 0-0.046875-0.046875-0.10938-0.125-0.10938-0.09375 0-0.10938 0.0625-0.14062 0.14062-0.23438 0.64062-0.875 0.82812-1.2031 0.82812-0.1875 0-0.375-0.0625-0.57812-0.125-0.34375-0.125-0.5-0.17188-0.70312-0.17188-0.015625 0-0.17188 0-0.26562 0.03125z" fill="#57106e" stroke-width=".81659"/>
     </g>
    </g>
   </g>
  </g>
 </g>
</svg>
