<?xml version="1.0" encoding="UTF-8" standalone="no"?>
<svg
   viewBox="0 0 2383.125 400"
   width="600"
   version="1.1"
   id="svg1714"
   sodipodi:docname="watch.svg"
   height="400"
   inkscape:version="1.2.1 (9c6d41e4, 2022-07-14)"
   xmlns:inkscape="http://www.inkscape.org/namespaces/inkscape"
   xmlns:sodipodi="http://sodipodi.sourceforge.net/DTD/sodipodi-0.dtd"
   xmlns="http://www.w3.org/2000/svg"
   xmlns:svg="http://www.w3.org/2000/svg">
  <sodipodi:namedview
     id="namedview1716"
     pagecolor="#ffffff"
     bordercolor="#000000"
     borderopacity="0.25"
     inkscape:showpageshadow="2"
     inkscape:pageopacity="0.0"
     inkscape:pagecheckerboard="0"
     inkscape:deskcolor="#d1d1d1"
     showgrid="false"
     inkscape:zoom="0.78337147"
     inkscape:cx="141.05696"
     inkscape:cy="-38.934275"
     inkscape:window-width="1390"
     inkscape:window-height="1205"
     inkscape:window-x="0"
     inkscape:window-y="25"
     inkscape:window-maximized="0"
     inkscape:current-layer="svg1714" />
  <defs
     id="defs1415">
    <radialGradient
       id="Dégradé_sans_nom_3"
       data-name="Dégradé sans nom 3"
       cx="635"
       cy="687"
       fx="260.17514"
       r="374.82999"
       gradientUnits="userSpaceOnUse">
      <stop
         offset="0.28"
         stop-color="lime"
         id="stop1402" />
      <stop
         offset="0.46"
         stop-color="#00b200"
         stop-opacity="0.7"
         id="stop1404" />
      <stop
         offset="0.65"
         stop-color="#006700"
         stop-opacity="0.4"
         id="stop1406" />
      <stop
         offset="0.82"
         stop-color="#002f00"
         stop-opacity="0.19"
         id="stop1408" />
      <stop
         offset="0.94"
         stop-color="#000d00"
         stop-opacity="0.05"
         id="stop1410" />
      <stop
         offset="1"
         stop-opacity="0"
         id="stop1412" />
    </radialGradient>

   <filter id="ledcolor">
   <feColorMatrix in="SourceGraphic" type="matrix"
                  values=" 0      1      0      0 0
                           1      0      0      0 0 
                           0      0      0      0 0 
                           0      0      0      1 0  "/>

   </filter>
  </defs>
  <g
     id="Calque"
     transform="translate(556.0625,-455.5)">
    <g
       id="Contours">
      <path
         id="btn3"
         d="m 1226,777 h 39.08 a 5.92,5.92 0 0 1 5.92,5.92 v 58.16 a 5.92,5.92 0 0 1 -5.92,5.92 H 1226 Z"
         style="fill:#999999" />
      <path
         id="btn2"
         d="m 2593.5,686 h 39.08 a 5.92,5.92 0 0 1 5.92,5.92 v 58.16 a 5.92,5.92 0 0 1 -5.92,5.92 h -39.08 z"
         transform="rotate(180,1319.25,766.5)"
         style="fill:#999999" />
      <path
         id="btn1"
         d="m 2593.5,386 h 39.08 a 5.92,5.92 0 0 1 5.92,5.92 v 58.16 a 5.92,5.92 0 0 1 -5.92,5.92 h -39.08 z"
         transform="rotate(180,1319.25,466.5)"
         style="fill:#999999" />
      <path
         id="Contour_1"
         data-name="Contour 1"
         d="m 2855,-91 h 752 c 16,0 17,13 17,13 l 35,112 c 5,14 6,13 6,13 l 122,206 a 23,23 0 0 0 6,7 l 25,24 a 31.37,31.37 0 0 1 9,17 l 13,187 c 0,16 -8,19 -8,19 l -29,24 c 2,46 0,84 0,84 l 28,21 c 6,5 6,15 6,15 l -13,187 c -1,12 -7,16 -7,16 l -32,30 a 39.08,39.08 0 0 0 -4,5 l -121,206 v 0 a 107.12,107.12 0 0 0 -6,12 l -37,101 a 19.32,19.32 0 0 1 -17,12 h -732 c -21,0 -24,-12 -24,-12 l -37,-99 a 123.46,123.46 0 0 0 -8,-18 L 2679,888 c -4,-6 -12,-12 -12,-12 l -22,-21 c -9,-9 -8,-19 -8,-19 l -15,-182 c -1,-10 4,-14 4,-14 l 30,-27 v -81 l -28,-24 a 24.69,24.69 0 0 1 -7,-16 l 13,-190 c 1,-11 7,-15 7,-15 l 34,-33 c 6,-5 7,-9 7,-9 L 2792,52 c 7,-10 9,-18 9,-18 l 36,-111 c 3,-14 18,-14 18,-14 z"
         transform="translate(-2593.5,91)"
         style="fill:#333333" />
      <path
         id="Contour_2"
         data-name="Contour 2"
         d="m 2799,1060 c 18.5,26.5 37,27 37,27 455.44,18.42 790,0 790,0 0,0 24,0 41,-29 l 86,-154 c 0,0 16.5,-20.5 20,-55 30,-295.67 1,-557 1,-557 0,0 1,-17 -13,-47 L 3672,87 c -14,-23 -37,-22 -37,-22 -389.5,-13.5 -809,0 -809,0 -29,1 -37,24 -37,24 l -87,153 a 119.3,119.3 0 0 0 -17,48 c -24.58,335.84 3,569 3,569 4.5,16.5 17.86,37.6 17.86,37.6 z"
         transform="translate(-2593.5,91)"
         style="fill:#3d3d3d" />
      <g
         id="Contour_centre"
         data-name="Contour centre">
        <path
           d="M 3712.11,308.15 C 3711,283 3693,258 3693,258 l -43,-69 c -20,-34 -60,-35 -60,-35 -360,-13 -725,1 -725,1 -33.26,1.17 -49,25 -49,25 l -53,84 c -15,25 -17,46 -17,46 -22,287 -1,518 -1,518 3,30 21,56 21,56 l 42,72 c 23,37 60,40 60,40 392,15 716.5,0.5 716.5,0.5 C 3633,992 3653,953 3653,953 l 43,-73 c 0,0 10,-13.87 13.5,-43.5 29.5,-249.5 2.61,-528.35 2.61,-528.35 z M 3570,728.32 A 34.68,34.68 0 0 1 3535.32,763 H 2921.68 A 34.68,34.68 0 0 1 2887,728.32 V 463.68 A 34.68,34.68 0 0 1 2921.68,429 h 613.64 a 34.68,34.68 0 0 1 34.68,34.68 z"
           transform="translate(-2593.5,91)"
           style="fill:#333333"
           id="path1422" />
      </g>
      <path
         id="Contour_bleu"
         data-name="Contour bleu"
         d="m 2886.5,193.5 c -30.78,1.07 -51,26 -51,26 a 719.08,719.08 0 0 0 -43,69 107.83,107.83 0 0 0 -12,45 c -20.17,253.56 2,489 2,489 1.06,24.61 18,53 18,53 17,32 39,58 39,58 16,23 47,25 47,25 373.59,13.91 680,1 680,1 37,0 59,-36 59,-36 17,-25.68 35,-58 35,-58 a 94.2,94.2 0 0 0 12,-38 c 20.17,-223.6 1,-496 1,-496 -1,-27 -15,-49 -15,-49 -15.92,-30 -37,-63 -37,-63 -14,-23 -50,-26 -50,-26 -364.04,-13.91 -685,0 -685,0 z"
         transform="translate(-2593.5,91)"
         style="fill:none;stroke:#0e57a9;stroke-width:16px;stroke-miterlimit:10" />
      <path
         id="Contour_blanc"
         data-name="Contour blanc"
         d="m 2894.5,217.5 c -29,1 -41,22 -41,22 -23,32 -40,68 -40,68 a 103.23,103.23 0 0 0 -6,31 c -19,237 2,476 2,476 1,23 13,43 13,43 15,30 37,58 37,58 10,14 34,16 34,16 352,13 667,1 667,1 29,-1 41,-21 41,-21 16,-24 31,-49 31,-49 14,-24 15,-43 15,-43 19,-209 1,-478 1,-478 -1,-27 -10,-43 -10,-43 -15,-28 -37,-60 -37,-60 -10,-16 -30,-19 -30,-19 -343,-13 -677,-2 -677,-2 z"
         transform="translate(-2593.5,91)"
         style="fill:none;stroke:#ffffff;stroke-width:3px;stroke-miterlimit:10" />
      <g
         id="Contour_ecran"
         data-name="Contour ecran">
        <path
           d="m 3539,416 a 45.1,45.1 0 0 1 45,45.05 V 733 a 45.1,45.1 0 0 1 -45,45 H 2918.1 A 45.1,45.1 0 0 1 2873,733 V 461.05 A 45.1,45.1 0 0 1 2918.05,416 H 3539 m 0,-3 H 2918.1 A 48,48 0 0 0 2870,461.05 V 733 a 48,48 0 0 0 48.05,48 H 3539 a 48,48 0 0 0 48,-48 V 461.05 A 48,48 0 0 0 3539,413 Z"
           transform="translate(-2593.5,91)"
           style="fill:#ffffff"
           id="path1427" />
      </g>
      <g
         id="Ecran">
        <rect
           x="293.5"
           y="520"
           width="683"
           height="334"
           rx="34.68"
           style="fill:#777b7a"
           id="rect1430" />
      </g>
      <g
         id="light"
         style="opacity:0">
        <rect
           x="293.5"
           y="520"
           width="683"
           height="334"
           rx="34.68"
           style="fill:url(#D%C3%A9grad%C3%A9_sans_nom_3)"
           filter="url(#ledcolor)"
           id="rect1433" />
      </g>
    </g>
    <g
       id="Textes">
      <g
         id="g1449">
        <path
           d="m 3379.84,864.39 h 20.51 q 7.28,0 10.5,1.71 c 2.16,1.12 3.23,3.2 3.23,6.24 v 1 a 4.21,4.21 0 0 1 -0.12,1 6.3,6.3 0 0 1 -0.67,2.12 4.16,4.16 0 0 1 -1.87,1.72 7.5,7.5 0 0 1 -1.67,0.62 c -0.62,0.15 -1.24,0.28 -1.87,0.38 l -0.73,0.1 c -0.23,0 -0.47,0.07 -0.73,0.09 v 0.12 a 10.14,10.14 0 0 1 5.45,1.46 4.14,4.14 0 0 1 1.71,3.53 V 890 h -8.17 v -4.65 l 0.06,-0.57 a 2.67,2.67 0 0 0 -1.8,-2.61 12.68,12.68 0 0 0 -4.59,-0.69 h -11.39 V 890 h -7.85 z m 19.24,13 c 2.49,0 4.23,-0.26 5.22,-0.87 a 3.29,3.29 0 0 0 1.49,-3.05 6,6 0 0 0 -0.85,-3.55 c -0.57,-0.78 -2.36,-1.17 -5.35,-1.17 h -11.9 v 8.64 z"
           transform="translate(-2593.5,91)"
           style="fill:#ffffff"
           id="path1437" />
        <path
           d="m 3426.36,875.15 h 19.81 v 3.57 h -19.81 V 886 h 21 v 4 h -28.87 v -25.61 h 28.68 v 4.08 h -20.83 z"
           transform="translate(-2593.5,91)"
           style="fill:#ffffff"
           id="path1439" />
        <path
           d="m 3476.68,871.88 a 3,3 0 0 0 -1.51,-3 12.78,12.78 0 0 0 -5.26,-0.77 h -2.21 c -0.38,0 -0.8,0 -1.24,0 -0.44,0 -0.88,0 -1.3,0 a 19.65,19.65 0 0 0 -2,0.17 8.6,8.6 0 0 0 -1.77,0.4 2.55,2.55 0 0 0 -1.14,0.79 3.36,3.36 0 0 0 -0.57,1.07 3,3 0 0 1 0,0.43 1.94,1.94 0 0 0 0,0.4 2.76,2.76 0 0 0 1.24,2.63 10.64,10.64 0 0 0 4.52,0.83 6,6 0 0 1 0.61,0 h 0.6 1.61 c 0.53,0 1,0 1.55,0 a 62.72,62.72 0 0 1 11,1.06 q 4.76,0.95 4.75,6.07 a 8.23,8.23 0 0 1 -1.71,5.37 c -1.14,1.4 -3.78,2.22 -7.91,2.48 l -2,0.06 c -0.65,0 -1.29,0 -1.93,0.06 -0.64,0.06 -1.34,0 -2,0 h -2 a 58,58 0 0 1 -11.87,-1 q -4.59,-1 -4.59,-6.3 v -0.25 a 0.54,0.54 0 0 1 0.06,-0.25 v -0.5 h 7.66 a 5.67,5.67 0 0 0 0.79,3.08 c 0.53,0.85 2,1.29 4.34,1.31 1,0 2,0 3,0 h 3 a 16.05,16.05 0 0 0 5.45,-0.67 q 1.71,-0.68 1.71,-3 0,-2.54 -2.19,-3 a 28.79,28.79 0 0 0 -5.6,-0.5 h -1.26 c -0.43,0 -0.87,0 -1.33,0 h -0.67 q -0.35,0 -0.66,-0.06 a 45.92,45.92 0 0 1 -10.48,-1.36 q -3.77,-1.1 -3.77,-6.17 a 5.83,5.83 0 0 1 2.28,-4.95 q 2.28,-1.72 7.79,-2 c 1.1,-0.05 2.2,-0.09 3.32,-0.11 1.12,-0.02 2.23,0 3.33,0 a 66.79,66.79 0 0 1 11.33,0.84 c 3.2,0.57 4.81,2.49 4.81,5.76 v 1 z"
           transform="translate(-2593.5,91)"
           style="fill:#ffffff"
           id="path1441" />
        <path
           d="m 3498,890 h -8.1 v -25.61 h 8.1 z"
           transform="translate(-2593.5,91)"
           style="fill:#ffffff"
           id="path1443" />
        <path
           d="m 3527.89,871.88 a 3,3 0 0 0 -1.52,-3 12.69,12.69 0 0 0 -5.25,-0.77 h -2.21 c -0.38,0 -0.8,0 -1.24,0 -0.44,0 -0.88,0 -1.3,0 a 19.65,19.65 0 0 0 -2,0.17 8.6,8.6 0 0 0 -1.77,0.4 2.55,2.55 0 0 0 -1.14,0.79 3.36,3.36 0 0 0 -0.57,1.07 3,3 0 0 1 0,0.43 2.91,2.91 0 0 0 0,0.4 2.76,2.76 0 0 0 1.24,2.63 10.64,10.64 0 0 0 4.52,0.83 5.82,5.82 0 0 1 0.6,0 h 0.61 1.61 c 0.53,0 1,0 1.55,0 a 62.72,62.72 0 0 1 11,1.06 q 4.76,0.95 4.75,6.07 a 8.23,8.23 0 0 1 -1.71,5.37 c -1.14,1.4 -3.78,2.22 -7.91,2.48 l -2,0.06 c -0.65,0 -1.29,0 -1.93,0.06 -0.64,0.06 -1.34,0 -2,0 h -2 a 58,58 0 0 1 -11.86,-1 q -4.59,-1 -4.59,-6.3 v -0.25 a 0.54,0.54 0 0 1 0.06,-0.25 v -0.5 h 7.66 a 5.67,5.67 0 0 0 0.79,3.08 c 0.53,0.85 2,1.29 4.34,1.31 1,0 2,0 3,0 h 3 a 16.05,16.05 0 0 0 5.45,-0.67 q 1.71,-0.68 1.71,-3 0,-2.54 -2.19,-3 a 28.79,28.79 0 0 0 -5.6,-0.5 h -1.27 c -0.42,0 -0.86,0 -1.33,0 h -0.66 q -0.35,0 -0.66,-0.06 a 45.92,45.92 0 0 1 -10.48,-1.36 q -3.77,-1.1 -3.77,-6.17 a 5.83,5.83 0 0 1 2.28,-4.95 q 2.28,-1.72 7.79,-2 c 1.09,-0.05 2.2,-0.09 3.32,-0.11 1.12,-0.02 2.23,0 3.32,0 a 66.63,66.63 0 0 1 11.33,0.84 q 4.82,0.86 4.82,5.76 v 1 z"
           transform="translate(-2593.5,91)"
           style="fill:#ffffff"
           id="path1445" />
        <path
           d="m 3557.9,890 h -8.17 v -21.27 h -12.22 v -4.34 h 32.79 v 4.34 h -12.4 z"
           transform="translate(-2593.5,91)"
           style="fill:#ffffff"
           id="path1447" />
      </g>
      <g
         id="WR">
        <path
           id="R"
           d="m 3300,854 h -43 a 3.55,3.55 0 0 0 -3,2 l -20,37 c 0,0 -1,2 2,2 h 8 a 4.94,4.94 0 0 0 3,-1 l 6,-9 a 4.33,4.33 0 0 1 4,-2 h 22 a 6.19,6.19 0 0 1 4,2 l 6,8 a 4.33,4.33 0 0 0 4,2 h 8 c 0,0 3,0 2,-2 l -5,-6 c 0,0 -6,-5 1,-7 l 7.38,-3.69 a 8.49,8.49 0 0 0 4.07,-4.36 C 3312.86,866.12 3316,854 3300,854 Z m -5,18 a 6.19,6.19 0 0 1 -4,2 h -27 c -6,0 -4,-3 -4,-3 l 1,-2 2,-4 a 6.46,6.46 0 0 1 5,-3 h 23 c 8,0 7.2,6.8 4,10 z"
           transform="translate(-2593.5,91)"
           style="fill:#771217" />
        <path
           id="W"
           d="m 3156,854 c 0,0 2,0 3,3 l 9,26 c 2,3 4,0 4,0 l 13,-27 v 0 a 3.55,3.55 0 0 1 3,-2 h 8 a 3.7,3.7 0 0 1 3,2 l 9,25 v 0 c 2,4 4,0 4,0 l 14,-25 v 0 c 1,-2 2,-2 2,-2 h 9 c 3,0 1,3 1,3 l -20,36 v 0 a 6.19,6.19 0 0 1 -4,2 h -8 c -3,0 -4,-3 -4,-3 l -8,-24 c -3,-6 -5,0 -5,0 l -12,25 a 3.55,3.55 0 0 1 -3,2 h -10 c -2,0 -3,-3 -3,-3 l -15,-35 c -1,-3 1,-3 1,-3 h 9"
           transform="translate(-2593.5,91)"
           style="fill:#771217" />
      </g>
      <g
         id="WATER">
        <g
           id="g1460">
          <path
             d="m 2994.68,890 h -8.17 v -21.27 h -12.22 v -4.34 h 32.79 v 4.34 h -12.4 z"
             transform="translate(-2593.5,91)"
             style="fill:#ffffff"
             id="path1454" />
          <path
             d="m 3016.83,875.15 h 19.81 v 3.57 h -19.81 V 886 h 21 v 4 H 3009 v -25.61 h 28.68 v 4.08 h -20.83 z"
             transform="translate(-2593.5,91)"
             style="fill:#ffffff"
             id="path1456" />
          <path
             d="m 3043.54,864.39 h 20.51 q 7.27,0 10.51,1.71 3.24,1.71 3.23,6.24 v 1 a 4.22,4.22 0 0 1 -0.13,1 6.51,6.51 0 0 1 -0.66,2.12 4.21,4.21 0 0 1 -1.87,1.72 7.78,7.78 0 0 1 -1.68,0.62 c -0.61,0.15 -1.23,0.28 -1.87,0.38 l -0.72,0.1 c -0.24,0 -0.48,0.07 -0.73,0.09 v 0.12 a 10.1,10.1 0 0 1 5.44,1.46 4.14,4.14 0 0 1 1.71,3.53 V 890 h -8.17 v -4.65 l 0.07,-0.57 a 2.7,2.7 0 0 0 -1.81,-2.61 12.68,12.68 0 0 0 -4.59,-0.69 h -11.39 V 890 h -7.85 z m 19.24,13 c 2.49,0 4.23,-0.26 5.23,-0.87 a 3.28,3.28 0 0 0 1.48,-3.05 6,6 0 0 0 -0.85,-3.55 q -0.85,-1.17 -5.35,-1.17 h -11.9 v 8.64 z"
             transform="translate(-2593.5,91)"
             style="fill:#ffffff"
             id="path1458" />
        </g>
        <path
           d="m 2951,885.1 -2.6,4.9 h -8.4 l 14,-25.61 h 11.9 L 2980.24,890 H 2972 l -2.73,-4.91 z m 9.12,-16.94 -7.22,13.29 h 14.56 z"
           transform="translate(-2593.5,91)"
           style="fill:#ffffff"
           id="path1462" />
        <path
           d="m 2934,890 h -9.79 l -7,-19.55 h -0.16 L 2909.8,890 h -9.63 L 2891,864.39 h 6.74 l 7.31,21.59 h 0.21 l 8.05,-21.59 h 7.74 l 8,21.59 7.63,-21.59 h 6.79 z"
           transform="translate(-2593.5,91)"
           style="fill:#ffffff"
           id="path1464" />
      </g>
      <g
         id="ALARM_ON"
         data-name="ALARM ON">
        <g
           id="g1475">
          <path
             d="m 3465.8,817.11 v 1.58 h -19 v -3.12 c 0,-1.75 0.54,-2.89 1.63,-3.43 1.09,-0.54 3.65,-1 7.7,-1.25 3.25,-0.23 5.21,-0.53 5.88,-0.92 0.67,-0.39 1,-1.4 1,-3 0,-1.43 -0.38,-2.35 -1.13,-2.77 -0.75,-0.42 -2.4,-0.64 -4.94,-0.64 q -4.74,0 -6,0.51 c -0.83,0.35 -1.25,1.17 -1.25,2.49 v 1.23 h -2.92 v -0.86 c 0,-2 0.67,-3.3 2,-4 1.33,-0.7 4,-1 8,-1 q 5.32,0 7.16,1.07 c 1.23,0.71 1.84,2.1 1.84,4.16 0,2.06 -0.57,3.31 -1.71,4 -1.14,0.69 -3.62,1.12 -7.43,1.35 -3.35,0.21 -5.34,0.51 -6,0.88 -0.66,0.37 -1,1.42 -1,3.16 v 0.56 z"
             transform="translate(-2593.5,91)"
             style="fill:#ffffff"
             id="path1467" />
          <path
             d="m 3486.12,802.13 v 11.16 h 3.94 v 1.58 h -3.94 v 3.82 h -3 v -3.82 h -14.76 v -2.2 l 13.14,-10.54 z m -3,11.16 v -10 h -0.06 l -12.25,10 z"
             transform="translate(-2593.5,91)"
             style="fill:#ffffff"
             id="path1469" />
          <path
             d="m 3513.9,802.13 v 16.56 h -3 V 811 h -15.42 v 7.68 h -3 v -16.55 h 3 v 7.3 h 15.42 v -7.3 z"
             transform="translate(-2593.5,91)"
             style="fill:#ffffff"
             id="path1471" />
          <path
             d="m 3517.32,818.69 v -16.56 h 12.56 q 4.24,0 6,1.06 a 3.92,3.92 0 0 1 1.73,3.66 4.35,4.35 0 0 1 -0.94,3.2 6.32,6.32 0 0 1 -3.61,1.17 v 0 q 4.18,0.19 4.19,3.21 v 4.23 h -3 v -3.81 q 0,-2.89 -4,-2.9 h -10 v 6.71 z m 3,-8.29 h 8.59 a 11.06,11.06 0 0 0 4.64,-0.65 2.5,2.5 0 0 0 1.24,-2.44 c 0,-1.49 -0.31,-2.47 -0.92,-2.92 -0.61,-0.45 -1.92,-0.68 -3.93,-0.68 h -9.62 z"
             transform="translate(-2593.5,91)"
             style="fill:#ffffff"
             id="path1473" />
        </g>
        <path
           id="_"
           data-name="/"
           d="m 3421.46,808 h 19.33 a 1.24,1.24 0 0 1 1.24,1.24 v 0.72 a 1.19,1.19 0 0 1 -1.19,1.19 H 3422 a 1.83,1.83 0 0 1 -1.83,-1.83 v 0 a 1.32,1.32 0 0 1 1.32,-1.32 z"
           transform="rotate(-55.74,2220.3178,3307.2956)"
           style="fill:#ffffff" />
        <g
           id="g1484">
          <path
             d="m 3366.82,801 q 7.47,0 9.35,1.37 c 1.25,0.92 1.87,3.2 1.87,6.86 q 0,5.89 -1.79,7.28 -1.79,1.39 -9.43,1.39 -7.59,0 -9.42,-1.37 -1.83,-1.37 -1.82,-7.09 v -1.16 -1.57 c 0,-2.19 0.78,-3.7 2.36,-4.5 1.58,-0.8 4.56,-1.21 8.88,-1.21 z m 0,1.58 q -6.26,0 -7.32,0.87 -1.06,0.87 -1.06,6 c 0,3.42 0.35,5.43 1.06,6 0.71,0.57 3.15,0.87 7.32,0.87 4.17,0 6.63,-0.29 7.34,-0.87 0.71,-0.58 1.06,-2.59 1.06,-6 v -1.08 -1.56 q 0,-2.75 -1.47,-3.48 c -1.01,-0.54 -3.32,-0.79 -6.95,-0.79 z"
             transform="translate(-2593.5,91)"
             style="fill:#ffffff"
             id="path1478" />
          <path
             d="m 3384.42,802.71 v 5.78 h 12.84 v 1.58 h -12.84 v 7.62 h -3 v -16.56 h 16.17 v 1.58 z"
             transform="translate(-2593.5,91)"
             style="fill:#ffffff"
             id="path1480" />
          <path
             d="m 3403.75,802.71 v 5.78 h 12.85 v 1.58 h -12.85 v 7.62 h -3 v -16.56 h 16.16 v 1.58 z"
             transform="translate(-2593.5,91)"
             style="fill:#ffffff"
             id="path1482" />
        </g>
        <rect
           id="_."
           data-name="."
           x="3341.2"
           y="806.08002"
           width="6.8699999"
           height="6.7199998"
           rx="3.3599999"
           transform="rotate(-90,2093.39,2151.69)"
           style="fill:#ffffff" />
        <g
           id="g1491">
          <path
             d="m 3294.82,801 q 7.47,0 9.35,1.37 c 1.25,0.92 1.87,3.2 1.87,6.86 q 0,5.89 -1.79,7.28 -1.79,1.39 -9.43,1.39 -7.59,0 -9.42,-1.37 -1.83,-1.37 -1.82,-7.09 v -1.16 -1.57 c 0,-2.19 0.78,-3.7 2.36,-4.5 1.58,-0.8 4.56,-1.21 8.88,-1.21 z m 0,1.58 q -6.26,0 -7.32,0.87 -1.06,0.87 -1.06,6 c 0,3.42 0.35,5.43 1.06,6 0.71,0.57 3.15,0.87 7.32,0.87 4.17,0 6.63,-0.29 7.34,-0.87 0.71,-0.58 1.06,-2.59 1.06,-6 v -1.08 -1.56 q 0,-2.75 -1.47,-3.48 c -1.01,-0.54 -3.32,-0.79 -6.95,-0.79 z"
             transform="translate(-2593.5,91)"
             style="fill:#ffffff"
             id="path1487" />
          <path
             d="m 3332,801.13 v 16.56 h -4.88 l -11,-11.27 -1.8,-1.86 -0.89,-0.92 -0.88,-0.92 h -0.08 v 0.62 0.63 13.72 h -3 v -16.56 h 4.87 l 9.66,9.87 2.51,2.6 1.25,1.29 1.24,1.29 h 0.08 v -0.61 -0.64 -13.8 z"
             transform="translate(-2593.5,91)"
             style="fill:#ffffff"
             id="path1489" />
        </g>
        <g
           id="g1503">
          <path
             d="M 3153.39,814.18 H 3140 l -2,3.51 h -3.15 l 9.66,-16.56 h 4.17 l 9.85,16.56 h -3.11 z m -0.87,-1.4 -5.86,-10.12 -5.77,10.12 z"
             transform="translate(-2593.5,91)"
             style="fill:#ffffff"
             id="path1493" />
          <path
             d="M 3164.22,801.13 V 816 h 13.56 v 1.74 h -16.53 v -16.61 z"
             transform="translate(-2593.5,91)"
             style="fill:#ffffff"
             id="path1495" />
          <path
             d="m 3196.64,814.18 h -13.35 l -2,3.51 h -3.15 l 9.66,-16.56 h 4.17 l 9.85,16.56 h -3.11 z m -0.87,-1.4 -5.86,-10.12 -5.77,10.12 z"
             transform="translate(-2593.5,91)"
             style="fill:#ffffff"
             id="path1497" />
          <path
             d="m 3204.5,817.69 v -16.56 h 12.55 c 2.84,0 4.83,0.35 6,1.06 a 3.92,3.92 0 0 1 1.74,3.66 4.35,4.35 0 0 1 -1,3.2 6.29,6.29 0 0 1 -3.61,1.17 v 0 c 2.8,0.13 4.19,1.2 4.19,3.21 v 4.23 h -3 v -3.81 q 0,-2.89 -4,-2.9 h -10 v 6.71 z m 3,-8.29 h 8.6 a 11,11 0 0 0 4.63,-0.65 2.48,2.48 0 0 0 1.24,-2.44 c 0,-1.49 -0.31,-2.47 -0.92,-2.92 -0.61,-0.45 -1.92,-0.68 -3.93,-0.68 h -9.62 z"
             transform="translate(-2593.5,91)"
             style="fill:#ffffff"
             id="path1499" />
          <path
             d="m 3258.08,801.13 v 16.56 h -3 v -14.24 -0.5 -0.5 H 3255 l -0.23,0.39 -0.24,0.38 -0.5,0.77 -9,13.7 h -3 l -9,-13.54 -0.52,-0.76 -0.23,-0.39 a 4.09,4.09 0 0 1 -0.23,-0.38 h -0.08 v 0.45 0.46 14.16 h -3 v -16.56 h 5.15 l 7,10.71 1.13,1.74 0.55,0.86 0.55,0.86 h 0.07 l 0.54,-0.86 c 0.27,-0.41 0.46,-0.7 0.54,-0.86 l 1.14,-1.73 7,-10.72 z"
             transform="translate(-2593.5,91)"
             style="fill:#ffffff"
             id="path1501" />
        </g>
      </g>
      <g
         id="g1514">
        <path
           d="m 2948.12,801.13 v 16.56 h -3 v -14.24 -0.5 -0.5 h -0.08 l -0.23,0.39 -0.23,0.38 -0.5,0.77 -9,13.7 h -3 l -9,-13.54 -0.52,-0.76 -0.24,-0.39 a 4.09,4.09 0 0 1 -0.23,-0.38 h -0.07 v 0.45 0.46 14.16 h -3 v -16.56 h 5.16 l 7,10.71 1.12,1.74 0.56,0.86 0.54,0.86 h 0.08 l 0.54,-0.86 c 0.27,-0.41 0.45,-0.7 0.54,-0.86 l 1.14,-1.73 7,-10.72 z"
           transform="translate(-2593.5,91)"
           style="fill:#ffffff"
           id="path1506" />
        <path
           d="m 2962.76,801 q 7.47,0 9.35,1.37 c 1.25,0.92 1.87,3.2 1.87,6.86 q 0,5.89 -1.8,7.28 c -1.19,0.93 -4.34,1.39 -9.42,1.39 -5.08,0 -8.2,-0.46 -9.42,-1.37 -1.22,-0.91 -1.82,-3.28 -1.82,-7.09 v -1.16 -1.57 c 0,-2.19 0.79,-3.7 2.37,-4.5 1.58,-0.8 4.55,-1.21 8.87,-1.21 z m 0,1.58 q -6.25,0 -7.32,0.87 -1.07,0.87 -1.07,6 c 0,3.42 0.36,5.43 1.07,6 0.71,0.57 3.15,0.87 7.32,0.87 4.17,0 6.63,-0.29 7.34,-0.87 0.71,-0.58 1.06,-2.59 1.06,-6 v -1.08 -1.56 q 0,-2.75 -1.47,-3.48 -1.47,-0.73 -6.95,-0.79 z"
           transform="translate(-2593.5,91)"
           style="fill:#ffffff"
           id="path1508" />
        <path
           d="m 2977.38,817.69 v -16.56 h 12.21 q 5.65,0 7.67,1.57 2.02,1.57 2,6 0,5.38 -1.79,7.19 -1.79,1.81 -7.14,1.81 z m 3,-1.58 h 8.62 q 4.74,0 6.1,-1.19 1.36,-1.19 1.38,-5.3 0,-4.51 -1.19,-5.71 -1.19,-1.2 -5.69,-1.2 h -9.19 z"
           transform="translate(-2593.5,91)"
           style="fill:#ffffff"
           id="path1510" />
        <path
           d="m 3005.14,802.71 v 5.64 h 13.38 v 1.58 h -13.38 v 6.18 h 14 v 1.58 h -16.94 v -16.56 h 16.94 v 1.58 z"
           transform="translate(-2593.5,91)"
           style="fill:#ffffff"
           id="path1512" />
      </g>
      <g
         id="g1526">
        <path
           d="M 2920.16,374.13 V 389 h 13.55 v 1.74 h -16.53 v -16.61 z"
           transform="translate(-2593.5,91)"
           style="fill:#ffffff"
           id="path1516" />
        <path
           d="m 2939.34,374.13 v 16.56 h -3 v -16.56 z"
           transform="translate(-2593.5,91)"
           style="fill:#ffffff"
           id="path1518" />
        <path
           d="m 2953.82,382.45 h 11.3 a 16.4,16.4 0 0 1 0.08,1.81 q 0,4.47 -1.75,5.54 c -1.16,0.7 -4.2,1.06 -9.12,1.06 q -7,0 -9,-1.26 c -1.32,-0.83 -2,-2.71 -2,-5.63 v -2.44 -1.47 q 0,-3.68 2.21,-4.88 2.21,-1.2 8.92,-1.22 6.72,0 8.67,0.8 1.95,0.8 1.95,3.54 v 0.64 h -2.91 v -0.42 c 0,-1.35 -0.44,-2.18 -1.33,-2.5 -0.89,-0.32 -3.18,-0.48 -6.9,-0.48 q -5.16,0 -6.45,0.77 c -0.87,0.51 -1.3,1.8 -1.3,3.85 v 2.2 2.36 c 0,2.09 0.48,3.37 1.44,3.85 0.96,0.48 3.52,0.71 7.68,0.71 q 4.77,0 5.9,-0.68 c 0.75,-0.45 1.13,-1.64 1.13,-3.55 a 7.07,7.07 0 0 0 -0.15,-1 h -8.39 z"
           transform="translate(-2593.5,91)"
           style="fill:#ffffff"
           id="path1520" />
        <path
           d="m 2990.27,374.13 v 16.56 h -3 V 383 h -15.42 v 7.68 h -3 v -16.55 h 3 v 7.3 h 15.42 v -7.3 z"
           transform="translate(-2593.5,91)"
           style="fill:#ffffff"
           id="path1522" />
        <path
           d="m 3004.47,375.87 v 14.82 h -3 v -14.82 h -8.6 v -1.74 H 3013 v 1.74 z"
           transform="translate(-2593.5,91)"
           style="fill:#ffffff"
           id="path1524" />
      </g>
      <g
         id="g1550">
        <path
           d="m 3293.74,382.93 h 5.26 a 5.92,5.92 0 0 0 0,0.61 c 0,0.19 0,0.36 0,0.53 a 5.24,5.24 0 0 0 0,0.56 c 0,0.19 0,0.38 0,0.57 0,3.19 -1,5.24 -2.84,6.18 a 16.29,16.29 0 0 1 -7.2,1.39 h -3.74 c -3.95,0 -6.55,-0.93 -7.81,-2.81 -1.26,-1.88 -1.89,-4.56 -1.89,-8 0,-0.32 0,-0.65 0,-1 0,-0.35 0,-0.67 0,-1 0,-0.33 0,-0.33 0,-0.49 a 3.93,3.93 0 0 1 0,-0.49 c 0,-0.48 0,-1 0,-1.48 0,-0.48 0,-1 0,-1.47 0,-4.54 1.06,-7.43 3.16,-8.67 2.1,-1.24 5.26,-1.86 9.49,-1.86 h 1.8 c 0.2,0 0.39,0 0.57,0 h 0.57 a 16,16 0 0 1 3.63,0.56 5,5 0 0 1 2.84,2.11 5.62,5.62 0 0 1 1,2.29 15.86,15.86 0 0 1 0.28,2.45 3,3 0 0 0 0,0.42 c 0,0.15 0,0.29 0,0.43 a 3.85,3.85 0 0 0 0,0.48 c 0,0.17 0,0.33 0,0.49 h -5.33 a 1.86,1.86 0 0 1 -0.11,-0.57 c 0,-0.21 0,-0.43 -0.06,-0.64 v -0.29 a 6.07,6.07 0 0 0 -0.44,-2.08 c -0.27,-0.64 -1.13,-1 -2.59,-1.08 a 9.39,9.39 0 0 0 -1.19,-0.08 H 3287 a 6.91,6.91 0 0 1 -0.8,0 c -0.28,0 -0.56,0 -0.84,0 a 12.86,12.86 0 0 0 -1.79,0.3 2.94,2.94 0 0 0 -1.36,0.71 3.18,3.18 0 0 0 -0.74,1.18 5.22,5.22 0 0 0 -0.27,1.35 5,5 0 0 0 -0.06,0.56 5.25,5.25 0 0 0 0,0.56 l -0.06,1.28 c 0,0.41 0,0.84 0,1.27 0,0.87 0,1.74 0,2.61 l 0.06,2.62 c 0,2.7 0.51,4.36 1.43,5 0.92,0.64 2.72,0.95 5.38,0.95 a 15,15 0 0 0 4.09,-0.49 c 1.17,-0.32 1.75,-1.4 1.75,-3.24 v -0.85 a 1.87,1.87 0 0 1 0,-0.42 v -0.47 z"
           transform="translate(-2593.5,91)"
           style="fill:#b6a66e"
           id="path1528" />
        <path
           d="m 3327.84,392.61 h -5.38 v -11.54 h -13.06 v 11.54 h -5.33 v -27 h 5.33 v 11 h 13.06 v -11 h 5.38 z"
           transform="translate(-2593.5,91)"
           style="fill:#b6a66e"
           id="path1530" />
        <path
           d="m 3334.47,365.6 h 13.61 c 3.22,0 5.55,0.63 7,1.8 1.45,1.17 2.15,3.37 2.15,6.58 v 1 a 6.23,6.23 0 0 1 -0.09,1.06 8.92,8.92 0 0 1 -0.44,2.22 3.92,3.92 0 0 1 -1.24,1.83 4.56,4.56 0 0 1 -1.11,0.65 11.18,11.18 0 0 1 -1.24,0.4 l -0.48,0.1 a 3.86,3.86 0 0 1 -0.49,0.1 v 0.12 a 5.1,5.1 0 0 1 3.62,1.54 5.63,5.63 0 0 1 1.13,3.73 v 5.87 h -5.42 v -4.9 -0.61 a 3.06,3.06 0 0 0 -1.19,-2.75 5.62,5.62 0 0 0 -3.05,-0.73 h -7.56 v 9 h -5.21 z m 12.77,13.65 a 4.92,4.92 0 0 0 3.47,-0.91 4.4,4.4 0 0 0 1,-3.22 9.58,9.58 0 0 0 -0.56,-3.75 c -0.38,-0.82 -1.56,-1.24 -3.55,-1.24 h -7.9 v 9.12 z"
           transform="translate(-2593.5,91)"
           style="fill:#b6a66e"
           id="path1532" />
        <path
           d="m 3362.32,379.45 q 0,-6.72 1.57,-10.37 1.57,-3.65 9.64,-3.64 a 27.5,27.5 0 0 1 8.64,1.24 q 3.75,1.24 4,7 c 0.05,0.59 0.09,1.18 0.1,1.78 0.01,0.6 0,1.2 0,1.82 v 1.77 c 0,5 -0.56,8.56 -1.7,10.65 -1.14,2.09 -4.71,3.13 -10.73,3.13 -4.23,0 -7.22,-0.68 -9,-2.06 -1.78,-1.38 -2.64,-4.23 -2.64,-8.55 v -0.73 a 5.79,5.79 0 0 1 0,-0.72 v -1.34 z m 5.46,-0.12 v 2.43 c 0,0.4 0,0.8 0,1.19 0,0.39 0,0.79 0.06,1.2 0.17,2 0.74,3.25 1.7,3.68 a 10.76,10.76 0 0 0 4.27,0.65 11.26,11.26 0 0 0 5.29,-0.91 c 1.06,-0.61 1.64,-2.17 1.72,-4.68 0.06,-1.1 0.09,-2.21 0.09,-3.3 v -3.26 q 0,-3.76 -0.95,-5.14 -0.95,-1.38 -4.93,-1.38 c -3.62,0 -5.72,0.49 -6.33,1.48 -0.61,0.99 -0.9,2.88 -0.9,5.69 v 0.36 c 0,0.3 0,0.62 0,1 v 1 z"
           transform="translate(-2593.5,91)"
           style="fill:#b6a66e"
           id="path1534" />
        <path
           d="m 3417.51,392.61 h -8.91 L 3396.76,370 h -0.17 l 0.17,22.6 h -5.21 v -27 h 8.86 l 11.85,22.6 h 0.16 l -0.16,-22.6 h 5.25 z"
           transform="translate(-2593.5,91)"
           style="fill:#b6a66e"
           id="path1536" />
        <path
           d="m 3423.34,379.45 q 0,-6.72 1.58,-10.37 1.58,-3.65 9.64,-3.64 a 27.44,27.44 0 0 1 8.63,1.24 q 3.76,1.24 4,7 c 0.06,0.59 0.09,1.18 0.11,1.78 0.02,0.6 0,1.2 0,1.82 v 1.77 c 0,5 -0.57,8.56 -1.7,10.65 -1.13,2.09 -4.71,3.13 -10.73,3.13 -4.23,0 -7.23,-0.68 -9,-2.06 -1.77,-1.38 -2.65,-4.23 -2.65,-8.55 v -0.73 c 0,-0.24 0,-0.48 0,-0.72 v -1.34 z m 5.46,-0.12 v 2.43 c 0,0.4 0,0.8 0,1.19 0,0.39 0,0.79 0.06,1.2 0.17,2 0.73,3.25 1.7,3.68 a 10.73,10.73 0 0 0 4.26,0.65 11.3,11.3 0 0 0 5.3,-0.91 q 1.59,-0.92 1.72,-4.68 c 0.05,-1.1 0.08,-2.21 0.08,-3.3 v -3.26 q 0,-3.76 -0.94,-5.14 -0.94,-1.38 -4.94,-1.38 -5.42,0 -6.32,1.48 -0.9,1.48 -0.9,5.69 v 0.36 c 0,0.3 0,0.62 0,1 v 1 z"
           transform="translate(-2593.5,91)"
           style="fill:#b6a66e"
           id="path1538" />
        <path
           d="M 3476.1,378.27 V 379 l 0.08,4.3 a 16.39,16.39 0 0 1 -1.07,6.21 c -0.72,1.74 -2.53,2.78 -5.44,3.1 -0.92,0.08 -1.85,0.14 -2.77,0.16 -0.92,0.02 -1.85,0 -2.77,0 q -6.35,0 -9.39,-1.92 -3.04,-1.92 -3,-8.65 v -0.95 a 9.08,9.08 0 0 1 0,-0.91 v -4.27 c 0,-0.39 0,-0.79 0,-1.2 a 17.71,17.71 0 0 1 0.4,-3.3 7.74,7.74 0 0 1 1.36,-3 6.22,6.22 0 0 1 3.21,-2.37 16.27,16.27 0 0 1 4.06,-0.75 c 0.42,0 0.83,0 1.24,0 h 1.19 2.48 q 5.3,0 7.79,1.43 c 1.67,0.94 2.53,3.25 2.59,6.95 h -5.38 a 4.7,4.7 0 0 0 -0.74,-2.8 3.35,3.35 0 0 0 -2.7,-1.09 c -0.51,0 -1,-0.05 -1.52,-0.06 h -1.51 q -5.16,0 -6.09,1.44 -0.93,1.44 -1,6.25 v 1.34 3.48 q 0,4.22 1.4,5.21 1.4,0.99 5.53,1 c 2.57,0 4.34,-0.29 5.29,-0.87 0.95,-0.58 1.43,-2.14 1.43,-4.68 v -0.4 a 0.41,0.41 0 0 1 0,-0.18 v -0.19 h -7.05 v -3.89 z"
           transform="translate(-2593.5,91)"
           style="fill:#b6a66e"
           id="path1540" />
        <path
           d="M 3481.43,365.6 H 3495 q 4.83,0 7,1.8 2.17,1.8 2.14,6.58 v 1 a 7.45,7.45 0 0 1 -0.08,1.06 9.92,9.92 0 0 1 -0.44,2.22 3.92,3.92 0 0 1 -1.24,1.83 4.75,4.75 0 0 1 -1.11,0.65 11.18,11.18 0 0 1 -1.24,0.4 l -0.49,0.1 a 3.39,3.39 0 0 1 -0.48,0.1 v 0.12 a 5.07,5.07 0 0 1 3.61,1.54 5.58,5.58 0 0 1 1.14,3.73 v 5.87 h -5.42 v -4.9 -0.61 a 3.09,3.09 0 0 0 -1.2,-2.75 5.59,5.59 0 0 0 -3,-0.73 h -7.56 v 9 h -5.21 z m 12.77,13.65 a 4.89,4.89 0 0 0 3.46,-0.91 4.35,4.35 0 0 0 1,-3.22 9.36,9.36 0 0 0 -0.57,-3.75 c -0.37,-0.82 -1.56,-1.24 -3.55,-1.24 h -7.89 v 9.12 z"
           transform="translate(-2593.5,91)"
           style="fill:#b6a66e"
           id="path1542" />
        <path
           d="m 3514.82,387.43 -1.72,5.18 h -5.59 l 9.33,-27 h 7.89 l 9.49,27 h -5.46 l -1.8,-5.18 z m 6,-17.86 -4.79,14 h 9.66 z"
           transform="translate(-2593.5,91)"
           style="fill:#b6a66e"
           id="path1544" />
        <path
           d="m 3538.3,365.6 h 11.21 c 3.75,0 6.53,0.56 8.32,1.6 1.79,1.04 2.69,3.58 2.69,7.63 0,0.35 0,0.72 0,1.1 0,0.38 0,0.75 -0.06,1.13 a 10.62,10.62 0 0 1 -0.52,2.75 5.16,5.16 0 0 1 -1.58,2.31 5.76,5.76 0 0 1 -2.83,1.44 17.41,17.41 0 0 1 -3.26,0.3 2.12,2.12 0 0 1 -0.44,0 h -8.3 v 8.71 h -5.2 z m 11.3,13.81 a 9.77,9.77 0 0 0 4.22,-0.59 c 0.82,-0.42 1.24,-1.71 1.24,-3.87 0,-2 -0.28,-3.32 -0.84,-4 -0.56,-0.68 -1.92,-1 -4.08,-1 h -6.64 v 9.4 z"
           transform="translate(-2593.5,91)"
           style="fill:#b6a66e"
           id="path1546" />
        <path
           d="M 3589.41,392.61 H 3584 v -11.54 h -13 v 11.54 h -5.33 v -27 h 5.33 v 11 h 13 v -11 h 5.38 z"
           transform="translate(-2593.5,91)"
           style="fill:#b6a66e"
           id="path1548" />
      </g>
      <g
         id="g1562">
        <path
           d="m 3118.05,387.43 -1.72,5.18 h -5.59 l 9.33,-27 h 7.93 l 9.5,27 h -5.5 l -1.81,-5.18 z m 6,-17.86 -4.79,14 h 9.74 z"
           transform="translate(-2593.5,91)"
           style="fill:#b6a66e"
           id="path1552" />
        <path
           d="m 3147.41,388.08 h 13 v 4.53 H 3142 v -27 h 5.46 z"
           transform="translate(-2593.5,91)"
           style="fill:#b6a66e"
           id="path1554" />
        <path
           d="m 3169.92,387.43 -1.72,5.18 h -5.59 l 9.33,-27 h 7.89 l 9.49,27 h -5.46 l -1.8,-5.18 z m 6,-17.86 -4.79,14 h 9.66 z"
           transform="translate(-2593.5,91)"
           style="fill:#b6a66e"
           id="path1556" />
        <path
           d="m 3193.78,365.6 h 13.6 q 4.83,0 7,1.8 c 1.42,1.18 2.14,3.37 2.14,6.58 v 1 a 6.23,6.23 0 0 1 -0.09,1.06 8.92,8.92 0 0 1 -0.44,2.22 3.92,3.92 0 0 1 -1.24,1.83 4.38,4.38 0 0 1 -1.11,0.65 11.18,11.18 0 0 1 -1.24,0.4 l -0.48,0.1 a 4.1,4.1 0 0 1 -0.48,0.1 v 0.12 a 5.09,5.09 0 0 1 3.56,1.54 5.63,5.63 0 0 1 1.13,3.73 v 5.87 h -5.42 v -4.9 l 0.05,-0.61 a 3.09,3.09 0 0 0 -1.2,-2.75 5.62,5.62 0 0 0 -3.05,-0.73 H 3199 v 9 h -5.2 z m 12.76,13.65 a 4.9,4.9 0 0 0 3.47,-0.91 4.35,4.35 0 0 0 1,-3.22 9.36,9.36 0 0 0 -0.57,-3.75 c -0.38,-0.82 -1.56,-1.24 -3.55,-1.24 H 3199 v 9.12 z"
           transform="translate(-2593.5,91)"
           style="fill:#b6a66e"
           id="path1558" />
        <path
           d="m 3252.42,392.61 h -4.78 l 0.15,-22.76 -8,22.76 h -4.4 l -8.18,-22.61 0.23,22.64 h -4.78 v -27 h 7.88 l 6.88,20 h 0.16 l 6.81,-20 h 8 z"
           transform="translate(-2593.5,91)"
           style="fill:#b6a66e"
           id="path1560" />
      </g>
      <g
         id="F-91W">
        <path
           id="W-2"
           data-name="W"
           d="m 3464,256 h 10 c 3,0 3,2 3,2 v 10 c 0,2 2,0 2,0 l 6,-10 a 3.55,3.55 0 0 1 3,-2 h 7 c 3,0 3,2 3,2 l 1,11 c 1,2 2,0 2,0 l 7,-12 a 3.1,3.1 0 0 1 2,-1 h 10 c 3,0 2,2 2,2 l -17,29 c -2,2 -3,2 -3,2 h -11 a 2,2 0 0 1 -2,-2 v -11 c 0,-3 -2,0 -2,0 l -7,11 a 3.55,3.55 0 0 1 -3,2 h -10 a 2.94,2.94 0 0 1 -3,-3 l -2,-28 a 2,2 0 0 1 2,-2 z"
           transform="translate(-2593.5,91)"
           style="fill:#b6a66e" />
        <path
           id="_1"
           data-name="1"
           d="m 3453,257 -5,30 v 0 a 3.55,3.55 0 0 1 -3,2 h -9 a 2,2 0 0 1 -2,-2 l 2,-15 c 0,-1 -2,-1 -2,-1 h -3 a 1,1 0 0 1 -1,-1 l 1,-8 c 8,-1 10,-6 10,-6 h 10 c 2,0 2,1 2,1"
           transform="translate(-2593.5,91)"
           style="fill:#b6a66e" />
        <path
           id="_9"
           data-name="9"
           d="m 3403,256 c 0,0 -11,-1 -18,5 0,0 -9,9 7,17 h -10 c 0,0 -3,6 9,10 0,0 9.57,2.73 19.1,-0.84 a 16.52,16.52 0 0 0 8.92,-8 c 3.67,-7.24 6.84,-20.3 -16.02,-23.16 z m -3,27 c -6,0 -5,-5 -5,-5 h 10 c 0,5 -5,5 -5,5 z m 2,-12 c -5,0 -5,-4 -5,-4 0,-4 5,-4 5,-4 5,0 5,4 5,4 0,4 -5,4 -5,4 z"
           transform="translate(-2593.5,91)"
           style="fill:#b6a66e" />
        <path
           id="_-"
           data-name="-"
           d="m 3354,269 h 16 a 2,2 0 0 1 2,2 l -1,5 v 0 c 0,1 -3,1 -3,1 h -15 a 2,2 0 0 1 -2,-2 l 1,-5 c 0,-1 2,-1 2,-1 z"
           transform="translate(-2593.5,91)"
           style="fill:#b6a66e" />
        <path
           id="F"
           d="m 3313,256 h 30 a 2,2 0 0 1 2,2 l -1,4 c -1,2 -2,2 -2,2 h -17 a 2,2 0 0 0 -2,2 v 0 a 2,2 0 0 0 2,2 h 12 c 3,0 2,2 2,2 l -1,5 a 3.1,3.1 0 0 1 -2,1 h -13 a 2,2 0 0 0 -2,2 l -2,9 c -1,2 -2,2 -2,2 h -10 c -3,0 -2,-3 -2,-3 l 5,-28 c 0,-2 3,-2 3,-2"
           transform="translate(-2593.5,91)"
           style="fill:#b6a66e" />
      </g>
      <g
         id="g1580">
        <path
           d="m 2980,275.39 h 10.59 a 8.2,8.2 0 0 0 0,0.89 7.28,7.28 0 0 1 0,0.78 7.7,7.7 0 0 0 0.05,0.83 c 0,0.28 0,0.56 0,0.83 q 0,7 -5.72,9.08 a 43.49,43.49 0 0 1 -14.52,2.06 h -7.4 q -11.94,0 -15.75,-4.14 -3.81,-4.14 -3.81,-11.82 c 0,-0.47 0,-1 0,-1.46 0,-0.46 0,-1 0,-1.45 a 5.79,5.79 0 0 0 0,-0.72 5.74,5.74 0 0 1 0,-0.71 c 0,-0.72 0,-1.44 0,-2.18 0,-0.74 0,-1.45 0,-2.17 q 0,-10 6.35,-12.74 6.35,-2.74 19.14,-2.74 l 3.65,-0.06 a 11.17,11.17 0 0 0 1.14,0.06 h 1.14 a 43.37,43.37 0 0 1 7.33,0.84 10.33,10.33 0 0 1 5.71,3.09 7.38,7.38 0 0 1 2,3.37 17.45,17.45 0 0 1 0.55,3.6 4.56,4.56 0 0 0 0,0.62 c 0,0.22 0,0.43 0,0.63 a 5.63,5.63 0 0 0 0,0.71 5.79,5.79 0 0 1 0,0.72 l -10.75,-0.06 a 2.36,2.36 0 0 1 -0.21,-0.84 c 0,-0.31 -0.07,-0.63 -0.13,-1 V 261 a 6.72,6.72 0 0 0 -0.89,-3.06 c -0.54,-0.93 -2.27,-1.46 -5.21,-1.58 a 23.86,23.86 0 0 0 -2.41,-0.12 h -4.28 c -0.51,0 -1,0.06 -1.61,0.06 -0.61,0 -1.13,0 -1.69,0.06 a 31.62,31.62 0 0 0 -3.6,0.44 7.09,7.09 0 0 0 -2.75,1 4.84,4.84 0 0 0 -1.48,1.75 5.52,5.52 0 0 0 -0.56,2 c -0.05,0.28 -0.09,0.56 -0.12,0.83 a 7.69,7.69 0 0 0 0,0.83 c -0.06,0.63 -0.1,1.26 -0.13,1.87 -0.03,0.61 0,1.24 0,1.88 0,1.27 0,2.55 0,3.84 0,1.29 0.07,2.57 0.13,3.84 q 0.07,6 2.87,7.35 2.8,1.35 10.84,1.4 a 41.54,41.54 0 0 0 8.26,-0.72 c 2.34,-0.47 3.52,-2.06 3.52,-4.76 v -1.21 a 2.16,2.16 0 0 1 -0.09,-0.62 v -0.69 z"
           transform="translate(-2593.5,91)"
           style="fill:#ffffff"
           id="path1570" />
        <path
           d="m 3006.88,282 -3.47,7.62 h -11.27 l 18.8,-39.71 h 15.92 l 19.14,39.71 h -11 l -3.64,-7.62 z m 12.19,-26.25 -9.65,20.59 h 19.48 z"
           transform="translate(-2593.5,91)"
           style="fill:#ffffff"
           id="path1572" />
        <path
           d="m 3082.25,261.52 q 0,-3.45 -2,-4.64 c -1.36,-0.8 -3.7,-1.19 -7,-1.19 h -3 c -0.51,0 -1.06,0.05 -1.65,0.05 -0.59,0 -1.17,0 -1.74,0.06 a 24.68,24.68 0 0 0 -2.7,0.27 10.42,10.42 0 0 0 -2.38,0.62 3.57,3.57 0 0 0 -1.52,1.23 5.89,5.89 0 0 0 -0.76,1.65 4.94,4.94 0 0 1 0,0.68 c 0,0.21 0,0.42 0,0.62 0,2 0.55,3.34 1.65,4.07 1.1,0.73 3.12,1.16 6.06,1.28 0.28,0 0.55,0 0.8,0 0.25,0 0.53,0 0.81,0 l 2.16,0.09 h 2.07 a 73,73 0 0 1 14.65,1.64 q 6.36,1.47 6.36,9.4 a 14.18,14.18 0 0 1 -2.29,8.33 q -2.28,3.25 -10.59,3.85 l -2.66,0.09 c -0.88,0 -1.74,0.05 -2.59,0.09 -0.85,0.04 -1.79,0.06 -2.67,0.06 h -2.66 a 67.51,67.51 0 0 1 -15.88,-1.53 q -6.15,-1.51 -6.14,-9.76 v -0.39 a 1,1 0 0 1 0.08,-0.39 V 277 l 10.25,-0.06 a 9.9,9.9 0 0 0 1.06,4.78 c 0.7,1.32 2.64,2 5.8,2 1.35,0 2.71,0.06 4.06,0.06 h 4.07 c 3.33,0 5.76,-0.34 7.28,-1 1.52,-0.66 2.29,-2.26 2.29,-4.69 q 0,-3.94 -2.92,-4.66 a 34.1,34.1 0 0 0 -7.5,-0.78 h -1.69 c -0.57,0 -1.16,0 -1.78,-0.06 h -0.89 c -0.31,0 -0.61,-0.05 -0.89,-0.09 a 53.19,53.19 0 0 1 -14,-2.11 q -5,-1.69 -5,-9.55 c 0,-3.34 1,-5.9 3,-7.68 2,-1.78 5.5,-2.82 10.41,-3.1 1.47,-0.08 2.95,-0.14 4.45,-0.18 1.5,-0.04 3,-0.06 4.45,-0.06 a 77.06,77.06 0 0 1 15.15,1.31 q 6.43,1.32 6.44,8.93 v 1.49 z"
           transform="translate(-2593.5,91)"
           style="fill:#ffffff"
           id="path1574" />
        <path
           d="m 3112.14,289.62 h -10.84 v -39.71 h 10.84 z"
           transform="translate(-2593.5,91)"
           style="fill:#ffffff"
           id="path1576" />
        <path
           d="m 3120.44,270.27 q 0,-9.88 3.18,-15.24 3.18,-5.36 19.43,-5.36 a 74.62,74.62 0 0 1 17.41,1.83 q 7.58,1.81 8.17,10.32 0.16,1.31 0.21,2.61 c 0,0.87 0,1.76 0,2.67 v 2.62 q 0,11.05 -3.43,15.65 -3.43,4.6 -21.59,4.63 -12.8,0 -18.13,-3 -5.33,-3 -5.33,-12.56 v -1.07 a 7.59,7.59 0 0 1 0.08,-1.07 v -2 z m 11,-0.18 v 3.57 c 0,0.6 0,1.19 0,1.76 0,0.57 0.07,1.16 0.13,1.76 0.34,3 1.48,4.78 3.43,5.41 a 29.18,29.18 0 0 0 8.6,1 q 7.44,0 10.67,-1.34 3.23,-1.34 3.47,-6.88 c 0.11,-1.63 0.17,-3.24 0.17,-4.85 v -4.79 q 0,-5.54 -1.91,-7.56 c -1.27,-1.35 -4.58,-2 -10,-2 q -10.92,0 -12.74,2.18 c -1.22,1.44 -1.82,4.23 -1.82,8.36 v 0.54 a 10.15,10.15 0 0 0 -0.09,1.39 v 1.52 z"
           transform="translate(-2593.5,91)"
           style="fill:#ffffff"
           id="path1578" />
      </g>
    </g>
    <g
       id="Détails">
      <path
         d="m 3515,909.56 v 6.83 a 4,4 0 0 1 -0.68,2.53 c -0.45,0.58 -1.38,0.89 -2.8,0.93 h -1.29 a 11.16,11.16 0 0 1 -3.67,-0.48 c -0.88,-0.31 -1.32,-1.28 -1.32,-2.89 v -7 h 2.26 v 6.93 c 0,0.74 0.18,1.22 0.54,1.43 a 3.63,3.63 0 0 0 1.7,0.3 h 0.78 a 4.15,4.15 0 0 0 1.68,-0.24 c 0.39,-0.17 0.58,-0.6 0.58,-1.3 v -7.11 z"
         transform="translate(-2593.5,91)"
         style="fill:#ffffff"
         id="path1583" />
      <g
         id="Flèches">
        <path
           id="Flèche_B_D"
           data-name="Flèche B D"
           d="m 3594,810 -34,5 a 2,2 0 0 1 -2,-2 v -9 a 2,2 0 0 1 2,-2 l 34,6 c 5,1 0,2 0,2"
           transform="translate(-2593.5,91)"
           style="fill:#771217" />
        <path
           id="Flèche_B_G"
           data-name="Flèche B G"
           d="m 2865,810 34,5 a 2,2 0 0 0 2,-2 v -9 a 2,2 0 0 0 -2,-2 l -34,6 c -5,1 0,2 0,2"
           transform="translate(-2593.5,91)"
           style="fill:#771217" />
        <path
           id="Flèche_H_G"
           data-name="Flèche H G"
           d="m 2863,383 34,5 a 2,2 0 0 0 2,-2 v -9 a 2,2 0 0 0 -2,-2 l -34,6 c -5,1 0,2 0,2"
           transform="translate(-2593.5,91)"
           style="fill:#771217" />
      </g>
      <g
         id="Bares_bleu"
         data-name="Bares bleu">
        <path
           id="Bar_down_M"
           data-name="Bar down M"
           d="m 3118,837 h 215 c 15,0 16,16 16,16 v 31 c 0,6 -7,12 -7,12 l -13,13 c -6,7 -18,7 -18,7 h -168 c -13,0 -18,-7 -18,-7 l -13.72,-13.61 C 3105,889 3105,885 3105,885 v -32 c 0,-16 13,-16 13,-16 z"
           transform="translate(-2593.5,91)"
           style="fill:none;stroke:#0e57a9;stroke-width:8px;stroke-miterlimit:10" />
        <path
           id="Bar_down_R"
           data-name="Bar down R"
           d="m 3619,838 c 3.21,0 2,3 2,3 l -8,10 a 5,5 0 0 1 -3,1 h -246 a 2,2 0 0 1 -2,-2 v -10 a 2,2 0 0 1 2,-2 z"
           transform="translate(-2593.5,91)"
           style="fill:#0e57a9" />
        <path
           id="Bar_down_L"
           data-name="Bar down L"
           d="m 2835,838 c -3.21,0 -2,3 -2,3 l 8,10 a 5,5 0 0 0 3,1 h 246 a 2,2 0 0 0 2,-2 v -10 a 2,2 0 0 0 -2,-2 z"
           transform="translate(-2593.5,91)"
           style="fill:#0e57a9" />
        <path
           id="Bar_up"
           data-name="Bar up"
           d="m 3621,336 -4,-8 a 3.55,3.55 0 0 0 -3,-2 h -774 a 4.33,4.33 0 0 0 -4,2 l -3,8 c -1,3 2.5,3 2.5,3 H 3619 c 4,0 2,-3 2,-3 z"
           transform="translate(-2593.5,91)"
           style="fill:#0e57a9" />
      </g>
    </g>
    <g
       id="displays">
      <g
         id="dots">
        <rect
           data-com="1"
           data-seg="16"
           id="dot_down"
           x="535.5"
           y="705"
           width="19"
           height="19"
           rx="9.5"
           style="fill:#304246" />
        <rect
           data-com="1"
           data-seg="16"
           id="dot_up"
           x="531.5"
           y="776"
           width="19"
           height="19"
           rx="9.5"
           style="fill:#304246" />
      </g>
      <g
         id="hours">
        <g
           id="hour_2">
          <path
             data-com="1"
             data-seg="18"
             id="hour_2_A"
             d="m 2979,580 h -49 c -4,0 -5,1 -5,1 l -2,1 a 2.19,2.19 0 0 0 -1,3 l 13,13 a 6.19,6.19 0 0 0 4,2 h 28 c 4,0 5,-3 5,-3 l 9,-14 c 2,-3 -2,-3 -2,-3 z"
             transform="translate(-2593.5,91)"
             style="fill:#304246" />
          <path
             data-com="2"
             data-seg="19"
             id="hour_2_B"
             d="m 2971.57,641.22 a 3.55,3.55 0 0 0 1.94,3 l 9.88,6.19 c 0,0 3,1.06 5,-0.9 L 2991,646 a 4.38,4.38 0 0 0 1,-3 l 2,-50 a 4.38,4.38 0 0 0 -1,-3 l -4,-5 c -2,-3 -4,0 -4,0 l -11,17 a 4.62,4.62 0 0 0 -1,3 l -1.43,36.22"
             transform="translate(-2593.5,91)"
             style="fill:#304246" />
          <path
             data-com="0"
             data-seg="19"
             id="hour_2_C"
             d="m 2990,669 -4,52 a 16.85,16.85 0 0 1 -4,8 l -2,3 c -4,5 -6,1 -6,1 l -7,-16 a 9.79,9.79 0 0 1 -1,-7 l 2,-40 a 4.33,4.33 0 0 1 2,-4 l 10,-6 c 5,-3 7,1 7,1 l 2,4 a 10,10 0 0 1 1,4 z"
             transform="translate(-2593.5,91)"
             style="fill:#304246" />
          <path
             data-com="1"
             data-seg="18"
             id="hour_2_D"
             d="m 2961,718 h -27 a 12.68,12.68 0 0 0 -6,2 l -14,8 c -4,2 -2,4 -2,4 l 6,4 a 10,10 0 0 0 4,1 h 46 c 3,0 2,-3 2,-3 l -6,-14 a 3.55,3.55 0 0 0 -3,-2"
             transform="translate(-2593.5,91)"
             style="fill:#304246" />
          <path
             data-com="0"
             data-seg="18"
             id="hour_2_E"
             d="m 2930,669 -2,43 a 3.7,3.7 0 0 1 -2,3 l -14,8 c -4,2 -4,-1 -4,-1 l 2,-54 c 0,-3 1,-4 1,-4 l 2,-3 c 2,-2 5,-1 5,-1 l 10,6 a 3.55,3.55 0 0 1 2,3"
             transform="translate(-2593.5,91)"
             style="fill:#304246" />
          <path
             data-com="2"
             data-seg="18"
             id="hour_2_F"
             d="m 2933,640 a 6.93,6.93 0 0 1 -3,4 l -10,7 c -8,4 -8,-5 -8,-5 l 3,-48 a 21.8,21.8 0 0 1 1,-6 l 2,-3 a 2.77,2.77 0 0 1 4,0 l 11,12 a 7.81,7.81 0 0 1 2,5 z"
             transform="translate(-2593.5,91)"
             style="fill:#304246" />
          <path
             data-com="1"
             data-seg="19"
             id="hour_2_G"
             d="m 2923,654 11.5,-6.5 a 7.65,7.65 0 0 1 5,-1 l 26.5,0.5 c 3,0 4,1 4,1 l 8,6 c 3,2 0,3 0,3 l -11,6 v 0 a 13.38,13.38 0 0 1 -5,1 h -24 a 13.83,13.83 0 0 1 -7,-2 l -8,-5 c -2,-2 0,-3 0,-3 z"
             transform="translate(-2593.5,91)"
             style="fill:#304246" />
        </g>
        <g
           id="hour_1">
          <path
             data-com="2"
             data-seg="20"
             id="hour_1_A"
             d="m 3092,580 h -49 c -4,0 -5,1 -5,1 l -2,1 a 2.19,2.19 0 0 0 -1,3 l 13,13 a 6.19,6.19 0 0 0 4,2 h 28 c 4,0 5,-3 5,-3 l 9,-14 c 2,-3 -2,-3 -2,-3 z"
             transform="translate(-2593.5,91)"
             style="fill:#304246" />
          <path
             data-com="2"
             data-seg="21"
             id="hour_1_B"
             d="m 3084.57,641.22 a 3.55,3.55 0 0 0 1.94,3 l 9.88,6.19 c 0,0 3,1.06 5,-0.9 L 3104,646 a 4.38,4.38 0 0 0 1,-3 l 2,-50 a 4.38,4.38 0 0 0 -1,-3 l -4,-5 c -2,-3 -4,0 -4,0 l -11,17 a 4.62,4.62 0 0 0 -1,3 l -1.43,36.22"
             transform="translate(-2593.5,91)"
             style="fill:#304246" />
          <path
             data-com="1"
             data-seg="21"
             id="hour_1_C"
             d="m 3103,669 -4,52 a 16.85,16.85 0 0 1 -4,8 l -2,3 c -4,5 -6,1 -6,1 l -7,-16 a 9.79,9.79 0 0 1 -1,-7 l 2,-40 a 4.33,4.33 0 0 1 2,-4 l 10,-6 c 5,-3 7,1 7,1 l 2,4 a 10,10 0 0 1 1,4 z"
             transform="translate(-2593.5,91)"
             style="fill:#304246" />
          <path
             data-com="0"
             data-seg="21"
             id="hour_1_D"
             d="m 3074,718 h -27 a 12.68,12.68 0 0 0 -6,2 l -14,8 c -4,2 -2,4 -2,4 l 6,4 a 10,10 0 0 0 4,1 h 46 c 3,0 2,-3 2,-3 l -6,-14 a 3.55,3.55 0 0 0 -3,-2"
             transform="translate(-2593.5,91)"
             style="fill:#304246" />
          <path
             data-com="0"
             data-seg="20"
             id="hour_1_E"
             d="m 3043,669 -2,43 a 3.7,3.7 0 0 1 -2,3 l -14,8 c -4,2 -4,-1 -4,-1 l 2,-54 c 0,-3 1,-4 1,-4 l 2,-3 c 2,-2 5,-1 5,-1 l 10,6 a 3.55,3.55 0 0 1 2,3"
             transform="translate(-2593.5,91)"
             style="fill:#304246" />
          <path
             data-com="1"
             data-seg="17"
             id="hour_1_F"
             d="m 3046,640 a 6.93,6.93 0 0 1 -3,4 l -10,7 c -8,4 -8,-5 -8,-5 l 3,-48 a 21.8,21.8 0 0 1 1,-6 l 2,-3 a 2.77,2.77 0 0 1 4,0 l 11,12 a 7.81,7.81 0 0 1 2,5 z"
             transform="translate(-2593.5,91)"
             style="fill:#304246" />
          <path
             data-com="1"
             data-seg="20"
             id="hour_1_G"
             d="m 3036,654 11.5,-6.5 a 7.65,7.65 0 0 1 5,-1 l 26.5,0.5 c 3,0 4,1 4,1 l 8,6 c 3,2 0,3 0,3 l -11,6 v 0 a 13.38,13.38 0 0 1 -5,1 h -24 a 13.83,13.83 0 0 1 -7,-2 l -8,-5 c -2,-2 0,-3 0,-3 z"
             transform="translate(-2593.5,91)"
             style="fill:#304246" />
        </g>
      </g>
      <g
         id="minutes">
        <g
           id="minute_2">
          <path
             data-com="0"
             data-seg="22"
             id="minute_2_A"
             d="m 3239,580 h -49 c -4,0 -5,1 -5,1 l -2,1 a 2.19,2.19 0 0 0 -1,3 l 13,13 a 6.19,6.19 0 0 0 4,2 h 28 c 4,0 5,-3 5,-3 l 9,-14 c 2,-3 -2,-3 -2,-3 z"
             transform="translate(-2593.5,91)"
             style="fill:#304246" />
          <path
             data-com="2"
             data-seg="23"
             id="minute_2_B"
             d="m 3231.57,641.22 a 3.55,3.55 0 0 0 1.94,3 l 9.88,6.19 c 0,0 3,1.06 5,-0.9 L 3251,646 a 4.38,4.38 0 0 0 1,-3 l 2,-50 a 4.38,4.38 0 0 0 -1,-3 l -4,-5 c -2,-3 -4,0 -4,0 l -11,17 a 4.62,4.62 0 0 0 -1,3 l -1.43,36.22"
             transform="translate(-2593.5,91)"
             style="fill:#304246" />
          <path
             data-com="0"
             data-seg="23"
             id="minute_2_C"
             d="m 3250,669 -4,52 a 16.85,16.85 0 0 1 -4,8 l -2,3 c -4,5 -6,1 -6,1 l -7,-16 a 9.79,9.79 0 0 1 -1,-7 l 2,-40 a 4.33,4.33 0 0 1 2,-4 l 10,-6 c 5,-3 7,1 7,1 l 2,4 a 10,10 0 0 1 1,4 z"
             transform="translate(-2593.5,91)"
             style="fill:#304246" />
          <path
             data-com="0"
             data-seg="22"
             id="minute_2_D"
             d="m 3221,718 h -27 a 12.68,12.68 0 0 0 -6,2 l -14,8 c -4,2 -2,4 -2,4 l 6,4 a 10,10 0 0 0 4,1 h 46 c 3,0 2,-3 2,-3 l -6,-14 a 3.55,3.55 0 0 0 -3,-2"
             transform="translate(-2593.5,91)"
             style="fill:#304246" />
          <path
             data-com="1"
             data-seg="22"
             id="minute_2_E"
             d="m 3190,669 -2,43 a 3.7,3.7 0 0 1 -2,3 l -14,8 c -4,2 -4,-1 -4,-1 l 2,-54 c 0,-3 1,-4 1,-4 l 2,-3 c 2,-2 5,-1 5,-1 l 10,6 a 3.55,3.55 0 0 1 2,3"
             transform="translate(-2593.5,91)"
             style="fill:#304246" />
          <path
             data-com="2"
             data-seg="22"
             id="minute_2_F"
             d="m 3193,640 a 6.93,6.93 0 0 1 -3,4 l -10,7 c -8,4 -8,-5 -8,-5 l 3,-48 a 21.8,21.8 0 0 1 1,-6 l 2,-3 a 2.77,2.77 0 0 1 4,0 l 11,12 a 7.81,7.81 0 0 1 2,5 z"
             transform="translate(-2593.5,91)"
             style="fill:#304246" />
          <path
             data-com="1"
             data-seg="23"
             id="minute_2_G"
             d="m 3183,654 11.5,-6.5 a 7.65,7.65 0 0 1 5,-1 l 26.5,0.5 c 3,0 4,1 4,1 l 8,6 c 3,2 0,3 0,3 l -11,6 v 0 a 13.38,13.38 0 0 1 -5,1 h -24 a 13.83,13.83 0 0 1 -7,-2 l -8,-5 c -2,-2 0,-3 0,-3 z"
             transform="translate(-2593.5,91)"
             style="fill:#304246" />
        </g>
        <g
           id="minute_1">
          <path
             data-com="2"
             data-seg="1"
             id="minute_1_A"
             d="m 3352,580 h -49 c -4,0 -5,1 -5,1 l -2,1 a 2.19,2.19 0 0 0 -1,3 l 13,13 a 6.19,6.19 0 0 0 4,2 h 28 c 4,0 5,-3 5,-3 l 9,-14 c 2,-3 -2,-3 -2,-3 z"
             transform="translate(-2593.5,91)"
             style="fill:#304246" />
          <path
             data-com="2"
             data-seg="10"
             id="minute_1_B"
             d="m 3344.57,641.22 a 3.55,3.55 0 0 0 1.94,3 l 9.88,6.19 c 0,0 3,1.06 5,-0.9 L 3364,646 a 4.38,4.38 0 0 0 1,-3 l 2,-50 a 4.38,4.38 0 0 0 -1,-3 l -4,-5 c -2,-3 -4,0 -4,0 l -11,17 a 4.62,4.62 0 0 0 -1,3 l -1.43,36.22"
             transform="translate(-2593.5,91)"
             style="fill:#304246" />
          <path
             data-com="0"
             data-seg="1"
             id="minute_1_C"
             d="m 3363,669 -4,52 a 16.85,16.85 0 0 1 -4,8 l -2,3 c -4,5 -6,1 -6,1 l -7,-16 a 9.79,9.79 0 0 1 -1,-7 l 2,-40 a 4.33,4.33 0 0 1 2,-4 l 10,-6 c 5,-3 7,1 7,1 l 2,4 a 10,10 0 0 1 1,4 z"
             transform="translate(-2593.5,91)"
             style="fill:#304246" />
          <path
             data-com="0"
             data-seg="0"
             id="minute_1_D"
             d="m 3334,718 h -27 a 12.68,12.68 0 0 0 -6,2 l -14,8 c -4,2 -2,4 -2,4 l 6,4 a 10,10 0 0 0 4,1 h 46 c 3,0 2,-3 2,-3 l -6,-14 a 3.55,3.55 0 0 0 -3,-2"
             transform="translate(-2593.5,91)"
             style="fill:#304246" />
          <path
             data-com="1"
             data-seg="0"
             id="minute_1_E"
             d="m 3303,669 -2,43 a 3.7,3.7 0 0 1 -2,3 l -14,8 c -4,2 -4,-1 -4,-1 l 2,-54 c 0,-3 1,-4 1,-4 l 2,-3 c 2,-2 5,-1 5,-1 l 10,6 a 3.55,3.55 0 0 1 2,3"
             transform="translate(-2593.5,91)"
             style="fill:#304246" />
          <path
             data-com="2"
             data-seg="0"
             id="minute_1_F"
             d="m 3306,640 a 6.93,6.93 0 0 1 -3,4 l -10,7 c -8,4 -8,-5 -8,-5 l 3,-48 a 21.8,21.8 0 0 1 1,-6 l 2,-3 a 2.77,2.77 0 0 1 4,0 l 11,12 a 7.81,7.81 0 0 1 2,5 z"
             transform="translate(-2593.5,91)"
             style="fill:#304246" />
          <path
             data-com="1"
             data-seg="1"
             id="minute_1_G"
             d="m 3296,654 11.5,-6.5 a 7.65,7.65 0 0 1 5,-1 l 26.5,0.5 c 3,0 4,1 4,1 l 8,6 c 3,2 0,3 0,3 l -11,6 v 0 a 13.38,13.38 0 0 1 -5,1 h -24 a 13.83,13.83 0 0 1 -7,-2 l -8,-5 c -2,-2 0,-3 0,-3 z"
             transform="translate(-2593.5,91)"
             style="fill:#304246" />
        </g>
      </g>
      <g
         id="seconds">
        <g
           id="second_2">
          <path
             data-com="2"
             data-seg="2"
             id="second_2_A"
             d="m 3446.93,619 h -37.46 c -3,0 -3.82,0.76 -3.82,0.76 l -1.53,0.77 a 1.68,1.68 0 0 0 -0.76,2.29 l 9.94,9.94 a 4.73,4.73 0 0 0 3,1.53 h 21.41 a 3.82,3.82 0 0 0 3.82,-2.3 l 6.88,-10.7 C 3450,619 3446.93,619 3446.93,619 Z"
             transform="translate(-2593.5,91)"
             style="fill:#304246" />
          <path
             data-com="2"
             data-seg="3"
             id="second_2_B"
             d="m 3441.25,665.8 a 2.72,2.72 0 0 0 1.48,2.32 l 7.56,4.73 a 4,4 0 0 0 3.83,-0.69 l 2,-2.71 a 3.38,3.38 0 0 0 0.76,-2.3 l 1.53,-38.21 a 3.38,3.38 0 0 0 -0.76,-2.3 l -3.06,-3.82 c -1.53,-2.29 -3.06,0 -3.06,0 l -8.4,13 a 3.5,3.5 0 0 0 -0.77,2.29 l -1.09,27.69"
             transform="translate(-2593.5,91)"
             style="fill:#304246" />
          <path
             data-com="0"
             data-seg="4"
             id="second_2_C"
             d="m 3455.33,687 -3,39.74 a 13,13 0 0 1 -3.06,6.12 l -1.53,2.29 c -3.06,3.82 -4.58,0.76 -4.58,0.76 l -5.35,-12.23 a 7.5,7.5 0 0 1 -0.77,-5.35 l 1.53,-30.57 a 3.32,3.32 0 0 1 1.53,-3.06 l 7.64,-4.58 c 3.82,-2.3 5.35,0.76 5.35,0.76 l 1.53,3.06 a 7.67,7.67 0 0 1 0.71,3.06 z"
             transform="translate(-2593.5,91)"
             style="fill:#304246" />
          <path
             data-com="0"
             data-seg="3"
             id="second_2_D"
             d="m 3433.17,724.48 h -20.64 A 9.66,9.66 0 0 0 3408,726 l -10.7,6.11 c -3.06,1.53 -1.53,3.06 -1.53,3.06 l 4.58,3.06 a 7.67,7.67 0 0 0 3.06,0.76 h 35.16 c 2.29,0 1.53,-2.29 1.53,-2.29 l -4.59,-10.7 a 2.71,2.71 0 0 0 -2.29,-1.53"
             transform="translate(-2593.5,91)"
             style="fill:#304246" />
          <path
             data-com="0"
             data-seg="2"
             id="second_2_E"
             d="m 3409.47,687 -1.47,32.89 a 2.82,2.82 0 0 1 -1.53,2.29 l -10.7,6.12 c -3.06,1.53 -3.06,-0.76 -3.06,-0.76 l 1.53,-41.28 c 0,-2.29 0.76,-3.06 0.76,-3.06 l 1.53,-2.29 a 4,4 0 0 1 3.82,-0.76 l 7.65,4.58 a 2.73,2.73 0 0 1 1.52,2.3"
             transform="translate(-2593.5,91)"
             style="fill:#304246" />
          <path
             data-com="1"
             data-seg="2"
             id="second_2_F"
             d="m 3411.77,664.86 a 5.34,5.34 0 0 1 -2.3,3.06 l -7.64,5.35 c -6.11,3.05 -6.11,-3.82 -6.11,-3.82 l 2.29,-36.69 a 16.73,16.73 0 0 1 0.76,-4.59 l 1.53,-2.29 a 2.12,2.12 0 0 1 3.06,0 l 8.41,9.17 a 6,6 0 0 1 1.53,3.82 z"
             transform="translate(-2593.5,91)"
             style="fill:#304246" />
          <path
             data-com="1"
             data-seg="3"
             id="second_2_G"
             d="m 3404.12,675.56 8.79,-5 a 5.9,5.9 0 0 1 3.83,-0.76 l 20.25,0.38 c 2.29,0 3.06,0.76 3.06,0.76 l 6.11,4.59 c 2.3,1.53 0,2.29 0,2.29 l -8.4,4.59 v 0 a 10.32,10.32 0 0 1 -3.83,0.76 h -18.34 a 10.6,10.6 0 0 1 -5.35,-1.52 l -6.12,-3.83 c -1.52,-1.5 0,-2.26 0,-2.26 z"
             transform="translate(-2593.5,91)"
             style="fill:#304246" />
        </g>
        <g
           id="second_1">
          <path
             data-com="2"
             data-seg="4"
             id="second_1_A"
             d="m 3528.54,619 h -37.46 c -3,0 -3.82,0.76 -3.82,0.76 l -1.53,0.77 a 1.67,1.67 0 0 0 -0.76,2.29 l 9.93,9.94 a 4.74,4.74 0 0 0 3.06,1.53 h 21.4 a 3.81,3.81 0 0 0 3.82,-2.3 l 6.88,-10.7 c 1.53,-2.29 -1.52,-2.29 -1.52,-2.29 z"
             transform="translate(-2593.5,91)"
             style="fill:#304246" />
          <path
             data-com="2"
             data-seg="5"
             id="second_1_B"
             d="m 3522.85,665.8 a 2.74,2.74 0 0 0 1.49,2.32 l 7.55,4.73 a 4,4 0 0 0 3.84,-0.69 l 2,-2.71 a 3.38,3.38 0 0 0 0.76,-2.3 l 1.53,-38.21 a 3.38,3.38 0 0 0 -0.76,-2.3 l -3.06,-3.82 c -1.53,-2.29 -3.06,0 -3.06,0 l -8.41,13 a 3.52,3.52 0 0 0 -0.76,2.29 l -1.1,27.69"
             transform="translate(-2593.5,91)"
             style="fill:#304246" />
          <path
             data-com="1"
             data-seg="6"
             id="second_1_C"
             d="m 3536.94,687 -3.05,39.74 a 13,13 0 0 1 -3.06,6.12 l -1.53,2.29 c -3.06,3.82 -4.59,0.76 -4.59,0.76 l -5.35,-12.23 a 7.46,7.46 0 0 1 -0.76,-5.35 l 1.53,-30.57 a 3.32,3.32 0 0 1 1.53,-3.06 l 7.64,-4.58 c 3.82,-2.3 5.35,0.76 5.35,0.76 l 1.53,3.06 a 7.67,7.67 0 0 1 0.76,3.06 z"
             transform="translate(-2593.5,91)"
             style="fill:#304246" />
          <path
             data-com="0"
             data-seg="6"
             id="second_1_D"
             d="m 3514.78,724.48 h -20.64 a 9.72,9.72 0 0 0 -4.59,1.53 l -10.7,6.11 c -3,1.53 -1.53,3.06 -1.53,3.06 l 4.59,3.06 a 7.67,7.67 0 0 0 3.06,0.76 h 35.16 c 2.29,0 1.53,-2.29 1.53,-2.29 l -4.59,-10.7 a 2.71,2.71 0 0 0 -2.29,-1.53"
             transform="translate(-2593.5,91)"
             style="fill:#304246" />
          <path
             data-com="0"
             data-seg="5"
             id="second_1_E"
             d="m 3491.08,687 -1.53,32.86 a 2.82,2.82 0 0 1 -1.52,2.29 l -10.71,6.12 c -3.05,1.53 -3.05,-0.76 -3.05,-0.76 l 1.53,-41.28 c 0,-2.29 0.76,-3.06 0.76,-3.06 l 1.53,-2.29 a 4,4 0 0 1 3.82,-0.76 l 7.64,4.58 a 2.73,2.73 0 0 1 1.53,2.3"
             transform="translate(-2593.5,91)"
             style="fill:#304246" />
          <path
             data-com="1"
             data-seg="4"
             id="second_1_F"
             d="m 3493.38,664.86 a 5.34,5.34 0 0 1 -2.3,3.06 l -7.64,5.35 c -6.12,3.05 -6.12,-3.82 -6.12,-3.82 l 2.3,-36.69 a 16.73,16.73 0 0 1 0.76,-4.59 l 1.53,-2.29 a 2.12,2.12 0 0 1 3.06,0 l 8.41,9.17 a 6,6 0 0 1 1.52,3.82 z"
             transform="translate(-2593.5,91)"
             style="fill:#304246" />
          <path
             data-com="1"
             data-seg="5"
             id="second_1_G"
             d="m 3485.73,675.56 8.79,-5 a 5.87,5.87 0 0 1 3.82,-0.76 l 20.26,0.38 c 2.29,0 3.06,0.76 3.06,0.76 l 6.11,4.59 c 2.29,1.53 0,2.29 0,2.29 l -8.41,4.59 v 0 a 10.28,10.28 0 0 1 -3.82,0.76 h -18.34 a 10.6,10.6 0 0 1 -5.35,-1.52 l -6.12,-3.83 c -1.53,-1.5 0,-2.26 0,-2.26 z"
             transform="translate(-2593.5,91)"
             style="fill:#304246" />
        </g>
      </g>
      <g
         id="days">
        <g
           id="day_2">
          <path
             data-com="1"
             data-seg="9"
             id="day_2_A"
             d="m 3454.41,467 h -31.34 c -2.56,0 -3.2,0.53 -3.2,0.53 l -1.28,0.53 a 1.05,1.05 0 0 0 -0.64,1.58 l 8.32,6.88 a 4.42,4.42 0 0 0 2.56,1.05 h 17.9 c 2.56,0 3.2,-1.58 3.2,-1.58 l 5.76,-7.4 C 3457,467 3454.41,467 3454.41,467 Z"
             transform="translate(-2593.5,91)"
             style="fill:#304246" />
          <path
             data-com="0"
             data-seg="9"
             id="day_2_B"
             d="m 3449.65,499.37 a 1.84,1.84 0 0 0 1.25,1.6 l 6.32,3.27 a 4,4 0 0 0 3.21,-0.47 l 1.65,-1.88 a 2.11,2.11 0 0 0 0.64,-1.58 l 1.28,-26.44 a 2.11,2.11 0 0 0 -0.64,-1.58 l -2.56,-2.65 a 1.56,1.56 0 0 0 -2.56,0 l -7,9 a 2.21,2.21 0 0 0 -0.64,1.59 l -0.92,19.15"
             transform="translate(-2593.5,91)"
             style="fill:#304246" />
          <path
             data-com="2"
             data-seg="9"
             id="day_2_C"
             d="m 3461.44,514.05 -2.56,27.49 a 8.64,8.64 0 0 1 -2.55,4.23 l -1.28,1.59 c -2.56,2.64 -3.84,0.53 -3.84,0.53 l -4.48,-8.46 a 4.37,4.37 0 0 1 -0.64,-3.7 l 1.28,-21.15 a 2.28,2.28 0 0 1 1.28,-2.12 l 6.4,-3.17 c 3.19,-1.58 4.47,0.53 4.47,0.53 l 1.28,2.12 a 4.48,4.48 0 0 1 0.64,2.11 z"
             transform="translate(-2593.5,91)"
             style="fill:#304246" />
          <path
             data-com="1"
             data-seg="9"
             id="day_2_D"
             d="m 3442.9,540 h -17.27 a 9.28,9.28 0 0 0 -3.84,1 l -8.95,4.23 c -2.56,1.06 -1.28,2.12 -1.28,2.12 l 3.84,2.11 a 7.43,7.43 0 0 0 2.55,0.53 h 29.42 c 1.92,0 1.28,-1.59 1.28,-1.59 l -3.84,-7.4 a 2.39,2.39 0 0 0 -1.91,-1"
             transform="translate(-2593.5,91)"
             style="fill:#304246" />
          <path
             data-com="0"
             data-seg="10"
             id="day_2_E"
             d="m 3423.07,514.05 -1.28,22.73 c 0,1.06 -1.28,1.59 -1.28,1.59 l -9,4.23 c -2.56,1.06 -2.56,-0.53 -2.56,-0.53 l 1.28,-28.55 a 2.74,2.74 0 0 1 0.64,-2.11 l 1.28,-1.59 a 3.92,3.92 0 0 1 3.2,-0.53 l 6.39,3.17 a 1.85,1.85 0 0 1 1.28,1.59"
             transform="translate(-2593.5,91)"
             style="fill:#304246" />
          <path
             data-com="1"
             data-seg="9"
             id="day_2_G"
             d="m 3418.59,506.12 7.36,-3.44 a 5.79,5.79 0 0 1 3.2,-0.52 l 16.94,0.26 a 4.28,4.28 0 0 1 2.56,0.53 l 5.12,3.17 c 1.92,1.06 0,1.59 0,1.59 l -7,3.17 v 0 a 10.16,10.16 0 0 1 -3.2,0.53 h -15.34 a 10.16,10.16 0 0 1 -4.48,-1.06 l -5.12,-2.64 c -1.32,-1.06 -0.04,-1.59 -0.04,-1.59 z"
             transform="translate(-2593.5,91)"
             style="fill:#304246" />
        </g>
        <g
           id="day_1">
          <path
             data-com="0"
             data-seg="7"
             id="day_1_A"
             d="m 3525.41,468 h -31.34 c -2.56,0 -3.2,0.53 -3.2,0.53 l -1.28,0.53 a 1.05,1.05 0 0 0 -0.64,1.58 l 8.32,6.88 a 4.42,4.42 0 0 0 2.56,1.05 h 17.9 c 2.56,0 3.2,-1.58 3.2,-1.58 l 5.76,-7.4 C 3528,468 3525.41,468 3525.41,468 Z"
             transform="translate(-2593.5,91)"
             style="fill:#304246" />
          <path
             data-com="1"
             data-seg="7"
             id="day_1_B"
             d="m 3520.65,500.37 a 1.84,1.84 0 0 0 1.25,1.6 l 6.32,3.27 a 4,4 0 0 0 3.21,-0.47 l 1.65,-1.88 a 2.11,2.11 0 0 0 0.64,-1.58 l 1.28,-26.44 a 2.11,2.11 0 0 0 -0.64,-1.58 l -2.56,-2.65 a 1.56,1.56 0 0 0 -2.56,0 l -7,9 a 2.21,2.21 0 0 0 -0.64,1.59 l -0.92,19.15"
             transform="translate(-2593.5,91)"
             style="fill:#304246" />
          <path
             data-com="2"
             data-seg="7"
             id="day_1_C"
             d="m 3532.44,515.05 -2.56,27.49 a 8.64,8.64 0 0 1 -2.55,4.23 l -1.28,1.59 c -2.56,2.64 -3.84,0.53 -3.84,0.53 l -4.48,-8.46 a 4.37,4.37 0 0 1 -0.64,-3.7 l 1.28,-21.15 a 2.28,2.28 0 0 1 1.28,-2.12 l 6.4,-3.17 c 3.19,-1.58 4.47,0.53 4.47,0.53 l 1.28,2.12 a 4.48,4.48 0 0 1 0.64,2.11 z"
             transform="translate(-2593.5,91)"
             style="fill:#304246" />
          <path
             data-com="2"
             data-seg="6"
             id="day_1_D"
             d="m 3513.9,541 h -17.27 a 9.28,9.28 0 0 0 -3.84,1 l -8.95,4.23 c -2.56,1.06 -1.28,2.12 -1.28,2.12 l 3.84,2.11 a 7.43,7.43 0 0 0 2.55,0.53 h 29.42 c 1.92,0 1.28,-1.59 1.28,-1.59 l -3.84,-7.4 a 2.39,2.39 0 0 0 -1.91,-1"
             transform="translate(-2593.5,91)"
             style="fill:#304246" />
          <path
             data-com="2"
             data-seg="8"
             id="day_1_E"
             d="m 3494.07,515.05 -1.28,22.73 c 0,1.06 -1.28,1.59 -1.28,1.59 l -9,4.23 c -2.56,1.06 -2.56,-0.53 -2.56,-0.53 l 1.28,-28.55 a 2.74,2.74 0 0 1 0.64,-2.11 l 1.28,-1.59 a 3.92,3.92 0 0 1 3.2,-0.53 l 6.39,3.17 a 1.85,1.85 0 0 1 1.28,1.59"
             transform="translate(-2593.5,91)"
             style="fill:#304246" />
          <path
             data-com="0"
             data-seg="8"
             id="day_1_F"
             d="m 3496,499.72 a 3.89,3.89 0 0 1 -1.92,2.11 l -6.4,3.71 c -5.11,2.11 -5.11,-2.65 -5.11,-2.65 l 1.92,-25.37 a 9.8,9.8 0 0 1 0.64,-3.18 l 1.28,-1.58 a 2,2 0 0 1 2.55,0 l 7,6.34 a 3.73,3.73 0 0 1 1.28,2.65 z"
             transform="translate(-2593.5,91)"
             style="fill:#304246" />
          <path
             data-com="1"
             data-seg="8"
             id="day_1_G"
             d="m 3489.59,507.12 7.36,-3.44 a 5.79,5.79 0 0 1 3.2,-0.52 l 16.94,0.26 a 4.28,4.28 0 0 1 2.56,0.53 l 5.12,3.17 c 1.92,1.06 0,1.59 0,1.59 l -7,3.17 v 0 a 10.16,10.16 0 0 1 -3.2,0.53 h -15.34 a 10.16,10.16 0 0 1 -4.48,-1.06 l -5.12,-2.64 c -1.32,-1.06 -0.04,-1.59 -0.04,-1.59 z"
             transform="translate(-2593.5,91)"
             style="fill:#304246" />
        </g>
      </g>
      <g
         id="mode">
        <g
           id="mode_2">
          <path
             data-com="0"
             data-seg="13"
             id="mode_2_A"
             d="m 3170,468 -4,6 a 3.49,3.49 0 0 1 -2,1 h -25 a 3.1,3.1 0 0 1 -2,-1 l -5,-7 c 0,0 -1,-1 1,-1 h 36 c 2,0 1,2 1,2 z"
             transform="translate(-2593.5,91)"
             style="fill:#304246" />
          <path
             data-com="1"
             data-seg="13"
             id="mode_2_B"
             d="m 3168,474 4,-5 a 1.39,1.39 0 0 1 2,0 l 1,1 a 3.89,3.89 0 0 1 1,3 l -1,22 c -1,5 -5,3 -5,3 l -3.56,-2.19 a 3.45,3.45 0 0 1 -0.9,-2 L 3166,479 a 7.65,7.65 0 0 1 2,-5 z"
             transform="translate(-2593.5,91)"
             style="fill:#304246" />
          <path
             data-com="2"
             data-seg="13"
             id="mode_2_C"
             d="m 3165,529.47 3.51,6 a 1.28,1.28 0 0 0 2,0.19 l 1.09,-1 a 4.66,4.66 0 0 0 1.28,-3.29 l 1,-23.8 c -0.53,-5.75 -4.7,-3.87 -4.7,-3.87 l -3.75,2.13 a 4.09,4.09 0 0 0 -1.09,2.23 l -0.83,15.59 a 9.28,9.28 0 0 0 1.49,5.82 z"
             transform="translate(-2593.5,91)"
             style="fill:#304246" />
          <path
             data-com="2"
             data-seg="15"
             id="mode_2_D"
             d="m 3129,537 4,-6 a 3.49,3.49 0 0 1 2,-1 h 26 a 3.1,3.1 0 0 1 2,1 l 5,7 c 0,0 1,1 -1,1 h -37 c -2,0 -1,-2 -1,-2 z"
             transform="translate(-2593.5,91)"
             style="fill:#304246" />
          <path
             data-com="2"
             data-seg="14"
             id="mode_2_E"
             d="m 3131.4,529.78 -4,5.63 a 1.29,1.29 0 0 1 -2,0 l -1,-1.11 a 4.58,4.58 0 0 1 -1,-3.36 l 1.12,-23.57 c 1,-5.61 5,-3.39 5,-3.39 l 3.55,2.43 a 4.11,4.11 0 0 1 0.89,2.29 l -0.55,15.45 a 9.15,9.15 0 0 1 -2.01,5.63 z"
             transform="translate(-2593.5,91)"
             style="fill:#304246" />
          <path
             data-com="0"
             data-seg="14"
             id="mode_2_F"
             d="m 3134.32,474.27 -3.54,-5.33 a 1.38,1.38 0 0 0 -2,-0.18 l -1.09,0.91 a 3.9,3.9 0 0 0 -1.26,2.9 l -0.87,22 c 0.56,5.07 4.72,3.43 4.72,3.43 l 3.74,-1.86 a 3.49,3.49 0 0 0 1.08,-2 l 0.76,-14.75 a 7.63,7.63 0 0 0 -1.54,-5.12 z"
             transform="translate(-2593.5,91)"
             style="fill:#304246" />
          <path
             data-com="1"
             data-seg="15"
             id="mode_2_G"
             d="m 3143,505 5,-1 a 4.83,4.83 0 0 1 4,0 l 5,1 a 10.56,10.56 0 0 0 6,0 l 5,-2 c 0,0 3,-2 0,-3 l -4,-2 a 13.6,13.6 0 0 0 -7,0 l -5,2 a 4.83,4.83 0 0 1 -4,0 l -5,-2 c 0,0 -4,-1 -7,0 l -5,2 c 0,0 -3,1 0,3 l 5,2 a 13.6,13.6 0 0 0 7,0 z"
             transform="translate(-2593.5,91)"
             style="fill:#304246" />
          <polygon
             data-com="1"
             data-seg="14"
             id="mode_2_H"
             points="556.5,588 551.5,585 552.5,570 562.5,570 561.5,585 "
             style="fill:#304246" />
          <polygon
             data-com="1"
             data-seg="14"
             id="mode_2_I"
             points="555.5,597 560.5,600 559.5,617 549.5,617 550.5,600 "
             style="fill:#304246" />
        </g>
        <g
           id="mode_1">
          <path
             data-com="0"
             data-seg="11"
             id="mode_1_A"
             d="m 3242,469 -4,6 a 3.49,3.49 0 0 1 -2,1 h -21 a 3.1,3.1 0 0 1 -2,-1 l -5,-7 c 0,0 -1,-1 1,-1 h 32 c 2,0 1,2 1,2 z"
             transform="translate(-2593.5,91)"
             style="fill:#304246" />
          <path
             data-com="1"
             data-seg="11"
             id="mode_1_B"
             d="m 3241,475 4,-5 a 1.39,1.39 0 0 1 2,0 l 1,1 a 3.89,3.89 0 0 1 1,3 l -1,21 c -1,5 -5,3 -5,3 l -3.56,-2.19 a 3.45,3.45 0 0 1 -0.9,-2 L 3239,480 a 7.65,7.65 0 0 1 2,-5 z"
             transform="translate(-2593.5,91)"
             style="fill:#304246" />
          <path
             data-com="1"
             data-seg="11"
             id="mode_1_C"
             d="m 3238,530.47 3.51,6 a 1.28,1.28 0 0 0 2,0.19 l 1.09,-1 a 4.66,4.66 0 0 0 1.28,-3.29 l 1,-23.8 c -0.53,-5.75 -4.7,-3.87 -4.7,-3.87 l -3.75,2.13 a 4.09,4.09 0 0 0 -1.09,2.23 l -0.83,15.59 a 9.28,9.28 0 0 0 1.49,5.82 z"
             transform="translate(-2593.5,91)"
             style="fill:#304246" />
          <path
             data-com="2"
             data-seg="11"
             id="mode_1_D"
             d="m 3205,538 4,-6 a 3.49,3.49 0 0 1 2,-1 h 22 a 3.1,3.1 0 0 1 2,1 l 5,7 c 0,0 1,1 -1,1 h -33 c -2,0 -1,-2 -1,-2 z"
             transform="translate(-2593.5,91)"
             style="fill:#304246" />
          <path
             data-com="1"
             data-seg="12"
             id="mode_1_E"
             d="m 3207.4,530.78 -4,5.63 a 1.29,1.29 0 0 1 -2,0 l -1,-1.11 a 4.58,4.58 0 0 1 -1,-3.36 l 1.12,-23.57 c 1,-5.61 5,-3.39 5,-3.39 l 3.55,2.43 a 4.11,4.11 0 0 1 0.89,2.29 l -0.55,15.45 a 9.15,9.15 0 0 1 -2.01,5.63 z"
             transform="translate(-2593.5,91)"
             style="fill:#304246" />
          <path
             data-com="1"
             data-seg="12"
             id="mode_1_F"
             d="m 3210.32,475.27 -3.54,-5.33 a 1.38,1.38 0 0 0 -2,-0.18 l -1.09,0.91 a 3.9,3.9 0 0 0 -1.26,2.9 l -0.87,21 c 0.56,5.07 4.72,3.43 4.72,3.43 l 3.74,-1.86 a 3.49,3.49 0 0 0 1.08,-2 l 0.76,-13.75 a 7.63,7.63 0 0 0 -1.54,-5.12 z"
             transform="translate(-2593.5,91)"
             style="fill:#304246" />
          <path
             data-com="2"
             data-seg="12"
             id="mode_1_G"
             d="m 3216,497 h 17 a 12.13,12.13 0 0 1 5,1 l 4,2 c 3,1 0,3 0,3 l -5,2 a 10,10 0 0 1 -4,1 h -17 a 10.34,10.34 0 0 1 -4,-1 l -5,-2 c -3,-2 0,-3 0,-3 l 5,-2 a 10,10 0 0 1 4,-1 z"
             transform="translate(-2593.5,91)"
             style="fill:#304246" />
          <path
             data-com="0"
             data-seg="12"
             id="mode_1_H"
             d="m 3202,469 -3,6 a 3.49,3.49 0 0 1 -2,1 h -3 a 3.1,3.1 0 0 1 -2,-1 l -3,-7 c 0,0 -1,-1 1,-1 h 11 c 2,0 1,2 1,2 z"
             transform="translate(-2593.5,91)"
             style="fill:#304246" />
        </g>
      </g>
      <g
         id="lap">
        <path
           data-com="1"
           data-seg="10"
           d="m 3297.93,536.73 h 17.61 v 5.81 h -25 v -34.6 h 7.41 z"
           transform="translate(-2593.5,91)"
           style="fill:#304246"
           id="path1685" />
        <path
           data-com="1"
           data-seg="10"
           d="m 3329,535.9 -2.34,6.64 h -7.58 l 12.65,-34.6 h 10.72 l 12.88,34.6 h -7.41 l -2.45,-6.64 z m 8.21,-22.87 -6.5,17.94 h 13.11 z"
           transform="translate(-2593.5,91)"
           style="fill:#304246"
           id="path1687" />
        <path
           data-com="1"
           data-seg="10"
           d="m 3361.94,507.94 h 15.22 q 7.64,0.06 11.29,2.05 3.65,1.99 3.64,9.78 c 0,0.45 0,0.92 0,1.4 0,0.48 -0.05,1 -0.09,1.45 a 13.26,13.26 0 0 1 -0.71,3.53 6.55,6.55 0 0 1 -2.14,3 8.07,8.07 0 0 1 -3.85,1.84 24.44,24.44 0 0 1 -4.41,0.39 3.83,3.83 0 0 1 -0.6,0 H 3369 v 11.15 h -7.07 z m 15.34,17.69 a 13.87,13.87 0 0 0 5.72,-0.75 c 1.12,-0.54 1.69,-2.19 1.69,-5 0,-2.56 -0.39,-4.26 -1.15,-5.09 -0.76,-0.83 -2.6,-1.24 -5.52,-1.24 h -9 v 12 z"
           transform="translate(-2593.5,91)"
           style="fill:#304246"
           id="path1689" />
      </g>
      <g
         id="timemode_24H">
        <path
           data-com="2"
           data-seg="16"
           d="m 3018.51,550.54 h -17.6 V 545 q 0,-4.51 1.75,-5.8 a 12.09,12.09 0 0 1 4.93,-1.89 3.09,3.09 0 0 1 0.46,-0.12 l 0.49,-0.08 a 6,6 0 0 1 0.82,-0.12 7.37,7.37 0 0 0 0.75,-0.12 6.8,6.8 0 0 0 3.1,-1.05 c 0.69,-0.51 1,-1.77 1,-3.78 0,-2.01 -0.33,-3.31 -1,-3.73 a 7.11,7.11 0 0 0 -3.49,-0.62 6.73,6.73 0 0 0 -3.71,0.7 c -0.63,0.47 -0.94,1.82 -0.94,4 v 0.84 h -4.2 V 532 c 0,-0.24 0,-0.49 0,-0.74 0,-0.25 0,-0.5 0,-0.74 a 13.83,13.83 0 0 1 0.46,-3 4.3,4.3 0 0 1 1.61,-2.34 6.36,6.36 0 0 1 2.2,-1.08 12.5,12.5 0 0 1 2.42,-0.41 c 0.37,0 0.73,0 1.08,0 h 1.05 a 12.24,12.24 0 0 1 6.5,1.43 c 1.5,0.94 2.25,3.25 2.25,6.91 0,3.66 -0.66,5.88 -2,6.78 a 13,13 0 0 1 -5.06,1.91 l -2,0.34 a 17.28,17.28 0 0 0 -2.13,0.51 2.41,2.41 0 0 0 -1.91,1.48 10.28,10.28 0 0 0 -0.3,2.74 v 0.69 h 13.37 z"
           transform="translate(-2593.5,91)"
           style="fill:#304246"
           id="path1692" />
        <path
           data-com="2"
           data-seg="16"
           d="m 3042.35,540.92 h 2.73 v 3.83 h -2.73 v 5.79 h -4.2 v -5.79 h -12.71 v -5.56 l 10.36,-15.5 h 6.55 z m -4.27,-13.48 -9.1,13.48 h 9.17 z"
           transform="translate(-2593.5,91)"
           style="fill:#304246"
           id="path1694" />
        <path
           data-com="2"
           data-seg="16"
           d="m 3071.71,550.54 h -4.48 v -11.47 h -10.88 v 11.47 h -4.45 v -26.85 h 4.45 v 11 h 10.88 v -11 h 4.48 z"
           transform="translate(-2593.5,91)"
           style="fill:#304246"
           id="path1696" />
      </g>
      <g
         id="timemode_PM">
        <path
           data-com="2"
           data-seg="17"
           d="m 2922.93,514.49 h 12.55 q 6.3,0.06 9.31,2.14 3.01,2.08 3,10.18 c 0,0.47 0,1 0,1.46 0,0.46 0,1 -0.07,1.52 a 16.64,16.64 0 0 1 -0.59,3.67 6.84,6.84 0 0 1 -1.76,3.08 6.22,6.22 0 0 1 -3.17,1.92 16.25,16.25 0 0 1 -3.64,0.41 2.73,2.73 0 0 1 -0.5,0 h -9.28 v 11.62 h -5.83 z m 12.65,18.43 a 9.35,9.35 0 0 0 4.72,-0.78 c 0.92,-0.56 1.39,-2.28 1.39,-5.16 0,-2.67 -0.32,-4.44 -0.94,-5.3 -0.62,-0.86 -2.15,-1.3 -4.56,-1.3 h -7.43 v 12.54 z"
           transform="translate(-2593.5,91)"
           style="fill:#304246"
           id="path1699" />
        <path
           data-com="2"
           data-seg="17"
           d="M 2988.83,550.54 H 2983 l 0.19,-30.37 -9.87,30.37 h -5.41 l -10,-30.21 0.28,30.21 h -5.87 v -36 h 9.68 l 8.46,26.76 h 0.19 l 8.37,-26.76 h 9.87 z"
           transform="translate(-2593.5,91)"
           style="fill:#304246"
           id="path1701" />
      </g>
      <g
         id="alarm">
        <path
           data-com="0"
           data-seg="16"
           id="alarm_inside"
           d="m 3056,494.06 c -3.84,0 -4.77,-4.95 -4.77,-4.95 v -12.69 c 0,-6.45 -6.71,-6.45 -6.71,-6.45 h -3.19 v -4.5 h -5 V 470 h -3.2 c 0,0 -6.7,0 -6.7,6.45 v 12.69 c 0,0 -0.91,4.95 -4.77,4.95 v 4.61 H 3036 a 6.21,6.21 0 0 0 -1.27,3.84 c 0,3 1.92,5.39 4.28,5.39 2.36,0 4.27,-2.42 4.27,-5.39 a 6.31,6.31 0 0 0 -1.23,-3.84 h 14 z m -8,0.94 h -18 v -19 a 2.94,2.94 0 0 1 3,-3 h 12 a 2.94,2.94 0 0 1 3,3 z"
           transform="translate(-2593.5,91)"
           style="fill:#304246" />
      </g>
      <g
         id="signal">
        <path
           data-com="0"
           data-seg="17"
           id="signal_5"
           d="m 2992.68,498.36 c 1,0 1.75,-6.25 1.75,-14 0,-7.75 -0.78,-13.95 -1.75,-13.95 h -6 c 0.94,0 1.73,6.25 1.73,13.95 0,7.7 -0.79,14 -1.73,14 h 6"
           transform="translate(-2593.5,91)"
           style="fill:#304246" />
        <path
           data-com="0"
           data-seg="17"
           id="signal_4"
           d="m 2979.8,498.36 c 0.95,0 1.74,-6.25 1.74,-14 0,-7.75 -0.79,-13.95 -1.74,-13.95 h -7.41 c 1,0 1.76,6.25 1.76,13.95 0,7.7 -0.79,14 -1.76,14 h 7.41"
           transform="translate(-2593.5,91)"
           style="fill:#304246" />
        <path
           data-com="0"
           data-seg="17"
           id="signal_3"
           d="m 2964.16,498.36 c 1.48,0 2.67,-6.25 2.67,-14 0,-7.75 -1.19,-13.95 -2.67,-13.95 h -7.78 c 1.48,0 2.67,6.25 2.67,13.95 0,7.7 -1.19,14 -2.67,14 h 7.78"
           transform="translate(-2593.5,91)"
           style="fill:#304246" />
        <path
           data-com="0"
           data-seg="17"
           id="signal_2"
           d="m 2948,498.36 c 2.58,0 4.71,-6.25 4.71,-14 0,-7.75 -2.13,-13.95 -4.71,-13.95 h -8.33 c 2.59,0 4.71,6.25 4.71,13.95 0,7.7 -2.12,14 -4.71,14 h 8.33"
           transform="translate(-2593.5,91)"
           style="fill:#304246" />
        <path
           data-com="0"
           data-seg="17"
           id="signal_1"
           d="m 2932.78,498.36 c 2.61,0 4.71,-6.25 4.71,-14 0,-7.75 -2.1,-13.95 -4.71,-13.95 H 2923 v 27.89 l 9.78,0.06"
           transform="translate(-2593.5,91)"
           style="fill:#304246" />
      </g>
    </g>
  </g>
</svg>
