<?xml version="1.0" encoding="utf-8" standalone="no"?>
<!DOCTYPE svg PUBLIC "-//W3C//DTD SVG 1.1//EN"
  "http://www.w3.org/Graphics/SVG/1.1/DTD/svg11.dtd">
<svg xmlns:xlink="http://www.w3.org/1999/xlink" width="486pt" height="97.2pt" viewBox="0 0 486 97.2" xmlns="http://www.w3.org/2000/svg" version="1.1">
 <metadata>
  <rdf:RDF xmlns:dc="http://purl.org/dc/elements/1.1/" xmlns:cc="http://creativecommons.org/ns#" xmlns:rdf="http://www.w3.org/1999/02/22-rdf-syntax-ns#">
   <cc:Work>
    <dc:type rdf:resource="http://purl.org/dc/dcmitype/StillImage"/>
    <dc:date>2022-09-25T08:24:06.056555</dc:date>
    <dc:format>image/svg+xml</dc:format>
    <dc:creator>
     <cc:Agent>
      <dc:title>Matplotlib v3.5.1, https://matplotlib.org/</dc:title>
     </cc:Agent>
    </dc:creator>
   </cc:Work>
  </rdf:RDF>
 </metadata>
 <defs>
  <style type="text/css">*{stroke-linejoin: round; stroke-linecap: butt}</style>
 </defs>
 <g id="figure_1">
  <g id="patch_1">
   <path d="M 0 97.2 
L 486 97.2 
L 486 0 
L 0 0 
L 0 97.2 
z
" style="fill: none"/>
  </g>
  <g id="axes_1">
   <g id="LineCollection_1">
    <path d="M 54.216 14.04 
L 19.422563 65.88 
" clip-path="url(#p1bcb6a9585)" style="fill: none; stroke: #000000; stroke-width: 1.5; stroke-linecap: round"/>
    <path d="M 19.422563 65.88 
L 89.009437 65.88 
" clip-path="url(#p1bcb6a9585)" style="fill: none; stroke: #000000; stroke-width: 1.5; stroke-linecap: round"/>
    <path d="M 89.009437 65.88 
L 54.216 14.04 
" clip-path="url(#p1bcb6a9585)" style="fill: none; stroke: #000000; stroke-width: 1.5; stroke-linecap: round"/>
    <g id="text_1">
     <!-- $\pm i$ -->
     <g transform="translate(45.354714 52.585056)scale(0.16 -0.16)">
      <defs>
       <path id="CMSY10-6" d="M 2618 1984 
L 4397 1984 
C 4506 1984 4621 1984 4621 2112 
C 4621 2240 4506 2240 4397 2240 
L 2618 2240 
L 2618 4048 
C 2618 4153 2618 4288 2490 4288 
C 2362 4288 2362 4172 2362 4068 
L 2362 2240 
L 576 2240 
C 467 2240 352 2240 352 2112 
C 352 1984 467 1984 576 1984 
L 2362 1984 
L 2362 256 
L 576 256 
C 467 256 352 256 352 128 
C 352 0 467 0 576 0 
L 4397 0 
C 4506 0 4621 0 4621 128 
C 4621 256 4506 256 4397 256 
L 2618 256 
L 2618 1984 
z
" transform="scale(0.015625)"/>
       <path id="CMMI12-69" d="M 1811 913 
C 1811 945 1786 970 1747 970 
C 1690 970 1683 951 1651 842 
C 1485 261 1222 64 1011 64 
C 934 64 845 83 845 274 
C 845 447 922 638 992 830 
L 1440 2017 
C 1459 2068 1504 2183 1504 2305 
C 1504 2573 1312 2816 998 2816 
C 410 2816 173 1890 173 1838 
C 173 1813 198 1781 243 1781 
C 301 1781 307 1807 333 1896 
C 486 2432 730 2687 979 2687 
C 1037 2687 1146 2681 1146 2477 
C 1146 2311 1062 2100 1011 1960 
L 563 772 
C 525 670 486 568 486 453 
C 486 166 685 -64 992 -64 
C 1581 -64 1811 868 1811 913 
z
M 1760 4012 
C 1760 4108 1683 4224 1542 4224 
C 1395 4224 1229 4083 1229 3916 
C 1229 3756 1363 3705 1440 3705 
C 1613 3705 1760 3871 1760 4012 
z
" transform="scale(0.015625)"/>
      </defs>
      <use xlink:href="#CMSY10-6" transform="scale(0.996264)"/>
      <use xlink:href="#CMMI12-69" transform="translate(77.487468 0)scale(0.996264)"/>
     </g>
    </g>
    <g id="patch_2">
     <path d="M 35.563782 41.830615 
L 35.900192 37.009385 
L 38.074782 38.089385 
L 38.074782 38.089385 
L 38.074782 38.089385 
L 38.074782 38.089385 
L 40.249371 39.169385 
z
" clip-path="url(#p1bcb6a9585)" style="stroke: #000000; stroke-linejoin: miter"/>
    </g>
    <g id="patch_3">
     <path d="M 56.727 65.88 
L 51.705 68.04 
L 51.705 65.88 
L 51.705 65.88 
L 51.705 65.88 
L 51.705 65.88 
L 51.705 63.72 
z
" clip-path="url(#p1bcb6a9585)" style="stroke: #000000; stroke-linejoin: miter"/>
    </g>
    <g id="patch_4">
     <path d="M 70.357218 38.089385 
L 75.042808 40.750615 
L 72.868218 41.830615 
L 72.868218 41.830615 
L 72.868218 41.830615 
L 72.868218 41.830615 
L 70.693629 42.910615 
z
" clip-path="url(#p1bcb6a9585)" style="stroke: #000000; stroke-linejoin: miter"/>
    </g>
   </g>
   <g id="axes_2">
    <g id="LineCollection_2">
     <path d="M 120.199278 24.16239 
L 120.199278 73.03761 
" clip-path="url(#p9f0f2f44e5)" style="fill: none; stroke: #000000; stroke-width: 1.5; stroke-linecap: round"/>
     <path d="M 120.199278 73.03761 
L 177.016722 73.03761 
" clip-path="url(#p9f0f2f44e5)" style="fill: none; stroke: #000000; stroke-width: 1.5; stroke-linecap: round"/>
     <path d="M 177.016722 73.03761 
L 177.016722 24.16239 
" clip-path="url(#p9f0f2f44e5)" style="fill: none; stroke: #000000; stroke-width: 1.5; stroke-linecap: round"/>
     <path d="M 177.016722 24.16239 
L 120.199278 24.16239 
" clip-path="url(#p9f0f2f44e5)" style="fill: none; stroke: #000000; stroke-width: 1.5; stroke-linecap: round"/>
     <g id="text_2">
      <!-- $- 1$ -->
      <g transform="translate(138.507008 52.585056)scale(0.16 -0.16)">
       <defs>
        <path id="CMSY10-0" d="M 4218 1472 
C 4326 1472 4442 1472 4442 1600 
C 4442 1728 4326 1728 4218 1728 
L 755 1728 
C 646 1728 531 1728 531 1600 
C 531 1472 646 1472 755 1472 
L 4218 1472 
z
" transform="scale(0.015625)"/>
        <path id="CMR17-31" d="M 1702 4083 
C 1702 4217 1696 4224 1606 4224 
C 1357 3927 979 3833 621 3820 
C 602 3820 570 3820 563 3808 
C 557 3795 557 3782 557 3648 
C 755 3648 1088 3686 1344 3839 
L 1344 467 
C 1344 243 1331 166 781 166 
L 589 166 
L 589 0 
C 896 6 1216 12 1523 12 
C 1830 12 2150 6 2458 0 
L 2458 166 
L 2266 166 
C 1715 166 1702 236 1702 467 
L 1702 4083 
z
" transform="scale(0.015625)"/>
       </defs>
       <use xlink:href="#CMSY10-0" transform="scale(0.996264)"/>
       <use xlink:href="#CMR17-31" transform="translate(77.487468 0)scale(0.996264)"/>
      </g>
     </g>
     <g id="patch_5">
      <path d="M 120.199278 50.76 
L 117.688278 46.44 
L 120.199278 46.44 
L 120.199278 46.44 
L 120.199278 46.44 
L 120.199278 46.44 
L 122.710278 46.44 
z
" clip-path="url(#p9f0f2f44e5)" style="stroke: #000000; stroke-linejoin: miter"/>
     </g>
     <g id="patch_6">
      <path d="M 151.119 73.03761 
L 146.097 75.19761 
L 146.097 73.03761 
L 146.097 73.03761 
L 146.097 73.03761 
L 146.097 73.03761 
L 146.097 70.87761 
z
" clip-path="url(#p9f0f2f44e5)" style="stroke: #000000; stroke-linejoin: miter"/>
     </g>
     <g id="patch_7">
      <path d="M 177.016722 46.44 
L 179.527722 50.76 
L 177.016722 50.76 
L 177.016722 50.76 
L 177.016722 50.76 
L 177.016722 50.76 
L 174.505722 50.76 
z
" clip-path="url(#p9f0f2f44e5)" style="stroke: #000000; stroke-linejoin: miter"/>
     </g>
     <g id="patch_8">
      <path d="M 146.097 24.16239 
L 151.119 22.00239 
L 151.119 24.16239 
L 151.119 24.16239 
L 151.119 24.16239 
L 151.119 24.16239 
L 151.119 26.32239 
z
" clip-path="url(#p9f0f2f44e5)" style="stroke: #000000; stroke-linejoin: miter"/>
     </g>
    </g>
    <g id="axes_3">
     <g id="LineCollection_3">
      <path d="M 243 14.04 
L 204.790353 37.920373 
" clip-path="url(#p2961c3e082)" style="fill: none; stroke: #000000; stroke-width: 1.5; stroke-linecap: round"/>
      <path d="M 204.790353 37.920373 
L 219.38514 76.559627 
" clip-path="url(#p2961c3e082)" style="fill: none; stroke: #000000; stroke-width: 1.5; stroke-linecap: round"/>
      <path d="M 219.38514 76.559627 
L 266.61486 76.559627 
" clip-path="url(#p2961c3e082)" style="fill: none; stroke: #000000; stroke-width: 1.5; stroke-linecap: round"/>
      <path d="M 266.61486 76.559627 
L 281.209647 37.920373 
" clip-path="url(#p2961c3e082)" style="fill: none; stroke: #000000; stroke-width: 1.5; stroke-linecap: round"/>
      <path d="M 281.209647 37.920373 
L 243 14.04 
" clip-path="url(#p2961c3e082)" style="fill: none; stroke: #000000; stroke-width: 1.5; stroke-linecap: round"/>
      <g id="text_3">
       <!-- $\mp i$ -->
       <g transform="translate(234.138714 52.585056)scale(0.16 -0.16)">
        <defs>
         <path id="CMSY10-7" d="M 2618 959 
L 4397 959 
C 4506 959 4621 959 4621 1087 
C 4621 1216 4506 1216 4397 1216 
L 2618 1216 
L 2618 2944 
L 4397 2944 
C 4506 2944 4621 2944 4621 3072 
C 4621 3200 4506 3200 4397 3200 
L 576 3200 
C 467 3200 352 3200 352 3072 
C 352 2944 467 2944 576 2944 
L 2362 2944 
L 2362 1216 
L 576 1216 
C 467 1216 352 1216 352 1087 
C 352 959 467 959 576 959 
L 2362 959 
L 2362 -869 
C 2362 -973 2362 -1088 2490 -1088 
C 2618 -1088 2618 -948 2618 -849 
L 2618 959 
z
" transform="scale(0.015625)"/>
        </defs>
        <use xlink:href="#CMSY10-7" transform="scale(0.996264)"/>
        <use xlink:href="#CMMI12-69" transform="translate(77.487468 0)scale(0.996264)"/>
       </g>
      </g>
      <g id="patch_9">
       <path d="M 221.863735 27.249802 
L 224.45069 22.963093 
L 225.926618 24.71057 
L 225.926618 24.71057 
L 225.926618 24.71057 
L 225.926618 24.71057 
L 227.402547 26.458047 
z
" clip-path="url(#p2961c3e082)" style="stroke: #000000; stroke-linejoin: miter"/>
      </g>
      <g id="patch_10">
       <path d="M 212.863688 59.294282 
L 208.923702 55.853195 
L 211.311805 55.185718 
L 211.311805 55.185718 
L 211.311805 55.185718 
L 211.311805 55.185718 
L 213.699908 54.518241 
z
" clip-path="url(#p2961c3e082)" style="stroke: #000000; stroke-linejoin: miter"/>
      </g>
      <g id="patch_11">
       <path d="M 245.511 76.559627 
L 240.489 78.719627 
L 240.489 76.559627 
L 240.489 76.559627 
L 240.489 76.559627 
L 240.489 76.559627 
L 240.489 74.399627 
z
" clip-path="url(#p2961c3e082)" style="stroke: #000000; stroke-linejoin: miter"/>
      </g>
      <g id="patch_12">
       <path d="M 274.688195 55.185718 
L 275.524415 59.961759 
L 273.136312 59.294282 
L 273.136312 59.294282 
L 273.136312 59.294282 
L 273.136312 59.294282 
L 270.748209 58.626805 
z
" clip-path="url(#p2961c3e082)" style="stroke: #000000; stroke-linejoin: miter"/>
      </g>
      <g id="patch_13">
       <path d="M 260.073382 24.71057 
L 265.612194 25.502326 
L 264.136265 27.249802 
L 264.136265 27.249802 
L 264.136265 27.249802 
L 264.136265 27.249802 
L 262.660336 28.997279 
z
" clip-path="url(#p2961c3e082)" style="stroke: #000000; stroke-linejoin: miter"/>
      </g>
     </g>
     <g id="axes_4">
      <g id="LineCollection_4">
       <path d="M 317.304 18.670162 
L 297.216 48.6 
" clip-path="url(#p089b8ac67d)" style="fill: none; stroke: #000000; stroke-width: 1.5; stroke-linecap: round"/>
       <path d="M 297.216 48.6 
L 317.304 78.529838 
" clip-path="url(#p089b8ac67d)" style="fill: none; stroke: #000000; stroke-width: 1.5; stroke-linecap: round"/>
       <path d="M 317.304 78.529838 
L 357.48 78.529838 
" clip-path="url(#p089b8ac67d)" style="fill: none; stroke: #000000; stroke-width: 1.5; stroke-linecap: round"/>
       <path d="M 357.48 78.529838 
L 377.568 48.6 
" clip-path="url(#p089b8ac67d)" style="fill: none; stroke: #000000; stroke-width: 1.5; stroke-linecap: round"/>
       <path d="M 377.568 48.6 
L 357.48 18.670162 
" clip-path="url(#p089b8ac67d)" style="fill: none; stroke: #000000; stroke-width: 1.5; stroke-linecap: round"/>
       <path d="M 357.48 18.670162 
L 317.304 18.670162 
" clip-path="url(#p089b8ac67d)" style="fill: none; stroke: #000000; stroke-width: 1.5; stroke-linecap: round"/>
       <g id="text_4">
        <!-- $+ 1$ -->
        <g transform="translate(327.420239 52.585056)scale(0.16 -0.16)">
         <defs>
          <path id="CMR17-2b" d="M 2413 1472 
L 4109 1472 
C 4198 1472 4307 1472 4307 1580 
C 4307 1696 4205 1696 4109 1696 
L 2413 1696 
L 2413 3385 
C 2413 3475 2413 3584 2304 3584 
C 2189 3584 2189 3481 2189 3385 
L 2189 1696 
L 493 1696 
C 403 1696 294 1696 294 1587 
C 294 1472 397 1472 493 1472 
L 2189 1472 
L 2189 -194 
C 2189 -282 2189 -391 2298 -391 
C 2413 -391 2413 -289 2413 -194 
L 2413 1472 
z
" transform="scale(0.015625)"/>
         </defs>
         <use xlink:href="#CMR17-2b" transform="scale(0.996264)"/>
         <use xlink:href="#CMR17-31" transform="translate(71.714788 0)scale(0.996264)"/>
        </g>
       </g>
       <g id="patch_14">
        <path d="M 306.0045 35.505696 
L 306.34091 30.684466 
L 308.5155 31.764466 
L 308.5155 31.764466 
L 308.5155 31.764466 
L 308.5155 31.764466 
L 310.69009 32.844466 
z
" clip-path="url(#p089b8ac67d)" style="stroke: #000000; stroke-linejoin: miter"/>
       </g>
       <g id="patch_15">
        <path d="M 308.5155 65.435534 
L 303.82991 62.774304 
L 306.0045 61.694304 
L 306.0045 61.694304 
L 306.0045 61.694304 
L 306.0045 61.694304 
L 308.17909 60.614304 
z
" clip-path="url(#p089b8ac67d)" style="stroke: #000000; stroke-linejoin: miter"/>
       </g>
       <g id="patch_16">
        <path d="M 339.903 78.529838 
L 334.881 80.689838 
L 334.881 78.529838 
L 334.881 78.529838 
L 334.881 78.529838 
L 334.881 78.529838 
L 334.881 76.369838 
z
" clip-path="url(#p089b8ac67d)" style="stroke: #000000; stroke-linejoin: miter"/>
       </g>
       <g id="patch_17">
        <path d="M 368.7795 61.694304 
L 368.44309 66.515534 
L 366.2685 65.435534 
L 366.2685 65.435534 
L 366.2685 65.435534 
L 366.2685 65.435534 
L 364.09391 64.355534 
z
" clip-path="url(#p089b8ac67d)" style="stroke: #000000; stroke-linejoin: miter"/>
       </g>
       <g id="patch_18">
        <path d="M 366.2685 31.764466 
L 370.95409 34.425696 
L 368.7795 35.505696 
L 368.7795 35.505696 
L 368.7795 35.505696 
L 368.7795 35.505696 
L 366.60491 36.585696 
z
" clip-path="url(#p089b8ac67d)" style="stroke: #000000; stroke-linejoin: miter"/>
       </g>
       <g id="patch_19">
        <path d="M 334.881 18.670162 
L 339.903 16.510162 
L 339.903 18.670162 
L 339.903 18.670162 
L 339.903 18.670162 
L 339.903 18.670162 
L 339.903 20.830162 
z
" clip-path="url(#p089b8ac67d)" style="stroke: #000000; stroke-linejoin: miter"/>
       </g>
      </g>
      <g id="axes_5">
       <g id="LineCollection_5">
        <path d="M 431.784 14.04 
L 400.373138 27.052192 
" clip-path="url(#p9d83d61108)" style="fill: none; stroke: #000000; stroke-width: 1.5; stroke-linecap: round"/>
        <path d="M 400.373138 27.052192 
L 392.615296 56.290323 
" clip-path="url(#p9d83d61108)" style="fill: none; stroke: #000000; stroke-width: 1.5; stroke-linecap: round"/>
        <path d="M 392.615296 56.290323 
L 414.352287 79.737484 
" clip-path="url(#p9d83d61108)" style="fill: none; stroke: #000000; stroke-width: 1.5; stroke-linecap: round"/>
        <path d="M 414.352287 79.737484 
L 449.215713 79.737484 
" clip-path="url(#p9d83d61108)" style="fill: none; stroke: #000000; stroke-width: 1.5; stroke-linecap: round"/>
        <path d="M 449.215713 79.737484 
L 470.952704 56.290323 
" clip-path="url(#p9d83d61108)" style="fill: none; stroke: #000000; stroke-width: 1.5; stroke-linecap: round"/>
        <path d="M 470.952704 56.290323 
L 463.194862 27.052192 
" clip-path="url(#p9d83d61108)" style="fill: none; stroke: #000000; stroke-width: 1.5; stroke-linecap: round"/>
        <path d="M 463.194862 27.052192 
L 431.784 14.04 
" clip-path="url(#p9d83d61108)" style="fill: none; stroke: #000000; stroke-width: 1.5; stroke-linecap: round"/>
        <g id="text_5">
         <!-- $\pm i$ -->
         <g transform="translate(422.922714 52.585056)scale(0.16 -0.16)">
          <use xlink:href="#CMSY10-6" transform="scale(0.996264)"/>
          <use xlink:href="#CMMI12-69" transform="translate(77.487468 0)scale(0.996264)"/>
         </g>
        </g>
        <g id="patch_20">
         <path d="M 413.816236 21.483285 
L 417.25142 17.662815 
L 418.340902 19.608907 
L 418.340902 19.608907 
L 418.340902 19.608907 
L 418.340902 19.608907 
L 419.430384 21.555 
z
" clip-path="url(#p9d83d61108)" style="stroke: #000000; stroke-linejoin: miter"/>
        </g>
        <g id="patch_21">
         <path d="M 395.935467 43.777102 
L 394.604923 39.084768 
L 397.052967 39.565414 
L 397.052967 39.565414 
L 397.052967 39.565414 
L 397.052967 39.565414 
L 399.501011 40.046059 
z
" clip-path="url(#p9d83d61108)" style="stroke: #000000; stroke-linejoin: miter"/>
        </g>
        <g id="patch_22">
         <path d="M 405.049374 69.70266 
L 399.95503 67.671886 
L 401.918209 66.325148 
L 401.918209 66.325148 
L 401.918209 66.325148 
L 401.918209 66.325148 
L 403.881388 64.97841 
z
" clip-path="url(#p9d83d61108)" style="stroke: #000000; stroke-linejoin: miter"/>
        </g>
        <g id="patch_23">
         <path d="M 434.295 79.737484 
L 429.273 81.897484 
L 429.273 79.737484 
L 429.273 79.737484 
L 429.273 79.737484 
L 429.273 79.737484 
L 429.273 77.577484 
z
" clip-path="url(#p9d83d61108)" style="stroke: #000000; stroke-linejoin: miter"/>
        </g>
        <g id="patch_24">
         <path d="M 461.649791 66.325148 
L 460.481804 71.049398 
L 458.518626 69.70266 
L 458.518626 69.70266 
L 458.518626 69.70266 
L 458.518626 69.70266 
L 456.555447 68.355922 
z
" clip-path="url(#p9d83d61108)" style="stroke: #000000; stroke-linejoin: miter"/>
        </g>
        <g id="patch_25">
         <path d="M 466.515033 39.565414 
L 470.080577 43.296457 
L 467.632533 43.777102 
L 467.632533 43.777102 
L 467.632533 43.777102 
L 467.632533 43.777102 
L 465.184489 44.257747 
z
" clip-path="url(#p9d83d61108)" style="stroke: #000000; stroke-linejoin: miter"/>
        </g>
        <g id="patch_26">
         <path d="M 445.227098 19.608907 
L 450.841246 19.537192 
L 449.751764 21.483285 
L 449.751764 21.483285 
L 449.751764 21.483285 
L 449.751764 21.483285 
L 448.662282 23.429378 
z
" clip-path="url(#p9d83d61108)" style="stroke: #000000; stroke-linejoin: miter"/>
        </g>
       </g>
      </g>
      <defs>
       <clipPath id="p1bcb6a9585">
        <rect x="14.04" y="14.04" width="80.352" height="69.12"/>
       </clipPath>
       <clipPath id="p9f0f2f44e5">
        <rect x="108.432" y="14.04" width="80.352" height="69.12"/>
       </clipPath>
       <clipPath id="p2961c3e082">
        <rect x="202.824" y="14.04" width="80.352" height="69.12"/>
       </clipPath>
       <clipPath id="p089b8ac67d">
        <rect x="297.216" y="14.04" width="80.352" height="69.12"/>
       </clipPath>
       <clipPath id="p9d83d61108">
        <rect x="391.608" y="14.04" width="80.352" height="69.12"/>
       </clipPath>
      </defs>
     </g>
    </g>
   </g>
  </g>
 </g>
</svg>
