<svg xmlns="http://www.w3.org/2000/svg" xml:space="preserve" width="500" height="500"><defs><clipPath id="a" clipPathUnits="userSpaceOnUse"><path d="M3191 3432h2006v3320H3191z"/></clipPath><clipPath id="b" clipPathUnits="userSpaceOnUse"><path d="M2755 8714h1559v1988H2755z"/></clipPath></defs><g clip-path="url(#a)" transform="matrix(.14148 0 0 -.14148 -273.774 972.871)"><path d="m4355 5159 7-2 7-2 7-2 7-3 7-3 7-3 6-3 7-4" style="fill:none;stroke:#000;stroke-width:9;stroke-linecap:round;stroke-linejoin:round;stroke-miterlimit:10;stroke-dasharray:none;stroke-opacity:1"/><path d="M161.316-31.891c24.133 40.741-.34 85.817-60.429 111.297s-141.86 25.457-201.906-.056-84.445-70.602-60.244-111.33" style="fill:none;stroke:#000;stroke-width:17;stroke-linecap:round;stroke-linejoin:round;stroke-miterlimit:10;stroke-dasharray:none;stroke-opacity:1" transform="rotate(180 2097.25 2547.25)"/><path d="M828.767-110.4c78.67 197.23-59.921 402.162-349.16 516.298-289.238 114.136-669.976 114.136-959.214 0S-907.437 86.83-828.767-110.4" style="fill:none;stroke:#000;stroke-width:17;stroke-linecap:round;stroke-linejoin:round;stroke-miterlimit:10;stroke-dasharray:none;stroke-opacity:1" transform="rotate(180 2097.25 2037.75)"/><path d="m3365 4186 13 33 14 34 14 33 14 34 14 33 15 33 14 33 8 17 8 16 7 17 8 16 8 17 8 16 8 17 8 16 8 16 8 17 8 16 9 16 9 16 8 16 9 17 9 16 9 16 9 16 9 16 10 16 9 16 10 16 10 15 10 16 10 16 10 16 11 15 10 16 11 16 12 15 11 15 6 8 6 8 6 7 6 8 6 7 6 8 6 7 7 8 6 7 6 7 7 8 7 7 6 7 7 7 7 7 7 7 7 7 8 7 7 7 8 7 7 7 8 6 8 7 8 6 8 6 8 7 8 6 9 6 8 5 9 6 9 6 9 5 9 5 10 5 9 5 10 5 9 4 10 4M4355 5164l10-4 10-4 9-5 10-5 9-5 9-5 9-5 9-6 9-6 8-5 9-6 8-7 8-6 8-6 8-6 8-7 8-7 8-6 7-7 7-7 8-7 7-7 7-7 7-7 7-7 6-7 7-7 7-8 6-7 7-7 6-8 6-7 6-8 6-7 6-8 6-8 12-15 11-15 12-16 11-15 10-16 11-15 10-16 10-16 10-16 10-16 10-15 9-16 9-16 10-16 9-17 9-16 9-16 8-16 9-16 8-16 9-17 8-16 8-16 9-17 8-16 8-16 15-33 16-33 15-33 15-33 14-33 15-33 14-34 14-33 14-34 13-33" style="fill:none;stroke:#000;stroke-width:17;stroke-linecap:round;stroke-linejoin:round;stroke-miterlimit:10;stroke-dasharray:none;stroke-opacity:1"/><path d="M-20.153-11.667c11.13-6.444 29.176-6.444 40.306 0 11.13 6.443 11.13 16.89 0 23.334s-29.176 6.444-40.306 0c-11.13-6.443-11.13-16.89 0-23.334" style="fill:none;stroke:#000;stroke-width:17;stroke-linecap:round;stroke-linejoin:round;stroke-miterlimit:10;stroke-dasharray:none;stroke-opacity:1" transform="rotate(180 2097.25 3292.25)"/><path d="M28.5 0c0 9.113-12.76 16.5-28.5 16.5S-28.5 9.113-28.5 0" style="fill:none;stroke:#000;stroke-width:17;stroke-linecap:round;stroke-linejoin:round;stroke-miterlimit:10;stroke-dasharray:none;stroke-opacity:1" transform="rotate(180 2097.25 2674.25)"/><path d="m4273 5364-2 1-3 1-2 1-3 1h-3l-2 1h-13l-3-1-4-1-4-1-4-1-4-1-4-1" style="fill:none;stroke:#000;stroke-width:9;stroke-linecap:round;stroke-linejoin:round;stroke-miterlimit:10;stroke-dasharray:none;stroke-opacity:1"/><path d="M161.5 0c0 51.639-72.306 93.5-161.5 93.5S-161.5 51.639-161.5 0" style="fill:none;stroke:#000;stroke-width:17;stroke-linecap:round;stroke-linejoin:round;stroke-miterlimit:10;stroke-dasharray:none;stroke-opacity:1" transform="rotate(180 2097.25 2547.25)"/><path d="M4222 6584V5348M4166 6584V5348M4033 5094v78l1 11v15l1 5v6l1 5v5l1 6 1 5v5l1 6 1 5 1 6 2 5 1 6 1 5 2 6 2 5 2 6 2 5 2 5 3 6 2 5 3 5 3 5 3 5 4 5 3 5 4 4 4 5 4 4 5 4 4 3 5 4 4 3 5 4 5 3 5 2 6 3 5 2 5 2 6 2 5 2 6 2 6 1 6 1M4222 5382l6-1 6-1 5-2 6-2 6-2 5-2 5-2 6-3 5-2 5-3 5-4 4-3 5-4 4-3 5-4 4-4 4-5 4-4 3-5 4-5 3-5 3-5 3-5 2-5 3-6 2-5 2-5 2-6 2-5 2-6 1-5 1-6 2-5 1-6 1-5 1-6v-5l1-5 1-6v-5l1-5v-6l1-5v-15l1-11v-78" style="fill:none;stroke:#000;stroke-width:17;stroke-linecap:round;stroke-linejoin:round;stroke-miterlimit:10;stroke-dasharray:none;stroke-opacity:1"/></g><g clip-path="url(#b)" transform="matrix(.14148 0 0 -.14148 -349.38 1538.688)"><path d="m3379 9201 3-2 2-1 3-2 3-2 3-1 1-1 2-1 1-1h2l2-1 1-1 2-1h2l1-1 2-1 2-1h2l1-1h2l2-1 2-1h1l2-1h3l1-1h7" style="fill:none;stroke:#000;stroke-width:17;stroke-linecap:round;stroke-linejoin:round;stroke-miterlimit:10;stroke-dasharray:none;stroke-opacity:1"/><path d="m3428 9171-1 1h-3l-1 1h-2l-1 1h-2l-1 1h-2l-1 1h-2l-2 1-3 1-3 2-3 1-3 1-2 1-3 2-3 1-2 2-3 1-2 1-2 1-2 2-1 1-2 1-1 1-1 1-1 1v2l1 1h6l2-1h2l2-1h3l2-1h1l2-1 2-1h2l2-1h1l2-1 2-1 2-1h1l2-1 2-1h2l1-1 2-1 2-1h1l2-1 3-2 3-1 2-2 2-1 2-1 2-2 1-1 1-1v-1l1-1-1-1-1-1h-9M3712 9200l-2-1h-1l-1-1h-1l-1-1-1-1h-2v-1h-1v1l1 1h1l1 1 1 1 1 1 2 1 2 1 2 2 2 1 2 2 3 1 3 2 2 2 3 2 3 2 4 1 3 2 3 2 2 1 2 1 1 2 2 1 2 1h1l2 1 1 1 2 1 1 1 2 1 1 1h1l1 1 1 1h2l1 1h1v1h1l-1-1-1-1-1-1-2-1-2-1-2-2-3-1-2-2-3-2-3-2-3-2-3-2-3-2-3-2-4-2-3-2-3-2-3-2-1-1-2-1-1-1-2-1-1-1-2-1h-1z" style="fill:none;stroke:#000;stroke-width:17;stroke-linecap:round;stroke-linejoin:round;stroke-miterlimit:10;stroke-dasharray:none;stroke-opacity:1"/><path d="m3942 9993 3 11 2 10 2 10 2 11 2 10 2 10 1 10 2 10 1 9 2 10 1 10 2 9 1 9 1 10 1 9 1 9 1 9 1 9v8l1 9v9l1 8v8l1 9v68l-1 7v14l-1 7-1 6v7l-1 6-1 6v6l-1 6-1 6-1 5-1 6-1 5-1 6-1 5-2 5-1 5-1 4-1 5-2 4-1 5-2 4-1 4-2 4-1 4-2 3-1 4-2 3-2 3-2 3" style="fill:none;stroke:#000;stroke-width:9;stroke-linecap:round;stroke-linejoin:round;stroke-miterlimit:10;stroke-dasharray:none;stroke-opacity:1"/><path d="M4069.575 10111.849c79.967 135.005-1.162 284.353-200.344 368.809-199.183 84.456-470.28 84.456-669.462 0s-280.31-233.804-200.344-368.809" style="fill:none;stroke:#000;stroke-width:17;stroke-linecap:round;stroke-linejoin:round;stroke-miterlimit:10;stroke-dasharray:none;stroke-opacity:1"/><path d="M-401.283-231.577c221.622-127.897 580.944-127.897 802.566 0 221.623 127.896 221.623 335.258 0 463.154s-580.944 127.897-802.566 0c-221.623-127.896-221.623-335.258 0-463.154" style="fill:none;stroke:#000;stroke-width:17;stroke-linecap:round;stroke-linejoin:round;stroke-miterlimit:10;stroke-dasharray:none;stroke-opacity:1" transform="rotate(180 1767.25 5110.75)"/><path d="M-406.233-234.406c224.356-129.459 588.11-129.459 812.466 0s224.356 339.353 0 468.812-588.11 129.459-812.466 0-224.356-339.353 0-468.812" style="fill:none;stroke:#000;stroke-width:17;stroke-linecap:round;stroke-linejoin:round;stroke-miterlimit:10;stroke-dasharray:none;stroke-opacity:1" transform="rotate(180 1767.25 5109.25)"/><path d="M3363.734 9195.858c94.311-54.477 247.22-54.477 341.532 0" style="fill:none;stroke:#000;stroke-width:17;stroke-linecap:round;stroke-linejoin:round;stroke-miterlimit:10;stroke-dasharray:none;stroke-opacity:1"/><path d="M3318.89 9224.66c41.143-47.101 124.765-76.765 216.096-76.66 91.332.107 174.746 29.966 215.56 77.162M3715 9202l-10-6M4067 10343l5-7 5-8 5-9 5-8 5-8 5-9 4-9 5-9 4-9 4-9 4-10 4-9 3-10 4-10 3-9 3-10 3-10 2-10 3-10 2-10 2-10 2-10 2-10 2-10 1-11 2-10 1-10 1-10 1-10 1-10v-11l1-10v-10l1-10v-41l-1-10v-10l-1-10-1-10v-10l-1-10-1-10-1-10-2-10-1-10-2-10-1-10-2-10-2-10-2-10-2-9-2-10-2-10-2-10-3-9-5-20-5-19-6-19-6-19-7-18-7-19-7-18-8-18-8-18-9-18-8-18-10-17-9-17-10-17-10-17-10-16-11-16-11-16-11-16-11-15-12-15-12-15-12-15-13-14-6-7-7-7-6-7-6-6-7-7-7-7-6-6-7-7-7-6-6-6-7-6-7-6-7-6-7-6-7-6-7-6-7-5-7-6-7-5-7-6-7-5-7-5" style="fill:none;stroke:#000;stroke-width:17;stroke-linecap:round;stroke-linejoin:round;stroke-miterlimit:10;stroke-dasharray:none;stroke-opacity:1"/><path d="m3364 9196-8 4-7 5-8 5-7 5-8 5-8 5-7 5-8 5-7 6-8 5-8 6-7 6-8 5-7 7-8 6-7 6-7 6-8 7-7 6-7 7-7 6-7 7-7 7-7 7-7 7-7 8-7 7-7 7-7 8-6 7-7 8-6 8-7 8-6 8-7 8-6 8-6 8-6 8-6 8-6 9-6 8-6 9-5 8-6 9-6 9-5 9-5 9-6 9-5 9-5 9-5 9-5 9-5 9-4 10-5 9-4 10-5 9-4 10-4 9-5 10-4 10-3 10-4 10-4 9-4 10-3 10-4 10-3 10-3 10-3 11-3 10-3 10-3 10-2 11-3 10-2 10-3 11-2 10-2 11-2 10-2 11-1 11-2 10-1 11-2 10-1 11-1 11-1 11-1 10v11l-1 11v11l-1 11v32l1 11v11l1 11v10l1 11 1 11 2 11 1 11 1 11 2 10 2 11 2 11 2 11 3 11 3 10 2 11 3 10 4 11 3 10 4 11 3 10 4 10 5 10 4 10 5 9 4 10 5 9 5 9 6 9 5 9 6 8 5 8M3384.652 9199.512c13.795-7.26 29.116-13.487 45.602-18.535" style="fill:none;stroke:#000;stroke-width:17;stroke-linecap:round;stroke-linejoin:round;stroke-miterlimit:10;stroke-dasharray:none;stroke-opacity:1"/><path d="M94.894 267.147c-86.795 30.83-183.157 17.573-258.402-35.55S-283.5 92.107-283.5 0" style="fill:none;stroke:#000;stroke-width:17;stroke-linecap:round;stroke-linejoin:round;stroke-miterlimit:10;stroke-dasharray:none;stroke-opacity:1" transform="rotate(-35.222 17138.22 -688.053)"/><path d="m3757 9229 1-14v-56l-1-14v-30l-1-14-1-8v-7l-1-8v-8l-1-7-1-8-1-8-1-8-1-8-2-8v-4l-1-4-1-4-1-4-1-4-1-4-2-5-1-4-1-4-2-4-1-4-2-3-2-4-1-4-2-4-2-3-2-4-2-3-2-4-3-3-2-3-2-3-3-4-2-2-5-6-6-6-5-5-6-4-6-5-6-4-7-4-6-4-7-4-7-3-7-3-8-3-7-3-8-2-8-2-8-2-8-2-8-2-8-1-9-1-8-1h-9l-8-1h-17l-9 1h-8l-8 1-9 1-8 1-8 2-8 2-8 2-8 2-8 2-7 3-8 3-7 3-7 3-7 4-6 4-7 4-6 4-6 5-6 4-5 6-6 5-5 6-2 3-3 3-2 3-2 3-3 3-2 4-2 3-2 4-2 3-2 4-1 4-2 4-2 3-1 4-2 4-1 4-1 4-2 5-1 4-1 4-1 4-1 4-1 4v4l-2 8-1 8-1 8-1 8-1 8-1 7v8l-1 8v7l-1 8v14l-1 15v99" style="fill:none;stroke:#000;stroke-width:17;stroke-linecap:round;stroke-linejoin:round;stroke-miterlimit:10;stroke-dasharray:none;stroke-opacity:1"/></g></svg>