<?xml version="1.0" encoding="UTF-8" standalone="no"?>
<!-- Created with Inkscape (http://www.inkscape.org/) -->

<svg
   version="1.1"
   id="svg291"
   width="500"
   height="500"
   viewBox="0 0 499.99998 500.00001"
   sodipodi:docname="lamps.svg"
   xml:space="preserve"
   inkscape:version="1.2.2 (b0a84865, 2022-12-01)"
   inkscape:export-filename="lamps.png"
   inkscape:export-xdpi="126.15598"
   inkscape:export-ydpi="126.15598"
   xmlns:inkscape="http://www.inkscape.org/namespaces/inkscape"
   xmlns:sodipodi="http://sodipodi.sourceforge.net/DTD/sodipodi-0.dtd"
   xmlns="http://www.w3.org/2000/svg"
   xmlns:svg="http://www.w3.org/2000/svg"><defs
     id="defs295"><clipPath
       clipPathUnits="userSpaceOnUse"
       id="clipPath307"><path
         d="M 3191,3432 H 5197 V 6752 H 3191 V 3432"
         id="path305" /></clipPath><clipPath
       clipPathUnits="userSpaceOnUse"
       id="clipPath351"><path
         d="M 0,0 H 14031 V 9921 H 0 V 0"
         id="path349" /></clipPath><clipPath
       clipPathUnits="userSpaceOnUse"
       id="clipPath393"><path
         d="M 0,0 H 14031 V 9921 H 0 V 0"
         id="path391" /></clipPath><clipPath
       clipPathUnits="userSpaceOnUse"
       id="clipPath405"><path
         d="M 0,0 H 14031 V 9921 H 0 V 0"
         id="path403" /></clipPath><clipPath
       clipPathUnits="userSpaceOnUse"
       id="clipPath307-3"><path
         d="M 3191,3432 H 5197 V 6752 H 3191 V 3432"
         id="path305-8" /></clipPath><clipPath
       clipPathUnits="userSpaceOnUse"
       id="clipPath937"><path
         d="m 2755,8714 h 1559 v 1988 H 2755 V 8714"
         id="path935" /></clipPath><clipPath
       clipPathUnits="userSpaceOnUse"
       id="clipPath981"><path
         d="M 0,0 H 9921 V 14031 H 0 V 0"
         id="path979" /></clipPath><clipPath
       clipPathUnits="userSpaceOnUse"
       id="clipPath1021"><path
         d="M 0,0 H 9921 V 14031 H 0 V 0"
         id="path1019" /></clipPath><clipPath
       clipPathUnits="userSpaceOnUse"
       id="clipPath1033"><path
         d="M 0,0 H 9921 V 14031 H 0 V 0"
         id="path1031" /></clipPath><clipPath
       clipPathUnits="userSpaceOnUse"
       id="clipPath937-0"><path
         d="m 2755,8714 h 1559 v 1988 H 2755 V 8714"
         id="path935-2" /></clipPath></defs><sodipodi:namedview
     id="namedview293"
     pagecolor="#ffffff"
     bordercolor="#000000"
     borderopacity="0.25"
     inkscape:showpageshadow="2"
     inkscape:pageopacity="1"
     inkscape:pagecheckerboard="0"
     inkscape:deskcolor="#d1d1d1"
     showgrid="false"
     inkscape:zoom="0.37897562"
     inkscape:cx="-800.84307"
     inkscape:cy="284.97875"
     inkscape:window-width="1935"
     inkscape:window-height="750"
     inkscape:window-x="0"
     inkscape:window-y="25"
     inkscape:window-maximized="0"
     inkscape:current-layer="g299"><inkscape:page
       x="0"
       y="0"
       id="page297"
       width="499.99997"
       height="500"
       inkscape:export-filename="thumbnail.png"
       inkscape:export-xdpi="126.15598"
       inkscape:export-ydpi="126.15598" /><inkscape:page
       x="921.34338"
       y="-258.01938"
       width="793.33325"
       height="1122.6667"
       id="page1099" /></sodipodi:namedview><g
     id="g299"
     inkscape:groupmode="layer"
     inkscape:label="Page 1"
     transform="matrix(0.08,0,0,-0.08,-211.32338,535.31397)"><g
       id="g301"
       transform="matrix(1.7684575,0,0,1.7684575,-780.63217,-5469.4624)"><g
         id="g303"
         clip-path="url(#clipPath307-3)"><path
           d="m 4355,5159 7,-2 7,-2 7,-2 7,-3 7,-3 7,-3 6,-3 7,-4"
           style="fill:none;stroke:#000000;stroke-width:9;stroke-linecap:round;stroke-linejoin:round;stroke-miterlimit:10;stroke-dasharray:none;stroke-opacity:1"
           id="path309" /><g
           id="g311"
           transform="rotate(180,2097.25,2547.25)"><path
             d="m 161.31624,-31.89121 c 24.1328,40.74162 -0.34111,85.81703 -60.42912,111.29683 -60.088,25.4798 -141.86028,25.45716 -201.90597,-0.05591 -60.04569,-25.51307 -84.44477,-70.60202 -60.24438,-111.33026"
             style="fill:none;stroke:#000000;stroke-width:17;stroke-linecap:round;stroke-linejoin:round;stroke-miterlimit:10;stroke-dasharray:none;stroke-opacity:1"
             id="path313" /></g><g
           id="g315"
           transform="rotate(180,2097.25,2037.75)"><path
             d="m 828.76733,-110.39916 c 78.66932,197.22888 -59.9215,402.1607 -349.16006,516.29696 -289.23856,114.13626 -669.97598,114.13626 -959.21454,0 C -768.84583,291.76154 -907.43665,86.82972 -828.76733,-110.39916"
             style="fill:none;stroke:#000000;stroke-width:17;stroke-linecap:round;stroke-linejoin:round;stroke-miterlimit:10;stroke-dasharray:none;stroke-opacity:1"
             id="path317" /></g><path
           d="m 3365,4186 13,33 14,34 14,33 14,34 14,33 15,33 14,33 8,17 8,16 7,17 8,16 8,17 8,16 8,17 8,16 8,16 8,17 8,16 9,16 9,16 8,16 9,17 9,16 9,16 9,16 9,16 10,16 9,16 10,16 10,15 10,16 10,16 10,16 11,15 10,16 11,16 12,15 11,15 6,8 6,8 6,7 6,8 6,7 6,8 6,7 7,8 6,7 6,7 7,8 7,7 6,7 7,7 7,7 7,7 7,7 8,7 7,7 8,7 7,7 8,6 8,7 8,6 8,6 8,7 8,6 9,6 8,5 9,6 9,6 9,5 9,5 10,5 9,5 10,5 9,4 10,4"
           style="fill:none;stroke:#000000;stroke-width:17;stroke-linecap:round;stroke-linejoin:round;stroke-miterlimit:10;stroke-dasharray:none;stroke-opacity:1"
           id="path319" /><path
           d="m 4355,5164 10,-4 10,-4 9,-5 10,-5 9,-5 9,-5 9,-5 9,-6 9,-6 8,-5 9,-6 8,-7 8,-6 8,-6 8,-6 8,-7 8,-7 8,-6 7,-7 7,-7 8,-7 7,-7 7,-7 7,-7 7,-7 6,-7 7,-7 7,-8 6,-7 7,-7 6,-8 6,-7 6,-8 6,-7 6,-8 6,-8 12,-15 11,-15 12,-16 11,-15 10,-16 11,-15 10,-16 10,-16 10,-16 10,-16 10,-15 9,-16 9,-16 10,-16 9,-17 9,-16 9,-16 8,-16 9,-16 8,-16 9,-17 8,-16 8,-16 9,-17 8,-16 8,-16 15,-33 16,-33 15,-33 15,-33 14,-33 15,-33 14,-34 14,-33 14,-34 13,-33"
           style="fill:none;stroke:#000000;stroke-width:17;stroke-linecap:round;stroke-linejoin:round;stroke-miterlimit:10;stroke-dasharray:none;stroke-opacity:1"
           id="path321" /><g
           id="g323"
           transform="rotate(180,2097.25,3292.25)"><path
             d="m -20.15254,-11.66726 c 11.12994,-6.44365 29.17514,-6.44365 40.30508,0 11.12995,6.44365 11.12995,16.89087 0,23.33452 -11.12994,6.44365 -29.17514,6.44365 -40.30508,0 -11.12995,-6.44365 -11.12995,-16.89087 0,-23.33452"
             style="fill:none;stroke:#000000;stroke-width:17;stroke-linecap:round;stroke-linejoin:round;stroke-miterlimit:10;stroke-dasharray:none;stroke-opacity:1"
             id="path325" /></g><g
           id="g327"
           transform="rotate(180,2097.25,2674.25)"><path
             d="M 28.5,0 C 28.5,9.1127 15.74012,16.5 0,16.5 -15.74012,16.5 -28.5,9.1127 -28.5,0"
             style="fill:none;stroke:#000000;stroke-width:17;stroke-linecap:round;stroke-linejoin:round;stroke-miterlimit:10;stroke-dasharray:none;stroke-opacity:1"
             id="path329" /></g><path
           d="m 4273,5364 -2,1 -3,1 -2,1 -3,1 h -3 l -2,1 h -3 -3 -4 -3 l -3,-1 -4,-1 -4,-1 -4,-1 -4,-1 -4,-1"
           style="fill:none;stroke:#000000;stroke-width:9;stroke-linecap:round;stroke-linejoin:round;stroke-miterlimit:10;stroke-dasharray:none;stroke-opacity:1"
           id="path331" /><g
           id="g333"
           transform="rotate(180,2097.25,2547.25)"><path
             d="M 161.5,0 C 161.5,51.63863 89.19399,93.5 0,93.5 -89.19399,93.5 -161.5,51.63863 -161.5,0"
             style="fill:none;stroke:#000000;stroke-width:17;stroke-linecap:round;stroke-linejoin:round;stroke-miterlimit:10;stroke-dasharray:none;stroke-opacity:1"
             id="path335" /></g><path
           d="M 4222,6584 V 5348"
           style="fill:none;stroke:#000000;stroke-width:17;stroke-linecap:round;stroke-linejoin:round;stroke-miterlimit:10;stroke-dasharray:none;stroke-opacity:1"
           id="path337" /><path
           d="M 4166,6584 V 5348"
           style="fill:none;stroke:#000000;stroke-width:17;stroke-linecap:round;stroke-linejoin:round;stroke-miterlimit:10;stroke-dasharray:none;stroke-opacity:1"
           id="path339" /><path
           d="m 4033,5094 v 19 10 10 9 10 10 10 l 1,11 v 10 5 l 1,5 v 6 l 1,5 v 5 l 1,6 1,5 v 5 l 1,6 1,5 1,6 2,5 1,6 1,5 2,6 2,5 2,6 2,5 2,5 3,6 2,5 3,5 3,5 3,5 4,5 3,5 4,4 4,5 4,4 5,4 4,3 5,4 4,3 5,4 5,3 5,2 6,3 5,2 5,2 6,2 5,2 6,2 6,1 6,1"
           style="fill:none;stroke:#000000;stroke-width:17;stroke-linecap:round;stroke-linejoin:round;stroke-miterlimit:10;stroke-dasharray:none;stroke-opacity:1"
           id="path341" /><path
           d="m 4222,5382 6,-1 6,-1 5,-2 6,-2 6,-2 5,-2 5,-2 6,-3 5,-2 5,-3 5,-4 4,-3 5,-4 4,-3 5,-4 4,-4 4,-5 4,-4 3,-5 4,-5 3,-5 3,-5 3,-5 2,-5 3,-6 2,-5 2,-5 2,-6 2,-5 2,-6 1,-5 1,-6 2,-5 1,-6 1,-5 1,-6 v -5 l 1,-5 1,-6 v -5 l 1,-5 v -6 l 1,-5 v -5 -10 l 1,-11 v -10 -10 -10 -9 -10 -10 -19"
           style="fill:none;stroke:#000000;stroke-width:17;stroke-linecap:round;stroke-linejoin:round;stroke-miterlimit:10;stroke-dasharray:none;stroke-opacity:1"
           id="path343" /></g></g></g><g
     id="g931"
     transform="matrix(0.1414766,0,0,-0.1414766,-349.38001,1538.6884)"><g
       id="g933"
       clip-path="url(#clipPath937-0)"><path
         d="m 3379,9201 3,-2 2,-1 3,-2 3,-2 3,-1 1,-1 2,-1 1,-1 h 2 l 2,-1 1,-1 2,-1 h 2 l 1,-1 2,-1 2,-1 h 2 l 1,-1 h 2 l 2,-1 2,-1 h 1 l 2,-1 h 1 2 l 1,-1 h 1 2 2 1 1"
         style="fill:none;stroke:#000000;stroke-width:17;stroke-linecap:round;stroke-linejoin:round;stroke-miterlimit:10;stroke-dasharray:none;stroke-opacity:1"
         id="path939" /><path
         d="m 3428,9171 -1,1 h -1 -2 l -1,1 h -2 l -1,1 h -2 l -1,1 h -2 l -1,1 h -2 l -2,1 -3,1 -3,2 -3,1 -3,1 -2,1 -3,2 -3,1 -2,2 -3,1 -2,1 -2,1 -2,2 -1,1 -2,1 -1,1 -1,1 -1,1 v 1 1 l 1,1 h 2 1 1 1 1 l 2,-1 h 1 1 l 2,-1 h 1 2 l 2,-1 h 1 l 2,-1 2,-1 h 2 l 2,-1 h 1 l 2,-1 2,-1 2,-1 h 1 l 2,-1 2,-1 h 2 l 1,-1 2,-1 2,-1 h 1 l 2,-1 3,-2 3,-1 2,-2 2,-1 2,-1 2,-2 1,-1 1,-1 v -1 l 1,-1 -1,-1 -1,-1 h -1 -2 -1 -2 -1 -2"
         style="fill:none;stroke:#000000;stroke-width:17;stroke-linecap:round;stroke-linejoin:round;stroke-miterlimit:10;stroke-dasharray:none;stroke-opacity:1"
         id="path941" /><path
         d="m 3712,9200 -2,-1 h -1 l -1,-1 h -1 l -1,-1 -1,-1 h -1 -1 v -1 h -1 v 1 l 1,1 h 1 l 1,1 1,1 1,1 2,1 2,1 2,2 2,1 2,2 3,1 3,2 2,2 3,2 3,2 4,1 3,2 3,2 2,1 2,1 1,2 2,1 2,1 h 1 l 2,1 1,1 2,1 1,1 2,1 1,1 h 1 l 1,1 1,1 h 1 1 l 1,1 h 1 v 1 h 1 l -1,-1 -1,-1 -1,-1 -2,-1 -2,-1 -2,-2 -3,-1 -2,-2 -3,-2 -3,-2 -3,-2 -3,-2 -3,-2 -3,-2 -4,-2 -3,-2 -3,-2 -3,-2 -1,-1 -2,-1 -1,-1 -2,-1 -1,-1 -2,-1 h -1 l -1,-1"
         style="fill:none;stroke:#000000;stroke-width:17;stroke-linecap:round;stroke-linejoin:round;stroke-miterlimit:10;stroke-dasharray:none;stroke-opacity:1"
         id="path943" /><path
         d="m 3942,9993 3,11 2,10 2,10 2,11 2,10 2,10 1,10 2,10 1,9 2,10 1,10 2,9 1,9 1,10 1,9 1,9 1,9 1,9 v 8 l 1,9 v 9 l 1,8 v 8 l 1,9 v 8 8 7 8 8 7 8 7 7 l -1,7 v 7 7 l -1,7 -1,6 v 7 l -1,6 -1,6 v 6 l -1,6 -1,6 -1,5 -1,6 -1,5 -1,6 -1,5 -2,5 -1,5 -1,4 -1,5 -2,4 -1,5 -2,4 -1,4 -2,4 -1,4 -2,3 -1,4 -2,3 -2,3 -2,3"
         style="fill:none;stroke:#000000;stroke-width:9;stroke-linecap:round;stroke-linejoin:round;stroke-miterlimit:10;stroke-dasharray:none;stroke-opacity:1"
         id="path945" /><path
         d="m 4069.5752,10111.849 c 79.9663,135.005 -1.1626,284.353 -200.3447,368.809 -199.1822,84.456 -470.2788,84.456 -669.461,0 -199.1821,-84.456 -280.3112,-233.804 -200.3447,-368.809"
         style="fill:none;stroke:#000000;stroke-width:17;stroke-linecap:round;stroke-linejoin:round;stroke-miterlimit:10;stroke-dasharray:none;stroke-opacity:1"
         id="path947" /><g
         id="g949"
         transform="rotate(180,1767.25,5110.75)"><path
           d="m -401.28311,-231.57747 c 221.62256,-127.89671 580.94366,-127.89671 802.56622,0 221.62253,127.89671 221.62253,335.25823 0,463.15494 -221.62256,127.89671 -580.94366,127.89671 -802.56622,0 -221.62253,-127.89671 -221.62253,-335.25823 0,-463.15494"
           style="fill:none;stroke:#000000;stroke-width:17;stroke-linecap:round;stroke-linejoin:round;stroke-miterlimit:10;stroke-dasharray:none;stroke-opacity:1"
           id="path951" /></g><g
         id="g953"
         transform="rotate(180,1767.25,5109.25)"><path
           d="m -406.23285,-234.4059 c 224.35622,-129.45882 588.10948,-129.45882 812.4657,0 224.3562,129.45881 224.3562,339.35299 0,468.8118 -224.35622,129.45882 -588.10948,129.45882 -812.4657,0 -224.3562,-129.45881 -224.3562,-339.35299 0,-468.8118"
           style="fill:none;stroke:#000000;stroke-width:17;stroke-linecap:round;stroke-linejoin:round;stroke-miterlimit:10;stroke-dasharray:none;stroke-opacity:1"
           id="path955" /></g><path
         d="m 3363.7336,9195.8584 c 94.3118,-54.4775 247.221,-54.4775 341.5328,0"
         style="fill:none;stroke:#000000;stroke-width:17;stroke-linecap:round;stroke-linejoin:round;stroke-miterlimit:10;stroke-dasharray:none;stroke-opacity:1"
         id="path957" /><path
         d="m 3318.8906,9224.6602 c 41.1419,-47.1016 124.7639,-76.7657 216.0957,-76.6602 91.3316,0.1065 174.7461,29.9658 215.5594,77.1621"
         style="fill:none;stroke:#000000;stroke-width:17;stroke-linecap:round;stroke-linejoin:round;stroke-miterlimit:10;stroke-dasharray:none;stroke-opacity:1"
         id="path959" /><path
         d="m 3715,9202 -10,-6"
         style="fill:none;stroke:#000000;stroke-width:17;stroke-linecap:round;stroke-linejoin:round;stroke-miterlimit:10;stroke-dasharray:none;stroke-opacity:1"
         id="path961" /><path
         d="m 4067,10343 5,-7 5,-8 5,-9 5,-8 5,-8 5,-9 4,-9 5,-9 4,-9 4,-9 4,-10 4,-9 3,-10 4,-10 3,-9 3,-10 3,-10 2,-10 3,-10 2,-10 2,-10 2,-10 2,-10 2,-10 1,-11 2,-10 1,-10 1,-10 1,-10 1,-10 v -11 l 1,-10 v -10 l 1,-10 v -10 -10 -11 -10 l -1,-10 v -10 l -1,-10 -1,-10 v -10 l -1,-10 -1,-10 -1,-10 -2,-10 -1,-10 -2,-10 -1,-10 -2,-10 -2,-10 -2,-10 -2,-9 -2,-10 -2,-10 -2,-10 -3,-9 -5,-20 -5,-19 -6,-19 -6,-19 -7,-18 -7,-19 -7,-18 -8,-18 -8,-18 -9,-18 -8,-18 -10,-17 -9,-17 -10,-17 -10,-17 -10,-16 -11,-16 -11,-16 -11,-16 -11,-15 -12,-15 -12,-15 -12,-15 -13,-14 -6,-7 -7,-7 -6,-7 -6,-6 -7,-7 -7,-7 -6,-6 -7,-7 -7,-6 -6,-6 -7,-6 -7,-6 -7,-6 -7,-6 -7,-6 -7,-6 -7,-5 -7,-6 -7,-5 -7,-6 -7,-5 -7,-5"
         style="fill:none;stroke:#000000;stroke-width:17;stroke-linecap:round;stroke-linejoin:round;stroke-miterlimit:10;stroke-dasharray:none;stroke-opacity:1"
         id="path963" /><path
         d="m 3364,9196 -8,4 -7,5 -8,5 -7,5 -8,5 -8,5 -7,5 -8,5 -7,6 -8,5 -8,6 -7,6 -8,5 -7,7 -8,6 -7,6 -7,6 -8,7 -7,6 -7,7 -7,6 -7,7 -7,7 -7,7 -7,7 -7,8 -7,7 -7,7 -7,8 -6,7 -7,8 -6,8 -7,8 -6,8 -7,8 -6,8 -6,8 -6,8 -6,8 -6,9 -6,8 -6,9 -5,8 -6,9 -6,9 -5,9 -5,9 -6,9 -5,9 -5,9 -5,9 -5,9 -5,9 -4,10 -5,9 -4,10 -5,9 -4,10 -4,9 -5,10 -4,10 -3,10 -4,10 -4,9 -4,10 -3,10 -4,10 -3,10 -3,10 -3,11 -3,10 -3,10 -3,10 -2,11 -3,10 -2,10 -3,11 -2,10 -2,11 -2,10 -2,11 -1,11 -2,10 -1,11 -2,10 -1,11 -1,11 -1,11 -1,10 v 11 l -1,11 v 11 l -1,11 v 10 11 11 l 1,11 v 11 l 1,11 v 10 l 1,11 1,11 2,11 1,11 1,11 2,10 2,11 2,11 2,11 3,11 3,10 2,11 3,10 4,11 3,10 4,11 3,10 4,10 5,10 4,10 5,9 4,10 5,9 5,9 6,9 5,9 6,8 5,8"
         style="fill:none;stroke:#000000;stroke-width:17;stroke-linecap:round;stroke-linejoin:round;stroke-miterlimit:10;stroke-dasharray:none;stroke-opacity:1"
         id="path965" /><path
         d="m 3384.6519,9199.5117 c 13.7949,-7.2588 29.1159,-13.4863 45.6025,-18.5351"
         style="fill:none;stroke:#000000;stroke-width:17;stroke-linecap:round;stroke-linejoin:round;stroke-miterlimit:10;stroke-dasharray:none;stroke-opacity:1"
         id="path967" /><g
         id="g969"
         transform="matrix(0.81692,-0.57675,0.57675,0.81692,3534.5,9758.5)"><path
           d="M 94.89383,267.14679 C 8.09916,297.97733 -88.26336,284.72034 -163.50818,231.59734 -238.75301,178.47433 -283.5,92.10774 -283.5,0"
           style="fill:none;stroke:#000000;stroke-width:17;stroke-linecap:round;stroke-linejoin:round;stroke-miterlimit:10;stroke-dasharray:none;stroke-opacity:1"
           id="path971" /></g><path
         d="m 3757,9229 1,-14 v -14 -14 -14 -14 l -1,-14 v -15 -15 l -1,-14 -1,-8 v -7 l -1,-8 v -8 l -1,-7 -1,-8 -1,-8 -1,-8 -1,-8 -2,-8 v -4 l -1,-4 -1,-4 -1,-4 -1,-4 -1,-4 -2,-5 -1,-4 -1,-4 -2,-4 -1,-4 -2,-3 -2,-4 -1,-4 -2,-4 -2,-3 -2,-4 -2,-3 -2,-4 -3,-3 -2,-3 -2,-3 -3,-4 -2,-2 -5,-6 -6,-6 -5,-5 -6,-4 -6,-5 -6,-4 -7,-4 -6,-4 -7,-4 -7,-3 -7,-3 -8,-3 -7,-3 -8,-2 -8,-2 -8,-2 -8,-2 -8,-2 -8,-1 -9,-1 -8,-1 h -9 l -8,-1 h -9 -8 l -9,1 h -8 l -8,1 -9,1 -8,1 -8,2 -8,2 -8,2 -8,2 -8,2 -7,3 -8,3 -7,3 -7,3 -7,4 -6,4 -7,4 -6,4 -6,5 -6,4 -5,6 -6,5 -5,6 -2,3 -3,3 -2,3 -2,3 -3,3 -2,4 -2,3 -2,4 -2,3 -2,4 -1,4 -2,4 -2,3 -1,4 -2,4 -1,4 -1,4 -2,5 -1,4 -1,4 -1,4 -1,4 -1,4 v 4 l -2,8 -1,8 -1,8 -1,8 -1,8 -1,7 v 8 l -1,8 v 7 l -1,8 v 7 7 l -1,15 v 14 15 14 14 14 28"
         style="fill:none;stroke:#000000;stroke-width:17;stroke-linecap:round;stroke-linejoin:round;stroke-miterlimit:10;stroke-dasharray:none;stroke-opacity:1"
         id="path973" /></g></g></svg>
