<?xml version="1.0" encoding="UTF-8" standalone="no"?>
<svg
   width="324pt"
   height="162pt"
   viewBox="0 0 324 162"
   version="1.1"
   id="svg2961"
   sodipodi:docname="binder_cumulants.svg"
   inkscape:version="1.2.1 (9c6d41e4, 2022-07-14)"
   xmlns:inkscape="http://www.inkscape.org/namespaces/inkscape"
   xmlns:sodipodi="http://sodipodi.sourceforge.net/DTD/sodipodi-0.dtd"
   xmlns:xlink="http://www.w3.org/1999/xlink"
   xmlns="http://www.w3.org/2000/svg"
   xmlns:svg="http://www.w3.org/2000/svg"
   xmlns:rdf="http://www.w3.org/1999/02/22-rdf-syntax-ns#"
   xmlns:cc="http://creativecommons.org/ns#"
   xmlns:dc="http://purl.org/dc/elements/1.1/">
  <sodipodi:namedview
     id="namedview2963"
     pagecolor="#ffffff"
     bordercolor="#000000"
     borderopacity="0.25"
     inkscape:showpageshadow="2"
     inkscape:pageopacity="0.0"
     inkscape:pagecheckerboard="0"
     inkscape:deskcolor="#d1d1d1"
     inkscape:document-units="pt"
     showgrid="false"
     inkscape:zoom="1.5451593"
     inkscape:cx="176.35723"
     inkscape:cy="80.89781"
     inkscape:window-width="1314"
     inkscape:window-height="842"
     inkscape:window-x="0"
     inkscape:window-y="25"
     inkscape:window-maximized="0"
     inkscape:current-layer="legend_1" />
  <metadata
     id="metadata2509">
    <rdf:RDF>
      <cc:Work>
        <dc:type
           rdf:resource="http://purl.org/dc/dcmitype/StillImage" />
        <dc:date>2023-01-16T15:20:24.749399</dc:date>
        <dc:format>image/svg+xml</dc:format>
        <dc:creator>
          <cc:Agent>
            <dc:title>Matplotlib v3.5.1, https://matplotlib.org/</dc:title>
          </cc:Agent>
        </dc:creator>
      </cc:Work>
    </rdf:RDF>
  </metadata>
  <defs
     id="defs2513">
    <style
       type="text/css"
       id="style2511">*{stroke-linejoin: round; stroke-linecap: butt}</style>
  </defs>
  <g
     id="figure_1">
    <g
       id="patch_1">
      <path
         d="M 0 162  L 324 162  L 324 0  L 0 0  z "
         style="fill: #ffffff"
         id="path2515" />
    </g>
    <g
       id="axes_1">
      <g
         id="patch_2">
        <path
           d="M 58.768263 118.503748  L 161.727491 118.503748  L 161.727491 15.544519  L 58.768263 15.544519  z "
           style="fill: #ffffff"
           id="path2518" />
      </g>
      <g
         id="matplotlib.axis_1">
        <g
           id="xtick_1">
          <g
             id="line2d_1">
            <defs
               id="defs2522">
              <path
                 id="m93ebe20c07"
                 d="M 0 0  L 0 3.5  "
                 style="stroke: #000000; stroke-width: 0.8" />
            </defs>
            <g
               id="g2526">
              <use
                 xlink:href="#m93ebe20c07"
                 x="58.768263"
                 y="118.503748"
                 style="stroke: #000000; stroke-width: 0.8"
                 id="use2524" />
            </g>
          </g>
          <g
             id="text_1">
            <!-- $\mathdefault{0}$ -->
            <g
               transform="translate(55.841768 133.805927)scale(0.12 -0.12)"
               id="g2534">
              <defs
                 id="defs2530">
                <path
                   id="CMR17-30"
                   d="M 2688 2038  C 2688 2430 2682 3099 2413 3613  C 2176 4063 1798 4224 1466 4224  C 1158 4224 768 4082 525 3620  C 269 3137 243 2539 243 2038  C 243 1671 250 1112 448 623  C 723 -39 1216 -128 1466 -128  C 1760 -128 2208 -7 2470 604  C 2662 1048 2688 1568 2688 2038  z M 1466 -26  C 1056 -26 813 328 723 816  C 653 1196 653 1749 653 2109  C 653 2604 653 3015 736 3407  C 858 3954 1216 4121 1466 4121  C 1728 4121 2067 3947 2189 3420  C 2272 3054 2278 2623 2278 2109  C 2278 1691 2278 1176 2202 797  C 2067 96 1690 -26 1466 -26  z "
                   transform="scale(0.015625)" />
              </defs>
              <use
                 xlink:href="#CMR17-30"
                 transform="scale(0.996264)"
                 id="use2532" />
            </g>
          </g>
        </g>
        <g
           id="xtick_2">
          <g
             id="line2d_2">
            <g
               id="g2540">
              <use
                 xlink:href="#m93ebe20c07"
                 x="84.50807"
                 y="118.503748"
                 style="stroke: #000000; stroke-width: 0.8"
                 id="use2538" />
            </g>
          </g>
          <g
             id="text_2">
            <!-- $\mathdefault{1}$ -->
            <g
               transform="translate(81.581575 133.805927)scale(0.12 -0.12)"
               id="g2548">
              <defs
                 id="defs2544">
                <path
                   id="CMR17-31"
                   d="M 1702 4083  C 1702 4217 1696 4224 1606 4224  C 1357 3927 979 3833 621 3820  C 602 3820 570 3820 563 3808  C 557 3795 557 3782 557 3648  C 755 3648 1088 3686 1344 3839  L 1344 467  C 1344 243 1331 166 781 166  L 589 166  L 589 0  C 896 6 1216 12 1523 12  C 1830 12 2150 6 2458 0  L 2458 166  L 2266 166  C 1715 166 1702 236 1702 467  L 1702 4083  z "
                   transform="scale(0.015625)" />
              </defs>
              <use
                 xlink:href="#CMR17-31"
                 transform="scale(0.996264)"
                 id="use2546" />
            </g>
          </g>
        </g>
        <g
           id="xtick_3">
          <g
             id="line2d_3">
            <g
               id="g2554">
              <use
                 xlink:href="#m93ebe20c07"
                 x="110.247877"
                 y="118.503748"
                 style="stroke: #000000; stroke-width: 0.8"
                 id="use2552" />
            </g>
          </g>
          <g
             id="text_3">
            <!-- $\mathdefault{2}$ -->
            <g
               transform="translate(107.321382 133.805927)scale(0.12 -0.12)"
               id="g2562">
              <defs
                 id="defs2558">
                <path
                   id="CMR17-32"
                   d="M 2669 990  L 2554 990  C 2490 537 2438 460 2413 422  C 2381 371 1920 371 1830 371  L 602 371  C 832 620 1280 1073 1824 1596  C 2214 1966 2669 2400 2669 3033  C 2669 3788 2067 4224 1395 4224  C 691 4224 262 3603 262 3027  C 262 2777 448 2745 525 2745  C 589 2745 781 2783 781 3007  C 781 3206 614 3264 525 3264  C 486 3264 448 3257 422 3244  C 544 3788 915 4057 1306 4057  C 1862 4057 2227 3616 2227 3033  C 2227 2477 1901 1998 1536 1583  L 262 147  L 262 0  L 2515 0  L 2669 990  z "
                   transform="scale(0.015625)" />
              </defs>
              <use
                 xlink:href="#CMR17-32"
                 transform="scale(0.996264)"
                 id="use2560" />
            </g>
          </g>
        </g>
        <g
           id="xtick_4">
          <g
             id="line2d_4">
            <g
               id="g2568">
              <use
                 xlink:href="#m93ebe20c07"
                 x="135.987684"
                 y="118.503748"
                 style="stroke: #000000; stroke-width: 0.8"
                 id="use2566" />
            </g>
          </g>
          <g
             id="text_4">
            <!-- $\mathdefault{3}$ -->
            <g
               transform="translate(133.061189 133.805927)scale(0.12 -0.12)"
               id="g2576">
              <defs
                 id="defs2572">
                <path
                   id="CMR17-33"
                   d="M 1414 2176  C 1984 2176 2234 1673 2234 1094  C 2234 322 1824 25 1453 25  C 1114 25 563 193 390 691  C 422 678 454 678 486 678  C 640 678 755 780 755 947  C 755 1132 614 1216 486 1216  C 378 1216 211 1164 211 927  C 211 335 787 -128 1466 -128  C 2176 -128 2720 432 2720 1087  C 2720 1718 2208 2176 1600 2246  C 2086 2347 2554 2776 2554 3353  C 2554 3856 2048 4224 1472 4224  C 890 4224 378 3862 378 3347  C 378 3123 544 3084 627 3084  C 762 3084 877 3167 877 3334  C 877 3500 762 3584 627 3584  C 602 3584 570 3584 544 3571  C 730 3999 1235 4076 1459 4076  C 1683 4076 2106 3966 2106 3347  C 2106 3167 2080 2851 1862 2574  C 1670 2329 1453 2316 1242 2297  C 1210 2297 1062 2284 1037 2284  C 992 2278 966 2272 966 2227  C 966 2182 973 2176 1101 2176  L 1414 2176  z "
                   transform="scale(0.015625)" />
              </defs>
              <use
                 xlink:href="#CMR17-33"
                 transform="scale(0.996264)"
                 id="use2574" />
            </g>
          </g>
        </g>
        <g
           id="text_5">
          <!-- T -->
          <g
             transform="translate(106.020717 149.432703)scale(0.12 -0.12)"
             id="g2585">
            <defs
               id="defs2581">
              <path
                 id="CMR17-54"
                 d="M 3981 4332  L 288 4332  L 179 2924  L 294 2924  C 378 3981 467 4166 1453 4166  C 1568 4166 1754 4166 1805 4159  C 1926 4140 1926 4064 1926 3917  L 1926 465  C 1926 236 1907 166 1376 166  L 1197 166  L 1197 0  C 1504 6 1824 12 2138 12  C 2451 12 2771 6 3078 0  L 3078 166  L 2899 166  C 2368 166 2349 236 2349 465  L 2349 3917  C 2349 4057 2349 4134 2464 4159  C 2515 4166 2701 4166 2816 4166  C 3795 4166 3891 3981 3974 2924  L 4090 2924  L 3981 4332  z "
                 transform="scale(0.015625)" />
            </defs>
            <use
               xlink:href="#CMR17-54"
               transform="scale(0.996264)"
               id="use2583" />
          </g>
        </g>
      </g>
      <g
         id="matplotlib.axis_2">
        <g
           id="ytick_1">
          <g
             id="line2d_5">
            <defs
               id="defs2590">
              <path
                 id="m8fe205c3a0"
                 d="M 0 0  L -3.5 0  "
                 style="stroke: #000000; stroke-width: 0.8" />
            </defs>
            <g
               id="g2594">
              <use
                 xlink:href="#m8fe205c3a0"
                 x="58.768263"
                 y="114.769789"
                 style="stroke: #000000; stroke-width: 0.8"
                 id="use2592" />
            </g>
          </g>
          <g
             id="text_6">
            <!-- 0 -->
            <g
               transform="translate(45.915273 118.920879)scale(0.12 -0.12)"
               id="g2599">
              <use
                 xlink:href="#CMR17-30"
                 transform="scale(0.996264)"
                 id="use2597" />
            </g>
          </g>
        </g>
        <g
           id="ytick_2">
          <g
             id="line2d_6">
            <g
               id="g2605">
              <use
                 xlink:href="#m8fe205c3a0"
                 x="58.768263"
                 y="67.525202"
                 style="stroke: #000000; stroke-width: 0.8"
                 id="use2603" />
            </g>
          </g>
          <g
             id="text_7">
            <!-- .5 -->
            <g
               transform="translate(42.663611 71.676292)scale(0.12 -0.12)"
               id="g2616">
              <defs
                 id="defs2610">
                <path
                   id="CMR17-2e"
                   d="M 1062 262  C 1062 422 934 524 800 524  C 672 524 538 422 538 262  C 538 102 666 0 800 0  C 928 0 1062 102 1062 262  z "
                   transform="scale(0.015625)" />
                <path
                   id="CMR17-35"
                   d="M 730 3750  C 794 3724 1056 3641 1325 3641  C 1920 3641 2246 3961 2432 4140  C 2432 4191 2432 4224 2394 4224  C 2387 4224 2374 4224 2323 4198  C 2099 4102 1837 4032 1517 4032  C 1325 4032 1037 4055 723 4191  C 653 4224 640 4224 634 4224  C 602 4224 595 4217 595 4090  L 595 2231  C 595 2113 595 2080 659 2080  C 691 2080 704 2093 736 2139  C 941 2435 1222 2560 1542 2560  C 1766 2560 2246 2415 2246 1293  C 2246 1087 2246 716 2054 422  C 1894 159 1645 25 1370 25  C 947 25 518 319 403 812  C 429 806 480 793 506 793  C 589 793 749 838 749 1036  C 749 1209 627 1280 506 1280  C 358 1280 262 1190 262 1011  C 262 454 704 -128 1382 -128  C 2042 -128 2669 441 2669 1267  C 2669 2054 2170 2662 1549 2662  C 1222 2662 947 2540 730 2304  L 730 3750  z "
                   transform="scale(0.015625)" />
              </defs>
              <use
                 xlink:href="#CMR17-2e"
                 transform="scale(0.996264)"
                 id="use2612" />
              <use
                 xlink:href="#CMR17-35"
                 transform="translate(24.871058 0)scale(0.996264)"
                 id="use2614" />
            </g>
          </g>
        </g>
        <g
           id="ytick_3">
          <g
             id="line2d_7">
            <g
               id="g2622">
              <use
                 xlink:href="#m8fe205c3a0"
                 x="58.768263"
                 y="20.280615"
                 style="stroke: #000000; stroke-width: 0.8"
                 id="use2620" />
            </g>
          </g>
          <g
             id="text_8">
            <!-- 1 -->
            <g
               transform="translate(45.915273 24.431705)scale(0.12 -0.12)"
               id="g2627">
              <use
                 xlink:href="#CMR17-31"
                 transform="scale(0.996264)"
                 id="use2625" />
            </g>
          </g>
        </g>
      </g>
      <g
         id="line2d_8">
        <path
           d="M 61.342244 20.279414  L 77.484595 20.450672  L 79.502389 20.724612  L 81.520183 21.238476  L 83.033528 21.829885  L 84.546874 22.635716  L 86.060219 23.690023  L 87.573565 25.022551  L 89.08691 26.62551  L 91.104704 29.136564  L 93.122498 32.015526  L 95.64474 36.033104  L 98.671431 41.301867  L 104.724813 52.468047  L 108.760401 59.677436  L 111.282643 63.814349  L 113.804886 67.535517  L 116.327128 70.840255  L 118.84937 73.763548  L 121.371613 76.340407  L 123.893855 78.605844  L 126.416098 80.594872  L 129.442789 82.66614  L 132.469479 84.450297  L 136.000619 86.249649  L 140.036207 88.039534  L 144.071794 89.593621  L 148.611831 91.08862  L 153.151867 92.346653  L 158.196352 93.506062  L 161.727491 94.191312  L 161.727491 94.191312  "
           clip-path="url(#pf6d2eeaf4a)"
           style="fill: none; stroke: #55115c; stroke-width: 1.5; stroke-linecap: square"
           id="path2697" />
      </g>
      <g
         id="line2d_9">
        <path
           d="M 61.342244 104.398786  L 65.377832 104.392297  L 68.404522 104.291595  L 70.422316 104.009957  L 72.44011 103.467155  L 73.953456 102.857227  L 75.466801 102.05572  L 77.484595 100.698933  L 79.502389 99.034234  L 81.520183 97.084922  L 84.042425 94.283539  L 86.564668 91.11936  L 89.591359 86.928181  L 94.635843 79.449159  L 100.689225 70.575043  L 104.724813 65.023157  L 108.255952 60.542963  L 111.282643 57.064178  L 113.804886 54.461732  L 116.831576 51.6838  L 119.858267 49.247065  L 122.884958 47.114271  L 125.911649 45.248163  L 129.442789 43.358399  L 132.973928 41.721757  L 137.009516 40.085379  L 142.054001 38.294132  L 147.098485 36.757118  L 152.14297 35.458926  L 157.187455 34.384143  L 161.727491 33.595117  L 161.727491 33.595117  "
           clip-path="url(#pf6d2eeaf4a)"
           style="fill: none; stroke-dasharray: 5.55,2.4; stroke-dashoffset: 0; stroke: #55115c; stroke-width: 1.5"
           id="path2700" />
      </g>
      <g
         id="line2d_10">
        <path
           d="M 61.342244 20.282567  L 72.44011 20.332825  L 76.980147 20.508875  L 79.502389 20.83968  L 81.520183 21.347068  L 83.033528 21.917499  L 84.546874 22.685186  L 86.060219 23.681172  L 87.573565 24.934476  L 89.08691 26.456488  L 90.600256 28.249519  L 92.113601 30.315809  L 94.131395 33.499799  L 96.149189 37.178864  L 98.166983 41.35831  L 100.184777 46.036831  L 103.211468 53.741071  L 108.760401 68.131579  L 110.778195 72.845596  L 112.795989 77.001682  L 114.813783 80.56719  L 116.831576 83.611172  L 118.84937 86.204925  L 120.867164 88.419747  L 122.884958 90.326934  L 125.407201 92.384362  L 127.929443 94.154116  L 130.451685 95.67115  L 133.478376 97.204544  L 136.505067 98.478744  L 140.036207 99.707179  L 143.567346 100.707739  L 147.602934 101.630644  L 152.647419 102.552994  L 161.727491 103.967263  L 161.727491 103.967263  "
           clip-path="url(#pf6d2eeaf4a)"
           style="fill: none; stroke: #821760; stroke-width: 1.5; stroke-linecap: square"
           id="path2703" />
      </g>
      <g
         id="line2d_11">
        <path
           d="M 61.342244 103.927213  L 65.377832 103.928222  L 68.404522 103.826437  L 70.422316 103.543129  L 72.44011 102.999858  L 73.953456 102.39192  L 75.466801 101.595553  L 77.484595 100.251692  L 79.502389 98.608186  L 81.520183 96.689779  L 84.042425 93.942889  L 86.564668 90.853463  L 89.591359 86.762031  L 93.122498 81.564489  L 97.662534 74.414521  L 107.751504 58.299795  L 110.778195 54.027129  L 113.300437 50.868783  L 115.82268 48.092744  L 118.344922 45.666069  L 120.867164 43.555243  L 123.389407 41.726753  L 125.911649 40.147086  L 128.93834 38.532746  L 131.965031 37.17054  L 135.49617 35.82271  L 140.036207 34.342317  L 144.576243 33.080747  L 149.620728 31.906339  L 155.169661 30.85339  L 161.223043 29.940882  L 161.727491 29.874275  L 161.727491 29.874275  "
           clip-path="url(#pf6d2eeaf4a)"
           style="fill: none; stroke-dasharray: 5.55,2.4; stroke-dashoffset: 0; stroke: #821760; stroke-width: 1.5"
           id="path2706" />
      </g>
      <g
         id="line2d_12">
        <path
           d="M 61.342244 20.281698  L 73.953456 20.366318  L 77.484595 20.563032  L 80.006837 20.952245  L 82.024631 21.515622  L 83.537977 22.130129  L 85.051322 22.941304  L 86.564668 23.978055  L 88.078013 25.26651  L 89.591359 26.824121  L 91.104704 28.666655  L 92.618049 30.809877  L 94.131395 33.269554  L 95.64474 36.061451  L 97.662534 40.328018  L 99.680328 45.248779  L 102.202571 52.202053  L 110.778195 76.78755  L 112.795989 81.48203  L 114.813783 85.471479  L 116.831576 88.832564  L 118.84937 91.644684  L 120.867164 93.987236  L 122.884958 95.939619  L 124.902752 97.580708  L 126.920546 98.969801  L 129.442789 100.403829  L 131.965031 101.561443  L 134.991722 102.675499  L 138.522861 103.731305  L 142.558449 104.723625  L 147.098485 105.609964  L 152.14297 106.364345  L 158.196352 107.037485  L 161.727491 107.354719  L 161.727491 107.354719  "
           clip-path="url(#pf6d2eeaf4a)"
           style="fill: none; stroke: #ab275e; stroke-width: 1.5; stroke-linecap: square"
           id="path2709" />
      </g>
      <g
         id="line2d_13">
        <path
           d="M 61.342244 103.766122  L 68.404522 103.660492  L 70.422316 103.379639  L 72.44011 102.858889  L 73.953456 102.268735  L 75.466801 101.482681  L 77.484595 100.142745  L 79.502389 98.497656  L 81.520183 96.578405  L 84.042425 93.84101  L 86.564668 90.784183  L 89.591359 86.764558  L 92.618049 82.393715  L 96.149189 76.883748  L 99.680328 70.969658  L 109.264849 54.565914  L 111.787092 50.821445  L 114.309334 47.539746  L 116.831576 44.70065  L 119.353819 42.262332  L 121.876061 40.182965  L 124.398304 38.420722  L 126.920546 36.933778  L 129.442789 35.680306  L 132.469479 34.425432  L 136.000619 33.213785  L 140.540655 31.90237  L 145.080691 30.807753  L 150.125176 29.820227  L 155.674109 28.97888  L 161.727491 28.31014  L 161.727491 28.31014  "
           clip-path="url(#pf6d2eeaf4a)"
           style="fill: none; stroke-dasharray: 5.55,2.4; stroke-dashoffset: 0; stroke: #ab275e; stroke-width: 1.5"
           id="path2712" />
      </g>
      <g
         id="line2d_14">
        <path
           d="M 61.342244 20.278966  L 77.484595 20.483526  L 79.502389 20.777099  L 81.520183 21.307144  L 83.033528 21.904504  L 85.051322 22.977175  L 87.069116 24.322455  L 89.08691 25.955358  L 90.600256 27.440132  L 92.113601 29.208391  L 93.626946 31.314625  L 95.140292 33.813324  L 96.653637 36.758978  L 98.166983 40.206078  L 99.680328 44.206022  L 101.698122 50.320786  L 104.220364 58.770591  L 109.264849 75.927242  L 111.282643 81.978364  L 112.795989 85.925798  L 114.309334 89.352739  L 115.82268 92.306552  L 117.336025 94.834742  L 118.84937 96.984815  L 120.362716 98.804277  L 121.876061 100.340636  L 123.893855 102.030839  L 125.911649 103.405842  L 127.929443 104.521701  L 129.947237 105.418749  L 132.469479 106.293785  L 135.49617 107.086584  L 140.036207 108.003207  L 145.080691 108.784976  L 150.629625 109.412255  L 157.187455 109.921406  L 161.727491 110.1771  L 161.727491 110.1771  "
           clip-path="url(#pf6d2eeaf4a)"
           style="fill: none; stroke: #cd4158; stroke-width: 1.5; stroke-linecap: square"
           id="path2715" />
      </g>
      <g
         id="line2d_15">
        <path
           d="M 61.342244 103.644804  L 68.908971 103.483623  L 70.926765 103.159589  L 72.944559 102.577253  L 74.457904 101.927462  L 75.97125 101.079494  L 77.989044 99.663463  L 80.006837 97.953638  L 82.52908 95.457032  L 85.051322 92.625581  L 88.078013 88.880048  L 91.104704 84.808729  L 94.635843 79.659618  L 97.662534 74.872179  L 100.184777 70.464443  L 103.715916 63.724938  L 108.760401 54.037299  L 111.282643 49.660138  L 113.300437 46.570619  L 115.318231 43.85943  L 117.336025 41.496551  L 119.353819 39.451914  L 121.371613 37.695452  L 123.389407 36.197097  L 125.911649 34.641313  L 128.433892 33.383116  L 130.956134 32.363783  L 133.982825 31.373197  L 138.522861 30.155924  L 144.071794 28.898337  L 149.116279 27.971724  L 154.160764 27.261699  L 159.205249 26.778185  L 161.727491 26.624472  L 161.727491 26.624472  "
           clip-path="url(#pf6d2eeaf4a)"
           style="fill: none; stroke-dasharray: 5.55,2.4; stroke-dashoffset: 0; stroke: #cd4158; stroke-width: 1.5"
           id="path2718" />
      </g>
      <g
         id="line2d_16">
        <path
           d="M 61.342244 20.256599  L 64.368935 20.350456  L 70.422316 20.235605  L 74.457904 20.289843  L 76.980147 20.515527  L 79.502389 20.965524  L 81.520183 21.530029  L 83.537977 22.311811  L 85.555771 23.343633  L 87.573565 24.660597  L 89.08691 25.87925  L 90.600256 27.347474  L 92.113601 29.11237  L 93.626946 31.221042  L 95.140292 33.720593  L 96.653637 36.658127  L 98.166983 40.080747  L 99.680328 44.033325  L 101.698122 50.084677  L 104.220364 58.60609  L 107.751504 71.560073  L 110.778195 82.439722  L 112.29154 87.126633  L 113.804886 91.109759  L 115.318231 94.453586  L 116.831576 97.230111  L 118.344922 99.511329  L 119.858267 101.369238  L 121.371613 102.875831  L 122.884958 104.103107  L 124.902752 105.427918  L 126.920546 106.495706  L 128.93834 107.347809  L 131.460582 108.165494  L 134.487273 108.878328  L 138.522861 109.571907  L 143.567346 110.228814  L 149.620728 110.784321  L 157.187455 111.240786  L 161.727491 111.449624  L 161.727491 111.449624  "
           clip-path="url(#pf6d2eeaf4a)"
           style="fill: none; stroke: #e7624f; stroke-width: 1.5; stroke-linecap: square"
           id="path2721" />
      </g>
      <g
         id="line2d_17">
        <path
           d="M 61.342244 103.591038  L 65.377832 103.567685  L 68.404522 103.470316  L 70.422316 103.216521  L 72.44011 102.717755  L 73.953456 102.134518  L 75.466801 101.344066  L 77.484595 99.987028  L 79.502389 98.322661  L 81.520183 96.393593  L 84.042425 93.67496  L 87.069116 90.071492  L 90.600256 85.493144  L 93.626946 81.199804  L 96.653637 76.505997  L 99.680328 71.355439  L 102.707019 65.748917  L 106.742607 57.771035  L 111.282643 48.757163  L 113.300437 45.298097  L 115.318231 42.308002  L 117.336025 39.745063  L 119.353819 37.567363  L 121.371613 35.732986  L 123.389407 34.200014  L 125.407201 32.926897  L 127.424995 31.876488  L 129.947237 30.824533  L 132.973928 29.856972  L 136.505067 28.988844  L 142.054001 27.876311  L 147.602934 26.989836  L 153.656316 26.256084  L 159.709697 25.739467  L 161.727491 25.610834  L 161.727491 25.610834  "
           clip-path="url(#pf6d2eeaf4a)"
           style="fill: none; stroke-dasharray: 5.55,2.4; stroke-dashoffset: 0; stroke: #e7624f; stroke-width: 1.5"
           id="path2724" />
      </g>
      <g
         id="line2d_18">
        <path
           d="M 61.342244 20.276592  L 66.891177 20.284651  L 73.953456 20.308271  L 76.980147 20.493878  L 79.502389 20.863639  L 81.520183 21.372365  L 83.537977 22.125918  L 85.555771 23.17559  L 87.069116 24.188065  L 88.582462 25.418961  L 90.095807 26.892844  L 91.609152 28.634381  L 93.122498 30.668237  L 94.635843 33.019079  L 96.149189 35.711574  L 97.662534 38.770389  L 99.17588 42.220189  L 101.193674 47.469647  L 103.211468 53.510939  L 105.229261 60.39744  L 107.247055 68.182525  L 111.787092 86.825802  L 113.300437 91.761996  L 114.813783 95.814804  L 116.327128 99.088932  L 117.840473 101.689085  L 119.353819 103.719966  L 120.867164 105.286281  L 122.38051 106.492736  L 124.398304 107.722392  L 126.416098 108.691623  L 128.93834 109.618388  L 131.460582 110.290053  L 134.487273 110.851819  L 139.02731 111.42296  L 144.576243 111.904063  L 151.638522 112.28697  L 161.727491 112.655662  L 161.727491 112.655662  "
           clip-path="url(#pf6d2eeaf4a)"
           style="fill: none; stroke: #f88646; stroke-width: 1.5; stroke-linecap: square"
           id="path2727" />
      </g>
      <g
         id="line2d_19">
        <path
           d="M 61.342244 103.542757  L 69.413419 103.325044  L 71.431213 102.945589  L 73.449007 102.290041  L 74.962353 101.575959  L 76.980147 100.32356  L 78.99794 98.75996  L 81.015734 96.920367  L 83.537977 94.286397  L 86.564668 90.725836  L 89.591359 86.823477  L 93.122498 81.888208  L 96.653637 76.577136  L 100.689225 70.0806  L 103.211468 65.613196  L 105.73371 60.590132  L 108.760401 53.982032  L 112.29154 46.32707  L 114.309334 42.49472  L 115.82268 40.007552  L 117.336025 37.896574  L 118.84937 36.126206  L 120.362716 34.646011  L 122.38051 33.038256  L 124.398304 31.743863  L 126.920546 30.431975  L 129.442789 29.39561  L 132.469479 28.436083  L 136.000619 27.58493  L 141.045104 26.623025  L 146.594037 25.804401  L 152.647419 25.156344  L 159.205249 24.690162  L 161.727491 24.564041  L 161.727491 24.564041  "
           clip-path="url(#pf6d2eeaf4a)"
           style="fill: none; stroke-dasharray: 5.55,2.4; stroke-dashoffset: 0; stroke: #f88646; stroke-width: 1.5"
           id="path2730" />
      </g>
      <g
         id="line2d_20">
        <path
           d="M 61.342244 20.278529  L 68.404522 20.271279  L 74.457904 20.361141  L 77.484595 20.593465  L 80.006837 21.012564  L 82.024631 21.563733  L 84.042425 22.359417  L 86.060219 23.44818  L 87.573565 24.486678  L 89.08691 25.7419  L 90.600256 27.239713  L 92.113601 29.006  L 93.626946 31.066645  L 95.140292 33.447529  L 96.653637 36.174538  L 98.166983 39.273552  L 99.680328 42.770438  L 101.698122 48.095667  L 103.715916 54.232296  L 105.73371 61.239203  L 107.751504 69.173779  L 112.29154 87.928683  L 113.804886 93.127782  L 115.318231 97.592099  L 116.831576 101.314736  L 118.344922 104.28879  L 119.353819 105.852206  L 120.362716 107.078979  L 121.371613 108.001277  L 122.38051 108.688107  L 123.893855 109.432035  L 126.416098 110.359665  L 128.93834 111.051389  L 131.965031 111.63753  L 135.49617 112.089537  L 141.549552 112.594175  L 148.611831 112.950743  L 160.214146 113.269274  L 161.727491 113.30681  L 161.727491 113.30681  "
           clip-path="url(#pf6d2eeaf4a)"
           style="fill: none; stroke: #ffad40; stroke-width: 1.5; stroke-linecap: square"
           id="path2733" />
      </g>
      <g
         id="line2d_21">
        <path
           d="M 61.342244 103.515847  L 69.413419 103.299297  L 71.431213 102.918841  L 72.944559 102.453295  L 74.457904 101.798484  L 75.97125 100.942588  L 77.989044 99.515178  L 80.006837 97.797974  L 82.52908 95.305954  L 85.051322 92.504222  L 88.582462 88.203083  L 92.113601 83.507354  L 95.140292 79.137502  L 98.166983 74.420317  L 101.193674 69.32394  L 104.220364 63.774912  L 106.742607 58.7356  L 109.769298 52.182174  L 113.300437 44.562409  L 115.82268 39.678299  L 117.840473 36.330694  L 119.353819 34.242875  L 120.867164 32.578904  L 122.38051 31.296895  L 123.893855 30.288009  L 125.911649 29.204626  L 127.929443 28.349861  L 130.451685 27.541358  L 133.478376 26.848342  L 138.018413 26.09419  L 145.58514 25.053278  L 152.14297 24.359988  L 158.196352 23.923094  L 161.727491 23.769242  L 161.727491 23.769242  "
           clip-path="url(#pf6d2eeaf4a)"
           style="fill: none; stroke-dasharray: 5.55,2.4; stroke-dashoffset: 0; stroke: #ffad40; stroke-width: 1.5"
           id="path2736" />
      </g>
      <g
         id="line2d_22">
        <path
           d="M 61.342244 20.279865  L 67.900074 20.261523  L 73.953456 20.308282  L 76.980147 20.500432  L 79.502389 20.873582  L 81.520183 21.38321  L 83.537977 22.135702  L 85.555771 23.182025  L 87.069116 24.190151  L 88.582462 25.409842  L 90.095807 26.854248  L 91.609152 28.536231  L 93.626946 31.170675  L 95.64474 34.280837  L 97.662534 37.89721  L 99.680328 42.052347  L 101.193674 45.602104  L 102.707019 49.671279  L 104.220364 54.391992  L 105.73371 59.798264  L 107.751504 68.029071  L 114.309334 96.427659  L 115.82268 101.264573  L 116.831576 103.804995  L 117.840473 105.837208  L 118.84937 107.428247  L 119.858267 108.645148  L 120.867164 109.554495  L 121.876061 110.220821  L 123.389407 110.904548  L 125.911649 111.674369  L 128.433892 112.228307  L 131.460582 112.67499  L 135.49617 113.026607  L 143.062897 113.411081  L 153.151867 113.689519  L 161.727491 113.823783  L 161.727491 113.823783  "
           clip-path="url(#pf6d2eeaf4a)"
           style="fill: none; stroke: #ffd547; stroke-width: 1.5; stroke-linecap: square"
           id="path2739" />
      </g>
      <g
         id="line2d_23">
        <path
           d="M 61.342244 103.495867  L 69.413419 103.284067  L 71.431213 102.910036  L 72.944559 102.449087  L 74.457904 101.798088  L 75.97125 100.944739  L 77.989044 99.518053  L 80.006837 97.797648  L 82.52908 95.294657  L 85.051322 92.472477  L 88.078013 88.770746  L 91.609152 84.100973  L 95.140292 79.08154  L 99.17588 72.951998  L 102.202571 68.023929  L 104.724813 63.461261  L 106.742607 59.354617  L 108.760401 54.74455  L 115.318231 39.089208  L 116.831576 36.184247  L 118.344922 33.760817  L 119.858267 31.818875  L 121.371613 30.339314  L 122.884958 29.222208  L 124.902752 28.088693  L 126.920546 27.204466  L 129.442789 26.378953  L 131.965031 25.794292  L 135.49617 25.237593  L 142.558449 24.435879  L 150.629625 23.753412  L 159.205249 23.259324  L 161.727491 23.152852  L 161.727491 23.152852  "
           clip-path="url(#pf6d2eeaf4a)"
           style="fill: none; stroke-dasharray: 5.55,2.4; stroke-dashoffset: 0; stroke: #ffd547; stroke-width: 1.5"
           id="path2742" />
      </g>
      <g
         id="patch_3">
        <path
           d="M 58.768263 118.503748  L 58.768263 15.544519  "
           style="fill: none; stroke: #000000; stroke-width: 1.2; stroke-linejoin: miter; stroke-linecap: square"
           id="path2745" />
      </g>
      <g
         id="patch_4">
        <path
           d="M 161.727491 118.503748  L 161.727491 15.544519  "
           style="fill: none; stroke: #000000; stroke-width: 1.2; stroke-linejoin: miter; stroke-linecap: square"
           id="path2748" />
      </g>
      <g
         id="patch_5">
        <path
           d="M 58.768263 118.503748  L 161.727491 118.503748  "
           style="fill: none; stroke: #000000; stroke-width: 1.2; stroke-linejoin: miter; stroke-linecap: square"
           id="path2751" />
      </g>
      <g
         id="patch_6">
        <path
           d="M 58.768263 15.544519  L 161.727491 15.544519  "
           style="fill: none; stroke: #000000; stroke-width: 1.2; stroke-linejoin: miter; stroke-linecap: square"
           id="path2754" />
      </g>
      <g
         id="legend_1"
         transform="rotate(-90,62.828211,103.49995)">
        <g
           id="line2d_24"
           style="fill:#000000;stroke:#000000;stroke-opacity:1">
          <path
             d="m 69.568263,57.450628 h 12 12"
             style="fill:#000000;stroke:#000000;stroke-width:1.5;stroke-linecap:square;stroke-opacity:1"
             id="path2760" />
        </g>
        <g
           id="text_10">
          <!-- $\langle m \rangle$ -->
          <g
             transform="matrix(0.12,0,0,-0.12,103.16826,61.650628)"
             id="g2769">
            <path
               id="use2763"
               d="m 2099,4557 c 32,70 32,83 32,115 0,70 -57,128 -128,128 -57,0 -102,-32 -147,-147 L 736,1715 c -13,-38 -32,-77 -32,-115 0,-20 0,-32 32,-109 l 1120,-2938 c 26,-70 58,-153 147,-153 71,0 128,57 128,128 0,19 0,32 -32,102 L 966,1600 Z"
               transform="scale(0.01556663)" />
            <path
               id="use2765"
               d="m 1318,1870 c 13,39 173,358 410,562 166,153 384,255 634,255 256,0 345,-191 345,-446 0,-39 0,-166 -77,-466 l -160,-658 c -51,-192 -172,-664 -185,-734 -26,-96 -64,-262 -64,-288 0,-89 70,-159 166,-159 192,0 224,147 282,377 l 384,1525 c 13,52 345,849 1049,849 256,0 346,-191 346,-446 0,-358 -250,-1054 -390,-1437 -58,-153 -90,-236 -90,-351 0,-287 198,-517 506,-517 595,0 819,938 819,977 0,32 -26,57 -64,57 -58,0 -64,-19 -96,-128 C 4986,332 4749,64 4493,64 c -64,0 -167,6 -167,210 0,166 77,371 103,441 115,306 403,1060 403,1430 0,383 -224,671 -710,671 -429,0 -775,-243 -1031,-620 -19,345 -230,620 -710,620 -570,0 -871,-403 -986,-563 -19,364 -281,563 -563,563 -186,0 -333,-90 -454,-333 -116,-230 -205,-619 -205,-645 0,-25 25,-57 70,-57 51,0 58,6 96,153 96,377 218,753 474,753 147,0 198,-102 198,-293 0,-141 -64,-390 -109,-587 L 723,1117 C 698,996 627,708 595,593 550,427 480,127 480,95 480,6 550,-64 646,-64 c 77,0 167,38 218,134 13,32 70,255 102,383 l 141,575 z"
               transform="matrix(0.01556663,0,0,0.01556663,38.743734,0)" />
            <path
               id="use2767"
               d="m 1747,1491 c 32,77 32,89 32,109 0,19 0,32 -32,109 L 627,4653 c -38,108 -77,147 -147,147 -70,0 -128,-58 -128,-128 0,-19 0,-32 32,-103 L 1517,1600 384,-1357 c -32,-71 -32,-83 -32,-115 0,-71 58,-128 128,-128 83,0 109,64 134,128 z"
               transform="matrix(0.01556663,0,0,0.01556663,124.07096,0)" />
          </g>
        </g>
        <g
           id="line2d_25"
           style="fill:#000000;stroke:#000000;stroke-opacity:1">
          <path
             d="m 69.568263,74.83942 h 12 12"
             style="fill:#000000;stroke:#000000;stroke-width:1.5;stroke-dasharray:5.55, 2.4;stroke-dashoffset:0;stroke-opacity:1"
             id="path2772" />
        </g>
        <g
           id="text_11">
          <!-- $1 - f$ -->
          <g
             transform="matrix(0.12,0,0,-0.12,103.16826,79.03942)"
             id="g2785">
            <defs
               id="defs2777">
              <path
                 id="CMSY10-0"
                 d="m 4218,1472 c 108,0 224,0 224,128 0,128 -116,128 -224,128 H 755 c -109,0 -224,0 -224,-128 0,-128 115,-128 224,-128 z"
                 transform="scale(0.015625)" />
              <path
                 id="CMMI12-66"
                 d="m 2854,2566 c 128,0 180,0 180,121 0,65 -52,65 -167,65 h -518 c 121,646 211,1094 262,1299 39,153 173,300 339,300 135,0 269,-57 333,-115 -249,-25 -326,-211 -326,-320 0,-128 96,-204 217,-204 128,0 320,108 320,352 0,268 -268,416 -550,416 -275,0 -544,-205 -672,-455 -115,-224 -179,-452 -326,-1273 h -429 c -122,0 -186,0 -186,-116 0,-70 39,-70 167,-70 h 409 C 1792,1977 1530,545 1382,-132 1274,-685 1178,-1152 858,-1152 c -20,0 -205,0 -320,121 326,26 326,307 326,314 0,128 -96,205 -218,205 -128,0 -320,-109 -320,-353 0,-275 282,-415 532,-415 652,0 921,1167 992,1483 115,488 428,2173 460,2363 z"
                 transform="scale(0.015625)" />
            </defs>
            <use
               xlink:href="#CMR17-31"
               transform="scale(0.996264)"
               id="use2779" />
            <use
               xlink:href="#CMSY10-0"
               transform="matrix(0.996264,0,0,0.996264,67.829684,0)"
               id="use2781" />
            <use
               xlink:href="#CMMI12-66"
               transform="matrix(0.996264,0,0,0.996264,167.45636,0)"
               id="use2783" />
          </g>
        </g>
      </g>
    </g>
    <g
       id="axes_2">
      <g
         id="patch_8">
        <path
           d="M 176.978296 118.503748  L 279.937524 118.503748  L 279.937524 15.544519  L 176.978296 15.544519  z "
           style="fill: #ffffff"
           id="path2790" />
      </g>
      <g
         id="matplotlib.axis_3">
        <g
           id="xtick_5">
          <g
             id="line2d_26">
            <g
               id="g2795">
              <use
                 xlink:href="#m93ebe20c07"
                 x="181.658261"
                 y="118.503748"
                 style="stroke: #000000; stroke-width: 0.8"
                 id="use2793" />
            </g>
          </g>
          <g
             id="text_12">
            <!-- 1.5 -->
            <g
               transform="translate(174.17944 133.805927)scale(0.12 -0.12)"
               id="g2804">
              <use
                 xlink:href="#CMR17-31"
                 transform="scale(0.996264)"
                 id="use2798" />
              <use
                 xlink:href="#CMR17-2e"
                 transform="translate(45.690477 0)scale(0.996264)"
                 id="use2800" />
              <use
                 xlink:href="#CMR17-35"
                 transform="translate(70.561536 0)scale(0.996264)"
                 id="use2802" />
            </g>
          </g>
        </g>
        <g
           id="xtick_6">
          <g
             id="line2d_27">
            <g
               id="g2810">
              <use
                 xlink:href="#m93ebe20c07"
                 x="228.45791"
                 y="118.503748"
                 style="stroke: #000000; stroke-width: 0.8"
                 id="use2808" />
            </g>
          </g>
          <g
             id="text_13">
            <!-- 2 -->
            <g
               transform="translate(225.531415 133.805927)scale(0.12 -0.12)"
               id="g2815">
              <use
                 xlink:href="#CMR17-32"
                 transform="scale(0.996264)"
                 id="use2813" />
            </g>
          </g>
        </g>
        <g
           id="xtick_7">
          <g
             id="line2d_28">
            <g
               id="g2821">
              <use
                 xlink:href="#m93ebe20c07"
                 x="275.257559"
                 y="118.503748"
                 style="stroke: #000000; stroke-width: 0.8"
                 id="use2819" />
            </g>
          </g>
          <g
             id="text_14">
            <!-- 2.5 -->
            <g
               transform="translate(267.778738 133.805927)scale(0.12 -0.12)"
               id="g2830">
              <use
                 xlink:href="#CMR17-32"
                 transform="scale(0.996264)"
                 id="use2824" />
              <use
                 xlink:href="#CMR17-2e"
                 transform="translate(45.690477 0)scale(0.996264)"
                 id="use2826" />
              <use
                 xlink:href="#CMR17-35"
                 transform="translate(70.561536 0)scale(0.996264)"
                 id="use2828" />
            </g>
          </g>
        </g>
        <g
           id="text_15">
          <!-- T -->
          <g
             transform="translate(224.23075 149.432703)scale(0.12 -0.12)"
             id="g2836">
            <use
               xlink:href="#CMR17-54"
               transform="scale(0.996264)"
               id="use2834" />
          </g>
        </g>
      </g>
      <g
         id="matplotlib.axis_4">
        <g
           id="ytick_4">
          <g
             id="line2d_29">
            <defs
               id="defs2841">
              <path
                 id="m155fda97f6"
                 d="M 0 0  L 3.5 0  "
                 style="stroke: #000000; stroke-width: 0.8" />
            </defs>
            <g
               id="g2845">
              <use
                 xlink:href="#m155fda97f6"
                 x="279.937524"
                 y="114.160464"
                 style="stroke: #000000; stroke-width: 0.8"
                 id="use2843" />
            </g>
          </g>
          <g
             id="text_16">
            <!-- $\mathdefault{1.0}$ -->
            <g
               transform="translate(286.937524 118.311554)scale(0.12 -0.12)"
               id="g2857">
              <defs
                 id="defs2849">
                <path
                   id="CMMI12-3a"
                   d="M 1178 307  C 1178 492 1024 620 870 620  C 685 620 557 467 557 313  C 557 128 710 0 864 0  C 1050 0 1178 153 1178 307  z "
                   transform="scale(0.015625)" />
              </defs>
              <use
                 xlink:href="#CMR17-31"
                 transform="scale(0.996264)"
                 id="use2851" />
              <use
                 xlink:href="#CMMI12-3a"
                 transform="translate(45.690477 0)scale(0.996264)"
                 id="use2853" />
              <use
                 xlink:href="#CMR17-30"
                 transform="translate(72.787654 0)scale(0.996264)"
                 id="use2855" />
            </g>
          </g>
        </g>
        <g
           id="ytick_5">
          <g
             id="line2d_30">
            <g
               id="g2863">
              <use
                 xlink:href="#m155fda97f6"
                 x="279.937524"
                 y="83.837881"
                 style="stroke: #000000; stroke-width: 0.8"
                 id="use2861" />
            </g>
          </g>
          <g
             id="text_17">
            <!-- $\mathdefault{1.5}$ -->
            <g
               transform="translate(286.937524 87.988971)scale(0.12 -0.12)"
               id="g2872">
              <use
                 xlink:href="#CMR17-31"
                 transform="scale(0.996264)"
                 id="use2866" />
              <use
                 xlink:href="#CMMI12-3a"
                 transform="translate(45.690477 0)scale(0.996264)"
                 id="use2868" />
              <use
                 xlink:href="#CMR17-35"
                 transform="translate(72.787654 0)scale(0.996264)"
                 id="use2870" />
            </g>
          </g>
        </g>
        <g
           id="ytick_6">
          <g
             id="line2d_31">
            <g
               id="g2878">
              <use
                 xlink:href="#m155fda97f6"
                 x="279.937524"
                 y="53.515299"
                 style="stroke: #000000; stroke-width: 0.8"
                 id="use2876" />
            </g>
          </g>
          <g
             id="text_18">
            <!-- $\mathdefault{2.0}$ -->
            <g
               transform="translate(286.937524 57.666389)scale(0.12 -0.12)"
               id="g2887">
              <use
                 xlink:href="#CMR17-32"
                 transform="scale(0.996264)"
                 id="use2881" />
              <use
                 xlink:href="#CMMI12-3a"
                 transform="translate(45.690477 0)scale(0.996264)"
                 id="use2883" />
              <use
                 xlink:href="#CMR17-30"
                 transform="translate(72.787654 0)scale(0.996264)"
                 id="use2885" />
            </g>
          </g>
        </g>
        <g
           id="ytick_7">
          <g
             id="line2d_32">
            <g
               id="g2893">
              <use
                 xlink:href="#m155fda97f6"
                 x="279.937524"
                 y="23.192716"
                 style="stroke: #000000; stroke-width: 0.8"
                 id="use2891" />
            </g>
          </g>
          <g
             id="text_19">
            <!-- $\mathdefault{2.5}$ -->
            <g
               transform="translate(286.937524 27.343806)scale(0.12 -0.12)"
               id="g2902">
              <use
                 xlink:href="#CMR17-32"
                 transform="scale(0.996264)"
                 id="use2896" />
              <use
                 xlink:href="#CMMI12-3a"
                 transform="translate(45.690477 0)scale(0.996264)"
                 id="use2898" />
              <use
                 xlink:href="#CMR17-35"
                 transform="translate(72.787654 0)scale(0.996264)"
                 id="use2900" />
            </g>
          </g>
        </g>
        <g
           id="text_20">
          <!-- B -->
          <g
             transform="translate(302.750331 75.326313)scale(0.12 -0.12)"
             id="g2911">
            <defs
               id="defs2907">
              <path
                 id="CMR17-42"
                 d="M 333 4352  L 333 4185  C 774 4185 845 4185 845 3897  L 845 451  C 845 166 774 166 333 166  L 333 0  L 2534 0  C 3354 0 3885 578 3885 1155  C 3885 1726 3360 2214 2675 2259  C 3290 2380 3718 2790 3718 3276  C 3718 3808 3194 4352 2368 4352  L 333 4352  z M 1248 2304  L 1248 3936  C 1248 4153 1261 4185 1517 4185  L 2336 4185  C 2970 4185 3251 3673 3251 3276  C 3251 2790 2861 2304 2170 2304  L 1248 2304  z M 1517 166  C 1261 166 1248 198 1248 413  L 1248 2201  L 2432 2201  C 3091 2201 3411 1624 3411 1161  C 3411 698 3046 166 2349 166  L 1517 166  z "
                 transform="scale(0.015625)" />
            </defs>
            <use
               xlink:href="#CMR17-42"
               transform="scale(0.996264)"
               id="use2909" />
          </g>
        </g>
      </g>
      <g
         id="line2d_33">
        <path
           d="M 181.658261 106.367893  L 186.832091 104.924242  L 192.47627 103.099181  L 199.061145 100.721278  L 207.997762 97.234615  L 219.286119 92.602253  L 231.515173 87.335076  L 246.095968 81.040779  L 257.384326 76.275073  L 264.43955 73.256751  L 269.61338 71.323697  L 275.257559 69.34998  L 275.257559 69.34998  "
           clip-path="url(#p933567a1f4)"
           style="fill: none; stroke: #55115c; stroke-width: 1.5; stroke-linecap: square"
           id="path2915" />
      </g>
      <g
         id="line2d_34">
        <path
           d="M 181.658261 108.625658  L 185.891395 107.453135  L 190.124529 106.043329  L 194.828011 104.221023  L 199.531493 102.153864  L 204.705324 99.627389  L 210.349503 96.607848  L 216.46403 93.075884  L 223.519253 88.734384  L 232.45587 82.953848  L 259.736067 65.096449  L 266.791291 60.851236  L 272.905818 57.42812  L 275.257559 56.187379  L 275.257559 56.187379  "
           clip-path="url(#p933567a1f4)"
           style="fill: none; stroke: #821760; stroke-width: 1.5; stroke-linecap: square"
           id="path2918" />
      </g>
      <g
         id="line2d_35">
        <path
           d="M 181.658261 110.458822  L 184.950698 109.838607  L 188.243136 109.00952  L 192.005922 107.818784  L 195.768708 106.382625  L 199.531493 104.715653  L 203.764627 102.582602  L 207.997762 100.196714  L 212.701244 97.274489  L 217.404726 94.094329  L 222.578557 90.332291  L 228.222736 85.956296  L 235.277959 80.174586  L 257.854674 61.393127  L 263.028505 57.480449  L 267.731987 54.186341  L 271.965121 51.483923  L 275.257559 49.581204  L 275.257559 49.581204  "
           clip-path="url(#p933567a1f4)"
           style="fill: none; stroke: #ab275e; stroke-width: 1.5; stroke-linecap: square"
           id="path2921" />
      </g>
      <g
         id="line2d_36">
        <path
           d="M 181.658261 112.127509  L 188.243136 111.188551  L 192.47627 110.382792  L 196.239056 109.451667  L 199.531493 108.421957  L 202.823931 107.149624  L 205.64602 105.83563  L 208.46811 104.299619  L 211.760547 102.239429  L 215.052985 99.90896  L 218.815771 96.939565  L 222.578557 93.671599  L 226.811691 89.674405  L 231.515173 84.886477  L 237.159352 78.799026  L 252.680844 61.855468  L 257.854674 56.657048  L 263.498853 51.304495  L 269.61338 45.807844  L 275.257559 40.943441  L 275.257559 40.943441  "
           clip-path="url(#p933567a1f4)"
           style="fill: none; stroke: #cd4158; stroke-width: 1.5; stroke-linecap: square"
           id="path2924" />
      </g>
      <g
         id="line2d_37">
        <path
           d="M 181.658261 112.832684  L 191.535573 111.741999  L 195.768708 111.039304  L 199.531493 110.187379  L 202.823931 109.213394  L 205.64602 108.174312  L 208.46811 106.92343  L 211.290199 105.450972  L 214.112289 103.748737  L 216.934378 101.808529  L 219.756467 99.622149  L 222.578557 97.181399  L 225.400646 94.478079  L 228.222736 91.503993  L 231.515173 87.693933  L 235.277959 82.973179  L 240.45179 76.064165  L 252.210496 60.166474  L 256.44363 54.905481  L 260.206415 50.557246  L 263.969201 46.546212  L 267.261639 43.334527  L 270.554077 40.420019  L 273.846514 37.82089  L 275.257559 36.808033  L 275.257559 36.808033  "
           clip-path="url(#p933567a1f4)"
           style="fill: none; stroke: #e7624f; stroke-width: 1.5; stroke-linecap: square"
           id="path2927" />
      </g>
      <g
         id="line2d_38">
        <path
           d="M 181.658261 113.333493  L 192.005922 112.756947  L 197.179752 112.252532  L 201.412886 111.643283  L 205.64602 110.801551  L 208.938458 109.937661  L 211.760547 108.990751  L 214.582637 107.799316  L 216.934378 106.582777  L 219.286119 105.131334  L 221.63786 103.415396  L 223.989602 101.405376  L 226.341343 99.071684  L 228.693084 96.384746  L 231.044825 93.335952  L 233.866914 89.276338  L 237.159352 84.129523  L 242.333183 75.558021  L 250.799451 61.519803  L 255.032585 54.977238  L 259.265719 48.885918  L 263.028505 43.835772  L 266.791291 39.114966  L 270.554077 34.710457  L 274.316862 30.609202  L 275.257559 29.629743  L 275.257559 29.629743  "
           clip-path="url(#p933567a1f4)"
           style="fill: none; stroke: #f88646; stroke-width: 1.5; stroke-linecap: square"
           id="path2930" />
      </g>
      <g
         id="line2d_39">
        <path
           d="M 181.658261 113.580976  L 192.47627 113.185884  L 199.531493 112.720223  L 205.64602 112.105617  L 209.879155 111.483429  L 212.701244 110.872945  L 215.523333 110.027548  L 217.875074 109.09515  L 220.226816 107.914109  L 222.578557 106.445559  L 224.45995 105.037592  L 226.341343 103.400843  L 228.222736 101.515412  L 230.104129 99.365035  L 232.45587 96.312957  L 234.807611 92.879396  L 237.159352 89.089095  L 239.981441 84.104676  L 243.273879 77.769197  L 248.44771 67.216444  L 253.62154 56.809041  L 257.384326 49.761416  L 260.676764 44.057125  L 263.498853 39.561674  L 266.320943 35.472004  L 268.672684 32.402719  L 271.024425 29.666054  L 273.376166 27.285113  L 275.257559 25.652007  L 275.257559 25.652007  "
           clip-path="url(#p933567a1f4)"
           style="fill: none; stroke: #ffad40; stroke-width: 1.5; stroke-linecap: square"
           id="path2933" />
      </g>
      <g
         id="line2d_40">
        <path
           d="M 181.658261 113.823783  L 203.764627 113.052103  L 209.408806 112.535744  L 215.993682 111.703816  L 220.226816 111.00238  L 222.578557 110.366485  L 224.45995 109.620777  L 226.341343 108.593415  L 227.752387 107.598636  L 229.163432 106.381748  L 231.044825 104.403645  L 232.926218 102.044413  L 234.807611 99.332982  L 237.159352 95.492492  L 239.511093 91.203404  L 242.333183 85.543914  L 245.62562 78.35784  L 249.388406 69.565814  L 260.676764 42.596088  L 263.028505 37.814279  L 264.909898 34.429737  L 267.261639 30.709503  L 269.61338 27.407182  L 273.376166 22.591376  L 275.257559 20.224484  L 275.257559 20.224484  "
           clip-path="url(#p933567a1f4)"
           style="fill: none; stroke: #ffd547; stroke-width: 1.5; stroke-linecap: square"
           id="path2936" />
      </g>
      <g
         id="patch_9">
        <path
           d="M 176.978296 118.503748  L 176.978296 15.544519  "
           style="fill: none; stroke: #000000; stroke-width: 1.2; stroke-linejoin: miter; stroke-linecap: square"
           id="path2939" />
      </g>
      <g
         id="patch_10">
        <path
           d="M 279.937524 118.503748  L 279.937524 15.544519  "
           style="fill: none; stroke: #000000; stroke-width: 1.2; stroke-linejoin: miter; stroke-linecap: square"
           id="path2942" />
      </g>
      <g
         id="patch_11">
        <path
           d="M 176.978296 118.503748  L 279.937524 118.503748  "
           style="fill: none; stroke: #000000; stroke-width: 1.2; stroke-linejoin: miter; stroke-linecap: square"
           id="path2945" />
      </g>
      <g
         id="patch_12">
        <path
           d="M 176.978296 15.544519  L 279.937524 15.544519  "
           style="fill: none; stroke: #000000; stroke-width: 1.2; stroke-linejoin: miter; stroke-linecap: square"
           id="path2948" />
      </g>
    </g>
  </g>
  <defs
     id="defs2959">
    <clipPath
       id="pf6d2eeaf4a">
      <rect
         x="58.768263"
         y="15.544519"
         width="102.959228"
         height="102.959228"
         id="rect2953" />
    </clipPath>
    <clipPath
       id="p933567a1f4">
      <rect
         x="176.978296"
         y="15.544519"
         width="102.959228"
         height="102.959228"
         id="rect2956" />
    </clipPath>
  </defs>
</svg>
