<?xml version="1.0" encoding="utf-8" standalone="no"?>
<!DOCTYPE svg PUBLIC "-//W3C//DTD SVG 1.1//EN"
  "http://www.w3.org/Graphics/SVG/1.1/DTD/svg11.dtd">
<svg xmlns:xlink="http://www.w3.org/1999/xlink" width="324pt" height="162pt" viewBox="0 0 324 162" xmlns="http://www.w3.org/2000/svg" version="1.1">
 <metadata>
  <rdf:RDF xmlns:dc="http://purl.org/dc/elements/1.1/" xmlns:cc="http://creativecommons.org/ns#" xmlns:rdf="http://www.w3.org/1999/02/22-rdf-syntax-ns#">
   <cc:Work>
    <dc:type rdf:resource="http://purl.org/dc/dcmitype/StillImage"/>
    <dc:date>2022-09-17T12:11:09.377035</dc:date>
    <dc:format>image/svg+xml</dc:format>
    <dc:creator>
     <cc:Agent>
      <dc:title>Matplotlib v3.5.1, https://matplotlib.org/</dc:title>
     </cc:Agent>
    </dc:creator>
   </cc:Work>
  </rdf:RDF>
 </metadata>
 <defs>
  <style type="text/css">*{stroke-linejoin: round; stroke-linecap: butt}</style>
 </defs>
 <g id="figure_1">
  <g id="patch_1">
   <path d="M 0 162 
L 324 162 
L 324 0 
L 0 0 
z
" style="fill: #ffffff"/>
  </g>
  <g id="axes_1">
   <g id="patch_2">
    <path d="M 33.906035 121.088267 
L 142.034302 121.088267 
L 142.034302 12.96 
L 33.906035 12.96 
z
" style="fill: #ffffff"/>
   </g>
   <g id="matplotlib.axis_1">
    <g id="xtick_1">
     <g id="line2d_1">
      <defs>
       <path id="me2ecf42a8e" d="M 0 0 
L 0 3.5 
" style="stroke: #000000; stroke-width: 0.8"/>
      </defs>
      <g>
       <use xlink:href="#me2ecf42a8e" x="33.906035" y="121.088267" style="stroke: #000000; stroke-width: 0.8"/>
      </g>
     </g>
     <g id="text_1">
      <!-- $\mathdefault{0}$ -->
      <g transform="translate(30.97954 136.390447)scale(0.12 -0.12)">
       <defs>
        <path id="CMR17-30" d="M 2688 2038 
C 2688 2430 2682 3099 2413 3613 
C 2176 4063 1798 4224 1466 4224 
C 1158 4224 768 4082 525 3620 
C 269 3137 243 2539 243 2038 
C 243 1671 250 1112 448 623 
C 723 -39 1216 -128 1466 -128 
C 1760 -128 2208 -7 2470 604 
C 2662 1048 2688 1568 2688 2038 
z
M 1466 -26 
C 1056 -26 813 328 723 816 
C 653 1196 653 1749 653 2109 
C 653 2604 653 3015 736 3407 
C 858 3954 1216 4121 1466 4121 
C 1728 4121 2067 3947 2189 3420 
C 2272 3054 2278 2623 2278 2109 
C 2278 1691 2278 1176 2202 797 
C 2067 96 1690 -26 1466 -26 
z
" transform="scale(0.015625)"/>
       </defs>
       <use xlink:href="#CMR17-30" transform="scale(0.996264)"/>
      </g>
     </g>
    </g>
    <g id="xtick_2">
     <g id="line2d_2">
      <g>
       <use xlink:href="#me2ecf42a8e" x="60.938102" y="121.088267" style="stroke: #000000; stroke-width: 0.8"/>
      </g>
     </g>
     <g id="text_2">
      <!-- $\mathdefault{1}$ -->
      <g transform="translate(58.011607 136.390447)scale(0.12 -0.12)">
       <defs>
        <path id="CMR17-31" d="M 1702 4083 
C 1702 4217 1696 4224 1606 4224 
C 1357 3927 979 3833 621 3820 
C 602 3820 570 3820 563 3808 
C 557 3795 557 3782 557 3648 
C 755 3648 1088 3686 1344 3839 
L 1344 467 
C 1344 243 1331 166 781 166 
L 589 166 
L 589 0 
C 896 6 1216 12 1523 12 
C 1830 12 2150 6 2458 0 
L 2458 166 
L 2266 166 
C 1715 166 1702 236 1702 467 
L 1702 4083 
z
" transform="scale(0.015625)"/>
       </defs>
       <use xlink:href="#CMR17-31" transform="scale(0.996264)"/>
      </g>
     </g>
    </g>
    <g id="xtick_3">
     <g id="line2d_3">
      <g>
       <use xlink:href="#me2ecf42a8e" x="87.970169" y="121.088267" style="stroke: #000000; stroke-width: 0.8"/>
      </g>
     </g>
     <g id="text_3">
      <!-- $\mathdefault{2}$ -->
      <g transform="translate(85.043673 136.390447)scale(0.12 -0.12)">
       <defs>
        <path id="CMR17-32" d="M 2669 990 
L 2554 990 
C 2490 537 2438 460 2413 422 
C 2381 371 1920 371 1830 371 
L 602 371 
C 832 620 1280 1073 1824 1596 
C 2214 1966 2669 2400 2669 3033 
C 2669 3788 2067 4224 1395 4224 
C 691 4224 262 3603 262 3027 
C 262 2777 448 2745 525 2745 
C 589 2745 781 2783 781 3007 
C 781 3206 614 3264 525 3264 
C 486 3264 448 3257 422 3244 
C 544 3788 915 4057 1306 4057 
C 1862 4057 2227 3616 2227 3033 
C 2227 2477 1901 1998 1536 1583 
L 262 147 
L 262 0 
L 2515 0 
L 2669 990 
z
" transform="scale(0.015625)"/>
       </defs>
       <use xlink:href="#CMR17-32" transform="scale(0.996264)"/>
      </g>
     </g>
    </g>
    <g id="xtick_4">
     <g id="line2d_4">
      <g>
       <use xlink:href="#me2ecf42a8e" x="115.002235" y="121.088267" style="stroke: #000000; stroke-width: 0.8"/>
      </g>
     </g>
     <g id="text_4">
      <!-- $\mathdefault{3}$ -->
      <g transform="translate(112.07574 136.390447)scale(0.12 -0.12)">
       <defs>
        <path id="CMR17-33" d="M 1414 2176 
C 1984 2176 2234 1673 2234 1094 
C 2234 322 1824 25 1453 25 
C 1114 25 563 193 390 691 
C 422 678 454 678 486 678 
C 640 678 755 780 755 947 
C 755 1132 614 1216 486 1216 
C 378 1216 211 1164 211 927 
C 211 335 787 -128 1466 -128 
C 2176 -128 2720 432 2720 1087 
C 2720 1718 2208 2176 1600 2246 
C 2086 2347 2554 2776 2554 3353 
C 2554 3856 2048 4224 1472 4224 
C 890 4224 378 3862 378 3347 
C 378 3123 544 3084 627 3084 
C 762 3084 877 3167 877 3334 
C 877 3500 762 3584 627 3584 
C 602 3584 570 3584 544 3571 
C 730 3999 1235 4076 1459 4076 
C 1683 4076 2106 3966 2106 3347 
C 2106 3167 2080 2851 1862 2574 
C 1670 2329 1453 2316 1242 2297 
C 1210 2297 1062 2284 1037 2284 
C 992 2278 966 2272 966 2227 
C 966 2182 973 2176 1101 2176 
L 1414 2176 
z
" transform="scale(0.015625)"/>
       </defs>
       <use xlink:href="#CMR17-33" transform="scale(0.996264)"/>
      </g>
     </g>
    </g>
    <g id="text_5">
     <!-- T -->
     <g transform="translate(83.743009 152.017222)scale(0.12 -0.12)">
      <defs>
       <path id="CMR17-54" d="M 3981 4332 
L 288 4332 
L 179 2924 
L 294 2924 
C 378 3981 467 4166 1453 4166 
C 1568 4166 1754 4166 1805 4159 
C 1926 4140 1926 4064 1926 3917 
L 1926 465 
C 1926 236 1907 166 1376 166 
L 1197 166 
L 1197 0 
C 1504 6 1824 12 2138 12 
C 2451 12 2771 6 3078 0 
L 3078 166 
L 2899 166 
C 2368 166 2349 236 2349 465 
L 2349 3917 
C 2349 4057 2349 4134 2464 4159 
C 2515 4166 2701 4166 2816 4166 
C 3795 4166 3891 3981 3974 2924 
L 4090 2924 
L 3981 4332 
z
" transform="scale(0.015625)"/>
      </defs>
      <use xlink:href="#CMR17-54" transform="scale(0.996264)"/>
     </g>
    </g>
   </g>
   <g id="matplotlib.axis_2">
    <g id="ytick_1">
     <g id="line2d_5">
      <defs>
       <path id="m169ede2cbb" d="M 0 0 
L -3.5 0 
" style="stroke: #000000; stroke-width: 0.8"/>
      </defs>
      <g>
       <use xlink:href="#m169ede2cbb" x="33.906035" y="117.166846" style="stroke: #000000; stroke-width: 0.8"/>
      </g>
     </g>
     <g id="text_6">
      <!-- 0 -->
      <g transform="translate(21.053045 121.317936)scale(0.12 -0.12)">
       <use xlink:href="#CMR17-30" transform="scale(0.996264)"/>
      </g>
     </g>
    </g>
    <g id="ytick_2">
     <g id="line2d_6">
      <g>
       <use xlink:href="#m169ede2cbb" x="33.906035" y="67.550358" style="stroke: #000000; stroke-width: 0.8"/>
      </g>
     </g>
     <g id="text_7">
      <!-- .5 -->
      <g transform="translate(17.801383 71.701448)scale(0.12 -0.12)">
       <defs>
        <path id="CMR17-2e" d="M 1062 262 
C 1062 422 934 524 800 524 
C 672 524 538 422 538 262 
C 538 102 666 0 800 0 
C 928 0 1062 102 1062 262 
z
" transform="scale(0.015625)"/>
        <path id="CMR17-35" d="M 730 3750 
C 794 3724 1056 3641 1325 3641 
C 1920 3641 2246 3961 2432 4140 
C 2432 4191 2432 4224 2394 4224 
C 2387 4224 2374 4224 2323 4198 
C 2099 4102 1837 4032 1517 4032 
C 1325 4032 1037 4055 723 4191 
C 653 4224 640 4224 634 4224 
C 602 4224 595 4217 595 4090 
L 595 2231 
C 595 2113 595 2080 659 2080 
C 691 2080 704 2093 736 2139 
C 941 2435 1222 2560 1542 2560 
C 1766 2560 2246 2415 2246 1293 
C 2246 1087 2246 716 2054 422 
C 1894 159 1645 25 1370 25 
C 947 25 518 319 403 812 
C 429 806 480 793 506 793 
C 589 793 749 838 749 1036 
C 749 1209 627 1280 506 1280 
C 358 1280 262 1190 262 1011 
C 262 454 704 -128 1382 -128 
C 2042 -128 2669 441 2669 1267 
C 2669 2054 2170 2662 1549 2662 
C 1222 2662 947 2540 730 2304 
L 730 3750 
z
" transform="scale(0.015625)"/>
       </defs>
       <use xlink:href="#CMR17-2e" transform="scale(0.996264)"/>
       <use xlink:href="#CMR17-35" transform="translate(24.871058 0)scale(0.996264)"/>
      </g>
     </g>
    </g>
    <g id="ytick_3">
     <g id="line2d_7">
      <g>
       <use xlink:href="#m169ede2cbb" x="33.906035" y="17.93387" style="stroke: #000000; stroke-width: 0.8"/>
      </g>
     </g>
     <g id="text_8">
      <!-- 1 -->
      <g transform="translate(21.053045 22.08496)scale(0.12 -0.12)">
       <use xlink:href="#CMR17-31" transform="scale(0.996264)"/>
      </g>
     </g>
    </g>
   </g>
   <g id="line2d_8">
    <path d="M 36.609242 17.932609 
L 53.562015 18.112465 
L 55.681112 18.400157 
L 57.800209 18.93982 
L 59.389531 19.560921 
L 60.978854 20.407208 
L 62.568176 21.514447 
L 64.157499 22.913874 
L 65.746821 24.597309 
L 67.865918 27.23443 
L 69.985015 30.257929 
L 72.633885 34.477208 
L 75.81253 40.010487 
L 81.640046 50.759475 
L 85.87824 58.396482 
L 89.056885 63.653202 
L 91.705756 67.561191 
L 94.354626 71.031843 
L 97.003497 74.101898 
L 99.652368 76.808128 
L 102.301239 79.187301 
L 104.95011 81.276187 
L 107.598981 83.111555 
L 110.777626 85.031127 
L 113.956271 86.70212 
L 118.194464 88.648835 
L 122.432658 90.340587 
L 126.670851 91.802756 
L 131.438819 93.203111 
L 136.206786 94.377351 
L 141.504528 95.458366 
L 142.034302 95.555232 
L 142.034302 95.555232 
" clip-path="url(#p2727dfcc6a)" style="fill: none; stroke: #55115c; stroke-width: 1.5; stroke-linecap: square"/>
   </g>
   <g id="line2d_9">
    <path d="M 36.609242 106.27517 
L 40.317661 106.265503 
L 43.496306 106.202253 
L 45.615403 105.96412 
L 47.734499 105.468058 
L 49.323822 104.891671 
L 50.913144 104.117303 
L 52.502467 103.143969 
L 54.621564 101.554321 
L 56.74066 99.653537 
L 58.859757 97.466085 
L 61.508628 94.36592 
L 64.157499 90.904871 
L 67.865918 85.610321 
L 80.050724 67.78668 
L 83.759143 62.854046 
L 86.937788 58.95711 
L 90.116433 55.436337 
L 92.765304 52.816345 
L 95.414175 50.463304 
L 98.59282 47.96015 
L 101.771465 45.769676 
L 104.95011 43.852757 
L 108.658529 41.909897 
L 112.366948 40.223993 
L 116.605142 38.532333 
L 121.373109 36.85175 
L 126.141077 35.387435 
L 131.438819 33.999715 
L 136.73656 32.848239 
L 142.034302 31.916822 
L 142.034302 31.916822 
" clip-path="url(#p2727dfcc6a)" style="fill: none; stroke-dasharray: 5.55,2.4; stroke-dashoffset: 0; stroke: #55115c; stroke-width: 1.5"/>
   </g>
   <g id="line2d_10">
    <path d="M 36.609242 17.93592 
L 48.264273 17.988701 
L 53.032241 18.173589 
L 55.681112 18.521003 
L 57.800209 19.053864 
L 59.389531 19.652933 
L 60.978854 20.459162 
L 62.568176 21.505151 
L 64.157499 22.821377 
L 65.746821 24.419801 
L 67.336144 26.302851 
L 68.925466 28.472878 
L 71.044563 31.816719 
L 73.16366 35.680491 
L 75.282756 40.069764 
L 77.401853 44.983169 
L 80.580498 53.074198 
L 86.408014 68.187178 
L 88.527111 73.137861 
L 90.646207 77.502602 
L 92.765304 81.247116 
L 94.884401 84.44392 
L 97.003497 87.167892 
L 99.122594 89.493908 
L 101.241691 91.496844 
L 103.890562 93.657565 
L 106.539432 95.516169 
L 109.188303 97.109365 
L 111.837174 98.47187 
L 115.015819 99.851242 
L 118.724238 101.179488 
L 122.432658 102.26154 
L 126.670851 103.258135 
L 131.968593 104.248433 
L 142.034302 105.821982 
L 142.034302 105.821982 
" clip-path="url(#p2727dfcc6a)" style="fill: none; stroke: #821760; stroke-width: 1.5; stroke-linecap: square"/>
   </g>
   <g id="line2d_11">
    <path d="M 36.609242 105.779921 
L 40.847435 105.780982 
L 44.02608 105.674086 
L 46.145177 105.376554 
L 48.264273 104.806009 
L 49.853596 104.16755 
L 51.442918 103.331201 
L 53.562015 101.919873 
L 55.681112 100.193854 
L 57.800209 98.179134 
L 60.449079 95.294338 
L 63.09795 92.049808 
L 66.276595 87.752966 
L 69.985015 82.294484 
L 74.223208 75.639041 
L 85.348466 57.861792 
L 88.527111 53.374618 
L 91.175981 50.057708 
L 93.824852 47.142299 
L 96.473723 44.593793 
L 99.122594 42.376994 
L 101.771465 40.456705 
L 104.420336 38.797732 
L 107.598981 37.102344 
L 110.777626 35.671749 
L 114.486045 34.256252 
L 119.254013 32.701536 
L 124.02198 31.376629 
L 129.319722 30.14326 
L 135.147238 29.037448 
L 141.504528 28.079128 
L 142.034302 28.009177 
L 142.034302 28.009177 
" clip-path="url(#p2727dfcc6a)" style="fill: none; stroke-dasharray: 5.55,2.4; stroke-dashoffset: 0; stroke: #821760; stroke-width: 1.5"/>
   </g>
   <g id="line2d_12">
    <path d="M 36.609242 17.935007 
L 49.853596 18.023876 
L 53.562015 18.230466 
L 55.681112 18.53181 
L 57.800209 19.056412 
L 59.389531 19.639669 
L 60.978854 20.419348 
L 62.568176 21.425809 
L 64.157499 22.688443 
L 65.746821 24.228191 
L 67.336144 26.061647 
L 68.925466 28.205368 
L 70.514789 30.675911 
L 72.104111 33.489835 
L 73.693434 36.663697 
L 75.81253 41.484034 
L 77.931627 46.984702 
L 80.580498 54.548783 
L 86.937788 73.114543 
L 89.056885 78.58246 
L 90.646207 82.207884 
L 92.23553 85.415312 
L 93.824852 88.239813 
L 95.414175 90.716568 
L 97.003497 92.880752 
L 99.122594 95.340911 
L 101.241691 97.391313 
L 103.360787 99.114792 
L 105.479884 100.573624 
L 107.598981 101.803809 
L 110.247852 103.072241 
L 112.896723 104.103958 
L 116.605142 105.277771 
L 120.843335 106.376221 
L 125.611303 107.360033 
L 130.909044 108.198264 
L 136.73656 108.888743 
L 142.034302 109.379504 
L 142.034302 109.379504 
" clip-path="url(#p2727dfcc6a)" style="fill: none; stroke: #ab275e; stroke-width: 1.5; stroke-linecap: square"/>
   </g>
   <g id="line2d_13">
    <path d="M 36.609242 105.610743 
L 44.02608 105.49981 
L 46.145177 105.204857 
L 48.264273 104.657963 
L 49.853596 104.03818 
L 51.442918 103.212663 
L 53.562015 101.805456 
L 55.681112 100.077776 
L 57.800209 98.062169 
L 60.449079 95.187343 
L 63.09795 91.977049 
L 66.276595 87.75562 
L 69.45524 83.165341 
L 73.16366 77.378747 
L 76.872079 71.167742 
L 86.937788 53.940453 
L 89.586659 50.007994 
L 91.705756 47.212237 
L 93.824852 44.719591 
L 95.943949 42.507565 
L 98.59282 40.102892 
L 101.241691 38.05762 
L 103.890562 36.327823 
L 106.539432 34.869576 
L 109.188303 33.638952 
L 112.366948 32.400818 
L 116.605142 31.030549 
L 121.373109 29.731699 
L 126.141077 28.653106 
L 131.438819 27.686279 
L 137.266334 26.869557 
L 142.034302 26.366515 
L 142.034302 26.366515 
" clip-path="url(#p2727dfcc6a)" style="fill: none; stroke-dasharray: 5.55,2.4; stroke-dashoffset: 0; stroke: #ab275e; stroke-width: 1.5"/>
   </g>
   <g id="line2d_14">
    <path d="M 36.609242 17.932138 
L 53.562015 18.146968 
L 55.681112 18.45528 
L 57.800209 19.011935 
L 59.389531 19.639286 
L 61.508628 20.76581 
L 63.627724 22.178629 
L 65.746821 23.893512 
L 67.336144 25.452828 
L 68.925466 27.309862 
L 70.514789 29.521839 
L 72.104111 32.145985 
L 73.693434 35.239525 
L 75.282756 38.859686 
L 76.872079 43.060446 
L 78.991175 49.482199 
L 81.640046 58.356225 
L 86.937788 76.37422 
L 89.056885 82.729137 
L 90.646207 86.87475 
L 92.23553 90.473741 
L 93.824852 93.575848 
L 95.414175 96.230965 
L 97.003497 98.488982 
L 98.59282 100.39979 
L 100.182142 102.013281 
L 102.301239 103.78834 
L 104.420336 105.232375 
L 106.539432 106.404255 
L 108.658529 107.34634 
L 111.3074 108.265307 
L 114.486045 109.097908 
L 119.254013 110.060549 
L 124.551754 110.881567 
L 130.37927 111.540339 
L 137.266334 112.075051 
L 142.034302 112.343583 
L 142.034302 112.343583 
" clip-path="url(#p2727dfcc6a)" style="fill: none; stroke: #cd4158; stroke-width: 1.5; stroke-linecap: square"/>
   </g>
   <g id="line2d_15">
    <path d="M 36.609242 105.483334 
L 44.555854 105.314061 
L 46.674951 104.973759 
L 48.794048 104.362187 
L 50.38337 103.679774 
L 51.972693 102.789234 
L 54.091789 101.302111 
L 56.210886 99.506445 
L 58.329983 97.439339 
L 60.978854 94.530269 
L 64.157499 90.657075 
L 67.336144 86.437506 
L 70.514789 81.884403 
L 73.693434 76.994317 
L 76.342305 72.54544 
L 78.991175 67.660945 
L 87.997336 50.563466 
L 90.116433 47.114449 
L 92.23553 44.072407 
L 94.354626 41.411948 
L 96.473723 39.101498 
L 98.59282 37.109479 
L 100.711917 35.404315 
L 102.831013 33.954427 
L 105.479884 32.452947 
L 108.128755 31.239326 
L 111.3074 30.076119 
L 115.015819 28.988523 
L 120.843335 27.552849 
L 126.141077 26.469894 
L 131.438819 25.609189 
L 136.73656 24.981156 
L 142.034302 24.596218 
L 142.034302 24.596218 
" clip-path="url(#p2727dfcc6a)" style="fill: none; stroke-dasharray: 5.55,2.4; stroke-dashoffset: 0; stroke: #cd4158; stroke-width: 1.5"/>
   </g>
   <g id="line2d_16">
    <path d="M 36.609242 17.908648 
L 39.787887 18.007218 
L 45.615403 17.896078 
L 49.853596 17.918514 
L 52.502467 18.116477 
L 55.151338 18.536575 
L 57.270434 19.077751 
L 59.389531 19.83851 
L 61.508628 20.85326 
L 63.627724 22.15683 
L 65.217047 23.360292 
L 66.80637 24.809364 
L 68.395692 26.553514 
L 69.985015 28.64221 
L 71.574337 31.12492 
L 73.16366 34.051112 
L 74.752982 37.470253 
L 76.342305 41.431765 
L 77.931627 45.950623 
L 80.050724 52.701332 
L 82.699595 61.984188 
L 89.056885 84.937099 
L 90.646207 89.609506 
L 92.23553 93.560404 
L 93.824852 96.865111 
L 95.414175 99.599239 
L 97.003497 101.838396 
L 98.59282 103.658195 
L 100.182142 105.134245 
L 101.771465 106.342158 
L 103.890562 107.65966 
L 106.009658 108.720817 
L 108.128755 109.565089 
L 110.777626 110.3741 
L 113.956271 111.082906 
L 118.724238 111.863473 
L 124.02198 112.511641 
L 130.37927 113.058206 
L 138.855657 113.536763 
L 142.034302 113.679993 
L 142.034302 113.679993 
" clip-path="url(#p2727dfcc6a)" style="fill: none; stroke: #e7624f; stroke-width: 1.5; stroke-linecap: square"/>
   </g>
   <g id="line2d_17">
    <path d="M 36.609242 105.426869 
L 40.847435 105.402344 
L 44.02608 105.300086 
L 46.145177 105.03355 
L 48.264273 104.509743 
L 49.853596 103.897225 
L 51.442918 103.067088 
L 53.032241 102.03022 
L 55.151338 100.358787 
L 57.270434 98.398171 
L 59.919305 95.608938 
L 63.09795 91.880855 
L 66.276595 87.840163 
L 69.45524 83.458243 
L 72.633885 78.675588 
L 75.81253 73.432688 
L 78.991175 67.693855 
L 82.699595 60.501336 
L 89.586659 46.883383 
L 91.705756 43.377831 
L 93.824852 40.353896 
L 95.943949 37.767557 
L 98.063046 35.574793 
L 100.182142 33.731583 
L 102.301239 32.193905 
L 104.420336 30.918749 
L 106.539432 29.868456 
L 109.188303 28.817136 
L 112.366948 27.846635 
L 116.605142 26.848212 
L 122.432658 25.72462 
L 128.260174 24.834451 
L 134.617464 24.103842 
L 140.974754 23.59653 
L 142.034302 23.531691 
L 142.034302 23.531691 
" clip-path="url(#p2727dfcc6a)" style="fill: none; stroke-dasharray: 5.55,2.4; stroke-dashoffset: 0; stroke: #e7624f; stroke-width: 1.5"/>
   </g>
   <g id="line2d_18">
    <path d="M 36.609242 17.929645 
L 42.436758 17.938108 
L 49.853596 17.962914 
L 53.032241 18.15784 
L 55.681112 18.546165 
L 57.800209 19.080431 
L 59.919305 19.871816 
L 61.508628 20.666493 
L 63.09795 21.658826 
L 64.687273 22.872213 
L 66.276595 24.332152 
L 67.865918 26.064546 
L 69.45524 28.095301 
L 71.044563 30.450322 
L 72.633885 33.155513 
L 74.223208 36.236779 
L 75.81253 39.720026 
L 77.401853 43.630971 
L 79.52095 49.552764 
L 81.640046 56.334172 
L 83.759143 64.031249 
L 85.87824 72.678402 
L 89.056885 85.867302 
L 90.646207 91.38446 
L 92.23553 95.937766 
L 93.824852 99.636644 
L 95.414175 102.591056 
L 97.003497 104.910963 
L 98.59282 106.706327 
L 100.182142 108.087108 
L 101.771465 109.16327 
L 103.890562 110.303742 
L 106.009658 111.209409 
L 108.658529 112.06726 
L 111.3074 112.684801 
L 115.015819 113.277005 
L 120.313561 113.86039 
L 126.670851 114.325234 
L 135.147238 114.702423 
L 142.034302 114.946579 
L 142.034302 114.946579 
" clip-path="url(#p2727dfcc6a)" style="fill: none; stroke: #f88646; stroke-width: 1.5; stroke-linecap: square"/>
   </g>
   <g id="line2d_19">
    <path d="M 36.609242 105.376164 
L 44.555854 105.210831 
L 46.674951 104.872829 
L 48.794048 104.264049 
L 50.38337 103.584043 
L 51.972693 102.69615 
L 54.091789 101.21284 
L 56.210886 99.421193 
L 58.329983 97.358185 
L 60.978854 94.454153 
L 64.157499 90.586701 
L 67.336144 86.379224 
L 71.044563 81.079353 
L 74.752982 75.396195 
L 78.461401 69.334729 
L 81.110272 64.534386 
L 83.759143 59.148459 
L 87.467562 50.960183 
L 90.116433 45.28798 
L 92.23553 41.263228 
L 93.824852 38.651192 
L 95.414175 36.434234 
L 97.003497 34.574984 
L 98.59282 33.020476 
L 100.182142 31.718595 
L 102.301239 30.288135 
L 104.420336 29.10793 
L 107.069207 27.910915 
L 109.718077 26.967641 
L 112.896723 26.087079 
L 117.134916 25.172691 
L 122.432658 24.253459 
L 128.260174 23.480548 
L 134.617464 22.879022 
L 141.504528 22.456674 
L 142.034302 22.432344 
L 142.034302 22.432344 
" clip-path="url(#p2727dfcc6a)" style="fill: none; stroke-dasharray: 5.55,2.4; stroke-dashoffset: 0; stroke: #f88646; stroke-width: 1.5"/>
   </g>
   <g id="line2d_20">
    <path d="M 36.609242 17.931679 
L 44.02608 17.924065 
L 49.853596 17.996758 
L 53.032241 18.204218 
L 55.681112 18.592002 
L 57.800209 19.114615 
L 59.919305 19.881267 
L 62.038402 20.942961 
L 63.627724 21.963602 
L 65.217047 23.202958 
L 66.80637 24.688025 
L 68.395692 26.445983 
L 69.985015 28.504017 
L 71.574337 30.889307 
L 73.16366 33.629037 
L 74.752982 36.750388 
L 76.342305 40.280544 
L 77.931627 44.246426 
L 80.050724 50.257345 
L 82.169821 57.151318 
L 84.288917 64.990178 
L 86.408014 73.767261 
L 89.586659 86.987921 
L 91.175981 92.703652 
L 92.765304 97.650128 
L 94.354626 101.820103 
L 95.943949 105.206328 
L 97.003497 107.024817 
L 98.063046 108.489606 
L 99.122594 109.609789 
L 100.182142 110.445434 
L 101.771465 111.328361 
L 103.890562 112.178199 
L 106.539432 112.997689 
L 109.188303 113.599658 
L 112.366948 114.105645 
L 117.134916 114.601691 
L 123.492206 115.040516 
L 131.968593 115.37901 
L 142.034302 115.630418 
L 142.034302 115.630418 
" clip-path="url(#p2727dfcc6a)" style="fill: none; stroke: #ffad40; stroke-width: 1.5; stroke-linecap: square"/>
   </g>
   <g id="line2d_21">
    <path d="M 36.609242 105.347904 
L 45.085628 105.120481 
L 47.204725 104.720924 
L 48.794048 104.232006 
L 50.38337 103.544321 
L 51.972693 102.645454 
L 54.091789 101.146382 
L 56.210886 99.342966 
L 58.859757 96.725835 
L 61.508628 93.783443 
L 64.687273 89.936196 
L 67.865918 85.78855 
L 71.044563 81.314506 
L 74.223208 76.485283 
L 77.401853 71.271356 
L 80.580498 65.613364 
L 83.229369 60.488177 
L 85.87824 54.931749 
L 92.23553 41.301909 
L 94.354626 37.370278 
L 95.943949 34.789738 
L 97.533272 32.597101 
L 99.122594 30.849592 
L 100.711917 29.503219 
L 102.301239 28.443682 
L 104.420336 27.305908 
L 106.539432 26.40823 
L 109.188303 25.559136 
L 112.366948 24.831327 
L 117.134916 24.039314 
L 125.081529 22.946143 
L 131.968593 22.218046 
L 138.325883 21.759218 
L 142.034302 21.597643 
L 142.034302 21.597643 
" clip-path="url(#p2727dfcc6a)" style="fill: none; stroke-dasharray: 5.55,2.4; stroke-dashoffset: 0; stroke: #ffad40; stroke-width: 1.5"/>
   </g>
   <g id="line2d_22">
    <path d="M 36.609242 17.933082 
L 43.496306 17.913819 
L 49.853596 17.962926 
L 53.032241 18.164723 
L 55.681112 18.556607 
L 57.800209 19.09182 
L 59.919305 19.882091 
L 61.508628 20.674375 
L 63.09795 21.662817 
L 64.687273 22.868078 
L 66.276595 24.304834 
L 67.865918 25.986591 
L 69.45524 27.92686 
L 71.044563 30.13915 
L 73.16366 33.535362 
L 75.282756 37.471203 
L 77.401853 41.989861 
L 78.991175 45.88316 
L 80.580498 50.371467 
L 82.169821 55.571597 
L 83.759143 61.483602 
L 85.87824 70.41394 
L 91.175981 93.905655 
L 92.765304 99.731853 
L 93.824852 102.983604 
L 94.884401 105.651568 
L 95.943949 107.785807 
L 97.003497 109.456724 
L 98.063046 110.734719 
L 99.122594 111.689719 
L 100.182142 112.389498 
L 101.771465 113.107552 
L 104.420336 113.916021 
L 107.069207 114.49777 
L 110.247852 114.966878 
L 114.486045 115.336148 
L 122.432658 115.739924 
L 132.498367 116.022147 
L 142.034302 116.173346 
L 142.034302 116.173346 
" clip-path="url(#p2727dfcc6a)" style="fill: none; stroke: #ffd547; stroke-width: 1.5; stroke-linecap: square"/>
   </g>
   <g id="line2d_23">
    <path d="M 36.609242 105.32692 
L 45.085628 105.104487 
L 47.204725 104.711678 
L 48.794048 104.227586 
L 50.38337 103.543905 
L 51.972693 102.647713 
L 54.091789 101.149401 
L 56.210886 99.342624 
L 58.329983 97.269128 
L 60.978854 94.365781 
L 64.157499 90.531477 
L 67.865918 85.682066 
L 71.574337 80.461333 
L 75.81253 74.076988 
L 78.991175 68.971012 
L 81.640046 64.287856 
L 83.759143 60.095106 
L 85.87824 55.384523 
L 89.056885 47.611292 
L 92.23553 39.980804 
L 93.824852 36.613865 
L 95.414175 33.731355 
L 97.003497 31.354872 
L 98.59282 29.483262 
L 100.182142 28.070526 
L 101.771465 26.995775 
L 103.890562 25.879687 
L 106.009658 25.007923 
L 108.658529 24.197856 
L 111.3074 23.624979 
L 115.015819 23.071456 
L 122.432658 22.245687 
L 130.37927 21.581018 
L 139.385431 21.062124 
L 142.034302 20.950307 
L 142.034302 20.950307 
" clip-path="url(#p2727dfcc6a)" style="fill: none; stroke-dasharray: 5.55,2.4; stroke-dashoffset: 0; stroke: #ffd547; stroke-width: 1.5"/>
   </g>
   <g id="line2d_24">
    <path d="M 95.667231 106.811361 
" clip-path="url(#p2727dfcc6a)" style="fill: none; stroke: #000000; stroke-width: 1.5; stroke-linecap: square"/>
    <defs>
     <path id="m4049a2ff63" d="M 0 -1 
L -1 1 
L 1 1 
z
" style="stroke: #000000; stroke-linejoin: miter"/>
    </defs>
    <g clip-path="url(#p2727dfcc6a)">
     <use xlink:href="#m4049a2ff63" x="95.667231" y="106.811361" style="stroke: #000000; stroke-linejoin: miter"/>
    </g>
   </g>
   <g id="patch_3">
    <path d="M 33.906035 121.088267 
L 33.906035 12.96 
" style="fill: none; stroke: #000000; stroke-width: 1.2; stroke-linejoin: miter; stroke-linecap: square"/>
   </g>
   <g id="patch_4">
    <path d="M 142.034302 121.088267 
L 142.034302 12.96 
" style="fill: none; stroke: #000000; stroke-width: 1.2; stroke-linejoin: miter; stroke-linecap: square"/>
   </g>
   <g id="patch_5">
    <path d="M 33.906035 121.088267 
L 142.034302 121.088267 
" style="fill: none; stroke: #000000; stroke-width: 1.2; stroke-linejoin: miter; stroke-linecap: square"/>
   </g>
   <g id="patch_6">
    <path d="M 33.906035 12.96 
L 142.034302 12.96 
" style="fill: none; stroke: #000000; stroke-width: 1.2; stroke-linejoin: miter; stroke-linecap: square"/>
   </g>
  </g>
  <g id="axes_2">
   <g id="patch_7">
    <path d="M 166.967873 121.088267 
L 275.09614 121.088267 
L 275.09614 12.96 
L 166.967873 12.96 
z
" style="fill: #ffffff"/>
   </g>
   <g id="matplotlib.axis_3">
    <g id="xtick_5">
     <g id="line2d_25">
      <g>
       <use xlink:href="#me2ecf42a8e" x="171.882795" y="121.088267" style="stroke: #000000; stroke-width: 0.8"/>
      </g>
     </g>
     <g id="text_9">
      <!-- 1.5 -->
      <g transform="translate(164.403974 136.390447)scale(0.12 -0.12)">
       <use xlink:href="#CMR17-31" transform="scale(0.996264)"/>
       <use xlink:href="#CMR17-2e" transform="translate(45.690477 0)scale(0.996264)"/>
       <use xlink:href="#CMR17-35" transform="translate(70.561536 0)scale(0.996264)"/>
      </g>
     </g>
    </g>
    <g id="xtick_6">
     <g id="line2d_26">
      <g>
       <use xlink:href="#me2ecf42a8e" x="221.032007" y="121.088267" style="stroke: #000000; stroke-width: 0.8"/>
      </g>
     </g>
     <g id="text_10">
      <!-- 2 -->
      <g transform="translate(218.105512 136.390447)scale(0.12 -0.12)">
       <use xlink:href="#CMR17-32" transform="scale(0.996264)"/>
      </g>
     </g>
    </g>
    <g id="xtick_7">
     <g id="line2d_27">
      <g>
       <use xlink:href="#me2ecf42a8e" x="270.181219" y="121.088267" style="stroke: #000000; stroke-width: 0.8"/>
      </g>
     </g>
     <g id="text_11">
      <!-- 2.5 -->
      <g transform="translate(262.702398 136.390447)scale(0.12 -0.12)">
       <use xlink:href="#CMR17-32" transform="scale(0.996264)"/>
       <use xlink:href="#CMR17-2e" transform="translate(45.690477 0)scale(0.996264)"/>
       <use xlink:href="#CMR17-35" transform="translate(70.561536 0)scale(0.996264)"/>
      </g>
     </g>
    </g>
    <g id="text_12">
     <!-- T -->
     <g transform="translate(216.804847 152.017222)scale(0.12 -0.12)">
      <use xlink:href="#CMR17-54" transform="scale(0.996264)"/>
     </g>
    </g>
   </g>
   <g id="matplotlib.axis_4">
    <g id="ytick_4">
     <g id="line2d_28">
      <defs>
       <path id="m5ecdf97f92" d="M 0 0 
L 3.5 0 
" style="stroke: #000000; stroke-width: 0.8"/>
      </defs>
      <g>
       <use xlink:href="#m5ecdf97f92" x="275.09614" y="116.52693" style="stroke: #000000; stroke-width: 0.8"/>
      </g>
     </g>
     <g id="text_13">
      <!-- $\mathdefault{1.0}$ -->
      <g transform="translate(282.09614 120.67802)scale(0.12 -0.12)">
       <defs>
        <path id="CMMI12-3a" d="M 1178 307 
C 1178 492 1024 620 870 620 
C 685 620 557 467 557 313 
C 557 128 710 0 864 0 
C 1050 0 1178 153 1178 307 
z
" transform="scale(0.015625)"/>
       </defs>
       <use xlink:href="#CMR17-31" transform="scale(0.996264)"/>
       <use xlink:href="#CMMI12-3a" transform="translate(45.690477 0)scale(0.996264)"/>
       <use xlink:href="#CMR17-30" transform="translate(72.787654 0)scale(0.996264)"/>
      </g>
     </g>
    </g>
    <g id="ytick_5">
     <g id="line2d_29">
      <g>
       <use xlink:href="#m5ecdf97f92" x="275.09614" y="84.682011" style="stroke: #000000; stroke-width: 0.8"/>
      </g>
     </g>
     <g id="text_14">
      <!-- $\mathdefault{1.5}$ -->
      <g transform="translate(282.09614 88.833101)scale(0.12 -0.12)">
       <use xlink:href="#CMR17-31" transform="scale(0.996264)"/>
       <use xlink:href="#CMMI12-3a" transform="translate(45.690477 0)scale(0.996264)"/>
       <use xlink:href="#CMR17-35" transform="translate(72.787654 0)scale(0.996264)"/>
      </g>
     </g>
    </g>
    <g id="ytick_6">
     <g id="line2d_30">
      <g>
       <use xlink:href="#m5ecdf97f92" x="275.09614" y="52.837092" style="stroke: #000000; stroke-width: 0.8"/>
      </g>
     </g>
     <g id="text_15">
      <!-- $\mathdefault{2.0}$ -->
      <g transform="translate(282.09614 56.988182)scale(0.12 -0.12)">
       <use xlink:href="#CMR17-32" transform="scale(0.996264)"/>
       <use xlink:href="#CMMI12-3a" transform="translate(45.690477 0)scale(0.996264)"/>
       <use xlink:href="#CMR17-30" transform="translate(72.787654 0)scale(0.996264)"/>
      </g>
     </g>
    </g>
    <g id="ytick_7">
     <g id="line2d_31">
      <g>
       <use xlink:href="#m5ecdf97f92" x="275.09614" y="20.992173" style="stroke: #000000; stroke-width: 0.8"/>
      </g>
     </g>
     <g id="text_16">
      <!-- $\mathdefault{2.5}$ -->
      <g transform="translate(282.09614 25.143262)scale(0.12 -0.12)">
       <use xlink:href="#CMR17-32" transform="scale(0.996264)"/>
       <use xlink:href="#CMMI12-3a" transform="translate(45.690477 0)scale(0.996264)"/>
       <use xlink:href="#CMR17-35" transform="translate(72.787654 0)scale(0.996264)"/>
      </g>
     </g>
    </g>
    <g id="text_17">
     <!-- B -->
     <g transform="translate(297.908948 75.326313)scale(0.12 -0.12)">
      <defs>
       <path id="CMR17-42" d="M 333 4352 
L 333 4185 
C 774 4185 845 4185 845 3897 
L 845 451 
C 845 166 774 166 333 166 
L 333 0 
L 2534 0 
C 3354 0 3885 578 3885 1155 
C 3885 1726 3360 2214 2675 2259 
C 3290 2380 3718 2790 3718 3276 
C 3718 3808 3194 4352 2368 4352 
L 333 4352 
z
M 1248 2304 
L 1248 3936 
C 1248 4153 1261 4185 1517 4185 
L 2336 4185 
C 2970 4185 3251 3673 3251 3276 
C 3251 2790 2861 2304 2170 2304 
L 1248 2304 
z
M 1517 166 
C 1261 166 1248 198 1248 413 
L 1248 2201 
L 2432 2201 
C 3091 2201 3411 1624 3411 1161 
C 3411 698 3046 166 2349 166 
L 1517 166 
z
" transform="scale(0.015625)"/>
      </defs>
      <use xlink:href="#CMR17-42" transform="scale(0.996264)"/>
     </g>
    </g>
   </g>
   <g id="line2d_32">
    <path d="M 171.882795 108.343135 
L 176.822414 106.975179 
L 182.255995 105.246143 
L 188.6775 102.967032 
L 197.074853 99.733862 
L 208.92994 94.91975 
L 221.278988 89.653192 
L 241.037465 81.135402 
L 249.92878 77.398068 
L 258.820095 73.569658 
L 264.253676 71.539555 
L 270.181219 69.466748 
L 270.181219 69.466748 
" clip-path="url(#pe68fd8379c)" style="fill: none; stroke: #55115c; stroke-width: 1.5; stroke-linecap: square"/>
   </g>
   <g id="line2d_33">
    <path d="M 171.882795 110.71425 
L 175.83449 109.632343 
L 180.280147 108.178489 
L 184.725805 106.492664 
L 189.665424 104.371026 
L 194.605043 102.013506 
L 200.038625 99.179512 
L 205.966168 95.840618 
L 212.881635 91.678802 
L 221.278988 86.339806 
L 233.628036 78.18027 
L 248.446894 68.431006 
L 256.844247 63.181701 
L 263.759714 59.12555 
L 269.687257 55.900088 
L 270.181219 55.643323 
L 270.181219 55.643323 
" clip-path="url(#pe68fd8379c)" style="fill: none; stroke: #821760; stroke-width: 1.5; stroke-linecap: square"/>
   </g>
   <g id="line2d_34">
    <path d="M 171.882795 112.639448 
L 175.340528 111.988095 
L 178.798262 111.117384 
L 182.255995 110.037592 
L 186.207691 108.560711 
L 190.159386 106.839509 
L 194.111082 104.88933 
L 198.556739 102.440778 
L 203.002396 99.743686 
L 207.942016 96.481986 
L 213.375597 92.606625 
L 219.30314 88.080945 
L 225.724645 82.889819 
L 235.603884 74.572451 
L 246.965008 65.057776 
L 253.386513 59.962471 
L 258.820095 55.932955 
L 263.265752 52.886926 
L 267.711409 50.113043 
L 270.181219 48.705487 
L 270.181219 48.705487 
" clip-path="url(#pe68fd8379c)" style="fill: none; stroke: #ab275e; stroke-width: 1.5; stroke-linecap: square"/>
   </g>
   <g id="line2d_35">
    <path d="M 171.882795 114.391912 
L 178.798262 113.405813 
L 183.243919 112.559601 
L 187.195614 111.581729 
L 190.653348 110.500323 
L 194.111082 109.164113 
L 197.074853 107.78415 
L 200.038625 106.171024 
L 203.496358 104.007403 
L 206.954092 101.559933 
L 210.411825 98.849044 
L 214.363521 95.454537 
L 218.315216 91.773153 
L 222.760874 87.327182 
L 228.194455 81.552041 
L 238.567655 70.08774 
L 245.483123 62.624361 
L 250.916704 57.105728 
L 256.844247 51.430693 
L 263.265752 45.612631 
L 270.181219 39.634067 
L 270.181219 39.634067 
" clip-path="url(#pe68fd8379c)" style="fill: none; stroke: #cd4158; stroke-width: 1.5; stroke-linecap: square"/>
   </g>
   <g id="line2d_36">
    <path d="M 171.882795 115.132489 
L 181.762033 114.055471 
L 186.207691 113.34352 
L 190.159386 112.480977 
L 193.61712 111.493193 
L 196.580891 110.437173 
L 199.544663 109.161438 
L 202.508434 107.654436 
L 205.472206 105.907558 
L 208.435978 103.912194 
L 211.399749 101.659733 
L 214.363521 99.141567 
L 217.327292 96.349085 
L 220.291064 93.273676 
L 223.748797 89.324811 
L 227.700493 84.411893 
L 232.640112 77.862052 
L 246.965008 58.560852 
L 251.410666 53.123794 
L 255.362361 48.643114 
L 259.314057 44.523698 
L 262.77179 41.237992 
L 266.229524 38.269843 
L 269.193295 35.992957 
L 270.181219 35.291043 
L 270.181219 35.291043 
" clip-path="url(#pe68fd8379c)" style="fill: none; stroke: #e7624f; stroke-width: 1.5; stroke-linecap: square"/>
   </g>
   <g id="line2d_37">
    <path d="M 171.882795 115.658441 
L 182.749957 115.05295 
L 188.183538 114.523211 
L 192.629196 113.883374 
L 196.580891 113.111397 
L 200.038625 112.236667 
L 203.002396 111.279797 
L 205.966168 110.075077 
L 208.435978 108.843072 
L 210.905787 107.370585 
L 213.375597 105.62654 
L 215.845407 103.579863 
L 218.315216 101.199478 
L 220.785026 98.454312 
L 223.254836 95.325384 
L 226.218607 91.131419 
L 229.676341 85.782326 
L 234.61596 77.644939 
L 244.989161 60.456464 
L 248.940856 54.372427 
L 252.892552 48.663257 
L 256.844247 43.315372 
L 260.795942 38.315074 
L 264.747638 33.648665 
L 268.699333 29.302447 
L 270.181219 27.752369 
L 270.181219 27.752369 
" clip-path="url(#pe68fd8379c)" style="fill: none; stroke: #f88646; stroke-width: 1.5; stroke-linecap: square"/>
   </g>
   <g id="line2d_38">
    <path d="M 171.882795 115.918349 
L 182.749957 115.528337 
L 190.159386 115.054639 
L 196.580891 114.427395 
L 201.026549 113.803319 
L 203.99032 113.196445 
L 206.954092 112.354622 
L 209.423901 111.422739 
L 211.893711 110.237895 
L 214.363521 108.759271 
L 216.339369 107.337419 
L 218.315216 105.680524 
L 220.291064 103.767686 
L 222.266912 101.579399 
L 224.736721 98.457338 
L 227.206531 94.929444 
L 229.676341 91.021704 
L 232.640112 85.867604 
L 235.603884 80.258448 
L 240.049541 71.293159 
L 247.45897 56.296196 
L 251.410666 48.894746 
L 254.868399 42.904073 
L 257.832171 38.182929 
L 260.795942 33.887938 
L 263.265752 30.66456 
L 265.735562 27.790502 
L 268.205371 25.290026 
L 270.181219 23.574931 
L 270.181219 23.574931 
" clip-path="url(#pe68fd8379c)" style="fill: none; stroke: #ffad40; stroke-width: 1.5; stroke-linecap: square"/>
   </g>
   <g id="line2d_39">
    <path d="M 171.882795 116.173346 
L 194.605043 115.398121 
L 200.532587 114.873926 
L 207.448054 114.016351 
L 212.387673 113.210296 
L 214.857483 112.542476 
L 216.83333 111.759329 
L 218.809178 110.680388 
L 220.291064 109.635667 
L 221.77295 108.357686 
L 223.254836 106.838338 
L 225.230683 104.457878 
L 227.206531 101.699943 
L 229.182379 98.594915 
L 231.652188 94.271822 
L 234.121998 89.513217 
L 237.08577 83.311571 
L 240.543503 75.528499 
L 244.989161 64.905484 
L 252.892552 45.759727 
L 255.856323 39.291076 
L 257.832171 35.418467 
L 259.808019 31.968726 
L 262.277828 28.163007 
L 264.747638 24.762408 
L 269.193295 19.123199 
L 270.181219 17.874921 
L 270.181219 17.874921 
" clip-path="url(#pe68fd8379c)" style="fill: none; stroke: #ffd547; stroke-width: 1.5; stroke-linecap: square"/>
   </g>
   <g id="line2d_40">
    <path d="M 249.021323 53.685586 
" clip-path="url(#pe68fd8379c)" style="fill: none; stroke: #000000; stroke-width: 1.5; stroke-linecap: square"/>
    <g clip-path="url(#pe68fd8379c)">
     <use xlink:href="#m4049a2ff63" x="249.021323" y="53.685586" style="stroke: #000000; stroke-linejoin: miter"/>
    </g>
   </g>
   <g id="patch_8">
    <path d="M 166.967873 121.088267 
L 166.967873 12.96 
" style="fill: none; stroke: #000000; stroke-width: 1.2; stroke-linejoin: miter; stroke-linecap: square"/>
   </g>
   <g id="patch_9">
    <path d="M 275.09614 121.088267 
L 275.09614 12.96 
" style="fill: none; stroke: #000000; stroke-width: 1.2; stroke-linejoin: miter; stroke-linecap: square"/>
   </g>
   <g id="patch_10">
    <path d="M 166.967873 121.088267 
L 275.09614 121.088267 
" style="fill: none; stroke: #000000; stroke-width: 1.2; stroke-linejoin: miter; stroke-linecap: square"/>
   </g>
   <g id="patch_11">
    <path d="M 166.967873 12.96 
L 275.09614 12.96 
" style="fill: none; stroke: #000000; stroke-width: 1.2; stroke-linejoin: miter; stroke-linecap: square"/>
   </g>
  </g>
 </g>
 <defs>
  <clipPath id="p2727dfcc6a">
   <rect x="33.906035" y="12.96" width="108.128267" height="108.128267"/>
  </clipPath>
  <clipPath id="pe68fd8379c">
   <rect x="166.967873" y="12.96" width="108.128267" height="108.128267"/>
  </clipPath>
 </defs>
</svg>
