<?xml version="1.0" encoding="utf-8" standalone="no"?>
<!DOCTYPE svg PUBLIC "-//W3C//DTD SVG 1.1//EN"
  "http://www.w3.org/Graphics/SVG/1.1/DTD/svg11.dtd">
<svg xmlns:xlink="http://www.w3.org/1999/xlink" width="486pt" height="242.64pt" viewBox="0 0 486 242.64" xmlns="http://www.w3.org/2000/svg" version="1.1">
 <metadata>
  <rdf:RDF xmlns:dc="http://purl.org/dc/elements/1.1/" xmlns:cc="http://creativecommons.org/ns#" xmlns:rdf="http://www.w3.org/1999/02/22-rdf-syntax-ns#">
   <cc:Work>
    <dc:type rdf:resource="http://purl.org/dc/dcmitype/StillImage"/>
    <dc:date>2022-07-21T12:58:29.665210</dc:date>
    <dc:format>image/svg+xml</dc:format>
    <dc:creator>
     <cc:Agent>
      <dc:title>Matplotlib v3.5.1, https://matplotlib.org/</dc:title>
     </cc:Agent>
    </dc:creator>
   </cc:Work>
  </rdf:RDF>
 </metadata>
 <defs>
  <style type="text/css">*{stroke-linejoin: round; stroke-linecap: butt}</style>
 </defs>
 <g id="figure_1">
  <g id="patch_1">
   <path d="M 0 242.64 
L 486 242.64 
L 486 0 
L 0 0 
z
" style="fill: #ffffff"/>
  </g>
  <g id="axes_1">
   <g id="LineCollection_1">
    <path d="M 26.036757 188.974054 
L 26.036757 156.757838 
" clip-path="url(#p1b3cd7f266)" style="fill: none; stroke: #000000; stroke-width: 1.5; stroke-linecap: round"/>
    <path d="M 26.036757 188.974054 
L 56.028649 205.082162 
" clip-path="url(#p1b3cd7f266)" style="fill: none; stroke: #000000; stroke-width: 1.5; stroke-linecap: round"/>
    <path d="M 86.020541 188.974054 
L 56.028649 205.082162 
" clip-path="url(#p1b3cd7f266)" style="fill: none; stroke: #000000; stroke-width: 1.5; stroke-linecap: round"/>
    <path d="M 86.020541 188.974054 
L 86.020541 156.757838 
" clip-path="url(#p1b3cd7f266)" style="fill: none; stroke: #000000; stroke-width: 1.5; stroke-linecap: round"/>
    <path d="M 56.028649 140.64973 
L 86.020541 156.757838 
" clip-path="url(#p1b3cd7f266)" style="fill: none; stroke: #000000; stroke-width: 1.5; stroke-linecap: round"/>
    <path d="M 56.028649 140.64973 
L 26.036757 156.757838 
" clip-path="url(#p1b3cd7f266)" style="fill: none; stroke: #000000; stroke-width: 1.5; stroke-linecap: round"/>
    <g id="LineCollection_2">
     <path d="M 60.527432 133.401081 
L 60.527432 101.184865 
" clip-path="url(#p1b3cd7f266)" style="fill: none; stroke: #000000; stroke-width: 1.5; stroke-linecap: round"/>
     <path d="M 60.527432 133.401081 
L 90.519324 149.509189 
" clip-path="url(#p1b3cd7f266)" style="fill: none; stroke: #000000; stroke-width: 1.5; stroke-linecap: round"/>
     <path d="M 120.511216 133.401081 
L 90.519324 149.509189 
" clip-path="url(#p1b3cd7f266)" style="fill: none; stroke: #000000; stroke-width: 1.5; stroke-linecap: round"/>
     <path d="M 120.511216 133.401081 
L 120.511216 101.184865 
" clip-path="url(#p1b3cd7f266)" style="fill: none; stroke: #000000; stroke-width: 1.5; stroke-linecap: round"/>
     <path d="M 90.519324 85.076757 
L 120.511216 101.184865 
" clip-path="url(#p1b3cd7f266)" style="fill: none; stroke: #000000; stroke-width: 1.5; stroke-linecap: round"/>
     <path d="M 90.519324 85.076757 
L 60.527432 101.184865 
" clip-path="url(#p1b3cd7f266)" style="fill: none; stroke: #000000; stroke-width: 1.5; stroke-linecap: round"/>
     <g id="LineCollection_3">
      <path d="M 95.018108 77.828108 
L 95.018108 45.611892 
" clip-path="url(#p1b3cd7f266)" style="fill: none; stroke: #000000; stroke-width: 1.5; stroke-linecap: round"/>
      <path d="M 95.018108 77.828108 
L 125.01 93.936216 
" clip-path="url(#p1b3cd7f266)" style="fill: none; stroke: #000000; stroke-width: 1.5; stroke-linecap: round"/>
      <path d="M 155.001892 77.828108 
L 125.01 93.936216 
" clip-path="url(#p1b3cd7f266)" style="fill: none; stroke: #000000; stroke-width: 1.5; stroke-linecap: round"/>
      <path d="M 155.001892 77.828108 
L 155.001892 45.611892 
" clip-path="url(#p1b3cd7f266)" style="fill: none; stroke: #000000; stroke-width: 1.5; stroke-linecap: round"/>
      <path d="M 125.01 29.503784 
L 155.001892 45.611892 
" clip-path="url(#p1b3cd7f266)" style="fill: none; stroke: #000000; stroke-width: 1.5; stroke-linecap: round"/>
      <path d="M 125.01 29.503784 
L 95.018108 45.611892 
" clip-path="url(#p1b3cd7f266)" style="fill: none; stroke: #000000; stroke-width: 1.5; stroke-linecap: round"/>
      <g id="LineCollection_4">
       <path d="M 95.018108 188.974054 
L 95.018108 156.757838 
" clip-path="url(#p1b3cd7f266)" style="fill: none; stroke: #000000; stroke-width: 1.5; stroke-linecap: round"/>
       <path d="M 95.018108 188.974054 
L 125.01 205.082162 
" clip-path="url(#p1b3cd7f266)" style="fill: none; stroke: #000000; stroke-width: 1.5; stroke-linecap: round"/>
       <path d="M 155.001892 188.974054 
L 125.01 205.082162 
" clip-path="url(#p1b3cd7f266)" style="fill: none; stroke: #000000; stroke-width: 1.5; stroke-linecap: round"/>
       <path d="M 155.001892 188.974054 
L 155.001892 156.757838 
" clip-path="url(#p1b3cd7f266)" style="fill: none; stroke: #000000; stroke-width: 1.5; stroke-linecap: round"/>
       <path d="M 125.01 140.64973 
L 155.001892 156.757838 
" clip-path="url(#p1b3cd7f266)" style="fill: none; stroke: #000000; stroke-width: 1.5; stroke-linecap: round"/>
       <path d="M 125.01 140.64973 
L 95.018108 156.757838 
" clip-path="url(#p1b3cd7f266)" style="fill: none; stroke: #000000; stroke-width: 1.5; stroke-linecap: round"/>
       <g id="LineCollection_5">
        <path d="M 163.999459 188.974054 
L 163.999459 156.757838 
" clip-path="url(#p1b3cd7f266)" style="fill: none; stroke: #000000; stroke-width: 1.5; stroke-linecap: round"/>
        <path d="M 163.999459 188.974054 
L 193.991351 205.082162 
" clip-path="url(#p1b3cd7f266)" style="fill: none; stroke: #000000; stroke-width: 1.5; stroke-linecap: round"/>
        <path d="M 223.983243 188.974054 
L 193.991351 205.082162 
" clip-path="url(#p1b3cd7f266)" style="fill: none; stroke: #000000; stroke-width: 1.5; stroke-linecap: round"/>
        <path d="M 223.983243 188.974054 
L 223.983243 156.757838 
" clip-path="url(#p1b3cd7f266)" style="fill: none; stroke: #000000; stroke-width: 1.5; stroke-linecap: round"/>
        <path d="M 193.991351 140.64973 
L 223.983243 156.757838 
" clip-path="url(#p1b3cd7f266)" style="fill: none; stroke: #000000; stroke-width: 1.5; stroke-linecap: round"/>
        <path d="M 193.991351 140.64973 
L 163.999459 156.757838 
" clip-path="url(#p1b3cd7f266)" style="fill: none; stroke: #000000; stroke-width: 1.5; stroke-linecap: round"/>
        <g id="LineCollection_6">
         <path d="M 129.508784 133.401081 
L 129.508784 101.184865 
" clip-path="url(#p1b3cd7f266)" style="fill: none; stroke: #000000; stroke-width: 1.5; stroke-linecap: round"/>
         <path d="M 129.508784 133.401081 
L 159.500676 149.509189 
" clip-path="url(#p1b3cd7f266)" style="fill: none; stroke: #000000; stroke-width: 1.5; stroke-linecap: round"/>
         <path d="M 189.492568 133.401081 
L 159.500676 149.509189 
" clip-path="url(#p1b3cd7f266)" style="fill: none; stroke: #000000; stroke-width: 1.5; stroke-linecap: round"/>
         <path d="M 189.492568 133.401081 
L 189.492568 101.184865 
" clip-path="url(#p1b3cd7f266)" style="fill: none; stroke: #000000; stroke-width: 1.5; stroke-linecap: round"/>
         <path d="M 159.500676 85.076757 
L 189.492568 101.184865 
" clip-path="url(#p1b3cd7f266)" style="fill: none; stroke: #000000; stroke-width: 1.5; stroke-linecap: round"/>
         <path d="M 159.500676 85.076757 
L 129.508784 101.184865 
" clip-path="url(#p1b3cd7f266)" style="fill: none; stroke: #000000; stroke-width: 1.5; stroke-linecap: round"/>
         <g id="text_1">
          <!-- $\phi_0$ -->
          <g transform="translate(49.946499 176.103804)scale(0.13 -0.13)">
           <defs>
            <path id="CMMI12-1e" d="M 2752 4358 
C 2752 4416 2707 4416 2688 4416 
C 2630 4416 2624 4403 2598 4294 
L 2253 2924 
C 2234 2841 2227 2835 2221 2828 
C 2214 2816 2170 2809 2157 2809 
C 1107 2720 301 1863 301 1071 
C 301 387 832 -32 1498 -71 
C 1446 -266 1402 -467 1350 -662 
C 1261 -995 1210 -1204 1210 -1229 
C 1210 -1242 1210 -1280 1274 -1280 
C 1293 -1280 1318 -1280 1331 -1255 
C 1344 -1242 1382 -1089 1408 -1008 
L 1645 -71 
C 2739 -13 3571 875 3571 1673 
C 3571 2313 3085 2771 2374 2816 
L 2752 4358 
z
M 2336 2688 
C 2758 2662 3181 2428 3181 1806 
C 3181 1090 2675 140 1677 64 
L 2336 2688 
z
M 1530 57 
C 1216 76 691 241 691 938 
C 691 1737 1274 2624 2195 2681 
L 1530 57 
z
" transform="scale(0.015625)"/>
            <path id="CMR17-30" d="M 2688 2038 
C 2688 2430 2682 3099 2413 3613 
C 2176 4063 1798 4224 1466 4224 
C 1158 4224 768 4082 525 3620 
C 269 3137 243 2539 243 2038 
C 243 1671 250 1112 448 623 
C 723 -39 1216 -128 1466 -128 
C 1760 -128 2208 -7 2470 604 
C 2662 1048 2688 1568 2688 2038 
z
M 1466 -26 
C 1056 -26 813 328 723 816 
C 653 1196 653 1749 653 2109 
C 653 2604 653 3015 736 3407 
C 858 3954 1216 4121 1466 4121 
C 1728 4121 2067 3947 2189 3420 
C 2272 3054 2278 2623 2278 2109 
C 2278 1691 2278 1176 2202 797 
C 2067 96 1690 -26 1466 -26 
z
" transform="scale(0.015625)"/>
           </defs>
           <use xlink:href="#CMMI12-1e" transform="scale(0.996264)"/>
           <use xlink:href="#CMR17-30" transform="translate(57.73418 -14.943915)scale(0.697382)"/>
          </g>
         </g>
         <g id="text_2">
          <!-- $\phi_1$ -->
          <g transform="translate(84.437175 120.530831)scale(0.13 -0.13)">
           <defs>
            <path id="CMR17-31" d="M 1702 4083 
C 1702 4217 1696 4224 1606 4224 
C 1357 3927 979 3833 621 3820 
C 602 3820 570 3820 563 3808 
C 557 3795 557 3782 557 3648 
C 755 3648 1088 3686 1344 3839 
L 1344 467 
C 1344 243 1331 166 781 166 
L 589 166 
L 589 0 
C 896 6 1216 12 1523 12 
C 1830 12 2150 6 2458 0 
L 2458 166 
L 2266 166 
C 1715 166 1702 236 1702 467 
L 1702 4083 
z
" transform="scale(0.015625)"/>
           </defs>
           <use xlink:href="#CMMI12-1e" transform="scale(0.996264)"/>
           <use xlink:href="#CMR17-31" transform="translate(57.73418 -14.943915)scale(0.697382)"/>
          </g>
         </g>
         <g id="text_3">
          <!-- $\phi_2$ -->
          <g transform="translate(118.92785 64.957858)scale(0.13 -0.13)">
           <defs>
            <path id="CMR17-32" d="M 2669 990 
L 2554 990 
C 2490 537 2438 460 2413 422 
C 2381 371 1920 371 1830 371 
L 602 371 
C 832 620 1280 1073 1824 1596 
C 2214 1966 2669 2400 2669 3033 
C 2669 3788 2067 4224 1395 4224 
C 691 4224 262 3603 262 3027 
C 262 2777 448 2745 525 2745 
C 589 2745 781 2783 781 3007 
C 781 3206 614 3264 525 3264 
C 486 3264 448 3257 422 3244 
C 544 3788 915 4057 1306 4057 
C 1862 4057 2227 3616 2227 3033 
C 2227 2477 1901 1998 1536 1583 
L 262 147 
L 262 0 
L 2515 0 
L 2669 990 
z
" transform="scale(0.015625)"/>
           </defs>
           <use xlink:href="#CMMI12-1e" transform="scale(0.996264)"/>
           <use xlink:href="#CMR17-32" transform="translate(57.73418 -14.943915)scale(0.697382)"/>
          </g>
         </g>
         <g id="text_4">
          <!-- $\phi_3$ -->
          <g transform="translate(118.92785 176.103804)scale(0.13 -0.13)">
           <defs>
            <path id="CMR17-33" d="M 1414 2176 
C 1984 2176 2234 1673 2234 1094 
C 2234 322 1824 25 1453 25 
C 1114 25 563 193 390 691 
C 422 678 454 678 486 678 
C 640 678 755 780 755 947 
C 755 1132 614 1216 486 1216 
C 378 1216 211 1164 211 927 
C 211 335 787 -128 1466 -128 
C 2176 -128 2720 432 2720 1087 
C 2720 1718 2208 2176 1600 2246 
C 2086 2347 2554 2776 2554 3353 
C 2554 3856 2048 4224 1472 4224 
C 890 4224 378 3862 378 3347 
C 378 3123 544 3084 627 3084 
C 762 3084 877 3167 877 3334 
C 877 3500 762 3584 627 3584 
C 602 3584 570 3584 544 3571 
C 730 3999 1235 4076 1459 4076 
C 1683 4076 2106 3966 2106 3347 
C 2106 3167 2080 2851 1862 2574 
C 1670 2329 1453 2316 1242 2297 
C 1210 2297 1062 2284 1037 2284 
C 992 2278 966 2272 966 2227 
C 966 2182 973 2176 1101 2176 
L 1414 2176 
z
" transform="scale(0.015625)"/>
           </defs>
           <use xlink:href="#CMMI12-1e" transform="scale(0.996264)"/>
           <use xlink:href="#CMR17-33" transform="translate(57.73418 -14.943915)scale(0.697382)"/>
          </g>
         </g>
         <g id="text_5">
          <!-- $\phi_4$ -->
          <g transform="translate(187.909202 176.103804)scale(0.13 -0.13)">
           <defs>
            <path id="CMR17-34" d="M 2150 4147 
C 2150 4281 2144 4288 2029 4288 
L 128 1254 
L 128 1088 
L 1779 1088 
L 1779 460 
C 1779 230 1766 166 1318 166 
L 1197 166 
L 1197 0 
C 1402 12 1747 12 1965 12 
C 2182 12 2528 12 2733 0 
L 2733 166 
L 2611 166 
C 2163 166 2150 230 2150 460 
L 2150 1088 
L 2803 1088 
L 2803 1254 
L 2150 1254 
L 2150 4147 
z
M 1798 3723 
L 1798 1254 
L 256 1254 
L 1798 3723 
z
" transform="scale(0.015625)"/>
           </defs>
           <use xlink:href="#CMMI12-1e" transform="scale(0.996264)"/>
           <use xlink:href="#CMR17-34" transform="translate(57.73418 -14.943915)scale(0.697382)"/>
          </g>
         </g>
         <g id="text_6">
          <!-- $\phi_5$ -->
          <g transform="translate(153.418526 120.530831)scale(0.13 -0.13)">
           <defs>
            <path id="CMR17-35" d="M 730 3750 
C 794 3724 1056 3641 1325 3641 
C 1920 3641 2246 3961 2432 4140 
C 2432 4191 2432 4224 2394 4224 
C 2387 4224 2374 4224 2323 4198 
C 2099 4102 1837 4032 1517 4032 
C 1325 4032 1037 4055 723 4191 
C 653 4224 640 4224 634 4224 
C 602 4224 595 4217 595 4090 
L 595 2231 
C 595 2113 595 2080 659 2080 
C 691 2080 704 2093 736 2139 
C 941 2435 1222 2560 1542 2560 
C 1766 2560 2246 2415 2246 1293 
C 2246 1087 2246 716 2054 422 
C 1894 159 1645 25 1370 25 
C 947 25 518 319 403 812 
C 429 806 480 793 506 793 
C 589 793 749 838 749 1036 
C 749 1209 627 1280 506 1280 
C 358 1280 262 1190 262 1011 
C 262 454 704 -128 1382 -128 
C 2042 -128 2669 441 2669 1267 
C 2669 2054 2170 2662 1549 2662 
C 1222 2662 947 2540 730 2304 
L 730 3750 
z
" transform="scale(0.015625)"/>
           </defs>
           <use xlink:href="#CMMI12-1e" transform="scale(0.996264)"/>
           <use xlink:href="#CMR17-35" transform="translate(57.73418 -14.943915)scale(0.697382)"/>
          </g>
         </g>
         <g id="patch_2">
          <path d="M 26.036757 175.765405 
L 23.037568 169.966486 
L 26.036757 169.966486 
L 26.036757 169.966486 
L 26.036757 169.966486 
L 26.036757 169.966486 
L 29.035946 169.966486 
z
" clip-path="url(#p1b3cd7f266)" style="stroke: #000000; stroke-linejoin: miter"/>
         </g>
         <g id="patch_3">
          <path d="M 43.654466 198.43621 
L 36.954405 198.15459 
L 38.41094 195.620006 
L 38.41094 195.620006 
L 38.41094 195.620006 
L 38.41094 195.620006 
L 39.867475 193.085423 
z
" clip-path="url(#p1b3cd7f266)" style="stroke: #000000; stroke-linejoin: miter"/>
         </g>
         <g id="patch_4">
          <path d="M 73.646358 195.620006 
L 69.859367 200.970794 
L 68.402832 198.43621 
L 68.402832 198.43621 
L 68.402832 198.43621 
L 68.402832 198.43621 
L 66.946297 195.901627 
z
" clip-path="url(#p1b3cd7f266)" style="stroke: #000000; stroke-linejoin: miter"/>
         </g>
         <g id="patch_5">
          <path d="M 86.020541 169.966486 
L 89.01973 175.765405 
L 86.020541 175.765405 
L 86.020541 175.765405 
L 86.020541 175.765405 
L 86.020541 175.765405 
L 83.021351 175.765405 
z
" clip-path="url(#p1b3cd7f266)" style="stroke: #000000; stroke-linejoin: miter"/>
         </g>
         <g id="patch_6">
          <path d="M 68.402832 147.295682 
L 75.102893 147.577302 
L 73.646358 150.111886 
L 73.646358 150.111886 
L 73.646358 150.111886 
L 73.646358 150.111886 
L 72.189823 152.646469 
z
" clip-path="url(#p1b3cd7f266)" style="stroke: #000000; stroke-linejoin: miter"/>
         </g>
         <g id="patch_7">
          <path d="M 38.41094 150.111886 
L 42.197931 144.761098 
L 43.654466 147.295682 
L 43.654466 147.295682 
L 43.654466 147.295682 
L 43.654466 147.295682 
L 45.111001 149.830265 
z
" clip-path="url(#p1b3cd7f266)" style="stroke: #000000; stroke-linejoin: miter"/>
         </g>
         <g id="patch_8">
          <path d="M 60.527432 120.192432 
L 57.528243 114.393514 
L 60.527432 114.393514 
L 60.527432 114.393514 
L 60.527432 114.393514 
L 60.527432 114.393514 
L 63.526622 114.393514 
z
" clip-path="url(#p1b3cd7f266)" style="stroke: #000000; stroke-linejoin: miter"/>
         </g>
         <g id="patch_9">
          <path d="M 78.145141 142.863237 
L 71.44508 142.581617 
L 72.901615 140.047033 
L 72.901615 140.047033 
L 72.901615 140.047033 
L 72.901615 140.047033 
L 74.35815 137.51245 
z
" clip-path="url(#p1b3cd7f266)" style="stroke: #000000; stroke-linejoin: miter"/>
         </g>
         <g id="patch_10">
          <path d="M 108.137033 140.047033 
L 104.350042 145.397821 
L 102.893507 142.863237 
L 102.893507 142.863237 
L 102.893507 142.863237 
L 102.893507 142.863237 
L 101.436972 140.328654 
z
" clip-path="url(#p1b3cd7f266)" style="stroke: #000000; stroke-linejoin: miter"/>
         </g>
         <g id="patch_11">
          <path d="M 120.511216 114.393514 
L 123.510405 120.192432 
L 120.511216 120.192432 
L 120.511216 120.192432 
L 120.511216 120.192432 
L 120.511216 120.192432 
L 117.512027 120.192432 
z
" clip-path="url(#p1b3cd7f266)" style="stroke: #000000; stroke-linejoin: miter"/>
         </g>
         <g id="patch_12">
          <path d="M 102.893507 91.722709 
L 109.593568 92.004329 
L 108.137033 94.538913 
L 108.137033 94.538913 
L 108.137033 94.538913 
L 108.137033 94.538913 
L 106.680498 97.073496 
z
" clip-path="url(#p1b3cd7f266)" style="stroke: #000000; stroke-linejoin: miter"/>
         </g>
         <g id="patch_13">
          <path d="M 72.901615 94.538913 
L 76.688606 89.188125 
L 78.145141 91.722709 
L 78.145141 91.722709 
L 78.145141 91.722709 
L 78.145141 91.722709 
L 79.601676 94.257292 
z
" clip-path="url(#p1b3cd7f266)" style="stroke: #000000; stroke-linejoin: miter"/>
         </g>
         <g id="patch_14">
          <path d="M 95.018108 64.619459 
L 92.018919 58.820541 
L 95.018108 58.820541 
L 95.018108 58.820541 
L 95.018108 58.820541 
L 95.018108 58.820541 
L 98.017297 58.820541 
z
" clip-path="url(#p1b3cd7f266)" style="stroke: #000000; stroke-linejoin: miter"/>
         </g>
         <g id="patch_15">
          <path d="M 112.635817 87.290264 
L 105.935756 87.008644 
L 107.392291 84.47406 
L 107.392291 84.47406 
L 107.392291 84.47406 
L 107.392291 84.47406 
L 108.848826 81.939477 
z
" clip-path="url(#p1b3cd7f266)" style="stroke: #000000; stroke-linejoin: miter"/>
         </g>
         <g id="patch_16">
          <path d="M 142.627709 84.47406 
L 138.840718 89.824848 
L 137.384183 87.290264 
L 137.384183 87.290264 
L 137.384183 87.290264 
L 137.384183 87.290264 
L 135.927648 84.755681 
z
" clip-path="url(#p1b3cd7f266)" style="stroke: #000000; stroke-linejoin: miter"/>
         </g>
         <g id="patch_17">
          <path d="M 155.001892 58.820541 
L 158.001081 64.619459 
L 155.001892 64.619459 
L 155.001892 64.619459 
L 155.001892 64.619459 
L 155.001892 64.619459 
L 152.002703 64.619459 
z
" clip-path="url(#p1b3cd7f266)" style="stroke: #000000; stroke-linejoin: miter"/>
         </g>
         <g id="patch_18">
          <path d="M 137.384183 36.149736 
L 144.084244 36.431356 
L 142.627709 38.96594 
L 142.627709 38.96594 
L 142.627709 38.96594 
L 142.627709 38.96594 
L 141.171174 41.500523 
z
" clip-path="url(#p1b3cd7f266)" style="stroke: #000000; stroke-linejoin: miter"/>
         </g>
         <g id="patch_19">
          <path d="M 107.392291 38.96594 
L 111.179282 33.615152 
L 112.635817 36.149736 
L 112.635817 36.149736 
L 112.635817 36.149736 
L 112.635817 36.149736 
L 114.092352 38.684319 
z
" clip-path="url(#p1b3cd7f266)" style="stroke: #000000; stroke-linejoin: miter"/>
         </g>
         <g id="patch_20">
          <path d="M 95.018108 175.765405 
L 92.018919 169.966486 
L 95.018108 169.966486 
L 95.018108 169.966486 
L 95.018108 169.966486 
L 95.018108 169.966486 
L 98.017297 169.966486 
z
" clip-path="url(#p1b3cd7f266)" style="stroke: #000000; stroke-linejoin: miter"/>
         </g>
         <g id="patch_21">
          <path d="M 112.635817 198.43621 
L 105.935756 198.15459 
L 107.392291 195.620006 
L 107.392291 195.620006 
L 107.392291 195.620006 
L 107.392291 195.620006 
L 108.848826 193.085423 
z
" clip-path="url(#p1b3cd7f266)" style="stroke: #000000; stroke-linejoin: miter"/>
         </g>
         <g id="patch_22">
          <path d="M 142.627709 195.620006 
L 138.840718 200.970794 
L 137.384183 198.43621 
L 137.384183 198.43621 
L 137.384183 198.43621 
L 137.384183 198.43621 
L 135.927648 195.901627 
z
" clip-path="url(#p1b3cd7f266)" style="stroke: #000000; stroke-linejoin: miter"/>
         </g>
         <g id="patch_23">
          <path d="M 155.001892 169.966486 
L 158.001081 175.765405 
L 155.001892 175.765405 
L 155.001892 175.765405 
L 155.001892 175.765405 
L 155.001892 175.765405 
L 152.002703 175.765405 
z
" clip-path="url(#p1b3cd7f266)" style="stroke: #000000; stroke-linejoin: miter"/>
         </g>
         <g id="patch_24">
          <path d="M 137.384183 147.295682 
L 144.084244 147.577302 
L 142.627709 150.111886 
L 142.627709 150.111886 
L 142.627709 150.111886 
L 142.627709 150.111886 
L 141.171174 152.646469 
z
" clip-path="url(#p1b3cd7f266)" style="stroke: #000000; stroke-linejoin: miter"/>
         </g>
         <g id="patch_25">
          <path d="M 107.392291 150.111886 
L 111.179282 144.761098 
L 112.635817 147.295682 
L 112.635817 147.295682 
L 112.635817 147.295682 
L 112.635817 147.295682 
L 114.092352 149.830265 
z
" clip-path="url(#p1b3cd7f266)" style="stroke: #000000; stroke-linejoin: miter"/>
         </g>
         <g id="patch_26">
          <path d="M 163.999459 175.765405 
L 161.00027 169.966486 
L 163.999459 169.966486 
L 163.999459 169.966486 
L 163.999459 169.966486 
L 163.999459 169.966486 
L 166.998649 169.966486 
z
" clip-path="url(#p1b3cd7f266)" style="stroke: #000000; stroke-linejoin: miter"/>
         </g>
         <g id="patch_27">
          <path d="M 181.617168 198.43621 
L 174.917107 198.15459 
L 176.373642 195.620006 
L 176.373642 195.620006 
L 176.373642 195.620006 
L 176.373642 195.620006 
L 177.830177 193.085423 
z
" clip-path="url(#p1b3cd7f266)" style="stroke: #000000; stroke-linejoin: miter"/>
         </g>
         <g id="patch_28">
          <path d="M 211.60906 195.620006 
L 207.822069 200.970794 
L 206.365534 198.43621 
L 206.365534 198.43621 
L 206.365534 198.43621 
L 206.365534 198.43621 
L 204.908999 195.901627 
z
" clip-path="url(#p1b3cd7f266)" style="stroke: #000000; stroke-linejoin: miter"/>
         </g>
         <g id="patch_29">
          <path d="M 223.983243 169.966486 
L 226.982432 175.765405 
L 223.983243 175.765405 
L 223.983243 175.765405 
L 223.983243 175.765405 
L 223.983243 175.765405 
L 220.984054 175.765405 
z
" clip-path="url(#p1b3cd7f266)" style="stroke: #000000; stroke-linejoin: miter"/>
         </g>
         <g id="patch_30">
          <path d="M 206.365534 147.295682 
L 213.065595 147.577302 
L 211.60906 150.111886 
L 211.60906 150.111886 
L 211.60906 150.111886 
L 211.60906 150.111886 
L 210.152525 152.646469 
z
" clip-path="url(#p1b3cd7f266)" style="stroke: #000000; stroke-linejoin: miter"/>
         </g>
         <g id="patch_31">
          <path d="M 176.373642 150.111886 
L 180.160633 144.761098 
L 181.617168 147.295682 
L 181.617168 147.295682 
L 181.617168 147.295682 
L 181.617168 147.295682 
L 183.073703 149.830265 
z
" clip-path="url(#p1b3cd7f266)" style="stroke: #000000; stroke-linejoin: miter"/>
         </g>
         <g id="patch_32">
          <path d="M 129.508784 120.192432 
L 126.509595 114.393514 
L 129.508784 114.393514 
L 129.508784 114.393514 
L 129.508784 114.393514 
L 129.508784 114.393514 
L 132.507973 114.393514 
z
" clip-path="url(#p1b3cd7f266)" style="stroke: #000000; stroke-linejoin: miter"/>
         </g>
         <g id="patch_33">
          <path d="M 147.126493 142.863237 
L 140.426432 142.581617 
L 141.882967 140.047033 
L 141.882967 140.047033 
L 141.882967 140.047033 
L 141.882967 140.047033 
L 143.339502 137.51245 
z
" clip-path="url(#p1b3cd7f266)" style="stroke: #000000; stroke-linejoin: miter"/>
         </g>
         <g id="patch_34">
          <path d="M 177.118385 140.047033 
L 173.331394 145.397821 
L 171.874859 142.863237 
L 171.874859 142.863237 
L 171.874859 142.863237 
L 171.874859 142.863237 
L 170.418324 140.328654 
z
" clip-path="url(#p1b3cd7f266)" style="stroke: #000000; stroke-linejoin: miter"/>
         </g>
         <g id="patch_35">
          <path d="M 189.492568 114.393514 
L 192.491757 120.192432 
L 189.492568 120.192432 
L 189.492568 120.192432 
L 189.492568 120.192432 
L 189.492568 120.192432 
L 186.493378 120.192432 
z
" clip-path="url(#p1b3cd7f266)" style="stroke: #000000; stroke-linejoin: miter"/>
         </g>
         <g id="patch_36">
          <path d="M 171.874859 91.722709 
L 178.57492 92.004329 
L 177.118385 94.538913 
L 177.118385 94.538913 
L 177.118385 94.538913 
L 177.118385 94.538913 
L 175.66185 97.073496 
z
" clip-path="url(#p1b3cd7f266)" style="stroke: #000000; stroke-linejoin: miter"/>
         </g>
         <g id="patch_37">
          <path d="M 141.882967 94.538913 
L 145.669958 89.188125 
L 147.126493 91.722709 
L 147.126493 91.722709 
L 147.126493 91.722709 
L 147.126493 91.722709 
L 148.583028 94.257292 
z
" clip-path="url(#p1b3cd7f266)" style="stroke: #000000; stroke-linejoin: miter"/>
         </g>
        </g>
        <g id="axes_2">
         <g id="LineCollection_7">
          <path d="M 330.998108 87.492973 
L 360.99 103.601081 
" clip-path="url(#p2c60e40888)" style="fill: none; stroke: #000000; stroke-opacity: 0.2; stroke-width: 1.5; stroke-linecap: round"/>
          <path d="M 390.981892 87.492973 
L 420.973784 103.601081 
" clip-path="url(#p2c60e40888)" style="fill: none; stroke: #000000; stroke-opacity: 0.2; stroke-width: 1.5; stroke-linecap: round"/>
          <path d="M 330.998108 184.141622 
L 301.006216 200.24973 
" clip-path="url(#p2c60e40888)" style="fill: none; stroke: #000000; stroke-opacity: 0.2; stroke-width: 1.5; stroke-linecap: round"/>
          <path d="M 390.981892 184.141622 
L 360.99 200.24973 
" clip-path="url(#p2c60e40888)" style="fill: none; stroke: #000000; stroke-opacity: 0.2; stroke-width: 1.5; stroke-linecap: round"/>
          <path d="M 450.965676 184.141622 
L 420.973784 200.24973 
" clip-path="url(#p2c60e40888)" style="fill: none; stroke: #000000; stroke-opacity: 0.2; stroke-width: 1.5; stroke-linecap: round"/>
          <path d="M 330.998108 87.492973 
L 301.006216 103.601081 
" clip-path="url(#p2c60e40888)" style="fill: none; stroke: #000000; stroke-opacity: 0.2; stroke-width: 1.5; stroke-linecap: round"/>
          <path d="M 271.014324 184.141622 
L 271.014324 151.925405 
" clip-path="url(#p2c60e40888)" style="fill: none; stroke: #000000; stroke-opacity: 0.2; stroke-width: 1.5; stroke-linecap: round"/>
          <path d="M 301.006216 135.817297 
L 271.014324 151.925405 
" clip-path="url(#p2c60e40888)" style="fill: none; stroke: #000000; stroke-opacity: 0.2; stroke-width: 1.5; stroke-linecap: round"/>
          <path d="M 301.006216 135.817297 
L 301.006216 103.601081 
" clip-path="url(#p2c60e40888)" style="fill: none; stroke: #000000; stroke-opacity: 0.2; stroke-width: 1.5; stroke-linecap: round"/>
          <path d="M 330.998108 184.141622 
L 330.998108 151.925405 
" clip-path="url(#p2c60e40888)" style="fill: none; stroke: #000000; stroke-opacity: 0.2; stroke-width: 1.5; stroke-linecap: round"/>
          <path d="M 360.99 135.817297 
L 330.998108 151.925405 
" clip-path="url(#p2c60e40888)" style="fill: none; stroke: #000000; stroke-opacity: 0.2; stroke-width: 1.5; stroke-linecap: round"/>
          <path d="M 360.99 135.817297 
L 360.99 103.601081 
" clip-path="url(#p2c60e40888)" style="fill: none; stroke: #000000; stroke-opacity: 0.2; stroke-width: 1.5; stroke-linecap: round"/>
          <path d="M 390.981892 87.492973 
L 360.99 103.601081 
" clip-path="url(#p2c60e40888)" style="fill: none; stroke: #000000; stroke-opacity: 0.2; stroke-width: 1.5; stroke-linecap: round"/>
          <path d="M 390.981892 184.141622 
L 390.981892 151.925405 
" clip-path="url(#p2c60e40888)" style="fill: none; stroke: #000000; stroke-opacity: 0.2; stroke-width: 1.5; stroke-linecap: round"/>
          <path d="M 420.973784 135.817297 
L 390.981892 151.925405 
" clip-path="url(#p2c60e40888)" style="fill: none; stroke: #000000; stroke-opacity: 0.2; stroke-width: 1.5; stroke-linecap: round"/>
          <path d="M 450.965676 184.141622 
L 450.965676 151.925405 
" clip-path="url(#p2c60e40888)" style="fill: none; stroke: #000000; stroke-opacity: 0.2; stroke-width: 1.5; stroke-linecap: round"/>
          <path d="M 420.973784 135.817297 
L 420.973784 103.601081 
" clip-path="url(#p2c60e40888)" style="fill: none; stroke: #000000; stroke-opacity: 0.2; stroke-width: 1.5; stroke-linecap: round"/>
          <path d="M 330.998108 87.492973 
L 330.998108 55.276757 
" clip-path="url(#p2c60e40888)" style="fill: none; stroke: #000000; stroke-opacity: 0.2; stroke-width: 1.5; stroke-linecap: round"/>
          <path d="M 360.99 39.168649 
L 330.998108 55.276757 
" clip-path="url(#p2c60e40888)" style="fill: none; stroke: #000000; stroke-opacity: 0.2; stroke-width: 1.5; stroke-linecap: round"/>
          <path d="M 390.981892 87.492973 
L 390.981892 55.276757 
" clip-path="url(#p2c60e40888)" style="fill: none; stroke: #000000; stroke-opacity: 0.2; stroke-width: 1.5; stroke-linecap: round"/>
          <path d="M 301.006216 135.817297 
L 330.998108 151.925405 
" clip-path="url(#p2c60e40888)" style="fill: none; stroke: #000000; stroke-opacity: 0.2; stroke-width: 1.5; stroke-linecap: round"/>
          <path d="M 360.99 135.817297 
L 390.981892 151.925405 
" clip-path="url(#p2c60e40888)" style="fill: none; stroke: #000000; stroke-opacity: 0.2; stroke-width: 1.5; stroke-linecap: round"/>
          <path d="M 420.973784 135.817297 
L 450.965676 151.925405 
" clip-path="url(#p2c60e40888)" style="fill: none; stroke: #000000; stroke-opacity: 0.2; stroke-width: 1.5; stroke-linecap: round"/>
          <path d="M 360.99 39.168649 
L 390.981892 55.276757 
" clip-path="url(#p2c60e40888)" style="fill: none; stroke: #000000; stroke-opacity: 0.2; stroke-width: 1.5; stroke-linecap: round"/>
          <path d="M 271.014324 184.141622 
L 301.006216 200.24973 
" clip-path="url(#p2c60e40888)" style="fill: none; stroke: #000000; stroke-opacity: 0.2; stroke-width: 1.5; stroke-linecap: round"/>
          <path d="M 330.998108 184.141622 
L 360.99 200.24973 
" clip-path="url(#p2c60e40888)" style="fill: none; stroke: #000000; stroke-opacity: 0.2; stroke-width: 1.5; stroke-linecap: round"/>
          <path d="M 390.981892 184.141622 
L 420.973784 200.24973 
" clip-path="url(#p2c60e40888)" style="fill: none; stroke: #000000; stroke-opacity: 0.2; stroke-width: 1.5; stroke-linecap: round"/>
          <g id="LineCollection_8">
           <path d="M 390.981892 87.492973 
L 420.973784 103.601081 
" clip-path="url(#p2c60e40888)" style="fill: none; stroke: #000000; stroke-width: 1.5; stroke-linecap: round"/>
           <path d="M 420.973784 135.817297 
L 420.973784 103.601081 
" clip-path="url(#p2c60e40888)" style="fill: none; stroke: #000000; stroke-width: 1.5; stroke-linecap: round"/>
           <path d="M 420.973784 135.817297 
L 450.965676 151.925405 
" clip-path="url(#p2c60e40888)" style="fill: none; stroke: #000000; stroke-width: 1.5; stroke-linecap: round"/>
           <path d="M 450.965676 184.141622 
L 450.965676 151.925405 
" clip-path="url(#p2c60e40888)" style="fill: none; stroke: #000000; stroke-width: 1.5; stroke-linecap: round"/>
           <path d="M 450.965676 184.141622 
L 420.973784 200.24973 
" clip-path="url(#p2c60e40888)" style="fill: none; stroke: #000000; stroke-width: 1.5; stroke-linecap: round"/>
           <path d="M 390.981892 184.141622 
L 420.973784 200.24973 
" clip-path="url(#p2c60e40888)" style="fill: none; stroke: #000000; stroke-width: 1.5; stroke-linecap: round"/>
           <path d="M 390.981892 184.141622 
L 360.99 200.24973 
" clip-path="url(#p2c60e40888)" style="fill: none; stroke: #000000; stroke-width: 1.5; stroke-linecap: round"/>
           <path d="M 330.998108 184.141622 
L 360.99 200.24973 
" clip-path="url(#p2c60e40888)" style="fill: none; stroke: #000000; stroke-width: 1.5; stroke-linecap: round"/>
           <path d="M 330.998108 184.141622 
L 301.006216 200.24973 
" clip-path="url(#p2c60e40888)" style="fill: none; stroke: #000000; stroke-width: 1.5; stroke-linecap: round"/>
           <path d="M 271.014324 184.141622 
L 301.006216 200.24973 
" clip-path="url(#p2c60e40888)" style="fill: none; stroke: #000000; stroke-width: 1.5; stroke-linecap: round"/>
           <path d="M 271.014324 184.141622 
L 271.014324 151.925405 
" clip-path="url(#p2c60e40888)" style="fill: none; stroke: #000000; stroke-width: 1.5; stroke-linecap: round"/>
           <path d="M 301.006216 135.817297 
L 271.014324 151.925405 
" clip-path="url(#p2c60e40888)" style="fill: none; stroke: #000000; stroke-width: 1.5; stroke-linecap: round"/>
           <path d="M 301.006216 135.817297 
L 301.006216 103.601081 
" clip-path="url(#p2c60e40888)" style="fill: none; stroke: #000000; stroke-width: 1.5; stroke-linecap: round"/>
           <path d="M 330.998108 87.492973 
L 301.006216 103.601081 
" clip-path="url(#p2c60e40888)" style="fill: none; stroke: #000000; stroke-width: 1.5; stroke-linecap: round"/>
           <path d="M 330.998108 87.492973 
L 330.998108 55.276757 
" clip-path="url(#p2c60e40888)" style="fill: none; stroke: #000000; stroke-width: 1.5; stroke-linecap: round"/>
           <path d="M 360.99 39.168649 
L 330.998108 55.276757 
" clip-path="url(#p2c60e40888)" style="fill: none; stroke: #000000; stroke-width: 1.5; stroke-linecap: round"/>
           <path d="M 360.99 39.168649 
L 390.981892 55.276757 
" clip-path="url(#p2c60e40888)" style="fill: none; stroke: #000000; stroke-width: 1.5; stroke-linecap: round"/>
           <path d="M 390.981892 87.492973 
L 390.981892 55.276757 
" clip-path="url(#p2c60e40888)" style="fill: none; stroke: #000000; stroke-width: 1.5; stroke-linecap: round"/>
           <g id="text_7">
            <!-- $\phi_0 \phi_1 ...\phi_5$ -->
            <g transform="translate(336.96147 139.055155)scale(0.13 -0.13)">
             <defs>
              <path id="CMMI12-3a" d="M 1178 307 
C 1178 492 1024 620 870 620 
C 685 620 557 467 557 313 
C 557 128 710 0 864 0 
C 1050 0 1178 153 1178 307 
z
" transform="scale(0.015625)"/>
             </defs>
             <use xlink:href="#CMMI12-1e" transform="scale(0.996264)"/>
             <use xlink:href="#CMR17-30" transform="translate(57.73418 -14.943915)scale(0.697382)"/>
             <use xlink:href="#CMMI12-1e" transform="translate(90.215494 0)scale(0.996264)"/>
             <use xlink:href="#CMR17-31" transform="translate(147.949675 -14.943915)scale(0.697382)"/>
             <use xlink:href="#CMMI12-3a" transform="translate(180.430989 0)scale(0.996264)"/>
             <use xlink:href="#CMMI12-3a" transform="translate(207.528166 0)scale(0.996264)"/>
             <use xlink:href="#CMMI12-3a" transform="translate(234.625343 0)scale(0.996264)"/>
             <use xlink:href="#CMMI12-1e" transform="translate(261.72252 0)scale(0.996264)"/>
             <use xlink:href="#CMR17-35" transform="translate(319.4567 -14.943915)scale(0.697382)"/>
            </g>
           </g>
           <g id="patch_38">
            <path d="M 408.599601 96.955129 
L 401.89954 96.673509 
L 403.356075 94.138925 
L 403.356075 94.138925 
L 403.356075 94.138925 
L 403.356075 94.138925 
L 404.81261 91.604341 
z
" clip-path="url(#p2c60e40888)" style="stroke: #000000; stroke-linejoin: miter"/>
           </g>
           <g id="patch_39">
            <path d="M 420.973784 122.608649 
L 417.974595 116.80973 
L 420.973784 116.80973 
L 420.973784 116.80973 
L 420.973784 116.80973 
L 420.973784 116.80973 
L 423.972973 116.80973 
z
" clip-path="url(#p2c60e40888)" style="stroke: #000000; stroke-linejoin: miter"/>
           </g>
           <g id="patch_40">
            <path d="M 438.591493 145.279453 
L 431.891432 144.997833 
L 433.347967 142.463249 
L 433.347967 142.463249 
L 433.347967 142.463249 
L 433.347967 142.463249 
L 434.804502 139.928666 
z
" clip-path="url(#p2c60e40888)" style="stroke: #000000; stroke-linejoin: miter"/>
           </g>
           <g id="patch_41">
            <path d="M 450.965676 170.932973 
L 447.966486 165.134054 
L 450.965676 165.134054 
L 450.965676 165.134054 
L 450.965676 165.134054 
L 450.965676 165.134054 
L 453.964865 165.134054 
z
" clip-path="url(#p2c60e40888)" style="stroke: #000000; stroke-linejoin: miter"/>
           </g>
           <g id="patch_42">
            <path d="M 433.347967 193.603778 
L 437.134958 188.25299 
L 438.591493 190.787574 
L 438.591493 190.787574 
L 438.591493 190.787574 
L 438.591493 190.787574 
L 440.048028 193.322157 
z
" clip-path="url(#p2c60e40888)" style="stroke: #000000; stroke-linejoin: miter"/>
           </g>
           <g id="patch_43">
            <path d="M 403.356075 190.787574 
L 410.056136 191.069194 
L 408.599601 193.603778 
L 408.599601 193.603778 
L 408.599601 193.603778 
L 408.599601 193.603778 
L 407.143066 196.138361 
z
" clip-path="url(#p2c60e40888)" style="stroke: #000000; stroke-linejoin: miter"/>
           </g>
           <g id="patch_44">
            <path d="M 373.364183 193.603778 
L 377.151174 188.25299 
L 378.607709 190.787574 
L 378.607709 190.787574 
L 378.607709 190.787574 
L 378.607709 190.787574 
L 380.064244 193.322157 
z
" clip-path="url(#p2c60e40888)" style="stroke: #000000; stroke-linejoin: miter"/>
           </g>
           <g id="patch_45">
            <path d="M 343.372291 190.787574 
L 350.072352 191.069194 
L 348.615817 193.603778 
L 348.615817 193.603778 
L 348.615817 193.603778 
L 348.615817 193.603778 
L 347.159282 196.138361 
z
" clip-path="url(#p2c60e40888)" style="stroke: #000000; stroke-linejoin: miter"/>
           </g>
           <g id="patch_46">
            <path d="M 313.380399 193.603778 
L 317.16739 188.25299 
L 318.623925 190.787574 
L 318.623925 190.787574 
L 318.623925 190.787574 
L 318.623925 190.787574 
L 320.08046 193.322157 
z
" clip-path="url(#p2c60e40888)" style="stroke: #000000; stroke-linejoin: miter"/>
           </g>
           <g id="patch_47">
            <path d="M 283.388507 190.787574 
L 290.088568 191.069194 
L 288.632033 193.603778 
L 288.632033 193.603778 
L 288.632033 193.603778 
L 288.632033 193.603778 
L 287.175498 196.138361 
z
" clip-path="url(#p2c60e40888)" style="stroke: #000000; stroke-linejoin: miter"/>
           </g>
           <g id="patch_48">
            <path d="M 271.014324 165.134054 
L 274.013514 170.932973 
L 271.014324 170.932973 
L 271.014324 170.932973 
L 271.014324 170.932973 
L 271.014324 170.932973 
L 268.015135 170.932973 
z
" clip-path="url(#p2c60e40888)" style="stroke: #000000; stroke-linejoin: miter"/>
           </g>
           <g id="patch_49">
            <path d="M 288.632033 142.463249 
L 284.845042 147.814037 
L 283.388507 145.279453 
L 283.388507 145.279453 
L 283.388507 145.279453 
L 283.388507 145.279453 
L 281.931972 142.74487 
z
" clip-path="url(#p2c60e40888)" style="stroke: #000000; stroke-linejoin: miter"/>
           </g>
           <g id="patch_50">
            <path d="M 301.006216 116.80973 
L 304.005405 122.608649 
L 301.006216 122.608649 
L 301.006216 122.608649 
L 301.006216 122.608649 
L 301.006216 122.608649 
L 298.007027 122.608649 
z
" clip-path="url(#p2c60e40888)" style="stroke: #000000; stroke-linejoin: miter"/>
           </g>
           <g id="patch_51">
            <path d="M 318.623925 94.138925 
L 314.836934 99.489713 
L 313.380399 96.955129 
L 313.380399 96.955129 
L 313.380399 96.955129 
L 313.380399 96.955129 
L 311.923864 94.420545 
z
" clip-path="url(#p2c60e40888)" style="stroke: #000000; stroke-linejoin: miter"/>
           </g>
           <g id="patch_52">
            <path d="M 330.998108 68.485405 
L 333.997297 74.284324 
L 330.998108 74.284324 
L 330.998108 74.284324 
L 330.998108 74.284324 
L 330.998108 74.284324 
L 327.998919 74.284324 
z
" clip-path="url(#p2c60e40888)" style="stroke: #000000; stroke-linejoin: miter"/>
           </g>
           <g id="patch_53">
            <path d="M 348.615817 45.814601 
L 344.828826 51.165388 
L 343.372291 48.630805 
L 343.372291 48.630805 
L 343.372291 48.630805 
L 343.372291 48.630805 
L 341.915756 46.096221 
z
" clip-path="url(#p2c60e40888)" style="stroke: #000000; stroke-linejoin: miter"/>
           </g>
           <g id="patch_54">
            <path d="M 378.607709 48.630805 
L 371.907648 48.349184 
L 373.364183 45.814601 
L 373.364183 45.814601 
L 373.364183 45.814601 
L 373.364183 45.814601 
L 374.820718 43.280017 
z
" clip-path="url(#p2c60e40888)" style="stroke: #000000; stroke-linejoin: miter"/>
           </g>
           <g id="patch_55">
            <path d="M 390.981892 74.284324 
L 387.982703 68.485405 
L 390.981892 68.485405 
L 390.981892 68.485405 
L 390.981892 68.485405 
L 390.981892 68.485405 
L 393.981081 68.485405 
z
" clip-path="url(#p2c60e40888)" style="stroke: #000000; stroke-linejoin: miter"/>
           </g>
          </g>
         </g>
         <defs>
          <clipPath id="p1b3cd7f266">
           <rect x="14.04" y="14.04" width="221.94" height="214.56"/>
          </clipPath>
          <clipPath id="p2c60e40888">
           <rect x="250.02" y="14.04" width="221.94" height="214.56"/>
          </clipPath>
         </defs>
        </g>
       </g>
      </g>
     </g>
    </g>
   </g>
  </g>
 </g>
</svg>
