<?xml version="1.0" encoding="utf-8" standalone="no"?>
<!DOCTYPE svg PUBLIC "-//W3C//DTD SVG 1.1//EN"
  "http://www.w3.org/Graphics/SVG/1.1/DTD/svg11.dtd">
<svg xmlns:xlink="http://www.w3.org/1999/xlink" width="242.64pt" height="242.64pt" viewBox="0 0 242.64 242.64" xmlns="http://www.w3.org/2000/svg" version="1.1">
 <metadata>
  <rdf:RDF xmlns:dc="http://purl.org/dc/elements/1.1/" xmlns:cc="http://creativecommons.org/ns#" xmlns:rdf="http://www.w3.org/1999/02/22-rdf-syntax-ns#">
   <cc:Work>
    <dc:type rdf:resource="http://purl.org/dc/dcmitype/StillImage"/>
    <dc:date>2022-08-05T09:36:36.737179</dc:date>
    <dc:format>image/svg+xml</dc:format>
    <dc:creator>
     <cc:Agent>
      <dc:title>Matplotlib v3.5.1, https://matplotlib.org/</dc:title>
     </cc:Agent>
    </dc:creator>
   </cc:Work>
  </rdf:RDF>
 </metadata>
 <defs>
  <style type="text/css">*{stroke-linejoin: round; stroke-linecap: butt}</style>
 </defs>
 <g id="figure_1">
  <g id="patch_1">
   <path d="M 0 242.64 
L 242.64 242.64 
L 242.64 0 
L 0 0 
z
" style="fill: #ffffff"/>
  </g>
  <g id="axes_1">
   <g id="line2d_1">
    <path d="M 38.877545 207.4572 
L 43.376254 207.4572 
L 47.874962 207.4572 
L 52.37367 207.4572 
L 56.872378 207.4572 
L 61.371086 207.4572 
L 65.869794 207.4572 
L 70.368502 207.4572 
L 74.867211 207.4572 
L 79.365919 207.4572 
L 83.864627 207.4572 
L 88.363335 207.4572 
L 92.862043 207.4572 
L 97.360751 207.4572 
L 101.859459 207.4572 
L 106.358167 207.4572 
L 110.856876 207.4572 
L 115.355584 207.4572 
L 119.854292 207.4572 
L 124.353 207.4572 
" clip-path="url(#pde97bca02f)" style="fill: none; stroke: #000000; stroke-width: 1.5; stroke-linecap: square"/>
   </g>
   <g id="line2d_2">
    <path d="M 38.877545 207.4572 
L 43.376254 206.463937 
L 47.874962 205.470674 
L 52.37367 204.477411 
L 56.872378 203.484147 
L 61.371086 202.490884 
L 65.869794 201.497621 
L 70.368502 200.504358 
L 74.867211 199.511095 
L 79.365919 198.517832 
L 83.864627 197.524568 
L 88.363335 196.531305 
L 92.862043 195.538042 
L 97.360751 194.544779 
L 101.859459 193.551516 
L 106.358167 192.558253 
L 110.856876 191.564989 
L 115.355584 190.571726 
L 119.854292 189.578463 
L 124.353 188.5852 
" clip-path="url(#pde97bca02f)" style="fill: none; stroke: #000000; stroke-width: 1.5; stroke-linecap: square"/>
   </g>
   <g id="line2d_3">
    <path d="M 38.877545 207.4572 
L 43.376254 205.470674 
L 47.874962 203.484147 
L 52.37367 201.497621 
L 56.872378 199.511095 
L 61.371086 197.524568 
L 65.869794 195.538042 
L 70.368502 193.551516 
L 74.867211 191.564989 
L 79.365919 189.578463 
L 83.864627 187.591937 
L 88.363335 185.605411 
L 92.862043 183.618884 
L 97.360751 181.632358 
L 101.859459 179.645832 
L 106.358167 177.659305 
L 110.856876 175.672779 
L 115.355584 173.686253 
L 119.854292 171.699726 
L 124.353 169.7132 
" clip-path="url(#pde97bca02f)" style="fill: none; stroke: #000000; stroke-width: 1.5; stroke-linecap: square"/>
   </g>
   <g id="line2d_4">
    <path d="M 38.877545 207.4572 
L 43.376254 204.477411 
L 47.874962 201.497621 
L 52.37367 198.517832 
L 56.872378 195.538042 
L 61.371086 192.558253 
L 65.869794 189.578463 
L 70.368502 186.598674 
L 74.867211 183.618884 
L 79.365919 180.639095 
L 83.864627 177.659305 
L 88.363335 174.679516 
L 92.862043 171.699726 
L 97.360751 168.719937 
L 101.859459 165.740147 
L 106.358167 162.760358 
L 110.856876 159.780568 
L 115.355584 156.800779 
L 119.854292 153.820989 
L 124.353 150.8412 
" clip-path="url(#pde97bca02f)" style="fill: none; stroke: #000000; stroke-width: 1.5; stroke-linecap: square"/>
   </g>
   <g id="line2d_5">
    <path d="M 38.877545 207.4572 
L 42.626469 203.980779 
L 46.375392 200.504358 
L 50.124316 197.027937 
L 53.873239 193.551516 
L 57.622163 190.075095 
L 61.371086 186.598674 
L 65.12001 183.122253 
L 68.868933 179.645832 
L 72.617856 176.169411 
L 76.36678 172.692989 
L 80.115703 169.216568 
L 83.864627 165.740147 
L 87.61355 162.263726 
L 91.362474 158.787305 
L 95.111397 155.310884 
L 98.860321 151.834463 
L 102.609244 148.358042 
L 106.358167 144.881621 
L 110.107091 141.4052 
" clip-path="url(#pde97bca02f)" style="fill: none; stroke: #000000; stroke-width: 1.5; stroke-linecap: square"/>
   </g>
   <g id="line2d_6">
    <path d="M 38.877545 207.4572 
L 41.876684 203.484147 
L 44.875823 199.511095 
L 47.874962 195.538042 
L 50.8741 191.564989 
L 53.873239 187.591937 
L 56.872378 183.618884 
L 59.871517 179.645832 
L 62.870656 175.672779 
L 65.869794 171.699726 
L 68.868933 167.726674 
L 71.868072 163.753621 
L 74.867211 159.780568 
L 77.866349 155.807516 
L 80.865488 151.834463 
L 83.864627 147.861411 
L 86.863766 143.888358 
L 89.862904 139.915305 
L 92.862043 135.942253 
L 95.861182 131.9692 
" clip-path="url(#pde97bca02f)" style="fill: none; stroke: #000000; stroke-width: 1.5; stroke-linecap: square"/>
   </g>
   <g id="line2d_7">
    <path d="M 38.877545 207.4572 
L 41.1269 202.987516 
L 43.376254 198.517832 
L 45.625608 194.048147 
L 47.874962 189.578463 
L 50.124316 185.108779 
L 52.37367 180.639095 
L 54.623024 176.169411 
L 56.872378 171.699726 
L 59.121732 167.230042 
L 61.371086 162.760358 
L 63.62044 158.290674 
L 65.869794 153.820989 
L 68.119148 149.351305 
L 70.368502 144.881621 
L 72.617856 140.411937 
L 74.867211 135.942253 
L 77.116565 131.472568 
L 79.365919 127.002884 
L 81.615273 122.5332 
" clip-path="url(#pde97bca02f)" style="fill: none; stroke: #000000; stroke-width: 1.5; stroke-linecap: square"/>
   </g>
   <g id="line2d_8">
    <path d="M 124.353 37.6092 
L 122.103646 42.078884 
L 119.854292 46.548568 
L 117.604938 51.018253 
L 115.355584 55.487937 
L 113.10623 59.957621 
L 110.856876 64.427305 
L 108.607522 68.896989 
L 106.358167 73.366674 
L 104.108813 77.836358 
L 101.859459 82.306042 
L 99.610105 86.775726 
L 97.360751 91.245411 
L 95.111397 95.715095 
L 92.862043 100.184779 
L 90.612689 104.654463 
L 88.363335 109.124147 
L 86.113981 113.593832 
L 83.864627 118.063516 
L 81.615273 122.5332 
" clip-path="url(#pde97bca02f)" style="fill: none; stroke: #000000; stroke-width: 1.5; stroke-linecap: square"/>
   </g>
   <g id="line2d_9">
    <path d="M 124.353 37.6092 
L 122.853431 42.575516 
L 121.353861 47.541832 
L 119.854292 52.508147 
L 118.354722 57.474463 
L 116.855153 62.440779 
L 115.355584 67.407095 
L 113.856014 72.373411 
L 112.356445 77.339726 
L 110.856876 82.306042 
L 109.357306 87.272358 
L 107.857737 92.238674 
L 106.358167 97.204989 
L 104.858598 102.171305 
L 103.359029 107.137621 
L 101.859459 112.103937 
L 100.35989 117.070253 
L 98.860321 122.036568 
L 97.360751 127.002884 
L 95.861182 131.9692 
" clip-path="url(#pde97bca02f)" style="fill: none; stroke: #000000; stroke-width: 1.5; stroke-linecap: square"/>
   </g>
   <g id="line2d_10">
    <path d="M 124.353 37.6092 
L 123.603215 43.072147 
L 122.853431 48.535095 
L 122.103646 53.998042 
L 121.353861 59.460989 
L 120.604077 64.923937 
L 119.854292 70.386884 
L 119.104507 75.849832 
L 118.354722 81.312779 
L 117.604938 86.775726 
L 116.855153 92.238674 
L 116.105368 97.701621 
L 115.355584 103.164568 
L 114.605799 108.627516 
L 113.856014 114.090463 
L 113.10623 119.553411 
L 112.356445 125.016358 
L 111.60666 130.479305 
L 110.856876 135.942253 
L 110.107091 141.4052 
" clip-path="url(#pde97bca02f)" style="fill: none; stroke: #000000; stroke-width: 1.5; stroke-linecap: square"/>
   </g>
   <g id="line2d_11">
    <path d="M 124.353 37.6092 
L 124.353 43.568779 
L 124.353 49.528358 
L 124.353 55.487937 
L 124.353 61.447516 
L 124.353 67.407095 
L 124.353 73.366674 
L 124.353 79.326253 
L 124.353 85.285832 
L 124.353 91.245411 
L 124.353 97.204989 
L 124.353 103.164568 
L 124.353 109.124147 
L 124.353 115.083726 
L 124.353 121.043305 
L 124.353 127.002884 
L 124.353 132.962463 
L 124.353 138.922042 
L 124.353 144.881621 
L 124.353 150.8412 
" clip-path="url(#pde97bca02f)" style="fill: none; stroke: #000000; stroke-width: 1.5; stroke-linecap: square"/>
   </g>
   <g id="line2d_12">
    <path d="M 124.353 37.6092 
L 125.102785 43.072147 
L 125.852569 48.535095 
L 126.602354 53.998042 
L 127.352139 59.460989 
L 128.101923 64.923937 
L 128.851708 70.386884 
L 129.601493 75.849832 
L 130.351278 81.312779 
L 131.101062 86.775726 
L 131.850847 92.238674 
L 132.600632 97.701621 
L 133.350416 103.164568 
L 134.100201 108.627516 
L 134.849986 114.090463 
L 135.59977 119.553411 
L 136.349555 125.016358 
L 137.09934 130.479305 
L 137.849124 135.942253 
L 138.598909 141.4052 
" clip-path="url(#pde97bca02f)" style="fill: none; stroke: #000000; stroke-width: 1.5; stroke-linecap: square"/>
   </g>
   <g id="line2d_13">
    <path d="M 124.353 37.6092 
L 125.852569 42.575516 
L 127.352139 47.541832 
L 128.851708 52.508147 
L 130.351278 57.474463 
L 131.850847 62.440779 
L 133.350416 67.407095 
L 134.849986 72.373411 
L 136.349555 77.339726 
L 137.849124 82.306042 
L 139.348694 87.272358 
L 140.848263 92.238674 
L 142.347833 97.204989 
L 143.847402 102.171305 
L 145.346971 107.137621 
L 146.846541 112.103937 
L 148.34611 117.070253 
L 149.845679 122.036568 
L 151.345249 127.002884 
L 152.844818 131.9692 
" clip-path="url(#pde97bca02f)" style="fill: none; stroke: #000000; stroke-width: 1.5; stroke-linecap: square"/>
   </g>
   <g id="line2d_14">
    <path d="M 124.353 37.6092 
L 126.602354 42.078884 
L 128.851708 46.548568 
L 131.101062 51.018253 
L 133.350416 55.487937 
L 135.59977 59.957621 
L 137.849124 64.427305 
L 140.098478 68.896989 
L 142.347833 73.366674 
L 144.597187 77.836358 
L 146.846541 82.306042 
L 149.095895 86.775726 
L 151.345249 91.245411 
L 153.594603 95.715095 
L 155.843957 100.184779 
L 158.093311 104.654463 
L 160.342665 109.124147 
L 162.592019 113.593832 
L 164.841373 118.063516 
L 167.090727 122.5332 
" clip-path="url(#pde97bca02f)" style="fill: none; stroke: #000000; stroke-width: 1.5; stroke-linecap: square"/>
   </g>
   <g id="line2d_15">
    <path d="M 209.828455 207.4572 
L 207.5791 202.987516 
L 205.329746 198.517832 
L 203.080392 194.048147 
L 200.831038 189.578463 
L 198.581684 185.108779 
L 196.33233 180.639095 
L 194.082976 176.169411 
L 191.833622 171.699726 
L 189.584268 167.230042 
L 187.334914 162.760358 
L 185.08556 158.290674 
L 182.836206 153.820989 
L 180.586852 149.351305 
L 178.337498 144.881621 
L 176.088144 140.411937 
L 173.838789 135.942253 
L 171.589435 131.472568 
L 169.340081 127.002884 
L 167.090727 122.5332 
" clip-path="url(#pde97bca02f)" style="fill: none; stroke: #000000; stroke-width: 1.5; stroke-linecap: square"/>
   </g>
   <g id="line2d_16">
    <path d="M 209.828455 207.4572 
L 206.829316 203.484147 
L 203.830177 199.511095 
L 200.831038 195.538042 
L 197.8319 191.564989 
L 194.832761 187.591937 
L 191.833622 183.618884 
L 188.834483 179.645832 
L 185.835344 175.672779 
L 182.836206 171.699726 
L 179.837067 167.726674 
L 176.837928 163.753621 
L 173.838789 159.780568 
L 170.839651 155.807516 
L 167.840512 151.834463 
L 164.841373 147.861411 
L 161.842234 143.888358 
L 158.843096 139.915305 
L 155.843957 135.942253 
L 152.844818 131.9692 
" clip-path="url(#pde97bca02f)" style="fill: none; stroke: #000000; stroke-width: 1.5; stroke-linecap: square"/>
   </g>
   <g id="line2d_17">
    <path d="M 209.828455 207.4572 
L 206.079531 203.980779 
L 202.330608 200.504358 
L 198.581684 197.027937 
L 194.832761 193.551516 
L 191.083837 190.075095 
L 187.334914 186.598674 
L 183.58599 183.122253 
L 179.837067 179.645832 
L 176.088144 176.169411 
L 172.33922 172.692989 
L 168.590297 169.216568 
L 164.841373 165.740147 
L 161.09245 162.263726 
L 157.343526 158.787305 
L 153.594603 155.310884 
L 149.845679 151.834463 
L 146.096756 148.358042 
L 142.347833 144.881621 
L 138.598909 141.4052 
" clip-path="url(#pde97bca02f)" style="fill: none; stroke: #000000; stroke-width: 1.5; stroke-linecap: square"/>
   </g>
   <g id="line2d_18">
    <path d="M 209.828455 207.4572 
L 205.329746 204.477411 
L 200.831038 201.497621 
L 196.33233 198.517832 
L 191.833622 195.538042 
L 187.334914 192.558253 
L 182.836206 189.578463 
L 178.337498 186.598674 
L 173.838789 183.618884 
L 169.340081 180.639095 
L 164.841373 177.659305 
L 160.342665 174.679516 
L 155.843957 171.699726 
L 151.345249 168.719937 
L 146.846541 165.740147 
L 142.347833 162.760358 
L 137.849124 159.780568 
L 133.350416 156.800779 
L 128.851708 153.820989 
L 124.353 150.8412 
" clip-path="url(#pde97bca02f)" style="fill: none; stroke: #000000; stroke-width: 1.5; stroke-linecap: square"/>
   </g>
   <g id="line2d_19">
    <path d="M 209.828455 207.4572 
L 205.329746 205.470674 
L 200.831038 203.484147 
L 196.33233 201.497621 
L 191.833622 199.511095 
L 187.334914 197.524568 
L 182.836206 195.538042 
L 178.337498 193.551516 
L 173.838789 191.564989 
L 169.340081 189.578463 
L 164.841373 187.591937 
L 160.342665 185.605411 
L 155.843957 183.618884 
L 151.345249 181.632358 
L 146.846541 179.645832 
L 142.347833 177.659305 
L 137.849124 175.672779 
L 133.350416 173.686253 
L 128.851708 171.699726 
L 124.353 169.7132 
" clip-path="url(#pde97bca02f)" style="fill: none; stroke: #000000; stroke-width: 1.5; stroke-linecap: square"/>
   </g>
   <g id="line2d_20">
    <path d="M 209.828455 207.4572 
L 205.329746 206.463937 
L 200.831038 205.470674 
L 196.33233 204.477411 
L 191.833622 203.484147 
L 187.334914 202.490884 
L 182.836206 201.497621 
L 178.337498 200.504358 
L 173.838789 199.511095 
L 169.340081 198.517832 
L 164.841373 197.524568 
L 160.342665 196.531305 
L 155.843957 195.538042 
L 151.345249 194.544779 
L 146.846541 193.551516 
L 142.347833 192.558253 
L 137.849124 191.564989 
L 133.350416 190.571726 
L 128.851708 189.578463 
L 124.353 188.5852 
" clip-path="url(#pde97bca02f)" style="fill: none; stroke: #000000; stroke-width: 1.5; stroke-linecap: square"/>
   </g>
   <g id="line2d_21">
    <path d="M 209.828455 207.4572 
L 205.329746 207.4572 
L 200.831038 207.4572 
L 196.33233 207.4572 
L 191.833622 207.4572 
L 187.334914 207.4572 
L 182.836206 207.4572 
L 178.337498 207.4572 
L 173.838789 207.4572 
L 169.340081 207.4572 
L 164.841373 207.4572 
L 160.342665 207.4572 
L 155.843957 207.4572 
L 151.345249 207.4572 
L 146.846541 207.4572 
L 142.347833 207.4572 
L 137.849124 207.4572 
L 133.350416 207.4572 
L 128.851708 207.4572 
L 124.353 207.4572 
" clip-path="url(#pde97bca02f)" style="fill: none; stroke: #000000; stroke-width: 1.5; stroke-linecap: square"/>
   </g>
   <g id="LineCollection_1">
    <path d="M 81.615273 122.5332 
L 167.090727 122.5332 
" clip-path="url(#pde97bca02f)" style="fill: none; stroke-dasharray: 1.5,2.475; stroke-dashoffset: 0; stroke: #000000; stroke-width: 1.5"/>
    <path d="M 167.090727 122.5332 
L 124.353 207.4572 
" clip-path="url(#pde97bca02f)" style="fill: none; stroke-dasharray: 1.5,2.475; stroke-dashoffset: 0; stroke: #000000; stroke-width: 1.5"/>
    <path d="M 124.353 207.4572 
L 81.615273 122.5332 
" clip-path="url(#pde97bca02f)" style="fill: none; stroke-dasharray: 1.5,2.475; stroke-dashoffset: 0; stroke: #000000; stroke-width: 1.5"/>
   </g>
   <g id="LineCollection_2">
    <path d="M 38.877545 207.4572 
L 124.353 37.6092 
" clip-path="url(#pde97bca02f)" style="fill: none; stroke: #000000; stroke-width: 1.5"/>
    <path d="M 124.353 37.6092 
L 209.828455 207.4572 
" clip-path="url(#pde97bca02f)" style="fill: none; stroke: #000000; stroke-width: 1.5"/>
    <path d="M 209.828455 207.4572 
L 38.877545 207.4572 
" clip-path="url(#pde97bca02f)" style="fill: none; stroke: #000000; stroke-width: 1.5"/>
   </g>
   <g id="text_1">
    <!-- $J_x$ -->
    <g transform="translate(26.586752 216.451228)scale(0.13 -0.13)">
     <defs>
      <path id="CMMI12-4a" d="M 3418 3911 
C 3469 4102 3482 4166 3795 4166 
C 3898 4166 3962 4166 3962 4281 
C 3962 4352 3904 4352 3878 4352 
C 3770 4352 3648 4339 3533 4339 
L 3181 4339 
C 2912 4339 2630 4352 2362 4352 
C 2304 4352 2227 4352 2227 4236 
C 2227 4172 2278 4172 2278 4166 
L 2438 4166 
C 2950 4166 2950 4115 2950 4019 
C 2950 4013 2950 3968 2925 3866 
L 2189 953 
C 2022 304 1594 0 1286 0 
C 1069 0 762 99 685 428 
C 710 422 742 415 768 415 
C 979 415 1146 601 1146 787 
C 1146 889 1082 1024 890 1024 
C 774 1024 506 959 506 543 
C 506 149 838 -128 1299 -128 
C 1882 -128 2509 304 2662 908 
L 3418 3911 
z
" transform="scale(0.015625)"/>
      <path id="CMMI12-78" d="M 3034 2624 
C 2829 2585 2752 2431 2752 2310 
C 2752 2156 2874 2105 2963 2105 
C 3155 2105 3290 2271 3290 2444 
C 3290 2694 2982 2816 2714 2816 
C 2323 2816 2106 2451 2048 2329 
C 1901 2790 1504 2816 1389 2816 
C 736 2816 390 1993 390 1849 
C 390 1823 416 1790 461 1790 
C 512 1790 525 1829 538 1855 
C 755 2572 1184 2687 1370 2687 
C 1658 2687 1715 2438 1715 2284 
C 1715 2143 1677 1993 1600 1678 
L 1382 778 
C 1286 390 1101 64 762 64 
C 730 64 570 64 435 126 
C 666 166 717 358 717 435 
C 717 563 621 640 499 640 
C 346 640 179 505 179 300 
C 179 57 480 -64 755 -64 
C 1062 -64 1280 153 1414 415 
C 1517 64 1837 -64 2074 -64 
C 2726 -64 3072 751 3072 896 
C 3072 929 3046 955 3008 955 
C 2950 955 2944 922 2925 870 
C 2752 300 2381 64 2093 64 
C 1869 64 1747 204 1747 467 
C 1747 607 1773 712 1875 1146 
L 2099 2039 
C 2195 2425 2413 2687 2707 2687 
C 2720 2687 2899 2687 3034 2624 
z
" transform="scale(0.015625)"/>
     </defs>
     <use xlink:href="#CMMI12-4a" transform="scale(0.996264)"/>
     <use xlink:href="#CMMI12-78" transform="translate(53.917955 -14.943915)scale(0.697382)"/>
    </g>
   </g>
   <g id="text_2">
    <!-- $J_y$ -->
    <g transform="translate(118.553885 31.942454)scale(0.13 -0.13)">
     <defs>
      <path id="CMMI12-79" d="M 1683 -673 
C 1510 -921 1261 -1152 947 -1152 
C 870 -1152 563 -1139 467 -826 
C 486 -833 518 -833 531 -833 
C 723 -833 851 -666 851 -519 
C 851 -372 730 -320 634 -320 
C 531 -320 307 -397 307 -711 
C 307 -1050 582 -1280 947 -1280 
C 1587 -1280 2234 -673 2413 -7 
L 3040 2483 
C 3046 2515 3059 2553 3059 2591 
C 3059 2687 2982 2752 2886 2752 
C 2829 2752 2694 2726 2643 2534 
L 2170 657 
C 2138 542 2138 530 2086 459 
C 1958 281 1747 64 1440 64 
C 1082 64 1050 415 1050 587 
C 1050 951 1222 1443 1395 1902 
C 1466 2087 1504 2177 1504 2305 
C 1504 2573 1312 2816 998 2816 
C 410 2816 173 1890 173 1838 
C 173 1813 198 1781 243 1781 
C 301 1781 307 1807 333 1896 
C 486 2432 730 2687 979 2687 
C 1037 2687 1146 2687 1146 2477 
C 1146 2311 1075 2126 979 1883 
C 666 1047 666 836 666 683 
C 666 76 1101 -64 1421 -64 
C 1606 -64 1837 -7 2061 230 
L 2067 223 
C 1971 -141 1907 -359 1683 -673 
z
" transform="scale(0.015625)"/>
     </defs>
     <use xlink:href="#CMMI12-4a" transform="scale(0.996264)"/>
     <use xlink:href="#CMMI12-79" transform="translate(53.917955 -14.943915)scale(0.697382)"/>
    </g>
   </g>
   <g id="text_3">
    <!-- $J_z$ -->
    <g transform="translate(209.828455 216.451228)scale(0.13 -0.13)">
     <defs>
      <path id="CMMI12-7a" d="M 813 486 
C 1088 809 1312 1015 1632 1313 
C 2016 1657 2182 1822 2272 1922 
C 2720 2371 2944 2713 2944 2764 
C 2944 2816 2893 2816 2880 2816 
C 2835 2816 2822 2790 2790 2745 
C 2630 2470 2477 2368 2310 2368 
C 2176 2368 2106 2403 1984 2547 
C 1850 2707 1741 2816 1555 2816 
C 1088 2816 806 2265 806 2127 
C 806 2107 813 2067 870 2067 
C 922 2067 928 2094 947 2140 
C 1056 2387 1363 2415 1485 2415 
C 1619 2415 1747 2387 1882 2342 
C 2125 2239 2227 2239 2291 2239 
C 2336 2239 2362 2239 2394 2246 
C 2182 1988 1837 1670 1549 1399 
L 902 783 
C 512 380 275 32 275 -13 
C 275 -52 307 -64 346 -64 
C 384 -64 390 -58 435 19 
C 538 179 742 384 979 384 
C 1114 384 1178 356 1306 211 
C 1427 70 1536 -64 1741 -64 
C 2368 -64 2726 723 2726 876 
C 2726 902 2720 942 2656 942 
C 2605 942 2598 915 2579 849 
C 2438 460 2061 336 1811 336 
C 1677 336 1549 364 1414 409 
C 1158 512 1088 512 1005 512 
C 941 512 870 512 813 486 
z
" transform="scale(0.015625)"/>
     </defs>
     <use xlink:href="#CMMI12-4a" transform="scale(0.996264)"/>
     <use xlink:href="#CMMI12-7a" transform="translate(53.917955 -14.943915)scale(0.697382)"/>
    </g>
   </g>
  </g>
 </g>
 <defs>
  <clipPath id="pde97bca02f">
   <rect x="30.33" y="29.1168" width="188.046" height="186.8328"/>
  </clipPath>
 </defs>
</svg>
