<?xml version="1.0" encoding="utf-8" standalone="no"?>
<!DOCTYPE svg PUBLIC "-//W3C//DTD SVG 1.1//EN"
  "http://www.w3.org/Graphics/SVG/1.1/DTD/svg11.dtd">
<svg xmlns:xlink="http://www.w3.org/1999/xlink" width="486pt" height="242.64pt" viewBox="0 0 486 242.64" xmlns="http://www.w3.org/2000/svg" version="1.1">
 <metadata>
  <rdf:RDF xmlns:dc="http://purl.org/dc/elements/1.1/" xmlns:cc="http://creativecommons.org/ns#" xmlns:rdf="http://www.w3.org/1999/02/22-rdf-syntax-ns#">
   <cc:Work>
    <dc:type rdf:resource="http://purl.org/dc/dcmitype/StillImage"/>
    <dc:date>2022-08-05T12:00:21.542030</dc:date>
    <dc:format>image/svg+xml</dc:format>
    <dc:creator>
     <cc:Agent>
      <dc:title>Matplotlib v3.5.1, https://matplotlib.org/</dc:title>
     </cc:Agent>
    </dc:creator>
   </cc:Work>
  </rdf:RDF>
 </metadata>
 <defs>
  <style type="text/css">*{stroke-linejoin: round; stroke-linecap: butt}</style>
 </defs>
 <g id="figure_1">
  <g id="patch_1">
   <path d="M 0 242.64 
L 486 242.64 
L 486 0 
L 0 0 
z
" style="fill: #ffffff"/>
  </g>
  <g id="axes_1">
   <g id="patch_2">
    <path d="M 54.195544 194.57532 
L 471.96 194.57532 
L 471.96 14.04 
L 54.195544 14.04 
z
" style="fill: #ffffff"/>
   </g>
   <g id="patch_3">
    <path d="M 73.184837 194.57532 
L 115.383267 194.57532 
L 115.383267 189.19385 
L 73.184837 189.19385 
z
" clip-path="url(#pd50d4f5464)" style="fill: #1f77b4"/>
   </g>
   <g id="patch_4">
    <path d="M 115.383267 194.57532 
L 157.581697 194.57532 
L 157.581697 189.52729 
L 115.383267 189.52729 
z
" clip-path="url(#pd50d4f5464)" style="fill: #1f77b4"/>
   </g>
   <g id="patch_5">
    <path d="M 157.581697 194.57532 
L 199.780127 194.57532 
L 199.780127 185.170229 
L 157.581697 185.170229 
z
" clip-path="url(#pd50d4f5464)" style="fill: #1f77b4"/>
   </g>
   <g id="patch_6">
    <path d="M 199.780127 194.57532 
L 241.978557 194.57532 
L 241.978557 185.687561 
L 199.780127 185.687561 
z
" clip-path="url(#pd50d4f5464)" style="fill: #1f77b4"/>
   </g>
   <g id="patch_7">
    <path d="M 241.978557 194.57532 
L 284.176987 194.57532 
L 284.176987 180.385729 
L 241.978557 180.385729 
z
" clip-path="url(#pd50d4f5464)" style="fill: #1f77b4"/>
   </g>
   <g id="patch_8">
    <path d="M 284.176987 194.57532 
L 326.375417 194.57532 
L 326.375417 170.625712 
L 284.176987 170.625712 
z
" clip-path="url(#pd50d4f5464)" style="fill: #1f77b4"/>
   </g>
   <g id="patch_9">
    <path d="M 326.375417 194.57532 
L 368.573847 194.57532 
L 368.573847 159.027227 
L 326.375417 159.027227 
z
" clip-path="url(#pd50d4f5464)" style="fill: #1f77b4"/>
   </g>
   <g id="patch_10">
    <path d="M 368.573847 194.57532 
L 410.772277 194.57532 
L 410.772277 144.833532 
L 368.573847 144.833532 
z
" clip-path="url(#pd50d4f5464)" style="fill: #1f77b4"/>
   </g>
   <g id="patch_11">
    <path d="M 410.772277 194.57532 
L 452.970707 194.57532 
L 452.970707 126.421666 
L 410.772277 126.421666 
z
" clip-path="url(#pd50d4f5464)" style="fill: #1f77b4"/>
   </g>
   <g id="patch_12">
    <path d="M 73.184837 189.19385 
L 115.383267 189.19385 
L 115.383267 186.260365 
L 73.184837 186.260365 
z
" clip-path="url(#pd50d4f5464)" style="fill: #ff7f0e"/>
   </g>
   <g id="patch_13">
    <path d="M 115.383267 189.52729 
L 157.581697 189.52729 
L 157.581697 184.092159 
L 115.383267 184.092159 
z
" clip-path="url(#pd50d4f5464)" style="fill: #ff7f0e"/>
   </g>
   <g id="patch_14">
    <path d="M 157.581697 185.170229 
L 199.780127 185.170229 
L 199.780127 177.756609 
L 157.581697 177.756609 
z
" clip-path="url(#pd50d4f5464)" style="fill: #ff7f0e"/>
   </g>
   <g id="patch_15">
    <path d="M 199.780127 185.687561 
L 241.978557 185.687561 
L 241.978557 177.291249 
L 199.780127 177.291249 
z
" clip-path="url(#pd50d4f5464)" style="fill: #ff7f0e"/>
   </g>
   <g id="patch_16">
    <path d="M 241.978557 180.385729 
L 284.176987 180.385729 
L 284.176987 170.643201 
L 241.978557 170.643201 
z
" clip-path="url(#pd50d4f5464)" style="fill: #ff7f0e"/>
   </g>
   <g id="patch_17">
    <path d="M 284.176987 170.625712 
L 326.375417 170.625712 
L 326.375417 157.858149 
L 284.176987 157.858149 
z
" clip-path="url(#pd50d4f5464)" style="fill: #ff7f0e"/>
   </g>
   <g id="patch_18">
    <path d="M 326.375417 159.027227 
L 368.573847 159.027227 
L 368.573847 144.808777 
L 326.375417 144.808777 
z
" clip-path="url(#pd50d4f5464)" style="fill: #ff7f0e"/>
   </g>
   <g id="patch_19">
    <path d="M 368.573847 144.833532 
L 410.772277 144.833532 
L 410.772277 128.24833 
L 368.573847 128.24833 
z
" clip-path="url(#pd50d4f5464)" style="fill: #ff7f0e"/>
   </g>
   <g id="patch_20">
    <path d="M 410.772277 126.421666 
L 452.970707 126.421666 
L 452.970707 106.650804 
L 410.772277 106.650804 
z
" clip-path="url(#pd50d4f5464)" style="fill: #ff7f0e"/>
   </g>
   <g id="patch_21">
    <path d="M 73.184837 186.260365 
L 115.383267 186.260365 
L 115.383267 184.643571 
L 73.184837 184.643571 
z
" clip-path="url(#pd50d4f5464)" style="fill: #2ca02c"/>
   </g>
   <g id="patch_22">
    <path d="M 115.383267 184.092159 
L 157.581697 184.092159 
L 157.581697 180.544603 
L 115.383267 180.544603 
z
" clip-path="url(#pd50d4f5464)" style="fill: #2ca02c"/>
   </g>
   <g id="patch_23">
    <path d="M 157.581697 177.756609 
L 199.780127 177.756609 
L 199.780127 171.947793 
L 157.581697 171.947793 
z
" clip-path="url(#pd50d4f5464)" style="fill: #2ca02c"/>
   </g>
   <g id="patch_24">
    <path d="M 199.780127 177.291249 
L 241.978557 177.291249 
L 241.978557 170.703089 
L 199.780127 170.703089 
z
" clip-path="url(#pd50d4f5464)" style="fill: #2ca02c"/>
   </g>
   <g id="patch_25">
    <path d="M 241.978557 170.643201 
L 284.176987 170.643201 
L 284.176987 161.524273 
L 241.978557 161.524273 
z
" clip-path="url(#pd50d4f5464)" style="fill: #2ca02c"/>
   </g>
   <g id="patch_26">
    <path d="M 284.176987 157.858149 
L 326.375417 157.858149 
L 326.375417 146.492895 
L 284.176987 146.492895 
z
" clip-path="url(#pd50d4f5464)" style="fill: #2ca02c"/>
   </g>
   <g id="patch_27">
    <path d="M 326.375417 144.808777 
L 368.573847 144.808777 
L 368.573847 131.737734 
L 326.375417 131.737734 
z
" clip-path="url(#pd50d4f5464)" style="fill: #2ca02c"/>
   </g>
   <g id="patch_28">
    <path d="M 368.573847 128.24833 
L 410.772277 128.24833 
L 410.772277 109.740235 
L 368.573847 109.740235 
z
" clip-path="url(#pd50d4f5464)" style="fill: #2ca02c"/>
   </g>
   <g id="patch_29">
    <path d="M 410.772277 106.650804 
L 452.970707 106.650804 
L 452.970707 83.555935 
L 410.772277 83.555935 
z
" clip-path="url(#pd50d4f5464)" style="fill: #2ca02c"/>
   </g>
   <g id="patch_30">
    <path d="M 73.184837 184.643571 
L 115.383267 184.643571 
L 115.383267 179.734386 
L 73.184837 179.734386 
z
" clip-path="url(#pd50d4f5464)" style="fill: #d62728"/>
   </g>
   <g id="patch_31">
    <path d="M 115.383267 180.544603 
L 157.581697 180.544603 
L 157.581697 171.854244 
L 115.383267 171.854244 
z
" clip-path="url(#pd50d4f5464)" style="fill: #d62728"/>
   </g>
   <g id="patch_32">
    <path d="M 157.581697 171.947793 
L 199.780127 171.947793 
L 199.780127 157.225953 
L 157.581697 157.225953 
z
" clip-path="url(#pd50d4f5464)" style="fill: #d62728"/>
   </g>
   <g id="patch_33">
    <path d="M 199.780127 170.703089 
L 241.978557 170.703089 
L 241.978557 152.703868 
L 199.780127 152.703868 
z
" clip-path="url(#pd50d4f5464)" style="fill: #d62728"/>
   </g>
   <g id="patch_34">
    <path d="M 241.978557 161.524273 
L 284.176987 161.524273 
L 284.176987 134.982862 
L 241.978557 134.982862 
z
" clip-path="url(#pd50d4f5464)" style="fill: #d62728"/>
   </g>
   <g id="patch_35">
    <path d="M 284.176987 146.492895 
L 326.375417 146.492895 
L 326.375417 112.313046 
L 284.176987 112.313046 
z
" clip-path="url(#pd50d4f5464)" style="fill: #d62728"/>
   </g>
   <g id="patch_36">
    <path d="M 326.375417 131.737734 
L 368.573847 131.737734 
L 368.573847 88.677081 
L 326.375417 88.677081 
z
" clip-path="url(#pd50d4f5464)" style="fill: #d62728"/>
   </g>
   <g id="patch_37">
    <path d="M 368.573847 109.740235 
L 410.772277 109.740235 
L 410.772277 55.995584 
L 368.573847 55.995584 
z
" clip-path="url(#pd50d4f5464)" style="fill: #d62728"/>
   </g>
   <g id="patch_38">
    <path d="M 410.772277 83.555935 
L 452.970707 83.555935 
L 452.970707 22.63692 
L 410.772277 22.63692 
z
" clip-path="url(#pd50d4f5464)" style="fill: #d62728"/>
   </g>
   <g id="matplotlib.axis_1">
    <g id="xtick_1">
     <g id="line2d_1">
      <defs>
       <path id="m2e72b490d2" d="M 0 0 
L 0 3.5 
" style="stroke: #000000; stroke-width: 0.8"/>
      </defs>
      <g>
       <use xlink:href="#m2e72b490d2" x="136.482482" y="194.57532" style="stroke: #000000; stroke-width: 0.8"/>
      </g>
     </g>
     <g id="text_1">
      <!-- $\mathdefault{200}$ -->
      <g transform="translate(126.971373 210.569348)scale(0.13 -0.13)">
       <defs>
        <path id="CMR17-32" d="M 2669 990 
L 2554 990 
C 2490 537 2438 460 2413 422 
C 2381 371 1920 371 1830 371 
L 602 371 
C 832 620 1280 1073 1824 1596 
C 2214 1966 2669 2400 2669 3033 
C 2669 3788 2067 4224 1395 4224 
C 691 4224 262 3603 262 3027 
C 262 2777 448 2745 525 2745 
C 589 2745 781 2783 781 3007 
C 781 3206 614 3264 525 3264 
C 486 3264 448 3257 422 3244 
C 544 3788 915 4057 1306 4057 
C 1862 4057 2227 3616 2227 3033 
C 2227 2477 1901 1998 1536 1583 
L 262 147 
L 262 0 
L 2515 0 
L 2669 990 
z
" transform="scale(0.015625)"/>
        <path id="CMR17-30" d="M 2688 2038 
C 2688 2430 2682 3099 2413 3613 
C 2176 4063 1798 4224 1466 4224 
C 1158 4224 768 4082 525 3620 
C 269 3137 243 2539 243 2038 
C 243 1671 250 1112 448 623 
C 723 -39 1216 -128 1466 -128 
C 1760 -128 2208 -7 2470 604 
C 2662 1048 2688 1568 2688 2038 
z
M 1466 -26 
C 1056 -26 813 328 723 816 
C 653 1196 653 1749 653 2109 
C 653 2604 653 3015 736 3407 
C 858 3954 1216 4121 1466 4121 
C 1728 4121 2067 3947 2189 3420 
C 2272 3054 2278 2623 2278 2109 
C 2278 1691 2278 1176 2202 797 
C 2067 96 1690 -26 1466 -26 
z
" transform="scale(0.015625)"/>
       </defs>
       <use xlink:href="#CMR17-32" transform="scale(0.996264)"/>
       <use xlink:href="#CMR17-30" transform="translate(45.690477 0)scale(0.996264)"/>
       <use xlink:href="#CMR17-30" transform="translate(91.380954 0)scale(0.996264)"/>
      </g>
     </g>
    </g>
    <g id="xtick_2">
     <g id="line2d_2">
      <g>
       <use xlink:href="#m2e72b490d2" x="220.879342" y="194.57532" style="stroke: #000000; stroke-width: 0.8"/>
      </g>
     </g>
     <g id="text_2">
      <!-- $\mathdefault{400}$ -->
      <g transform="translate(211.368233 210.569348)scale(0.13 -0.13)">
       <defs>
        <path id="CMR17-34" d="M 2150 4147 
C 2150 4281 2144 4288 2029 4288 
L 128 1254 
L 128 1088 
L 1779 1088 
L 1779 460 
C 1779 230 1766 166 1318 166 
L 1197 166 
L 1197 0 
C 1402 12 1747 12 1965 12 
C 2182 12 2528 12 2733 0 
L 2733 166 
L 2611 166 
C 2163 166 2150 230 2150 460 
L 2150 1088 
L 2803 1088 
L 2803 1254 
L 2150 1254 
L 2150 4147 
z
M 1798 3723 
L 1798 1254 
L 256 1254 
L 1798 3723 
z
" transform="scale(0.015625)"/>
       </defs>
       <use xlink:href="#CMR17-34" transform="scale(0.996264)"/>
       <use xlink:href="#CMR17-30" transform="translate(45.690477 0)scale(0.996264)"/>
       <use xlink:href="#CMR17-30" transform="translate(91.380954 0)scale(0.996264)"/>
      </g>
     </g>
    </g>
    <g id="xtick_3">
     <g id="line2d_3">
      <g>
       <use xlink:href="#m2e72b490d2" x="305.276202" y="194.57532" style="stroke: #000000; stroke-width: 0.8"/>
      </g>
     </g>
     <g id="text_3">
      <!-- $\mathdefault{600}$ -->
      <g transform="translate(295.765093 210.569348)scale(0.13 -0.13)">
       <defs>
        <path id="CMR17-36" d="M 678 2198 
C 678 3712 1395 4076 1811 4076 
C 1946 4076 2272 4049 2400 3782 
C 2298 3782 2106 3782 2106 3558 
C 2106 3385 2246 3328 2336 3328 
C 2394 3328 2566 3353 2566 3571 
C 2566 3987 2246 4224 1805 4224 
C 1043 4224 243 3411 243 2011 
C 243 257 966 -128 1478 -128 
C 2099 -128 2688 431 2688 1295 
C 2688 2101 2170 2688 1517 2688 
C 1126 2688 838 2430 678 1979 
L 678 2198 
z
M 1478 25 
C 691 25 691 1212 691 1450 
C 691 1914 909 2585 1504 2585 
C 1613 2585 1926 2585 2138 2140 
C 2253 1889 2253 1624 2253 1302 
C 2253 954 2253 696 2118 438 
C 1978 173 1773 25 1478 25 
z
" transform="scale(0.015625)"/>
       </defs>
       <use xlink:href="#CMR17-36" transform="scale(0.996264)"/>
       <use xlink:href="#CMR17-30" transform="translate(45.690477 0)scale(0.996264)"/>
       <use xlink:href="#CMR17-30" transform="translate(91.380954 0)scale(0.996264)"/>
      </g>
     </g>
    </g>
    <g id="xtick_4">
     <g id="line2d_4">
      <g>
       <use xlink:href="#m2e72b490d2" x="389.673062" y="194.57532" style="stroke: #000000; stroke-width: 0.8"/>
      </g>
     </g>
     <g id="text_4">
      <!-- $\mathdefault{800}$ -->
      <g transform="translate(380.161953 210.569348)scale(0.13 -0.13)">
       <defs>
        <path id="CMR17-38" d="M 1741 2289 
C 2144 2494 2554 2803 2554 3298 
C 2554 3884 1990 4224 1472 4224 
C 890 4224 378 3800 378 3215 
C 378 3054 416 2777 666 2533 
C 730 2469 998 2276 1171 2154 
C 883 2006 211 1652 211 945 
C 211 282 838 -128 1459 -128 
C 2144 -128 2720 366 2720 1022 
C 2720 1607 2330 1877 2074 2051 
L 1741 2289 
z
M 902 2855 
C 851 2887 595 3086 595 3388 
C 595 3781 998 4076 1459 4076 
C 1965 4076 2336 3716 2336 3298 
C 2336 2700 1670 2359 1638 2359 
C 1632 2359 1626 2359 1574 2398 
L 902 2855 
z
M 2080 1536 
C 2176 1466 2483 1253 2483 861 
C 2483 385 2010 25 1472 25 
C 890 25 448 443 448 951 
C 448 1459 838 1884 1280 2083 
L 2080 1536 
z
" transform="scale(0.015625)"/>
       </defs>
       <use xlink:href="#CMR17-38" transform="scale(0.996264)"/>
       <use xlink:href="#CMR17-30" transform="translate(45.690477 0)scale(0.996264)"/>
       <use xlink:href="#CMR17-30" transform="translate(91.380954 0)scale(0.996264)"/>
      </g>
     </g>
    </g>
    <g id="text_5">
     <!-- Number of Plaquettes -->
     <g transform="translate(202.192445 226.081688)scale(0.13 -0.13)">
      <defs>
       <path id="CMR17-4e" d="M 1312 4275 
C 1267 4345 1261 4352 1139 4352 
L 326 4352 
L 326 4185 
L 448 4185 
C 704 4185 819 4153 838 4147 
L 838 624 
C 838 465 838 166 326 166 
L 326 0 
C 474 12 742 12 902 12 
C 1062 12 1331 12 1478 0 
L 1478 166 
C 966 166 966 465 966 624 
L 966 4057 
C 1011 4019 1011 4007 1056 3943 
L 3430 76 
C 3475 0 3494 0 3526 0 
C 3590 0 3590 19 3590 140 
L 3590 3726 
C 3590 3885 3590 4185 4102 4185 
L 4102 4352 
C 3955 4339 3686 4339 3526 4339 
C 3366 4339 3098 4339 2950 4352 
L 2950 4185 
C 3462 4185 3462 3885 3462 3726 
L 3462 777 
L 1312 4275 
z
" transform="scale(0.015625)"/>
       <path id="CMR17-75" d="M 1882 2745 
L 1882 2579 
C 2259 2579 2317 2540 2317 2229 
L 2317 1053 
C 2317 510 2029 38 1555 38 
C 1030 38 986 355 986 691 
L 986 2816 
L 211 2745 
L 211 2579 
C 467 2579 640 2579 646 2320 
L 646 1079 
C 646 646 646 368 813 187 
C 896 103 1056 -64 1517 -64 
C 2061 -64 2272 400 2323 536 
L 2330 536 
L 2330 -64 
L 3091 -13 
L 3091 154 
C 2714 154 2656 193 2656 503 
L 2656 2816 
L 1882 2745 
z
" transform="scale(0.015625)"/>
       <path id="CMR17-6d" d="M 4326 1954 
C 4326 2276 4269 2816 3507 2816 
C 3072 2816 2771 2520 2656 2173 
L 2650 2173 
C 2573 2700 2195 2816 1837 2816 
C 1331 2816 1069 2424 973 2166 
L 966 2166 
L 966 2816 
L 211 2745 
L 211 2578 
C 589 2578 646 2540 646 2231 
L 646 443 
C 646 198 621 166 211 166 
L 211 0 
C 365 12 646 12 813 12 
C 979 12 1267 12 1421 0 
L 1421 166 
C 1011 166 986 192 986 443 
L 986 1678 
C 986 2269 1344 2713 1792 2713 
C 2266 2713 2317 2289 2317 1980 
L 2317 443 
C 2317 198 2291 166 1882 166 
L 1882 0 
C 2035 12 2317 12 2483 12 
C 2650 12 2938 12 3091 0 
L 3091 166 
C 2682 166 2656 192 2656 443 
L 2656 1678 
C 2656 2269 3014 2713 3462 2713 
C 3936 2713 3987 2289 3987 1980 
L 3987 443 
C 3987 198 3962 166 3552 166 
L 3552 0 
C 3706 12 3987 12 4154 12 
C 4320 12 4608 12 4762 0 
L 4762 166 
C 4352 166 4326 192 4326 443 
L 4326 1954 
z
" transform="scale(0.015625)"/>
       <path id="CMR17-62" d="M 960 4416 
L 198 4345 
L 198 4179 
C 576 4179 634 4141 634 3843 
L 634 -13 
L 749 -13 
L 934 445 
C 1120 141 1395 -64 1766 -64 
C 2406 -64 3053 503 3053 1382 
C 3053 2209 2477 2816 1830 2816 
C 1434 2816 1152 2603 960 2351 
L 960 4416 
z
M 973 2022 
C 973 2138 973 2157 1062 2293 
C 1312 2681 1670 2713 1792 2713 
C 1984 2713 2643 2610 2643 1388 
C 2643 109 1888 38 1734 38 
C 1536 38 1248 115 1043 490 
C 973 613 973 626 973 742 
L 973 2022 
z
" transform="scale(0.015625)"/>
       <path id="CMR17-65" d="M 2438 1503 
C 2464 1529 2464 1542 2464 1606 
C 2464 2251 2118 2816 1389 2816 
C 710 2816 173 2175 173 1394 
C 173 554 781 -64 1459 -64 
C 2176 -64 2458 619 2458 755 
C 2458 800 2419 800 2406 800 
C 2362 800 2355 787 2330 709 
C 2189 270 1837 51 1504 51 
C 1229 51 954 206 781 490 
C 582 819 582 1200 582 1503 
L 2438 1503 
z
M 589 1600 
C 634 2511 1126 2713 1382 2713 
C 1818 2713 2112 2308 2118 1600 
L 589 1600 
z
" transform="scale(0.015625)"/>
       <path id="CMR17-72" d="M 960 1517 
C 960 2134 1222 2713 1702 2713 
C 1747 2713 1792 2707 1837 2687 
C 1837 2687 1696 2642 1696 2475 
C 1696 2321 1818 2257 1914 2257 
C 1990 2257 2131 2302 2131 2482 
C 2131 2687 1926 2816 1709 2816 
C 1222 2816 1011 2340 947 2115 
L 941 2115 
L 941 2816 
L 198 2745 
L 198 2578 
C 576 2578 634 2540 634 2231 
L 634 443 
C 634 198 608 166 198 166 
L 198 0 
C 352 12 646 12 813 12 
C 998 12 1325 12 1498 0 
L 1498 166 
C 1037 166 960 166 960 455 
L 960 1517 
z
" transform="scale(0.015625)"/>
       <path id="CMR17-6f" d="M 2758 1356 
C 2758 2176 2163 2816 1466 2816 
C 768 2816 173 2176 173 1356 
C 173 550 768 -64 1466 -64 
C 2163 -64 2758 550 2758 1356 
z
M 1466 51 
C 1165 51 909 230 762 480 
C 602 768 582 1126 582 1408 
C 582 1676 595 2009 762 2297 
C 890 2508 1139 2713 1466 2713 
C 1754 2713 1997 2553 2150 2329 
C 2349 2028 2349 1606 2349 1408 
C 2349 1158 2336 774 2163 467 
C 1984 172 1709 51 1466 51 
z
" transform="scale(0.015625)"/>
       <path id="CMR17-66" d="M 979 2585 
L 1709 2585 
L 1709 2752 
L 966 2752 
L 966 3539 
C 966 4076 1235 4377 1510 4377 
C 1594 4377 1690 4363 1754 4339 
C 1702 4326 1568 4281 1568 4121 
C 1568 3955 1696 3904 1786 3904 
C 1875 3904 2003 3955 2003 4121 
C 2003 4353 1773 4480 1517 4480 
C 1152 4480 653 4211 653 3526 
L 653 2752 
L 141 2752 
L 141 2585 
L 653 2585 
L 653 441 
C 653 198 627 166 218 166 
L 218 0 
C 371 12 666 12 832 12 
C 1018 12 1344 12 1517 0 
L 1517 166 
C 1056 166 979 166 979 454 
L 979 2585 
z
" transform="scale(0.015625)"/>
       <path id="CMR17-50" d="M 1267 2048 
L 2291 2048 
C 3117 2048 3718 2583 3718 3187 
C 3718 3791 3130 4352 2291 4352 
L 333 4352 
L 333 4185 
C 774 4185 845 4185 845 3899 
L 845 453 
C 845 166 774 166 333 166 
L 333 0 
C 518 12 858 12 1056 12 
C 1254 12 1594 12 1779 0 
L 1779 166 
C 1338 166 1267 166 1267 453 
L 1267 2048 
z
M 1254 2182 
L 1254 3937 
C 1254 4153 1267 4185 1523 4185 
L 2170 4185 
C 2995 4185 3232 3715 3232 3187 
C 3232 2608 2950 2182 2170 2182 
L 1254 2182 
z
" transform="scale(0.015625)"/>
       <path id="CMR17-6c" d="M 979 4416 
L 218 4345 
L 218 4179 
C 595 4179 653 4141 653 3835 
L 653 439 
C 653 198 627 166 218 166 
L 218 0 
C 371 12 653 12 813 12 
C 979 12 1261 12 1414 0 
L 1414 166 
C 1005 166 979 191 979 439 
L 979 4416 
z
" transform="scale(0.015625)"/>
       <path id="CMR17-61" d="M 2304 1656 
C 2304 2048 2304 2275 2035 2534 
C 1798 2751 1523 2816 1306 2816 
C 800 2816 435 2408 435 1977 
C 435 1740 627 1728 666 1728 
C 749 1728 896 1779 896 1958 
C 896 2118 774 2188 666 2188 
C 640 2188 608 2182 589 2176 
C 723 2594 1069 2713 1293 2713 
C 1613 2713 1965 2421 1965 1875 
L 1965 1632 
C 1587 1619 1133 1568 774 1373 
C 371 1147 256 822 256 576 
C 256 77 832 -64 1171 -64 
C 1523 -64 1850 135 1990 505 
C 2003 219 2182 -39 2464 -39 
C 2598 -39 2938 51 2938 563 
L 2938 926 
L 2822 926 
L 2822 557 
C 2822 161 2650 109 2566 109 
C 2304 109 2304 446 2304 732 
L 2304 1656 
z
M 1965 887 
C 1965 323 1568 38 1216 38 
C 896 38 646 278 646 576 
C 646 771 730 1114 1101 1322 
C 1408 1497 1760 1523 1965 1536 
L 1965 887 
z
" transform="scale(0.015625)"/>
       <path id="CMR17-71" d="M 2630 2816 
L 2528 2816 
L 2336 2177 
C 2189 2519 1920 2816 1491 2816 
C 838 2816 211 2228 211 1376 
C 211 529 800 -64 1440 -64 
C 1933 -64 2208 316 2291 458 
L 2291 -834 
C 2291 -1081 2266 -1114 1856 -1114 
L 1856 -1280 
C 2010 -1268 2291 -1268 2458 -1268 
C 2624 -1268 2912 -1268 3066 -1280 
L 3066 -1114 
C 2656 -1114 2630 -1088 2630 -834 
L 2630 2816 
z
M 2304 871 
C 2304 594 2074 335 2054 316 
C 1856 90 1626 38 1472 38 
C 992 38 621 652 621 1369 
C 621 2125 1043 2700 1536 2700 
C 2048 2700 2304 2112 2304 1776 
L 2304 871 
z
" transform="scale(0.015625)"/>
       <path id="CMR17-74" d="M 966 2585 
L 1862 2585 
L 1862 2752 
L 966 2752 
L 966 3968 
L 851 3968 
C 838 3292 614 2700 70 2687 
L 70 2585 
L 627 2585 
L 627 778 
C 627 655 627 -64 1370 -64 
C 1747 -64 1965 308 1965 784 
L 1965 1151 
L 1850 1151 
L 1850 790 
C 1850 347 1677 51 1408 51 
C 1222 51 966 179 966 765 
L 966 2585 
z
" transform="scale(0.015625)"/>
       <path id="CMR17-73" d="M 1978 2688 
C 1978 2803 1971 2809 1933 2809 
C 1907 2809 1901 2803 1824 2707 
C 1805 2681 1747 2617 1728 2592 
C 1523 2809 1235 2816 1126 2816 
C 416 2816 160 2444 160 2073 
C 160 1497 813 1363 998 1324 
C 1402 1241 1542 1216 1677 1100 
C 1760 1024 1901 883 1901 652 
C 1901 384 1747 38 1158 38 
C 602 38 403 460 288 1024 
C 269 1113 269 1120 218 1120 
C 166 1120 160 1113 160 985 
L 160 64 
C 160 -52 166 -58 205 -58 
C 237 -58 243 -52 275 0 
C 314 57 410 211 448 275 
C 576 102 800 -64 1158 -64 
C 1792 -64 2131 281 2131 780 
C 2131 1107 1958 1280 1875 1356 
C 1683 1555 1459 1600 1190 1651 
C 838 1728 390 1817 390 2208 
C 390 2374 480 2726 1126 2726 
C 1811 2726 1850 2086 1862 1881 
C 1869 1849 1901 1843 1920 1843 
C 1978 1843 1978 1862 1978 1971 
L 1978 2688 
z
" transform="scale(0.015625)"/>
      </defs>
      <use xlink:href="#CMR17-4e" transform="scale(0.996264)"/>
      <use xlink:href="#CMR17-75" transform="translate(69.07243 0)scale(0.996264)"/>
      <use xlink:href="#CMR17-6d" transform="translate(119.9678 0)scale(0.996264)"/>
      <use xlink:href="#CMR17-62" transform="translate(194.284936 0)scale(0.996264)"/>
      <use xlink:href="#CMR17-65" transform="translate(247.782744 0)scale(0.996264)"/>
      <use xlink:href="#CMR17-72" transform="translate(288.268404 0)scale(0.996264)"/>
      <use xlink:href="#CMR17-6f" transform="translate(353.625139 0)scale(0.996264)"/>
      <use xlink:href="#CMR17-66" transform="translate(399.315616 0)scale(0.996264)"/>
      <use xlink:href="#CMR17-50" transform="translate(456.865095 0)scale(0.996264)"/>
      <use xlink:href="#CMR17-6c" transform="translate(519.451395 0)scale(0.996264)"/>
      <use xlink:href="#CMR17-61" transform="translate(544.322454 0)scale(0.996264)"/>
      <use xlink:href="#CMR17-71" transform="translate(590.012931 0)scale(0.996264)"/>
      <use xlink:href="#CMR17-75" transform="translate(638.305846 0)scale(0.996264)"/>
      <use xlink:href="#CMR17-65" transform="translate(689.201216 0)scale(0.996264)"/>
      <use xlink:href="#CMR17-74" transform="translate(729.686877 0)scale(0.996264)"/>
      <use xlink:href="#CMR17-74" transform="translate(764.967645 0)scale(0.996264)"/>
      <use xlink:href="#CMR17-65" transform="translate(800.248412 0)scale(0.996264)"/>
      <use xlink:href="#CMR17-73" transform="translate(840.734073 0)scale(0.996264)"/>
     </g>
    </g>
   </g>
   <g id="matplotlib.axis_2">
    <g id="ytick_1">
     <g id="line2d_5">
      <defs>
       <path id="m9c73567e71" d="M 0 0 
L -3.5 0 
" style="stroke: #000000; stroke-width: 0.8"/>
      </defs>
      <g>
       <use xlink:href="#m9c73567e71" x="54.195544" y="194.57532" style="stroke: #000000; stroke-width: 0.8"/>
      </g>
     </g>
     <g id="text_6">
      <!-- $\mathdefault{0.0}$ -->
      <g transform="translate(30.991432 199.072334)scale(0.13 -0.13)">
       <defs>
        <path id="CMMI12-3a" d="M 1178 307 
C 1178 492 1024 620 870 620 
C 685 620 557 467 557 313 
C 557 128 710 0 864 0 
C 1050 0 1178 153 1178 307 
z
" transform="scale(0.015625)"/>
       </defs>
       <use xlink:href="#CMR17-30" transform="scale(0.996264)"/>
       <use xlink:href="#CMMI12-3a" transform="translate(45.690477 0)scale(0.996264)"/>
       <use xlink:href="#CMR17-30" transform="translate(72.787654 0)scale(0.996264)"/>
      </g>
     </g>
    </g>
    <g id="ytick_2">
     <g id="line2d_6">
      <g>
       <use xlink:href="#m9c73567e71" x="54.195544" y="162.088681" style="stroke: #000000; stroke-width: 0.8"/>
      </g>
     </g>
     <g id="text_7">
      <!-- $\mathdefault{0.5}$ -->
      <g transform="translate(30.991432 166.585695)scale(0.13 -0.13)">
       <defs>
        <path id="CMR17-35" d="M 730 3750 
C 794 3724 1056 3641 1325 3641 
C 1920 3641 2246 3961 2432 4140 
C 2432 4191 2432 4224 2394 4224 
C 2387 4224 2374 4224 2323 4198 
C 2099 4102 1837 4032 1517 4032 
C 1325 4032 1037 4055 723 4191 
C 653 4224 640 4224 634 4224 
C 602 4224 595 4217 595 4090 
L 595 2231 
C 595 2113 595 2080 659 2080 
C 691 2080 704 2093 736 2139 
C 941 2435 1222 2560 1542 2560 
C 1766 2560 2246 2415 2246 1293 
C 2246 1087 2246 716 2054 422 
C 1894 159 1645 25 1370 25 
C 947 25 518 319 403 812 
C 429 806 480 793 506 793 
C 589 793 749 838 749 1036 
C 749 1209 627 1280 506 1280 
C 358 1280 262 1190 262 1011 
C 262 454 704 -128 1382 -128 
C 2042 -128 2669 441 2669 1267 
C 2669 2054 2170 2662 1549 2662 
C 1222 2662 947 2540 730 2304 
L 730 3750 
z
" transform="scale(0.015625)"/>
       </defs>
       <use xlink:href="#CMR17-30" transform="scale(0.996264)"/>
       <use xlink:href="#CMMI12-3a" transform="translate(45.690477 0)scale(0.996264)"/>
       <use xlink:href="#CMR17-35" transform="translate(72.787654 0)scale(0.996264)"/>
      </g>
     </g>
    </g>
    <g id="ytick_3">
     <g id="line2d_7">
      <g>
       <use xlink:href="#m9c73567e71" x="54.195544" y="129.602043" style="stroke: #000000; stroke-width: 0.8"/>
      </g>
     </g>
     <g id="text_8">
      <!-- $\mathdefault{1.0}$ -->
      <g transform="translate(30.991432 134.099057)scale(0.13 -0.13)">
       <defs>
        <path id="CMR17-31" d="M 1702 4083 
C 1702 4217 1696 4224 1606 4224 
C 1357 3927 979 3833 621 3820 
C 602 3820 570 3820 563 3808 
C 557 3795 557 3782 557 3648 
C 755 3648 1088 3686 1344 3839 
L 1344 467 
C 1344 243 1331 166 781 166 
L 589 166 
L 589 0 
C 896 6 1216 12 1523 12 
C 1830 12 2150 6 2458 0 
L 2458 166 
L 2266 166 
C 1715 166 1702 236 1702 467 
L 1702 4083 
z
" transform="scale(0.015625)"/>
       </defs>
       <use xlink:href="#CMR17-31" transform="scale(0.996264)"/>
       <use xlink:href="#CMMI12-3a" transform="translate(45.690477 0)scale(0.996264)"/>
       <use xlink:href="#CMR17-30" transform="translate(72.787654 0)scale(0.996264)"/>
      </g>
     </g>
    </g>
    <g id="ytick_4">
     <g id="line2d_8">
      <g>
       <use xlink:href="#m9c73567e71" x="54.195544" y="97.115405" style="stroke: #000000; stroke-width: 0.8"/>
      </g>
     </g>
     <g id="text_9">
      <!-- $\mathdefault{1.5}$ -->
      <g transform="translate(30.991432 101.612419)scale(0.13 -0.13)">
       <use xlink:href="#CMR17-31" transform="scale(0.996264)"/>
       <use xlink:href="#CMMI12-3a" transform="translate(45.690477 0)scale(0.996264)"/>
       <use xlink:href="#CMR17-35" transform="translate(72.787654 0)scale(0.996264)"/>
      </g>
     </g>
    </g>
    <g id="ytick_5">
     <g id="line2d_9">
      <g>
       <use xlink:href="#m9c73567e71" x="54.195544" y="64.628766" style="stroke: #000000; stroke-width: 0.8"/>
      </g>
     </g>
     <g id="text_10">
      <!-- $\mathdefault{2.0}$ -->
      <g transform="translate(30.991432 69.12578)scale(0.13 -0.13)">
       <use xlink:href="#CMR17-32" transform="scale(0.996264)"/>
       <use xlink:href="#CMMI12-3a" transform="translate(45.690477 0)scale(0.996264)"/>
       <use xlink:href="#CMR17-30" transform="translate(72.787654 0)scale(0.996264)"/>
      </g>
     </g>
    </g>
    <g id="ytick_6">
     <g id="line2d_10">
      <g>
       <use xlink:href="#m9c73567e71" x="54.195544" y="32.142128" style="stroke: #000000; stroke-width: 0.8"/>
      </g>
     </g>
     <g id="text_11">
      <!-- $\mathdefault{2.5}$ -->
      <g transform="translate(30.991432 36.639142)scale(0.13 -0.13)">
       <use xlink:href="#CMR17-32" transform="scale(0.996264)"/>
       <use xlink:href="#CMMI12-3a" transform="translate(45.690477 0)scale(0.996264)"/>
       <use xlink:href="#CMR17-35" transform="translate(72.787654 0)scale(0.996264)"/>
      </g>
     </g>
    </g>
    <g id="text_12">
     <!-- Time (s) -->
     <g transform="translate(23.753574 128.296787)rotate(-90)scale(0.13 -0.13)">
      <defs>
       <path id="CMR17-54" d="M 3981 4332 
L 288 4332 
L 179 2924 
L 294 2924 
C 378 3981 467 4166 1453 4166 
C 1568 4166 1754 4166 1805 4159 
C 1926 4140 1926 4064 1926 3917 
L 1926 465 
C 1926 236 1907 166 1376 166 
L 1197 166 
L 1197 0 
C 1504 6 1824 12 2138 12 
C 2451 12 2771 6 3078 0 
L 3078 166 
L 2899 166 
C 2368 166 2349 236 2349 465 
L 2349 3917 
C 2349 4057 2349 4134 2464 4159 
C 2515 4166 2701 4166 2816 4166 
C 3795 4166 3891 3981 3974 2924 
L 4090 2924 
L 3981 4332 
z
" transform="scale(0.015625)"/>
       <path id="CMR17-69" d="M 992 3961 
C 992 4102 877 4224 730 4224 
C 589 4224 467 4108 467 3961 
C 467 3820 582 3699 730 3699 
C 870 3699 992 3814 992 3961 
z
M 243 2745 
L 243 2579 
C 602 2579 653 2540 653 2231 
L 653 443 
C 653 198 627 166 218 166 
L 218 0 
C 371 12 646 12 806 12 
C 960 12 1222 12 1370 0 
L 1370 166 
C 992 166 979 205 979 436 
L 979 2816 
L 243 2745 
z
" transform="scale(0.015625)"/>
       <path id="CMR17-28" d="M 1958 -1562 
C 1958 -1556 1958 -1543 1939 -1524 
C 1645 -1223 858 -403 858 1596 
C 858 3595 1632 4408 1946 4729 
C 1946 4735 1958 4748 1958 4767 
C 1958 4787 1939 4800 1914 4800 
C 1843 4800 1299 4325 986 3620 
C 666 2909 576 2218 576 1603 
C 576 1141 621 360 1005 -467 
C 1312 -1133 1837 -1600 1914 -1600 
C 1946 -1600 1958 -1588 1958 -1562 
z
" transform="scale(0.015625)"/>
       <path id="CMR17-29" d="M 1683 1596 
C 1683 2057 1638 2839 1254 3665 
C 947 4332 422 4800 346 4800 
C 326 4800 301 4793 301 4761 
C 301 4748 307 4742 314 4729 
C 621 4408 1402 3595 1402 1603 
C 1402 -396 627 -1210 314 -1530 
C 307 -1543 301 -1549 301 -1562 
C 301 -1594 326 -1600 346 -1600 
C 416 -1600 960 -1127 1274 -422 
C 1594 289 1683 981 1683 1596 
z
" transform="scale(0.015625)"/>
      </defs>
      <use xlink:href="#CMR17-54" transform="scale(0.996264)"/>
      <use xlink:href="#CMR17-69" transform="translate(66.509881 0)scale(0.996264)"/>
      <use xlink:href="#CMR17-6d" transform="translate(91.380939 0)scale(0.996264)"/>
      <use xlink:href="#CMR17-65" transform="translate(168.300529 0)scale(0.996264)"/>
      <use xlink:href="#CMR17-28" transform="translate(238.862156 0)scale(0.996264)"/>
      <use xlink:href="#CMR17-73" transform="translate(274.142924 0)scale(0.996264)"/>
      <use xlink:href="#CMR17-29" transform="translate(309.944261 0)scale(0.996264)"/>
     </g>
    </g>
   </g>
   <g id="patch_39">
    <path d="M 54.195544 194.57532 
L 54.195544 14.04 
" style="fill: none; stroke: #000000; stroke-width: 1.2; stroke-linejoin: miter; stroke-linecap: square"/>
   </g>
   <g id="patch_40">
    <path d="M 471.96 194.57532 
L 471.96 14.04 
" style="fill: none; stroke: #000000; stroke-width: 1.2; stroke-linejoin: miter; stroke-linecap: square"/>
   </g>
   <g id="patch_41">
    <path d="M 54.195544 194.57532 
L 471.96 194.57532 
" style="fill: none; stroke: #000000; stroke-width: 1.2; stroke-linejoin: miter; stroke-linecap: square"/>
   </g>
   <g id="patch_42">
    <path d="M 54.195544 14.04 
L 471.96 14.04 
" style="fill: none; stroke: #000000; stroke-width: 1.2; stroke-linejoin: miter; stroke-linecap: square"/>
   </g>
   <g id="legend_1">
    <g id="patch_43">
     <path d="M 63.295544 96.913248 
L 257.16023 96.913248 
Q 259.76023 96.913248 259.76023 94.313248 
L 259.76023 23.14 
Q 259.76023 20.54 257.16023 20.54 
L 63.295544 20.54 
Q 60.695544 20.54 60.695544 23.14 
L 60.695544 94.313248 
Q 60.695544 96.913248 63.295544 96.913248 
z
" style="fill: #ffffff; opacity: 0.8; stroke: #cccccc; stroke-linejoin: miter"/>
    </g>
    <g id="patch_44">
     <path d="M 65.895544 34.84 
L 91.895544 34.84 
L 91.895544 25.74 
L 65.895544 25.74 
z
" style="fill: #1f77b4"/>
    </g>
    <g id="text_13">
     <!-- Diagonalise Hamiltonian -->
     <g transform="translate(102.295544 34.84)scale(0.13 -0.13)">
      <defs>
       <path id="CMR17-44" d="M 333 4352 
L 333 4185 
C 774 4185 845 4185 845 3898 
L 845 453 
C 845 166 774 166 333 166 
L 333 0 
L 2368 0 
C 3398 0 4224 943 4224 2140 
C 4224 3344 3411 4352 2368 4352 
L 333 4352 
z
M 1523 166 
C 1267 166 1254 198 1254 414 
L 1254 3936 
C 1254 4153 1267 4185 1523 4185 
L 2240 4185 
C 2771 4185 3750 3873 3750 2140 
C 3750 1242 3488 879 3366 707 
C 3213 510 2848 166 2240 166 
L 1523 166 
z
" transform="scale(0.015625)"/>
       <path id="CMR17-67" d="M 710 1165 
C 832 1068 1043 960 1299 960 
C 1805 960 2240 1359 2240 1895 
C 2240 2063 2189 2321 1997 2521 
C 2176 2713 2438 2777 2586 2777 
C 2611 2777 2650 2777 2682 2758 
C 2656 2751 2598 2726 2598 2623 
C 2598 2540 2656 2483 2739 2483 
C 2835 2483 2886 2547 2886 2630 
C 2886 2751 2790 2880 2586 2880 
C 2330 2880 2106 2758 1926 2591 
C 1734 2764 1504 2828 1299 2828 
C 794 2828 358 2431 358 1895 
C 358 1527 570 1294 634 1230 
C 442 1004 442 742 442 710 
C 442 544 506 300 723 166 
C 390 82 128 -184 128 -517 
C 128 -996 736 -1344 1466 -1344 
C 2170 -1344 2803 -1009 2803 -510 
C 2803 384 1856 384 1363 384 
C 1216 384 954 384 922 390 
C 723 422 589 601 589 825 
C 589 883 589 1024 710 1165 
z
M 1299 1068 
C 736 1068 736 1766 736 1895 
C 736 2024 736 2719 1299 2719 
C 1862 2719 1862 2024 1862 1895 
C 1862 1766 1862 1068 1299 1068 
z
M 1466 -1236 
C 826 -1236 384 -883 384 -517 
C 384 -311 493 -118 634 -11 
C 794 102 858 102 1293 102 
C 1818 102 2547 102 2547 -517 
C 2547 -883 2106 -1236 1466 -1236 
z
" transform="scale(0.015625)"/>
       <path id="CMR17-6e" d="M 2656 1954 
C 2656 2282 2592 2816 1837 2816 
C 1331 2816 1069 2424 973 2166 
L 966 2166 
L 966 2816 
L 211 2745 
L 211 2578 
C 589 2578 646 2540 646 2231 
L 646 443 
C 646 198 621 166 211 166 
L 211 0 
C 365 12 646 12 813 12 
C 979 12 1267 12 1421 0 
L 1421 166 
C 1011 166 986 192 986 443 
L 986 1678 
C 986 2269 1344 2713 1792 2713 
C 2266 2713 2317 2289 2317 1980 
L 2317 443 
C 2317 198 2291 166 1882 166 
L 1882 0 
C 2035 12 2317 12 2483 12 
C 2650 12 2938 12 3091 0 
L 3091 166 
C 2682 166 2656 192 2656 443 
L 2656 1954 
z
" transform="scale(0.015625)"/>
       <path id="CMR17-48" d="M 3590 3898 
C 3590 4185 3661 4185 4102 4185 
L 4102 4352 
C 3917 4339 3578 4339 3379 4339 
C 3181 4339 2842 4339 2656 4352 
L 2656 4185 
C 3098 4185 3168 4185 3168 3898 
L 3168 2342 
L 1261 2342 
L 1261 3898 
C 1261 4185 1331 4185 1773 4185 
L 1773 4352 
C 1587 4339 1248 4339 1050 4339 
C 851 4339 512 4339 326 4352 
L 326 4185 
C 768 4185 838 4185 838 3898 
L 838 452 
C 838 166 768 166 326 166 
L 326 0 
C 512 12 851 12 1050 12 
C 1248 12 1587 12 1773 0 
L 1773 166 
C 1331 166 1261 166 1261 452 
L 1261 2176 
L 3168 2176 
L 3168 452 
C 3168 166 3098 166 2656 166 
L 2656 0 
C 2842 12 3181 12 3379 12 
C 3578 12 3917 12 4102 0 
L 4102 166 
C 3661 166 3590 166 3590 452 
L 3590 3898 
z
" transform="scale(0.015625)"/>
      </defs>
      <use xlink:href="#CMR17-44" transform="scale(0.996264)"/>
      <use xlink:href="#CMR17-69" transform="translate(70.393556 0)scale(0.996264)"/>
      <use xlink:href="#CMR17-61" transform="translate(95.264614 0)scale(0.996264)"/>
      <use xlink:href="#CMR17-67" transform="translate(140.955092 0)scale(0.996264)"/>
      <use xlink:href="#CMR17-6f" transform="translate(186.645569 0)scale(0.996264)"/>
      <use xlink:href="#CMR17-6e" transform="translate(232.336046 0)scale(0.996264)"/>
      <use xlink:href="#CMR17-61" transform="translate(283.231416 0)scale(0.996264)"/>
      <use xlink:href="#CMR17-6c" transform="translate(328.921893 0)scale(0.996264)"/>
      <use xlink:href="#CMR17-69" transform="translate(353.792951 0)scale(0.996264)"/>
      <use xlink:href="#CMR17-73" transform="translate(378.66401 0)scale(0.996264)"/>
      <use xlink:href="#CMR17-65" transform="translate(414.465347 0)scale(0.996264)"/>
      <use xlink:href="#CMR17-48" transform="translate(485.026974 0)scale(0.996264)"/>
      <use xlink:href="#CMR17-61" transform="translate(554.099404 0)scale(0.996264)"/>
      <use xlink:href="#CMR17-6d" transform="translate(599.789881 0)scale(0.996264)"/>
      <use xlink:href="#CMR17-69" transform="translate(676.709471 0)scale(0.996264)"/>
      <use xlink:href="#CMR17-6c" transform="translate(701.580529 0)scale(0.996264)"/>
      <use xlink:href="#CMR17-74" transform="translate(726.451588 0)scale(0.996264)"/>
      <use xlink:href="#CMR17-6f" transform="translate(761.732356 0)scale(0.996264)"/>
      <use xlink:href="#CMR17-6e" transform="translate(807.422833 0)scale(0.996264)"/>
      <use xlink:href="#CMR17-69" transform="translate(858.318202 0)scale(0.996264)"/>
      <use xlink:href="#CMR17-61" transform="translate(883.189261 0)scale(0.996264)"/>
      <use xlink:href="#CMR17-6e" transform="translate(928.879738 0)scale(0.996264)"/>
     </g>
    </g>
    <g id="patch_45">
     <path d="M 65.895544 52.958312 
L 91.895544 52.958312 
L 91.895544 43.858312 
L 65.895544 43.858312 
z
" style="fill: #ff7f0e"/>
    </g>
    <g id="text_14">
     <!-- Compute Ground State ujk -->
     <g transform="translate(102.295544 52.958312)scale(0.13 -0.13)">
      <defs>
       <path id="CMR17-43" d="M 3974 4351 
C 3974 4467 3968 4473 3930 4473 
C 3904 4473 3898 4467 3853 4390 
L 3571 3849 
C 3258 4249 2874 4480 2381 4480 
C 1286 4480 294 3507 294 2179 
C 294 837 1286 -128 2387 -128 
C 3366 -128 3974 741 3974 1482 
C 3974 1547 3974 1573 3917 1573 
C 3866 1573 3866 1553 3859 1495 
C 3808 592 3168 38 2477 38 
C 1824 38 781 502 781 2179 
C 781 3862 1843 4313 2464 4313 
C 3187 4313 3712 3681 3834 2785 
C 3846 2707 3846 2695 3904 2695 
C 3974 2695 3974 2707 3974 2824 
L 3974 4351 
z
" transform="scale(0.015625)"/>
       <path id="CMR17-70" d="M 1408 -1114 
C 998 -1114 973 -1088 973 -834 
L 973 380 
C 1158 109 1427 -64 1766 -64 
C 2406 -64 3053 503 3053 1382 
C 3053 2196 2496 2816 1837 2816 
C 1453 2816 1139 2603 960 2345 
L 960 2816 
L 198 2745 
L 198 2577 
C 576 2577 634 2539 634 2228 
L 634 -834 
C 634 -1081 608 -1114 198 -1114 
L 198 -1280 
C 352 -1268 634 -1268 800 -1268 
C 966 -1268 1254 -1268 1408 -1280 
L 1408 -1114 
z
M 973 2015 
C 973 2106 973 2241 1222 2481 
C 1254 2506 1472 2700 1792 2700 
C 2259 2700 2643 2112 2643 1376 
C 2643 639 2234 38 1728 38 
C 1498 38 1248 148 1056 451 
C 973 594 973 632 973 736 
L 973 2015 
z
" transform="scale(0.015625)"/>
       <path id="CMR17-47" d="M 3974 1258 
C 3974 1503 3994 1536 4390 1536 
L 4390 1702 
C 4237 1689 3891 1689 3718 1689 
C 3539 1689 3040 1696 2797 1702 
L 2797 1536 
L 2989 1536 
C 3539 1536 3552 1464 3552 1232 
L 3552 806 
C 3552 96 2720 38 2522 38 
C 1862 38 781 496 781 2179 
C 781 3862 1843 4313 2464 4313 
C 3187 4313 3712 3681 3834 2785 
C 3846 2708 3846 2695 3904 2695 
C 3974 2695 3974 2708 3974 2824 
L 3974 4351 
C 3974 4467 3968 4473 3930 4473 
C 3904 4473 3898 4467 3853 4390 
L 3571 3849 
C 3258 4249 2874 4480 2381 4480 
C 1286 4480 294 3507 294 2179 
C 294 858 1267 -128 2394 -128 
C 2912 -128 3418 57 3616 425 
C 3725 161 3904 -20 3936 -20 
C 3968 -20 3974 -13 3974 102 
L 3974 1258 
z
" transform="scale(0.015625)"/>
       <path id="CMR17-64" d="M 1869 4345 
L 1869 4179 
C 2246 4179 2304 4141 2304 3843 
L 2304 2371 
C 2278 2403 2016 2816 1498 2816 
C 845 2816 211 2228 211 1376 
C 211 529 806 -64 1434 -64 
C 1978 -64 2259 361 2291 406 
L 2291 -64 
L 3066 -13 
L 3066 154 
C 2688 154 2630 193 2630 503 
L 2630 4416 
L 1869 4345 
z
M 2291 762 
C 2291 568 2176 393 2029 264 
C 1811 70 1594 38 1472 38 
C 1286 38 621 135 621 1369 
C 621 2636 1363 2713 1530 2713 
C 1824 2713 2061 2545 2208 2313 
C 2291 2177 2291 2157 2291 2041 
L 2291 762 
z
" transform="scale(0.015625)"/>
       <path id="CMR17-53" d="M 2803 4351 
C 2803 4467 2797 4473 2758 4473 
C 2720 4473 2707 4447 2682 4390 
L 2490 3965 
C 2246 4320 1875 4480 1472 4480 
C 819 4480 294 3958 294 3301 
C 294 3101 339 2817 557 2546 
C 794 2250 1018 2198 1530 2063 
C 1722 2011 2042 1927 2106 1901 
C 2470 1747 2662 1360 2662 999 
C 2662 534 2336 38 1779 38 
C 1094 38 454 425 410 1328 
C 403 1431 397 1437 352 1437 
C 301 1437 294 1431 294 1302 
L 294 0 
C 294 -116 301 -122 339 -122 
C 384 -122 397 -90 486 109 
C 493 128 493 141 614 386 
C 934 -39 1472 -128 1779 -128 
C 2477 -128 2970 457 2970 1141 
C 2970 1476 2848 1734 2778 1850 
C 2509 2263 2221 2340 1914 2417 
C 1869 2437 1856 2437 1498 2527 
C 1152 2617 1005 2662 845 2836 
C 666 3036 602 3243 602 3449 
C 602 3868 934 4326 1478 4326 
C 2157 4326 2579 3842 2675 3036 
C 2694 2920 2701 2914 2746 2914 
C 2803 2914 2803 2933 2803 3043 
L 2803 4351 
z
" transform="scale(0.015625)"/>
       <path id="CMR17-6a" d="M 1165 3961 
C 1165 4102 1050 4224 902 4224 
C 762 4224 640 4108 640 3961 
C 640 3820 755 3699 902 3699 
C 1043 3699 1165 3814 1165 3961 
z
M 365 2745 
L 365 2579 
C 787 2579 838 2533 838 2221 
L 838 -410 
C 838 -735 781 -1242 403 -1242 
C 358 -1242 186 -1236 45 -1145 
C 90 -1138 250 -1093 250 -911 
C 250 -787 166 -677 19 -677 
C -122 -677 -211 -774 -211 -917 
C -211 -1177 70 -1344 397 -1344 
C 838 -1344 1165 -937 1165 -384 
L 1165 2816 
L 365 2745 
z
" transform="scale(0.015625)"/>
       <path id="CMR17-6b" d="M 1670 1679 
C 1664 1692 1632 1730 1632 1749 
C 1632 1762 2086 2175 2144 2226 
C 2509 2532 2739 2563 2906 2570 
L 2906 2735 
C 2867 2735 2854 2735 2848 2729 
L 2534 2722 
C 2355 2722 2080 2722 1907 2735 
L 1907 2570 
C 1997 2563 2061 2513 2061 2423 
C 2061 2296 1933 2175 1926 2175 
L 960 1298 
L 960 4416 
L 198 4345 
L 198 4179 
C 576 4179 634 4141 634 3835 
L 634 439 
C 634 198 608 166 198 166 
L 198 0 
C 352 12 634 12 794 12 
C 954 12 1235 12 1389 0 
L 1389 166 
C 979 166 954 191 954 439 
L 954 1139 
L 1395 1540 
L 2042 586 
C 2118 471 2182 382 2182 299 
C 2182 185 2067 166 1990 166 
L 1990 0 
C 2144 12 2419 12 2579 12 
C 2694 12 2931 6 3040 0 
L 3040 166 
C 2739 166 2669 223 2477 503 
L 1670 1679 
z
" transform="scale(0.015625)"/>
      </defs>
      <use xlink:href="#CMR17-43" transform="scale(0.996264)"/>
      <use xlink:href="#CMR17-6f" transform="translate(66.509881 0)scale(0.996264)"/>
      <use xlink:href="#CMR17-6d" transform="translate(112.200358 0)scale(0.996264)"/>
      <use xlink:href="#CMR17-70" transform="translate(189.119948 0)scale(0.996264)"/>
      <use xlink:href="#CMR17-75" transform="translate(240.015317 0)scale(0.996264)"/>
      <use xlink:href="#CMR17-74" transform="translate(290.910687 0)scale(0.996264)"/>
      <use xlink:href="#CMR17-65" transform="translate(326.191455 0)scale(0.996264)"/>
      <use xlink:href="#CMR17-47" transform="translate(396.753082 0)scale(0.996264)"/>
      <use xlink:href="#CMR17-72" transform="translate(469.108428 0)scale(0.996264)"/>
      <use xlink:href="#CMR17-6f" transform="translate(504.389195 0)scale(0.996264)"/>
      <use xlink:href="#CMR17-75" transform="translate(550.079673 0)scale(0.996264)"/>
      <use xlink:href="#CMR17-6e" transform="translate(600.975042 0)scale(0.996264)"/>
      <use xlink:href="#CMR17-64" transform="translate(651.870412 0)scale(0.996264)"/>
      <use xlink:href="#CMR17-53" transform="translate(732.841748 0)scale(0.996264)"/>
      <use xlink:href="#CMR17-74" transform="translate(783.737118 0)scale(0.996264)"/>
      <use xlink:href="#CMR17-61" transform="translate(819.017886 0)scale(0.996264)"/>
      <use xlink:href="#CMR17-74" transform="translate(864.708363 0)scale(0.996264)"/>
      <use xlink:href="#CMR17-65" transform="translate(899.989131 0)scale(0.996264)"/>
      <use xlink:href="#CMR17-75" transform="translate(970.550758 0)scale(0.996264)"/>
      <use xlink:href="#CMR17-6a" transform="translate(1021.446127 0)scale(0.996264)"/>
      <use xlink:href="#CMR17-6b" transform="translate(1048.91964 0)scale(0.996264)"/>
     </g>
    </g>
    <g id="patch_46">
     <path d="M 65.895544 71.076624 
L 91.895544 71.076624 
L 91.895544 61.976624 
L 65.895544 61.976624 
z
" style="fill: #2ca02c"/>
    </g>
    <g id="text_15">
     <!-- Color lattice -->
     <g transform="translate(102.295544 71.076624)scale(0.13 -0.13)">
      <defs>
       <path id="CMR17-63" d="M 2234 2240 
C 2112 2240 1933 2240 1933 2015 
C 1933 1836 2080 1785 2163 1785 
C 2208 1785 2394 1804 2394 2028 
C 2394 2476 1958 2816 1466 2816 
C 787 2816 211 2201 211 1379 
C 211 521 813 -64 1466 -64 
C 2259 -64 2458 676 2458 747 
C 2458 773 2451 792 2406 792 
C 2362 792 2355 786 2330 702 
C 2163 180 1798 51 1523 51 
C 1114 51 621 431 621 1385 
C 621 2358 1094 2700 1472 2700 
C 1722 2700 2093 2582 2234 2240 
z
" transform="scale(0.015625)"/>
      </defs>
      <use xlink:href="#CMR17-43" transform="scale(0.996264)"/>
      <use xlink:href="#CMR17-6f" transform="translate(66.509881 0)scale(0.996264)"/>
      <use xlink:href="#CMR17-6c" transform="translate(112.200358 0)scale(0.996264)"/>
      <use xlink:href="#CMR17-6f" transform="translate(137.071416 0)scale(0.996264)"/>
      <use xlink:href="#CMR17-72" transform="translate(182.761893 0)scale(0.996264)"/>
      <use xlink:href="#CMR17-6c" transform="translate(248.118627 0)scale(0.996264)"/>
      <use xlink:href="#CMR17-61" transform="translate(272.989686 0)scale(0.996264)"/>
      <use xlink:href="#CMR17-74" transform="translate(318.680163 0)scale(0.996264)"/>
      <use xlink:href="#CMR17-74" transform="translate(353.960931 0)scale(0.996264)"/>
      <use xlink:href="#CMR17-69" transform="translate(389.241699 0)scale(0.996264)"/>
      <use xlink:href="#CMR17-63" transform="translate(414.112757 0)scale(0.996264)"/>
      <use xlink:href="#CMR17-65" transform="translate(454.598418 0)scale(0.996264)"/>
     </g>
    </g>
    <g id="patch_47">
     <path d="M 65.895544 89.194936 
L 91.895544 89.194936 
L 91.895544 80.094936 
L 65.895544 80.094936 
z
" style="fill: #d62728"/>
    </g>
    <g id="text_16">
     <!-- Voronise points -->
     <g transform="translate(102.295544 89.194936)scale(0.13 -0.13)">
      <defs>
       <path id="CMR17-56" d="M 3776 3762 
C 3834 3903 3936 4179 4365 4185 
L 4365 4352 
C 4218 4339 4051 4339 3891 4339 
C 3738 4339 3475 4339 3328 4352 
L 3328 4185 
C 3648 4166 3661 3942 3661 3903 
C 3661 3833 3642 3788 3622 3737 
L 2362 448 
L 1043 3903 
C 1024 3948 1011 3980 1011 4012 
C 1011 4185 1267 4185 1402 4185 
L 1402 4352 
C 1197 4339 896 4339 685 4339 
C 518 4339 218 4339 64 4352 
L 64 4185 
C 435 4185 506 4160 582 3955 
L 2106 -26 
C 2138 -116 2144 -128 2214 -128 
C 2285 -128 2291 -116 2323 -26 
L 3776 3762 
z
" transform="scale(0.015625)"/>
      </defs>
      <use xlink:href="#CMR17-56" transform="scale(0.996264)"/>
      <use xlink:href="#CMR17-6f" transform="translate(61.265174 0)scale(0.996264)"/>
      <use xlink:href="#CMR17-72" transform="translate(106.955652 0)scale(0.996264)"/>
      <use xlink:href="#CMR17-6f" transform="translate(142.236419 0)scale(0.996264)"/>
      <use xlink:href="#CMR17-6e" transform="translate(187.926896 0)scale(0.996264)"/>
      <use xlink:href="#CMR17-69" transform="translate(238.822266 0)scale(0.996264)"/>
      <use xlink:href="#CMR17-73" transform="translate(263.693325 0)scale(0.996264)"/>
      <use xlink:href="#CMR17-65" transform="translate(299.494662 0)scale(0.996264)"/>
      <use xlink:href="#CMR17-70" transform="translate(370.056289 0)scale(0.996264)"/>
      <use xlink:href="#CMR17-6f" transform="translate(423.554098 0)scale(0.996264)"/>
      <use xlink:href="#CMR17-69" transform="translate(469.244575 0)scale(0.996264)"/>
      <use xlink:href="#CMR17-6e" transform="translate(494.115633 0)scale(0.996264)"/>
      <use xlink:href="#CMR17-74" transform="translate(542.408549 0)scale(0.996264)"/>
      <use xlink:href="#CMR17-73" transform="translate(577.689317 0)scale(0.996264)"/>
     </g>
    </g>
   </g>
  </g>
 </g>
 <defs>
  <clipPath id="pd50d4f5464">
   <rect x="54.195544" y="14.04" width="417.764456" height="180.53532"/>
  </clipPath>
 </defs>
</svg>
