<svg xmlns="http://www.w3.org/2000/svg" width="500" height="500"><defs><clipPath id="a" clipPathUnits="userSpaceOnUse"><path d="M3091 6562h3910v3516H3091z"/></clipPath></defs><g clip-path="url(#a)" transform="matrix(.12779 0 0 -.12779 -394.825 1313.207)"><path d="M6.228 284.296c-60.213 3.946-116.855-49.361-147.64-138.947s-30.784-201.112 0-290.698c30.785-89.586 87.427-142.893 147.64-138.947" style="fill:none;stroke:#000;stroke-width:17;stroke-linecap:round;stroke-linejoin:round;stroke-miterlimit:10;stroke-dasharray:none;stroke-opacity:1" transform="rotate(29.998 -12961.602 11026.334)"/><path d="M129.754-225.214c71.661 124.382 71.661 326.046 0 450.428-71.661 124.381-187.847 124.381-259.508 0-71.661-124.382-71.661-326.046 0-450.428 71.661-124.381 187.847-124.381 259.508 0" style="fill:none;stroke:#000;stroke-width:17;stroke-linecap:round;stroke-linejoin:round;stroke-miterlimit:10;stroke-dasharray:none;stroke-opacity:1" transform="rotate(-150.002 2915.56 3462.31)"/><path d="m6812 7603 2 1 3 2 2 2 2 2 3 2 2 2 2 3 2 2 2 3 1 3 2 3 2 4 1 3 2 4 1 3 1 4 1 4 1 5 1 4 1 5v4l1 5 1 5v11l1 5v42l-1 7v19l-1 7-1 14-1 14-1 14-1 14-1 15-1 14-1 15-2 15-1 15-2 15-1 8-1 8-1 7-1 8-2 8-1 8-1 7-2 8-1 8-2 8-2 8-2 8-2 8-2 8-2 8-2 8-2 9-3 8-2 8-3 8-3 8-3 9-3 8-3 8-3 8-4 9-3 8-3 8-4 8-4 8-3 8-4 8-4 8-4 8-4 8-4 8-4 8-4 7-4 8-4 7-4 8-4 7-4 7-4 7-4 6-3 7-4 6-4 6-3 6-4 6-3 6-3 5-3 5-3 5-3 5-2 4-3 4-2 4-1 2-1 2-1 1-1 2-1 2v1l-1 2-1 1-1 1v2l-1 1-1 1v1l-1 1v2h-1v3h-1v1l-1523-880v-1h1v-2l1-1v-1l1-1v-1l1-1v-1l1-1 1-2v-1l1-2 1-1 1-2 1-1 1-2 1-2 1-2 1-2 1-2 1-2 1-2 2-2 2-5 3-5 3-5 4-5 3-6 3-6 4-6 3-6 4-6 4-7 4-7 4-7 4-7 4-7 4-8 4-7 4-8 4-8 5-8 4-8 4-8 4-8 4-8 4-8 3-9 4-8 4-9 3-8 4-8 3-9 4-8 3-9 3-8 3-9 3-8 2-9 3-8 2-8 3-9 2-8 2-8 2-9 2-8 2-8 2-8 1-8 2-8 1-8 2-8 1-8 1-8 2-8 1-8 1-8 1-16 2-15 2-16 1-15 1-15 1-15 2-14 1-15v-14l1-7v-7l1-7v-20l1-7v-36l-1-6v-11l-1-5-1-5v-5l-1-5-1-4-1-5-1-4-1-4-1-4-2-4-1-3-2-4-2-3-2-3-2-3-2-2-2-3-2-2-2-2-3-2-2-2-3-2-2-1-3-2-3-1-3-1-3-1-3-1-3-1h-3l-3-1h-3l-4-1h-13l-4 1h-4l-3 1h-4l-4 1-4 1-4 1-5 1-4 1-5 1-4 2-5 2-5 1-5 2-6 3-5 2-6 2-6 3-6 3-6 2-3 2-3 1-4 2-3 2-4 1-3 2-4 2-3 2-4 2-4 2-4 1-3 2-4 2-4 3-4 2-4 2-5 2-4 2-4 3-4 2-5 2-4 3-5 2-5 3-4 3-5 2-5 3-5 3-5 2-5 3-5 3-5 3-5 3-5 3-5 3-6 3-5 3-6 3-5 3-6 3-5 4-6 3-12 6-11 7-12 7-12 7-13 8-12 7-13 7-13 8-13 7-13 8-13 8-14 8-13 8-14 8-14 8-13 8-14 8-14 8-28 17-56 33-28 16-14 9-14 8-14 8-13 8-14 7-13 8-13 8-14 8-13 7-12 8-13 7-12 7-13 7-6 3-6 4-6 3-5 3-6 4-6 3-6 3-5 3-6 3-5 4-6 3-5 3-5 2-6 3-5 3-5 3-5 3-5 2-4 3-5 3-5 2-4 3-5 2-4 2-5 3-4 2-4 2-4 2-4 3-4 2-4 2-4 1-3 2-4 2-3 2-4 2-3 1-3 2-3 1-3 2-3 1-3 1-3 2-2 1-3 1-2 1-3 1-2 1-2 1h-2l-2 1-2 1h-2l-1 1h-2l-1 1h-2l-1 1h-6l-1-1-1-1v-1l1-1v-1l7 4M4978 9332l-5-1h-5l-6-1-5-1-4-1-5-1-5-1-5-2-4-1-5-2-4-2-5-1-4-2-4-2-4-2-4-3M3410 7724l-5 3-5 4-5 3-5 4-5 3-5 4-5 4-5 4-4 4-5 5-5 4-5 5-4 5-5 4-4 5-5 6-4 5-5 5-4 6-4 5-4 6-4 6-5 5-3 6-4 7-4 6-4 6-3 7-4 6-3 7-3 7-3 6-3 7-3 7-2 7-3 8-2 7-2 7-2 8-2 7-2 8-1 7-2 8-1 8-1 7-1 8-1 8v8l-1 8v40l1 8v8l1 8 1 9v8l1 8 1 8 1 8 1 8 2 8 1 8 1 8 3 16 3 16 3 15 4 15 1 8 2 7 2 8 2 7 2 7 1 7 2 7 2 7 2 7 2 7 3 7 2 6 2 7 2 6 3 6 2 6 2 6 3 6 2 6 3 5 3 6 3 5 2 5 3 5 3 5 3 5 4 5 3 4 3 5 4 4 4 4 3 4 4 4 4 3 4 4 4 3 4 3 5 3 4 3 4 3 5 2 5 3 5 2 5 2 5 2 5 2 5 2 5 1 6 1 6 2 5 1 6 1h6l6 1 115 67M4328 8957l64 36M4753 9202l225 130M6655 8363l-1288 744M5282 9156l-304 176M4215 7259l-805 465M3455 8452l1677-969M5288 6723l1524 880M3381 8430l189 109M4299 8960l75 44M4735 9212l169 97" style="fill:none;stroke:#000;stroke-width:17;stroke-linecap:round;stroke-linejoin:round;stroke-miterlimit:10;stroke-dasharray:none;stroke-opacity:1"/><path d="M7.425-13.081c4.1 7.224 4.1 18.938 0 26.162s-10.75 7.225-14.85 0-4.1-18.938 0-26.162 10.75-7.225 14.85 0" style="fill:none;stroke:#000;stroke-width:17;stroke-linecap:round;stroke-linejoin:round;stroke-miterlimit:10;stroke-dasharray:none;stroke-opacity:1" transform="rotate(-150.002 2990.49 3721.97)"/><path d="M4672.652 8607.833c11.13 6.443 11.13 16.89 0 23.334s-29.175 6.444-40.304 0c-11.13-6.443-11.13-16.89 0-23.334s29.174-6.444 40.304 0" style="fill:none;stroke:#000;stroke-width:17;stroke-linecap:round;stroke-linejoin:round;stroke-miterlimit:10;stroke-dasharray:none;stroke-opacity:1"/><path d="M-23.309-15.462c13.363-6.717 33.255-6.717 46.618 0" style="fill:none;stroke:#000;stroke-width:17;stroke-linecap:round;stroke-linejoin:round;stroke-miterlimit:10;stroke-dasharray:none;stroke-opacity:1" transform="rotate(180 2110.25 4119.25)"/><path d="M35.433-1.257c.905 8.505-7.395 16.446-20.848 19.947s-29.253 1.83-39.687-4.194C-35.536 8.47-38.428-.654-32.366-8.422c6.063-7.769 19.815-12.562 34.543-12.04" style="fill:none;stroke:#000;stroke-width:17;stroke-linecap:round;stroke-linejoin:round;stroke-miterlimit:10;stroke-dasharray:none;stroke-opacity:1" transform="rotate(180 2110.25 4134.75)"/><path d="M-9.213-11.294c5.83-1.608 12.595-1.608 18.426 0" style="fill:none;stroke:#000;stroke-width:17;stroke-linecap:round;stroke-linejoin:round;stroke-miterlimit:10;stroke-dasharray:none;stroke-opacity:1" transform="rotate(180 2110.25 4119.25)"/><path d="M-23.309-15.462c13.363-6.717 33.255-6.717 46.618 0" style="fill:none;stroke:#000;stroke-width:17;stroke-linecap:round;stroke-linejoin:round;stroke-miterlimit:10;stroke-dasharray:none;stroke-opacity:1" transform="rotate(180 2792.75 4055.75)"/><path d="M5610.602 8128.004c13.864 8.006 13.864 20.986 0 28.992-13.863 8.006-36.34 8.006-50.204 0s-13.864-20.986 0-28.992c13.863-8.006 36.34-8.006 50.204 0" style="fill:none;stroke:#000;stroke-width:17;stroke-linecap:round;stroke-linejoin:round;stroke-miterlimit:10;stroke-dasharray:none;stroke-opacity:1"/><path d="M-9.213-11.294c5.83-1.608 12.595-1.608 18.426 0" style="fill:none;stroke:#000;stroke-width:17;stroke-linecap:round;stroke-linejoin:round;stroke-miterlimit:10;stroke-dasharray:none;stroke-opacity:1" transform="rotate(180 2792.75 4055.75)"/><path d="M-23.309-15.462c13.363-6.717 33.255-6.717 46.618 0" style="fill:none;stroke:#000;stroke-width:17;stroke-linecap:round;stroke-linejoin:round;stroke-miterlimit:10;stroke-dasharray:none;stroke-opacity:1" transform="rotate(180 2116.75 4435.25)"/><path d="M4258.602 8887.004c13.864 8.006 13.864 20.986 0 28.992-13.863 8.005-36.34 8.005-50.204 0s-13.864-20.986 0-28.992c13.863-8.005 36.34-8.005 50.204 0" style="fill:none;stroke:#000;stroke-width:17;stroke-linecap:round;stroke-linejoin:round;stroke-miterlimit:10;stroke-dasharray:none;stroke-opacity:1"/><path d="M-9.213-11.294c5.83-1.608 12.595-1.608 18.426 0" style="fill:none;stroke:#000;stroke-width:17;stroke-linecap:round;stroke-linejoin:round;stroke-miterlimit:10;stroke-dasharray:none;stroke-opacity:1" transform="rotate(180 2116.75 4435.25)"/><path d="M347.062-178.936c65.74 42.422 106.417 95.793 116.161 152.413M451.669 64.965C398.067 188.95 200.408 273.967-20.901 268.23c-221.31-5.737-404.95-100.64-439.05-226.898" style="fill:none;stroke:#000;stroke-width:17;stroke-linecap:round;stroke-linejoin:round;stroke-miterlimit:10;stroke-dasharray:none;stroke-opacity:1" transform="rotate(180 2450.75 4321.25)"/><path d="M464.803 14.691C451.007 159.9 239.293 272.38-12.74 268.4-264.772 264.42-465.5 145.426-465.5 0" style="fill:none;stroke:#000;stroke-width:17;stroke-linecap:round;stroke-linejoin:round;stroke-miterlimit:10;stroke-dasharray:none;stroke-opacity:1" transform="rotate(180 2450.75 4292.25)"/><path d="m4490 8937-234 28" style="fill:none;stroke:#000;stroke-width:17;stroke-linecap:round;stroke-linejoin:round;stroke-miterlimit:10;stroke-dasharray:none;stroke-opacity:1"/><path d="M-23.486-64.082c37.562-4.585 76.595 2.1 103.743 17.767" style="fill:none;stroke:#000;stroke-width:17;stroke-linecap:round;stroke-linejoin:round;stroke-miterlimit:10;stroke-dasharray:none;stroke-opacity:1" transform="rotate(180 2116.75 4450.75)"/><path d="m4153 8948-9-5M3657 8662l-58-34M3599.557 8628.451c-38.076-22.064-38.076-57.838 0-79.902M3571 8511.5c0-14.984 10.272-29.355 28.557-39.951M3599 8548l125-72M4132 8240l19-11M4151 8152l-121 70M3821 8343l-222 128M4151.557 8229.549c18.623-10.792 43.987-16.759 70.322-16.543 26.334.216 51.397 6.596 69.486 17.688M4151.557 8152.548c18.623-10.791 43.987-16.758 70.322-16.542 26.334.216 51.397 6.596 69.486 17.688M4291 8230l67 42M4358 8194l-67-41" style="fill:none;stroke:#000;stroke-width:17;stroke-linecap:round;stroke-linejoin:round;stroke-miterlimit:10;stroke-dasharray:none;stroke-opacity:1"/><path d="M-36.305-62.059c41.98-8.179 88.368-1.512 118.8 17.072" style="fill:none;stroke:#000;stroke-width:17;stroke-linecap:round;stroke-linejoin:round;stroke-miterlimit:10;stroke-dasharray:none;stroke-opacity:1" transform="rotate(180 2220.75 4113.75)"/><path d="M-36.305-62.059c41.98-8.179 88.368-1.512 118.8 17.072" style="fill:none;stroke:#000;stroke-width:17;stroke-linecap:round;stroke-linejoin:round;stroke-miterlimit:10;stroke-dasharray:none;stroke-opacity:1" transform="rotate(180 2220.75 4074.75)"/><path d="m4477 8289 1071-209M5548 8003l-1071 209" style="fill:none;stroke:#000;stroke-width:17;stroke-linecap:round;stroke-linejoin:round;stroke-miterlimit:10;stroke-dasharray:none;stroke-opacity:1"/><path d="M36.305 62.059c-40.959 7.98-86.216 1.84-116.723-15.837-30.507-17.676-40.965-43.818-26.972-67.423" style="fill:none;stroke:#000;stroke-width:17;stroke-linecap:round;stroke-linejoin:round;stroke-miterlimit:10;stroke-dasharray:none;stroke-opacity:1" transform="rotate(180 2792.75 4071.25)"/><path d="M36.305 62.059c-34.64 6.749-72.792 3.455-102.493-8.85C-95.888 40.907-113.5 21.1-113.5 0" style="fill:none;stroke:#000;stroke-width:17;stroke-linecap:round;stroke-linejoin:round;stroke-miterlimit:10;stroke-dasharray:none;stroke-opacity:1" transform="rotate(180 2792.75 4032.75)"/><path d="m5692 8163-278 469M5366 8584v20M3570 8588v-77M5698 8142v-77M5116 9926l1337-772v-116" style="fill:none;stroke:#000;stroke-width:17;stroke-linecap:round;stroke-linejoin:round;stroke-miterlimit:10;stroke-dasharray:none;stroke-opacity:1"/><path d="M0 42.5c-13.531 0-24.5-19.028-24.5-42.5S-13.531-42.5 0-42.5" style="fill:none;stroke:#000;stroke-width:17;stroke-linecap:round;stroke-linejoin:round;stroke-miterlimit:10;stroke-dasharray:none;stroke-opacity:1" transform="rotate(-150.002 3958.34 3872.076)"/><path d="M5367 9280v-28" style="fill:none;stroke:#000;stroke-width:17;stroke-linecap:round;stroke-linejoin:round;stroke-miterlimit:10;stroke-dasharray:none;stroke-opacity:1"/><path d="M-48.437 83.792c-6.76-11.693-12.03-25.705-15.47-41.134M-63.908-42.658c8.343-37.403 27.052-64.972 49.724-73.274 22.672-8.301 46.234 3.792 62.62 32.14" style="fill:none;stroke:#000;stroke-width:17;stroke-linecap:round;stroke-linejoin:round;stroke-miterlimit:10;stroke-dasharray:none;stroke-opacity:1" transform="rotate(29.998 -14451.676 14773.78)"/><path d="M5534 9183v-27M5534 9183l585-338 334 193M4782 9617l585-337" style="fill:none;stroke:#000;stroke-width:17;stroke-linecap:round;stroke-linejoin:round;stroke-miterlimit:10;stroke-dasharray:none;stroke-opacity:1"/><path d="m6439 9061-320-185-1337 772 321 185z" style="fill:none;stroke:#000;stroke-width:8.3888106;stroke-linecap:round;stroke-linejoin:round;stroke-miterlimit:10;stroke-dasharray:none;stroke-opacity:1"/><path d="M5103 9833v23" style="fill:none;stroke:#000;stroke-width:17;stroke-linecap:round;stroke-linejoin:round;stroke-miterlimit:10;stroke-dasharray:none;stroke-opacity:1"/><path d="M5076 9903v-31l1337-772 26 16v-55" style="fill:none;stroke:#000;stroke-width:9.17134891;stroke-linecap:round;stroke-linejoin:round;stroke-miterlimit:10;stroke-dasharray:none;stroke-opacity:1"/><path d="m5116 9926-40-23 1337-772v-31" style="fill:none;stroke:#000;stroke-width:9.95388721;stroke-linecap:round;stroke-linejoin:round;stroke-miterlimit:10;stroke-dasharray:none;stroke-opacity:1"/><path d="m6453 9154-40-23M6119 8876v-31M4782 9617v31M5509 9102l83 48" style="fill:none;stroke:#000;stroke-width:17;stroke-linecap:round;stroke-linejoin:round;stroke-miterlimit:10;stroke-dasharray:none;stroke-opacity:1"/><path d="M225.404-53.43c8.9 112.897-10.786 226.952-53.99 312.807S65.71 394.5 0 394.5" style="fill:none;stroke:#000;stroke-width:17;stroke-linecap:round;stroke-linejoin:round;stroke-miterlimit:10;stroke-dasharray:none;stroke-opacity:1" transform="rotate(29.998 -14132.2 11950.016)"/><path d="M0-394.5c10.306 0 20.6 1.214 30.812 3.635" style="fill:none;stroke:#000;stroke-width:17;stroke-linecap:round;stroke-linejoin:round;stroke-miterlimit:10;stroke-dasharray:none;stroke-opacity:1" transform="rotate(29.998 -14213.357 12251.778)"/><path d="m4443 8424-241-139" style="fill:none;stroke:#000;stroke-width:17;stroke-linecap:round;stroke-linejoin:round;stroke-miterlimit:10;stroke-dasharray:none;stroke-opacity:1"/><path d="M30.812-390.865C132.002-366.88 211.572-228.9 225.404-53.43" style="fill:none;stroke:#000;stroke-width:17;stroke-linecap:round;stroke-linejoin:round;stroke-miterlimit:10;stroke-dasharray:none;stroke-opacity:1" transform="rotate(29.998 -14074.464 11732.534)"/><path d="m4202 8675 101 57M4250 8535l193-111M3883 9008l-143-83-6-4-5-3-5-4-5-4-5-4-4-4-5-5-4-4-4-5-4-5-4-6-3-5-4-6-3-5-3-6-3-6-3-7-2-6-3-7-2-6-2-7-1-7-2-7-2-7-1-7-1-8-1-7-1-8v-7l-1-8v-32l1-8v-8l1-8 1-8 1-9 1-8 2-9 1-8 2-9 2-8 2-9 2-8 2-9 3-9 3-8 2-9 3-9 3-8 4-9 3-9 3-8 4-9 4-8 4-9 4-8 4-9 4-8 5-8 4-9 5-8 5-8 5-8 5-8 5-8 5-8 5-8 6-7 5-8 6-7 5-8 6-7 6-7 6-7 6-7 6-7 6-6 7-7 6-6 6-6 7-6 6-6 7-6 6-6 7-5 7-5 6-5 7-5 7-5 7-5 6-4 7-4 7-4 7-4 7-4 7-3 7-4 7-3 6-3 7-3 7-2 7-2 7-2 7-2 7-2 7-1 6-2 7-1h7l7-1h26l6 1 7 1 6 1 6 1 6 2 7 1 5 3 6 2 6 2 6 3 5 3 284 164" style="fill:none;stroke:#000;stroke-width:17;stroke-linecap:round;stroke-linejoin:round;stroke-miterlimit:10;stroke-dasharray:none;stroke-opacity:1"/><path d="M-38.317 15.49C-52.439 11.202-59.862 4.806-58.294-1.72c1.57-6.527 11.941-12.397 27.912-15.798" style="fill:none;stroke:#000;stroke-width:17;stroke-linecap:round;stroke-linejoin:round;stroke-miterlimit:10;stroke-dasharray:none;stroke-opacity:1" transform="rotate(46.445 -7592.567 10185.299)"/><path d="M5.56-55.667c8.307 2.507 15.729 10.53 20.697 22.372" style="fill:none;stroke:#000;stroke-width:17;stroke-linecap:round;stroke-linejoin:round;stroke-miterlimit:10;stroke-dasharray:none;stroke-opacity:1" transform="rotate(-29.993 18703.4 -4996.955)"/><path d="m4556 8814-27 101M4958 8596l-83 34 27 69" style="fill:none;stroke:#000;stroke-width:17;stroke-linecap:round;stroke-linejoin:round;stroke-miterlimit:10;stroke-dasharray:none;stroke-opacity:1"/><path d="M-95.582-4.61c5.262-13.148 32.39-23.977 69.167-27.61" style="fill:none;stroke:#000;stroke-width:17;stroke-linecap:round;stroke-linejoin:round;stroke-miterlimit:10;stroke-dasharray:none;stroke-opacity:1" transform="rotate(46.445 -7592.567 10185.299)"/><path d="m4738 8733 58-57" style="fill:none;stroke:#000;stroke-width:17;stroke-linecap:round;stroke-linejoin:round;stroke-miterlimit:10;stroke-dasharray:none;stroke-opacity:1"/><path d="M-17.536-42.137c4.047-4.802 8.726-7.87 13.631-8.94" style="fill:none;stroke:#000;stroke-width:17;stroke-linecap:round;stroke-linejoin:round;stroke-miterlimit:10;stroke-dasharray:none;stroke-opacity:1" transform="rotate(29.998 -14027.935 13190.156)"/><path d="M0 42.5c-13.531 0-24.5-19.028-24.5-42.5S-13.531-42.5 0-42.5" style="fill:none;stroke:#000;stroke-width:17;stroke-linecap:round;stroke-linejoin:round;stroke-miterlimit:10;stroke-dasharray:none;stroke-opacity:1" transform="rotate(-150.002 3534.039 3758.54)"/><path d="m4556 8814 67-39M4796 8676l79-46M4529 8915l-315 181v31l1003-579v-31l-315 182M4716 8731l42-19" style="fill:none;stroke:#000;stroke-width:17;stroke-linecap:round;stroke-linejoin:round;stroke-miterlimit:10;stroke-dasharray:none;stroke-opacity:1"/><path d="M-2.94 94.362a32 32 0 0 1-2.646-.36" style="fill:none;stroke:#000;stroke-width:17;stroke-linecap:round;stroke-linejoin:round;stroke-miterlimit:10;stroke-dasharray:none;stroke-opacity:1" transform="rotate(150.002 1222.958 5041.126)"/><path d="m5217 8517 334 193M5551 8710v31l-334-193M5551 8741l-1003 579-334-193M4245 8557l449 260M5057 9026l372 215M4314 8499l423 244M5142 8977l330 190" style="fill:none;stroke:#000;stroke-width:17;stroke-linecap:round;stroke-linejoin:round;stroke-miterlimit:10;stroke-dasharray:none;stroke-opacity:1"/></g></svg>