<?xml version="1.0" encoding="utf-8" standalone="no"?>
<!DOCTYPE svg PUBLIC "-//W3C//DTD SVG 1.1//EN"
  "http://www.w3.org/Graphics/SVG/1.1/DTD/svg11.dtd">
<!-- Created with matplotlib (https://matplotlib.org/) -->
<svg height="243pt" version="1.1" viewBox="0 0 486 243" width="486pt" xmlns="http://www.w3.org/2000/svg" xmlns:xlink="http://www.w3.org/1999/xlink">
 <defs>
  <style type="text/css">
*{stroke-linecap:butt;stroke-linejoin:round;}
  </style>
 </defs>
 <g id="figure_1">
  <g id="patch_1">
   <path d="M 0 243 
L 486 243 
L 486 0 
L 0 0 
z
" style="fill:#ffffff;"/>
  </g>
  <g id="axes_1">
   <g id="patch_2">
    <path d="M 60.75 121.5 
L 217.6875 121.5 
L 217.6875 48.6 
L 60.75 48.6 
z
" style="fill:#ffffff;"/>
   </g>
   <g id="matplotlib.axis_1">
    <g id="xtick_1">
     <g id="line2d_1">
      <defs>
       <path d="M 0 0 
L 0 -3.5 
" id="m314acf74f8" style="stroke:#000000;stroke-width:0.8;"/>
      </defs>
      <g>
       <use style="stroke:#000000;stroke-width:0.8;" x="60.75" xlink:href="#m314acf74f8" y="48.6"/>
      </g>
     </g>
    </g>
    <g id="xtick_2">
     <g id="line2d_2">
      <g>
       <use style="stroke:#000000;stroke-width:0.8;" x="119.237153" xlink:href="#m314acf74f8" y="48.6"/>
      </g>
     </g>
    </g>
    <g id="xtick_3">
     <g id="line2d_3">
      <g>
       <use style="stroke:#000000;stroke-width:0.8;" x="177.724306" xlink:href="#m314acf74f8" y="48.6"/>
      </g>
     </g>
    </g>
    <g id="xtick_4">
     <g id="line2d_4">
      <g>
       <use style="stroke:#000000;stroke-width:0.8;" x="67.329805" xlink:href="#m314acf74f8" y="48.6"/>
      </g>
     </g>
     <g id="text_1">
      <!-- $\omega_0$ -->
      <defs>
       <path d="M 59.40625 37.59375 
C 59.40625 40.5 58.59375 44.1875 55.09375 44.1875 
C 53.09375 44.1875 50.796875 41.6875 50.796875 39.6875 
C 50.796875 38.796875 51.203125 38.1875 52 37.296875 
C 53.5 35.59375 55.40625 32.890625 55.40625 28.1875 
C 55.40625 24.59375 53.203125 18.890625 51.59375 15.796875 
C 48.796875 10.296875 44.203125 5.59375 39 5.59375 
C 32.703125 5.59375 30.296875 9.59375 29.203125 15.1875 
C 30.296875 17.796875 32.59375 24.296875 32.59375 26.890625 
C 32.59375 28 32.203125 28.890625 30.90625 28.890625 
C 30.203125 28.890625 29.40625 28.5 28.90625 27.6875 
C 27.5 25.5 26.203125 17.59375 26.296875 15.5 
C 24.40625 11.796875 19 5.59375 12.59375 5.59375 
C 5.90625 5.59375 4.09375 11.5 4.09375 17.1875 
C 4.09375 27.59375 10.59375 36.6875 12.40625 39.1875 
C 13.40625 40.6875 14.09375 41.6875 14.09375 41.890625 
C 14.09375 42.59375 13.703125 43.6875 12.796875 43.6875 
C 11.203125 43.6875 10.703125 42.390625 9.90625 41.1875 
C 4.796875 33.296875 1.203125 22.1875 1.203125 12.59375 
C 1.203125 6.390625 3.5 -1 11 -1 
C 19.296875 -1 24.5 6.09375 26.59375 9.890625 
C 27.40625 4.296875 30.40625 -1 37.703125 -1 
C 45.296875 -1 50.09375 5.6875 53.703125 13.796875 
C 56.296875 19.59375 59.40625 32.09375 59.40625 37.59375 
z
" id="CMMI12-33"/>
       <path d="M 42 31.84375 
C 42 37.96875 41.90625 48.421875 37.703125 56.453125 
C 34 63.484375 28.09375 66 22.90625 66 
C 18.09375 66 12 63.78125 8.203125 56.5625 
C 4.203125 49.015625 3.796875 39.671875 3.796875 31.84375 
C 3.796875 26.109375 3.90625 17.375 7 9.734375 
C 11.296875 -0.609375 19 -2 22.90625 -2 
C 27.5 -2 34.5 -0.109375 38.59375 9.4375 
C 41.59375 16.375 42 24.5 42 31.84375 
z
M 22.90625 -0.40625 
C 16.5 -0.40625 12.703125 5.125 11.296875 12.75 
C 10.203125 18.6875 10.203125 27.328125 10.203125 32.953125 
C 10.203125 40.6875 10.203125 47.109375 11.5 53.234375 
C 13.40625 61.78125 19 64.390625 22.90625 64.390625 
C 27 64.390625 32.296875 61.671875 34.203125 53.4375 
C 35.5 47.71875 35.59375 40.984375 35.59375 32.953125 
C 35.59375 26.421875 35.59375 18.375 34.40625 12.453125 
C 32.296875 1.5 26.40625 -0.40625 22.90625 -0.40625 
z
" id="CMR17-48"/>
      </defs>
      <g transform="translate(61.568094 39.275404)scale(0.12 -0.12)">
       <use transform="scale(0.996264)" xlink:href="#CMMI12-33"/>
       <use transform="translate(60.743753 -14.943915)scale(0.697382)" xlink:href="#CMR17-48"/>
      </g>
     </g>
    </g>
    <g id="xtick_5">
     <g id="line2d_5">
      <g>
       <use style="stroke:#000000;stroke-width:0.8;" x="155.384202" xlink:href="#m314acf74f8" y="48.6"/>
      </g>
     </g>
     <g id="text_2">
      <!-- $\omega_1$ -->
      <defs>
       <path d="M 26.59375 63.796875 
C 26.59375 65.890625 26.5 66 25.09375 66 
C 21.203125 61.359375 15.296875 59.890625 9.703125 59.6875 
C 9.40625 59.6875 8.90625 59.6875 8.796875 59.5 
C 8.703125 59.296875 8.703125 59.09375 8.703125 57 
C 11.796875 57 17 57.59375 21 59.984375 
L 21 7.296875 
C 21 3.796875 20.796875 2.59375 12.203125 2.59375 
L 9.203125 2.59375 
L 9.203125 0 
C 14 0.09375 19 0.1875 23.796875 0.1875 
C 28.59375 0.1875 33.59375 0.09375 38.40625 0 
L 38.40625 2.59375 
L 35.40625 2.59375 
C 26.796875 2.59375 26.59375 3.6875 26.59375 7.296875 
z
" id="CMR17-49"/>
      </defs>
      <g transform="translate(149.62249 39.275404)scale(0.12 -0.12)">
       <use transform="scale(0.996264)" xlink:href="#CMMI12-33"/>
       <use transform="translate(60.743753 -14.943915)scale(0.697382)" xlink:href="#CMR17-49"/>
      </g>
     </g>
    </g>
    <g id="text_3">
     <!-- $\omega / U$ -->
     <defs>
      <path d="M 42.90625 71.296875 
C 42.90625 71.390625 43.5 72.890625 43.5 73.09375 
C 43.5 74.296875 42.5 75 41.703125 75 
C 41.203125 75 40.296875 75 39.5 72.796875 
L 6 -21.3125 
C 6 -21.40625 5.40625 -22.90625 5.40625 -23.109375 
C 5.40625 -24.3125 6.40625 -25 7.203125 -25 
C 7.796875 -25 8.703125 -24.90625 9.40625 -22.8125 
z
" id="CMMI12-61"/>
      <path d="M 50.59375 22.953125 
C 47.09375 9.046875 35.5 0.890625 26.09375 0.890625 
C 18.90625 0.890625 14 5.65625 14 13.90625 
C 14 14.3125 14 17.296875 15.09375 21.65625 
L 24.90625 60.71875 
C 25.796875 64.09375 26 65.09375 33.09375 65.09375 
C 34.90625 65.09375 35.90625 65.09375 35.90625 66.890625 
C 35.90625 68 35 68 34.40625 68 
C 32.59375 68 30.5 67.796875 28.59375 67.796875 
L 16.796875 67.796875 
C 14.90625 67.796875 12.796875 68 10.90625 68 
C 10.203125 68 9 68 9 66.09375 
C 9 65.09375 9.703125 65.09375 11.59375 65.09375 
C 17.59375 65.09375 17.59375 64.296875 17.59375 63.203125 
C 17.59375 62.609375 16.90625 59.71875 16.40625 58.03125 
L 7.703125 23.25 
C 7.40625 22.15625 6.796875 19.46875 6.796875 16.796875 
C 6.796875 5.859375 14.703125 -2 25.59375 -2 
C 35.703125 -2 46.90625 5.953125 52 18.578125 
C 52.703125 20.265625 53.59375 23.75 54.203125 26.4375 
C 55.203125 30.015625 57.296875 38.75 58 41.34375 
L 61.796875 56.25 
C 63.09375 61.421875 63.90625 64.6875 72.703125 65.09375 
C 73.5 65.1875 73.90625 65.984375 73.90625 66.890625 
C 73.90625 68 73 68 72.59375 68 
C 71.203125 68 69.40625 67.796875 68 67.796875 
L 63.296875 67.796875 
C 57.09375 67.796875 53.90625 68 53.796875 68 
C 53.203125 68 52 68 52 66.09375 
C 52 65.09375 52.796875 65.09375 53.5 65.09375 
C 59.5 64.890625 59.90625 62.609375 59.90625 60.8125 
C 59.90625 59.921875 59.90625 59.625 59.5 58.234375 
z
" id="CMMI12-85"/>
     </defs>
     <g transform="translate(128.458039 26.973224)scale(0.12 -0.12)">
      <use transform="scale(0.996264)" xlink:href="#CMMI12-33"/>
      <use transform="translate(64.318346 0)scale(0.996264)" xlink:href="#CMMI12-61"/>
      <use transform="translate(113.093265 0)scale(0.996264)" xlink:href="#CMMI12-85"/>
     </g>
    </g>
   </g>
   <g id="matplotlib.axis_2">
    <g id="ytick_1">
     <g id="line2d_6">
      <defs>
       <path d="M 0 0 
L -3.5 0 
" id="m7ee6109d55" style="stroke:#000000;stroke-width:0.8;"/>
      </defs>
      <g>
       <use style="stroke:#000000;stroke-width:0.8;" x="60.75" xlink:href="#m7ee6109d55" y="116.94375"/>
      </g>
     </g>
     <g id="text_4">
      <!-- $\mathdefault{0}$ -->
      <g transform="translate(47.89701 121.09484)scale(0.12 -0.12)">
       <use transform="scale(0.996264)" xlink:href="#CMR17-48"/>
      </g>
     </g>
    </g>
    <g id="ytick_2">
     <g id="line2d_7">
      <g>
       <use style="stroke:#000000;stroke-width:0.8;" x="60.75" xlink:href="#m7ee6109d55" y="71.38125"/>
      </g>
     </g>
     <g id="text_5">
      <!-- $\mathdefault{1}$ -->
      <g transform="translate(47.89701 75.53234)scale(0.12 -0.12)">
       <use transform="scale(0.996264)" xlink:href="#CMR17-49"/>
      </g>
     </g>
    </g>
    <g id="text_6">
     <!-- DOS($\omega$) -->
     <defs>
      <path d="M 5.203125 68 
L 5.203125 65.390625 
C 12.09375 65.390625 13.203125 65.390625 13.203125 60.90625 
L 13.203125 7.078125 
C 13.203125 2.59375 12.09375 2.59375 5.203125 2.59375 
L 5.203125 0 
L 37 0 
C 53.09375 0 66 14.734375 66 33.4375 
C 66 52.25 53.296875 68 37 68 
z
M 23.796875 2.59375 
C 19.796875 2.59375 19.59375 3.09375 19.59375 6.46875 
L 19.59375 61.5 
C 19.59375 64.890625 19.796875 65.390625 23.796875 65.390625 
L 35 65.390625 
C 43.296875 65.390625 58.59375 60.515625 58.59375 33.4375 
C 58.59375 19.40625 54.5 13.734375 52.59375 11.046875 
C 50.203125 7.96875 44.5 2.59375 35 2.59375 
z
" id="CMR17-68"/>
      <path d="M 67.296875 33.84375 
C 67.296875 54.5 52.59375 70 36 70 
C 19 70 4.59375 54.296875 4.59375 33.84375 
C 4.59375 13.390625 19.203125 -2 35.90625 -2 
C 53 -2 67.296875 13.6875 67.296875 33.84375 
z
M 36 -0.203125 
C 24.59375 -0.203125 12.203125 11.28125 12.203125 35.15625 
C 12.203125 58.921875 25.796875 68.1875 35.90625 68.1875 
C 46.5 68.1875 59.703125 58.625 59.703125 35.15625 
C 59.703125 10.875 47 -0.203125 36 -0.203125 
z
" id="CMR17-79"/>
      <path d="M 43.796875 67.984375 
C 43.796875 69.796875 43.703125 69.890625 43.09375 69.890625 
C 42.5 69.890625 42.296875 69.484375 41.90625 68.59375 
L 38.90625 61.953125 
C 35.09375 67.5 29.296875 70 23 70 
C 12.796875 70 4.59375 61.84375 4.59375 51.578125 
C 4.59375 48.453125 5.296875 44.015625 8.703125 39.78125 
C 12.40625 35.15625 15.90625 34.34375 23.90625 32.234375 
C 26.90625 31.421875 31.90625 30.109375 32.90625 29.703125 
C 38.59375 27.296875 41.59375 21.25 41.59375 15.609375 
C 41.59375 8.34375 36.5 0.59375 27.796875 0.59375 
C 17.09375 0.59375 7.09375 6.640625 6.40625 20.75 
C 6.296875 22.359375 6.203125 22.453125 5.5 22.453125 
C 4.703125 22.453125 4.59375 22.359375 4.59375 20.34375 
L 4.59375 0 
C 4.59375 -1.8125 4.703125 -1.90625 5.296875 -1.90625 
C 6 -1.90625 6.203125 -1.40625 7.59375 1.703125 
C 7.703125 2 7.703125 2.203125 9.59375 6.03125 
C 14.59375 -0.609375 23 -2 27.796875 -2 
C 38.703125 -2 46.40625 7.140625 46.40625 17.828125 
C 46.40625 23.0625 44.5 27.09375 43.40625 28.90625 
C 39.203125 35.359375 34.703125 36.5625 29.90625 37.765625 
C 29.203125 38.078125 29 38.078125 23.40625 39.484375 
C 18 40.890625 15.703125 41.59375 13.203125 44.3125 
C 10.40625 47.4375 9.40625 50.671875 9.40625 53.890625 
C 9.40625 60.4375 14.59375 67.59375 23.09375 67.59375 
C 33.703125 67.59375 40.296875 60.03125 41.796875 47.4375 
C 42.09375 45.625 42.203125 45.53125 42.90625 45.53125 
C 43.796875 45.53125 43.796875 45.828125 43.796875 47.546875 
z
" id="CMR17-83"/>
      <path d="M 30.59375 -24.40625 
C 30.59375 -24.3125 30.59375 -24.109375 30.296875 -23.8125 
C 25.703125 -19.109375 13.40625 -6.296875 13.40625 24.9375 
C 13.40625 56.171875 25.5 68.875 30.40625 73.890625 
C 30.40625 73.984375 30.59375 74.1875 30.59375 74.484375 
C 30.59375 74.796875 30.296875 75 29.90625 75 
C 28.796875 75 20.296875 67.578125 15.40625 56.5625 
C 10.40625 45.453125 9 34.65625 9 25.046875 
C 9 17.828125 9.703125 5.625 15.703125 -7.296875 
C 20.5 -17.703125 28.703125 -25 29.90625 -25 
C 30.40625 -25 30.59375 -24.8125 30.59375 -24.40625 
z
" id="CMR17-40"/>
      <path d="M 26.296875 24.9375 
C 26.296875 32.140625 25.59375 44.359375 19.59375 57.265625 
C 14.796875 67.6875 6.59375 75 5.40625 75 
C 5.09375 75 4.703125 74.890625 4.703125 74.390625 
C 4.703125 74.1875 4.796875 74.09375 4.90625 73.890625 
C 9.703125 68.875 21.90625 56.171875 21.90625 25.046875 
C 21.90625 -6.1875 9.796875 -18.90625 4.90625 -23.90625 
C 4.796875 -24.109375 4.703125 -24.203125 4.703125 -24.40625 
C 4.703125 -24.90625 5.09375 -25 5.40625 -25 
C 6.5 -25 15 -17.609375 19.90625 -6.59375 
C 24.90625 4.515625 26.296875 15.328125 26.296875 24.9375 
z
" id="CMR17-41"/>
     </defs>
     <g transform="translate(40.908218 105.735407)rotate(-90)scale(0.12 -0.12)">
      <use transform="scale(0.996264)" xlink:href="#CMR17-68"/>
      <use transform="translate(70.393556 0)scale(0.996264)" xlink:href="#CMR17-79"/>
      <use transform="translate(142.108344 0)scale(0.996264)" xlink:href="#CMR17-83"/>
      <use transform="translate(193.003714 0)scale(0.996264)" xlink:href="#CMR17-40"/>
      <use transform="translate(228.284482 0)scale(0.996264)" xlink:href="#CMMI12-33"/>
      <use transform="translate(292.602828 0)scale(0.996264)" xlink:href="#CMR17-41"/>
     </g>
    </g>
   </g>
   <g id="LineCollection_1">
    <path clip-path="url(#p02fde8f05c)" d="M 67.417535 121.5 
L 67.417535 48.6 
" style="fill:none;stroke:#000000;stroke-dasharray:0.5,0.825;stroke-dashoffset:0;stroke-width:0.5;"/>
   </g>
   <g id="LineCollection_2">
    <path clip-path="url(#p02fde8f05c)" d="M 155.499188 121.5 
L 155.499188 48.6 
" style="fill:none;stroke:#000000;stroke-dasharray:0.5,0.825;stroke-dashoffset:0;stroke-width:0.5;"/>
   </g>
   <g id="line2d_8">
    <path clip-path="url(#p02fde8f05c)" d="M 60.399077 110.40467 
L 64.961075 110.266604 
L 66.364767 109.936944 
L 67.417535 109.682936 
L 68.119381 109.715678 
L 69.873996 110.21734 
L 72.330456 110.835887 
L 73.383225 110.829358 
L 76.190608 110.593219 
L 77.243377 110.740837 
L 79.699838 111.260976 
L 81.454452 111.338273 
L 82.858144 111.21338 
L 83.910913 110.895958 
L 86.01645 110.050496 
L 87.069219 109.983232 
L 88.472911 110.210581 
L 90.227525 110.565298 
L 91.631217 110.576257 
L 92.683986 110.409366 
L 93.736754 110.013787 
L 95.140446 109.495187 
L 96.193215 109.315249 
L 97.245983 109.358739 
L 99.000598 109.754207 
L 100.755213 110.139542 
L 101.807981 110.186766 
L 103.913519 110.062941 
L 106.369979 110.41536 
L 107.773671 110.571398 
L 111.2829 111.526521 
L 113.388438 112.322342 
L 115.493975 113.325916 
L 117.599513 114.334326 
L 118.652282 114.599932 
L 119.354127 114.600211 
L 120.055973 114.43906 
L 121.108742 113.954426 
L 125.319817 111.666426 
L 127.425354 110.837865 
L 128.829046 110.460928 
L 129.881815 110.07217 
L 130.934584 109.636621 
L 131.636429 109.540551 
L 133.741967 109.48031 
L 134.794736 109.083245 
L 136.54935 108.201025 
L 137.251196 108.134359 
L 137.953042 108.27189 
L 140.760425 109.168927 
L 141.462271 109.127204 
L 142.164117 108.889544 
L 142.865963 108.450894 
L 145.322423 106.451731 
L 146.024269 106.235898 
L 146.726115 106.294132 
L 148.129807 106.717006 
L 148.831652 107.179708 
L 150.235344 108.283658 
L 151.288113 108.771784 
L 152.340882 108.931552 
L 154.095496 108.859562 
L 155.850111 108.774642 
L 157.253803 108.346876 
L 159.35934 107.439145 
L 160.412109 106.644326 
L 163.219492 104.088909 
L 166.377798 102.810073 
L 167.430567 102.290441 
L 167.78149 102.254242 
L 168.483336 102.514217 
L 169.536105 103.395115 
L 171.290719 104.916379 
L 171.992565 105.289136 
L 173.045334 105.521241 
L 174.098103 105.818224 
L 175.501794 106.36476 
L 176.20364 106.353055 
L 176.905486 106.099537 
L 177.958255 105.496556 
L 179.712869 104.177442 
L 180.063792 104.144353 
L 180.414715 104.283098 
L 181.116561 104.952659 
L 182.16933 106.013909 
L 182.871176 106.360125 
L 183.573021 106.465869 
L 184.976713 106.474347 
L 185.678559 106.807464 
L 186.731328 107.348061 
L 189.889634 108.57354 
L 191.644248 109.679861 
L 192.697017 110.104056 
L 193.398863 110.164169 
L 194.100709 109.997242 
L 194.802555 109.547403 
L 195.504401 108.732836 
L 196.557169 106.938023 
L 197.609938 104.972145 
L 198.311784 104.097204 
L 200.066399 102.444899 
L 200.417321 102.621696 
L 200.768244 103.110264 
L 201.821013 105.443733 
L 203.224705 108.636256 
L 203.926551 109.617261 
L 204.628396 110.143044 
L 206.733934 110.998468 
L 207.43578 111.139562 
L 208.488549 111.072639 
L 209.190394 110.859828 
L 209.541317 110.626112 
L 209.89224 110.256838 
L 210.594086 109.007721 
L 211.646855 106.063879 
L 212.348701 104.41563 
L 212.699624 104.05687 
L 213.050547 104.09369 
L 213.401469 104.510513 
L 214.103315 106.166653 
L 215.156084 109.062989 
L 215.85793 110.368277 
L 216.559776 111.123939 
L 217.261622 111.528174 
L 217.963467 111.571726 
L 217.963467 111.571726 
" style="fill:none;stroke:#f78347;stroke-linecap:square;stroke-width:0.5;"/>
   </g>
   <g id="line2d_9">
    <path clip-path="url(#p02fde8f05c)" d="M 60.516051 109.455086 
L 61.685794 109.540473 
L 62.621589 109.608952 
L 63.791332 109.652063 
L 64.961075 109.733972 
L 65.896869 109.541392 
L 66.598715 109.442663 
L 69.640047 109.693244 
L 70.80979 109.891794 
L 72.213482 109.975784 
L 73.149276 109.988805 
L 74.31902 109.868825 
L 75.020865 109.826137 
L 76.424557 109.367647 
L 77.126403 109.504711 
L 79.23194 110.179697 
L 81.103529 110.474378 
L 83.209067 110.400569 
L 84.37881 109.927678 
L 85.314604 109.925204 
L 86.250399 109.9136 
L 88.823833 109.477331 
L 89.993577 109.89047 
L 90.695422 110.08176 
L 91.397268 110.024377 
L 94.906497 109.052548 
L 96.07624 108.506464 
L 96.778086 108.525507 
L 97.947829 108.773074 
L 99.819418 109.321384 
L 100.755213 109.213045 
L 102.158904 109.012755 
L 103.094699 108.65309 
L 104.030493 108.627928 
L 105.434185 108.678644 
L 105.902082 108.541291 
L 107.071825 107.94573 
L 107.539722 108.097949 
L 108.943414 108.864619 
L 110.113157 109.278606 
L 111.048952 109.512044 
L 112.218695 109.735263 
L 113.388438 110.226044 
L 116.195821 112.086745 
L 118.769256 114.909772 
L 119.471102 115.264699 
L 120.172947 115.396289 
L 121.108742 115.321339 
L 122.512434 114.8888 
L 124.384023 114.181177 
L 126.255611 113.413329 
L 126.957457 113.119188 
L 130.700635 110.854235 
L 131.402481 110.70272 
L 133.741967 110.852687 
L 135.145659 110.618673 
L 136.081453 110.021744 
L 137.485145 109.09663 
L 137.953042 109.073436 
L 138.654888 109.391013 
L 140.760425 110.72907 
L 141.228323 110.757245 
L 141.69622 110.594152 
L 142.398066 110.070493 
L 143.33386 109.025993 
L 145.439398 106.182683 
L 145.907295 105.858813 
L 146.375192 105.933497 
L 147.077038 106.275542 
L 148.012832 106.388969 
L 148.48073 106.798635 
L 150.352318 109.398362 
L 151.054164 109.99729 
L 151.75601 110.306851 
L 152.925753 110.572895 
L 153.627599 110.419281 
L 154.563393 110.111907 
L 155.265239 110.18659 
L 155.733137 110.198663 
L 156.201034 109.9913 
L 157.604725 109.067453 
L 158.306571 109.0242 
L 158.774468 109.024982 
L 159.242366 108.828937 
L 160.17816 108.006201 
L 162.049749 105.924361 
L 162.751595 105.120517 
L 163.219492 104.854168 
L 164.389235 104.49431 
L 165.558978 103.732296 
L 166.026875 103.077886 
L 167.430567 100.231763 
L 167.664516 100.108934 
L 167.898464 100.182458 
L 168.366362 100.841986 
L 170.471899 104.929091 
L 171.407694 106.090037 
L 171.875591 106.364347 
L 172.343488 106.342074 
L 173.279282 106.041318 
L 173.74718 106.22599 
L 174.215077 106.696964 
L 175.150871 107.81834 
L 175.618769 108.107955 
L 176.086666 108.076102 
L 176.554563 107.756701 
L 177.256409 107.202217 
L 178.426152 106.684393 
L 179.127998 105.642723 
L 179.595895 105.078212 
L 179.829844 105.010648 
L 180.063792 105.129328 
L 180.531689 105.83322 
L 182.16933 108.991659 
L 182.871176 109.451266 
L 183.573021 109.659634 
L 184.040919 109.621193 
L 184.742764 109.449773 
L 185.210662 109.710652 
L 186.146456 110.567628 
L 186.614353 110.740255 
L 187.316199 110.678263 
L 188.485942 110.346903 
L 189.187788 110.198976 
L 190.59148 110.226282 
L 191.059377 110.107429 
L 191.527274 110.222111 
L 192.697017 110.933791 
L 193.164914 110.920889 
L 193.632812 110.713559 
L 194.100709 110.337136 
L 194.568606 109.731501 
L 195.270452 108.318304 
L 196.206246 105.781888 
L 196.908092 103.389342 
L 197.375989 101.7339 
L 197.609938 101.229276 
L 197.843887 101.067123 
L 198.311784 101.434835 
L 198.545733 101.615759 
L 198.779681 101.597511 
L 199.01363 101.321658 
L 199.949424 99.534021 
L 200.183373 99.843074 
L 200.65127 101.539275 
L 201.821013 106.170198 
L 202.756808 109.305606 
L 203.224705 110.247995 
L 203.692602 110.748032 
L 204.160499 110.889667 
L 205.79814 110.711606 
L 206.733934 111.092952 
L 207.201831 110.98345 
L 207.669728 110.83357 
L 208.137626 110.90514 
L 208.839471 111.145123 
L 209.307369 111.052824 
L 209.775266 110.566664 
L 210.243163 109.514095 
L 210.71106 107.748059 
L 212.114752 100.758615 
L 212.348701 100.217766 
L 212.582649 100.021467 
L 212.816598 100.185878 
L 213.050547 100.670647 
L 213.518444 102.419616 
L 214.922135 108.955004 
L 215.390033 110.032407 
L 215.85793 110.556881 
L 216.793724 111.098225 
L 217.261622 111.242989 
L 217.729519 111.138206 
L 217.729519 111.138206 
" style="fill:none;stroke:#55115c;stroke-dasharray:0.5,0.825;stroke-dashoffset:0;stroke-width:0.5;"/>
   </g>
   <g id="patch_3">
    <path d="M 60.75 121.5 
L 60.75 48.6 
" style="fill:none;stroke:#000000;stroke-linecap:square;stroke-linejoin:miter;stroke-width:1.2;"/>
   </g>
   <g id="patch_4">
    <path d="M 217.6875 121.5 
L 217.6875 48.6 
" style="fill:none;stroke:#000000;stroke-linecap:square;stroke-linejoin:miter;stroke-width:1.2;"/>
   </g>
   <g id="patch_5">
    <path d="M 60.75 121.5 
L 217.6875 121.5 
" style="fill:none;stroke:#000000;stroke-linecap:square;stroke-linejoin:miter;stroke-width:1.2;"/>
   </g>
   <g id="patch_6">
    <path d="M 60.75 48.6 
L 217.6875 48.6 
" style="fill:none;stroke:#000000;stroke-linecap:square;stroke-linejoin:miter;stroke-width:1.2;"/>
   </g>
   <g id="text_7">
    <!-- (a) -->
    <defs>
     <path d="M 36 25.875 
C 36 32 36 35.546875 31.796875 39.59375 
C 28.09375 42.984375 23.796875 44 20.40625 44 
C 12.5 44 6.796875 37.625 6.796875 30.890625 
C 6.796875 27.1875 9.796875 27 10.40625 27 
C 11.703125 27 14 27.796875 14 30.59375 
C 14 33.09375 12.09375 34.1875 10.40625 34.1875 
C 10 34.1875 9.5 34.09375 9.203125 34 
C 11.296875 40.53125 16.703125 42.390625 20.203125 42.390625 
C 25.203125 42.390625 30.703125 37.828125 30.703125 29.296875 
L 30.703125 25.5 
C 24.796875 25.296875 17.703125 24.5 12.09375 21.453125 
C 5.796875 17.921875 4 12.84375 4 9 
C 4 1.203125 13 -1 18.296875 -1 
C 23.796875 -1 28.90625 2.109375 31.09375 7.890625 
C 31.296875 3.421875 34.09375 -0.609375 38.5 -0.609375 
C 40.59375 -0.609375 45.90625 0.796875 45.90625 8.796875 
L 45.90625 14.46875 
L 44.09375 14.46875 
L 44.09375 8.703125 
C 44.09375 2.515625 41.40625 1.703125 40.09375 1.703125 
C 36 1.703125 36 6.96875 36 11.4375 
z
M 30.703125 13.859375 
C 30.703125 5.046875 24.5 0.59375 19 0.59375 
C 14 0.59375 10.09375 4.34375 10.09375 9 
C 10.09375 12.046875 11.40625 17.40625 17.203125 20.65625 
C 22 23.390625 27.5 23.796875 30.703125 24 
z
" id="CMR17-97"/>
    </defs>
    <g transform="translate(70.16625 60.482376)scale(0.12 -0.12)">
     <use transform="scale(0.996264)" xlink:href="#CMR17-40"/>
     <use transform="translate(35.280768 0)scale(0.996264)" xlink:href="#CMR17-97"/>
     <use transform="translate(80.971245 0)scale(0.996264)" xlink:href="#CMR17-41"/>
    </g>
    <!-- T = 2.5 -->
    <defs>
     <path d="M 62.203125 67.6875 
L 4.5 67.6875 
L 2.796875 45.6875 
L 4.59375 45.6875 
C 5.90625 62.203125 7.296875 65.09375 22.703125 65.09375 
C 24.5 65.09375 27.40625 65.09375 28.203125 64.984375 
C 30.09375 64.6875 30.09375 63.5 30.09375 61.203125 
L 30.09375 7.265625 
C 30.09375 3.6875 29.796875 2.59375 21.5 2.59375 
L 18.703125 2.59375 
L 18.703125 0 
C 23.5 0.09375 28.5 0.1875 33.40625 0.1875 
C 38.296875 0.1875 43.296875 0.09375 48.09375 0 
L 48.09375 2.59375 
L 45.296875 2.59375 
C 37 2.59375 36.703125 3.6875 36.703125 7.265625 
L 36.703125 61.203125 
C 36.703125 63.390625 36.703125 64.59375 38.5 64.984375 
C 39.296875 65.09375 42.203125 65.09375 44 65.09375 
C 59.296875 65.09375 60.796875 62.203125 62.09375 45.6875 
L 63.90625 45.6875 
z
" id="CMR17-84"/>
     <path d="M 64.296875 32 
C 65.796875 32 67.296875 32 67.296875 33.6875 
C 67.296875 35.5 65.59375 35.5 63.90625 35.5 
L 8 35.5 
C 6.296875 35.5 4.59375 35.5 4.59375 33.6875 
C 4.59375 32 6.09375 32 7.59375 32 
z
M 63.90625 14.484375 
C 65.59375 14.484375 67.296875 14.484375 67.296875 16.296875 
C 67.296875 18 65.796875 18 64.296875 18 
L 7.59375 18 
C 6.09375 18 4.59375 18 4.59375 16.296875 
C 4.59375 14.484375 6.296875 14.484375 8 14.484375 
z
" id="CMR17-61"/>
     <path d="M 41.703125 15.46875 
L 39.90625 15.46875 
C 38.90625 8.390625 38.09375 7.1875 37.703125 6.59375 
C 37.203125 5.796875 30 5.796875 28.59375 5.796875 
L 9.40625 5.796875 
C 13 9.6875 20 16.765625 28.5 24.9375 
C 34.59375 30.71875 41.703125 37.5 41.703125 47.390625 
C 41.703125 59.1875 32.296875 66 21.796875 66 
C 10.796875 66 4.09375 56.296875 4.09375 47.296875 
C 4.09375 43.390625 7 42.890625 8.203125 42.890625 
C 9.203125 42.890625 12.203125 43.484375 12.203125 46.984375 
C 12.203125 50.09375 9.59375 51 8.203125 51 
C 7.59375 51 7 50.890625 6.59375 50.6875 
C 8.5 59.1875 14.296875 63.390625 20.40625 63.390625 
C 29.09375 63.390625 34.796875 56.5 34.796875 47.390625 
C 34.796875 38.703125 29.703125 31.21875 24 24.734375 
L 4.09375 2.296875 
L 4.09375 0 
L 39.296875 0 
z
" id="CMR17-50"/>
     <path d="M 16.59375 4.09375 
C 16.59375 6.59375 14.59375 8.1875 12.5 8.1875 
C 10.5 8.1875 8.40625 6.59375 8.40625 4.09375 
C 8.40625 1.59375 10.40625 0 12.5 0 
C 14.5 0 16.59375 1.59375 16.59375 4.09375 
z
" id="CMR17-46"/>
     <path d="M 11.40625 58.59375 
C 12.40625 58.1875 16.5 56.890625 20.703125 56.890625 
C 30 56.890625 35.09375 61.890625 38 64.6875 
C 38 65.484375 38 66 37.40625 66 
C 37.296875 66 37.09375 66 36.296875 65.59375 
C 32.796875 64.09375 28.703125 63 23.703125 63 
C 20.703125 63 16.203125 63.359375 11.296875 65.484375 
C 10.203125 66 10 66 9.90625 66 
C 9.40625 66 9.296875 65.890625 9.296875 63.90625 
L 9.296875 34.859375 
C 9.296875 33.015625 9.296875 32.5 10.296875 32.5 
C 10.796875 32.5 11 32.703125 11.5 33.421875 
C 14.703125 38.046875 19.09375 40 24.09375 40 
C 27.59375 40 35.09375 37.734375 35.09375 20.203125 
C 35.09375 16.984375 35.09375 11.1875 32.09375 6.59375 
C 29.59375 2.484375 25.703125 0.390625 21.40625 0.390625 
C 14.796875 0.390625 8.09375 4.984375 6.296875 12.6875 
C 6.703125 12.59375 7.5 12.390625 7.90625 12.390625 
C 9.203125 12.390625 11.703125 13.09375 11.703125 16.1875 
C 11.703125 18.890625 9.796875 20 7.90625 20 
C 5.59375 20 4.09375 18.59375 4.09375 15.796875 
C 4.09375 7.09375 11 -2 21.59375 -2 
C 31.90625 -2 41.703125 6.890625 41.703125 19.796875 
C 41.703125 32.09375 33.90625 41.59375 24.203125 41.59375 
C 19.09375 41.59375 14.796875 39.6875 11.40625 36 
z
" id="CMR17-53"/>
    </defs>
    <g transform="translate(70.16625 73.433784)scale(0.12 -0.12)">
     <use transform="scale(0.996264)" xlink:href="#CMR17-84"/>
     <use transform="translate(96.585847 0)scale(0.996264)" xlink:href="#CMR17-61"/>
     <use transform="translate(198.376602 0)scale(0.996264)" xlink:href="#CMR17-50"/>
     <use transform="translate(244.067079 0)scale(0.996264)" xlink:href="#CMR17-46"/>
     <use transform="translate(268.938137 0)scale(0.996264)" xlink:href="#CMR17-53"/>
    </g>
    <!-- U = 2 -->
    <defs>
     <path d="M 54 22.53125 
C 54 9.109375 45.296875 0.59375 35.796875 0.59375 
C 30.703125 0.59375 26.09375 3.296875 23.296875 7.5 
C 20.09375 12.3125 19.703125 18.515625 19.703125 22.03125 
L 19.703125 60.890625 
C 19.703125 65.390625 20.796875 65.390625 27.703125 65.390625 
L 27.703125 68 
C 24.796875 67.796875 19.5 67.796875 16.40625 67.796875 
C 13.296875 67.796875 8 67.796875 5.09375 68 
L 5.09375 65.390625 
C 12 65.390625 13.09375 65.390625 13.09375 60.890625 
L 13.09375 22.53125 
C 13.09375 8.109375 24 -2 35.59375 -2 
C 48.59375 -2 56.09375 11.3125 56.09375 21.125 
L 56.09375 59.1875 
C 56.09375 64.796875 61.203125 65.390625 64.09375 65.390625 
L 64.09375 68 
C 61.796875 67.796875 57.59375 67.796875 55.09375 67.796875 
C 52.59375 67.796875 48.296875 67.796875 46 68 
L 46 65.390625 
C 54 65.390625 54 60.6875 54 58.1875 
z
" id="CMR17-85"/>
    </defs>
    <g transform="translate(70.16625 85.720995)scale(0.12 -0.12)">
     <use transform="scale(0.996264)" xlink:href="#CMR17-85"/>
     <use transform="translate(99.148396 0)scale(0.996264)" xlink:href="#CMR17-61"/>
     <use transform="translate(200.939151 0)scale(0.996264)" xlink:href="#CMR17-50"/>
    </g>
   </g>
   <g id="text_8">
    <!-- Anderson -->
    <defs>
     <path d="M 36.296875 69.390625 
C 35.796875 70.6875 35.59375 71 34.59375 71 
C 33.59375 71 33.40625 70.6875 32.90625 69.390625 
L 11.703125 9.0625 
C 9.796875 3.6875 5.796875 2.59375 2.296875 2.59375 
L 2.296875 0 
C 4.09375 0.1875 8.09375 0.1875 10 0.1875 
C 12.5 0.1875 16.5 0.1875 18.90625 0 
L 18.90625 2.59375 
C 14.203125 2.796875 13.5 5.96875 13.5 7.171875 
C 13.5 8.0625 13.703125 8.5625 13.90625 9.15625 
L 19.203125 24 
L 45.40625 24 
L 51.40625 7.078125 
C 51.90625 5.875 51.90625 5.671875 51.90625 5.28125 
C 51.90625 2.59375 47.59375 2.59375 45.703125 2.59375 
L 45.703125 0 
C 48.59375 0.1875 53.796875 0.1875 56.90625 0.1875 
C 59.5 0.1875 64.5 0.1875 66.90625 0 
L 66.90625 2.59375 
C 61.59375 2.59375 59.796875 2.59375 58.5 6.28125 
z
M 32.296875 61.3125 
L 44.5 26.59375 
L 20.09375 26.59375 
z
" id="CMR17-65"/>
     <path d="M 41.5 30.53125 
C 41.5 35.65625 40.5 44 28.703125 44 
C 20.796875 44 16.703125 37.875 15.203125 33.84375 
L 15.09375 33.84375 
L 15.09375 44 
L 3.296875 42.890625 
L 3.296875 40.28125 
C 9.203125 40.28125 10.09375 39.6875 10.09375 34.859375 
L 10.09375 6.921875 
C 10.09375 3.09375 9.703125 2.59375 3.296875 2.59375 
L 3.296875 0 
C 5.703125 0.1875 10.09375 0.1875 12.703125 0.1875 
C 15.296875 0.1875 19.796875 0.1875 22.203125 0 
L 22.203125 2.59375 
C 15.796875 2.59375 15.40625 3 15.40625 6.921875 
L 15.40625 26.21875 
C 15.40625 35.453125 21 42.390625 28 42.390625 
C 35.40625 42.390625 36.203125 35.765625 36.203125 30.9375 
L 36.203125 6.921875 
C 36.203125 3.09375 35.796875 2.59375 29.40625 2.59375 
L 29.40625 0 
C 31.796875 0.1875 36.203125 0.1875 38.796875 0.1875 
C 41.40625 0.1875 45.90625 0.1875 48.296875 0 
L 48.296875 2.59375 
C 41.90625 2.59375 41.5 3 41.5 6.921875 
z
" id="CMR17-110"/>
     <path d="M 29.203125 67.890625 
L 29.203125 65.296875 
C 35.09375 65.296875 36 64.703125 36 60.046875 
L 36 37.046875 
C 35.59375 37.546875 31.5 44 23.40625 44 
C 13.203125 44 3.296875 34.8125 3.296875 21.5 
C 3.296875 8.265625 12.59375 -1 22.40625 -1 
C 30.90625 -1 35.296875 5.640625 35.796875 6.34375 
L 35.796875 -1 
L 47.90625 -0.203125 
L 47.90625 2.40625 
C 42 2.40625 41.09375 3.015625 41.09375 7.859375 
L 41.09375 69 
z
M 35.796875 11.90625 
C 35.796875 8.875 34 6.140625 31.703125 4.125 
C 28.296875 1.09375 24.90625 0.59375 23 0.59375 
C 20.09375 0.59375 9.703125 2.109375 9.703125 21.390625 
C 9.703125 41.1875 21.296875 42.390625 23.90625 42.390625 
C 28.5 42.390625 32.203125 39.765625 34.5 36.140625 
C 35.796875 34.015625 35.796875 33.703125 35.796875 31.890625 
z
" id="CMR17-100"/>
     <path d="M 38.09375 23.484375 
C 38.5 23.890625 38.5 24.09375 38.5 25.09375 
C 38.5 35.171875 33.09375 44 21.703125 44 
C 11.09375 44 2.703125 33.984375 2.703125 21.78125 
C 2.703125 8.65625 12.203125 -1 22.796875 -1 
C 34 -1 38.40625 9.671875 38.40625 11.796875 
C 38.40625 12.5 37.796875 12.5 37.59375 12.5 
C 36.90625 12.5 36.796875 12.296875 36.40625 11.078125 
C 34.203125 4.21875 28.703125 0.796875 23.5 0.796875 
C 19.203125 0.796875 14.90625 3.21875 12.203125 7.65625 
C 9.09375 12.796875 9.09375 18.75 9.09375 23.484375 
z
M 9.203125 25 
C 9.90625 39.234375 17.59375 42.390625 21.59375 42.390625 
C 28.40625 42.390625 33 36.0625 33.09375 25 
z
" id="CMR17-101"/>
     <path d="M 15 23.703125 
C 15 33.34375 19.09375 42.390625 26.59375 42.390625 
C 27.296875 42.390625 28 42.296875 28.703125 41.984375 
C 28.703125 41.984375 26.5 41.28125 26.5 38.671875 
C 26.5 36.265625 28.40625 35.265625 29.90625 35.265625 
C 31.09375 35.265625 33.296875 35.96875 33.296875 38.78125 
C 33.296875 41.984375 30.09375 44 26.703125 44 
C 19.09375 44 15.796875 36.5625 14.796875 33.046875 
L 14.703125 33.046875 
L 14.703125 44 
L 3.09375 42.890625 
L 3.09375 40.28125 
C 9 40.28125 9.90625 39.6875 9.90625 34.859375 
L 9.90625 6.921875 
C 9.90625 3.09375 9.5 2.59375 3.09375 2.59375 
L 3.09375 0 
C 5.5 0.1875 10.09375 0.1875 12.703125 0.1875 
C 15.59375 0.1875 20.703125 0.1875 23.40625 0 
L 23.40625 2.59375 
C 16.203125 2.59375 15 2.59375 15 7.109375 
z
" id="CMR17-114"/>
     <path d="M 30.90625 42 
C 30.90625 43.796875 30.796875 43.890625 30.203125 43.890625 
C 29.796875 43.890625 29.703125 43.796875 28.5 42.296875 
C 28.203125 41.890625 27.296875 40.890625 27 40.5 
C 23.796875 43.890625 19.296875 44 17.59375 44 
C 6.5 44 2.5 38.1875 2.5 32.390625 
C 2.5 23.390625 12.703125 21.296875 15.59375 20.6875 
C 21.90625 19.390625 24.09375 19 26.203125 17.1875 
C 27.5 16 29.703125 13.796875 29.703125 10.1875 
C 29.703125 6 27.296875 0.59375 18.09375 0.59375 
C 9.40625 0.59375 6.296875 7.1875 4.5 16 
C 4.203125 17.390625 4.203125 17.5 3.40625 17.5 
C 2.59375 17.5 2.5 17.390625 2.5 15.390625 
L 2.5 1 
C 2.5 -0.8125 2.59375 -0.90625 3.203125 -0.90625 
C 3.703125 -0.90625 3.796875 -0.8125 4.296875 0 
C 4.90625 0.890625 6.40625 3.296875 7 4.296875 
C 9 1.59375 12.5 -1 18.09375 -1 
C 28 -1 33.296875 4.390625 33.296875 12.1875 
C 33.296875 17.296875 30.59375 20 29.296875 21.1875 
C 26.296875 24.296875 22.796875 25 18.59375 25.796875 
C 13.09375 27 6.09375 28.390625 6.09375 34.5 
C 6.09375 37.09375 7.5 42.59375 17.59375 42.59375 
C 28.296875 42.59375 28.90625 32.59375 29.09375 29.390625 
C 29.203125 28.890625 29.703125 28.796875 30 28.796875 
C 30.90625 28.796875 30.90625 29.09375 30.90625 30.796875 
z
" id="CMR17-115"/>
     <path d="M 43.09375 21.1875 
C 43.09375 34 33.796875 44 22.90625 44 
C 12 44 2.703125 34 2.703125 21.1875 
C 2.703125 8.59375 12 -1 22.90625 -1 
C 33.796875 -1 43.09375 8.59375 43.09375 21.1875 
z
M 22.90625 0.796875 
C 18.203125 0.796875 14.203125 3.59375 11.90625 7.5 
C 9.40625 12 9.09375 17.59375 9.09375 22 
C 9.09375 26.1875 9.296875 31.390625 11.90625 35.890625 
C 13.90625 39.1875 17.796875 42.390625 22.90625 42.390625 
C 27.40625 42.390625 31.203125 39.890625 33.59375 36.390625 
C 36.703125 31.6875 36.703125 25.09375 36.703125 22 
C 36.703125 18.09375 36.5 12.09375 33.796875 7.296875 
C 31 2.6875 26.703125 0.796875 22.90625 0.796875 
z
" id="CMR17-111"/>
    </defs>
    <g transform="translate(164.468739 59.08918)scale(0.12 -0.12)">
     <use transform="scale(0.996264)" xlink:href="#CMR17-65"/>
     <use transform="translate(69.07243 0)scale(0.996264)" xlink:href="#CMR17-110"/>
     <use transform="translate(119.9678 0)scale(0.996264)" xlink:href="#CMR17-100"/>
     <use transform="translate(170.863169 0)scale(0.996264)" xlink:href="#CMR17-101"/>
     <use transform="translate(211.34883 0)scale(0.996264)" xlink:href="#CMR17-114"/>
     <use transform="translate(246.629598 0)scale(0.996264)" xlink:href="#CMR17-115"/>
     <use transform="translate(282.430935 0)scale(0.996264)" xlink:href="#CMR17-111"/>
     <use transform="translate(328.121412 0)scale(0.996264)" xlink:href="#CMR17-110"/>
    </g>
   </g>
  </g>
  <g id="axes_2">
   <g id="patch_7">
    <path d="M 60.75 194.4 
L 217.6875 194.4 
L 217.6875 121.5 
L 60.75 121.5 
z
" style="fill:#ffffff;"/>
   </g>
   <g id="matplotlib.axis_3">
    <g id="xtick_6">
     <g id="line2d_10">
      <defs>
       <path d="M 0 0 
L 0 3.5 
" id="me66b951d2a" style="stroke:#000000;stroke-width:0.8;"/>
      </defs>
      <g>
       <use style="stroke:#000000;stroke-width:0.8;" x="60.75" xlink:href="#me66b951d2a" y="194.4"/>
      </g>
     </g>
     <g id="line2d_11">
      <g>
       <use style="stroke:#000000;stroke-width:0.8;" x="60.75" xlink:href="#m314acf74f8" y="121.5"/>
      </g>
     </g>
     <g id="text_9">
      <!-- 0 -->
      <g transform="translate(57.823505 209.70218)scale(0.12 -0.12)">
       <use transform="scale(0.996264)" xlink:href="#CMR17-48"/>
      </g>
     </g>
    </g>
    <g id="xtick_7">
     <g id="line2d_12">
      <g>
       <use style="stroke:#000000;stroke-width:0.8;" x="119.237153" xlink:href="#me66b951d2a" y="194.4"/>
      </g>
     </g>
     <g id="line2d_13">
      <g>
       <use style="stroke:#000000;stroke-width:0.8;" x="119.237153" xlink:href="#m314acf74f8" y="121.5"/>
      </g>
     </g>
     <g id="text_10">
      <!-- .5 -->
      <g transform="translate(114.684827 209.70218)scale(0.12 -0.12)">
       <use transform="scale(0.996264)" xlink:href="#CMR17-46"/>
       <use transform="translate(24.871058 0)scale(0.996264)" xlink:href="#CMR17-53"/>
      </g>
     </g>
    </g>
    <g id="xtick_8">
     <g id="line2d_14">
      <g>
       <use style="stroke:#000000;stroke-width:0.8;" x="177.724306" xlink:href="#me66b951d2a" y="194.4"/>
      </g>
     </g>
     <g id="line2d_15">
      <g>
       <use style="stroke:#000000;stroke-width:0.8;" x="177.724306" xlink:href="#m314acf74f8" y="121.5"/>
      </g>
     </g>
     <g id="text_11">
      <!-- 1 -->
      <g transform="translate(174.797811 209.70218)scale(0.12 -0.12)">
       <use transform="scale(0.996264)" xlink:href="#CMR17-49"/>
      </g>
     </g>
    </g>
    <g id="xtick_9">
     <g id="line2d_16">
      <g>
       <use style="stroke:#000000;stroke-width:0.8;" x="67.329805" xlink:href="#me66b951d2a" y="194.4"/>
      </g>
     </g>
     <g id="line2d_17">
      <g>
       <use style="stroke:#000000;stroke-width:0.8;" x="67.329805" xlink:href="#m314acf74f8" y="121.5"/>
      </g>
     </g>
    </g>
    <g id="xtick_10">
     <g id="line2d_18">
      <g>
       <use style="stroke:#000000;stroke-width:0.8;" x="155.384202" xlink:href="#me66b951d2a" y="194.4"/>
      </g>
     </g>
     <g id="line2d_19">
      <g>
       <use style="stroke:#000000;stroke-width:0.8;" x="155.384202" xlink:href="#m314acf74f8" y="121.5"/>
      </g>
     </g>
    </g>
    <g id="text_12">
     <!-- $\omega / U$ -->
     <g transform="translate(128.458039 224.993152)scale(0.12 -0.12)">
      <use transform="scale(0.996264)" xlink:href="#CMMI12-33"/>
      <use transform="translate(64.318346 0)scale(0.996264)" xlink:href="#CMMI12-61"/>
      <use transform="translate(113.093265 0)scale(0.996264)" xlink:href="#CMMI12-85"/>
     </g>
    </g>
   </g>
   <g id="matplotlib.axis_4">
    <g id="ytick_3">
     <g id="line2d_20">
      <g>
       <use style="stroke:#000000;stroke-width:0.8;" x="60.75" xlink:href="#m7ee6109d55" y="189.84375"/>
      </g>
     </g>
     <g id="text_13">
      <!-- $\mathdefault{0}$ -->
      <g transform="translate(47.89701 193.99484)scale(0.12 -0.12)">
       <use transform="scale(0.996264)" xlink:href="#CMR17-48"/>
      </g>
     </g>
    </g>
    <g id="ytick_4">
     <g id="line2d_21">
      <g>
       <use style="stroke:#000000;stroke-width:0.8;" x="60.75" xlink:href="#m7ee6109d55" y="144.28125"/>
      </g>
     </g>
     <g id="text_14">
      <!-- $\mathdefault{1}$ -->
      <g transform="translate(47.89701 148.43234)scale(0.12 -0.12)">
       <use transform="scale(0.996264)" xlink:href="#CMR17-49"/>
      </g>
     </g>
    </g>
    <g id="text_15">
     <!-- DOS($\omega$) -->
     <g transform="translate(40.908218 178.635407)rotate(-90)scale(0.12 -0.12)">
      <use transform="scale(0.996264)" xlink:href="#CMR17-68"/>
      <use transform="translate(70.393556 0)scale(0.996264)" xlink:href="#CMR17-79"/>
      <use transform="translate(142.108344 0)scale(0.996264)" xlink:href="#CMR17-83"/>
      <use transform="translate(193.003714 0)scale(0.996264)" xlink:href="#CMR17-40"/>
      <use transform="translate(228.284482 0)scale(0.996264)" xlink:href="#CMMI12-33"/>
      <use transform="translate(292.602828 0)scale(0.996264)" xlink:href="#CMR17-41"/>
     </g>
    </g>
   </g>
   <g id="LineCollection_3">
    <path clip-path="url(#pcf60fe2745)" d="M 67.417535 194.4 
L 67.417535 121.5 
" style="fill:none;stroke:#000000;stroke-dasharray:0.5,0.825;stroke-dashoffset:0;stroke-width:0.5;"/>
   </g>
   <g id="LineCollection_4">
    <path clip-path="url(#pcf60fe2745)" d="M 155.499188 194.4 
L 155.499188 121.5 
" style="fill:none;stroke:#000000;stroke-dasharray:0.5,0.825;stroke-dashoffset:0;stroke-width:0.5;"/>
   </g>
   <g id="line2d_22">
    <path clip-path="url(#pcf60fe2745)" d="M 60.399077 188.082358 
L 61.451846 188.126291 
L 62.855538 187.926707 
L 63.908306 187.621403 
L 64.610152 187.259162 
L 65.311998 186.686092 
L 66.013844 185.77536 
L 67.417535 183.600668 
L 67.768458 183.55898 
L 68.119381 183.852937 
L 70.224919 186.871268 
L 70.926765 187.444655 
L 71.979533 187.946975 
L 73.032302 188.085137 
L 76.190608 188.03098 
L 77.243377 188.34001 
L 78.997992 188.877757 
L 80.752606 189.086695 
L 83.55999 189.184631 
L 90.227525 189.062367 
L 91.631217 188.80039 
L 92.683986 188.406467 
L 93.736754 187.908418 
L 94.4386 187.821007 
L 95.842292 188.102686 
L 99.000598 188.834937 
L 101.457059 188.877305 
L 104.264442 188.892964 
L 107.071825 188.790089 
L 110.230131 188.567236 
L 112.335669 188.193476 
L 113.739361 187.75282 
L 114.792129 187.224804 
L 115.844898 186.386866 
L 116.546744 185.527559 
L 117.24859 184.256048 
L 117.950436 182.319172 
L 118.652282 179.40982 
L 120.055973 172.090935 
L 120.406896 170.940631 
L 120.757819 170.26569 
L 121.108742 169.989266 
L 121.459665 170.001018 
L 122.161511 170.504486 
L 125.319817 173.671426 
L 126.723509 174.677637 
L 128.829046 175.795052 
L 129.881815 176.21371 
L 133.040121 177.143643 
L 134.443813 177.487648 
L 143.567809 178.445304 
L 145.322423 178.212531 
L 152.340882 178.311075 
L 156.90288 178.151804 
L 161.464878 178.035533 
L 162.166723 177.656966 
L 163.219492 177.003201 
L 163.921338 176.807949 
L 165.675953 176.735317 
L 167.430567 176.54166 
L 172.694411 175.639722 
L 175.852717 174.733008 
L 177.256409 174.283646 
L 177.958255 173.870996 
L 179.712869 172.691254 
L 182.520253 171.163349 
L 183.573021 170.282532 
L 185.678559 167.959828 
L 186.731328 166.583069 
L 189.538711 162.437951 
L 189.889634 162.144663 
L 190.240557 162.090898 
L 190.59148 162.414932 
L 190.942403 163.267484 
L 191.293326 164.756386 
L 191.995171 169.4165 
L 193.04794 176.83169 
L 193.749786 180.130186 
L 194.451632 182.301594 
L 195.153478 183.811975 
L 195.855324 184.878614 
L 196.557169 185.603767 
L 197.259015 186.08301 
L 197.960861 186.370664 
L 198.662707 186.477045 
L 199.715476 186.325911 
L 200.417321 186.285625 
L 201.119167 186.60694 
L 202.522859 187.549387 
L 203.575628 187.947549 
L 204.628396 188.121173 
L 206.032088 188.132244 
L 207.43578 187.962685 
L 209.190394 187.47422 
L 209.89224 187.145684 
L 210.594086 186.529811 
L 211.295932 185.472251 
L 213.050547 181.977206 
L 213.401469 182.034739 
L 213.752392 182.542635 
L 215.507007 186.317883 
L 216.208853 187.123614 
L 217.261622 187.87648 
L 217.963467 188.228658 
L 217.963467 188.228658 
" style="fill:none;stroke:#f78347;stroke-linecap:square;stroke-width:0.5;"/>
   </g>
   <g id="line2d_23">
    <path clip-path="url(#pcf60fe2745)" d="M 60.516051 188.32476 
L 61.217897 188.327836 
L 63.323435 187.865591 
L 64.025281 187.561563 
L 64.727126 187.029195 
L 65.195024 186.475424 
L 65.662921 185.583045 
L 66.130818 184.204872 
L 66.832664 181.148853 
L 67.300561 179.455318 
L 67.53451 179.361797 
L 67.768458 179.863251 
L 69.17215 184.914905 
L 69.873996 186.436874 
L 70.575842 187.30689 
L 71.511636 188.016614 
L 72.213482 188.341351 
L 72.915328 188.429825 
L 74.786917 188.157328 
L 75.95666 187.815645 
L 76.658506 188.071855 
L 78.530095 189.060918 
L 79.699838 189.25791 
L 82.74117 189.447946 
L 86.718296 189.502957 
L 89.993577 189.445482 
L 91.631217 189.245316 
L 92.567011 188.938834 
L 94.204652 188.224024 
L 95.608343 188.562065 
L 96.544138 188.807052 
L 97.947829 189.169981 
L 99.351521 189.316095 
L 101.924956 189.246733 
L 103.562596 189.252601 
L 105.668134 189.199143 
L 107.305774 189.131781 
L 109.879209 189.059765 
L 112.218695 188.772334 
L 113.856335 188.384019 
L 115.026078 187.903343 
L 115.961872 187.265661 
L 116.663718 186.499826 
L 117.131616 185.745178 
L 117.599513 184.664494 
L 118.06741 183.056549 
L 118.535307 180.603482 
L 119.003204 176.977214 
L 119.938999 168.790153 
L 120.406896 167.079949 
L 120.640845 166.878717 
L 120.874793 166.968733 
L 121.342691 167.658034 
L 122.980331 170.760761 
L 124.384023 172.492743 
L 125.085868 173.156755 
L 127.191406 174.508939 
L 127.893252 174.916037 
L 129.530892 176.22113 
L 132.104327 176.792909 
L 133.040121 177.092535 
L 133.975916 177.460312 
L 134.677761 177.681579 
L 136.081453 177.590474 
L 137.485145 177.504592 
L 143.567809 178.488818 
L 145.673346 178.230628 
L 146.843089 178.154371 
L 147.544935 178.144915 
L 149.182575 178.494529 
L 151.75601 178.369948 
L 152.457856 178.146097 
L 153.39365 178.175595 
L 154.563393 178.217354 
L 155.733137 178.033219 
L 156.90288 177.859932 
L 157.838674 177.90742 
L 158.774468 178.265451 
L 160.412109 178.87439 
L 160.880006 178.918149 
L 161.347903 178.746627 
L 161.8158 178.245036 
L 162.985544 176.533907 
L 163.453441 176.372022 
L 164.389235 176.559818 
L 165.792927 176.65009 
L 168.132413 176.49413 
L 169.302156 176.106221 
L 170.939796 175.643209 
L 172.811385 175.494759 
L 174.215077 175.255962 
L 175.150871 175.070117 
L 176.086666 174.733005 
L 177.490357 174.481576 
L 177.958255 173.978835 
L 178.894049 172.77078 
L 179.595895 172.3367 
L 181.701432 171.294449 
L 182.637227 170.647879 
L 183.105124 170.336402 
L 183.573021 169.755007 
L 184.742764 167.930791 
L 186.146456 166.727045 
L 186.848302 165.413456 
L 188.251994 162.264648 
L 189.421737 159.144597 
L 189.889634 158.313676 
L 190.357531 157.934547 
L 190.59148 158.067101 
L 190.825428 158.585914 
L 191.059377 159.650333 
L 191.527274 163.779568 
L 192.697017 177.335222 
L 193.164914 180.463754 
L 193.632812 182.470416 
L 194.334658 184.338824 
L 195.036503 185.638261 
L 195.738349 186.524496 
L 196.440195 187.077345 
L 197.375989 187.511886 
L 198.311784 187.707508 
L 199.01363 187.661193 
L 200.417321 187.292919 
L 201.119167 187.832894 
L 201.821013 188.300215 
L 202.756808 188.613541 
L 204.160499 188.787642 
L 205.79814 188.761283 
L 206.967883 188.563846 
L 207.903677 188.181764 
L 208.839471 187.781256 
L 209.775266 187.543621 
L 210.243163 187.191958 
L 210.71106 186.55896 
L 211.178958 185.516272 
L 211.646855 183.886448 
L 212.348701 180.172151 
L 212.816598 177.629742 
L 213.050547 176.973857 
L 213.284495 177.077206 
L 213.518444 177.931216 
L 214.688187 184.267943 
L 215.156084 185.712718 
L 215.623981 186.578569 
L 216.325827 187.279785 
L 217.729519 188.400454 
L 217.729519 188.400454 
" style="fill:none;stroke:#55115c;stroke-dasharray:0.5,0.825;stroke-dashoffset:0;stroke-width:0.5;"/>
   </g>
   <g id="patch_8">
    <path d="M 60.75 194.4 
L 60.75 121.5 
" style="fill:none;stroke:#000000;stroke-linecap:square;stroke-linejoin:miter;stroke-width:1.2;"/>
   </g>
   <g id="patch_9">
    <path d="M 217.6875 194.4 
L 217.6875 121.5 
" style="fill:none;stroke:#000000;stroke-linecap:square;stroke-linejoin:miter;stroke-width:1.2;"/>
   </g>
   <g id="patch_10">
    <path d="M 60.75 194.4 
L 217.6875 194.4 
" style="fill:none;stroke:#000000;stroke-linecap:square;stroke-linejoin:miter;stroke-width:1.2;"/>
   </g>
   <g id="patch_11">
    <path d="M 60.75 121.5 
L 217.6875 121.5 
" style="fill:none;stroke:#000000;stroke-linecap:square;stroke-linejoin:miter;stroke-width:1.2;"/>
   </g>
   <g id="text_16">
    <!-- (c) -->
    <defs>
     <path d="M 34.90625 35 
C 33 35 30.203125 35 30.203125 31.484375 
C 30.203125 28.6875 32.5 27.890625 33.796875 27.890625 
C 34.5 27.890625 37.40625 28.1875 37.40625 31.6875 
C 37.40625 38.6875 30.59375 44 22.90625 44 
C 12.296875 44 3.296875 34.390625 3.296875 21.546875 
C 3.296875 8.140625 12.703125 -1 22.90625 -1 
C 35.296875 -1 38.40625 10.5625 38.40625 11.671875 
C 38.40625 12.078125 38.296875 12.375 37.59375 12.375 
C 36.90625 12.375 36.796875 12.28125 36.40625 10.96875 
C 33.796875 2.8125 28.09375 0.796875 23.796875 0.796875 
C 17.40625 0.796875 9.703125 6.734375 9.703125 21.640625 
C 9.703125 36.84375 17.09375 42.1875 23 42.1875 
C 26.90625 42.1875 32.703125 40.34375 34.90625 35 
z
" id="CMR17-99"/>
    </defs>
    <g transform="translate(70.16625 133.382376)scale(0.12 -0.12)">
     <use transform="scale(0.996264)" xlink:href="#CMR17-40"/>
     <use transform="translate(35.280768 0)scale(0.996264)" xlink:href="#CMR17-99"/>
     <use transform="translate(75.766428 0)scale(0.996264)" xlink:href="#CMR17-41"/>
    </g>
    <!-- T = 1.5 -->
    <g transform="translate(70.16625 146.333784)scale(0.12 -0.12)">
     <use transform="scale(0.996264)" xlink:href="#CMR17-84"/>
     <use transform="translate(96.585847 0)scale(0.996264)" xlink:href="#CMR17-61"/>
     <use transform="translate(198.376602 0)scale(0.996264)" xlink:href="#CMR17-49"/>
     <use transform="translate(244.067079 0)scale(0.996264)" xlink:href="#CMR17-46"/>
     <use transform="translate(268.938137 0)scale(0.996264)" xlink:href="#CMR17-53"/>
    </g>
    <!-- U = 2 -->
    <g transform="translate(70.16625 158.620995)scale(0.12 -0.12)">
     <use transform="scale(0.996264)" xlink:href="#CMR17-85"/>
     <use transform="translate(99.148396 0)scale(0.996264)" xlink:href="#CMR17-61"/>
     <use transform="translate(200.939151 0)scale(0.996264)" xlink:href="#CMR17-50"/>
    </g>
   </g>
   <g id="text_17">
    <!-- CDW -->
    <defs>
     <path d="M 62.09375 67.984375 
C 62.09375 69.796875 62 69.890625 61.40625 69.890625 
C 61 69.890625 60.90625 69.796875 60.203125 68.59375 
L 55.796875 60.140625 
C 50.90625 66.390625 44.90625 70 37.203125 70 
C 20.09375 70 4.59375 54.796875 4.59375 34.046875 
C 4.59375 13.078125 20.09375 -2 37.296875 -2 
C 52.59375 -2 62.09375 11.578125 62.09375 23.15625 
C 62.09375 24.171875 62.09375 24.578125 61.203125 24.578125 
C 60.40625 24.578125 60.40625 24.265625 60.296875 23.359375 
C 59.5 9.25 49.5 0.59375 38.703125 0.59375 
C 28.5 0.59375 12.203125 7.84375 12.203125 34.046875 
C 12.203125 60.34375 28.796875 67.390625 38.5 67.390625 
C 49.796875 67.390625 58 57.515625 59.90625 43.515625 
C 60.09375 42.296875 60.09375 42.109375 61 42.109375 
C 62.09375 42.109375 62.09375 42.296875 62.09375 44.125 
z
" id="CMR17-67"/>
     <path d="M 86.296875 58.984375 
C 87.203125 61.6875 88.703125 65.203125 94.5 65.390625 
L 94.5 68 
C 92.796875 67.890625 89.296875 67.796875 87.5 67.796875 
C 85 67.796875 80.59375 67.796875 78.203125 68 
L 78.203125 65.390625 
C 82.703125 65.296875 84.59375 62.796875 84.59375 60.390625 
C 84.59375 59.6875 84.5 59.28125 84.09375 58.1875 
L 68.59375 8.703125 
L 52.296875 60.78125 
C 52 61.796875 51.90625 62.1875 51.90625 62.59375 
C 51.90625 65.390625 56.296875 65.390625 58.203125 65.390625 
L 58.203125 68 
C 55.296875 67.796875 50.296875 67.796875 47.203125 67.796875 
C 44.703125 67.796875 40.203125 67.796875 37.90625 68 
L 37.90625 65.390625 
C 42.5 65.390625 43.703125 65.09375 44.703125 63.296875 
C 45.09375 62.390625 46.703125 57.1875 46.703125 56.875 
C 46.703125 56.484375 46.5 55.875 46.40625 55.578125 
L 31.703125 8.8125 
L 15.40625 60.78125 
C 14.90625 62.1875 14.90625 62.390625 14.90625 62.59375 
C 14.90625 65.390625 19.296875 65.390625 21.296875 65.390625 
L 21.296875 68 
C 18.40625 67.796875 13.40625 67.796875 10.296875 67.796875 
C 7.703125 67.796875 3.296875 67.796875 0.90625 68 
L 0.90625 65.390625 
C 6.90625 65.390625 7.296875 64.796875 8.296875 61.59375 
L 27.796875 -0.3125 
C 28.296875 -1.8125 28.296875 -2 29.203125 -2 
C 30 -2 30.296875 -1.8125 30.703125 -0.40625 
L 47.703125 53.875 
L 64.703125 -0.40625 
C 65.09375 -1.8125 65.40625 -2 66.203125 -2 
C 67.09375 -2 67.09375 -1.8125 67.59375 -0.3125 
z
" id="CMR17-87"/>
    </defs>
    <g transform="translate(183.883224 131.98918)scale(0.12 -0.12)">
     <use transform="scale(0.996264)" xlink:href="#CMR17-67"/>
     <use transform="translate(66.509881 0)scale(0.996264)" xlink:href="#CMR17-68"/>
     <use transform="translate(134.300983 0)scale(0.996264)" xlink:href="#CMR17-87"/>
    </g>
   </g>
  </g>
  <g id="axes_3">
   <g id="patch_12">
    <path d="M 217.6875 121.5 
L 374.625 121.5 
L 374.625 48.6 
L 217.6875 48.6 
z
" style="fill:#ffffff;"/>
   </g>
   <g id="matplotlib.axis_5">
    <g id="xtick_11">
     <g id="line2d_24">
      <g>
       <use style="stroke:#000000;stroke-width:0.8;" x="217.6875" xlink:href="#m314acf74f8" y="48.6"/>
      </g>
     </g>
    </g>
    <g id="xtick_12">
     <g id="line2d_25">
      <g>
       <use style="stroke:#000000;stroke-width:0.8;" x="296.15625" xlink:href="#m314acf74f8" y="48.6"/>
      </g>
     </g>
    </g>
    <g id="xtick_13">
     <g id="line2d_26">
      <g>
       <use style="stroke:#000000;stroke-width:0.8;" x="374.625" xlink:href="#m314acf74f8" y="48.6"/>
      </g>
     </g>
    </g>
    <g id="xtick_14">
     <g id="line2d_27">
      <g>
       <use style="stroke:#000000;stroke-width:0.8;" x="255.3525" xlink:href="#m314acf74f8" y="48.6"/>
      </g>
     </g>
     <g id="text_18">
      <!-- $\omega_0$ -->
      <g transform="translate(249.590789 39.275404)scale(0.12 -0.12)">
       <use transform="scale(0.996264)" xlink:href="#CMMI12-33"/>
       <use transform="translate(60.743753 -14.943915)scale(0.697382)" xlink:href="#CMR17-48"/>
      </g>
     </g>
    </g>
    <g id="xtick_15">
     <g id="line2d_28">
      <g>
       <use style="stroke:#000000;stroke-width:0.8;" x="307.166391" xlink:href="#m314acf74f8" y="48.6"/>
      </g>
     </g>
     <g id="text_19">
      <!-- $\omega_1$ -->
      <g transform="translate(301.404679 39.275404)scale(0.12 -0.12)">
       <use transform="scale(0.996264)" xlink:href="#CMMI12-33"/>
       <use transform="translate(60.743753 -14.943915)scale(0.697382)" xlink:href="#CMR17-49"/>
      </g>
     </g>
    </g>
    <g id="text_20">
     <!-- $\omega / U$ -->
     <g transform="translate(285.395539 26.973224)scale(0.12 -0.12)">
      <use transform="scale(0.996264)" xlink:href="#CMMI12-33"/>
      <use transform="translate(64.318346 0)scale(0.996264)" xlink:href="#CMMI12-61"/>
      <use transform="translate(113.093265 0)scale(0.996264)" xlink:href="#CMMI12-85"/>
     </g>
    </g>
   </g>
   <g id="matplotlib.axis_6">
    <g id="ytick_5">
     <g id="line2d_29">
      <g>
       <use style="stroke:#000000;stroke-width:0.8;" x="217.6875" xlink:href="#m7ee6109d55" y="116.94375"/>
      </g>
     </g>
    </g>
    <g id="ytick_6">
     <g id="line2d_30">
      <g>
       <use style="stroke:#000000;stroke-width:0.8;" x="217.6875" xlink:href="#m7ee6109d55" y="71.38125"/>
      </g>
     </g>
    </g>
   </g>
   <g id="LineCollection_5">
    <path clip-path="url(#p2dce9fa95d)" d="M 255.3525 121.5 
L 255.3525 48.6 
" style="fill:none;stroke:#000000;stroke-dasharray:0.5,0.825;stroke-dashoffset:0;stroke-width:0.5;"/>
   </g>
   <g id="LineCollection_6">
    <path clip-path="url(#p2dce9fa95d)" d="M 307.3302 121.5 
L 307.3302 48.6 
" style="fill:none;stroke:#000000;stroke-dasharray:0.5,0.825;stroke-dashoffset:0;stroke-width:0.5;"/>
   </g>
   <g id="line2d_31">
    <path clip-path="url(#p2dce9fa95d)" d="M 217.499175 116.840608 
L 233.318475 116.735385 
L 235.7667 116.541523 
L 237.461625 116.167645 
L 240.2865 115.355719 
L 240.66315 115.200238 
L 241.228125 115.314737 
L 241.604775 115.360009 
L 241.981425 115.215581 
L 242.358075 114.836466 
L 243.2997 113.580441 
L 243.488025 113.665878 
L 244.053 114.510244 
L 244.617975 115.141969 
L 244.994625 115.301525 
L 245.371275 115.285089 
L 245.747925 115.096103 
L 246.124575 114.708636 
L 246.68955 113.671986 
L 247.631175 111.397155 
L 247.8195 111.453173 
L 248.19615 112.278103 
L 248.94945 114.20185 
L 249.514425 114.925072 
L 250.0794 115.314908 
L 250.644375 115.494967 
L 251.20935 115.483211 
L 251.774325 115.281625 
L 252.3393 114.824862 
L 252.904275 113.993219 
L 254.034225 111.529169 
L 254.410875 110.306702 
L 254.97585 107.118181 
L 255.3525 104.90784 
L 255.540825 104.280614 
L 255.72915 104.16859 
L 255.917475 104.598918 
L 256.294125 106.641407 
L 257.047425 110.948819 
L 257.6124 112.717114 
L 258.177375 113.860168 
L 258.74235 114.445265 
L 259.307325 114.618763 
L 259.8723 114.821116 
L 261.3789 115.72799 
L 262.320525 115.942513 
L 263.450475 115.959248 
L 264.580425 115.738086 
L 265.333725 115.355581 
L 265.8987 114.828491 
L 266.463675 114.030211 
L 267.216975 112.586388 
L 268.1586 110.474625 
L 268.346925 110.356132 
L 268.53525 110.412218 
L 269.476875 111.204449 
L 269.6652 111.038788 
L 270.04185 110.148428 
L 270.4185 108.459623 
L 271.736775 100.850717 
L 271.9251 100.751612 
L 272.113425 101.107309 
L 272.490075 102.616427 
L 273.05505 105.963763 
L 273.620025 109.338316 
L 273.996675 110.794091 
L 274.373325 111.564609 
L 274.749975 111.857428 
L 275.31495 112.16793 
L 275.6916 112.657415 
L 276.82155 114.430118 
L 277.57485 115.034094 
L 278.139825 115.224308 
L 278.7048 115.201081 
L 279.4581 114.92822 
L 280.023075 114.437545 
L 280.58805 113.509572 
L 281.34135 112.312288 
L 281.529675 112.228719 
L 281.718 112.275649 
L 282.09465 112.712757 
L 283.412925 114.906822 
L 283.9779 115.284807 
L 284.542875 115.39595 
L 286.049475 115.357911 
L 287.556075 115.873655 
L 290.192625 116.079811 
L 291.88755 115.942293 
L 293.205825 115.64628 
L 294.14745 115.240984 
L 294.90075 114.6582 
L 295.465725 113.896467 
L 295.842375 113.096606 
L 296.40735 111.202953 
L 297.91395 104.865864 
L 298.66725 102.97538 
L 299.232225 102.230697 
L 299.7972 101.356041 
L 299.985525 101.10145 
L 300.17385 101.052281 
L 300.362175 101.252166 
L 300.92715 102.330773 
L 301.115475 102.416218 
L 301.3038 102.228073 
L 301.492125 101.729735 
L 301.868775 99.846229 
L 302.245425 97.684192 
L 302.43375 97.208937 
L 302.622075 97.459831 
L 302.998725 99.643848 
L 303.5637 103.099401 
L 303.94035 104.322217 
L 304.317 104.857497 
L 305.44695 105.438136 
L 305.635275 105.38157 
L 305.8236 105.188636 
L 306.20025 104.283216 
L 306.5769 102.517151 
L 307.141875 98.173635 
L 307.895175 91.363775 
L 308.0835 90.437 
L 308.271825 90.207076 
L 308.46015 90.696353 
L 308.8368 93.102072 
L 309.5901 98.170885 
L 310.531725 102.706309 
L 310.908375 103.85823 
L 311.285025 104.421432 
L 311.85 104.839268 
L 312.038325 104.841688 
L 312.22665 104.678931 
L 312.6033 103.689294 
L 313.3566 100.559129 
L 313.544925 100.427344 
L 313.73325 100.735652 
L 314.8632 104.335177 
L 315.6165 104.789456 
L 316.181475 106.094381 
L 317.1231 108.583788 
L 318.25305 111.673876 
L 318.6297 112.174633 
L 319.00635 112.250323 
L 319.383 111.971501 
L 319.947975 111.44577 
L 320.324625 111.358523 
L 320.701275 111.585968 
L 321.26625 112.574301 
L 322.01955 113.905202 
L 322.584525 114.462466 
L 324.091125 115.306823 
L 324.844425 115.550011 
L 325.78605 115.626207 
L 326.727675 115.505436 
L 327.480975 115.226719 
L 328.04595 114.825964 
L 328.610925 114.141491 
L 329.1759 113.087353 
L 329.9292 111.119808 
L 330.6825 108.781649 
L 330.870825 108.545792 
L 331.4358 108.465257 
L 331.624125 108.205653 
L 332.000775 106.78856 
L 332.377425 103.997699 
L 333.130725 97.412715 
L 333.31905 97.007642 
L 333.507375 97.480095 
L 333.884025 100.471503 
L 334.637325 107.197842 
L 335.013975 108.91083 
L 335.9556 111.183326 
L 336.520575 112.526462 
L 337.08555 113.262515 
L 338.2155 114.276364 
L 338.780475 114.689374 
L 339.34545 114.844887 
L 339.910425 114.757411 
L 340.4754 114.390586 
L 340.85205 113.922346 
L 341.2287 113.187559 
L 341.793675 111.429449 
L 342.35865 108.896736 
L 342.923625 105.087645 
L 343.300275 102.720697 
L 343.4886 102.425117 
L 343.676925 102.937779 
L 344.2419 107.047422 
L 344.806875 110.438298 
L 345.37185 112.474338 
L 345.936825 113.60761 
L 346.313475 113.984624 
L 346.690125 114.093375 
L 347.066775 113.927618 
L 347.443425 113.436223 
L 347.820075 112.562946 
L 348.573375 110.642289 
L 348.7617 110.715976 
L 349.13835 111.694588 
L 349.703325 113.324824 
L 350.079975 113.899175 
L 350.456625 114.063791 
L 350.833275 113.852595 
L 351.586575 113.007945 
L 351.7749 113.070719 
L 352.15155 113.621267 
L 352.716525 114.392018 
L 353.093175 114.551058 
L 353.65815 114.684672 
L 355.729725 115.796051 
L 357.236325 116.345595 
L 358.5546 116.57082 
L 361.19115 116.720581 
L 368.3475 116.832169 
L 374.75055 116.867802 
L 374.75055 116.867802 
" style="fill:none;stroke:#f78347;stroke-linecap:square;stroke-width:0.5;"/>
   </g>
   <g id="line2d_32">
    <path clip-path="url(#p2dce9fa95d)" d="M 217.56195 116.866733 
L 233.5068 116.747399 
L 235.0134 116.581405 
L 236.64555 116.045827 
L 238.40325 115.356654 
L 238.90545 114.874197 
L 239.15655 115.015449 
L 239.5332 115.250035 
L 239.7843 115.161657 
L 240.0354 114.828967 
L 240.5376 113.916349 
L 240.66315 113.917663 
L 240.91425 114.287779 
L 241.41645 115.05472 
L 241.66755 115.13793 
L 241.91865 115.016273 
L 242.16975 114.667565 
L 242.5464 113.578637 
L 243.17415 110.907578 
L 243.2997 110.963117 
L 243.5508 111.927661 
L 244.053 114.116769 
L 244.42965 114.919869 
L 244.8063 115.298833 
L 245.18295 115.395892 
L 245.5596 115.259875 
L 245.93625 114.84287 
L 246.3129 114.03824 
L 246.8151 112.3136 
L 247.19175 109.949217 
L 247.5684 107.57572 
L 247.69395 107.321427 
L 247.8195 107.489129 
L 248.0706 108.899322 
L 248.69835 112.995177 
L 249.075 114.167887 
L 249.45165 114.728218 
L 250.3305 115.524753 
L 250.8327 115.704437 
L 251.46045 115.66301 
L 251.96265 115.415734 
L 252.3393 115.022489 
L 252.71595 114.337001 
L 253.3437 112.626329 
L 253.8459 111.316506 
L 254.22255 110.888921 
L 254.47365 110.035753 
L 254.72475 108.289483 
L 255.72915 99.125908 
L 255.8547 99.468796 
L 256.1058 101.495002 
L 256.98465 110.402021 
L 257.3613 111.758409 
L 258.3657 114.160515 
L 258.74235 114.42782 
L 258.99345 114.346085 
L 259.6212 113.856644 
L 259.8723 114.001114 
L 261.00225 115.497234 
L 262.6344 116.144774 
L 263.6388 116.172567 
L 264.6432 116.005048 
L 265.27095 115.72286 
L 265.77315 115.243071 
L 266.27535 114.357779 
L 267.53085 111.309613 
L 268.28415 108.516955 
L 268.4097 108.622525 
L 268.6608 109.414524 
L 269.28855 111.89184 
L 269.53965 112.173273 
L 269.79075 112.000364 
L 270.04185 111.374047 
L 270.4185 109.416105 
L 271.04625 103.869935 
L 271.79955 96.796744 
L 271.9251 96.555645 
L 272.05065 96.721806 
L 272.55285 98.256693 
L 272.80395 100.140543 
L 273.6828 109.37749 
L 274.05945 111.199353 
L 274.31055 111.700875 
L 274.56165 111.746583 
L 275.31495 111.27521 
L 275.56605 111.706651 
L 276.57045 114.151695 
L 277.4493 115.267437 
L 277.9515 115.523821 
L 278.4537 115.494029 
L 278.9559 115.198993 
L 279.9603 114.424012 
L 280.33695 113.575334 
L 280.83915 111.719476 
L 281.34135 109.853588 
L 281.59245 109.676254 
L 281.84355 109.80458 
L 282.09465 110.351286 
L 283.35015 114.695228 
L 283.85235 115.156969 
L 284.35455 115.328484 
L 284.7312 115.181245 
L 285.61005 114.602422 
L 285.9867 114.716648 
L 286.36335 115.117108 
L 286.86555 115.693576 
L 287.2422 115.87026 
L 291.0087 116.362005 
L 292.5153 116.311806 
L 294.14745 116.051706 
L 295.0263 115.728146 
L 295.65405 115.272497 
L 296.0307 114.783311 
L 296.40735 113.965663 
L 296.90955 112.223833 
L 298.7928 104.784195 
L 299.0439 104.428774 
L 299.5461 104.092722 
L 299.92275 102.882457 
L 300.17385 102.426508 
L 300.2994 102.642969 
L 300.67605 104.649032 
L 300.92715 105.801569 
L 301.0527 106.0459 
L 301.17825 106.031901 
L 301.42935 105.203456 
L 301.68045 103.24284 
L 302.0571 98.091035 
L 302.43375 93.886309 
L 302.5593 94.258261 
L 302.8104 97.472717 
L 303.3126 104.047827 
L 303.68925 106.298122 
L 304.19145 107.774784 
L 304.44255 107.945548 
L 304.8192 107.977776 
L 305.19585 108.424386 
L 305.5725 108.803749 
L 305.8236 108.691717 
L 306.0747 108.130582 
L 306.3258 107.009649 
L 306.70245 104.12749 
L 307.3302 96.776132 
L 308.20905 85.714984 
L 308.3346 85.794568 
L 308.5857 88.402814 
L 309.21345 96.736276 
L 309.71565 100.55122 
L 310.21785 103.869829 
L 310.72005 107.253031 
L 311.0967 108.30215 
L 311.97555 109.257616 
L 312.1011 109.161334 
L 312.3522 108.486424 
L 312.6033 107.038883 
L 313.48215 100.572396 
L 313.6077 100.997921 
L 313.98435 104.022114 
L 314.48655 107.693843 
L 314.8632 108.804213 
L 315.1143 108.865273 
L 315.3654 108.786402 
L 315.49095 108.922023 
L 315.74205 109.686039 
L 316.24425 111.269355 
L 317.3742 113.325815 
L 317.8764 113.719634 
L 318.25305 113.813992 
L 318.50415 113.711553 
L 318.75525 113.397212 
L 319.00635 112.757253 
L 320.01075 109.479475 
L 320.3874 109.604642 
L 320.6385 109.946291 
L 321.01515 111.401037 
L 321.51735 113.207068 
L 321.894 114.006824 
L 322.27065 114.355897 
L 323.4006 114.942158 
L 324.405 115.693166 
L 325.1583 115.945725 
L 326.03715 115.974091 
L 327.04155 115.795115 
L 327.6693 115.511191 
L 328.1715 115.063554 
L 328.54815 114.469131 
L 329.05035 113.221582 
L 329.9292 110.10958 
L 330.6825 106.597821 
L 330.80805 106.766122 
L 331.4358 108.685624 
L 331.56135 108.590154 
L 331.81245 107.605499 
L 332.06355 105.395748 
L 332.4402 99.295903 
L 332.9424 90.299598 
L 333.06795 89.555188 
L 333.1935 89.661672 
L 333.4446 92.287462 
L 334.32345 106.470501 
L 334.7001 108.993685 
L 334.9512 109.621521 
L 335.2023 109.703344 
L 335.32785 109.716817 
L 335.4534 109.842429 
L 335.7045 110.571387 
L 336.2067 112.292579 
L 336.58335 112.883732 
L 336.83445 112.979759 
L 337.4622 112.827967 
L 337.9644 113.76688 
L 338.4666 114.461091 
L 338.9688 114.743637 
L 339.471 114.723576 
L 339.9732 114.410734 
L 340.34985 113.94188 
L 340.7265 113.154269 
L 341.10315 111.816702 
L 341.4798 109.599892 
L 341.982 104.869735 
L 342.35865 99.641132 
L 342.60975 93.627775 
L 343.2375 70.964658 
L 343.2375 70.964658 
" style="fill:none;stroke:#55115c;stroke-dasharray:0.5,0.825;stroke-dashoffset:0;stroke-width:0.5;"/>
   </g>
   <g id="patch_13">
    <path d="M 217.6875 121.5 
L 217.6875 48.6 
" style="fill:none;stroke:#000000;stroke-linecap:square;stroke-linejoin:miter;stroke-width:1.2;"/>
   </g>
   <g id="patch_14">
    <path d="M 374.625 121.5 
L 374.625 48.6 
" style="fill:none;stroke:#000000;stroke-linecap:square;stroke-linejoin:miter;stroke-width:1.2;"/>
   </g>
   <g id="patch_15">
    <path d="M 217.6875 121.5 
L 374.625 121.5 
" style="fill:none;stroke:#000000;stroke-linecap:square;stroke-linejoin:miter;stroke-width:1.2;"/>
   </g>
   <g id="patch_16">
    <path d="M 217.6875 48.6 
L 374.625 48.6 
" style="fill:none;stroke:#000000;stroke-linecap:square;stroke-linejoin:miter;stroke-width:1.2;"/>
   </g>
   <g id="text_21">
    <!-- (b) -->
    <defs>
     <path d="M 15 69 
L 3.09375 67.890625 
L 3.09375 65.296875 
C 9 65.296875 9.90625 64.703125 9.90625 60.046875 
L 9.90625 -0.203125 
L 11.703125 -0.203125 
L 14.59375 6.953125 
C 17.5 2.203125 21.796875 -1 27.59375 -1 
C 37.59375 -1 47.703125 7.859375 47.703125 21.59375 
C 47.703125 34.515625 38.703125 44 28.59375 44 
C 22.40625 44 18 40.671875 15 36.734375 
z
M 15.203125 31.59375 
C 15.203125 33.40625 15.203125 33.703125 16.59375 35.828125 
C 20.5 41.890625 26.09375 42.390625 28 42.390625 
C 31 42.390625 41.296875 40.78125 41.296875 21.6875 
C 41.296875 1.703125 29.5 0.59375 27.09375 0.59375 
C 24 0.59375 19.5 1.796875 16.296875 7.65625 
C 15.203125 9.578125 15.203125 9.78125 15.203125 11.59375 
z
" id="CMR17-98"/>
    </defs>
    <g transform="translate(227.10375 60.482376)scale(0.12 -0.12)">
     <use transform="scale(0.996264)" xlink:href="#CMR17-40"/>
     <use transform="translate(35.280768 0)scale(0.996264)" xlink:href="#CMR17-98"/>
     <use transform="translate(86.176138 0)scale(0.996264)" xlink:href="#CMR17-41"/>
    </g>
    <!-- T = 2.5 -->
    <g transform="translate(227.10375 73.433784)scale(0.12 -0.12)">
     <use transform="scale(0.996264)" xlink:href="#CMR17-84"/>
     <use transform="translate(96.585847 0)scale(0.996264)" xlink:href="#CMR17-61"/>
     <use transform="translate(198.376602 0)scale(0.996264)" xlink:href="#CMR17-50"/>
     <use transform="translate(244.067079 0)scale(0.996264)" xlink:href="#CMR17-46"/>
     <use transform="translate(268.938137 0)scale(0.996264)" xlink:href="#CMR17-53"/>
    </g>
    <!-- U = 5 -->
    <g transform="translate(227.10375 85.720995)scale(0.12 -0.12)">
     <use transform="scale(0.996264)" xlink:href="#CMR17-85"/>
     <use transform="translate(99.148396 0)scale(0.996264)" xlink:href="#CMR17-61"/>
     <use transform="translate(200.939151 0)scale(0.996264)" xlink:href="#CMR17-53"/>
    </g>
   </g>
   <g id="text_22">
    <!-- Mott -->
    <defs>
     <path d="M 20.90625 66.390625 
C 20.296875 67.890625 20.203125 68 18.09375 68 
L 5.296875 68 
L 5.296875 65.390625 
C 12.203125 65.390625 13.296875 65.390625 13.296875 60.90625 
L 13.296875 9.75 
C 13.296875 7.265625 13.296875 2.59375 5.296875 2.59375 
L 5.296875 0 
C 7.59375 0.1875 11.796875 0.1875 14.296875 0.1875 
C 16.796875 0.1875 21 0.1875 23.296875 0 
L 23.296875 2.59375 
C 15.296875 2.59375 15.296875 7.265625 15.296875 9.75 
L 15.296875 64.984375 
L 15.40625 64.984375 
L 38.90625 1.59375 
C 39.296875 0.59375 39.5 0 40.296875 0 
C 41.09375 0 41.296875 0.59375 41.703125 1.59375 
L 65.40625 65.484375 
L 65.5 65.484375 
L 65.5 7.078125 
C 65.5 2.59375 64.40625 2.59375 57.5 2.59375 
L 57.5 0 
C 60.203125 0.1875 65.59375 0.1875 68.5 0.1875 
C 71.40625 0.1875 76.90625 0.1875 79.59375 0 
L 79.59375 2.59375 
C 72.703125 2.59375 71.59375 2.59375 71.59375 7.078125 
L 71.59375 60.90625 
C 71.59375 65.390625 72.703125 65.390625 79.59375 65.390625 
L 79.59375 68 
L 66.90625 68 
C 64.796875 68 64.703125 67.890625 64.09375 66.390625 
L 42.5 8.0625 
z
" id="CMR17-77"/>
     <path d="M 15.09375 40.390625 
L 29.09375 40.390625 
L 29.09375 43 
L 15.09375 43 
L 15.09375 62 
L 13.296875 62 
C 13.09375 51.4375 9.59375 42.1875 1.09375 41.984375 
L 1.09375 40.390625 
L 9.796875 40.390625 
L 9.796875 12.15625 
C 9.796875 10.234375 9.796875 -1 21.40625 -1 
C 27.296875 -1 30.703125 4.8125 30.703125 12.25 
L 30.703125 17.984375 
L 28.90625 17.984375 
L 28.90625 12.34375 
C 28.90625 5.421875 26.203125 0.796875 22 0.796875 
C 19.09375 0.796875 15.09375 2.796875 15.09375 11.953125 
z
" id="CMR17-116"/>
    </defs>
    <g transform="translate(344.232901 59.08918)scale(0.12 -0.12)">
     <use transform="scale(0.996264)" xlink:href="#CMR17-77"/>
     <use transform="translate(84.686941 0)scale(0.996264)" xlink:href="#CMR17-111"/>
     <use transform="translate(130.377418 0)scale(0.996264)" xlink:href="#CMR17-116"/>
     <use transform="translate(165.658185 0)scale(0.996264)" xlink:href="#CMR17-116"/>
    </g>
   </g>
  </g>
  <g id="axes_4">
   <g id="patch_17">
    <path d="M 217.6875 194.4 
L 374.625 194.4 
L 374.625 121.5 
L 217.6875 121.5 
z
" style="fill:#ffffff;"/>
   </g>
   <g id="matplotlib.axis_7">
    <g id="xtick_16">
     <g id="line2d_33">
      <g>
       <use style="stroke:#000000;stroke-width:0.8;" x="217.6875" xlink:href="#me66b951d2a" y="194.4"/>
      </g>
     </g>
     <g id="line2d_34">
      <g>
       <use style="stroke:#000000;stroke-width:0.8;" x="217.6875" xlink:href="#m314acf74f8" y="121.5"/>
      </g>
     </g>
     <g id="text_23">
      <!-- 0 -->
      <g transform="translate(214.761005 209.70218)scale(0.12 -0.12)">
       <use transform="scale(0.996264)" xlink:href="#CMR17-48"/>
      </g>
     </g>
    </g>
    <g id="xtick_17">
     <g id="line2d_35">
      <g>
       <use style="stroke:#000000;stroke-width:0.8;" x="296.15625" xlink:href="#me66b951d2a" y="194.4"/>
      </g>
     </g>
     <g id="line2d_36">
      <g>
       <use style="stroke:#000000;stroke-width:0.8;" x="296.15625" xlink:href="#m314acf74f8" y="121.5"/>
      </g>
     </g>
     <g id="text_24">
      <!-- .5 -->
      <g transform="translate(291.603924 209.70218)scale(0.12 -0.12)">
       <use transform="scale(0.996264)" xlink:href="#CMR17-46"/>
       <use transform="translate(24.871058 0)scale(0.996264)" xlink:href="#CMR17-53"/>
      </g>
     </g>
    </g>
    <g id="xtick_18">
     <g id="line2d_37">
      <g>
       <use style="stroke:#000000;stroke-width:0.8;" x="374.625" xlink:href="#me66b951d2a" y="194.4"/>
      </g>
     </g>
     <g id="line2d_38">
      <g>
       <use style="stroke:#000000;stroke-width:0.8;" x="374.625" xlink:href="#m314acf74f8" y="121.5"/>
      </g>
     </g>
     <g id="text_25">
      <!-- 1 -->
      <g transform="translate(371.698505 209.70218)scale(0.12 -0.12)">
       <use transform="scale(0.996264)" xlink:href="#CMR17-49"/>
      </g>
     </g>
    </g>
    <g id="xtick_19">
     <g id="line2d_39">
      <g>
       <use style="stroke:#000000;stroke-width:0.8;" x="255.3525" xlink:href="#me66b951d2a" y="194.4"/>
      </g>
     </g>
     <g id="line2d_40">
      <g>
       <use style="stroke:#000000;stroke-width:0.8;" x="255.3525" xlink:href="#m314acf74f8" y="121.5"/>
      </g>
     </g>
    </g>
    <g id="xtick_20">
     <g id="line2d_41">
      <g>
       <use style="stroke:#000000;stroke-width:0.8;" x="307.166391" xlink:href="#me66b951d2a" y="194.4"/>
      </g>
     </g>
     <g id="line2d_42">
      <g>
       <use style="stroke:#000000;stroke-width:0.8;" x="307.166391" xlink:href="#m314acf74f8" y="121.5"/>
      </g>
     </g>
    </g>
    <g id="text_26">
     <!-- $\omega / U$ -->
     <g transform="translate(285.395539 224.993152)scale(0.12 -0.12)">
      <use transform="scale(0.996264)" xlink:href="#CMMI12-33"/>
      <use transform="translate(64.318346 0)scale(0.996264)" xlink:href="#CMMI12-61"/>
      <use transform="translate(113.093265 0)scale(0.996264)" xlink:href="#CMMI12-85"/>
     </g>
    </g>
   </g>
   <g id="matplotlib.axis_8">
    <g id="ytick_7">
     <g id="line2d_43">
      <g>
       <use style="stroke:#000000;stroke-width:0.8;" x="217.6875" xlink:href="#m7ee6109d55" y="189.84375"/>
      </g>
     </g>
    </g>
    <g id="ytick_8">
     <g id="line2d_44">
      <g>
       <use style="stroke:#000000;stroke-width:0.8;" x="217.6875" xlink:href="#m7ee6109d55" y="144.28125"/>
      </g>
     </g>
    </g>
   </g>
   <g id="LineCollection_7">
    <path clip-path="url(#p26c364119d)" d="M 255.3525 194.4 
L 255.3525 121.5 
" style="fill:none;stroke:#000000;stroke-dasharray:0.5,0.825;stroke-dashoffset:0;stroke-width:0.5;"/>
   </g>
   <g id="LineCollection_8">
    <path clip-path="url(#p26c364119d)" d="M 307.3302 194.4 
L 307.3302 121.5 
" style="fill:none;stroke:#000000;stroke-dasharray:0.5,0.825;stroke-dashoffset:0;stroke-width:0.5;"/>
   </g>
   <g id="line2d_45">
    <path clip-path="url(#p26c364119d)" d="M 217.499175 189.778984 
L 240.474825 189.675631 
L 242.16975 189.52544 
L 243.488025 189.304573 
L 244.994625 189.586905 
L 246.68955 189.563736 
L 248.5728 189.51559 
L 250.267725 189.464034 
L 251.586 189.250555 
L 252.3393 188.970619 
L 252.904275 188.5864 
L 253.657575 187.765983 
L 254.034225 187.188094 
L 254.410875 186.257229 
L 254.97585 183.916593 
L 255.3525 182.57397 
L 255.540825 182.501659 
L 255.72915 182.910961 
L 256.8591 187.093545 
L 257.424075 187.984377 
L 258.177375 188.717658 
L 258.930675 189.103384 
L 260.060625 189.358907 
L 261.943875 189.517111 
L 264.957075 189.531518 
L 266.463675 189.384988 
L 267.4053 189.070853 
L 267.970275 188.89983 
L 268.53525 189.009409 
L 269.28855 189.162503 
L 270.04185 189.074826 
L 270.606825 188.80599 
L 271.1718 188.289029 
L 271.736775 187.753851 
L 271.9251 187.743931 
L 272.30175 188.027192 
L 273.05505 188.745458 
L 273.620025 189.047956 
L 274.373325 189.19182 
L 279.646425 189.416882 
L 288.4977 188.856509 
L 290.192625 188.471997 
L 291.5109 187.945355 
L 292.452525 187.310862 
L 293.205825 186.489622 
L 293.7708 185.527728 
L 294.335775 184.00857 
L 294.712425 182.447041 
L 295.089075 180.127149 
L 295.465725 176.583338 
L 296.0307 167.995201 
L 296.595675 158.77639 
L 296.972325 156.308154 
L 297.16065 156.170094 
L 297.348975 156.47021 
L 297.91395 158.466929 
L 298.855575 161.924855 
L 299.608875 163.969772 
L 300.738825 166.347648 
L 301.492125 167.366618 
L 302.0571 167.782519 
L 302.43375 167.981291 
L 303.94035 169.311708 
L 305.258625 169.84572 
L 306.765225 170.230866 
L 307.141875 170.133904 
L 307.518525 169.749188 
L 308.271825 168.620628 
L 308.648475 168.704379 
L 309.21345 169.017532 
L 309.5901 169.034431 
L 310.3434 168.773543 
L 311.0967 168.38984 
L 312.414975 167.299473 
L 312.791625 166.810424 
L 315.051525 162.550841 
L 315.99315 159.459472 
L 317.311425 155.16372 
L 317.49975 155.087161 
L 317.688075 155.475097 
L 317.8764 156.515027 
L 318.25305 161.023314 
L 319.194675 176.350344 
L 319.75965 181.175802 
L 320.324625 183.761605 
L 320.8896 185.281865 
L 321.6429 186.557139 
L 322.3962 187.333372 
L 323.337825 187.919113 
L 324.6561 188.435501 
L 326.1627 188.768051 
L 328.04595 188.956898 
L 329.364225 188.908177 
L 330.117525 188.706778 
L 331.05915 188.385051 
L 332.000775 188.410163 
L 332.377425 188.20965 
L 333.31905 187.373253 
L 333.507375 187.404145 
L 333.884025 187.782188 
L 334.637325 188.587821 
L 335.2023 188.854738 
L 336.897225 189.19051 
L 338.403825 189.228741 
L 339.7221 189.080224 
L 340.663725 188.759691 
L 341.2287 188.356527 
L 341.793675 187.626699 
L 342.35865 186.397909 
L 342.7353 185.123186 
L 343.4886 182.17761 
L 343.676925 182.236462 
L 344.053575 183.618936 
L 344.61855 186.03727 
L 345.183525 187.508361 
L 345.7485 188.331758 
L 346.313475 188.776558 
L 347.066775 189.077945 
L 348.0084 189.213891 
L 351.0216 189.272328 
L 351.7749 189.168961 
L 354.223125 189.58452 
L 361.94445 189.744079 
L 374.75055 189.788711 
L 374.75055 189.788711 
" style="fill:none;stroke:#f78347;stroke-linecap:square;stroke-width:0.5;"/>
   </g>
   <g id="line2d_46">
    <path clip-path="url(#p26c364119d)" d="M 217.56195 189.800449 
L 241.41645 189.690726 
L 242.2953 189.529674 
L 243.2997 189.170985 
L 244.17855 189.580928 
L 245.18295 189.677346 
L 247.0662 189.613097 
L 248.0706 189.544956 
L 249.20055 189.606689 
L 251.0838 189.45578 
L 252.0882 189.200679 
L 252.71595 188.821932 
L 253.21815 188.22094 
L 254.22255 186.522737 
L 254.47365 185.411423 
L 254.8503 182.295597 
L 255.3525 176.91776 
L 255.47805 176.813638 
L 255.72915 178.781494 
L 256.3569 185.072812 
L 256.73355 186.753294 
L 257.1102 187.478909 
L 258.49125 189.045927 
L 259.24455 189.334242 
L 260.50005 189.528517 
L 263.01105 189.646067 
L 266.27535 189.604466 
L 267.1542 189.419423 
L 268.03305 189.089191 
L 269.4141 189.513286 
L 270.29295 189.43705 
L 270.79515 189.239402 
L 271.1718 188.901846 
L 271.79955 188.249949 
L 272.05065 188.473496 
L 272.6784 189.120627 
L 273.4317 189.45434 
L 274.4361 189.568193 
L 278.32815 189.615793 
L 280.83915 189.475676 
L 281.59245 189.427068 
L 282.9735 189.508238 
L 286.4889 189.363032 
L 289.37655 189.065909 
L 291.13425 188.678367 
L 292.2642 188.209798 
L 293.0175 187.681937 
L 293.64525 186.972541 
L 294.14745 186.063486 
L 294.5241 185.009956 
L 294.90075 183.366323 
L 295.2774 180.592204 
L 295.65405 175.502295 
L 296.0307 166.146372 
L 296.5329 152.113041 
L 296.784 150.17079 
L 296.90955 150.28288 
L 297.16065 151.4803 
L 298.66725 160.469737 
L 299.42055 163.12533 
L 300.42495 165.412546 
L 301.42935 167.316218 
L 301.806 167.682756 
L 302.0571 167.656122 
L 302.3082 167.505806 
L 302.43375 167.539137 
L 302.68485 167.976136 
L 303.18705 168.926984 
L 303.68925 169.389938 
L 304.317 169.480095 
L 304.69365 169.351123 
L 304.94475 169.482039 
L 305.44695 169.799832 
L 306.3258 169.967727 
L 306.70245 170.420454 
L 307.0791 170.910243 
L 307.3302 170.889571 
L 307.5813 170.294353 
L 308.20905 167.792101 
L 308.3346 167.88285 
L 308.96235 169.034568 
L 309.339 169.102953 
L 309.8412 169.012732 
L 310.21785 168.630456 
L 310.72005 168.083478 
L 312.3522 167.436217 
L 312.8544 166.742821 
L 313.23105 165.6151 
L 313.6077 164.579718 
L 314.361 163.313757 
L 314.98875 161.76926 
L 316.24425 156.693121 
L 316.99755 152.104 
L 317.49975 149.455011 
L 317.6253 149.367013 
L 317.75085 149.706624 
L 318.00195 152.368437 
L 318.3786 162.342256 
L 318.8808 175.436603 
L 319.25745 180.485017 
L 319.6341 183.23595 
L 320.1363 185.239686 
L 320.6385 186.353011 
L 321.3918 187.425549 
L 322.01955 187.973507 
L 322.8984 188.433253 
L 324.27945 188.847469 
L 326.03715 189.134895 
L 328.54815 189.302666 
L 329.80365 189.233094 
L 330.4314 189.000725 
L 330.9336 188.766272 
L 331.31025 188.879294 
L 331.81245 189.047491 
L 332.31465 188.950538 
L 332.6913 188.665201 
L 333.31905 188.022971 
L 333.57015 188.183799 
L 334.32345 189.075858 
L 334.9512 189.322286 
L 336.08115 189.442571 
L 338.2155 189.406615 
L 339.7221 189.185992 
L 340.4754 188.89455 
L 340.9776 188.51125 
L 341.35425 188.005267 
L 341.7309 187.146242 
L 342.10755 185.769973 
L 342.4842 183.599208 
L 342.86085 179.345992 
L 343.2375 174.700608 
L 343.2375 174.700608 
" style="fill:none;stroke:#55115c;stroke-dasharray:0.5,0.825;stroke-dashoffset:0;stroke-width:0.5;"/>
   </g>
   <g id="patch_18">
    <path d="M 217.6875 194.4 
L 217.6875 121.5 
" style="fill:none;stroke:#000000;stroke-linecap:square;stroke-linejoin:miter;stroke-width:1.2;"/>
   </g>
   <g id="patch_19">
    <path d="M 374.625 194.4 
L 374.625 121.5 
" style="fill:none;stroke:#000000;stroke-linecap:square;stroke-linejoin:miter;stroke-width:1.2;"/>
   </g>
   <g id="patch_20">
    <path d="M 217.6875 194.4 
L 374.625 194.4 
" style="fill:none;stroke:#000000;stroke-linecap:square;stroke-linejoin:miter;stroke-width:1.2;"/>
   </g>
   <g id="patch_21">
    <path d="M 217.6875 121.5 
L 374.625 121.5 
" style="fill:none;stroke:#000000;stroke-linecap:square;stroke-linejoin:miter;stroke-width:1.2;"/>
   </g>
   <g id="text_27">
    <!-- (d) -->
    <g transform="translate(227.10375 133.382376)scale(0.12 -0.12)">
     <use transform="scale(0.996264)" xlink:href="#CMR17-40"/>
     <use transform="translate(35.280768 0)scale(0.996264)" xlink:href="#CMR17-100"/>
     <use transform="translate(86.176138 0)scale(0.996264)" xlink:href="#CMR17-41"/>
    </g>
    <!-- T = 1.5 -->
    <g transform="translate(227.10375 146.333784)scale(0.12 -0.12)">
     <use transform="scale(0.996264)" xlink:href="#CMR17-84"/>
     <use transform="translate(96.585847 0)scale(0.996264)" xlink:href="#CMR17-61"/>
     <use transform="translate(198.376602 0)scale(0.996264)" xlink:href="#CMR17-49"/>
     <use transform="translate(244.067079 0)scale(0.996264)" xlink:href="#CMR17-46"/>
     <use transform="translate(268.938137 0)scale(0.996264)" xlink:href="#CMR17-53"/>
    </g>
    <!-- U = 5 -->
    <g transform="translate(227.10375 158.620995)scale(0.12 -0.12)">
     <use transform="scale(0.996264)" xlink:href="#CMR17-85"/>
     <use transform="translate(99.148396 0)scale(0.996264)" xlink:href="#CMR17-61"/>
     <use transform="translate(200.939151 0)scale(0.996264)" xlink:href="#CMR17-53"/>
    </g>
   </g>
   <g id="text_28">
    <!-- CDW -->
    <g transform="translate(340.820724 131.98918)scale(0.12 -0.12)">
     <use transform="scale(0.996264)" xlink:href="#CMR17-67"/>
     <use transform="translate(66.509881 0)scale(0.996264)" xlink:href="#CMR17-68"/>
     <use transform="translate(134.300983 0)scale(0.996264)" xlink:href="#CMR17-87"/>
    </g>
   </g>
  </g>
  <g id="patch_22">
   <path d="M 379.485 114.21 
L 437.4 114.21 
L 437.4 48.6 
L 379.485 48.6 
z
" style="fill:none;stroke:#000000;stroke-linejoin:miter;stroke-width:0.7;"/>
  </g>
  <g id="legend_1">
   <g id="text_29">
    <!-- N = 270 -->
    <defs>
     <path d="M 20.5 66.796875 
C 19.796875 67.890625 19.703125 68 17.796875 68 
L 5.09375 68 
L 5.09375 65.390625 
L 7 65.390625 
C 11 65.390625 12.796875 64.890625 13.09375 64.796875 
L 13.09375 9.75 
C 13.09375 7.265625 13.09375 2.59375 5.09375 2.59375 
L 5.09375 0 
C 7.40625 0.1875 11.59375 0.1875 14.09375 0.1875 
C 16.59375 0.1875 20.796875 0.1875 23.09375 0 
L 23.09375 2.59375 
C 15.09375 2.59375 15.09375 7.265625 15.09375 9.75 
L 15.09375 63.390625 
C 15.796875 62.796875 15.796875 62.609375 16.5 61.609375 
L 53.59375 1.1875 
C 54.296875 0 54.59375 0 55.09375 0 
C 56.09375 0 56.09375 0.296875 56.09375 2.1875 
L 56.09375 58.21875 
C 56.09375 60.703125 56.09375 65.390625 64.09375 65.390625 
L 64.09375 68 
C 61.796875 67.796875 57.59375 67.796875 55.09375 67.796875 
C 52.59375 67.796875 48.40625 67.796875 46.09375 68 
L 46.09375 65.390625 
C 54.09375 65.390625 54.09375 60.703125 54.09375 58.21875 
L 54.09375 12.140625 
z
" id="CMR17-78"/>
     <path d="M 45.09375 61.796875 
L 45.09375 64 
L 21.59375 64 
C 9.90625 64 9.703125 65.09375 9.296875 67 
L 7.5 67 
L 4.59375 48.5 
L 6.40625 48.5 
C 6.703125 50.40625 7.40625 55.5 8.59375 57.390625 
C 9.203125 58.1875 16.59375 58.1875 18.296875 58.1875 
L 40.296875 58.1875 
L 29.203125 41.71875 
C 21.796875 30.640625 16.703125 15.671875 16.703125 2.59375 
C 16.703125 1.390625 16.703125 -2 20.296875 -2 
C 23.90625 -2 23.90625 1.390625 23.90625 2.6875 
L 23.90625 7.28125 
C 23.90625 23.65625 26.703125 34.4375 31.296875 41.3125 
z
" id="CMR17-55"/>
    </defs>
    <g transform="translate(390.474662 70.530814)scale(0.095 -0.095)">
     <use transform="scale(0.996264)" xlink:href="#CMR17-78"/>
     <use transform="translate(99.148396 0)scale(0.996264)" xlink:href="#CMR17-61"/>
     <use transform="translate(200.939151 0)scale(0.996264)" xlink:href="#CMR17-50"/>
     <use transform="translate(246.629628 0)scale(0.996264)" xlink:href="#CMR17-55"/>
     <use transform="translate(292.320105 0)scale(0.996264)" xlink:href="#CMR17-48"/>
    </g>
   </g>
   <g id="line2d_47">
    <path d="M 386.969931 80.446127 
L 405.969931 80.446127 
" style="fill:none;stroke:#f78347;stroke-linecap:square;stroke-width:0.5;"/>
   </g>
   <g id="line2d_48"/>
   <g id="text_30">
    <!-- FK -->
    <defs>
     <path d="M 54.40625 67.796875 
L 5.09375 67.796875 
L 5.09375 65.1875 
C 12 65.1875 13.09375 65.1875 13.09375 60.671875 
L 13.09375 7.03125 
C 13.09375 2.59375 12 2.59375 5.09375 2.59375 
L 5.09375 0 
C 8 0.1875 13.59375 0.1875 16.703125 0.1875 
C 20.796875 0.1875 25.59375 0.1875 29.703125 0 
L 29.703125 2.59375 
L 27.5 2.59375 
C 19.90625 2.59375 19.703125 3.578125 19.703125 7.125 
L 19.703125 32.390625 
L 28.703125 32.390625 
C 38 32.390625 38.90625 29.140625 38.90625 20.84375 
L 40.703125 20.84375 
L 40.703125 46.734375 
L 38.90625 46.734375 
C 38.90625 38.296875 38 35 28.703125 35 
L 19.703125 35 
L 19.703125 61.28125 
C 19.703125 64.6875 19.90625 65.1875 23.90625 65.1875 
L 36.796875 65.1875 
C 51.90625 65.1875 53.59375 58.96875 55 45.625 
L 56.796875 45.625 
z
" id="CMR17-70"/>
     <path d="M 36.90625 41.703125 
L 54.203125 58.921875 
C 57.796875 62.40625 61.59375 65.1875 67.203125 65.390625 
L 67.203125 68 
C 65.203125 67.890625 62.703125 67.796875 60.703125 67.796875 
C 58 67.796875 53.296875 67.796875 50.703125 68 
L 50.703125 65.390625 
C 53.296875 65.1875 53.703125 63.390625 53.703125 62.703125 
C 53.703125 62 53.296875 60.90625 52.90625 60.3125 
L 19.703125 27.171875 
L 19.703125 60.90625 
C 19.703125 65.390625 20.796875 65.390625 27.703125 65.390625 
L 27.703125 68 
C 24.796875 67.796875 19.5 67.796875 16.40625 67.796875 
C 13.296875 67.796875 8 67.796875 5.09375 68 
L 5.09375 65.390625 
C 12 65.390625 13.09375 65.390625 13.09375 60.90625 
L 13.09375 7.078125 
C 13.09375 2.59375 12 2.59375 5.09375 2.59375 
L 5.09375 0 
C 8 0.1875 13.296875 0.1875 16.40625 0.1875 
C 19.5 0.1875 24.796875 0.1875 27.703125 0 
L 27.703125 2.59375 
C 20.796875 2.59375 19.703125 2.59375 19.703125 7.078125 
L 19.703125 24.6875 
L 32.5 37.328125 
L 51.40625 8.46875 
C 52 7.46875 52.703125 6.171875 52.703125 5.1875 
C 52.703125 2.59375 49.90625 2.59375 48.59375 2.59375 
L 48.59375 0 
C 51.796875 0.1875 56.40625 0.1875 59.703125 0.1875 
C 62.09375 0.1875 66.203125 0.1875 68.5 0 
L 68.5 2.59375 
C 63.703125 2.59375 62.203125 3.1875 59.203125 7.765625 
z
" id="CMR17-75"/>
    </defs>
    <g transform="translate(413.569931 83.771127)scale(0.095 -0.095)">
     <use transform="scale(0.996264)" xlink:href="#CMR17-70"/>
     <use transform="translate(59.983847 0)scale(0.996264)" xlink:href="#CMR17-75"/>
    </g>
   </g>
   <g id="line2d_49">
    <path d="M 386.969931 93.68644 
L 405.969931 93.68644 
" style="fill:none;stroke:#55115c;stroke-dasharray:0.5,0.825;stroke-dashoffset:0;stroke-width:0.5;"/>
   </g>
   <g id="line2d_50"/>
   <g id="text_31">
    <!-- DM -->
    <g transform="translate(413.569931 97.01144)scale(0.095 -0.095)">
     <use transform="scale(0.996264)" xlink:href="#CMR17-68"/>
     <use transform="translate(70.393556 0)scale(0.996264)" xlink:href="#CMR17-77"/>
    </g>
   </g>
  </g>
  <g id="legend_2">
   <g id="text_32">
    <!-- N = 270 -->
    <g transform="translate(390.474662 70.530814)scale(0.095 -0.095)">
     <use transform="scale(0.996264)" xlink:href="#CMR17-78"/>
     <use transform="translate(99.148396 0)scale(0.996264)" xlink:href="#CMR17-61"/>
     <use transform="translate(200.939151 0)scale(0.996264)" xlink:href="#CMR17-50"/>
     <use transform="translate(246.629628 0)scale(0.996264)" xlink:href="#CMR17-55"/>
     <use transform="translate(292.320105 0)scale(0.996264)" xlink:href="#CMR17-48"/>
    </g>
   </g>
   <g id="line2d_51">
    <path d="M 386.969931 80.446127 
L 405.969931 80.446127 
" style="fill:none;stroke:#f78347;stroke-linecap:square;stroke-width:0.5;"/>
   </g>
   <g id="line2d_52"/>
   <g id="text_33">
    <!-- FK -->
    <g transform="translate(413.569931 83.771127)scale(0.095 -0.095)">
     <use transform="scale(0.996264)" xlink:href="#CMR17-70"/>
     <use transform="translate(59.983847 0)scale(0.996264)" xlink:href="#CMR17-75"/>
    </g>
   </g>
   <g id="line2d_53">
    <path d="M 386.969931 93.68644 
L 405.969931 93.68644 
" style="fill:none;stroke:#55115c;stroke-dasharray:0.5,0.825;stroke-dashoffset:0;stroke-width:0.5;"/>
   </g>
   <g id="line2d_54"/>
   <g id="text_34">
    <!-- DM -->
    <g transform="translate(413.569931 97.01144)scale(0.095 -0.095)">
     <use transform="scale(0.996264)" xlink:href="#CMR17-68"/>
     <use transform="translate(70.393556 0)scale(0.996264)" xlink:href="#CMR17-77"/>
    </g>
   </g>
  </g>
 </g>
 <defs>
  <clipPath id="p02fde8f05c">
   <rect height="72.9" width="156.9375" x="60.75" y="48.6"/>
  </clipPath>
  <clipPath id="pcf60fe2745">
   <rect height="72.9" width="156.9375" x="60.75" y="121.5"/>
  </clipPath>
  <clipPath id="p2dce9fa95d">
   <rect height="72.9" width="156.9375" x="217.6875" y="48.6"/>
  </clipPath>
  <clipPath id="p26c364119d">
   <rect height="72.9" width="156.9375" x="217.6875" y="121.5"/>
  </clipPath>
 </defs>
</svg>
